<?xml version="1.0" standalone="no"?>
<!DOCTYPE svg PUBLIC "-//W3C//DTD SVG 1.1//EN" "http://www.w3.org/Graphics/SVG/1.1/DTD/svg11.dtd" >
<svg xmlns="http://www.w3.org/2000/svg" xmlns:xlink="http://www.w3.org/1999/xlink" version="1.1">
<metadata>
Created by FontForge 20201107 at Sat Apr 19 11:05:38 2025
 By 
Hamilton (c) 2019 Lettersiro. All Rights Reserved
</metadata>
<defs>
<font id="HamiltonScript-Regular" horiz-adv-x="450" >
  <font-face 
    font-family="Hamilton Script"
    font-weight="400"
    font-stretch="normal"
    units-per-em="2048"
    panose-1="0 0 0 0 0 0 0 0 0 0"
    ascent="1638"
    descent="-410"
    x-height="381"
    cap-height="1587"
    bbox="-3305 -1419 3068 2378"
    underline-thickness="102"
    underline-position="-255"
    unicode-range="U+001D-E323"
  />
<missing-glyph horiz-adv-x="0" 
 />
    <glyph glyph-name="uniE313" unicode="ee" horiz-adv-x="1187" 
d="M440 274q-106 -57 -285 -114.5t-286 -57.5q-20 0 -42.5 3.5t-45.5 17.5t-23 35q0 11 6 26q9 17 23 37t25 32.5t30.5 35t26.5 30.5q2 3 7 7t5 6l-2 2q0 5 1 9.5t3.5 7.5t4 5t6.5 4.5l6 3t7 3t7 2.5q5 3 39.5 36.5t77 66.5t71.5 40q8 2 25 2q27 0 46.5 -11.5t19.5 -33.5
q0 -11 -7 -25q-51 -111 -168 -137q-12 -4 -34 -4q-10 0 -24.5 2t-18.5 2q-9 0 -15 -6q-65 -82 -86 -123q-8 -12 -8 -18q0 -2 1 -5t1 -5q11 -11 27 -11h8q95 3 317.5 73.5t286.5 125.5l4 4q0 3 1.5 6t3.5 5.5t4 4t6 3.5t5.5 3t6.5 2.5t6 2.5q1 0 12 12t29 27t42 30.5t59 26
t73 10.5q20 0 39.5 -16t19.5 -41q0 -16 -8 -29q-9 -21 -20 -34t-28 -21t-29.5 -11t-40.5 -7.5t-44 -8.5q-12 -4 -34 -4q-10 0 -24.5 2t-18.5 2q-9 0 -15 -6q-16 -19 -16 -47q0 -29 18 -50.5t49 -21.5h5q99 3 263 52t226 104q10 10 29 10q22 0 22 -12q0 -6 -4 -8
q-53 -60 -237.5 -121.5t-298.5 -61.5h-9q-63 0 -97 31.5t-34 73.5q0 16 2 24zM721 428q-3 6 -16 6q-53 0 -150 -100h23q58 0 105.5 20.5t47.5 48.5q0 15 -10 25zM129 477q-31 -16 -63.5 -42t-52 -45t-54.5 -56h8q56 0 109 46t53 97z" />
    <glyph glyph-name="uniE315" unicode="ff" horiz-adv-x="970" 
d="M-506 76q76 -88 76 -209q0 -32 -8.5 -74t-24.5 -85.5t-44.5 -73t-63.5 -29.5h-2q-66 3 -66 110q0 59 16 131q15 95 35 170q13 64 13 70t-7 6q-1 0 -47 -14q-218 -80 -334 -80q-15 0 -30 6t-15 19q0 16 37 45q53 41 126.5 71.5t144.5 30.5q56 0 110 -25q12 -6 19 -6
q11 0 26 56q2 8 8.5 30t20.5 70.5t31 105.5q38 126 65 206t80.5 204t124.5 252q102 181 156 231q38 33 73 33q44 0 47 -49v-6q0 -104 -135 -369q-51 -95 -95.5 -161t-113.5 -154q-100 -126 -129 -152q-17 -14 -34 -67q-56 -166 -56 -203v-2h4q63 0 251 81.5t247 137.5
q134 424 322 768q103 183 155 229q36 33 74 33q44 0 47 -47v-6q0 -95 -117 -336q-71 -133 -124 -227t-145 -229t-163 -197q-5 -11 -12 -13q-4 -8 -4 -12q-11 -35 -17.5 -57.5t-13.5 -54.5t-14 -58q0 -4 2 -12q356 135 446 182q10 4 20.5 9.5t15 7.5t9.5 2h8q19 0 23 -11
l2 -4q0 -3 -1.5 -5t-6 -5t-9.5 -5.5t-16 -7.5t-20 -10q-28 -16 -68.5 -34.5t-97.5 -41.5t-96 -38.5t-109 -42t-92 -35.5q-29 -6 -29 -23q0 -6 13 -22q71 -83 71 -275q0 -40 -6 -91.5t-21 -114.5t-46.5 -104.5t-75.5 -41.5h-2q-66 3 -66 111q0 54 17 131q3 21 16 106.5
t24.5 158t18.5 103.5l2 10t1.5 8t0.5 5q0 6 -6 6q-7 0 -37 -12q-5 -2 -22 -8t-24.5 -8.5t-23 -7.5t-26 -7.5t-24 -5.5t-26 -4.5t-24.5 -1.5q-10 0 -22 1t-27 4.5t-25 10.5t-10 17q0 32 51.5 67t120.5 35q56 0 113 -29q8 -4 16 -4q12 0 25 54q19 63 35 124
q-57 -38 -131.5 -71t-134 -53.5t-206.5 -67.5q-1 -1 -5.5 -2.5t-7 -2.5t-6 -3t-6 -4t-4 -5t-1.5 -6q0 -8 16 -26zM-317 72q2 -2 16 -2q33 0 91.5 17t80.5 36q-40 22 -78 22q-36 0 -73 -20.5t-37 -52.5zM-96 -518q43 27 70.5 129t27.5 217q0 155 -47 213
q-17 -66 -43.5 -241.5t-26.5 -241.5v-11q0 -44 19 -65zM80 492q0 -1 -1 -4t-1 -5t4 -6q60 76 164.5 245t198.5 363t94 277v12q-55 -40 -128 -159t-138.5 -261.5t-115.5 -263t-77 -198.5zM-385 553q-2 -2 -2 -6t2 -6q152 189 240 350q54 99 99.5 210.5t45.5 174.5v10
q-48 -35 -125 -162q-87 -143 -139.5 -260.5t-120.5 -310.5zM-940 27q26 4 56 11t49.5 12.5t57 17.5t49 16t58 20.5t52.5 18.5q-28 14 -46 18t-51 4q-108 -13 -225 -104q-2 -2 -2 -6t2 -8zM-571 -367q41 25 64.5 88t23.5 136q0 118 -54 184q-53 -224 -53 -330v-12
q0 -45 19 -66z" />
    <glyph glyph-name="uniE317" unicode="ll" horiz-adv-x="1017" 
d="M453 -115q-88 0 -88 92v7q0 90 63 295q-21 -19 -106.5 -103.5t-149.5 -139.5t-113 -81q-65 -37 -120 -37q-83 0 -86 92v8q0 87 53 256q-33 3 -36 13q-1 2 -1 4q0 23 20 26q21 3 30.5 15.5t17.5 36.5q6 17 31.5 93t38.5 112.5t38.5 109t44.5 118.5t43.5 103.5t47.5 102
t46 77.5q59 82 105 82h6q35 -7 35 -67q0 -9 -4 -37q-55 -319 -369 -703q-14 -17 -16 -30q-68 -207 -68 -305q0 -25 2 -37q6 -35 29 -35q6 0 22 4q61 20 184 127t217 205.5t99 113.5q73 211 175.5 459t182.5 367q21 32 40 48.5t46 16.5h9q21 -2 30.5 -11t10.5 -30
q0 -27 -11 -73q-43 -197 -156.5 -399.5t-263.5 -385.5q-31 -38 -67.5 -194.5t-36.5 -216.5q0 -23 2 -31q6 -32 25 -35h6q37 0 110 55t138 119.5t139.5 140.5t93.5 93q14 14 35 14q16 0 16 -12q0 -7 -4 -11l-22 -22q-31 -27 -84.5 -84.5t-102.5 -109t-105 -103t-114 -82
t-108 -31.5zM578 549q-3 -3 -3 -6q0 -4 3 -4q9 4 58 80.5t62 101.5q75 120 134 259t69 251q-11 -2 -20 -19q-68 -99 -158 -303.5t-145 -359.5zM313 1063q0 16 -8 16q-22 0 -91 -144t-127 -293t-58 -169v-2q37 7 107 134.5t123.5 268.5t53.5 189z" />
    <glyph glyph-name="uniE320" unicode="oo" horiz-adv-x="1073" 
d="M788 207q-127 -168 -215 -168q-49 0 -49 47v8q0 54 43 142q-20 7 -37 18q-89 -23 -200 -41q-25 -3 -41 -25q-149 -186 -240 -186q-54 0 -57 53v4q0 34 15.5 80.5t35.5 81.5q-2 3 -21 15t-33 30.5t-14 44.5q0 2 5 27q19 68 79 130t129 97q48 21 117 21q54 -3 86.5 -36.5
t32.5 -86.5v-17q-4 -33 -20.5 -72.5t-31 -63.5t-40.5 -64q4 -2 10 -2q4 0 20 4q80 14 148 31q-6 12 -6 26q0 29 22 72q39 72 106 121t142 49h17q49 -3 77.5 -33t28.5 -78v-16q-4 -43 -20.5 -79t-47.5 -83q2 -2 9 -2q6 0 18 4q146 26 211 72q8 8 29 8q14 0 14 -8
q0 -28 -111 -61.5t-172 -43.5q-25 -3 -39 -20zM57 33q17 0 57.5 38t67.5 69t49 59h-30q-55 0 -99 8h-4q-6 0 -14 -12q-39 -86 -39 -132l2 -12q0 -18 10 -18zM270 242q33 48 50.5 77t33 73.5t15.5 88.5q-4 38 -27 58t-55 20q-65 0 -135.5 -62.5t-104.5 -129.5
q-16 -26 -16 -54q0 -30 22 -49q6 -6 10 -6t9.5 6t16 16.5t24.5 18.5q17 12 45 12t28 -12q0 -8 -8 -8q-10 -1 -17.5 -4t-15 -9.5t-11.5 -11t-12.5 -15.5t-12.5 -15q53 -11 81 -11q30 0 64 6q5 0 16 11zM594 72q40 24 72 57.5t73 85.5h-30q-43 0 -86 6h-5q-9 0 -12 -10
q-35 -68 -35 -117q0 -8 2 -12q0 -16 9 -16q3 0 12 6zM582 268h4q6 0 12 6q-3 -1 -8 -3t-8 -3zM563 295q45 11 74 29q19 16 39 16q22 0 22 -31v-4q0 -8 -8 -8q-14 -1 -26 -9.5t-17 -15t-18 -24.5q31 -8 69 -8q20 0 60 4q4 0 14 10q76 105 76 180v19q-8 69 -76 69
q-61 0 -137 -71t-76 -134q0 -6 4 -22z" />
    <glyph glyph-name="uniE321" unicode="rr" horiz-adv-x="1171" 
d="M489 -61h-2q-55 3 -55 41q0 27 35.5 87t157.5 238l-4 4q-9 -3 -37 -14.5t-45 -18t-43 -14.5t-47 -12q-230 -212 -335 -295q-193 -154 -266 -154h-2q-49 3 -49 41q0 13 19 68q23 55 60.5 123.5t66.5 115t80 126t71 110.5q-4 0 -4 4q-5 -2 -35 -16t-41.5 -19t-39 -16
t-44.5 -15.5t-40 -9t-42 -4.5q-12 0 -36 4q-45 10 -45 56q0 38 30 100q42 93 111.5 188t140.5 134q32 14 60 14q59 0 59 -49v-11q-4 -31 -14 -51q-55 -147 -177 -295q-15 -15 -16 -20h4q11 0 23 8q29 12 125 59q22 9 45 9q32 0 32 -19q0 -10 -4 -16l-24 -37
q-7 -11 -41 -61.5t-47.5 -71t-43.5 -67t-46.5 -75.5t-39.5 -69t-39 -75t-28 -68q-10 -35 -10 -48v-6q73 17 483 377q20 17 29 25q-32 0 -56 14.5t-24 44.5q0 22 20 72q18 41 44.5 84t62 88t80.5 73.5t88 28.5q28 0 46.5 -12t18.5 -37q0 -13 -8 -41q-43 -122 -145 -242h-2
q2 -2 2 -6q0 -2 -4 -10q4 0 16 6q10 4 53 21.5t66 25.5q20 8 45 8q33 0 33 -18q0 -6 -2 -10q-11 -19 -21 -31q-8 0 -56.5 -67.5t-94 -146.5t-45.5 -105q0 -8 6 -11q61 12 256 143t297 212q12 8 24 8q25 0 25 -12q0 -8 -12 -17q-58 -46 -121.5 -94t-163 -117.5t-185.5 -113
t-133 -43.5zM-123 358q52 27 136.5 169t92.5 212q0 2 1.5 6.5t1.5 6.5q0 9 -9 18q-29 -13 -51 -35q-146 -131 -215 -327q-8 -16 -8 -39q0 -21 14 -27q6 -2 15 -2q8 0 13 8t9 10zM412 285q51 23 119.5 140.5t68.5 176.5q0 9 -10 19q-69 -23 -135.5 -117.5t-92.5 -177.5
q-4 -12 -4 -27q0 -31 33 -31q8 0 12.5 7.5t8.5 9.5z" />
    <glyph glyph-name="uniE322" unicode="ss" horiz-adv-x="1101" 
d="M616 74q17 -28 17 -58q0 -32 -21 -58.5t-55 -44t-66.5 -28.5t-66.5 -18q-6 -2 -29 -2q-67 0 -67 35q0 6 2 10q9 30 57 75t92 78l43 31q8 5 8 15q0 9 -13.5 25t-29.5 33t-29.5 44.5t-13.5 56.5q0 19 5 29q-69 -36 -128 -69.5t-122 -71.5t-101 -60q-6 -3 -6 -12q0 -6 2 -10
q17 -34 17 -56q0 -45 -55.5 -90.5t-121.5 -70.5t-108 -25q-15 0 -21 2q-43 11 -43 35q0 2 1 5t1 5q4 8 10.5 17.5t14 19t19.5 21t21 20t23.5 21.5t23 20t24 19.5t21.5 17t20 16t16 12.5l43 31q14 8 14 15q0 6 -14 20q-9 10 -27.5 29.5t-27.5 29.5q-82 95 -82 162
q0 60 48.5 105t119.5 61q6 2 20 2t39 -10.5t25 -22.5v-2q-3 -8 -9 -8q-1 0 -4 1t-4 1h-14q-61 0 -108.5 -43t-47.5 -102q0 -30 19 -66q6 -11 14 -23.5t14 -20.5t18 -22.5t16.5 -19.5t19.5 -21.5t18 -19.5q4 -4 10 -4q4 0 6 2q8 4 11 4q291 181 448 254q41 27 92 39h11
q24 0 47.5 -8.5t23.5 -22.5v-2q0 -8 -14 -8h-16q-53 0 -96.5 -31.5t-53.5 -80.5q-2 -6 -2 -23q0 -40 21 -81.5t43 -41.5q6 0 8 2q8 4 10 4q186 116 395 203q2 2 8 2q7 0 13 -5t6 -11q0 -8 -6 -11q-82 -42 -147.5 -79t-135.5 -79.5t-108 -64.5q-7 -4 -7 -12q0 -6 2 -10z
M41 -2q8 13 8 35q0 12 -2 20h-4q-8 0 -16 -8q-131 -94 -185 -156q-10 -10 -10 -16q0 -1 1 -3t1 -3q107 31 176 92q25 25 31 39zM563 -2q8 13 8 35q0 12 -2 20h-4q-8 0 -16 -8q-140 -107 -143 -133v-2q0 -6 10 -6q26 0 79.5 32t67.5 62z" />
    <glyph glyph-name="uniE323" unicode="tt" horiz-adv-x="911" 
d="M231 -14q-120 0 -120 164q0 48 14 120q-37 -54 -64 -90.5t-70.5 -92.5t-77 -90t-70.5 -60t-64 -27q-88 0 -88 162l2 34q9 174 127 494q6 24 6 27v6h-19q-11 0 -34.5 -1t-36.5 -1q-75 -6 -221 -10h-15q-37 0 -37 12q0 8 11 8q6 2 18 2q54 3 163.5 10.5t164.5 10.5
q25 3 33 24q44 114 109.5 268t98.5 201q17 23 48 23q12 0 20 -6.5t8 -16.5v-4q-1 -6 -4 -17.5t-4 -17.5q-70 -225 -149 -413q-11 -22 -11 -29v-4q151 8 219 10q39 0 70 2q8 8 10 16q114 297 172 379q17 23 45 23q12 0 20.5 -6.5t8.5 -16.5v-4q0 -28 -49 -168t-74 -202
q-3 -3 -8 -17q197 6 444 6q238 0 285 -12q11 -1 27.5 -4.5t17.5 -3.5q10 -3 10 -10q0 -13 -22 -13q-2 0 -7 1t-8 1q-76 11 -165 11q-141 0 -363 -11q-36 -1 -111.5 -5t-113.5 -5q-5 0 -8 -1t-6 -3.5t-4 -3.5t-4 -7l-3 -5q-41 -90 -102 -215q-2 -5 -8 -17t-9.5 -18.5
t-10.5 -15.5t-15 -15q-11 -7 -26 -91.5t-15 -109.5q0 -44 15.5 -85.5t51.5 -41.5q50 0 144 61t174.5 138.5t99.5 124.5q2 4 6 4q5 0 11 -6.5t6 -13.5t-4 -11q-33 -57 -106 -130t-164 -132t-154 -63h-15zM385 852q-43 -97 -66 -166h5q16 24 35.5 77t25.5 89zM8 930
q-74 -167 -104 -256q15 13 55.5 114.5t48.5 141.5zM-207 -45h2q47 0 135.5 107.5t158 224t93.5 176.5l2 6q58 153 58 170v4q-2 8 -39 12l-13 -2q-29 0 -43 -2q-80 -5 -184 -8q-4 -1 -7 -2t-5 -3.5t-3 -4t-3 -5.5t-2 -5l-105 -215q-2 -5 -8 -17t-9.5 -18.5t-10.5 -15.5
t-15 -15q-16 -10 -31.5 -130t-15.5 -165q0 -90 45 -92z" />
    <glyph glyph-name=".notdef" horiz-adv-x="0" 
 />
    <glyph glyph-name=".null" horiz-adv-x="0" 
 />
    <glyph glyph-name=".null" horiz-adv-x="0" 
 />
    <glyph glyph-name="nonmarkingreturn" horiz-adv-x="0" 
 />
    <glyph glyph-name="space" unicode=" " horiz-adv-x="587" 
 />
    <glyph glyph-name="space" unicode="&#xa0;" horiz-adv-x="587" 
 />
    <glyph glyph-name="exclam" unicode="!" 
d="M141 322q-22 0 -22 14l2 10l268 598q7 17 14 23t19 6q29 0 29 -21q0 -20 -35 -102q-34 -75 -100 -212.5l-78 -162.5q-37 -83 -66 -133q-10 -20 -31 -20zM37 6h-10q-27 0 -27 12q2 21 27 21q1 0 17 3t24 3l12 -2q18 -5 18 -14q0 -10 -16 -15z" />
    <glyph glyph-name="quotedbl" unicode="&#x22;" horiz-adv-x="204" 
d="M100 1042q0 -10 -2 -16q-9 -40 -80 -84q-8 -4 -10 -4h-4q-4 0 -4 4v2q0 13 10 21q11 7 35 28q6 6 13.5 18.5t13.5 21.5t12 9q2 0 2 5q4 4 8 4q2 -1 6 -9zM203 1042q0 -10 -2 -16q-9 -40 -80 -84q-8 -4 -10 -4h-5q-4 0 -4 4v2q0 13 11 21q11 6 14.5 9t8.5 8l11 11
t13.5 18.5t13.5 21.5t12 9q2 0 2 5q4 4 9 4q2 -1 6 -9z" />
    <glyph glyph-name="numbersign" unicode="#" horiz-adv-x="638" 
d="M590 483h39q10 0 10 -8t-8 -8q-20 -4 -29 -4q-14 -2 -29 -3t-33 -1.5t-28 -1.5q-24 -4 -31 -15l-75 -129v-8h24q53 0 98 19q20 8 33 8h8q6 0 9 -6v-4q0 -2 -7 -9q-51 -32 -145 -32h-18q-25 0 -37 -21q-19 -34 -54 -78q-16 -16 -25.5 -19t-33.5 -3q-8 4 -8 8l-2 2q0 4 4 4
q9 4 17 11.5t11 11.5t11 17.5t8 14.5q12 16 27 47q-11 4 -45 9q-53 0 -80 2h-6q-15 0 -21 -15q-8 -16 -25.5 -48t-25.5 -48t-31 -16q-9 0 -12 6q-4 4 -4 8q0 1 12.5 28t25.5 56t15 33q-18 6 -35 6q-15 0 -35 -4h-30q-11 4 -11 10q0 5 7 12q5 2 13 5l9 2q32 4 51 4
q21 0 31 -2q1 0 4 -1t4 -1q8 0 13 8q10 18 29.5 58t31.5 61h-125q-25 0 -41 -9q-12 -4 -16 -4q-16 0 -21 8q-8 3 -8 11q0 7 10 12q12 4 37 4q35 2 105 2h45q32 0 43 27q20 42 57 106q8 23 29 23h4q18 0 18 -13q0 -8 -2 -12q-7 -16 -22.5 -48t-22.5 -48q-1 -2 -4.5 -7
t-5.5 -10t-2 -10l2 -4q29 -2 92 -2h41q12 0 20 17q10 18 30 52.5t30 51.5q12 27 41 27h8l2 -2q14 -3 14 -9q0 -2 -4 -14q-9 -17 -27.5 -51t-27.5 -51q-4 -4 -4 -11l2 -6q6 -2 22 -2zM369 354q8 15 26 47t27 50h-137q-15 0 -21 -11q-10 -21 -30.5 -58t-26.5 -50q-4 -4 -4 -8
q0 -9 14 -9q12 -1 35.5 -3t34.5 -3q7 0 16 -1t12 -1q20 0 29.5 8.5t24.5 38.5z" />
    <glyph glyph-name="dollar" unicode="$" horiz-adv-x="659" 
d="M553 430q0 -50 -43.5 -93.5t-97.5 -68.5q-90 -41 -193 -41q-29 0 -35.5 -4.5t-15.5 -32.5q-23 -58 -57 -155q-1 -2 -5 -11t-6 -12q-6 -14 -24 -14q-5 0 -17 4q-8 5 -8 10q0 3 3 9t3 8q10 32 32 95.5t32 94.5q4 12 4 14q0 6 -16 11q-1 1 -4.5 2t-4.5 2q-49 18 -74.5 52.5
t-25.5 78.5q0 35 18 76q11 20 33 20q17 0 17 -12q0 -7 -7 -17q-12 -36 -12 -59v-6q0 -34 26.5 -71.5t59.5 -37.5q6 0 12 17q12 27 34.5 83.5t33.5 84.5q9 22 31 74t33 81q8 16 8 23q0 1 -21 16q-16 10 -47.5 31l-46.5 31q-21 13 -43 39q-14 20 -14 39q0 18 12 36
q21 28 41 43q140 123 274 148q17 5 40.5 67t31.5 99q5 14 10.5 18t18.5 4q28 0 28 -20l-2 -10q-4 -34 -24 -91l-13 -30q-6 -15 -6 -23q0 -2 1 -3.5t3.5 -3t5 -2.5t8 -2.5t9.5 -2.5q45 -11 75.5 -41.5t30.5 -75.5q0 -12 -2 -18q-5 -45 -35 -126t-61 -81q-8 0 -16 4
q-8 8 -8 12q0 3 6 6q12 12 32.5 76.5t24.5 91.5q2 8 2 25q0 71 -67 96q-16 4 -17 4q-9 0 -18 -18q-76 -177 -131 -299l-4 -10t-3.5 -8t-1.5 -5q0 -6 23 -20q170 -114 170 -201zM182 791q0 -22 53.5 -64.5t69.5 -42.5q5 0 14 21q19 42 55 125.5t54 125.5q6 18 6 19v4h-4
q-6 0 -10 -2q-59 -23 -148.5 -84t-89.5 -102zM471 377q18 24 18 53q0 25 -16 51q-15 25 -39.5 49t-41.5 37.5t-52 38.5q-101 -233 -147 -350q201 4 278 121z" />
    <glyph glyph-name="percent" unicode="%" horiz-adv-x="931" 
d="M885 1071h8q39 -3 39 -33t-58 -94q-100 -97 -227 -194q-29 -20 -51 -52q-341 -470 -530 -782q-1 -4 -6.5 -10t-6.5 -8t-3 -5.5t-3 -5.5q-12 -8 -29 -8q-18 0 -18 15q0 3 4.5 9.5t5.5 8.5q62 115 144 246t144.5 223t162.5 235q7 9 26 39q-42 -10 -65 -10q-15 0 -23 2
q-54 9 -59 60q-2 18 -23 18q-31 2 -46.5 16t-18.5 45q0 4 -1 11.5t-1 11.5q0 47 24 85t68 38q33 0 33 -12q0 -11 -15 -11q-27 0 -41 -34t-14 -66q0 -11 4 -31q0 -22 15 -22h2q16 0 20 22q4 29 19 75.5t30 61.5q14 17 41 17q7 0 19 -4q12 -6 12 -19q0 -1 -1 -3.5t-1 -4.5
q-1 -20 -17 -56.5t-30 -56.5q-21 -27 -21 -59q0 -16 2 -24q3 -29 27 -29q33 0 76 27t65 57q53 78 126 164.5t128 124.5q31 22 64 22zM766 909q61 50 84 92q-44 -36 -84 -92zM700 492q53 0 111.5 -36t58.5 -87q0 -19 -8 -35q-20 -47 -70 -80t-102 -33h-6q-41 0 -68.5 20
t-33.5 54q-2 8 -2 22q0 46 30.5 78.5t75.5 32.5q13 0 30 -4.5t17 -13.5v-4q-3 -9 -16 -9q-24 6 -25 6q-4 0 -12 -4q-21 -18 -31 -37q-10 -23 -10 -43q0 -32 18 -53q16 -16 33 -16q30 0 66 29.5t51 58.5q8 20 8 31q0 39 -41.5 70.5t-81.5 31.5h-24q-9 0 -9 6v2q0 8 9 8
q12 5 32 5z" />
    <glyph glyph-name="ampersand" unicode="&#x26;" horiz-adv-x="935" 
d="M1004 -129q20 -3 20 -27l-2 -4q-11 -22 -31 -22h-4q-21 5 -29 10q-56 26 -152 111t-194 200q-114 -130 -262 -211.5t-262 -81.5q-73 0 -115.5 38.5t-42.5 115.5q0 25 2 39l7 37q10 46 38.5 100.5t60 99.5t78.5 100.5t78 88.5t76 79t56 58q-43 117 -43 242q0 159 76 259
t233 109q6 0 17 1t16 1q139 0 139 -90q0 -2 -1 -7.5t-1 -8.5q-19 -152 -361 -501q-9 -9 -12 -13q98 -237 225 -397q90 117 156 261.5t80 248.5q2 12 10.5 20t20.5 8q9 0 16.5 -7t7.5 -17v-4q-13 -108 -87 -254.5t-179 -278.5q89 -108 187.5 -188.5t160.5 -110.5q12 -4 17 -4
zM598 1180q-70 -4 -121.5 -34t-81 -78t-43.5 -105t-14 -123q0 -112 33 -203q39 36 81 78.5t109.5 116t112.5 144t51 118.5q0 3 1 7.5t1 6.5q0 72 -115 72h-14zM12 76l-4 -27q-2 -14 -2 -43q0 -64 31 -94.5t86 -30.5q96 0 230.5 81t236.5 202q-166 215 -242 385l-26 -27
q-26 -26 -35.5 -36t-38 -40.5t-43 -48t-41.5 -49.5t-42.5 -54.5t-37 -54t-34 -56.5t-23 -53.5t-15.5 -53.5z" />
    <glyph glyph-name="quotesingle" unicode="'" horiz-adv-x="100" 
d="M100 1042q0 -10 -2 -16q-9 -40 -80 -84q-8 -4 -10 -4h-4q-4 0 -4 4v2q0 13 10 21q11 7 35 28q6 6 13.5 18.5t13.5 21.5t12 9q2 0 2 5q4 4 8 4q2 -1 6 -9z" />
    <glyph glyph-name="parenleft" unicode="(" horiz-adv-x="606" 
d="M606 1171q0 -26 -20.5 -56t-46.5 -30q-13 0 -31 9q29 7 38 23.5t11 45.5q0 13 -10 13q-4 0 -6 -2q-13 -8 -39 -29q-110 -98 -217 -307t-170.5 -428t-63.5 -365q0 -92 35 -135l6 -12q0 -5 -2 -7q-4 -6 -18 -6h-4q-25 0 -42 40.5t-22 76.5q-4 20 -4 61q0 158 66 385
t147 388q50 99 117.5 195t134.5 143q34 27 70 30q8 2 26 2q45 -3 45 -35z" />
    <glyph glyph-name="parenright" unicode=")" horiz-adv-x="593" 
d="M594 958v-18q0 -105 -45 -241.5t-114.5 -264.5t-148.5 -241t-153 -191q-52 -61 -96 -61h-10q-10 0 -19 6q-8 8 -8 14v4q4 8 12 8h2q6 -2 15 -2q8 0 14.5 2t13 7.5t9.5 8.5t9.5 11t8.5 10q102 113 202.5 278.5t172 353.5t71.5 323q0 80 -28 143q-1 2 -4 7t-4 7t-4 5.5
t-5.5 5t-6.5 3t-9 1.5h-4q-10 0 -10 10t12 14h14q31 0 47 -14q30 -30 41 -64q25 -54 25 -125z" />
    <glyph glyph-name="asterisk" unicode="*" horiz-adv-x="376" 
d="M37 918q-16 0 -27 14q-6 9 -6 18v13q0 9 37 12q45 36 74 98q-6 2 -66 21q-24 10 -24 34q0 1 1 5t1 6q7 13 16 18q12 4 16 4q3 -14 7 -14t4 12q37 -24 94 -24q43 37 61 92q8 10 23 14q2 0 4.5 1t3.5 1q9 0 18 -6q15 -11 15 -20q2 -4 2 -11t-6 -16q-29 -26 -41 -64
q12 -8 26 -8q20 0 54 12h8q14 0 22 -8q13 -10 13 -22q0 -33 -33 -39q-28 4 -39 4q-25 0 -45 -8q-33 0 -47 2v-17q-9 -36 20 -65q6 -9 6 -21v-12q-2 -7 -14 -16q-9 -6 -20 -6q-7 0 -11 2q-4 1 -18 12q-3 31 -27 61q-34 -33 -80 -71q-8 -8 -22 -8z" />
    <glyph glyph-name="plus" unicode="+" horiz-adv-x="608" 
d="M600 391q8 -4 8 -12q-3 -6 -12 -6h-27q-36 8 -101.5 15.5t-94.5 12.5l-43 7q-2 0 -4.5 1t-3.5 1q-16 0 -25 -19q-72 -133 -88 -158q-12 -24 -33 -24q-2 0 -5 1t-5 1q-16 3 -16 16q0 6 6 15q9 14 10 16q42 97 72 158q-2 4 -5 6t-8 3t-6 1q-124 14 -162 14h-39
q-15 0 -18 11v2q0 20 88 20q99 0 148 -16q2 0 4.5 -1t3.5 -1q14 0 24 20q33 57 72 133q14 25 43 25h6q25 -3 25 -15q0 -6 -6 -18q-20 -41 -66 -127q-12 -24 -12 -31q28 -8 88 -16q32 -7 145 -25q14 -2 37 -10z" />
    <glyph glyph-name="comma" unicode="," horiz-adv-x="100" 
d="M100 43q0 -10 -2 -16q-9 -40 -80 -84q-8 -4 -10 -4h-4q-4 0 -4 4v2q0 13 10 20q10 6 14.5 9.5t9.5 8.5l11 11t13.5 18.5t13.5 21.5t12 9q2 0 2 4q4 4 8 4q3 -1 6 -8z" />
    <glyph glyph-name="hyphen" unicode="-" horiz-adv-x="538" 
d="M631 426q4 -4 4 -6v-2q0 -8 -6 -8q-4 -2 -13 -2h-6q-14 2 -41 2h-73q-13 0 -19 -2q-41 -9 -82 -9q-13 0 -35.5 1t-33.5 1q-54 3 -107 9q-2 0 -7.5 1t-8.5 1.5t-6 3t-4 6.5q0 5 3 8t6 3.5l9 1.5t8 1q29 4 80 4h63q130 0 238 -6q26 -5 31 -8z" />
    <glyph glyph-name="hyphen" unicode="&#xad;" horiz-adv-x="538" 
d="M631 426q4 -4 4 -6v-2q0 -8 -6 -8q-4 -2 -13 -2h-6q-14 2 -41 2h-73q-13 0 -19 -2q-41 -9 -82 -9q-13 0 -35.5 1t-33.5 1q-54 3 -107 9q-2 0 -7.5 1t-8.5 1.5t-6 3t-4 6.5q0 5 3 8t6 3.5l9 1.5t8 1q29 4 80 4h63q130 0 238 -6q26 -5 31 -8z" />
    <glyph glyph-name="period" unicode="." horiz-adv-x="71" 
d="M4 16q15 19 37 19q15 0 25 -10q6 -3 6 -9q0 -4 -2 -6q-8 -24 -41 -24h-6q-23 3 -23 16q0 2 4 14z" />
    <glyph glyph-name="slash" unicode="/" horiz-adv-x="798" 
d="M778 958h6q11 0 15 -8v-2q0 -3 -11 -14q-142 -130 -387 -402q-253 -286 -295 -335q-8 -9 -53 -54q-14 -14 -33 -14q-14 0 -18 6q-2 2 -2 6q0 8 6 11q58 63 191.5 216t208.5 232q217 233 335 336q22 22 37 22z" />
    <glyph glyph-name="zero" unicode="0" horiz-adv-x="575" 
d="M367 866q38 23 75 23q46 0 77.5 -31.5t43.5 -73t12 -86.5q0 -156 -110 -303q-32 -43 -75.5 -90t-98.5 -95t-115 -79t-110 -31h-15q-48 3 -51 52q0 28 10 61q43 139 142.5 282.5t216.5 252.5q67 67 112 67q13 0 19 -2q-2 16 -19 33q-19 22 -39 22q-14 0 -30 -8
q-23 -14 -33 -14h-10q-11 0 -13 6q0 4 1.5 6t5 4.5t4.5 3.5zM526 686v16q0 38 -12 82q-1 -1 -3.5 -5.5t-3 -6t-3 -4.5t-3.5 -4t-3.5 -3t-5 -2.5t-5.5 -0.5h-2q-5 0 -8.5 2.5t-4.5 4.5t-2.5 7.5t-2.5 7.5q-2 -1 -5 -3l-4.5 -3t-2.5 -2q-20 -15 -21 -16q-159 -140 -274 -338
q-36 -61 -71.5 -139t-35.5 -119v-8q3 -25 19 -25q32 0 114 55q140 98 234.5 227.5t105.5 276.5z" />
    <glyph glyph-name="one" unicode="1" horiz-adv-x="421" 
d="M459 911q22 -5 22 -22q0 -8 -2 -12q-17 -52 -20 -58q-26 -60 -78.5 -177.5t-77.5 -176.5q-94 -223 -127 -354q-10 -30 -10 -56v-6q0 -10 14 -10q14 1 46 1t55.5 1.5t44.5 5.5q8 2 24 2h4q8 0 11 -6q0 -8 -13 -12q-32 -8 -51 -8q-47 -3 -90 -3q-17 0 -27 -10t-26 -10
q-15 0 -27 6q-18 10 -51 10h-27q-27 0 -41 4q-12 0 -12 9v2q0 6 12 10q16 4 23 4q2 0 7 -1t7 -1q3 -1 9 -2t8 -2h18q15 0 18.5 5.5t6.5 29.5q6 60 43 182q14 46 35 100.5t34.5 87t43 101.5t38.5 90q6 13 17.5 37.5t17.5 36.5q-2 0 -6 4q-52 -66 -66 -82q-15 -23 -37 -23h-6
q-14 0 -16 8v5q0 2 2.5 5.5t3.5 4.5q2 3 10 13.5t8 17.5q0 4 -4 12v2q0 4 9 4q16 2 28 22q103 140 135 185q23 26 47 26q2 0 6.5 -1t6.5 -1z" />
    <glyph glyph-name="two" unicode="2" horiz-adv-x="737" 
d="M698 958q39 -6 39 -47q0 -16 -14 -53q-4 -11 -53 -100q-72 -115 -248 -346q-24 -32 -146 -189q-1 -2 -3.5 -4.5l-4 -4t-3 -5t-1.5 -6.5q82 16 125 16h14q86 0 177.5 -27.5t128.5 -85.5q4 -12 4 -14q0 -9 -19 -12q-18 0 -28 10q-35 49 -109 74.5t-145 25.5q-91 0 -189 -45
q-18 -7 -39 -28q-69 -77 -104 -107q-26 -22 -49 -22q-31 3 -31 16q0 12 8 23q11 19 31 39q39 45 88 73q36 20 61 56q67 81 163 205t206 286t121 221v6q0 15 -8 15q-5 0 -13 -4q-100 -49 -252.5 -171.5t-197.5 -197.5q-10 -20 -10 -31q0 -22 39 -28q6 -2 18 -2q13 0 41 4
q12 4 22 4q11 0 11 -6v-4q0 -5 -3.5 -7.5t-8 -3.5t-11 -1.5t-8.5 -0.5q-32 -4 -47 -4q-27 0 -51 6q-45 15 -45 47q0 20 10 35q36 66 174 180t235 177q18 10 58 30q26 11 45 11q4 0 11 -1.5t11 -1.5z" />
    <glyph glyph-name="three" unicode="3" horiz-adv-x="782" 
d="M743 1038q39 -6 39 -34q0 -23 -28 -62q-18 -30 -74 -90q-153 -161 -377 -354q-4 -3 -11 -9.5t-11 -9.5v-4q8 0 38 10q144 39 226 39h10q33 0 68 -12q39 -17 39 -51q0 -47 -77.5 -120.5t-179.5 -137t-203.5 -110t-146.5 -46.5h-8q-37 0 -45 21q-2 4 -2 10q0 13 20 33
q39 44 139 98.5t193 95.5q6 3 59.5 28t80.5 40q17 10 28 10q5 0 17 -4q4 -2 10 -2q4 0 10 6q28 37 33 49q8 13 8 29q0 30 -45 33h-16q-117 0 -326 -86q-27 -9 -39 -9h-10q-19 0 -21 11v4q0 3 11 14q18 18 36 33q220 182 400 362q67 67 106 121q24 35 29 66q-15 0 -45 -15
q-215 -94 -467 -313q-36 -28 -49 -53h82q16 0 16 -8v-3q0 -10 -12 -10q-3 0 -9.5 1t-9.5 1q-12 -2 -25 -3t-28.5 -1.5t-23.5 -1.5q-19 0 -27 4q-12 3 -12 15q0 6 2 10q4 8 12 20q3 3 9 9.5t11 11t9 8.5q269 246 522 350q28 8 47 8q12 0 18 -2zM70 84q58 3 231.5 105
t210.5 155l-4 2q-139 -68 -225 -113q-32 -17 -70.5 -39.5t-85.5 -56.5t-57 -53z" />
    <glyph glyph-name="four" unicode="4" horiz-adv-x="630" 
d="M709 651q14 -3 14 -10l-4 -12q-57 -94 -150 -140q-42 -19 -82 -73q-141 -206 -223 -359q-36 -70 -47 -104q-6 -9 -6 -19q0 -11 10 -16q4 -4 4 -6q0 -5 -6 -8q-16 -4 -22 -4q-14 0 -26.5 10t-12.5 24q0 9 2 13q7 31 18 53q61 151 225 399q1 1 6 8.5t5 12.5q-2 2 -8 2
q-5 0 -9 -2q-138 -33 -291 -33h-26q-39 0 -57 8q-23 7 -23 21q0 16 39 47q63 57 321 270q19 17 57 49t58 49q8 6 23 21q-4 3 -15 5t-12 9q0 9 23 25t36 20q12 4 25 4h10q19 -4 19 -16q0 -4 -4 -12q-8 -14 -31 -37q-26 -28 -88 -82q-300 -248 -363 -303q-33 -29 -43 -43
q4 -6 19 -6h8q191 0 340 47q31 7 53 39q141 187 264 313q5 4 15.5 13.5t15.5 13.5q10 12 31 12q28 0 28 -12q0 -4 -4 -8q-3 -4 -8.5 -13.5t-11 -16.5t-12.5 -11q-6 -2 -19 -15q-93 -106 -182 -221q-6 -12 -6 -14q48 29 94 96q7 12 29 12z" />
    <glyph glyph-name="five" unicode="5" horiz-adv-x="661" 
d="M444 432q28 0 55 -3.5t56.5 -13t47.5 -29.5t18 -48q0 -42 -58 -100q-80 -71 -212 -126t-230 -55q-31 0 -45 2h-10q-30 6 -48 26.5t-18 47.5t14 49q11 15 29 15q7 0 14 -7q6 -3 6 -8q0 -4 -2 -6q-1 -5 -4 -14.5t-4 -14.5q0 -29 9 -44t38 -19h11q89 0 244.5 76.5
t189.5 144.5q12 21 12 37q0 36 -43 51q-23 12 -63 15q-108 0 -211 -58q-32 -16 -50 -16q-24 3 -24 14q0 7 6 19q6 10 20.5 29.5t20.5 29.5q15 22 49.5 70t54 75t47 68t48.5 76q14 19 16 35q-77 5 -94 8q-34 3 -58 14q-16 10 -16 23q0 7 10 20q27 23 47 23h9q8 0 12 -7l2 -4
q0 -5 -6 -8q-2 -1 -8 -5t-8.5 -6.5t-2.5 -6.5v-2q1 -4 5 -6.5t7 -3.5t9 -2t8 -1q15 -3 45 -5t45 -5q16 0 23 15q30 54 35 77q3 22 24 25h12q25 0 25 -21q0 -12 -4 -20q-2 -6 -10 -23.5t-11 -27.5q-10 -15 -10 -23l8 -4h47q133 0 246 17l49 12q8 2 23 2h8q14 0 16 -8
q0 -7 -12 -11q-92 -38 -346 -38h-37q-24 0 -35 -19q-72 -117 -206 -299q-14 -19 -19 -27q1 0 3.5 -1t4.5 -1q3 0 17 7q79 24 159 24z" />
    <glyph glyph-name="six" unicode="6" horiz-adv-x="675" 
d="M825 881q29 0 55.5 -10t26.5 -33q0 -7 -4 -19q-2 -6 -29 -74q-5 -16 -24 -16t-19 12q0 5 3 11q2 10 8 31.5t8 31.5v12q0 23 -21 23q-10 0 -14 -2q-42 -10 -107.5 -53.5t-105.5 -81.5q-116 -99 -215 -234v-6q5 -2 13.5 -2.5t11.5 -1.5q56 0 98.5 -30.5t42.5 -84.5
q0 -8 -4 -32q-24 -90 -122 -181.5t-183 -91.5h-8q-75 3 -78 78q0 92 94 260q12 16 14 31q-109 -31 -194 -80q-18 -14 -25 -25q-4 -9 -18 -12q-29 0 -29 14q0 33 93.5 74.5t150.5 54.5q53 13 92 64q53 72 125 146t167.5 142t172.5 83q8 2 24 2zM389 440q-31 0 -41 -16
q-121 -201 -121 -293q0 -47 23 -47q11 0 35 12q70 38 123 97.5t77 132.5q4 20 4 30q0 39 -30 61.5t-70 22.5z" />
    <glyph glyph-name="seven" unicode="7" horiz-adv-x="612" 
d="M702 743q-8 -12 -32 -36q-20 -20 -74.5 -75t-82.5 -84t-71 -74.5t-77 -84.5q-174 -190 -261 -315q-40 -63 -47 -76q-6 -12 -6 -16q0 -7 6 -13q2 -2 2 -6q0 -5 -10 -8q-3 0 -8 -1t-8 -1q-15 0 -25 10q-8 5 -8 17q0 11 6 20q12 31 31 59q53 86 116.5 168.5t151 176.5
t136 143.5t157.5 157.5q12 14 41 43q-22 -1 -143 -17q-132 -16 -199 -16h-23q-47 4 -67 16q-21 9 -21 25q0 11 13 24q41 35 102 35q11 0 31 -4q10 -3 10 -8t-10 -10h-31q-20 -2 -40.5 -11t-20.5 -24q0 -7 12 -10q22 -9 63 -9q52 3 187 21q24 3 69.5 10t69.5 10q8 2 23 2
q16 0 24 -2q23 -3 23 -16q0 -9 -9 -21z" />
    <glyph glyph-name="eight" unicode="8" horiz-adv-x="679" 
d="M489 485q-10 -5 -12 -12q8 -1 23 -2t22 -2q16 0 33 -10q8 -8 8 -13l-2 -4q-2 -7 -12 -10q-1 0 -4.5 -1t-5.5 -1q-12 0 -17 8q-9 11 -28 11q-71 0 -148 -46q-42 -20 -67 -49q13 -6 37 -18t36 -17q58 -30 70 -51q4 -8 4 -16q0 -9 -8 -24t-17 -19q-83 -70 -180 -70
q-23 0 -35 2q-8 0 -26 9q-43 18 -43 57q0 45 61 117q24 24 25 26q-5 6 -27 15q-18 8 -53 23.5t-53 23.5q-70 30 -70 63q0 18 20 35q11 14 45.5 35t55.5 30q147 77 243.5 124t240.5 100t263 73q18 2 58 2q29 -4 35 -20q2 -2 2 -6q0 -14 -15 -25q-57 -69 -195 -166t-264 -172z
M356 279q-17 12 -94 49q-1 0 -4 1t-4 1q-19 0 -49.5 -50.5t-30.5 -74.5q0 -41 57 -41q75 10 129 59q17 17 17 27q0 14 -21 29zM342 440q95 37 273.5 162.5t267.5 214.5q20 20 20 31q-2 2 -6 2q-6 0 -8 -2q-241 -30 -768 -313q-33 -22 -39 -27q-27 -21 -27 -33q0 -14 31 -33
q18 -10 39 -20t47.5 -21t40.5 -18q6 -4 16 -4q13 0 21 8q38 30 92 53z" />
    <glyph glyph-name="nine" unicode="9" horiz-adv-x="827" 
d="M823 823q-11 -25 -39 -65q-42 -63 -82.5 -120.5t-110 -152t-135 -169.5t-137 -147t-138.5 -112.5t-118 -40.5h-8q-30 3 -42.5 15.5t-12.5 40.5v6q0 89 150 219q10 10 20 10h10q8 0 10 -6v-2q0 -2 -8 -10q-5 -5 -15 -13t-18 -15t-14 -13q-36 -32 -66 -80.5t-30 -89.5
q0 -2 1 -8t1 -9q3 -11 7.5 -15.5t14.5 -4.5h7q22 3 41 16q207 107 591 678q1 2 5 8t6.5 12t3.5 13q-12 -9 -36.5 -29t-37.5 -30q-159 -123 -197 -148q-99 -65 -149 -65q-15 0 -21 2q-38 6 -38 41v10q4 22 8 29q86 207 291 264q24 8 59 8q66 0 92 -23q8 -8 19 -8q8 0 16 8
q31 31 68 31h12q24 -3 24 -20q0 -3 -4 -15zM313 530q37 9 195 128t158 135q0 11 -21 20q-20 10 -37 10h-12q-26 0 -53 -10q-168 -62 -242 -242q-6 -12 -6 -26q0 -17 8 -17q6 0 10 2z" />
    <glyph glyph-name="colon" unicode=":" horiz-adv-x="71" 
d="M4 406q14 18 37 18q15 0 25 -10q6 -3 6 -8t-2 -7q-8 -24 -41 -24h-6q-23 3 -23 16q0 3 4 15zM4 528q15 19 37 19q15 0 25 -10q6 -3 6 -9q0 -4 -2 -6q-8 -24 -41 -24h-6q-23 3 -23 16q0 2 4 14z" />
    <glyph glyph-name="semicolon" unicode=";" horiz-adv-x="102" 
d="M4 528q15 19 37 19q15 0 25 -10q6 -3 6 -9q0 -4 -2 -6q-8 -24 -41 -24h-6q-23 3 -23 16q0 2 4 14zM100 412q0 -11 -2 -17q-9 -40 -80 -84q-8 -4 -10 -4h-4q-4 0 -4 4v2q0 13 10 21q11 7 35 28q6 6 13.5 19t13.5 22t12 9q2 0 2 4q4 4 8 4q3 -1 6 -8z" />
    <glyph glyph-name="semicolon" unicode="&#x37e;" horiz-adv-x="102" 
d="M4 528q15 19 37 19q15 0 25 -10q6 -3 6 -9q0 -4 -2 -6q-8 -24 -41 -24h-6q-23 3 -23 16q0 2 4 14zM100 412q0 -11 -2 -17q-9 -40 -80 -84q-8 -4 -10 -4h-4q-4 0 -4 4v2q0 13 10 21q11 7 35 28q6 6 13.5 19t13.5 22t12 9q2 0 2 4q4 4 8 4q3 -1 6 -8z" />
    <glyph glyph-name="less" unicode="&#x3c;" horiz-adv-x="321" 
d="M276 492h3q26 0 26 -11q0 -12 -45 -35q-10 -4 -47.5 -27.5t-88.5 -55.5t-79 -48q23 -17 62.5 -49.5t74 -61t39.5 -32.5q19 -13 19 -22q0 -3 -4 -11q-12 -18 -31 -18q-1 0 -3 1t-3 1q-17 15 -49 45.5t-46.5 43.5t-41 34.5t-56.5 42.5q-2 2 -2 10q0 19 8 27
q50 27 88.5 50.5t90.5 59t85 56.5z" />
    <glyph glyph-name="equal" unicode="=" horiz-adv-x="428" 
d="M395 338q0 -10 -7 -17.5t-15 -7.5q-178 13 -189 13q-58 0 -139 -11h-2q-8 0 -14 7t-6 16q0 12 5.5 22t14.5 11q77 -6 131 -6q28 0 92.5 2t108.5 2q20 -3 20 -25v-6zM356 242q23 -4 23 -29q-8 -27 -25 -27h-2q-169 13 -178 13q-29 0 -145 -11h-2q-9 0 -16 8t-7 17v4
q0 10 6.5 17.5t14.5 7.5q51 -4 129 -4q38 0 202 4z" />
    <glyph glyph-name="greater" unicode="&#x3e;" horiz-adv-x="292" 
d="M25 123h-2q-27 0 -27 8q0 13 39 31q10 4 45 26t81.5 51t71.5 44q-29 21 -94.5 74.5t-66.5 54.5q-17 11 -17 20q0 2 4 10q15 15 33 15q19 -17 55 -51t61 -55t60 -46q2 -2 2 -8q0 -17 -8 -25q-45 -24 -79 -45t-83 -54t-75 -50z" />
    <glyph glyph-name="question" unicode="?" horiz-adv-x="851" 
d="M852 1092q0 -30 -39 -91q-37 -46 -80 -86q-23 -23 -101.5 -101t-115 -115t-96.5 -98.5t-107 -113.5q-109 -123 -147 -170q-18 -18 -35 -18q-8 0 -12 2q-13 3 -13 10q0 1 1 2t2 2.5t2 3.5q5 5 10 15q168 227 424 475q106 102 160 156q31 27 59.5 64.5t28.5 66.5
q0 40 -60 67q-52 19 -98 19q-89 0 -204 -45.5t-213 -121t-136 -153.5q-25 -42 -25 -88l2 -10q3 -72 64 -72q12 0 20 2q36 4 56 4q12 0 12 -10q0 -9 -39 -14.5t-59 -5.5q-100 0 -111 90q-2 6 -2 18q0 39 20 84q32 70 97 131.5t143.5 104t160.5 71t159 39.5h65q125 0 182 -57
q25 -28 25 -57zM106 170q7 -4 7 -10v-4q-7 -7 -7 -13l5 -10q0 -12 -3.5 -15t-15.5 -3q-13 0 -37 12q-8 3 -8 12l2 6q3 12 15 20.5t26 8.5q4 0 16 -4z" />
    <glyph glyph-name="at" unicode="@" horiz-adv-x="1406" 
d="M444 0q-182 3 -292.5 103.5t-110.5 277.5q0 131 40.5 232t129.5 237q72 103 171 205.5t217.5 193t253 147t255.5 56.5q139 0 223 -86.5t84 -226.5q0 -5 -1 -19t-3 -40t-4 -50q-8 -79 -79.5 -194t-166.5 -216.5t-203.5 -174t-183.5 -72.5q-62 0 -78 33q-10 27 -10 53
q0 72 62 168q-201 -121 -295 -121q-31 0 -52 12q-18 9 -28 33q-4 6 -4 22q0 17 6 35q27 74 104.5 149.5t173.5 124t172 48.5q43 0 84 -12q17 -7 23 -21q4 -4 4 -16q0 -9 -2 -13q-6 -16 -19 -22q-6 -4 -16 -4t-14 2q-27 8 -62 8q-94 0 -220.5 -93.5t-153.5 -176.5h6
q60 0 190 76.5t227 146.5q8 8 21 8q19 0 31 -10q10 -10 10 -25v-6q0 -11 -6 -20l-21 -27q-48 -61 -94.5 -140.5t-46.5 -127.5v-4h8q64 0 191 92q65 48 129 115t118.5 145t88.5 166.5t34 167.5q0 105 -61 172q-40 40 -83.5 50.5t-115.5 10.5q-147 -16 -318.5 -118.5
t-311 -244t-233 -312.5t-93.5 -314q0 -145 87.5 -224t235.5 -79q125 0 265 51q8 4 14 4t18 -6q12 -8 17 -20q4 -12 4 -17q0 -6 -6 -18q-3 -10 -21 -17q-152 -57 -289 -57z" />
    <glyph glyph-name="A" unicode="A" horiz-adv-x="1802" 
d="M330 -102q-10 -29 -29 -29h-12q-6 0 -10.5 3.5t-4.5 8.5v4l64 238q-15 -11 -23 -35q-92 -172 -268 -516q-3 -4 -15.5 -26t-19.5 -33q-14 -21 -35 -21h-4q-18 0 -18 14v7q0 6 2 8q135 307 330 669q10 13 12 25q0 4 -4 4q-2 0 -7 -1t-7 -1q-373 -82 -693 -217
q-5 -2 -17 -9.5t-17 -10.5q-66 -37 -111 -37h-4q-9 0 -17 4q-8 5 -8 12q2 11 45 33q318 168 838 274q39 6 57 41q11 27 45 84q37 57 75.5 128t64 122.5t66 136t61.5 127.5q206 405 426 707q17 25 35.5 49.5t45.5 54.5t55.5 49.5t53.5 20.5q9 1 14.5 9.5t8.5 18t12 17.5t24 8
h2q15 -3 15 -10v-4q-1 -7 -14 -28t-15 -30v-10l2 -4q0 -2 -2 -4q-1 -5 -13.5 -9t-15.5 -9q-25 -41 -79 -119l2 -2q4 0 7.5 1.5t4.5 3t3 4t3 3.5q116 127 182 158q24 12 54 12q73 -4 73 -133q0 -22 -4 -68q-15 -171 -56 -376.5t-75.5 -340.5t-99.5 -368q-3 -14 -11.5 -43
t-11.5 -45l-4 -19q0 -2 -1 -4.5t-1 -3.5q0 -6 10 -6h21q117 0 242 -25q1 0 6.5 -3t7.5 -5.5t2 -7.5v-2q-4 -10 -33 -10q-12 0 -24 4q-101 16 -226 16q-12 -1 -16 -5t-6 -13l-170 -619l-176 -665q-8 -27 -33 -27q-19 6 -19 16v5l2 6q17 58 33 121t36 146t30 122
q15 55 42.5 158.5t37.5 140.5l161 602q0 8 -8 8h-12q-298 -12 -731 -92q-30 -9 -37 -33q-60 -167 -96 -325zM1231 1708q-163 -191 -344 -516q50 76 166.5 249t177.5 267zM563 549q-35 -65 -106 -246l8 -4q7 1 22.5 4t22.5 4q411 66 692 76q19 2 22.5 5t8.5 20q2 7 21.5 80
t30.5 115.5t33 127t38.5 151.5t36 149.5t36 161t29.5 148.5q39 222 39 324q0 52 -8 76q-9 20 -19 20q-25 0 -88.5 -59t-106 -107t-77.5 -90q-373 -471 -635 -956z" />
    <glyph glyph-name="B" unicode="B" horiz-adv-x="2193" 
d="M193 -715q-62 0 -110.5 8t-95.5 28t-80.5 60t-51.5 99q-2 6 -2 12q0 13 18 16h10q12 0 20 -5.5t11 -9.5t8.5 -19t7.5 -19q61 -135 248 -135q55 0 113 10q147 24 309 81t322.5 138.5t313.5 190t280 229t224 262.5t144 285q27 80 27 146q0 72 -27 132t-73.5 102t-109.5 71
t-134 43t-148 14q-24 0 -82 -4q-33 -3 -53 -23q-229 -194 -334 -194q-32 0 -51.5 12t-19.5 33q0 28 36 67q89 94 306 129q33 3 57 27q53 50 93.5 91.5t90 99.5t83 118t46.5 115q8 24 8 55q0 40 -19 71.5t-56 31.5q-24 0 -88 -31q-303 -164 -609 -791q-12 -25 -45 -126
q-161 -497 -272 -795q-28 -72 -47.5 -142.5t-45 -181t-34.5 -145.5q-10 -29 -25 -33q-12 -4 -20 -4q-32 0 -35 41v10q0 37 5.5 112.5t14 177t9.5 108.5q16 175 40.5 336t64.5 336.5t68 286t87 327t86 317.5q16 66 39 146q8 30 35 30q14 0 25 -9t11 -21q0 -9 -8 -17
q-11 -11 -14 -26q-40 -182 -102.5 -421t-107.5 -407t-90.5 -401t-68.5 -459v-10q0 -8 2 -8q13 0 115.5 338t225.5 738.5t169 506.5q25 57 58 57q10 0 14 -2q18 -5 18 -27q0 -16 -6 -34q-12 -50 -92 -332q10 7 25 32q40 67 81.5 129t108 144.5t129.5 141.5t141.5 101
t149.5 42h2q60 0 99.5 -37.5t39.5 -100.5q0 -16 -2 -24q-20 -172 -297 -441q-15 -15 -18 -22q8 -4 14 -4q3 0 9.5 1t9.5 1q109 0 210 -21.5t190.5 -66t143.5 -125t54 -186.5q0 -43 -13 -103q-32 -148 -135 -306t-248 -296.5t-325.5 -263.5t-365.5 -214t-371 -141.5
t-338 -52.5zM854 1141q4 12 4 20q0 9 -2 13q-82 -223 -143 -447q39 72 49 102q12 40 43.5 147.5t48.5 164.5zM961 844q103 47 219 147q-64 -13 -125.5 -42t-87.5 -72q-9 -13 -9 -21q0 -6 3 -12z" />
    <glyph glyph-name="C" unicode="C" horiz-adv-x="1847" 
d="M496 -213q-68 0 -134.5 11t-133 37t-116.5 65t-81 99.5t-31 135.5q0 122 83 278t217.5 308.5t305 307t345.5 281.5t339 223t285 140q177 66 311 76q6 0 18.5 1t18.5 1q25 0 49.5 -4t50 -13.5t41 -29t15.5 -47.5q0 -45 -41 -111q-33 -53 -86.5 -116t-82.5 -92.5
t-104 -104.5q21 0 45 -4q25 -6 25 -23q0 -21 -47 -58.5t-85.5 -61t-55.5 -31.5q-212 -116 -312 -176q-109 -61 -170 -64h-10q-29 0 -29 14q0 15 23 35q207 191 420 299q80 41 121 84q290 274 313 387q0 3 1 8t1 7q0 34 -25.5 49.5t-62.5 15.5h-39q-78 -8 -170 -35
q-174 -52 -366.5 -158.5t-368 -240.5t-337 -292.5t-280 -312.5t-188.5 -303.5t-70 -262.5q0 -133 101 -208t313 -75q184 0 441 74t491.5 186t384.5 227q22 19 41 19h4q20 0 20 -10q0 -8 -6 -11q-7 -9 -20 -18q-160 -124 -402.5 -240t-507.5 -191t-462 -75zM1767 1198
q-41 0 -69 -22l-146 -121q40 10 118 62.5t97 80.5z" />
    <glyph glyph-name="D" unicode="D" horiz-adv-x="1603" 
d="M-770 -440q-8 8 -8 14q3 6 10 6h4l12 -2q13 0 29 -8l80 -19l29 -4q31 -4 92 -4q96 0 190 21q653 145 1094 635q334 378 387 692l4 16q8 49 8 107q0 96 -26 184q-41 107 -105 173.5t-166 84.5q-24 6 -55 6q-146 0 -320 -82q-58 -28 -148.5 -86.5t-94.5 -87.5
q-54 -200 -133 -428q-85 -250 -157 -435t-159 -357q-46 -97 -108 -187q-36 -45 -51 -57q-24 -21 -54 -21q-7 0 -16 3q-80 13 -80 170v16q0 258 126.5 548t309.5 519q11 16 17 41q31 137 106 315.5t154 241.5q22 14 45 14h8q18 -3 31 -18t16 -39v-12q0 -34 -14 -134l-13 -73
q115 82 248.5 134t257.5 52q28 0 90 -8q113 -14 196.5 -88t123 -176t39.5 -215q0 -232 -137 -471q-270 -468 -697 -731q-211 -128 -449.5 -211.5t-451.5 -83.5q-81 0 -137 10l-27 6q-39 8 -88 25q-2 1 -6 2t-6 2zM-59 459q4 8 4 14q0 10 -2 16q-16 47 -23.5 99.5t-8.5 87
t-1 100.5q0 9 2 28.5t2 29.5q0 14 -2 22q-6 -4 -21 -25q-297 -435 -348 -897v-40q0 -18 2 -45t9.5 -59.5t19.5 -35.5q7 0 31 21q58 61 127 195t109 232t90 230q7 18 10 27zM-31 547q26 49 104 288t89 300v10q-10 0 -81 -78t-95 -109q-31 -50 -31 -260q0 -58 6 -116
q1 -3 1.5 -11t1.5 -14t5 -10zM205 1284q25 112 28 135q9 52 9 66q2 10 2 28q0 21 -2 31q-59 -39 -135.5 -198.5t-88.5 -239.5q-2 -6 -2 -16q7 2 19 14q65 74 141 135q26 16 29 45z" />
    <glyph glyph-name="E" unicode="E" horiz-adv-x="1271" 
d="M-289 401q-14 11 -14 23q0 25 53 45q48 21 187 61q93 31 268 82q21 3 33 25q171 284 241 420q10 25 10 28l-4 2q-5 0 -10.5 -2t-12 -5.5t-9.5 -4.5q-119 -42 -177 -57q-36 -8 -55 -8q-49 0 -49 28q0 10 6 19q3 8 10.5 19t10.5 16q141 161 295 258q50 26 81 26h9
q31 0 45 -14.5t14 -46.5v-6q-2 -36 -25 -99q-6 -18 -6 -22v-4h6q4 0 29 10q13 5 87 33t100 37.5t83 29.5t101.5 34t89.5 26q146 42 283 59q4 0 12 1t12 1q11 0 27 -4q12 -6 12 -12q0 -8 -10 -13q-6 -6 -10 -6q-67 -27 -254 -123q-16 -9 -70 -30q-16 -8 -29 -8l-10 2
q-14 0 -16 6v2q0 7 10 12q15 3 74 29q28 16 174 90q-12 4 -17 4q-6 0 -18 -4q-226 -45 -545 -174q-8 -3 -56.5 -21.5t-74.5 -27.5q-13 -8 -27 -25q-64 -137 -245 -442q-2 -4 -6 -10t-5 -9q8 -4 11 -4q6 0 14 4q223 66 584 127q8 2 26 2q15 0 23 -2q10 0 10 -10v-2
q0 -8 -10 -8q-8 -3 -37 -8q-322 -66 -426 -95q-40 -10 -114 -31.5t-95 -27.5q-22 -4 -33 -23q-74 -123 -117 -198.5t-101.5 -186.5t-100.5 -208q-55 -121 -66 -179q-10 -27 -10 -53v-12q3 -47 35 -47t109.5 31t134.5 59q74 33 153.5 71.5t181.5 89.5t150 74q167 80 283 133
q30 13 43 13q12 0 20 -2q9 -8 10 -13q0 -2 -8 -14l-14 -6q-116 -55 -327.5 -162t-301.5 -151q-179 -91 -299 -134q-72 -30 -139 -30l-21 2q-92 3 -92 90v6q2 27 23 98q61 162 145.5 320t208.5 362q1 2 5 8t6.5 11.5t2.5 9.5l-8 4q-4 0 -12 -4q-210 -62 -334 -106
q-12 -3 -39 -15q-14 -5 -14 -14q-6 -16 -15 -20.5t-28 -4.5q-13 0 -25 6zM250 1053h12q136 42 244 86q14 3 20 20q45 97 45 152q0 14 -2 22q-49 -13 -168.5 -118.5t-150.5 -161.5z" />
    <glyph glyph-name="F" unicode="F" horiz-adv-x="1150" 
d="M-49 29q-13 0 -29 9t-16 21q0 11 8 19q61 76 424 176q24 3 29 25q41 138 118.5 400t89.5 302q5 15 5 25q-7 0 -29 -11q-176 -84 -299 -129q-65 -20 -117 -20h-20q-17 0 -29 6q-41 14 -41 57v6q2 33 25 80q33 71 110.5 183t168.5 221.5t185 188.5t150 79h8q76 0 82 -76
q2 -14 2 -43q0 -21 -4 -67q-14 -111 -72 -330l-6 -25q0 -1 1 -3t1 -3q5 0 35 15q604 297 864 413q5 2 45 18.5t62 24.5q16 8 39 8h12q21 -5 23 -10q0 -1 1 -3t1 -3t-11 -18l-12 -13q-49 -49 -147.5 -146t-147.5 -146q-37 -37 -69 -60q-21 -14 -41 -14h-7q-12 4 -14 8v2
q0 4 8 12q68 59 184 174.5t152 149.5q0 2 2 6q-26 0 -400 -183.5t-519 -258.5q-49 -24 -64 -31q-16 -8 -22 -29q-33 -118 -100.5 -338t-94.5 -313q-8 -25 -29 -100q4 -2 11 -2q10 0 14 2q258 61 504 75h8q27 0 27 -10v-2q-1 -6 -5.5 -9t-7.5 -4t-10.5 -2t-9.5 -1
q-170 -19 -209 -25q-159 -27 -317 -65q-19 -4 -27 -31q-15 -51 -51.5 -176.5t-55.5 -194.5l-153 -553q-5 -21 -8 -28q-9 -27 -37 -27q-11 0 -17 2q-14 3 -14 16q0 7 4 11q2 2 12 28q92 383 236 897q1 3 6 23q-46 0 -184.5 -53.5t-181.5 -87.5q0 -5 2 -7q1 -1 3 -2t3.5 -1.5
t3 -2t2.5 -3t1.5 -3.5t0.5 -4q-2 -12 -19 -12q-16 -4 -26 -4zM233 907q128 46 351 156q19 8 22 27q88 299 94 446q0 48 -4 68q-6 22 -14 22q-7 0 -18 -8q-31 -17 -80 -62q-237 -215 -408 -505q-53 -98 -53 -142q0 -28 16 -28q11 0 17 2q38 9 77 24z" />
    <glyph glyph-name="G" unicode="G" horiz-adv-x="1685" 
d="M-418 -299q9 180 228 496q183 266 429 528.5t511 484t544 406.5q278 185 424 196q28 0 42 -1t36 -7t32.5 -22t10.5 -41q0 -56 -82 -197q-36 -63 -172 -270q-3 -5 -10 -15.5t-10 -15.5q25 17 39 17h8q18 -3 18 -11q0 -5 -6 -14q-5 -8 -16.5 -23.5t-16.5 -23.5
q-203 -298 -291 -449q-3 -4 -9 -13t-9 -13q-14 -19 -39 -19q-7 0 -16.5 6t-9.5 13q0 5 4.5 12.5t5.5 9.5q2 5 4.5 11.5t5.5 13.5t4 10q6 9 6 18q0 8 -8 13q-4 2 -4 10q0 2 1 6t1 6l18 37q52 99 111 187q24 41 35 65q60 127 104 193q1 1 8 11.5l13 19.5t13.5 16.5t10.5 7.5
q11 1 19 6.5t11 10t9 14.5q96 152 137 237q26 54 33 92q2 8 2 19v8q-6 29 -26 29q-9 0 -13 -2q-35 -5 -77 -25q-130 -54 -267 -147q-818 -538 -1374 -1260q-68 -85 -137.5 -189t-133 -238.5t-63.5 -219.5q0 -81 50.5 -124.5t134.5 -43.5q110 0 303 76q91 36 181 78
t192.5 98.5t164.5 92t181 105.5q19 15 26 27q109 204 279 483l2 5q2 6 4 8h-4q-6 0 -23 -11q-277 -155 -389 -206q-70 -33 -108 -49.5t-106 -37t-116 -20.5q-20 0 -41.5 6t-21.5 21q0 7 6 16q12 16 25 19q4 2 12 2t10 -4q4 -2 4 -7q0 -4 -4 -12q0 -1 -1 -3t-1 -3q0 -5 10 -8
q26 0 56 10q70 17 172 63q177 79 440 230q58 35 98 57q24 12 47 12h9q28 -3 28 -22q0 -4 -4 -16q-3 -7 -20 -41q-35 -62 -103.5 -184t-103.5 -183q-3 -5 -8.5 -16.5t-8.5 -16.5q2 -2 7 -2l12 6q73 54 137 107q17 14 37 14q10 0 16 -2q11 -3 11 -12q0 -5 -5 -10
q-12 -9 -22 -19q-123 -101 -227 -172q-25 -17 -31 -31q-238 -450 -361 -841q-29 -92 -41 -156q-6 -48 -6 -49q0 -19 9 -37q0 -1 1 -3t1 -3q0 -3 -1.5 -4.5t-6 -4t-5.5 -3.5q-4 -2 -14 -2q-45 0 -45 65q0 19 2 29q12 96 53 227q106 352 271 678q10 20 10 27q-7 0 -17 -6
t-12 -7q-657 -397 -962 -397q-53 0 -98.5 10t-85.5 32.5t-63.5 64t-23.5 98.5v8z" />
    <glyph glyph-name="H" unicode="H" horiz-adv-x="1724" 
d="M-268 246q13 8 35 8q110 8 165 10q99 7 248 74q57 27 121.5 77.5t75.5 94.5q32 169 72 362q12 58 31.5 160.5t37 188t35.5 159.5q19 75 41 113q7 15 17.5 27.5t16.5 17.5l7 6q15 6 27 6q59 -8 59 -157q0 -84 -18.5 -203.5t-36.5 -197.5l-19 -77q-38 -129 -77 -224.5
t-97 -174.5q-11 -22 -12 -27q-26 -132 -29 -151v-12q41 0 66 6q275 39 381 49q180 16 270 16q20 0 24.5 4t10.5 25q24 107 50 213.5t64 250.5t61.5 232t80.5 299.5t84 311.5q13 40 26 73q13 29 43 29q12 0 21 -6q10 -3 10 -12q0 -5 -2 -7q-4 -20 -8 -28
q-50 -173 -117 -451.5t-100 -453.5q-47 -219 -68 -441q0 -5 -1 -13.5t-1 -12.5q0 -14 7.5 -19.5t35.5 -11.5q23 -4 52 -18t38 -25q13 -20 13 -31q0 -9 -9 -18q-24 -21 -41 -34t-43 -23.5t-53 -10.5q-39 0 -51 37q-10 25 -10 66q-2 10 -2 26q0 12 -11 12h-6q-3 0 -5.5 -4
t-4.5 -11t-3.5 -13t-3 -13t-1.5 -8q-177 -787 -217 -1341q0 -6 -1 -19.5t-1 -19.5q0 -15 4 -39v-8q0 -16 -15 -19q-2 0 -5.5 -1t-4.5 -1q-18 0 -24 19q-7 19 -7 49v33q0 39 9 149q58 607 196 1223q1 5 2 13.5t2 12.5q-12 3 -24 3h-25q-231 -10 -524 -56q-42 -7 -145 -20
q-22 -3 -26 -7t-7 -26q-68 -341 -72 -360q-69 -347 -102 -625v-27q0 -6 -2 -8q-9 -6 -23 -6h-8q-32 0 -35 29v16q0 29 2 41q38 407 105 715q6 29 20.5 102.5t22.5 114.5v20q-14 0 -91 -10q-37 -4 -110.5 -11t-110.5 -11q-17 -1 -47.5 -7t-42.5 -8q-50 -6 -96 -6q-24 0 -70 4
q-14 0 -26 6q-4 4 -4 11q0 4 6 10zM1411 293q-54 14 -76 14l-6 -2q0 -3 6 -39q3 -12 11 -12q12 0 32.5 13.5t32.5 25.5zM655 1493q-31 -131 -60 -278t-61 -323t-51 -274q59 105 125 369.5t70 419.5q0 27 -5 59.5t-11 32.5q-4 0 -7 -6zM344 379q-42 -35 -147 -86q60 4 96 8
q32 5 38.5 11t12.5 38q0 3 1 9t1 10q0 6 -2 10z" />
    <glyph glyph-name="I" unicode="I" horiz-adv-x="641" 
d="M-231 -387q13 7 32 14q46 11 125 15q21 1 27 3t10 7.5t8 23.5q44 205 108.5 446.5t113.5 408.5t133 440l116 387q5 20 7 26q-71 -14 -150 -14q-130 0 -168 23q-8 4 -8 8l2 4q0 8 10 8q4 2 15 2q12 0 18 -2q52 -14 115 -14q30 0 63.5 2t76 13t48.5 30q11 33 31 67
q39 76 119 76h18q60 -7 96 -26q23 -16 23 -33q0 -14 -19 -33q-23 -20 -78 -43.5t-90 -32.5q-33 -9 -41 -43q-49 -186 -86 -307q-41 -145 -131.5 -446t-134.5 -457q-68 -240 -129 -483q-5 -23 -8 -35q15 -1 43.5 -2t42.5 -2q41 -3 66 -23q12 -12 12 -16v-2q-1 -4 -3.5 -6
t-4.5 -2.5t-6.5 -1.5t-6.5 -1q-14 0 -32 11q-23 14 -66 14h-39q-14 -2 -20 -18q-18 -74 -62 -74h-8q-20 0 -20 14q0 7 6 19q1 4 3 11t3 11q4 16 4 21q0 8 -16 8h-13l-55 -6q-1 0 -10 -2.5t-12.5 -3.5t-9 -5t-9.5 -10q-10 -10 -29 -10q-17 0 -30 10q-11 7 -11 15q0 9 11 16z
M600 1538q-25 -25 -39 -76q2 -2 8 -2q5 0 17 4q35 14 76 37q4 2 24 17q4 4 4 10q0 4 -2 6q-14 18 -49 18q-31 0 -39 -14z" />
    <glyph glyph-name="J" unicode="J" horiz-adv-x="1054" 
d="M-262 -791h-10q-52 6 -58 60q-2 6 -2 20q0 16 13 70q33 131 128.5 282.5t220.5 288t250.5 250.5t241.5 199q22 21 23 24q61 98 101.5 164t109.5 190t111 217.5t75 202t33 187.5q-6 110 -113 113h-24q-47 0 -146 -21q-377 -85 -721 -274q-215 -127 -215 -195q0 -38 86 -63
q72 -26 244 -68q255 -73 459 -178q9 -4 30.5 -15.5t37.5 -19t32 -12.5q10 -5 10 -10v-3q0 -3 -2 -4.5t-5.5 -2.5t-4.5 -1h-10q-35 0 -98 35q-256 138 -607 219q-167 40 -213 80q-24 18 -24 47q0 40 57 90q100 95 317 198t440 168.5t351 65.5q97 0 150 -41t53 -137
q0 -9 -1 -19.5t-2.5 -24t-2.5 -21.5q-46 -268 -346 -750q-6 -12 -15 -24l4 -4q27 13 47 26q12 6 29 6q27 0 27 -12q0 -4 -6 -10l-19 -13q-101 -60 -115 -69q-28 -18 -43 -43q-352 -542 -634 -944q-1 -1 -13.5 -19t-15 -21.5l-15 -21t-17.5 -23.5t-17 -22t-18.5 -23.5
t-17.5 -20t-19 -20.5t-18 -16.5t-19 -15.5q-34 -21 -74 -21zM-250 -698q-2 -6 -2 -17q0 -10 6 -16q7 2 15.5 10.5l9.5 9.5q46 56 78 101q191 263 575 841q8 8 8 15q-6 0 -16 -10q-74 -64 -154.5 -143.5t-172 -184t-164.5 -205.5t-124.5 -208.5t-58.5 -192.5z" />
    <glyph glyph-name="K" unicode="K" horiz-adv-x="1038" 
d="M-106 125q4 6 13 17.5t13 17.5q155 198 324 475q28 48 39 96q133 503 229 760q95 260 172 348q23 29 61 29q2 0 7.5 -1t7.5 -1q29 -3 35 -31q4 -10 4 -29t-8 -55q-96 -442 -404 -985q-20 -30 -25 -59q-6 -24 -17.5 -68.5t-20.5 -81.5t-17 -70q0 -2 -1 -7.5t-1 -8.5v-6h2
q8 0 8 4q22 16 108.5 80t122 90.5t103 77.5t120.5 93.5t105 86.5q414 350 422 541q0 24 25 24h6q19 -4 19 -20l2 -23q0 -35 -13 -76q-18 -50 -57 -107.5t-85 -109.5t-110 -112.5t-118.5 -107t-124 -101.5t-112.5 -87t-99 -73q-58 -44 -166.5 -124.5t-151.5 -112.5
q-20 -14 -20 -21q0 -15 131.5 -183t171.5 -212q335 -371 588 -400q6 0 14 -4q18 -4 18 -12v-2q-2 -10 -22 -10q-22 0 -68 8q-87 11 -186 66q-327 173 -649 645q-16 21 -21 24q-8 -4 -8 -16q-150 -601 -223 -862q-31 -104 -47 -140q-13 -32 -33 -55q-14 -14 -31 -14
q-22 0 -26 8q0 1 -1 3t-1 3q0 3 2 5.5t5.5 5.5t4.5 5q18 23 29 66q27 84 67 256q131 556 164 700q3 12 6 27q-12 -2 -26 -16q-105 -82 -195 -166q-14 -17 -37 -17q-10 0 -16 2q-13 3 -13 13zM662 1669q-44 -101 -87 -225t-69 -211.5t-66 -231.5q2 -2 6 -2l13 25
q87 165 158 354.5t108 362.5q6 18 6 39q0 12 -2 18q-35 -50 -67 -129zM215 479l-111 -166l5 -4q13 10 39.5 32t39.5 32q9 5 9 10q3 11 6 31t7 35t11 28q-1 0 -3 1t-3 1z" />
    <glyph glyph-name="L" unicode="L" horiz-adv-x="1189" 
d="M170 -381q-29 0 -66 8.5t-70.5 31t-33.5 52.5q0 29 37 51t92.5 32.5t97 15.5t72.5 6h35q57 0 84 -2q24 0 35 16q47 77 86.5 179t60 176t49.5 192q28 104 56.5 221t61.5 260.5t52 222.5v19q-5 -2 -8 -5.5t-7 -9.5t-5 -8q-69 -92 -99 -123q-35 -40 -65 -57q-21 -14 -43 -14
q-2 0 -8 1t-9 1q-10 5 -10 10t10 10q21 0 50 29q46 46 114 141q24 34 107 154q16 22 22 47q155 571 303 719q29 20 62 20q4 0 10.5 -1t9.5 -1q28 -6 31 -37l2 -14q0 -18 -6 -39q-77 -256 -311 -600q-21 -38 -25 -57q-24 -94 -50 -202t-55.5 -237t-47.5 -202
q-89 -370 -154 -559q-56 -154 -115 -244l-4 -8q5 -7 12 -7q134 -11 357 -45q529 -82 678 -100q116 -14 241 -27q43 -4 62 -12q12 -4 12 -12q0 -7 -14 -12h-31q-40 9 -201 18q-121 10 -297 35q-86 11 -249 34t-189 27q-242 35 -332 43q-46 4 -71 8h-4q-13 0 -27 -14
q-58 -61 -135.5 -96t-159.5 -35zM1221 1964q-46 -61 -85.5 -139.5t-62 -140t-53.5 -154.5q-6 -21 -10 -31q6 2 10 5.5t7 8.5t5 7q138 235 182 393q9 27 9 37q0 8 -2 14zM98 -266q-20 -14 -20 -29q0 -13 16 -29q31 -24 78 -24q132 9 227 112v7h-61q-178 0 -240 -37z" />
    <glyph glyph-name="M" unicode="M" horiz-adv-x="1509" 
d="M-31 -426q-10 5 -10 23q1 8 2 21.5t2 25t2 22.5q65 425 213 1108q57 250 78 385q8 54 8 82v27q0 23 2 35q0 16 4 20t19 6h8q23 0 29 -22q4 -32 4 -50q0 -17 -4 -49q-14 -137 -72 -393q-2 -4 -2 -10t2 -10q4 5 14 30q64 163 191 387q17 25 49 25q26 0 36.5 -10t10.5 -35
q-1 -7 -1.5 -19.5t-1.5 -23t-3 -19.5q-8 -48 -23.5 -144t-23.5 -144q-50 -303 -66 -494q0 -6 -1 -18.5t-1 -18.5q0 -29 8 -53h2q16 0 145.5 194.5t314 483t257.5 395.5q15 22 109 169.5t149 215.5l43 49q22 25 58 25q3 0 9 -1t9 -1q29 -7 35 -35q4 -20 4 -63
q-11 -133 -43 -283q-18 -87 -43 -190t-43.5 -172.5t-53 -194t-48.5 -178.5q-136 -503 -205 -830q-40 -188 -62 -358q-4 -34 -8 -49q-4 -19 -18 -21q-2 0 -7.5 -1t-7.5 -1q-13 0 -24 8q-4 4 -4 17q36 297 65 446q74 362 258 1078q95 357 129 530q21 94 33 197v10q0 8 -2 12
q-11 -4 -23 -20q-58 -69 -223 -308q-308 -453 -616 -954q-60 -97 -96 -139q-10 -14 -37 -41q-26 -29 -68 -29h-14q-34 3 -47 35q-7 21 -7 55v19q0 56 17 186q26 212 88 567q2 4 2 11q0 8 -4 14q-4 -9 -11 -21.5t-10 -17.5q-161 -308 -266 -688t-149 -760q-2 -4 -2 -16
q-7 -33 -37 -33q-15 0 -21 4z" />
    <glyph glyph-name="N" unicode="N" horiz-adv-x="1441" 
d="M1415 1604q8 0 17.5 -4.5t9.5 -12.5v-8q-7 -112 -17 -190q-34 -246 -153 -879q-73 -381 -131 -614q-30 -125 -66 -220q-14 -38 -27 -65t-34 -55.5t-51 -43t-68 -14.5q-45 0 -84 23q-113 59 -223 284q-195 407 -195 969l-2 53q0 111 10 248v23h-6q-67 -220 -76 -250
q-91 -306 -159 -698q-35 -207 -64 -316q-9 -34 -14 -47q-15 -27 -39 -27q-2 0 -6 1t-6 1q-24 6 -27 35q-4 36 -4 58q0 21 4 57q73 692 358 1401q82 203 123 325q8 25 31 25h8q23 -3 23 -23q0 -8 -2 -14q-15 -30 -28.5 -64.5t-29.5 -79t-24 -65.5v-8q6 0 10 -2
q14 -3 18.5 -6.5t4.5 -11.5v-11q-2 -26 -7.5 -76.5t-7.5 -74.5q-1 -21 -4 -60.5t-4 -60.5q-8 -204 -8 -309q0 -469 123 -817q107 -298 225 -402q47 -47 82 -47q20 0 37 14q26 18 49 62q23 49 55 151q61 213 117 498q25 134 82 425t86 445q50 258 65 447q0 13 8.5 22t20.5 9z
M324 1028q0 4 3 12t3 15q0 2 -1 6t-1 6q-195 -544 -256 -1102q5 25 15 76t15 76q66 347 84 426q57 227 138 485z" />
    <glyph glyph-name="O" unicode="O" horiz-adv-x="1984" 
d="M172 -174q-43 13 -74 39t-49.5 63.5t-28.5 74.5t-16 83q-4 62 -4 92q0 99 25 242q60 311 194 592t346.5 520.5t481.5 394.5q253 144 456 144q109 0 195 -42.5t139.5 -110.5t88 -161t48 -186.5t13.5 -194.5q0 -422 -232 -909q-38 -81 -89.5 -175.5t-124.5 -211.5
t-151 -227t-172 -216t-186 -185t-192.5 -127t-192.5 -48q-231 0 -285 303q-6 65 -6 127q0 37 4 115q2 2 2 8q0 8 -4 12q-8 -2 -33.5 -10t-41.5 -10q-14 -2 -45 -2q-32 0 -66 6zM74 199v-39q0 -46 7 -93t24 -97.5t52 -82.5t83 -32q40 0 110 36q22 12 27 37q19 104 54 218
t85.5 231.5t121.5 221.5t150 165q13 8 13 20q0 9 -2 13q-2 11 -7 29.5t-6 21.5v8q0 11 15 14h8q21 0 29 -24l4 -15q5 -15 10 -22q60 21 66 22q35 7 55 7q71 0 118.5 -41t59.5 -109q8 -33 8 -76q0 -28 -2 -86t-2 -86v-43q0 -15 -20 -18h-5q-20 0 -20 16q-2 25 -2 72
q1 13 2.5 36.5t2.5 42.5t1 36q0 24 -2 36q-4 87 -35 132q-37 61 -104 61q-23 0 -53 -10q-7 -3 -23 -10.5t-23 -10.5q-18 -8 -18 -32l2 -31q0 -53 -12 -103q-23 -121 -78.5 -259.5t-145.5 -271t-188 -198.5q-11 -8 -14 -22q-1 -17 -4 -49t-4 -47v-50q0 -251 112 -358
q58 -49 123 -49q27 0 39 4q116 24 236 118t221 212q150 169 286 374t247 432t177 470.5t66 459.5q0 85 -11 169t-40.5 174.5t-74 158.5t-118 112t-166.5 44q-116 0 -248.5 -51.5t-252.5 -134.5t-222.5 -175t-181.5 -186q-141 -166 -258.5 -380t-193 -457.5t-78.5 -454.5z
M440 -39q24 18 39 39q98 106 178 260q51 94 98.5 225.5t47.5 212.5q0 15 -2 21q-67 -50 -149 -188.5t-142.5 -299.5t-69.5 -270z" />
    <glyph glyph-name="P" unicode="P" horiz-adv-x="1447" 
d="M692 1677h-6q-10 0 -10 -10q-5 -14 -14.5 -42.5l-14.5 -43.5h4q7 0 19 4q309 133 598 133q76 0 153.5 -12.5t156 -42.5t139 -73.5t98.5 -112t38 -152.5q0 -75 -28.5 -158t-74 -156t-106.5 -145t-121 -128.5t-122 -104.5q-88 -68 -200.5 -135.5t-239 -127t-259 -97
t-237.5 -37.5h-14q-22 0 -62 4h-12q-8 0 -11 -3.5t-4 -15.5q-73 -329 -120 -719l-37 -282q-3 -22 -10.5 -29.5t-24.5 -7.5h-6q-28 0 -31 29l-2 28q0 22 4 72q4 40 11.5 118.5t11.5 118.5q25 308 96 721v6q0 17 -12 23l-31 25q-6 6 -6 10q0 7 14 10h10q18 0 33 -10
q8 36 55 278q-5 0 -9 -1.5t-6 -3t-5.5 -5t-5.5 -4.5q-182 -156 -326 -156h-10q-61 4 -90 45t-29 103q0 22 8 72q24 129 94.5 260.5t168 242.5t210 203t228.5 156q33 20 43 51q40 129 84 258q6 19 16 35q6 18 27 18h6q22 0 22 -16v-10l-30 -154q-5 -29 -21 -29zM348 745
q69 302 195 693q6 24 6 26v4h-6q-3 -2 -10.5 -6t-10.5 -6q-304 -188 -491 -506q-123 -213 -123 -358q0 -19 2.5 -36.5t9 -36t20.5 -29.5t33 -11q43 0 130.5 49.5t162 114t82.5 102.5zM412 705q-13 -14 -26 -66.5t-13 -83.5v-8q10 43 39 158zM1266 1683q-292 0 -621 -157
q-18 -9 -24 -31q-126 -394 -187 -647q-6 -24 -6 -25q0 -6 2 -8q12 7 21 37q10 35 29.5 105.5t29.5 105.5q65 218 104 307q25 55 39 76q19 31 60 31q2 0 7.5 -1t8.5 -1q35 -5 49.5 -42.5t14.5 -80.5q0 -211 -273 -527q-24 -28 -33 -63q-18 -78 -54.5 -233.5t-55.5 -233.5
q-2 -6 -2 -14t4.5 -11t17.5 -4q32 -4 52 -4h12q192 6 439 124t431 261q77 60 150.5 134.5t142 164.5t110.5 191.5t42 193.5q0 74 -32.5 135t-85 100.5t-120.5 66.5t-136 38.5t-136 11.5zM547 963q3 0 5 1.5t4 4.5t3 4q68 98 108.5 178.5t51.5 167.5v33q0 38 -10 63
q-29 -36 -93 -216t-69 -236z" />
    <glyph glyph-name="Q" unicode="Q" horiz-adv-x="1533" 
d="M-319 295v24q0 140 49.5 296t132.5 299t178.5 267.5t198.5 227.5q86 83 193 168.5t235.5 171t264 139.5t241.5 54q62 0 110 -17t78.5 -50t50 -71.5t29 -92t13 -99t3.5 -105.5q0 -112 -22 -288q-67 -462 -299 -879t-590 -760q-10 -8 -10 -14q0 -3 12 -12
q136 -84 382.5 -250t352.5 -234q203 -130 367 -211q32 -16 35 -18q1 -1 8.5 -3.5t10.5 -5t3 -6.5l-2 -4q-2 -10 -14 -10q-22 0 -56 17q-212 97 -594 346q-27 17 -41 26q-53 34 -219 143.5t-260 166.5q-2 2 -7 5t-7 5q-9 6 -14 6t-17 -8q-197 -176 -352 -176q-92 0 -138.5 60
t-54.5 157q-4 25 -4 73q0 152 66 361h-60q-65 0 -114 24t-78 67t-44 95t-17 115zM113 1167q-143 -185 -247 -415t-104 -428q0 -26 9 -105q17 -81 62 -135.5t120 -54.5q25 0 37 2q20 3 26 20l15 37q120 253 331 412q148 110 259 110q30 -4 41 -8q8 -3 8 -8q0 -8 -8 -8
q-4 -2 -13 -2q-12 0 -16 2q-6 2 -19 2q-26 0 -49 -10q-151 -58 -278.5 -199t-200.5 -305q0 -1 -1 -3t-1 -3q0 -6 6 -9q25 4 72 27q191 87 354.5 226.5t261.5 310.5q18 22 35 22h10q19 0 25 -8q2 -2 2 -6q0 -5 -4.5 -12t-5.5 -9q-117 -198 -314.5 -361t-408.5 -226
q-61 -16 -76 -74q-51 -183 -51 -316q0 -99 30 -168q12 -37 43 -65q29 -29 66 -29q51 0 141.5 58.5t151.5 113.5q1 1 6.5 5.5t7.5 7.5t2 8q-8 5 -25.5 15t-25.5 15q-14 8 -43 25t-45.5 27t-39.5 24.5t-42 28.5q-35 21 -35 49v4h-6q-14 -12 -41 -31q-28 -16 -47 -16h-6
q-14 0 -16 6v4q0 7 8 11q111 82 254 174q13 8 32 8h11q16 -3 16 -10t-6 -13q-3 -3 -9.5 -8t-9.5 -8q-36 -37 -71 -74q-39 -42 -39 -51q0 -10 11.5 -19t41.5 -26q6 -4 17.5 -11.5t17.5 -11.5q27 -14 106 -59q29 -16 33 -16q6 0 29 20q350 347 588 782q252 461 288 1027
q0 14 1 40t1 39q0 104 -18 203q-11 42 -25 73.5t-36 61.5t-55 46t-76 16h-15q-144 -11 -338 -125q-418 -236 -710 -617z" />
    <glyph glyph-name="R" unicode="R" horiz-adv-x="2273" 
d="M43 674q386 412 995 842q30 24 35 57q3 35 12 65q3 13 13 22t22 9q9 0 21 -5t12 -13q0 -5 -4 -9q-7 -6 -10 -14.5t-4 -21t-2 -17.5h4q4 0 16 8q187 128 248 144q21 8 47 8q17 0 25 -2q34 -6 34 -35q0 -2 -1 -6.5t-1 -7.5q-7 -29 -28 -68q-66 -126 -101 -192l-3 -6
q-3 -7 -5 -11q1 0 3 -1t3 -1q9 0 21 8q403 156 686 156q218 0 358 -90q79 -49 133 -124t54 -159q0 -53 -25 -104t-62 -92t-99 -83t-117 -72t-135.5 -63.5t-134.5 -53t-135.5 -44.5t-116.5 -34.5t-97 -26.5q-102 -28 -293.5 -74t-273.5 -67q-100 -29 -103 -37v-2q0 -9 17 -17
q15 -12 67 -39q23 -11 82.5 -39.5t91.5 -44.5q273 -141 583.5 -361.5t491.5 -420.5q13 -10 33 -35q4 -8 4 -10q0 -16 -32 -16q-19 0 -35 16q-477 477 -1227 856q-25 12 -102 51q-18 8 -40 27.5t-22 34.5q0 14 23 30q23 13 49 19q84 26 201 53q419 96 565 139
q762 219 762 508q0 62 -33 121q-40 74 -112 123.5t-151.5 70.5t-166.5 21h-23q-166 -4 -329.5 -52.5t-374.5 -135.5q-27 -11 -43 -39q-224 -427 -420 -940q-45 -114 -121.5 -327t-107.5 -294q-8 -25 -31 -69q-12 -27 -43 -27q-35 0 -35 29q0 9 10 71q46 215 116.5 473.5
t121.5 423.5t147 465q2 5 8 27l-4 4q-22 -14 -68 -40.5t-69 -39.5q-208 -126 -547 -358q-118 -78 -164 -103q-32 -18 -57 -18h-6q-17 0 -25 2q-18 6 -18 18q0 6 6 15q4 7 37 45zM1059 1290q-4 -8 -4 -10q0 -4 2 -6h6q142 71 203 98q8 3 20 23q5 10 24.5 46.5t28.5 55.5
q56 102 86 174q9 23 9 29v10q-26 -9 -62 -29q-52 -29 -242 -155q-15 -12 -18 -33q-27 -114 -53 -203zM1219 1292q-120 -59 -177 -90q-12 -6 -20 -26q-194 -598 -336 -1164q147 394 273 696.5t274 583.5q-4 2 -8 2t-6 -2zM1047 1460q-66 -33 -271.5 -198.5t-392 -333
t-207.5 -207.5q4 2 11.5 7t11.5 7q175 120 262.5 178.5t236 151t273.5 160.5q17 8 20 28l51 179q1 4 2.5 14t2.5 14z" />
    <glyph glyph-name="S" unicode="S" horiz-adv-x="2023" 
d="M106 -1012q0 198 199 506q100 153 244.5 302.5t308.5 275t336.5 230t345.5 183.5q4 2 12.5 5t16 7t12.5 9q-20 10 -84 24q-126 34 -199 62q-88 31 -151 87t-70 136q0 4 -1 11.5t-1 11.5q0 96 90 231.5t228 267.5t294 254t298.5 208t230.5 114q67 16 100 20q5 0 14.5 1
t14.5 1q15 0 39 -4q34 -8 47 -16q28 -19 31 -45q0 -19 -4 -27q-5 -25 -25 -53q-25 -46 -72 -100q-154 -179 -385 -410q-20 -20 -64.5 -63.5t-69.5 -69t-61 -63.5t-65 -72q-76 -86 -121 -162q-27 -40 -43 -82q-20 -42 -20 -78q6 -35 47 -35h23q12 0 12 -8v-2q0 -2 -1 -3.5
t-3.5 -2.5t-4.5 -1.5t-5 -1.5t-5 -1q-11 -5 -32 -8q-27 0 -39 4q-53 9 -56 63v17q1 22 25 86q32 72 99 158.5t119.5 141t133.5 132.5q279 275 418 436q76 93 98 129q22 39 25 47q2 6 2 21q-3 22 -31 28q-12 6 -24 6q-2 0 -7.5 -1t-7.5 -1q-98 -8 -229 -75t-230.5 -140
t-189.5 -153q-134 -111 -303 -310.5t-197 -320.5q-4 -36 -4 -51v-19q10 -128 187 -194q25 -10 52.5 -19.5t65.5 -20.5t54 -16q89 -22 125 -34q6 -4 20 -4q6 0 14 4l74 24q9 4 27 8q10 0 16 -2q10 -5 10 -6v-6q0 -8 -8 -8q-3 -1 -12.5 -6t-15.5 -6q-9 -3 -28 -10.5t-28 -10.5
q1 -3 3 -5.5t4 -3.5l5 -2.5l5 -2.5q6 -4 19.5 -13.5t19.5 -13.5q71 -56 77 -133v-16q0 -15 -4 -47q-19 -94 -91.5 -213.5t-167.5 -232.5t-209 -228t-212.5 -201.5t-181.5 -150.5q-465 -353 -676 -410q-15 -4 -49 -8h-16q-60 0 -93 24t-42 84v11q-3 18 -3 32zM1571 459
q-355 -166 -675 -421.5t-515 -553.5q-79 -117 -138 -250.5t-59 -241.5v-36q3 -34 20.5 -57t49.5 -23h6q12 0 27 6q82 26 182 82q624 373 1063 911q118 145 188 277q38 87 43 114q6 27 6 53v17q-6 74 -79 123q-4 3 -10.5 7t-10.5 7q-17 10 -31 10h-6q-13 0 -26 -8
q-6 -5 -19 -9.5t-16 -6.5z" />
    <glyph glyph-name="T" unicode="T" horiz-adv-x="931" 
d="M1767 1231q-173 -16 -190 -17q-113 -5 -256 -32q-57 -11 -88 -15q-1 -1 -3.5 -1t-4 -0.5t-3 -2t-1.5 -4.5v-6q-3 -6 -11 -6q-4 -2 -16 -2h-4q-34 6 -70 6q-32 0 -102 -4h-12q-24 0 -70 5t-70 5h-10q-27 -2 -32.5 -5.5t-12.5 -29.5q-33 -110 -137 -409
q-205 -557 -406 -1194q-82 -250 -86 -260q-6 -19 -14 -26t-25 -7h-8q-12 2 -15.5 5.5t-2.5 12.5l39 119q188 635 354 1120q159 458 217 641q0 7 4 15l2 6q3 10 -12 10h-70q-44 0 -67 -2q-76 -3 -156 -6q-39 -2 -117 -2h-116q-109 0 -197 14q-1 0 -4.5 0.5t-5.5 1t-5 1
t-5 1.5l-4 2t-3 2.5t-1.5 3.5t-0.5 5v2q1 7 6 10t15.5 3.5t11.5 0.5q167 13 371 20l354 7q31 3 33 20q2 4 -2 23q-14 41 -8 96l2 10q5 24 20 62q16 28 53 28h6q21 -2 30.5 -9t10.5 -24q2 -19 -2 -55l-8 -47q-2 -16 -10 -47q-3 -23 6.5 -37t30.5 -14h4q190 4 285 8
q175 0 376 29q73 13 166 20q5 0 15.5 1t15.5 1q17 0 45 -4q2 -1 7.5 -2t8.5 -2q1 -1 5 -2.5t6 -2.5t4.5 -3t3.5 -5t0 -6v-2q-2 -11 -23 -16q-24 -8 -41 -8zM315 1174q14 0 43 -1.5t45 -1.5q8 0 70 5q-12 0 -33.5 1t-31.5 1q-31 0 -93 -4z" />
    <glyph glyph-name="U" unicode="U" horiz-adv-x="1261" 
d="M1487 1313q-31 -41 -64 -105q-291 -567 -483 -1130q-82 -242 -96 -406q-3 -24 -25 -24h-8q-14 0 -18.5 5.5t-4.5 22.5q3 116 46 269q51 185 165 481q119 302 213 498q9 14 9 24v4q-13 -17 -35 -43q-285 -367 -527 -645q-179 -203 -311 -315q-153 -129 -248 -129h-8
q-52 1 -72 33t-20 86q0 108 73.5 334.5t135.5 359.5q4 12 4 16q0 7 -6 13q-2 4 -2 10q0 3 1 8.5t1 7.5q16 46 45 72q13 11 29 39q56 122 93.5 198.5t102 187.5t123.5 181q12 16 31 31q12 12 22 14q4 0 12.5 1t12.5 1q13 0 24 -8q11 -11 11 -19q0 -6 -3.5 -15t-4.5 -13
q-18 -50 -52 -113q-132 -258 -311 -506q-21 -31 -41 -49q-28 -28 -43 -69q-201 -507 -201 -676v-13q0 -28 10 -56t33 -28q33 0 99.5 45.5t112.5 86t87 79.5q162 162 375 418q317 378 565 715q22 32 41 68q81 146 168 262q14 14 35 14q15 0 21 -2q14 -4 14 -14q0 -3 -4 -11
q-1 -2 -19 -32q-15 -22 -51 -78t-57 -86zM635 1329q-130 -178 -264 -467q183 280 264 467z" />
    <glyph glyph-name="V" unicode="V" horiz-adv-x="1009" 
d="M-14 383q-3 79 -10.5 239t-10.5 242q-6 339 -6 342q0 110 6 221q4 66 12 99q6 21 21.5 33t34.5 12q21 0 39 -15q8 -8 8 -12v-2q-1 -3 -3 -4.5t-5 -2.5t-4 -1h-13q-17 0 -20 -2.5t-8 -20.5q-9 -53 -9 -104q-2 -59 -2 -178q0 -138 7 -332q9 -240 18 -477q4 -30 8 -47h4v217
q0 139 -4 207q0 387 37 641q2 4 2 14q7 27 31 27q8 0 16 -4q12 -3 12 -17l-2 -8q-4 -86 -8 -125q-2 -46 -8 -138t-8 -138q-9 -181 -15 -363q0 -29 5 -199q12 -238 12 -354q0 -76 -2 -115q-4 -94 -4 -139q38 -368 88 -368q5 0 24 22q34 46 52 86q51 93 106 221
q196 442 606 1202q249 455 330 592l12 19q9 12 27 12q20 0 20 -12q0 -2 -2 -4l-6 -13q-76 -134 -155 -280.5t-184 -345.5t-150 -283q-207 -390 -475 -969q-47 -103 -86 -172q-23 -39 -39 -59q-36 -49 -80 -49q-47 0 -70 41q-50 86 -65 315q-1 10 -2 14.5t-6.5 10.5t-14.5 8
q-7 2 -12.5 9.5t-7 11.5t-4.5 16q-14 56 -17 123q-13 159 -20 356z" />
    <glyph glyph-name="W" unicode="W" horiz-adv-x="1751" 
d="M1628 1253q0 -253 -56.5 -540t-150.5 -529q-27 -68 -64.5 -143.5t-94.5 -161.5t-118 -153.5t-137 -112.5t-149 -45q-43 0 -77 17.5t-56 44.5t-38.5 68t-24.5 78t-12.5 86t-5.5 80.5t-1 71.5q0 282 90 695q0 2 1 6t1 6q0 6 -2 8q-4 -2 -20 -24q-57 -77 -162.5 -226
t-122.5 -172q-56 -78 -116 -155t-148.5 -168t-147.5 -119q-30 -12 -65 -12q-66 3 -72 67q-2 12 -2 37q0 138 133 492q9 18 13 28v6q-4 3 -13 3.5t-12 2.5q-12 3 -12 15q0 11 10 14q49 14 76 86q15 34 61.5 141t73.5 164q101 206 141 246q21 21 47 21q13 0 19 -2
q22 -6 22 -31q0 -16 -14 -53q-77 -205 -272 -472q-21 -30 -27 -45q-173 -420 -182 -610q0 -76 20 -76q2 0 14 4q61 30 189 175q124 141 321 421q25 34 91 128.5t104 144.5q42 48 45 51q17 20 45 20q3 0 8 -1t8 -1q27 -3 27 -30q0 -16 -2.5 -32.5t-7 -40t-6.5 -32.5
q-39 -200 -59.5 -351.5t-20.5 -297.5q0 -56 5 -117.5t18.5 -140.5t45 -129.5t76.5 -50.5q68 0 168 90q134 125 242 325t172 420.5t97.5 437t33.5 404.5q0 108 -14 203q-1 3 -2.5 9t-2.5 9v11q0 14 15 16q2 0 5.5 1t4.5 1q9 0 16.5 -6.5t8.5 -16.5q22 -135 22 -258z" />
    <glyph glyph-name="X" unicode="X" horiz-adv-x="1286" 
d="M-47 252q-7 75 4 135q10 60 31 109q6 12 6 14v6q-82 -86 -123 -131q-108 -117 -302.5 -333.5t-262.5 -291.5q-291 -321 -467 -489q-85 -82 -154 -135q-37 -30 -65 -43q-34 -13 -78 -13q-16 4 -21 11q-4 4 -4 6t8 10q12 4 19 4q6 0 8 -2q2 0 5 -1t5 -1q14 0 35 14
q43 29 105 84q149 140 364 373q101 109 297.5 330.5t296.5 329.5q165 185 326 352q14 14 16 26q2 6 -2 23q-20 65 -52 153t-77.5 198.5t-96 200.5t-91.5 122q-18 12 -29 12q-28 0 -54 -41t-30 -72q-9 -60 24 -108q11 -11 13 -14q4 -7 2 -9q0 -5 -10 -8h-11q-16 0 -24 8
q-25 23 -37 62t-6 78q8 54 48.5 96.5t92.5 42.5q20 0 47 -10q30 -13 58 -41q104 -104 262 -533l32 -98q1 0 2.5 -1t2.5 -1q10 0 155 166q224 261 512 514q83 70 158 137q21 18 45 18q2 0 7 -1t7 -1q15 -3 15 -14q-1 -2 -9 -14q-31 -31 -49 -45q-377 -363 -624 -617
q-89 -91 -181 -241q-4 -8 -4 -15q-3 -6 0 -16q34 -119 63.5 -248t67 -312t52.5 -253q26 -112 49 -178l4 -13v-8q-8 -14 -33 -14t-33 14q-4 5 -24 35q-120 186 -192.5 345.5t-98.5 336.5zM49 457q-14 -26 -22 -78l-4 -21q-8 -74 10 -168q35 -209 164 -438q0 -4 4 -4t6 2
q-10 43 -65.5 305.5t-92.5 401.5z" />
    <glyph glyph-name="Y" unicode="Y" horiz-adv-x="1075" 
d="M-362 2q-28 0 -47 12t-28.5 34.5t-13.5 43t-6 47.5q-2 16 -2 47q0 54 17 179q28 224 94 475q1 4 2 10.5t2 9.5q-4 2 -12 2h-13q-2 0 -7 1t-7 1.5t-5.5 2t-5.5 4t-3 6.5q0 1 -1 3.5t-1 4.5q0 12 16 24q3 6 10 6q26 0 39 16.5t23 45.5q8 24 21 66.5t24.5 78t23.5 66.5
q35 87 66 131q14 26 41 49q18 18 51 18q24 0 36.5 -7.5t12.5 -30.5q0 -6 -10 -41q-55 -130 -184 -316q-18 -25 -23 -45q-137 -485 -137 -807q13 -100 35 -100q5 0 22 10q23 16 58 51q61 62 225 262q23 29 208.5 261.5t286.5 351.5q116 136 195 213q102 112 176 112
q48 0 65 -27t17 -77q0 -21 -4 -57q-14 -85 -59 -207q-51 -133 -160 -361q-356 -730 -682 -1257q-151 -242 -250 -361q-37 -46 -63 -65q-28 -25 -66 -25h-8q-24 3 -35 14.5t-12 35.5q0 64 38 164.5t83 187.5q125 256 313.5 513t388.5 431l8 8t12 8q7 1 12.5 3.5t10 9t6.5 8.5
t6.5 12.5t5.5 11.5q208 420 275 576q102 235 102 352q0 21 -6 39q0 6 -4 14l-4 4q-26 -6 -96 -75t-115 -119q-113 -127 -422 -510q-259 -325 -338 -414q-59 -66 -104 -100q-44 -35 -88 -35h-6zM367 117q2 2 2 10q0 4 -2 6q-341 -341 -600 -844q-129 -258 -129 -352v-10
q26 33 34 43q57 70 99 131q306 456 596 1016z" />
    <glyph glyph-name="Z" unicode="Z" horiz-adv-x="1519" 
d="M1468 1071q31 0 53.5 -12.5t22.5 -40.5q0 -7 -4 -19q-4 -25 -33 -73q-11 -19 -22.5 -37t-28 -39.5t-24.5 -31.5t-31 -37.5t-27 -32.5q-114 -132 -379 -406q-319 -323 -485 -481q-9 -9 -12 -17q246 52 413 52q218 0 349 -43q38 -10 86.5 -41t48.5 -60q0 -9 -15 -12
q-4 -2 -14 -2q-21 0 -33 18q-24 36 -73 56q-44 18 -140 34q-115 13 -159 13q-134 0 -331 -35t-263 -96q-41 -39 -89.5 -81.5t-123 -103.5t-140 -100t-100.5 -39q-3 0 -9.5 1t-10.5 1q-37 3 -37 33q0 6 4 22q28 65 117.5 135.5t177.5 116t166 74.5q27 12 47 29
q239 227 602 594q237 241 336 356q76 92 106 137q51 76 55 111l2 6q0 14 -14 14h-6q-28 -3 -64 -10q-326 -71 -616 -158q22 0 65 -2t64 -2q148 0 148 -28q-1 -5 -3 -8t-6 -4.5t-7.5 -2t-9 -1.5t-7.5 -1q-109 0 -256 14q-15 3 -35 3q-19 0 -54.5 -4t-50.5 -5q-19 -2 -54 -6
t-54 -6q-3 0 -9 -1t-9 -1q-15 0 -27 6q-10 3 -10 10t8 11q11 4 29 8l69 12q-1 4 -3.5 6t-6 3t-4.5 1q-15 3 -42 9.5t-42 9.5q-3 1 -8.5 3t-8.5 3q-6 0 -6 8v2l6 6q16 4 21 4q3 0 7.5 -1t6.5 -1q27 -2 86 -14q72 -14 84 -14q21 0 86 18q350 94 553 139q109 26 154 29
q4 0 12 1t12 1zM-29 -514q97 61 217 172q-142 -78 -217 -172z" />
    <glyph glyph-name="bracketleft" unicode="[" horiz-adv-x="620" 
d="M72 27q-6 -17 -9 -37q-2 -6 -2 -21q0 -24 17.5 -40.5t46 -24t52.5 -10.5t48 -3q43 0 99 17q4 2 16 2h8q9 0 12 -8q0 -17 -52.5 -25t-86.5 -8q-221 0 -221 102q0 59 78 246q101 249 348 846q31 72 59 106q23 33 60 33h6q23 -3 37 -20q12 -16 30 -60q0 -1 1.5 -3t1.5 -3
q0 -6 -9 -10q-2 0 -5.5 -1t-4.5 -1q-16 0 -27 14q-2 3 -7 14t-10 17.5t-11 11.5q-19 -19 -39 -65q-19 -44 -53 -127t-49 -117l-283 -676q-40 -109 -51 -149z" />
    <glyph glyph-name="backslash" unicode="\" horiz-adv-x="798" 
d="M778 129q-14 0 -37 23q-123 108 -335 335q-75 79 -208.5 232t-191.5 217q-6 3 -6 10q0 4 2 6q4 6 18 6q19 0 33 -14q6 -6 17 -16.5t20 -19.5t16 -17q91 -106 295 -336q240 -267 387 -401q11 -11 11 -15v-2q-5 -8 -15 -8h-6z" />
    <glyph glyph-name="bracketright" unicode="]" horiz-adv-x="729" 
d="M127 -123q-83 9 -125 78q-2 4 -2 10q0 8 12 8h6q15 0 27 -16q15 -21 41 -38t49 -17q15 0 27 12q8 8 15.5 17.5t15.5 22t13.5 21.5t13 24.5t11 22.5t11.5 24.5t10 21.5q254 548 354 817q49 125 60 184q4 16 4 27q0 8 -4 20q-6 27 -31 27q-113 0 -168 -2q-29 0 -51 -11
q-6 -6 -15 -6q-16 0 -20 13v4q0 24 90 24h88v2h98q37 -2 54.5 -19.5t17.5 -55.5q0 -30 -16 -88q-45 -138 -142 -373q-29 -69 -66 -152t-60.5 -134t-72.5 -155.5t-65 -138.5l-43 -80q-27 -51 -55 -72.5t-82 -21.5z" />
    <glyph glyph-name="asciicircum" unicode="^" horiz-adv-x="288" 
d="M270 950h4q15 0 15 -8v-4q0 -8 -11.5 -13t-21.5 -5q-28 0 -43 18q-23 29 -33 115q-20 -18 -49 -47q-53 -53 -68 -66q-16 -16 -38 -16h-7q-18 0 -18 14v2q0 25 14 25h4q13 0 22.5 5t22.5 18.5t15 15.5q13 12 36.5 34t35.5 33q16 16 47 16q34 0 39 -38q8 -47 14 -74
q4 -25 20 -25z" />
    <glyph glyph-name="underscore" unicode="_" horiz-adv-x="456" 
d="M422 -16q4 -4 4 -7v-2q0 -8 -6 -8q-4 -2 -12 -2h-7q-14 2 -41 2h-73q-13 0 -19 -2q-36 -8 -82 -8q-13 0 -35.5 1t-33.5 1q-70 4 -107 8q-2 0 -6 0.5t-7 1.5l-6 2t-4.5 3.5t-2.5 5.5q0 5 3 8t6 3.5l9 1.5t8 1q29 4 80 4h64q129 0 237 -6q27 -5 31 -8z" />
    <glyph glyph-name="grave" unicode="`" horiz-adv-x="137" 
d="M70 1008q43 -43 65 -105q0 -2 1 -5t1 -5q0 -7 -12 -10h-6q-20 0 -29 18q-24 44 -80 100q-10 10 -10 13q0 2 2 4q3 8 16 8h13q17 0 39 -18z" />
    <glyph glyph-name="a" unicode="a" horiz-adv-x="690" 
d="M119 287q-59 -66 -147.5 -138.5t-141.5 -72.5q-36 0 -39 24q0 52 27 114.5t68 117t80 96.5t71 68q21 18 57 18q21 0 35.5 -10t22.5 -29t11.5 -34t6.5 -38q46 37 76 39q39 0 39 -16q0 -2 -4 -14q-102 -200 -84 -252q3 -10 16 -10q6 0 8 2q34 12 124 61t167.5 90t95.5 41
h10q13 -3 13 -6q0 -7 -47 -35q-266 -163 -359 -176q-12 -2 -32 -2q-66 0 -66 53q0 16 5.5 37t14.5 44t11 32q5 8 -8 8q-22 0 -31 -12zM86 477q-62 -58 -108 -115.5t-68.5 -97t-35.5 -77t-15 -53.5t-2 -28q21 0 112 86.5t113 112.5q15 21 22 64t2 77t-20 31z" />
    <glyph glyph-name="b" unicode="b" horiz-adv-x="538" 
d="M219 1167h12q17 -1 24 -9.5t9 -27.5q0 -129 -117 -417t-208 -430q-10 -16 -20 -21.5t-15.5 -4.5t-10.5 -2t-8 -15t-13 -49.5t-17 -59.5q6 5 10 9.5t7.5 12t4.5 9.5q20 35 45.5 69.5t59.5 70t74 57.5t77 22q30 0 48.5 -13t11.5 -42q-5 -31 -29 -70q-5 -9 -12.5 -19.5
t-16.5 -22.5t-14 -19h2q12 0 74 35t107.5 62.5t72.5 45.5q24 12 39 12q18 0 18 -10q0 -5 -6 -8l-27 -19q-167 -98 -362 -217q-29 -16 -53 -37q-70 -61 -146 -108l-18 -12q-17 -25 -39 -25q-13 0 -31 4.5t-18 13.5q0 8 6 11q4 3 7 6.5t5.5 6t4.5 6.5t3.5 6.5t3 7.5t2 6.5
t1.5 7.5t1.5 7t1.5 7.5t1 7.5q23 100 62.5 245.5t94.5 328.5t118 337.5t114 215.5q25 28 59 28zM-129 53q-2 -2 -2 -6q-1 -1 2 -8q107 60 127 80q46 44 95.5 108t49.5 101q5 24 -12 24q-34 0 -75 -35t-78 -87.5t-63.5 -96.5t-43.5 -80zM-78 354q56 70 168 351t125 389v22
q-32 -3 -136 -288.5t-155 -450.5q-1 -1 -2 -5.5t-2 -6.5z" />
    <glyph glyph-name="c" unicode="c" horiz-adv-x="425" 
d="M29 379q5 5 9 10t7.5 14t4.5 13t4.5 17t4.5 16q-53 -2 -116 -87q-40 -55 -79.5 -146.5t-23.5 -135.5q3 -14 21 -14q41 0 142 55.5t190 118.5t112 90q8 14 29 14q13 0 16 -8q0 -4 -2 -8q-27 -43 -122 -112.5t-204.5 -125t-166.5 -55.5q-67 0 -80 41q-4 10 -4 33
q6 45 30 106.5t59.5 121t86.5 101t102 41.5q17 0 35 -6q59 -23 -2 -104q-9 -15 -31 -15q-9 0 -17.5 4t-10.5 9q0 8 6 12z" />
    <glyph glyph-name="d" unicode="d" horiz-adv-x="686" 
d="M393 621l74 190q4 12 4 18v7q-5 -5 -16 -27q-42 -83 -97.5 -177t-128 -201.5t-153.5 -194.5t-150 -123q-34 -15 -61 -15q-58 0 -58 49q0 44 41 116.5t101 130t106 57.5q45 0 92 -50q91 127 154 235t131 249q3 6 36 73t58.5 115.5t38.5 65.5q12 18 37 18q12 0 20.5 -5.5
t8.5 -14.5v-7q-7 -27 -15 -49q-65 -195 -194 -526q-1 -2 -23 -56.5t-35.5 -90t-33 -89t-29.5 -92.5t-10 -61v-8q0 -21 12 -21q10 0 33 10q59 30 231 181q10 10 27 10q16 0 16 -10q0 -7 -8 -15q-12 -10 -75.5 -64.5t-109.5 -87t-85 -46.5q-12 -6 -35 -6q-61 0 -61 55v8
q3 40 32.5 126t74.5 197t50 126zM90 328q10 10 10 26q0 15 -15 38.5t-28 23.5q-15 0 -39 -21q-124 -103 -155 -243q0 -25 8 -25q5 0 14 6q10 5 21.5 12.5t21.5 15t23 19.5t21.5 19.5t22.5 22.5t20.5 21.5t21.5 23.5t18.5 21t18.5 21.5t16 18.5z" />
    <glyph glyph-name="e" unicode="e" horiz-adv-x="583" 
d="M-74 322q-2 4 -2 8q0 6 3 10.5t6.5 6.5t9.5 5l8 4q5 2 32 33t61.5 62.5t61.5 37.5q12 3 25 3q58 0 72 -33q14 -56 -29 -102.5t-102 -61.5q-24 -4 -31 -4q-13 0 -28.5 2t-18.5 2q-10 0 -14 -4q-60 -75 -60 -113q0 -49 86 -49q106 0 278 66.5t234 130.5q8 8 25 8
q20 0 24 -8q2 -2 2 -4q0 -3 -4 -7q-33 -50 -184.5 -117.5t-245.5 -88.5q-47 -19 -123 -19q-94 0 -127 49q-12 18 -12 51q0 56 45 119q1 2 4.5 5.5t3.5 4.5v3zM139 459q-65 -41 -133 -135h10q46 0 85.5 35.5t39.5 78.5q0 15 -2 21z" />
    <glyph glyph-name="f" unicode="f" horiz-adv-x="485" 
d="M-510 94q-31 -10 -31 -24q0 -8 9 -17q83 -102 83 -217q0 -32 -8.5 -74.5t-25 -86t-46 -73.5t-65.5 -30q-65 3 -65 109q0 25 16 133q8 52 45 221q4 16 4 18q0 6 -6 6q-5 0 -35 -10q-230 -84 -332 -84q-29 0 -39 4q-22 5 -22 23t20 31q151 114 287 114q61 0 109 -22
q18 -9 20 -9q14 0 19 21q19 74 45 164q26 92 80.5 239.5t125 313.5t152 310.5t145.5 199.5q26 26 66 26q44 0 47 -47v-6q0 -95 -117 -336q-123 -290 -346 -585q-56 -72 -96 -105q-9 -9 -12 -20q-14 -43 -21.5 -74t-17.5 -64q0 -4 2 -12q349 133 465 191q20 10 26 10h9
q18 0 22 -10v-5q0 -4 -3 -7t-8.5 -5.5t-6.5 -3.5q-24 -13 -54 -27.5t-56.5 -27t-66 -29t-64 -26t-69.5 -27l-63 -24.5t-65 -25t-56 -21zM-436 426q0 -1 -1 -4t-1 -4q0 -4 2 -6q72 59 185.5 253t197.5 388.5t84 263.5l-4 24q-50 -35 -125 -157q-94 -155 -173 -333t-165 -425z
M-961 -6q20 3 41.5 8t38.5 9t42 11.5t38.5 11.5t41.5 13.5t39 13t42.5 15t40.5 14.5q-29 15 -46.5 19t-49.5 4q-110 -13 -225 -105q-5 -2 -5 -8q0 -2 2 -6zM-590 -399q40 25 63 87.5t23 135.5q0 116 -51 184q-55 -232 -55 -330v-12q4 -47 20 -65z" />
    <glyph glyph-name="g" unicode="g" horiz-adv-x="851" 
d="M551 330q-9 -6 -23 -13q-131 -85 -344 -244.5t-225 -168.5q-15 -12 -29 -37q-56 -109 -96.5 -181.5t-108 -172.5t-128.5 -160q-110 -105 -195 -105h-6q-47 5 -47 47q0 30 20 70q58 117 184 248t248 221q82 61 125 152q172 338 176 393q-12 -2 -28 -14q-5 -3 -49 -32
t-63.5 -41t-64.5 -39.5t-74.5 -41.5t-68.5 -31.5t-72 -25t-61 -7.5q-4 0 -10.5 1.5t-9.5 1.5q-39 5 -39 30t32 66q56 80 145.5 165.5t156.5 92.5h16q83 0 104 -86q2 -2 2 -6q0 -10 -12 -13q-2 0 -5 -1t-5 -1q-22 2 -35.5 17.5t-21 30t-15.5 14.5q-56 0 -148 -82t-145 -162
q-1 -3 -5 -8.5t-6.5 -10t-2.5 -8.5q0 -10 14 -10q16 0 46.5 11.5t62 26t33.5 15.5q37 19 82.5 45.5t74.5 45t85.5 55.5t74.5 49q25 14 49 14q37 0 37 -28v-9q-13 -79 -184 -421q0 -1 4 -5q69 46 232.5 168t273.5 195q27 10 37 10q18 0 18 -12q0 -5 -6 -8zM-182 -221
q4 8 4 10v2h-4q-5 0 -13 -8q-41 -35 -102 -93t-133 -134.5t-122 -150.5t-50 -116q0 -14 12 -14q5 0 17 4q55 24 112 79.5t106.5 129t86 136t73.5 130.5q9 17 13 25z" />
    <glyph glyph-name="h" unicode="h" horiz-adv-x="649" 
d="M-68 297h-4q-4 0 -7 -1.5t-4.5 -4.5t-2 -5.5t-1.5 -6.5t-1 -5l-47 -176q27 33 74 96t86.5 108.5t91.5 90.5q30 27 65 27h6q19 -3 26 -9.5t7 -21.5v-8q-2 -19 -14.5 -58t-32 -91.5t-27.5 -77.5q-4 -20 -4 -25q0 -16 15 -16q11 0 32 12q111 58 326 199q27 18 45 18
q10 0 10 -8q0 -6 -6 -12q-7 -7 -16 -13q-240 -169 -345 -215q-51 -22 -79 -22h-4q-47 0 -47 34q0 15 2 23q16 63 80 227q-13 -2 -29 -18q-165 -165 -305 -422q-14 -25 -35 -25h-6q-23 0 -23 13q0 8 2 14q166 615 336 1122q50 166 109 230q20 20 49 20h8q39 -3 39 -41
q0 -15 -8 -51q-45 -185 -115 -379t-184 -452q-9 -21 -21 -39q-15 -31 -41 -31zM236 1219v2q-14 -13 -45 -90.5t-69.5 -192t-70.5 -214.5t-64.5 -204t-35.5 -114q48 61 166.5 402t118.5 411z" />
    <glyph glyph-name="i" unicode="i" 
d="M428 338q-33 -52 -130.5 -115.5t-174.5 -99.5q-71 -35 -137 -35q-45 0 -79 15.5t-34 52.5v6q8 93 66 184q11 14 36 14h5q38 -5 38 -24l-2 -6q-26 -12 -51.5 -65.5t-25.5 -96.5q0 -49 43 -49q2 0 7.5 1t8.5 1q79 13 204.5 86t180.5 135q12 12 27 12q11 0 14.5 -4t3.5 -12z
M51 502h-16q-13 0 -19 8q-6 6 -6 16q0 11 6 17q9 12 29 12q33 0 33 -29q0 -10 -6 -16q-6 -8 -21 -8z" />
    <glyph glyph-name="j" unicode="j" horiz-adv-x="434" 
d="M-838 -979q-20 -20 -47 -20q-69 0 -69 141q0 36 6 70q24 201 130.5 390t266.5 343q22 19 31 45q88 282 108 360q-9 -5 -23 -20t-16 -19q0 -3 3.5 -7.5t3.5 -6.5q0 -3 -5 -6q-25 -15 -51 -15q-16 3 -16 11q0 6 4 10q43 65 98 109q12 8 31 8q33 0 33 -27v-8q-3 -33 -12 -62
l-84 -274q12 4 26 18q217 174 361 265q17 12 36 12q23 0 23 -12q0 -5 -6 -11q-259 -191 -393 -311q-57 -46 -80 -74q-10 -13 -16.5 -28.5t-13 -39t-9.5 -32.5q-142 -411 -230 -641q-53 -135 -90 -168zM-891 -852l-2 -22q0 -36 12 -74q9 2 13 10q29 46 57 115q71 179 225 622
q0 2 1 6t1 5v6q-3 0 -14 -11q-123 -145 -203 -316t-90 -341zM-334 524h-16q-15 0 -19 8q-6 6 -6 17q0 10 6 16q7 13 29 13q19 0 29 -13q4 -8 4 -16q0 -9 -4 -17q-8 -8 -23 -8z" />
    <glyph glyph-name="k" unicode="k" horiz-adv-x="673" 
d="M-98 98q3 5 10 14.5t10 14.5q15 16 46.5 49.5t47.5 50.5q16 22 17 23q-134 -103 -223 -234q-6 -9 -17.5 -28.5t-17.5 -28.5q-13 -20 -41 -20q-21 0 -21 16q0 29 121.5 339t264.5 638.5t190 390.5q33 41 73 41q20 0 33.5 -13.5t14.5 -39.5v-13q0 -96 -48.5 -235.5
t-107.5 -261.5q0 -8 -34.5 -74.5t-84 -149.5t-114 -161t-113.5 -101q-2 -7 -14 -37.5t-29.5 -75t-28.5 -77.5q58 70 214.5 189.5t219.5 119.5q24 0 33 -12q10 -10 10 -23q0 -8 -4 -12l-8 -4q-3 0 -8.5 3.5t-9.5 4.5q-9 0 -13 -4q-144 -95 -295 -278q-5 -5 -10 -15l-4 -8
q10 -4 29 -4q92 0 285 87t247 150q16 19 27 19q1 0 3.5 -1t4.5 -1q16 -3 16 -12q0 -4 -6 -13q-43 -59 -149.5 -121.5t-225 -102.5t-198.5 -40q-57 0 -82 12q-16 8 -16 23q0 7 6 16zM258 1161q-38 -79 -81.5 -179t-71 -165t-90 -216t-89.5 -216q-1 -2 -2 -6.5t-2 -7.5
q14 0 62 55.5t110 153t120.5 211t99 248.5t40.5 247v4q0 19 -6 25q-31 -24 -90 -154z" />
    <glyph glyph-name="l" unicode="l" horiz-adv-x="536" 
d="M104 -84q-65 -37 -120 -37q-83 0 -86 92v6q0 93 73 326q-5 1 -11.5 2t-10.5 1.5t-8 2t-5.5 4t-1.5 6.5q0 10 5.5 18.5t15.5 8.5q15 2 24.5 10t13.5 16.5t9 24.5q72 211 175 460t185 368q33 43 50 54q18 11 39 11h4q38 -3 41 -41v-10q0 -28 -11 -65q-44 -198 -157 -401
t-262 -384q-30 -38 -67.5 -194.5t-37.5 -214.5q0 -23 2 -31q6 -35 29 -35q6 0 22 4q48 16 116 69t123.5 109t123.5 125t100 98q15 15 35 15q16 0 16 -10q0 -7 -4 -11t-11 -12t-11 -12q-36 -31 -116 -116t-156 -157.5t-126 -99.5zM96 512v-12q6 3 34 43.5t60 90t35 54.5
q77 127 139 273t76 262q-27 -9 -109 -176t-142 -309t-93 -226z" />
    <glyph glyph-name="m" unicode="m" horiz-adv-x="905" 
d="M891 319l-8 -8q-52 -50 -176 -141.5t-193 -132.5q-35 -21 -74 -21q-51 0 -51 37q0 3 4 19q8 23 49 113.5t73 175t32 124.5q0 15 -8 15q-7 0 -27 -13q-53 -39 -101.5 -84.5t-70 -69t-82.5 -91.5q-50 -58 -76 -84q-26 -23 -53 -23h-12q-25 6 -25 31t37 162q-4 -1 -7.5 -3.5
t-6.5 -6.5t-4 -5q-121 -154 -146 -176q-18 -18 -43 -18q-28 0 -28 24v2q3 33 27.5 114.5t41.5 117.5q7 14 29 14q5 0 33 -4q12 0 12 -12q0 -6 -2 -10q-7 -14 -29 -52t-37 -69.5t-22 -61.5v-4q0 -8 4 -8t22 18q16 21 64.5 91.5t85.5 109.5q14 17 41 17q33 0 33 -27v-6
q-3 -27 -35 -146l-10 -30q5 3 69.5 71t149.5 150t137 119q31 22 63 22q18 0 26 -6.5t9.5 -14t1.5 -24.5q-7 -43 -78 -218t-71 -235v-6q39 12 181.5 115t201.5 156q15 12 35 12q18 0 18 -10q0 -1 -4 -9z" />
    <glyph glyph-name="n" unicode="n" horiz-adv-x="741" 
d="M197 211q9 41 27 101t22 75q8 28 8 49q-29 -9 -90.5 -80t-128 -159.5t-76.5 -100.5q-2 -3 -12.5 -14.5t-15.5 -16.5t-15.5 -14.5t-18 -14t-17.5 -9t-19 -4.5h-6q-39 0 -39 36q0 50 42 168.5t70 155.5q11 14 39 14q22 0 37 -6q6 -3 6 -12q0 -10 -4 -10q-33 -35 -87 -156
t-54 -152q0 -8 2 -10h2q12 0 82.5 91.5t151.5 193.5t112 119q24 14 51 14q45 0 45 -41v-6q-2 -25 -28 -114t-33 -130q-4 -16 -4 -24q0 -9 4 -13h6q30 0 150.5 60t168.5 94q46 35 62 44t37 9q10 0 10 -8q0 -11 -12 -23q-102 -72 -301 -172q-49 -22 -74 -28t-72 -6
q-41 8 -41 43q0 18 13 57z" />
    <glyph glyph-name="o" unicode="o" horiz-adv-x="573" 
d="M182 520h15q47 -3 76.5 -29.5t29.5 -66.5v-12q-4 -25 -14.5 -48.5t-20 -37.5t-32.5 -45q18 0 126.5 22.5t141.5 38.5q12 6 28 6q15 0 15 -8q0 -23 -135 -61t-193 -46q-25 -3 -37 -18q-96 -101 -155 -129q-29 -16 -60 -16q-48 0 -51 41v4q0 48 45 125q-2 2 -18 10.5
t-28.5 22.5t-12.5 34q0 13 4 21q3 18 14 32q41 69 113 114.5t149 45.5zM-16 113q19 0 66 41t71 69h-19q-26 0 -84 8h-2q-3 0 -5 -1.5t-4 -4.5t-3 -4q-29 -58 -29 -88v-8q3 -12 9 -12zM160 274q82 91 82 154v10q-4 27 -23.5 41.5t-46.5 14.5q-23 0 -49 -13q-45 -19 -99.5 -68
t-54.5 -89q0 -19 19 -35q4 -4 8 -4q3 0 7 4t12.5 11t19.5 13q18 9 37 9q22 0 22 -9q0 -6 -8 -6q-5 0 -9.5 -1.5t-9 -4t-7.5 -4t-7.5 -6l-6 -6t-7 -8t-6.5 -7.5q31 -8 65 -8q16 0 52 4q8 4 10 8z" />
    <glyph glyph-name="p" unicode="p" horiz-adv-x="632" 
d="M451 309h-11q-6 2 -22 2q-76 0 -224.5 -54.5t-263.5 -106.5q-18 -11 -32 -11h-11q-17 0 -30 -20q-64 -114 -105 -213q-4 -7 -14 -49q-15 -72 -46.5 -218.5t-47.5 -218.5q0 -2 -1.5 -8.5t-2 -8.5t-2 -7t-2.5 -7t-2.5 -5.5t-3.5 -5t-4.5 -3.5t-5.5 -3t-7 -1h-8q-14 0 -20 6
t-7 23v18q0 88 32 221t68 222q28 76 70.5 248t42.5 225q0 23 -8 31v12q0 9 11 14.5t22 5.5q8 0 12 -4q12 -18 12 -53q0 -23 -5.5 -55t-11.5 -55.5t-15 -57t-11 -43.5q9 3 19 23q169 282 348 405q35 21 61 21q39 0 39 -31q0 -8 -2 -12q-13 -52 -73.5 -129.5t-116.5 -133.5
q-3 -4 -21 -22q2 0 4.5 -1t3.5 -1q9 0 21 8q236 82 328 82q57 0 57 -16v-3q-3 -10 -14 -10zM-86 197q174 138 272 315q-60 -36 -163.5 -157t-108.5 -158z" />
    <glyph glyph-name="q" unicode="q" horiz-adv-x="593" 
d="M6 -268q87 340 189 639q2 4 6 16q-20 -16 -90.5 -79.5t-112.5 -88.5q-30 -18 -66 -18q-45 0 -45 35q0 6 4 22q26 72 104.5 144.5t149.5 72.5q14 0 31.5 -4t20.5 -4q8 0 10 4q3 4 12.5 14.5t12.5 13t9.5 7.5t12.5 6.5t14 1.5q13 0 21 -2q18 -3 18 -18q0 -18 -14 -50
q-102 -296 -156 -483q0 -2 -1 -6.5t-1 -7.5v-4q8 3 19 20q194 257 364 352q19 11 39 11q23 0 23 -11q0 -5 -15 -14q-131 -80 -263 -242t-216 -321q-21 -39 -47 -146q-21 -83 -82 -337q0 -7 -4 -15q-9 -31 -39 -31q-3 0 -18 5q-15 8 -15 30v19q0 12 1 25.5t2.5 29.5t2.5 25
q26 177 105 348q7 16 14 41zM-53 233q41 27 85.5 66t69.5 64t74 77q-7 11 -22 11q-18 0 -52 -17q-98 -56 -155 -176q0 -2 -1 -6t-1 -6q0 -9 2 -13z" />
    <glyph glyph-name="r" unicode="r" horiz-adv-x="593" 
d="M-8 -6h-4q-49 3 -49 41q0 26 18 67l92 209q10 17 10 23q0 12 -20 12q-15 -2 -88 -21.5t-103 -19.5q-12 0 -36 4q-45 10 -45 56q0 38 30 100q20 44 51 95t73.5 108.5t92.5 95t95 37.5q59 0 59 -49v-11q-8 -65 -69.5 -167t-123.5 -179q-1 -2 -5 -5.5t-8.5 -9.5t-8.5 -15
q99 16 119 16q67 0 67 -31q0 -8 -2 -10l-119 -252q-12 -36 -12 -45q0 -12 10 -12q50 0 212.5 105t250.5 202q8 8 29 8q20 0 20 -12q0 -10 -14 -21q-122 -109 -287.5 -214t-234.5 -105zM-113 373q33 18 86.5 92.5t95.5 159t48 129.5q-5 12 -21 12q-18 0 -39 -16
q-132 -100 -213 -328q-10 -20 -10 -39q0 -29 31 -29q8 0 12.5 8.5t9.5 10.5z" />
    <glyph glyph-name="s" unicode="s" horiz-adv-x="602" 
d="M143 90q-8 -4 -8 -10q0 -4 4 -12q15 -30 15 -54q0 -35 -29 -67q-33 -42 -118 -81.5t-136 -39.5q-23 0 -43.5 9t-20.5 28q0 4 3 10q14 57 235 215q14 8 14 14q0 5 -16 21q-45 50 -53 59q-84 88 -84 162q0 65 61.5 116.5t128.5 51.5q26 0 47 -16q15 -8 15 -17v-2
q0 -8 -8 -8q-1 0 -3.5 1t-3.5 1h-14q-62 0 -109 -42.5t-47 -100.5q0 -33 17 -66q12 -22 55 -77.5t55 -55.5q9 0 17 8q191 116 395 201q2 2 8 2q8 0 14.5 -5t6.5 -11q0 -8 -9 -11q-83 -41 -147 -77.5t-136 -81t-106 -64.5zM84 -8q10 17 10 35q0 4 -4 20h-4q-4 0 -16 -8
q-53 -39 -82 -64q-81 -67 -103 -92q-8 -8 -8 -16v-4q109 32 178 90q21 21 29 39z" />
    <glyph glyph-name="t" unicode="t" horiz-adv-x="636" 
d="M-520 647q53 3 161.5 10.5t165.5 10.5q25 3 33 24q42 110 109 266t100 203q17 23 47 23q12 0 20.5 -6.5t8.5 -16.5v-4q-3 -17 -10 -35q-67 -216 -150 -413q-10 -25 -10 -33q324 18 543 18q172 0 235 -18q10 -3 10 -10q0 -11 -20 -11q-10 0 -16 2q-70 11 -156 11
q-47 0 -137 -4q-100 0 -236 -7q-38 -1 -112.5 -5t-112.5 -5q-8 -1 -12.5 -4.5t-6.5 -6.5t-6 -11q-19 -39 -67 -140.5t-62 -130.5q-20 -38 -39 -90l-15 -71q-9 -59 -9 -103q0 -19 2.5 -39t9 -42.5t20.5 -37t33 -14.5q13 0 31 6q14 4 90 41q223 150 434 336q13 10 27 10
q23 0 23 -14q0 -13 -35 -39q-235 -204 -439 -330q-71 -35 -118 -39h-13q-47 0 -75 23.5t-36.5 56t-8.5 78.5q0 45 6 92t22.5 110t25.5 95t36.5 116.5t33.5 104.5q9 18 9 27v6h-17q-23 0 -73 -4q-38 -2 -112.5 -5t-111.5 -5h-8q-41 0 -41 12q0 3 3.5 6.5t6.5 3.5q13 0 19 2z
M-6 932q-64 -141 -103 -254q15 13 56 114.5t47 139.5z" />
    <glyph glyph-name="u" unicode="u" horiz-adv-x="622" 
d="M35 379q-30 -26 -53 -122t-27 -157q0 -21 6 -39q2 -2 4 -2q20 0 76 74q28 34 63.5 91t79.5 133t56 96q18 30 45 30q2 0 6.5 -1t7.5 -1q23 -6 23 -18q0 -2 -1.5 -6t-1.5 -6q-88 -215 -88 -316q0 -45 25 -45h4q38 7 143.5 98t163.5 156q8 12 19 12h14q10 0 12 -6q2 -2 2 -6
q0 -3 -2 -5t-5.5 -5t-4.5 -4q-12 -11 -70 -68t-101.5 -96.5t-99 -76t-89.5 -36.5h-4q-60 5 -60 74q0 16 4 53t4 45v8q-8 -5 -35.5 -43.5t-66 -84.5t-74.5 -70q-24 -15 -51 -15q-10 0 -22 3q-39 5 -39 71q0 29 2 39q35 264 120 264q21 0 21 -10q0 -2 -6 -8z" />
    <glyph glyph-name="v" unicode="v" horiz-adv-x="526" 
d="M483 340q9 6 25 6q13 0 16 -8l2 -4q0 -3 -2 -5t-6 -5t-6 -5l-12 -6q-150 -75 -248 -108q-41 -12 -64 -12q-14 0 -30 4t-19 4q-10 0 -20 -13q-107 -131 -158 -133h-14q-37 0 -37 39v6q2 33 8 71.5t15.5 85.5t13.5 71q3 20 24 20q27 0 27 -22v-7q-4 -23 -14 -70.5
t-16.5 -86.5t-8.5 -70q5 0 9 2t8.5 5.5t5.5 4.5q23 21 67.5 71t44.5 65q0 2 -2 11.5t-2 18.5q0 63 53 170t101 146q25 18 55 18q45 0 45 -35l-2 -10q-6 -41 -62.5 -133.5t-105.5 -163.5q-1 -1 -7.5 -7t-6.5 -11l4 -8q8 -13 20 -13l13 2q50 10 138 46.5t148 68.5zM281 547
q-34 -30 -73.5 -103t-39.5 -108q5 8 18 29.5t18.5 30.5t17 28t17.5 31t14.5 28.5t15 32t12.5 31.5z" />
    <glyph glyph-name="w" unicode="w" horiz-adv-x="675" 
d="M12 78q0 15 4 42.5t4 33.5q-1 -1 -18.5 -18t-23.5 -21.5t-20.5 -15.5t-26 -15t-23.5 -4q-26 0 -38 10.5t-13 36.5v6q0 39 16.5 96t36.5 95q15 22 29 22h4q16 0 16 -10q0 -6 -2 -10q-20 -39 -35.5 -96t-15.5 -99v-6q3 -12 6 -12q17 0 58.5 63.5t70.5 118t47 90.5
q15 21 33 21q2 0 6 -1.5t6 -1.5q14 -6 14 -16q0 -13 -14 -45q-61 -157 -61 -227q0 -37 20 -37q28 0 97 84.5t69 109.5q0 3 -3 19t-3 33q0 43 26.5 120.5t69 142t78.5 64.5h8q33 -3 33 -26q0 -40 -47 -152.5t-80 -173.5q-8 -13 -8 -27q0 -13 19 -22.5t34 -9.5q12 0 18 2
q60 14 104.5 34.5t62.5 36.5t33.5 27.5t27.5 11.5h4q14 -3 14 -10q0 -14 -26 -33q-46 -39 -114 -69.5t-128 -30.5q-40 0 -68 14q-4 2 -10 2q-7 0 -16 -12q-24 -37 -40.5 -59.5t-47 -58t-62 -54t-63.5 -18.5q-57 0 -62 55zM375 512q-34 -49 -43 -106q28 52 43 106z" />
    <glyph glyph-name="x" unicode="x" horiz-adv-x="577" 
d="M436 346q2 -2 2 -6q0 -7 -14 -16q-64 -68 -231.5 -187t-229.5 -119q-11 0 -21.5 3.5t-18.5 7t-16 12t-13 14t-11.5 18t-9.5 18.5t-8 21.5t-6.5 20.5t-6.5 22.5t-6 20.5q-6 -1 -15 -6.5t-13 -7.5q-16 -10 -79 -45.5t-73 -38.5q-2 0 -7 -1t-7 -1q-9 0 -14 8q-3 3 -3 6
q0 4 2.5 6t7.5 4.5l7 3.5l153 99q18 11 23.5 17t5.5 16l-2 24q-15 76 -18 154v2q0 30 24 30q11 0 20 -5.5t9 -14.5v-4q-2 -6 -2 -19q0 -66 22 -143q4 1 27 12q39 26 110.5 72.5t129.5 85t108 74.5q13 10 33 10q13 0 18 -8v-6q0 -4 -2.5 -7t-6.5 -6t-5 -4q-63 -47 -381 -260
q-20 -11 -20 -20q0 -6 6 -21q6 -23 10.5 -37t14.5 -37.5t24 -36t31 -12.5q4 0 20 4q54 22 196 127t195 154q10 10 25 10q11 0 16 -8z" />
    <glyph glyph-name="y" unicode="y" horiz-adv-x="710" 
d="M-14 123h8q41 0 97 42.5t100.5 93.5t98 114.5t75.5 85.5q19 16 47 16h12q27 -5 27 -29q0 -6 -11 -45q-26 -80 -112 -282h4q4 0 12 8q61 53 171.5 133t143.5 80q19 0 19 -10q0 -5 -6 -8q-15 -12 -33 -21q-165 -97 -352 -289q-14 -12 -25 -37q-4 -7 -24 -50t-28.5 -60
t-29 -60t-33 -66.5t-32.5 -62.5t-35.5 -64.5t-34.5 -56.5t-36 -55t-34 -43q-24 -30 -43.5 -44.5t-44.5 -14.5h-12q-31 5 -31 39q0 11 11 49q39 116 136.5 253.5t201.5 242.5q19 19 36 53q86 198 129 319q7 14 7 27q0 6 -3 12q-146 -169 -206 -223q-85 -74 -164 -74h-12
q-93 5 -93 74q0 30 22.5 89.5t22.5 74.5q-1 4 -6.5 9t-5.5 11v4q5 17 55 17h9q24 -3 24 -21q0 -15 -18 -51q-37 -93 -37 -135t33 -45zM-96 -549v-6q48 43 123 171.5t110 227.5q-66 -82 -149.5 -211.5t-83.5 -181.5z" />
    <glyph glyph-name="z" unicode="z" horiz-adv-x="628" 
d="M254 369q18 6 31 6q22 0 22 -8t-18 -17q-88 -41 -167 -98t-181 -143q-33 -29 -48 -43.5t-35 -42t-32 -58.5q-27 -78 -127 -228.5t-216 -276.5t-171 -126q-41 0 -41 33q0 11 2 17q38 123 194.5 309t303.5 323q20 12 20 29l-2 6q-2 43 -61 43h-17q-69 0 -137 -12
q-2 0 -13.5 -1t-19.5 -1q-25 0 -30 10v2q0 10 40 33q6 4 57 37.5t80 53.5t66 49.5t51 49.5q13 17 13 31h-2q-22 0 -74 -19t-57 -20q-16 -4 -23 -4q-17 0 -28 7t-11 16t12 18q29 14 82.5 25.5t94.5 11.5q28 0 43 -6q26 -8 26 -27q0 -23 -43 -61q-39 -34 -131.5 -97
t-103.5 -71q15 1 58.5 4.5t66.5 3.5q19 0 51 -4q23 -4 37.5 -13t20.5 -15.5t9 -6.5q5 0 11 6q193 174 397 275zM-641 -584v-6q223 223 369 488q-4 0 -8 -1.5t-6 -3.5t-5.5 -5t-5.5 -5q-228 -243 -334 -438q0 -1 -5 -11t-5 -18z" />
    <glyph glyph-name="braceleft" unicode="{" horiz-adv-x="735" 
d="M664 1165q-4 2 -11 2q-17 0 -37 -24q-23 -20 -38 -72q-13 -42 -39 -156q-39 -162 -168 -282q-38 -35 -152 -131q-4 -3 -12.5 -11t-13.5 -12q1 -1 2 -3t2 -3q23 0 69 4q27 2 80 2q2 0 6.5 -1t7.5 -1q33 -9 33 -28q0 -14 -8 -27q-6 -12 -15 -24t-20.5 -27t-17.5 -23
q-97 -114 -177.5 -244.5t-91.5 -232.5v-4q0 -34 20.5 -54t55.5 -20q27 0 54 10q50 13 100 54q23 14 33 14q17 0 20 -10v-2q0 -6 -6 -9q-40 -37 -96.5 -60t-110.5 -23q-58 0 -95.5 24.5t-37.5 79.5q0 64 60 173t121.5 191t117.5 146q29 33 39 53l4 12q0 9 -16 9h-17
q-21 0 -71 -4q-12 0 -34 -1t-32 -1q-9 0 -25 4q-14 6 -14 16q0 8 6 14q11 15 25 23q64 56 100 84q95 78 148 160t77 196q13 69 29 127q43 123 141 123h13q63 -6 63 -70v-53q-3 -18 -22 -18q-23 0 -23 18q-2 14 -2 43q0 2 -0.5 8.5t-1 9t-1.5 8t-2.5 8t-4 6.5t-6 6t-8.5 3z
" />
    <glyph glyph-name="bar" unicode="|" horiz-adv-x="641" 
d="M752 1303q-20 -78 -66 -234q-21 -72 -64 -218t-65 -218q-124 -404 -244 -864l-71 32q142 599 325 1170l111 368z" />
    <glyph glyph-name="braceright" unicode="}" horiz-adv-x="686" 
d="M629 1196q57 -18 57 -49q0 -18 -18 -45q-17 -28 -50 -76t-45 -65q-67 -98 -100 -160q-49 -83 -49 -146q0 -53 61 -77q8 -3 25 -8.5t25 -8.5q10 0 10 -8l-2 -2q0 -4 -8 -8q-2 -1 -8 -2t-9 -2q-81 -15 -150 -79t-69 -143q0 -17 4 -49q2 -10 11.5 -54.5t13.5 -68.5l2 -16
q0 -47 -33 -80q-40 -46 -113 -74q-21 -9 -45 -16.5t-53.5 -16.5t-46.5 -14q-1 0 -3 -1t-3 -1q-3 0 -9.5 -1t-9.5 -1q-12 0 -14 10v5q0 4 3 6.5t7 3.5t9.5 2t7.5 2q92 33 96 35q54 16 92 49q49 37 49 94q0 17 -2 25q-5 33 -22 110q-4 28 -4 45q0 73 58 138t132 96q2 1 10 4.5
t15 5.5q-7 4 -19.5 10.5t-17.5 9.5q-47 35 -47 84q0 4 1 11.5t1 11.5q9 51 47 125q43 78 139 211q7 10 22 30t25.5 35.5t18.5 30.5q12 21 12 33q0 31 -66 31q-19 0 -78 -13q-10 -5 -10 -6q-3 -16 -16 -16h-25q-30 0 -30 12q0 4 4 8q2 2 14 8q73 31 141 31q19 0 51 -4
q4 -2 11 -2z" />
    <glyph glyph-name="asciitilde" unicode="~" horiz-adv-x="389" 
d="M362 590h11q10 0 14 -6q2 -2 2 -6q0 -7 -6 -13q-5 -13 -16 -24q-52 -46 -119 -49q-34 2 -68 15.5t-51 37.5q-8 8 -16 8t-17 -6q-4 -3 -16.5 -11t-19.5 -16.5t-9 -21.5q0 -7 -10 -12t-21 -5q-8 0 -16 4q-4 4 -4 9q0 6 2 8q19 31 50 52t65 21q33 0 61 -22q1 -1 4 -3t4 -3
q39 -25 72 -25q52 0 88 51q7 15 16 17z" />
    <glyph glyph-name="exclamdown" unicode="&#xa1;" 
d="M309 657q23 0 23 -14l-2 -10l-269 -598q-10 -29 -32 -29q-29 0 -29 21q0 12 5.5 29t15.5 40t14 33q34 75 100 212.5l78 162.5q37 83 66 133q10 20 30 20zM414 973h10q27 0 27 -12q-2 -21 -27 -21q-1 0 -17 -3t-24 -3l-12 2q-19 5 -19 14t17 15z" />
    <glyph glyph-name="cent" unicode="&#xa2;" horiz-adv-x="669" 
d="M455 397q-3 -5 -9.5 -14t-9.5 -14q-11 -11 -20 -13q-12 -15 -23 -26q-34 -38 -101.5 -115t-101.5 -115q0 -7 4 -18t9 -14q3 -7 12 -7h6q2 0 4 2q75 20 231 116.5t203 150.5q5 14 29 14q14 0 17 -8v-4q0 -1 -3 -4q-52 -70 -178.5 -151t-232.5 -126q-14 -7 -35 -10
q-24 -6 -47 -6q-26 0 -49 10q-7 0 -13 6l-49 -57q-16 -19 -35 -35l-18 -18q-15 -15 -33 -15q-8 0 -10 2q-10 0 -10 11q0 4 2 6q49 49 131 147v17q8 50 32.5 112t60.5 120.5t85.5 98t99.5 39.5q17 0 35 -6q12 -3 19 -10q132 141 276 270q2 2 2 4q3 2 8.5 6.5t8.5 6.5
q6 6 18 6h6h8q6 -6 7 -8v-3q0 -3 -3 -6l-6 -6q-180 -171 -327 -336zM395 395q13 26 15 41l4 13q-34 -3 -68.5 -32.5t-61 -71.5t-45.5 -82t-30 -73q62 71 186 205z" />
    <glyph glyph-name="sterling" unicode="&#xa3;" horiz-adv-x="905" 
d="M887 508q15 0 18 -10v-2q0 -10 -18 -15q-68 -14 -205 -14h-131q-10 0 -13.5 -4t-9.5 -25q-47 -167 -172 -274q-7 -7 -12 -19h82q51 5 121 5h121q108 0 161 12q6 2 19 2q20 0 20 -8v-2q-2 -7 -6.5 -10.5t-15.5 -6t-12 -2.5q-18 -4 -58 -8q-52 -3 -149 -4.5t-135 -3.5
q-61 0 -179 -4q-18 0 -34 -13q-45 -30 -107.5 -54.5t-108.5 -24.5q-8 0 -28 4q-31 4 -35 22v4q0 13 20 33q32 25 95 38t118 15q40 0 70 27q128 111 170 285q4 4 4 10l-2 4q-2 2 -8 2h-12q-58 0 -172 4q-3 0 -9 1t-8 1q-21 0 -41 -10q-6 -6 -18 -6q-9 0 -21 4q-16 6 -16 18
q0 13 14 17q12 6 41 6q20 2 64 2q41 0 61 -2h113q17 0 20 2.5t6 19.5q4 26 12.5 78t12.5 78q21 167 133 285q70 77 146 77q41 -2 68 -27.5t28 -66.5q0 -38 -11 -86.5t-36 -48.5q-21 0 -21 18v7q8 53 10 84q0 27 -10.5 55.5t-32.5 28.5q-12 0 -32 -13q-63 -40 -111 -126.5
t-65 -168.5q-4 -22 -14.5 -84t-16.5 -96q0 -4 -1 -8l-1 -4q0 -6 3.5 -7t14.5 -1h29q22 0 64 -1t63 -1q79 0 135 10q10 2 31 2zM53 47q75 7 162 55h-10q-52 0 -92.5 -14.5t-59.5 -40.5z" />
    <glyph glyph-name="currency" unicode="&#xa4;" horiz-adv-x="487" 
d="M260 330q6 27 0 55q-10 10 -10 21q-8 10 -27 18q-14 -7 -33 -29q-54 -54 -59 -108q0 -15 6 -27q9 -16 35 -27q33 7 55 35q10 14 13 15q7 12 20 47zM51 283q0 67 49 133l-20 20q-3 2 -7 5.5t-7 6t-5 3.5q-13 10 -16 28q-3 17 8 31q10 14 27 14q19 0 31 -6q4 -4 19.5 -17.5
t25.5 -23.5q40 29 77 29q5 0 5 -2q26 -5 55 -27q26 26 41 35q8 8 20 8q26 0 35 -16q11 -14 8 -31t-16 -27q-1 -1 -21 -16q-14 -14 -22 -20q12 -46 0 -101q-4 -20 -21 -53q19 -15 45 -45q11 -19 9 -31q0 -13 -15 -28q-12 -9 -24 -9q-18 0 -33 15q-1 2 -31 32q-31 -31 -55 -36
q-9 -2 -20.5 -5t-14.5 -4q-14 0 -20 2q-10 3 -23 11q-9 3 -14 8q-12 7 -29 20q-28 -24 -53 -24q-15 0 -25 10q-14 14 -8 41q3 26 25 51q8 11 20 19z" />
    <glyph glyph-name="yen" unicode="&#xa5;" horiz-adv-x="931" 
d="M911 932q17 -4 19 -12q0 -1 1 -2.5t1 -2.5q0 -4 -12 -12l-19 -12q-44 -27 -190 -127q-13 -4 -13 -12q16 -6 29 -9q11 -3 29 -11.5t18 -14.5l-2 -4q-3 -11 -12 -11q-2 0 -6 1.5t-6 1.5q-3 0 -5.5 1t-6 2.5t-5.5 2.5q-6 5 -14.5 8t-14 4.5t-16 3t-14.5 2.5h-4
q-14 0 -27 -10q-14 -8 -61 -37t-74 -45q-104 -63 -176 -74q-15 -4 -21 -12q-28 -44 -43 -80q-2 -4 -2 -8t15 -8q131 -11 213 -35q20 -8 32 -14q4 -4 4 -7v-2q0 -4 -8 -8q-2 0 -5 -1t-5 -1q-6 0 -14 4q-19 8 -43 14t-40 8t-45.5 5.5t-41.5 5.5q-10 2 -30 4t-22 2h-14
q-7 0 -10.5 -3.5t-9.5 -16.5q-17 -47 -49.5 -133.5t-38.5 -102.5q-22 -63 -58 -147q-29 -68 -61 -72q-2 0 -6.5 -1t-6.5 -1q-16 0 -16 12q0 3 5.5 8.5l6.5 6.5q20 23 31 59q3 6 82 242l43 135q4 16 4 18q0 7 -24 10q-54 8 -129 25q-1 0 -6.5 1t-8 2t-5.5 4t-3 7v2
q2 11 20 11h7q18 -3 54 -9.5t54 -9.5q24 -8 39 -8q2 0 6 1t6 1q7 2 11.5 9t7.5 18t6 16q2 3 13 22.5t18 28.5q6 6 6 13q0 2 -4 10q-21 24 -21 65v74q0 10 -12 10h-21q-19 0 -40.5 1t-48 2.5t-40.5 2.5q-4 0 -24 5q-8 0 -8 8t8 8q10 2 31 2h137q17 0 19.5 2.5t4.5 17.5
q5 32 10 92t7 74q4 25 24 25q9 0 15 -6t6 -15v-8q0 -1 -6 -112q-4 -46 -6 -66q4 -4 10 -4h6q35 -1 105 -2t106 -2h8q13 0 41 12q160 86 244 123q57 25 69 29q14 6 43 6zM285 612q47 39 190 119q0 1 -1 3t-1 3h-141q-5 0 -15.5 1t-15.5 1q-14 0 -22 -8q-9 -12 -9 -31
q0 -5 1 -15t1 -15v-13q0 -27 13 -45zM365 604q15 6 31 13.5t28 13t31 16t27 15t30 18t26.5 16t30 18.5t27.5 17q-6 4 -16 4q-12 0 -21 -6q-140 -81 -170 -102q-19 -12 -24 -23zM618 762h7q29 0 65 39q-11 -6 -34.5 -19t-37.5 -20z" />
    <glyph glyph-name="brokenbar" unicode="&#xa6;" horiz-adv-x="641" 
d="M477 365q-27 -90 -57 -199q-47 -168 -107 -397l-71 32q83 344 155 607zM481 694q50 169 86 277l111 368l74 -36q-20 -78 -66 -234q-39 -135 -121 -405z" />
    <glyph glyph-name="dieresis" unicode="&#xa8;" horiz-adv-x="243" 
d="M139 926q0 24 18 38.5t42 14.5q21 0 39 -14q8 -5 8 -15q0 -2 -4 -10q-11 -39 -60 -39h-10q-33 3 -33 25zM0 926q0 24 17.5 38.5t41.5 14.5q21 0 39 -14q8 -5 8 -15q0 -2 -4 -10q-11 -39 -59 -39h-10q-33 3 -33 25z" />
    <glyph glyph-name="copyright" unicode="&#xa9;" horiz-adv-x="751" 
d="M526 360q-36 -59 -88 -87.5t-108 -28.5q-83 0 -129.5 57.5t-10.5 142.5q26 59 76 89t101 30q43 0 70.5 -18.5t27.5 -52.5q0 -10 -6.5 -15.5t-14.5 -5.5q-22 0 -22 21q0 61 -47 61q-34 0 -79.5 -35t-70.5 -80q-15 -28 -18.5 -55.5t5.5 -52.5t37 -41.5t73 -20.5
q56 0 108 30t68 81q6 14 14 14t13 -11.5t1 -21.5zM639 276q-47 -97 -135 -151.5t-195 -54.5q-25 0 -37 2q-140 13 -211 106.5t-59 233.5q14 144 114 241t238 97q5 0 16.5 -1t16.5 -1q83 -8 149.5 -55t99 -114t37.5 -147.5t-34 -155.5zM45 408q-11 -124 49 -214t178 -102
q5 0 14.5 -1t14.5 -1q99 0 187 53t130 140q25 51 28.5 111t-15 116t-51 104t-83 79t-108.5 36q-5 0 -14.5 1t-14.5 1q-121 0 -211 -96.5t-104 -226.5z" />
    <glyph glyph-name="ordfeminine" unicode="&#xaa;" horiz-adv-x="526" 
d="M453 940q-8 -2 -23 -2q-65 0 -65 53q0 40 20 84q7 18 10 29l2 2q2 2 2 6q0 1 -6 4q-2 2 -8 2q-10 0 -14 -4q-7 -4 -13 -12q-17 -14 -57 -51.5t-55 -51.5q-83 -73 -119 -96q-25 -14 -59 -14q-16 0 -25 6q-11 3 -14 18q0 97 76 206.5t169 189.5q27 18 58 18q33 0 49 -22
q21 -40 27 -88q12 12 36 28q9 7 33 10h6q19 0 31 -4q8 -3 8 -12q0 -2 -4 -14q-2 -2 -2 -4q-57 -105 -84 -217l-2 -9q0 -32 19 -32q6 0 10 2q1 0 4 1t4 1zM324 1290q-195 -185 -218 -309q-12 -49 -12 -59v-2q17 0 49 32q47 47 74 76q49 52 92 92q43 34 43 72q0 9 -4 25
q-1 3 -2 9t-2 9q-3 30 -20 55z" />
    <glyph glyph-name="registered" unicode="&#xae;" horiz-adv-x="751" 
d="M387 748q67 -7 123.5 -38.5t92.5 -80t55 -107t13.5 -123.5t-34.5 -125q-47 -96 -135 -150t-195 -54q-25 0 -37 2q-138 13 -209 106.5t-59 233.5q14 143 114 240.5t238 97.5q5 0 16.5 -1t16.5 -1zM618 283q25 51 28 111t-15.5 116t-51.5 104t-83.5 79t-108.5 36
q-4 0 -12.5 1t-12.5 1q-123 0 -214 -96.5t-103 -226.5q-11 -125 48 -214.5t179 -101.5q10 -2 33 -2q97 0 183.5 53.5t129.5 139.5zM297 373q-3 -3 12.5 -13.5t40.5 -24t50.5 -27t48 -25t28.5 -15.5q9 -6 2 -16q-2 -4 -8 -4t-8 2q-24 18 -89.5 52.5t-94.5 59.5q-15 12 4 35
q10 11 50 47t68.5 66t26.5 43q0 12 -35 12q-42 0 -85 -29.5t-68 -95.5q-3 -28 -12 -94t-11 -102q0 -6 -2 -8q-7 -17 -12 -17q-7 0 -10 17v6q-3 6 -3 18q-3 100 27 184q4 76 2 125q0 11 12 15q5 0 9 -4t4 -9q3 -36 0 -65q26 41 79 65.5t99 24.5q54 0 57 -29q4 -22 -31.5 -59
t-87 -79.5t-63.5 -55.5z" />
    <glyph glyph-name="macron" unicode="&#xaf;" horiz-adv-x="456" 
d="M422 1098q4 -4 4 -6v-2q0 -9 -6 -9q-4 -2 -12 -2h-7q-14 2 -41 2h-73q-13 0 -19 -2q-36 -8 -82 -8q-13 0 -35.5 1t-33.5 1q-70 4 -107 8q-2 0 -6 0.5t-7 1.5l-6 2t-4.5 3.5t-2.5 5.5q0 5 3 8t6 3.5l9 1.5t8 1q29 4 80 4h64q129 0 237 -6q26 -5 31 -8z" />
    <glyph glyph-name="degree" unicode="&#xb0;" horiz-adv-x="309" 
d="M121 1219q53 0 111.5 -36t58.5 -87q0 -19 -8 -35q-20 -47 -70 -80t-102 -33h-7q-41 0 -68.5 20t-33.5 54q-2 8 -2 22q0 46 30.5 78.5t75.5 32.5q13 0 30.5 -4.5t17.5 -13.5v-4q-3 -9 -17 -9l-7.5 2.5t-8.5 2.5t-8 1q-5 0 -13 -4q-21 -17 -30 -36q-11 -26 -11 -43
q0 -32 19 -54q16 -16 33 -16q30 0 65.5 29t50.5 59q9 23 9 31q0 39 -41.5 70.5t-81.5 31.5h-25q-8 0 -8 6v2q0 8 8 8q13 5 33 5z" />
    <glyph glyph-name="plusminus" unicode="&#xb1;" horiz-adv-x="608" 
d="M600 391q8 -4 8 -12q-3 -6 -12 -6h-27q-36 8 -101.5 15.5t-94.5 12.5l-43 7q-2 0 -4.5 1t-3.5 1q-16 0 -25 -19q-72 -133 -88 -158q-12 -24 -33 -24q-2 0 -5 1t-5 1q-16 3 -16 16q0 6 6 15q9 14 10 16q42 97 72 158q-2 4 -5 6t-8 3t-6 1q-124 14 -162 14h-39
q-15 0 -18 11v2q0 20 88 20q99 0 148 -16q2 0 4.5 -1t3.5 -1q14 0 24 20q33 57 72 133q14 25 43 25h6q25 -3 25 -15q0 -6 -6 -18q-20 -41 -66 -127q-12 -24 -12 -31q28 -8 88 -16q32 -7 145 -25q14 -2 37 -10zM535 45q4 -4 4 -8v-2q0 -8 -9 -8q-8 -4 -14 -4h-6q-16 2 -49 2
l-84 2q-15 0 -23 -4q-50 -9 -96 -9q-117 0 -205 13q-2 0 -9 1t-10 1.5t-6.5 3.5t-4.5 8q0 5 2 8t5.5 4t6.5 2t8.5 1.5t7.5 0.5q66 4 94 4h74q151 0 277 -6q4 -1 17 -4t20 -6z" />
    <glyph glyph-name="twosuperior" unicode="&#xb2;" horiz-adv-x="573" 
d="M526 1655q29 -3 29 -35q0 -11 -10 -41q-32 -70 -100.5 -168.5t-113.5 -155.5t-124 -153q-1 -2 -4.5 -7t-3.5 -10q67 13 94 13h12q97 0 170 -37q19 -8 40.5 -26.5t21.5 -33.5q0 -8 -15 -8q-12 0 -20 8q-27 36 -83.5 55t-109.5 19q-67 0 -141 -33q-16 -5 -29 -22
q-9 -9 -25 -25.5t-29 -30t-26 -24.5q-20 -16 -36 -16q-23 0 -23 12q0 18 29 47q28 32 65 55q33 18 112 119t134.5 180t99.5 146q42 60 56 90q12 27 14 43v6q0 10 -6 10l-8 -4q-6 -3 -18.5 -9t-18.5 -9q-74 -46 -174 -127t-129 -131q-9 -22 -9 -23q0 -19 29 -22q6 -2 14 -2
q11 0 31 4q3 0 9.5 1t9.5 1q6 0 6 -4v-4q0 -9 -15 -9h-8q-24 -4 -35 -4q-20 0 -38 6q-35 9 -35 35q0 7 8 27q10 15 35 45q124 124 274 223q21 12 43 23q13 8 35 8q3 0 8 -1t8 -1z" />
    <glyph glyph-name="threesuperior" unicode="&#xb3;" horiz-adv-x="663" 
d="M621 1749q32 -3 32 -29q0 -22 -24 -51q-14 -24 -62 -76q-126 -134 -313 -295q-8 -6 -18 -16v-4q5 0 30 10q130 33 189 33h8q27 0 57 -10q33 -14 33 -43q0 -53 -105 -138t-227 -146.5t-174 -61.5h-8q-31 0 -37 16q-2 4 -2 10t16 27q71 71 279 162q59 27 117 57q12 8 22 8
q3 0 15 -4q1 0 4 -1t4 -1q5 0 8 6q3 5 9.5 12.5t11 14.5t8.5 14q6 12 6 25q0 23 -37 26h-14q-31 0 -66 -6q-85 -16 -207 -65q-22 -9 -33 -9l-8 3q-14 0 -16 8q-2 0 -2 4q0 5 10 10q5 5 15.5 14.5t15.5 14.5q150 121 334 301q59 59 88 102q18 23 24 53q-59 0 -250 -132
t-219 -185h70q12 0 12 -6v-2q0 -8 -10 -8q-2 0 -7 1t-7 1q-5 -1 -66 -7q-15 0 -23 5q-10 3 -10 12q0 4 2 8q15 24 35 41q183 165 373 264q38 17 63 29q36 6 39 6q11 0 15 -2zM57 952q49 3 194 88t177 129l-4 2q-28 -15 -91.5 -45.5t-96.5 -48.5q-33 -15 -101.5 -60
t-77.5 -65z" />
    <glyph glyph-name="acute" unicode="&#xb4;" horiz-adv-x="243" 
d="M207 1020q37 0 37 -14q0 -7 -8 -11q-2 -2 -7 -2q-13 0 -26.5 -5t-20.5 -9.5t-22.5 -16t-20.5 -14.5q-44 -30 -96 -76q-12 -12 -27 -12h-6q-10 3 -10 10q0 5 2 9t10 12q123 129 195 129z" />
    <glyph glyph-name="mu" unicode="&#xb5;" horiz-adv-x="772" 
d="M774 1442q13 -3 19 -12q7 -10 4 -21q-2 -26 -35 -129v-8l-82 -428q-2 -9 -10 -17q-12 -6 -23 -6q-11 3 -18 13t-4 20l28 150q-117 -236 -235 -236q-33 0 -57 20.5t-36 54.5t-17 63t-7 61q-138 -598 -242 -932q-9 -19 -26 -19q-6 0 -10 2q-12 4 -15 15q-6 9 -2 20
q76 231 141 502q47 196 119 512q44 207 78 344q1 3 3 10.5t3 10.5l4 10l4 4q6 6 15 6q2 2 6 2q11 -6 16 -10t6 -4q0 -35 -2 -41q0 -1 -1 -2t-1 -2q-27 -119 -37 -219q-10 -92 -6 -205q1 -15 4.5 -36t10 -48t19 -45.5t28.5 -18.5q54 3 112 78.5t101.5 179.5t73.5 194.5
t40 143.5q0 12 11 19q8 4 20 4z" />
    <glyph glyph-name="paragraph" unicode="&#xb6;" horiz-adv-x="942" 
d="M911 1530q4 0 11.5 -1t11.5 -1q9 -3 18 -15q6 -13 4 -22q0 -6 -4 -14q0 -1 -1 -3.5t-1 -3.5q-38 -119 -147 -536q-116 -434 -185 -703q-4 -12 -6 -20q-15 -57 -51 -203q-3 -10 -12 -16q-6 -6 -19 -6q-4 0 -6 2q-13 3 -18 14q-7 11 -4 23q57 217 59 223q25 99 84 324.5
t92 353.5q106 393 150 542h-123q-2 -2 -2 -4q-34 -108 -72 -247q-126 -468 -258 -979q0 -7 -2 -11q-50 -191 -57 -223q-3 -9 -13 -16q-6 -6 -18 -6h-6q-14 7 -19 14q-7 13 -4 24q5 17 54 205q1 3 3 9.5t3 9.5q23 88 72.5 280.5t76.5 294.5q-66 8 -128.5 23t-129 41.5
t-118.5 70.5t-76 101q-50 130 51 264q81 101 214 158t269 57q22 0 72 -4h235zM539 879q111 424 159 587q-4 1 -12.5 2t-13.5 2h-13h-8q-21 3 -43 3q-127 0 -248.5 -50t-191.5 -143q-81 -106 -43 -201q69 -153 414 -200z" />
    <glyph glyph-name="periodcentered" unicode="&#xb7;" horiz-adv-x="71" 
d="M4 406q14 18 37 18q15 0 25 -10q6 -3 6 -8t-2 -7q-8 -24 -41 -24h-6q-23 3 -23 16q0 3 4 15z" />
    <glyph glyph-name="periodcentered" unicode="&#x2219;" horiz-adv-x="71" 
d="M4 406q14 18 37 18q15 0 25 -10q6 -3 6 -8t-2 -7q-8 -24 -41 -24h-6q-23 3 -23 16q0 3 4 15z" />
    <glyph glyph-name="cedilla" unicode="&#xb8;" horiz-adv-x="198" 
d="M98 -29q78 -25 97 -53q24 -30 18 -57q-7 -54 -62 -82.5t-118 -32.5q-12 0 -22.5 10.5t-10.5 22.5t10 22q8 11 23 11q30 2 71.5 17.5t45.5 37.5q0 3 -7 10q-24 16 -26 17q-23 10 -60 18q-32 18 -41 47q-4 18 2 29q5 16 23 30q21 13 33 15q16 3 26 6q15 0 23 -8
q12 -6 12 -23q3 -12 -6 -24q-11 -10 -23 -13h-8z" />
    <glyph glyph-name="onesuperior" unicode="&#xb9;" horiz-adv-x="380" 
d="M340 1602q16 -3 16 -17q0 -6 -2 -8q-10 -35 -14 -43q-94 -213 -115 -262q-31 -70 -66.5 -168t-35.5 -135v-4q0 -9 10 -9h37q45 0 72 7q6 2 18 2h2q4 0 8 -7q0 -14 -47 -14q-23 -2 -67 -2q-13 0 -19 -6q-8 -8 -20 -8q-9 0 -21 4q-12 8 -37 8h-20q-21 0 -29 2q-10 0 -10 6
v2q0 11 25 11q6 0 12 -3q8 0 12 -2h12q12 0 14.5 4.5t4.5 22.5q7 54 33 133q32 102 112 281q4 9 12.5 27.5t12.5 27.5q-1 0 -2 1t-2 1q-31 -39 -49 -59q-10 -17 -27 -17h-4q-10 0 -12 6v2q0 5 4 9q1 2 6.5 9.5t5.5 12.5q0 6 -2 8v2l6 5q11 0 23 16q83 112 98 135
q17 21 37 21q1 0 3.5 -1t4.5 -1z" />
    <glyph glyph-name="ordmasculine" unicode="&#xba;" horiz-adv-x="481" 
d="M303 1542q29 19 64 19q56 0 82 -48.5t26 -109.5q0 -33 -4 -51q-14 -107 -96.5 -213t-184.5 -174q-68 -56 -135 -56h-12q-40 3 -43 43q0 17 8 49q37 115 119.5 235t177.5 208q29 29 52 42t57 13q-3 14 -19.5 29.5t-29.5 15.5q-10 0 -25 -6q-16 -12 -27 -12h-10q-6 0 -8 4
q0 4 8 12zM434 1393v14q0 37 -10 68q-1 -2 -4 -7.5t-4.5 -8t-5 -5t-7.5 -2.5h-2q-5 0 -8 2t-5.5 8.5t-2.5 7.5q-8 -4 -10 -6q-9 -6 -17 -14q-132 -118 -227 -279q-88 -158 -88 -213v-6q1 -12 4.5 -16t11.5 -4q9 0 13 2q35 9 82 43q113 79 192.5 187.5t87.5 228.5z" />
    <glyph glyph-name="questiondown" unicode="&#xbf;" horiz-adv-x="851" 
d="M0 229q0 29 39 90q41 50 80 87q23 23 101.5 101t115 115t96.5 98.5t107 113.5q109 123 147 170q15 18 35 18q8 0 12 -2q12 0 12 -10q0 -1 -4 -9q-6 -6 -10 -14q-168 -227 -424 -475q-106 -102 -160 -156q-31 -27 -59.5 -64.5t-28.5 -66.5q0 -40 60 -67q52 -19 98 -19
q89 0 204 45.5t213 121t136 153.5q25 45 25 88l-2 10q-3 72 -64 72q-12 0 -20 -2q-36 -4 -56 -4q-12 0 -12 10q0 9 39 14.5t59 5.5q100 0 111 -90q2 -6 2 -18q0 -37 -21 -84q-32 -70 -97 -131.5t-143.5 -104t-160 -71t-158.5 -39.5h-65q-125 0 -182 57q-25 28 -25 57z
M745 1151q-6 2 -6 14q6 6 6 13q0 2 -4 10q0 12 3.5 15t15.5 3q13 0 37 -12q8 -3 8 -12l-2 -6q-3 -12 -15 -20.5t-26 -8.5q-5 0 -17 4z" />
    <glyph glyph-name="Agrave" unicode="&#xc0;" horiz-adv-x="1802" 
d="M330 -102q-10 -29 -29 -29h-12q-6 0 -10.5 3.5t-4.5 8.5v4l64 238q-15 -11 -23 -35q-92 -172 -268 -516q-3 -4 -15.5 -26t-19.5 -33q-14 -21 -35 -21h-4q-18 0 -18 14v7q0 6 2 8q135 307 330 669q10 13 12 25q0 4 -4 4q-2 0 -7 -1t-7 -1q-373 -82 -693 -217
q-5 -2 -17 -9.5t-17 -10.5q-66 -37 -111 -37h-4q-9 0 -17 4q-8 5 -8 12q2 11 45 33q318 168 838 274q39 6 57 41q11 27 45 84q37 57 75.5 128t64 122.5t66 136t61.5 127.5q206 405 426 707q17 25 35.5 49.5t45.5 54.5t55.5 49.5t53.5 20.5q9 1 14.5 9.5t8.5 18t12 17.5t24 8
h2q15 -3 15 -10v-4q-1 -7 -14 -28t-15 -30v-10l2 -4q0 -2 -2 -4q-1 -5 -13.5 -9t-15.5 -9q-25 -41 -79 -119l2 -2q4 0 7.5 1.5t4.5 3t3 4t3 3.5q116 127 182 158q24 12 54 12q73 -4 73 -133q0 -22 -4 -68q-15 -171 -56 -376.5t-75.5 -340.5t-99.5 -368q-3 -14 -11.5 -43
t-11.5 -45l-4 -19q0 -2 -1 -4.5t-1 -3.5q0 -6 10 -6h21q117 0 242 -25q1 0 6.5 -3t7.5 -5.5t2 -7.5v-2q-4 -10 -33 -10q-12 0 -24 4q-101 16 -226 16q-12 -1 -16 -5t-6 -13l-170 -619l-176 -665q-8 -27 -33 -27q-19 6 -19 16v5l2 6q17 58 33 121t36 146t30 122
q15 55 42.5 158.5t37.5 140.5l161 602q0 8 -8 8h-12q-298 -12 -731 -92q-30 -9 -37 -33q-60 -167 -96 -325zM1231 1708q-163 -191 -344 -516q50 76 166.5 249t177.5 267zM563 549q-35 -65 -106 -246l8 -4q7 1 22.5 4t22.5 4q411 66 692 76q19 2 22.5 5t8.5 20q2 7 21.5 80
t30.5 115.5t33 127t38.5 151.5t36 149.5t36 161t29.5 148.5q39 222 39 324q0 52 -8 76q-9 20 -19 20q-25 0 -88.5 -59t-106 -107t-77.5 -90q-373 -471 -635 -956zM1397 2163q43 -43 65 -105q0 -2 1 -5t1 -5q0 -7 -12 -10h-6q-20 0 -29 18q-25 46 -80 101q-1 1 -4 3t-4.5 4
t-1.5 5q0 2 2 4q3 8 17 8h12q17 0 39 -18z" />
    <glyph glyph-name="Aacute" unicode="&#xc1;" horiz-adv-x="1802" 
d="M330 -102q-10 -29 -29 -29h-12q-6 0 -10.5 3.5t-4.5 8.5v4l64 238q-15 -11 -23 -35q-92 -172 -268 -516q-3 -4 -15.5 -26t-19.5 -33q-14 -21 -35 -21h-4q-18 0 -18 14v7q0 6 2 8q135 307 330 669q10 13 12 25q0 4 -4 4q-2 0 -7 -1t-7 -1q-373 -82 -693 -217
q-5 -2 -17 -9.5t-17 -10.5q-66 -37 -111 -37h-4q-9 0 -17 4q-8 5 -8 12q2 11 45 33q318 168 838 274q39 6 57 41q11 27 45 84q37 57 75.5 128t64 122.5t66 136t61.5 127.5q206 405 426 707q17 25 35.5 49.5t45.5 54.5t55.5 49.5t53.5 20.5q9 1 14.5 9.5t8.5 18t12 17.5t24 8
h2q15 -3 15 -10v-4q-1 -7 -14 -28t-15 -30v-10l2 -4q0 -2 -2 -4q-1 -5 -13.5 -9t-15.5 -9q-25 -41 -79 -119l2 -2q4 0 7.5 1.5t4.5 3t3 4t3 3.5q116 127 182 158q24 12 54 12q73 -4 73 -133q0 -22 -4 -68q-15 -171 -56 -376.5t-75.5 -340.5t-99.5 -368q-3 -14 -11.5 -43
t-11.5 -45l-4 -19q0 -2 -1 -4.5t-1 -3.5q0 -6 10 -6h21q117 0 242 -25q1 0 6.5 -3t7.5 -5.5t2 -7.5v-2q-4 -10 -33 -10q-12 0 -24 4q-101 16 -226 16q-12 -1 -16 -5t-6 -13l-170 -619l-176 -665q-8 -27 -33 -27q-19 6 -19 16v5l2 6q17 58 33 121t36 146t30 122
q15 55 42.5 158.5t37.5 140.5l161 602q0 8 -8 8h-12q-298 -12 -731 -92q-30 -9 -37 -33q-60 -167 -96 -325zM1231 1708q-163 -191 -344 -516q50 76 166.5 249t177.5 267zM563 549q-35 -65 -106 -246l8 -4q7 1 22.5 4t22.5 4q411 66 692 76q19 2 22.5 5t8.5 20q2 7 21.5 80
t30.5 115.5t33 127t38.5 151.5t36 149.5t36 161t29.5 148.5q39 222 39 324q0 52 -8 76q-9 20 -19 20q-25 0 -88.5 -59t-106 -107t-77.5 -90q-373 -471 -635 -956zM1518 2189q36 0 36 -14q0 -6 -8 -10q-2 -2 -6 -2q-13 0 -26.5 -5t-20.5 -9.5t-22.5 -16t-20.5 -14.5
q-44 -30 -96 -76q-12 -12 -27 -12h-6q-10 3 -10 10q0 4 2 8t10 12q123 129 195 129z" />
    <glyph glyph-name="Acircumflex" unicode="&#xc2;" horiz-adv-x="1802" 
d="M330 -102q-10 -29 -29 -29h-12q-6 0 -10.5 3.5t-4.5 8.5v4l64 238q-15 -11 -23 -35q-92 -172 -268 -516q-3 -4 -15.5 -26t-19.5 -33q-14 -21 -35 -21h-4q-18 0 -18 14v7q0 6 2 8q135 307 330 669q10 13 12 25q0 4 -4 4q-2 0 -7 -1t-7 -1q-373 -82 -693 -217
q-5 -2 -17 -9.5t-17 -10.5q-66 -37 -111 -37h-4q-9 0 -17 4q-8 5 -8 12q2 11 45 33q318 168 838 274q39 6 57 41q11 27 45 84q37 57 75.5 128t64 122.5t66 136t61.5 127.5q206 405 426 707q17 25 35.5 49.5t45.5 54.5t55.5 49.5t53.5 20.5q9 1 14.5 9.5t8.5 18t12 17.5t24 8
h2q15 -3 15 -10v-4q-1 -7 -14 -28t-15 -30v-10l2 -4q0 -2 -2 -4q-1 -5 -13.5 -9t-15.5 -9q-25 -41 -79 -119l2 -2q4 0 7.5 1.5t4.5 3t3 4t3 3.5q116 127 182 158q24 12 54 12q73 -4 73 -133q0 -22 -4 -68q-15 -171 -56 -376.5t-75.5 -340.5t-99.5 -368q-3 -14 -11.5 -43
t-11.5 -45l-4 -19q0 -2 -1 -4.5t-1 -3.5q0 -6 10 -6h21q117 0 242 -25q1 0 6.5 -3t7.5 -5.5t2 -7.5v-2q-4 -10 -33 -10q-12 0 -24 4q-101 16 -226 16q-12 -1 -16 -5t-6 -13l-170 -619l-176 -665q-8 -27 -33 -27q-19 6 -19 16v5l2 6q17 58 33 121t36 146t30 122
q15 55 42.5 158.5t37.5 140.5l161 602q0 8 -8 8h-12q-298 -12 -731 -92q-30 -9 -37 -33q-60 -167 -96 -325zM1231 1708q-163 -191 -344 -516q50 76 166.5 249t177.5 267zM563 549q-35 -65 -106 -246l8 -4q7 1 22.5 4t22.5 4q411 66 692 76q19 2 22.5 5t8.5 20q2 7 21.5 80
t30.5 115.5t33 127t38.5 151.5t36 149.5t36 161t29.5 148.5q39 222 39 324q0 52 -8 76q-9 20 -19 20q-25 0 -88.5 -59t-106 -107t-77.5 -90q-373 -471 -635 -956zM1530 2111h4q14 0 14 -8v-4q0 -8 -11 -13t-21 -5q-28 0 -43 18q-23 29 -33 115q-20 -18 -49 -47
q-53 -53 -68 -66q-16 -16 -39 -16h-6q-18 0 -18 14v2q0 25 14 25h4q13 0 22.5 5t21.5 18.5t15 15.5q13 12 36.5 34t35.5 33q17 17 47 17q34 0 39 -39q8 -47 14 -74q4 -25 21 -25z" />
    <glyph glyph-name="Atilde" unicode="&#xc3;" horiz-adv-x="1802" 
d="M330 -102q-10 -29 -29 -29h-12q-6 0 -10.5 3.5t-4.5 8.5v4l64 238q-15 -11 -23 -35q-92 -172 -268 -516q-3 -4 -15.5 -26t-19.5 -33q-14 -21 -35 -21h-4q-18 0 -18 14v7q0 6 2 8q135 307 330 669q10 13 12 25q0 4 -4 4q-2 0 -7 -1t-7 -1q-373 -82 -693 -217
q-5 -2 -17 -9.5t-17 -10.5q-66 -37 -111 -37h-4q-9 0 -17 4q-8 5 -8 12q2 11 45 33q318 168 838 274q39 6 57 41q11 27 45 84q37 57 75.5 128t64 122.5t66 136t61.5 127.5q206 405 426 707q17 25 35.5 49.5t45.5 54.5t55.5 49.5t53.5 20.5q9 1 14.5 9.5t8.5 18t12 17.5t24 8
h2q15 -3 15 -10v-4q-1 -7 -14 -28t-15 -30v-10l2 -4q0 -2 -2 -4q-1 -5 -13.5 -9t-15.5 -9q-25 -41 -79 -119l2 -2q4 0 7.5 1.5t4.5 3t3 4t3 3.5q116 127 182 158q24 12 54 12q73 -4 73 -133q0 -22 -4 -68q-15 -171 -56 -376.5t-75.5 -340.5t-99.5 -368q-3 -14 -11.5 -43
t-11.5 -45l-4 -19q0 -2 -1 -4.5t-1 -3.5q0 -6 10 -6h21q117 0 242 -25q1 0 6.5 -3t7.5 -5.5t2 -7.5v-2q-4 -10 -33 -10q-12 0 -24 4q-101 16 -226 16q-12 -1 -16 -5t-6 -13l-170 -619l-176 -665q-8 -27 -33 -27q-19 6 -19 16v5l2 6q17 58 33 121t36 146t30 122
q15 55 42.5 158.5t37.5 140.5l161 602q0 8 -8 8h-12q-298 -12 -731 -92q-30 -9 -37 -33q-60 -167 -96 -325zM1231 1708q-163 -191 -344 -516q50 76 166.5 249t177.5 267zM563 549q-35 -65 -106 -246l8 -4q7 1 22.5 4t22.5 4q411 66 692 76q19 2 22.5 5t8.5 20q2 7 21.5 80
t30.5 115.5t33 127t38.5 151.5t36 149.5t36 161t29.5 148.5q39 222 39 324q0 52 -8 76q-9 20 -19 20q-25 0 -88.5 -59t-106 -107t-77.5 -90q-373 -471 -635 -956zM1497 2193h10q11 0 15 -6q2 -2 2 -6q0 -6 -6 -12q-5 -13 -17 -25q-52 -46 -119 -49q-83 4 -118 53q-9 9 -17 9
q-5 0 -16 -7q-4 -3 -16.5 -11t-19.5 -16.5t-9 -21.5q0 -7 -10 -11.5t-21 -4.5q-8 0 -16 4q-4 4 -4 8q0 6 2 8q19 31 49.5 52.5t64.5 21.5q35 0 62 -22q1 -1 4 -3.5t4 -3.5q37 -24 72 -24q52 0 88 51q7 14 16 16z" />
    <glyph glyph-name="Adieresis" unicode="&#xc4;" horiz-adv-x="1802" 
d="M330 -102q-10 -29 -29 -29h-12q-6 0 -10.5 3.5t-4.5 8.5v4l64 238q-15 -11 -23 -35q-92 -172 -268 -516q-3 -4 -15.5 -26t-19.5 -33q-14 -21 -35 -21h-4q-18 0 -18 14v7q0 6 2 8q135 307 330 669q10 13 12 25q0 4 -4 4q-2 0 -7 -1t-7 -1q-373 -82 -693 -217
q-5 -2 -17 -9.5t-17 -10.5q-66 -37 -111 -37h-4q-9 0 -17 4q-8 5 -8 12q2 11 45 33q318 168 838 274q39 6 57 41q11 27 45 84q37 57 75.5 128t64 122.5t66 136t61.5 127.5q206 405 426 707q17 25 35.5 49.5t45.5 54.5t55.5 49.5t53.5 20.5q9 1 14.5 9.5t8.5 18t12 17.5t24 8
h2q15 -3 15 -10v-4q-1 -7 -14 -28t-15 -30v-10l2 -4q0 -2 -2 -4q-1 -5 -13.5 -9t-15.5 -9q-25 -41 -79 -119l2 -2q4 0 7.5 1.5t4.5 3t3 4t3 3.5q116 127 182 158q24 12 54 12q73 -4 73 -133q0 -22 -4 -68q-15 -171 -56 -376.5t-75.5 -340.5t-99.5 -368q-3 -14 -11.5 -43
t-11.5 -45l-4 -19q0 -2 -1 -4.5t-1 -3.5q0 -6 10 -6h21q117 0 242 -25q1 0 6.5 -3t7.5 -5.5t2 -7.5v-2q-4 -10 -33 -10q-12 0 -24 4q-101 16 -226 16q-12 -1 -16 -5t-6 -13l-170 -619l-176 -665q-8 -27 -33 -27q-19 6 -19 16v5l2 6q17 58 33 121t36 146t30 122
q15 55 42.5 158.5t37.5 140.5l161 602q0 8 -8 8h-12q-298 -12 -731 -92q-30 -9 -37 -33q-60 -167 -96 -325zM1231 1708q-163 -191 -344 -516q50 76 166.5 249t177.5 267zM563 549q-35 -65 -106 -246l8 -4q7 1 22.5 4t22.5 4q411 66 692 76q19 2 22.5 5t8.5 20q2 7 21.5 80
t30.5 115.5t33 127t38.5 151.5t36 149.5t36 161t29.5 148.5q39 222 39 324q0 52 -8 76q-9 20 -19 20q-25 0 -88.5 -59t-106 -107t-77.5 -90q-373 -471 -635 -956zM1430 2142q0 24 17.5 38.5t41.5 14.5q21 0 39 -14q8 -5 8 -14q0 -2 -4 -10q-11 -39 -59 -39h-11q-32 3 -32 24
zM1290 2142q0 24 18 38.5t42 14.5q22 0 39 -14q8 -5 8 -14q0 -2 -4 -10q-11 -39 -60 -39h-10q-33 3 -33 24z" />
    <glyph glyph-name="Aring" unicode="&#xc5;" horiz-adv-x="1802" 
d="M330 -102q-10 -29 -29 -29h-12q-6 0 -10.5 3.5t-4.5 8.5v4l64 238q-15 -11 -23 -35q-92 -172 -268 -516q-3 -4 -15.5 -26t-19.5 -33q-14 -21 -35 -21h-4q-18 0 -18 14v7q0 6 2 8q135 307 330 669q10 13 12 25q0 4 -4 4q-2 0 -7 -1t-7 -1q-373 -82 -693 -217
q-5 -2 -17 -9.5t-17 -10.5q-66 -37 -111 -37h-4q-9 0 -17 4q-8 5 -8 12q2 11 45 33q318 168 838 274q39 6 57 41q11 27 45 84q37 57 75.5 128t64 122.5t66 136t61.5 127.5q206 405 426 707q17 25 35.5 49.5t45.5 54.5t55.5 49.5t53.5 20.5q9 1 14.5 9.5t8.5 18t12 17.5t24 8
h2q15 -3 15 -10v-4q-1 -7 -14 -28t-15 -30v-10l2 -4q0 -2 -2 -4q-1 -5 -13.5 -9t-15.5 -9q-25 -41 -79 -119l2 -2q4 0 7.5 1.5t4.5 3t3 4t3 3.5q116 127 182 158q24 12 54 12q73 -4 73 -133q0 -22 -4 -68q-15 -171 -56 -376.5t-75.5 -340.5t-99.5 -368q-3 -14 -11.5 -43
t-11.5 -45l-4 -19q0 -2 -1 -4.5t-1 -3.5q0 -6 10 -6h21q117 0 242 -25q1 0 6.5 -3t7.5 -5.5t2 -7.5v-2q-4 -10 -33 -10q-12 0 -24 4q-101 16 -226 16q-12 -1 -16 -5t-6 -13l-170 -619l-176 -665q-8 -27 -33 -27q-19 6 -19 16v5l2 6q17 58 33 121t36 146t30 122
q15 55 42.5 158.5t37.5 140.5l161 602q0 8 -8 8h-12q-298 -12 -731 -92q-30 -9 -37 -33q-60 -167 -96 -325zM1231 1708q-163 -191 -344 -516q50 76 166.5 249t177.5 267zM563 549q-35 -65 -106 -246l8 -4q7 1 22.5 4t22.5 4q411 66 692 76q19 2 22.5 5t8.5 20q2 7 21.5 80
t30.5 115.5t33 127t38.5 151.5t36 149.5t36 161t29.5 148.5q39 222 39 324q0 52 -8 76q-9 20 -19 20q-25 0 -88.5 -59t-106 -107t-77.5 -90q-373 -471 -635 -956zM1454 2206q26 0 54 -13t28 -36q0 -33 -31.5 -56.5t-64.5 -23.5q-54 0 -76 43q-8 11 -8 26q0 29 33 44.5
t65 15.5zM1440 2103q13 0 29 19.5t16 34.5v4q-3 14 -15 14q-6 0 -12 -6q-12 -4 -14 -4q-4 0 -12 4q-4 2 -9 2q-7 0 -10 -6q-6 -9 -6 -17q0 -6 4 -18q11 -22 29 -27z" />
    <glyph glyph-name="AE" unicode="&#xc6;" horiz-adv-x="2590" 
d="M1231 1708q-201 -245 -344 -516q74 116 160 238zM1536 1053h12q136 42 244 86q10 3 12 8q6 6 8 12q29 67 43 123v2q3 15 3 27q0 13 -3 22q-60 -21 -175 -123.5t-144 -156.5zM1270 545q121 443 188 796q39 198 39 324q0 57 -16 92q-4 4 -11 4q-23 0 -72.5 -44t-82.5 -79
q-66 -71 -117 -133q-364 -459 -635 -956q-50 -98 -98 -223q-1 -5 -4.5 -13.5t-3.5 -9.5q2 -2 4 -2q2 -2 4 -2q3 1 10.5 2t11.5 2t12 2t11 2q361 65 692 76q15 0 19 2l8 8q1 1 8.5 30t7.5 32q7 22 10 41q-23 -8 -69 -23.5t-68 -23.5q-18 -6 -39 -15v-2q-14 0 -14 -12
q-4 -25 -43 -25q-13 0 -25 6q-14 8 -14 23q0 10 10 20q43 38 277 101zM1317 514q0 -1 -1 -4t-1 -4q-2 -12 -10 -41q-10 -35 -13 -47l-4 -19q-2 -2 -2 -8t10 -6h21q37 0 55 -2q53 89 86 143q15 15 15 29q-4 4 -9 4q-4 0 -12 -4zM1354 352h-62q-13 -3 -16 -6t-6 -12l-78 -287
l16 37q85 163 146 268zM1094 -311l-170 -639q-2 -12 -11 -21q-9 -6 -22 -6q-19 3 -19 16v5l2 6q13 45 70 270l29 119q15 55 42.5 158.5t37.5 140.5l161 602v6q-2 2 -8 2h-12q-361 -21 -731 -92q-11 -2 -23 -10q-12 -12 -14 -23q-60 -167 -96 -325q-10 -29 -29 -29h-12
q-5 0 -10 4t-5 8v4l64 238q-12 -13 -14 -17q-6 -9 -9 -18q-92 -172 -268 -516q-10 -19 -14 -25q-4 -7 -12 -19.5t-9 -14.5q-15 -21 -35 -21h-4q-8 0 -12 4q-6 3 -6 10v7v4q0 2 2 4q144 326 330 669q1 2 4 6.5t4 6.5l4 12v4h-4h-6q-2 -2 -8 -2q-358 -75 -693 -217
q-6 -2 -18 -10q-14 -9 -16 -10q-60 -37 -111 -37h-4q-5 0 -17 4q-8 5 -8 12q6 20 43 31q345 178 840 276q39 3 57 41q21 43 45 84q116 187 203 381q217 461 490 840q36 55 90 112l6 7q51 51 94 55q9 0 14 8l7 14q9 18 14 23q5 8 24 8h2q15 -3 15 -10v-4q-5 -16 -12 -27
q-14 -18 -17 -31v-10l2 -4q0 -2 -2 -4q0 -2 -4 -6q-1 -1 -4.5 -2t-5.5 -2q-6 0 -8 -2q-1 -1 -3.5 -3t-3.5 -3q-23 -40 -57 -89q-16 -20 -22 -30l2 -2q8 0 16 8q0 2 2 4q36 43 89.5 91t92.5 67q35 12 54 12q52 -3 67 -68q6 -34 6 -65q0 -22 -4 -68q-11 -122 -43 -305
q-73 -374 -172 -723l160 49q20 3 33 25l20 33q111 177 221 387q0 4 2 6q9 9 9 22l-4 2q-15 0 -23 -8q-1 -1 -4.5 -2t-5.5 -2q-3 -1 -9.5 -3t-9.5 -3q-107 -38 -157 -51q-24 -8 -56 -8q-14 0 -22 2q-27 9 -27 26q0 10 6 19q7 14 15 22q1 2 3 6.5t3 6.5q130 151 295 258
q18 9 39 18q19 8 43 8h8q62 0 59 -61v-6q-3 -53 -24 -99q0 -6 -2 -8q-5 -10 -5 -14v-4h7q11 0 20 6l8 4q442 180 744 219q10 2 24 2q39 0 39 -16q0 -13 -10 -13l-4 -4q-2 -2 -6 -2q-121 -52 -209 -100q-26 -15 -45 -23q-33 -17 -70 -30q-11 -8 -29 -8l-10 2q-8 0 -10 2
q-2 0 -6 4v2q0 10 8 10l2 2q32 7 74 29q28 15 86.5 45t87.5 45q-12 4 -16 4q-7 0 -19 -4q-285 -66 -545 -174l-131 -49q-17 -10 -26 -25q-102 -206 -222 -399q-4 -7 -12 -21.5t-12 -21.5q-5 -10 -6 -11l-4 -8q8 -4 10 -4q8 0 12 2l2 2q278 78 584 127q8 2 27 2q16 0 22 -2
q10 0 10 -10v-2q0 -8 -10 -8q-9 -4 -31 -8h-6q-286 -56 -596 -142q-18 -6 -39 -12q-21 -3 -32 -23q-1 -2 -4 -5t-4.5 -5.5t-2.5 -5.5q-8 -12 -106 -178q53 -5 117 -19q2 -2 4 -2q1 -1 4 -2t4 -2q4 -4 4 -10v-2q-3 -8 -12 -8q-6 -2 -21 -2q-12 0 -24 4q-46 9 -93 12
q-111 -203 -186 -368q-45 -88 -65 -179q-11 -33 -11 -53v-12q0 -47 35 -47q27 0 112 33.5t132 56.5q148 69 485 235q166 80 283 133q23 13 43 13q14 0 20 -2q1 -1 3 -2t3 -2t2.5 -4.5t2.5 -4.5q0 -5 -9 -14l-14 -6q-83 -38 -352 -174q-162 -83 -277 -139q-140 -74 -299 -134
q-65 -30 -139 -30l-20 2q-61 0 -80 39z" />
    <glyph glyph-name="Ccedilla" unicode="&#xc7;" horiz-adv-x="1847" 
d="M1767 1198q-41 0 -69 -22l-146 -121q46 15 114.5 61t100.5 82zM145 -121q-69 43 -107 109.5t-38 146.5q0 77 31.5 166t83 172.5t123 173t144 165.5t155 153t146.5 132t128 105q129 103 245 184t256 162t286.5 133t287.5 68q12 2 37 2q59 0 102 -18q30 -17 41 -33
q13 -23 13 -43q0 -40 -34.5 -101t-88 -123t-97.5 -107.5t-81 -80.5l-13 -12q21 0 45 -4q25 -6 25 -23q0 -32 -90 -90q-39 -27 -64 -41q-18 -12 -34 -20q-153 -81 -312 -176q-113 -61 -170 -64h-10q-29 0 -29 14q0 12 23 35q187 178 420 299q67 30 121 84q99 88 193.5 197.5
t119.5 189.5v8q2 2 2 7q0 65 -88 65h-39q-153 -16 -331 -90t-343 -182t-307 -222.5t-262 -232.5q-68 -67 -133.5 -139t-141.5 -169.5t-131.5 -189t-93 -193.5t-37.5 -187q0 -67 25.5 -118t65.5 -81.5t96.5 -50t111 -26.5t115.5 -7q185 0 441 74.5t489 185.5t387 227
q25 19 41 19h4q12 0 16 -2q4 -4 4 -8q0 -8 -6 -11q-7 -9 -20 -18q-254 -194 -664.5 -350t-707.5 -156q-149 0 -267 47q-3 1 -8 3t-8 3q0 -2 -4 -6q-8 -11 -23 -14h-8q72 -21 98 -53q23 -32 17 -58q-10 -55 -63 -83t-117 -32q-12 0 -22.5 10.5t-10.5 22.5q0 15 9.5 24t23.5 9
q30 2 71 17.5t45 37.5q0 2 -6 11q-10 10 -26 18q-13 6 -60 16q-12 5 -26 20t-15 27q-4 18 2 29q6 17 23 31z" />
    <glyph glyph-name="Egrave" unicode="&#xc8;" horiz-adv-x="1271" 
d="M-289 401q-14 11 -14 23q0 25 53 45q48 21 187 61q93 31 268 82q21 3 33 25q171 284 241 420q10 25 10 28l-4 2q-5 0 -10.5 -2t-12 -5.5t-9.5 -4.5q-119 -42 -177 -57q-36 -8 -55 -8q-49 0 -49 28q0 10 6 19q3 8 10.5 19t10.5 16q141 161 295 258q50 26 81 26h9
q31 0 45 -14.5t14 -46.5v-6q-2 -36 -25 -99q-6 -18 -6 -22v-4h6q4 0 29 10q13 5 87 33t100 37.5t83 29.5t101.5 34t89.5 26q146 42 283 59q4 0 12 1t12 1q11 0 27 -4q12 -6 12 -12q0 -8 -10 -13q-6 -6 -10 -6q-67 -27 -254 -123q-16 -9 -70 -30q-16 -8 -29 -8l-10 2
q-14 0 -16 6v2q0 7 10 12q15 3 74 29q28 16 174 90q-12 4 -17 4q-6 0 -18 -4q-226 -45 -545 -174q-8 -3 -56.5 -21.5t-74.5 -27.5q-13 -8 -27 -25q-64 -137 -245 -442q-2 -4 -6 -10t-5 -9q8 -4 11 -4q6 0 14 4q223 66 584 127q8 2 26 2q15 0 23 -2q10 0 10 -10v-2
q0 -8 -10 -8q-8 -3 -37 -8q-322 -66 -426 -95q-40 -10 -114 -31.5t-95 -27.5q-22 -4 -33 -23q-74 -123 -117 -198.5t-101.5 -186.5t-100.5 -208q-55 -121 -66 -179q-10 -27 -10 -53v-12q3 -47 35 -47t109.5 31t134.5 59q74 33 153.5 71.5t181.5 89.5t150 74q167 80 283 133
q30 13 43 13q12 0 20 -2q9 -8 10 -13q0 -2 -8 -14l-14 -6q-116 -55 -327.5 -162t-301.5 -151q-179 -91 -299 -134q-72 -30 -139 -30l-21 2q-92 3 -92 90v6q2 27 23 98q61 162 145.5 320t208.5 362q1 2 5 8t6.5 11.5t2.5 9.5l-8 4q-4 0 -12 -4q-210 -62 -334 -106
q-12 -3 -39 -15q-14 -5 -14 -14q-6 -16 -15 -20.5t-28 -4.5q-13 0 -25 6zM250 1053h12q136 42 244 86q14 3 20 20q45 97 45 152q0 14 -2 22q-49 -13 -168.5 -118.5t-150.5 -161.5zM690 1876q45 -45 66 -104q0 -2 1 -5.5t1 -5.5q0 -7 -13 -10h-6q-19 0 -28 18q-25 46 -80 101
q-1 1 -4 3t-4.5 4t-1.5 5q0 2 2 4q3 8 16 8h12q17 0 39 -18z" />
    <glyph glyph-name="Eacute" unicode="&#xc9;" horiz-adv-x="1271" 
d="M-289 401q-14 11 -14 23q0 25 53 45q48 21 187 61q93 31 268 82q21 3 33 25q171 284 241 420q10 25 10 28l-4 2q-5 0 -10.5 -2t-12 -5.5t-9.5 -4.5q-119 -42 -177 -57q-36 -8 -55 -8q-49 0 -49 28q0 10 6 19q3 8 10.5 19t10.5 16q141 161 295 258q50 26 81 26h9
q31 0 45 -14.5t14 -46.5v-6q-2 -36 -25 -99q-6 -18 -6 -22v-4h6q4 0 29 10q13 5 87 33t100 37.5t83 29.5t101.5 34t89.5 26q146 42 283 59q4 0 12 1t12 1q11 0 27 -4q12 -6 12 -12q0 -8 -10 -13q-6 -6 -10 -6q-67 -27 -254 -123q-16 -9 -70 -30q-16 -8 -29 -8l-10 2
q-14 0 -16 6v2q0 7 10 12q15 3 74 29q28 16 174 90q-12 4 -17 4q-6 0 -18 -4q-226 -45 -545 -174q-8 -3 -56.5 -21.5t-74.5 -27.5q-13 -8 -27 -25q-64 -137 -245 -442q-2 -4 -6 -10t-5 -9q8 -4 11 -4q6 0 14 4q223 66 584 127q8 2 26 2q15 0 23 -2q10 0 10 -10v-2
q0 -8 -10 -8q-8 -3 -37 -8q-322 -66 -426 -95q-40 -10 -114 -31.5t-95 -27.5q-22 -4 -33 -23q-74 -123 -117 -198.5t-101.5 -186.5t-100.5 -208q-55 -121 -66 -179q-10 -27 -10 -53v-12q3 -47 35 -47t109.5 31t134.5 59q74 33 153.5 71.5t181.5 89.5t150 74q167 80 283 133
q30 13 43 13q12 0 20 -2q9 -8 10 -13q0 -2 -8 -14l-14 -6q-116 -55 -327.5 -162t-301.5 -151q-179 -91 -299 -134q-72 -30 -139 -30l-21 2q-92 3 -92 90v6q2 27 23 98q61 162 145.5 320t208.5 362q1 2 5 8t6.5 11.5t2.5 9.5l-8 4q-4 0 -12 -4q-210 -62 -334 -106
q-12 -3 -39 -15q-14 -5 -14 -14q-6 -16 -15 -20.5t-28 -4.5q-13 0 -25 6zM250 1053h12q136 42 244 86q14 3 20 20q45 97 45 152q0 14 -2 22q-49 -13 -168.5 -118.5t-150.5 -161.5zM983 1999q37 0 37 -14q0 -7 -8 -11q-2 -2 -6 -2q-13 0 -26.5 -5t-20.5 -9t-23.5 -16
t-20.5 -15q-44 -30 -96 -76q-12 -12 -26 -12h-7q-10 3 -10 10q0 5 2 9t10 12q123 129 195 129z" />
    <glyph glyph-name="Ecircumflex" unicode="&#xca;" horiz-adv-x="1271" 
d="M-289 401q-14 11 -14 23q0 25 53 45q48 21 187 61q93 31 268 82q21 3 33 25q171 284 241 420q10 25 10 28l-4 2q-5 0 -10.5 -2t-12 -5.5t-9.5 -4.5q-119 -42 -177 -57q-36 -8 -55 -8q-49 0 -49 28q0 10 6 19q3 8 10.5 19t10.5 16q141 161 295 258q50 26 81 26h9
q31 0 45 -14.5t14 -46.5v-6q-2 -36 -25 -99q-6 -18 -6 -22v-4h6q4 0 29 10q13 5 87 33t100 37.5t83 29.5t101.5 34t89.5 26q146 42 283 59q4 0 12 1t12 1q11 0 27 -4q12 -6 12 -12q0 -8 -10 -13q-6 -6 -10 -6q-67 -27 -254 -123q-16 -9 -70 -30q-16 -8 -29 -8l-10 2
q-14 0 -16 6v2q0 7 10 12q15 3 74 29q28 16 174 90q-12 4 -17 4q-6 0 -18 -4q-226 -45 -545 -174q-8 -3 -56.5 -21.5t-74.5 -27.5q-13 -8 -27 -25q-64 -137 -245 -442q-2 -4 -6 -10t-5 -9q8 -4 11 -4q6 0 14 4q223 66 584 127q8 2 26 2q15 0 23 -2q10 0 10 -10v-2
q0 -8 -10 -8q-8 -3 -37 -8q-322 -66 -426 -95q-40 -10 -114 -31.5t-95 -27.5q-22 -4 -33 -23q-74 -123 -117 -198.5t-101.5 -186.5t-100.5 -208q-55 -121 -66 -179q-10 -27 -10 -53v-12q3 -47 35 -47t109.5 31t134.5 59q74 33 153.5 71.5t181.5 89.5t150 74q167 80 283 133
q30 13 43 13q12 0 20 -2q9 -8 10 -13q0 -2 -8 -14l-14 -6q-116 -55 -327.5 -162t-301.5 -151q-179 -91 -299 -134q-72 -30 -139 -30l-21 2q-92 3 -92 90v6q2 27 23 98q61 162 145.5 320t208.5 362q1 2 5 8t6.5 11.5t2.5 9.5l-8 4q-4 0 -12 -4q-210 -62 -334 -106
q-12 -3 -39 -15q-14 -5 -14 -14q-6 -16 -15 -20.5t-28 -4.5q-13 0 -25 6zM250 1053h12q136 42 244 86q14 3 20 20q45 97 45 152q0 14 -2 22q-49 -13 -168.5 -118.5t-150.5 -161.5zM991 1839h4q15 0 15 -8v-4q0 -8 -12 -13.5t-21 -5.5q-27 0 -43 19q-23 29 -33 115
q-10 -9 -49 -48q-45 -45 -68 -65q-17 -17 -39 -17h-6q-18 0 -18 15v2q0 24 14 24h4q13 0 22.5 5t22.5 18.5t15 15.5q13 11 35.5 33.5t35.5 34.5q16 16 48 16q18 0 26.5 -9t11.5 -30q5 -32 15 -73q4 -25 20 -25z" />
    <glyph glyph-name="Edieresis" unicode="&#xcb;" horiz-adv-x="1271" 
d="M-289 401q-14 11 -14 23q0 25 53 45q48 21 187 61q93 31 268 82q21 3 33 25q171 284 241 420q10 25 10 28l-4 2q-5 0 -10.5 -2t-12 -5.5t-9.5 -4.5q-119 -42 -177 -57q-36 -8 -55 -8q-49 0 -49 28q0 10 6 19q3 8 10.5 19t10.5 16q141 161 295 258q50 26 81 26h9
q31 0 45 -14.5t14 -46.5v-6q-2 -36 -25 -99q-6 -18 -6 -22v-4h6q4 0 29 10q13 5 87 33t100 37.5t83 29.5t101.5 34t89.5 26q146 42 283 59q4 0 12 1t12 1q11 0 27 -4q12 -6 12 -12q0 -8 -10 -13q-6 -6 -10 -6q-67 -27 -254 -123q-16 -9 -70 -30q-16 -8 -29 -8l-10 2
q-14 0 -16 6v2q0 7 10 12q15 3 74 29q28 16 174 90q-12 4 -17 4q-6 0 -18 -4q-226 -45 -545 -174q-8 -3 -56.5 -21.5t-74.5 -27.5q-13 -8 -27 -25q-64 -137 -245 -442q-2 -4 -6 -10t-5 -9q8 -4 11 -4q6 0 14 4q223 66 584 127q8 2 26 2q15 0 23 -2q10 0 10 -10v-2
q0 -8 -10 -8q-8 -3 -37 -8q-322 -66 -426 -95q-40 -10 -114 -31.5t-95 -27.5q-22 -4 -33 -23q-74 -123 -117 -198.5t-101.5 -186.5t-100.5 -208q-55 -121 -66 -179q-10 -27 -10 -53v-12q3 -47 35 -47t109.5 31t134.5 59q74 33 153.5 71.5t181.5 89.5t150 74q167 80 283 133
q30 13 43 13q12 0 20 -2q9 -8 10 -13q0 -2 -8 -14l-14 -6q-116 -55 -327.5 -162t-301.5 -151q-179 -91 -299 -134q-72 -30 -139 -30l-21 2q-92 3 -92 90v6q2 27 23 98q61 162 145.5 320t208.5 362q1 2 5 8t6.5 11.5t2.5 9.5l-8 4q-4 0 -12 -4q-210 -62 -334 -106
q-12 -3 -39 -15q-14 -5 -14 -14q-6 -16 -15 -20.5t-28 -4.5q-13 0 -25 6zM250 1053h12q136 42 244 86q14 3 20 20q45 97 45 152q0 14 -2 22q-49 -13 -168.5 -118.5t-150.5 -161.5zM909 1749q0 24 18 38.5t42 14.5q22 0 39 -14q8 -5 8 -14q0 -3 -4 -11q-11 -39 -60 -39h-10
q-33 3 -33 25zM770 1749q0 24 17.5 38.5t41.5 14.5q22 0 39 -14q9 -6 9 -14q0 -1 -5 -11q-11 -39 -59 -39h-10q-33 3 -33 25z" />
    <glyph glyph-name="Igrave" unicode="&#xcc;" horiz-adv-x="641" 
d="M-231 -387q13 7 32 14q46 11 125 15q21 1 27 3t10 7.5t8 23.5q44 205 108.5 446.5t113.5 408.5t133 440l116 387q5 20 7 26q-71 -14 -150 -14q-130 0 -168 23q-8 4 -8 8l2 4q0 8 10 8q4 2 15 2q12 0 18 -2q52 -14 115 -14q30 0 63.5 2t76 13t48.5 30q11 33 31 67
q39 76 119 76h18q60 -7 96 -26q23 -16 23 -33q0 -14 -19 -33q-23 -20 -78 -43.5t-90 -32.5q-33 -9 -41 -43q-49 -186 -86 -307q-41 -145 -131.5 -446t-134.5 -457q-68 -240 -129 -483q-5 -23 -8 -35q15 -1 43.5 -2t42.5 -2q41 -3 66 -23q12 -12 12 -16v-2q-1 -4 -3.5 -6
t-4.5 -2.5t-6.5 -1.5t-6.5 -1q-14 0 -32 11q-23 14 -66 14h-39q-14 -2 -20 -18q-18 -74 -62 -74h-8q-20 0 -20 14q0 7 6 19q1 4 3 11t3 11q4 16 4 21q0 8 -16 8h-13l-55 -6q-1 0 -10 -2.5t-12.5 -3.5t-9 -5t-9.5 -10q-10 -10 -29 -10q-17 0 -30 10q-11 7 -11 15q0 9 11 16z
M600 1538q-25 -25 -39 -76q2 -2 8 -2q5 0 17 4q35 14 76 37q4 2 24 17q4 4 4 10q0 4 -2 6q-14 18 -49 18q-31 0 -39 -14zM494 1886q43 -43 65 -104q0 -2 1 -5t1 -5q0 -8 -12 -11h-6q-19 0 -29 19q-24 44 -80 100q-1 1 -4 3t-4.5 4t-1.5 5q0 2 2 4q3 9 16 9h13q16 0 39 -19z
" />
    <glyph glyph-name="Iacute" unicode="&#xcd;" horiz-adv-x="641" 
d="M-231 -387q13 7 32 14q46 11 125 15q21 1 27 3t10 7.5t8 23.5q44 205 108.5 446.5t113.5 408.5t133 440l116 387q5 20 7 26q-71 -14 -150 -14q-130 0 -168 23q-8 4 -8 8l2 4q0 8 10 8q4 2 15 2q12 0 18 -2q52 -14 115 -14q30 0 63.5 2t76 13t48.5 30q11 33 31 67
q39 76 119 76h18q60 -7 96 -26q23 -16 23 -33q0 -14 -19 -33q-23 -20 -78 -43.5t-90 -32.5q-33 -9 -41 -43q-49 -186 -86 -307q-41 -145 -131.5 -446t-134.5 -457q-68 -240 -129 -483q-5 -23 -8 -35q15 -1 43.5 -2t42.5 -2q41 -3 66 -23q12 -12 12 -16v-2q-1 -4 -3.5 -6
t-4.5 -2.5t-6.5 -1.5t-6.5 -1q-14 0 -32 11q-23 14 -66 14h-39q-14 -2 -20 -18q-18 -74 -62 -74h-8q-20 0 -20 14q0 7 6 19q1 4 3 11t3 11q4 16 4 21q0 8 -16 8h-13l-55 -6q-1 0 -10 -2.5t-12.5 -3.5t-9 -5t-9.5 -10q-10 -10 -29 -10q-17 0 -30 10q-11 7 -11 15q0 9 11 16z
M600 1538q-25 -25 -39 -76q2 -2 8 -2q5 0 17 4q35 14 76 37q4 2 24 17q4 4 4 10q0 4 -2 6q-14 18 -49 18q-31 0 -39 -14zM635 1896q37 0 37 -14q0 -6 -8 -10q-2 -2 -7 -2q-13 0 -26.5 -5t-20.5 -9.5t-22.5 -16t-20.5 -14.5q-44 -30 -96 -76q-12 -12 -27 -12h-6q-10 3 -10 10
q0 4 2 8t10 12q123 129 195 129z" />
    <glyph glyph-name="Icircumflex" unicode="&#xce;" horiz-adv-x="641" 
d="M-231 -387q13 7 32 14q46 11 125 15q21 1 27 3t10 7.5t8 23.5q44 205 108.5 446.5t113.5 408.5t133 440l116 387q5 20 7 26q-71 -14 -150 -14q-130 0 -168 23q-8 4 -8 8l2 4q0 8 10 8q4 2 15 2q12 0 18 -2q52 -14 115 -14q30 0 63.5 2t76 13t48.5 30q11 33 31 67
q39 76 119 76h18q60 -7 96 -26q23 -16 23 -33q0 -14 -19 -33q-23 -20 -78 -43.5t-90 -32.5q-33 -9 -41 -43q-49 -186 -86 -307q-41 -145 -131.5 -446t-134.5 -457q-68 -240 -129 -483q-5 -23 -8 -35q15 -1 43.5 -2t42.5 -2q41 -3 66 -23q12 -12 12 -16v-2q-1 -4 -3.5 -6
t-4.5 -2.5t-6.5 -1.5t-6.5 -1q-14 0 -32 11q-23 14 -66 14h-39q-14 -2 -20 -18q-18 -74 -62 -74h-8q-20 0 -20 14q0 7 6 19q1 4 3 11t3 11q4 16 4 21q0 8 -16 8h-13l-55 -6q-1 0 -10 -2.5t-12.5 -3.5t-9 -5t-9.5 -10q-10 -10 -29 -10q-17 0 -30 10q-11 7 -11 15q0 9 11 16z
M600 1538q-25 -25 -39 -76q2 -2 8 -2q5 0 17 4q35 14 76 37q4 2 24 17q4 4 4 10q0 4 -2 6q-14 18 -49 18q-31 0 -39 -14zM588 1790h4q14 0 14 -8v-4q0 -8 -12 -13.5t-21 -5.5q-27 0 -43 19q-22 28 -32 114q-20 -18 -49 -47q-45 -45 -68 -65q-17 -17 -39 -17h-6q-19 0 -19 15
v2q0 24 15 24h4q13 0 22.5 5t21.5 18.5t15 15.5q12 11 35.5 33.5t36.5 34.5q16 16 47 16q34 0 39 -39q7 -44 14 -73q4 -25 21 -25z" />
    <glyph glyph-name="Idieresis" unicode="&#xcf;" horiz-adv-x="641" 
d="M-231 -387q13 7 32 14q46 11 125 15q21 1 27 3t10 7.5t8 23.5q44 205 108.5 446.5t113.5 408.5t133 440l116 387q5 20 7 26q-71 -14 -150 -14q-130 0 -168 23q-8 4 -8 8l2 4q0 8 10 8q4 2 15 2q12 0 18 -2q52 -14 115 -14q30 0 63.5 2t76 13t48.5 30q11 33 31 67
q39 76 119 76h18q60 -7 96 -26q23 -16 23 -33q0 -14 -19 -33q-23 -20 -78 -43.5t-90 -32.5q-33 -9 -41 -43q-49 -186 -86 -307q-41 -145 -131.5 -446t-134.5 -457q-68 -240 -129 -483q-5 -23 -8 -35q15 -1 43.5 -2t42.5 -2q41 -3 66 -23q12 -12 12 -16v-2q-1 -4 -3.5 -6
t-4.5 -2.5t-6.5 -1.5t-6.5 -1q-14 0 -32 11q-23 14 -66 14h-39q-14 -2 -20 -18q-18 -74 -62 -74h-8q-20 0 -20 14q0 7 6 19q1 4 3 11t3 11q4 16 4 21q0 8 -16 8h-13l-55 -6q-1 0 -10 -2.5t-12.5 -3.5t-9 -5t-9.5 -10q-10 -10 -29 -10q-17 0 -30 10q-11 7 -11 15q0 9 11 16z
M600 1538q-25 -25 -39 -76q2 -2 8 -2q5 0 17 4q35 14 76 37q4 2 24 17q4 4 4 10q0 4 -2 6q-14 18 -49 18q-31 0 -39 -14zM498 1819q0 24 17.5 38.5t41.5 14.5q21 0 39 -14q8 -5 8 -15q0 -2 -4 -10q-11 -39 -59 -39h-11q-32 3 -32 25zM358 1819q0 24 18 38.5t42 14.5
q22 0 39 -14q8 -5 8 -15q0 -2 -4 -10q-11 -39 -60 -39h-10q-33 3 -33 25z" />
    <glyph glyph-name="Eth" unicode="&#xd0;" horiz-adv-x="1603" 
d="M-31 547q22 43 64 164q16 48 44.5 138t35.5 112q39 120 49 174v10q-21 -11 -84.5 -80.5t-91.5 -106.5q-10 -18 -13 -30q-9 -52 -12 -99q-15 -122 0 -247q0 -9 2 -11q0 -8 2 -12q0 -4 4 -12zM205 1284l12 53q19 79 25 148v2q3 28 0 57q-64 -50 -136.5 -199.5t-87.5 -238.5
q-2 -6 -2 -16q12 4 17 12l2 2q65 74 141 135q26 16 29 45zM-72 539q-27 116 -18 237q0 17 2 25q3 27 0 55q-12 -12 -14 -18l-7 -7q-99 -141 -172 -290h58q104 0 151 -2zM-55 473q-49 -8 -109 -8q-65 0 -98 2q-10 2 -29 2h-22q-131 -303 -144 -535q-6 -74 13 -147
q9 -30 18 -33q10 0 31 21q50 57 82 116q112 194 254 568q1 2 2 6.5t2 7.5zM-348 539q109 236 272 438q12 25 17 41q29 134 85 272.5t130 235.5q1 1 2 3t2 3q16 22 41 43q23 14 53 14q38 -8 47 -57q3 -53 -10 -115q-1 -5 -2 -15.5t-2 -15.5l-13 -73q9 6 35 22
q151 105 340 150q67 12 131 12q146 0 254 -69t156 -205q53 -140 35 -291q-14 -128 -70.5 -264t-139 -257t-187 -235t-214 -205t-219.5 -161q-201 -126 -442 -210.5t-451 -84.5q-84 0 -145 10l-27 6q-35 7 -88 25l-12 4q-8 8 -8 14l6 6h8l12 -2q18 -4 29 -8q13 -3 40 -9.5
t40 -9.5l29 -4q31 -4 92 -4q96 0 190 21q650 141 1094 635q142 154 250.5 336.5t136.5 355.5l4 16q22 149 -18 291q-31 99 -102 170t-169 88q-24 6 -55 6q-5 0 -16.5 -1t-16.5 -1q-151 -9 -287 -80q-56 -26 -147 -85t-96 -89q-75 -285 -215 -669q96 -3 180 -9q8 0 14 -2
q20 -3 41 -12q2 -2 4 -2l4 -4v-6v-2q0 -9 -3 -13.5t-7 -3.5q-16 -4 -24 -4h-11q-50 4 -75 4h-144q-88 -237 -213 -497q-74 -159 -159 -244q-28 -21 -54 -21q-3 0 -8 1.5t-8 1.5q-46 6 -64 55q-19 68 -16 131q8 250 135 563q-18 2 -54 5t-54 5q-4 2 -15 2q-30 0 -35 21
q0 17 13 20q12 4 24 4q4 2 13 2q86 7 137 7z" />
    <glyph glyph-name="Ntilde" unicode="&#xd1;" horiz-adv-x="1441" 
d="M1415 1604q27 0 27 -25q-7 -112 -17 -190q-34 -246 -153 -879q-73 -381 -131 -614q-30 -125 -66 -220q-14 -38 -27 -65t-34 -55.5t-51 -43t-68 -14.5q-45 0 -84 23q-113 59 -223 284q-195 407 -195 969l-2 53q0 111 10 248v23h-6q-67 -220 -76 -250q-91 -306 -159 -698
q-35 -207 -64 -316q-9 -34 -14 -47q-15 -27 -39 -27q-2 0 -6 1t-6 1q-24 6 -27 35q-4 36 -4 58q0 21 4 57q73 692 358 1401q82 203 123 325q8 25 31 25h8q23 -3 23 -23q0 -8 -2 -14q-15 -30 -28.5 -64.5t-29.5 -79t-24 -65.5v-8q6 0 10 -2q14 -3 18.5 -6.5t4.5 -11.5v-11
q-2 -26 -7.5 -76.5t-7.5 -74.5q-1 -21 -4 -60.5t-4 -60.5q-8 -204 -8 -309q0 -469 123 -817q107 -298 225 -402q47 -47 82 -47q20 0 37 14q26 18 49 62q23 49 55 151q61 213 117 498q25 134 82 425t86 445q50 258 65 447q0 13 8.5 22t20.5 9zM324 1028q0 4 3 12t3 15
q0 2 -1 6t-1 6q-195 -544 -256 -1102q5 25 15 76t15 76q66 347 84 426q57 227 138 485zM1085 1901h11q9 0 14 -7q2 -2 2 -6q0 -6 -6 -12q-6 -15 -16 -25q-52 -46 -119 -49q-34 2 -68 15.5t-51 37.5q-9 9 -16 9q-8 0 -17 -6q-3 -3 -16.5 -11.5t-20 -17t-8.5 -21.5
q0 -7 -10 -11.5t-21 -4.5q-8 0 -16 4q-4 4 -4 8q0 6 2 8q19 31 50 52.5t65 21.5t61 -22q1 -1 4 -3t4 -3q39 -25 72 -25q52 0 88 51q7 15 16 17z" />
    <glyph glyph-name="Ograve" unicode="&#xd2;" horiz-adv-x="1984" 
d="M172 -174q-43 13 -74 39t-49.5 63.5t-28.5 74.5t-16 83q-4 62 -4 92q0 99 25 242q60 311 194 592t346.5 520.5t481.5 394.5q253 144 456 144q109 0 195 -42.5t139.5 -110.5t88 -161t48 -186.5t13.5 -194.5q0 -422 -232 -909q-38 -81 -89.5 -175.5t-124.5 -211.5
t-151 -227t-172 -216t-186 -185t-192.5 -127t-192.5 -48q-231 0 -285 303q-6 65 -6 127q0 37 4 115q2 2 2 8q0 8 -4 12q-8 -2 -33.5 -10t-41.5 -10q-14 -2 -45 -2q-32 0 -66 6zM74 199v-39q0 -46 7 -93t24 -97.5t52 -82.5t83 -32q40 0 110 36q22 12 27 37q19 104 54 218
t85.5 231.5t121.5 221.5t150 165q13 8 13 20q0 9 -2 13q-2 11 -7 29.5t-6 21.5v8q0 11 15 14h8q21 0 29 -24l4 -15q5 -15 10 -22q60 21 66 22q35 7 55 7q71 0 118.5 -41t59.5 -109q8 -33 8 -76q0 -28 -2 -86t-2 -86v-43q0 -15 -20 -18h-5q-20 0 -20 16q-2 25 -2 72
q1 13 2.5 36.5t2.5 42.5t1 36q0 24 -2 36q-4 87 -35 132q-37 61 -104 61q-23 0 -53 -10q-7 -3 -23 -10.5t-23 -10.5q-18 -8 -18 -32l2 -31q0 -53 -12 -103q-23 -121 -78.5 -259.5t-145.5 -271t-188 -198.5q-11 -8 -14 -22q-1 -17 -4 -49t-4 -47q0 -64 3 -109.5t13 -105.5
t34 -108.5t62 -84.5q58 -49 123 -49q27 0 39 4q116 24 236 118t221 212q150 169 286 374t247 432t177 470.5t66 459.5q0 85 -11 169t-40.5 174.5t-74 158.5t-118 112t-166.5 44q-116 0 -248.5 -51.5t-252.5 -134.5t-222.5 -175t-181.5 -186q-141 -166 -258.5 -380
t-193 -457.5t-78.5 -454.5zM440 -39q24 18 39 39q98 106 178 260q51 94 98.5 225.5t47.5 212.5q0 15 -2 21q-67 -50 -149 -188.5t-142.5 -299.5t-69.5 -270zM1300 2359q45 -45 66 -104q0 -2 1 -5t1 -5q0 -8 -12 -11h-6q-20 0 -29 19q-24 44 -80 100q-1 1 -4 3t-4.5 4t-1.5 5
t2 5q3 8 16 8h13q15 0 38 -19z" />
    <glyph glyph-name="Oacute" unicode="&#xd3;" horiz-adv-x="1984" 
d="M172 -174q-43 13 -74 39t-49.5 63.5t-28.5 74.5t-16 83q-4 62 -4 92q0 99 25 242q60 311 194 592t346.5 520.5t481.5 394.5q253 144 456 144q109 0 195 -42.5t139.5 -110.5t88 -161t48 -186.5t13.5 -194.5q0 -422 -232 -909q-38 -81 -89.5 -175.5t-124.5 -211.5
t-151 -227t-172 -216t-186 -185t-192.5 -127t-192.5 -48q-231 0 -285 303q-6 65 -6 127q0 37 4 115q2 2 2 8q0 8 -4 12q-8 -2 -33.5 -10t-41.5 -10q-14 -2 -45 -2q-32 0 -66 6zM74 199v-39q0 -46 7 -93t24 -97.5t52 -82.5t83 -32q40 0 110 36q22 12 27 37q19 104 54 218
t85.5 231.5t121.5 221.5t150 165q13 8 13 20q0 9 -2 13q-2 11 -7 29.5t-6 21.5v8q0 11 15 14h8q21 0 29 -24l4 -15q5 -15 10 -22q60 21 66 22q35 7 55 7q71 0 118.5 -41t59.5 -109q8 -33 8 -76q0 -28 -2 -86t-2 -86v-43q0 -15 -20 -18h-5q-20 0 -20 16q-2 25 -2 72
q1 13 2.5 36.5t2.5 42.5t1 36q0 24 -2 36q-4 87 -35 132q-37 61 -104 61q-23 0 -53 -10q-7 -3 -23 -10.5t-23 -10.5q-18 -8 -18 -32l2 -31q0 -53 -12 -103q-23 -121 -78.5 -259.5t-145.5 -271t-188 -198.5q-11 -8 -14 -22q-1 -17 -4 -49t-4 -47q0 -64 3 -109.5t13 -105.5
t34 -108.5t62 -84.5q58 -49 123 -49q27 0 39 4q116 24 236 118t221 212q150 169 286 374t247 432t177 470.5t66 459.5q0 85 -11 169t-40.5 174.5t-74 158.5t-118 112t-166.5 44q-116 0 -248.5 -51.5t-252.5 -134.5t-222.5 -175t-181.5 -186q-141 -166 -258.5 -380
t-193 -457.5t-78.5 -454.5zM440 -39q24 18 39 39q98 106 178 260q51 94 98.5 225.5t47.5 212.5q0 15 -2 21q-67 -50 -149 -188.5t-142.5 -299.5t-69.5 -270zM1421 2355q37 0 37 -14q0 -6 -8 -10q-2 -2 -6 -2q-13 0 -26.5 -5t-20.5 -9.5t-22.5 -16t-20.5 -14.5
q-49 -34 -97 -76q-13 -13 -26 -13h-6q-11 4 -11 11q0 2 3 8q2 4 10 12q123 129 194 129z" />
    <glyph glyph-name="Ocircumflex" unicode="&#xd4;" horiz-adv-x="1984" 
d="M172 -174q-43 13 -74 39t-49.5 63.5t-28.5 74.5t-16 83q-4 62 -4 92q0 99 25 242q60 311 194 592t346.5 520.5t481.5 394.5q253 144 456 144q109 0 195 -42.5t139.5 -110.5t88 -161t48 -186.5t13.5 -194.5q0 -422 -232 -909q-38 -81 -89.5 -175.5t-124.5 -211.5
t-151 -227t-172 -216t-186 -185t-192.5 -127t-192.5 -48q-231 0 -285 303q-6 65 -6 127q0 37 4 115q2 2 2 8q0 8 -4 12q-8 -2 -33.5 -10t-41.5 -10q-14 -2 -45 -2q-32 0 -66 6zM74 199v-39q0 -46 7 -93t24 -97.5t52 -82.5t83 -32q40 0 110 36q22 12 27 37q19 104 54 218
t85.5 231.5t121.5 221.5t150 165q13 8 13 20q0 9 -2 13q-2 11 -7 29.5t-6 21.5v8q0 11 15 14h8q21 0 29 -24l4 -15q5 -15 10 -22q60 21 66 22q35 7 55 7q71 0 118.5 -41t59.5 -109q8 -33 8 -76q0 -28 -2 -86t-2 -86v-43q0 -15 -20 -18h-5q-20 0 -20 16q-2 25 -2 72
q1 13 2.5 36.5t2.5 42.5t1 36q0 24 -2 36q-4 87 -35 132q-37 61 -104 61q-23 0 -53 -10q-7 -3 -23 -10.5t-23 -10.5q-18 -8 -18 -32l2 -31q0 -53 -12 -103q-23 -121 -78.5 -259.5t-145.5 -271t-188 -198.5q-11 -8 -14 -22q-1 -17 -4 -49t-4 -47q0 -64 3 -109.5t13 -105.5
t34 -108.5t62 -84.5q58 -49 123 -49q27 0 39 4q116 24 236 118t221 212q150 169 286 374t247 432t177 470.5t66 459.5q0 85 -11 169t-40.5 174.5t-74 158.5t-118 112t-166.5 44q-116 0 -248.5 -51.5t-252.5 -134.5t-222.5 -175t-181.5 -186q-141 -166 -258.5 -380
t-193 -457.5t-78.5 -454.5zM440 -39q24 18 39 39q98 106 178 260q51 94 98.5 225.5t47.5 212.5q0 15 -2 21q-67 -50 -149 -188.5t-142.5 -299.5t-69.5 -270zM1663 2208h4q14 0 14 -8v-5q0 -8 -11 -13t-21 -5q-28 0 -43 18q-23 29 -33 115q-20 -18 -49 -47q-45 -45 -68 -65
q-17 -17 -39 -17h-6q-18 0 -18 14v3q0 24 14 24h4q13 0 22.5 5t21.5 18.5t15 15.5q12 12 35.5 34.5t36.5 33.5q16 16 47 16q34 0 39 -39q8 -47 14 -74q4 -24 21 -24z" />
    <glyph glyph-name="Otilde" unicode="&#xd5;" horiz-adv-x="1984" 
d="M172 -174q-43 13 -74 39t-49.5 63.5t-28.5 74.5t-16 83q-4 62 -4 92q0 99 25 242q60 311 194 592t346.5 520.5t481.5 394.5q253 144 456 144q109 0 195 -42.5t139.5 -110.5t88 -161t48 -186.5t13.5 -194.5q0 -422 -232 -909q-38 -81 -89.5 -175.5t-124.5 -211.5
t-151 -227t-172 -216t-186 -185t-192.5 -127t-192.5 -48q-231 0 -285 303q-6 65 -6 127q0 37 4 115q2 2 2 8q0 8 -4 12q-8 -2 -33.5 -10t-41.5 -10q-14 -2 -45 -2q-32 0 -66 6zM74 199v-39q0 -46 7 -93t24 -97.5t52 -82.5t83 -32q40 0 110 36q22 12 27 37q19 104 54 218
t85.5 231.5t121.5 221.5t150 165q13 8 13 20q0 9 -2 13q-2 11 -7 29.5t-6 21.5v8q0 11 15 14h8q21 0 29 -24l4 -15q5 -15 10 -22q60 21 66 22q35 7 55 7q71 0 118.5 -41t59.5 -109q8 -33 8 -76q0 -28 -2 -86t-2 -86v-43q0 -15 -20 -18h-5q-20 0 -20 16q-2 25 -2 72
q1 13 2.5 36.5t2.5 42.5t1 36q0 24 -2 36q-4 87 -35 132q-37 61 -104 61q-23 0 -53 -10q-7 -3 -23 -10.5t-23 -10.5q-18 -8 -18 -32l2 -31q0 -53 -12 -103q-23 -121 -78.5 -259.5t-145.5 -271t-188 -198.5q-11 -8 -14 -22q-1 -17 -4 -49t-4 -47q0 -64 3 -109.5t13 -105.5
t34 -108.5t62 -84.5q58 -49 123 -49q27 0 39 4q116 24 236 118t221 212q150 169 286 374t247 432t177 470.5t66 459.5q0 85 -11 169t-40.5 174.5t-74 158.5t-118 112t-166.5 44q-116 0 -248.5 -51.5t-252.5 -134.5t-222.5 -175t-181.5 -186q-141 -166 -258.5 -380
t-193 -457.5t-78.5 -454.5zM440 -39q24 18 39 39q98 106 178 260q51 94 98.5 225.5t47.5 212.5q0 15 -2 21q-67 -50 -149 -188.5t-142.5 -299.5t-69.5 -270zM1296 2284h11q9 0 14 -7q2 -2 2 -6q0 -6 -6 -12q-5 -13 -17 -25q-52 -46 -118 -49q-34 2 -68 15.5t-51 37.5
q-9 9 -16 9q-8 0 -17 -6q-4 -3 -17 -11.5t-19.5 -17t-8.5 -21.5q0 -7 -10 -11.5t-21 -4.5q-8 0 -16 4q-4 4 -4 8q0 6 2 8q19 31 50 52.5t65 21.5q33 0 61 -22q1 -1 4 -3t4 -3q39 -25 72 -25q52 0 88 51q7 15 16 17z" />
    <glyph glyph-name="Odieresis" unicode="&#xd6;" horiz-adv-x="1984" 
d="M172 -174q-43 13 -74 39t-49.5 63.5t-28.5 74.5t-16 83q-4 62 -4 92q0 99 25 242q60 311 194 592t346.5 520.5t481.5 394.5q253 144 456 144q109 0 195 -42.5t139.5 -110.5t88 -161t48 -186.5t13.5 -194.5q0 -422 -232 -909q-38 -81 -89.5 -175.5t-124.5 -211.5
t-151 -227t-172 -216t-186 -185t-192.5 -127t-192.5 -48q-231 0 -285 303q-6 65 -6 127q0 37 4 115q2 2 2 8q0 8 -4 12q-8 -2 -33.5 -10t-41.5 -10q-14 -2 -45 -2q-32 0 -66 6zM74 199v-39q0 -46 7 -93t24 -97.5t52 -82.5t83 -32q40 0 110 36q22 12 27 37q19 104 54 218
t85.5 231.5t121.5 221.5t150 165q13 8 13 20q0 9 -2 13q-2 11 -7 29.5t-6 21.5v8q0 11 15 14h8q21 0 29 -24l4 -15q5 -15 10 -22q60 21 66 22q35 7 55 7q71 0 118.5 -41t59.5 -109q8 -33 8 -76q0 -28 -2 -86t-2 -86v-43q0 -15 -20 -18h-5q-20 0 -20 16q-2 25 -2 72
q1 13 2.5 36.5t2.5 42.5t1 36q0 24 -2 36q-4 87 -35 132q-37 61 -104 61q-23 0 -53 -10q-7 -3 -23 -10.5t-23 -10.5q-18 -8 -18 -32l2 -31q0 -53 -12 -103q-23 -121 -78.5 -259.5t-145.5 -271t-188 -198.5q-11 -8 -14 -22q-1 -17 -4 -49t-4 -47q0 -64 3 -109.5t13 -105.5
t34 -108.5t62 -84.5q58 -49 123 -49q27 0 39 4q116 24 236 118t221 212q150 169 286 374t247 432t177 470.5t66 459.5q0 85 -11 169t-40.5 174.5t-74 158.5t-118 112t-166.5 44q-116 0 -248.5 -51.5t-252.5 -134.5t-222.5 -175t-181.5 -186q-141 -166 -258.5 -380
t-193 -457.5t-78.5 -454.5zM440 -39q24 18 39 39q98 106 178 260q51 94 98.5 225.5t47.5 212.5q0 15 -2 21q-67 -50 -149 -188.5t-142.5 -299.5t-69.5 -270zM1454 2243q0 24 17.5 38.5t41.5 14.5q20 0 39 -15q9 -6 9 -14l-5 -10q-11 -39 -59 -39h-10q-33 3 -33 25z
M1315 2243q0 24 17.5 38.5t41.5 14.5q20 0 39 -15q8 -5 8 -14q0 -2 -4 -10q-11 -39 -59 -39h-10q-33 3 -33 25z" />
    <glyph glyph-name="multiply" unicode="&#xd7;" horiz-adv-x="1239" 
d="M592 449q-73 143 -148 274q-74 127 -141 203q-14 14 -14 37q3 22 18 34q15 15 37 15q22 -4 35 -17q55 -62 111 -149t90 -150.5t86 -165.5q24 27 71 79t70 79q291 321 315 338q15 18 35 18q25 0 37 -12q18 -12 18 -35q3 -18 -12 -36q-18 -14 -317 -343q-85 -92 -168 -186
q79 -156 159 -303q89 -155 164 -248q14 -20 11 -39q-6 -45 -58 -45q-21 3 -33 19q-60 76 -121.5 175.5t-98.5 170t-97 190.5q-281 -313 -432 -491q-116 -140 -162 -140q-9 0 -16 7q-41 31 110 211q156 186 451 510z" />
    <glyph glyph-name="Oslash" unicode="&#xd8;" horiz-adv-x="1984" 
d="M786 479q-65 -220 -200 -407q-70 -111 -178 -187q-13 -13 -15 -22q0 -19 -4 -51l-4 -45v-50q0 -245 113 -358q55 -49 123 -49q10 0 38 4q121 30 242 122.5t215 207.5q153 176 288 378.5t246.5 427.5t176.5 467.5t65 462.5q0 129 -26 250q-2 4 -2 15q-340 -340 -797 -848
q66 -61 66 -185q0 -42 -3 -86q-2 -29 -2 -86v-43q0 -8 -4 -12q-4 -2 -16 -6h-4q-18 0 -21 16q-2 23 -2 72l4 45q2 23 2 70q0 24 -2 36q3 74 -34 132l-13 16q-42 -48 -126 -143.5t-126 -143.5zM436 82q-17 -74 -22 -121q24 18 39 39q147 163 227 360q-151 -174 -244 -278z
M449 279q65 160 137 280t176 205q12 9 12 20q0 9 -2 13q-6 27 -12 51v8q0 11 14 14h8q11 0 19 -4q7 -8 10 -20q1 -1 2 -4.5t2 -5.5q2 -12 10 -27l21 8q26 11 45 14q31 7 53 7q456 504 891 911q-49 131 -136 210t-216 79q-115 0 -248 -51.5t-253 -134.5t-223 -175t-181 -186
q-229 -274 -374 -615t-157 -677v-39q0 -167 66 -252q1 -1 2 -3t2 -3q92 102 332 377zM770 645v4q6 24 6 49q0 15 -2 21q-103 -87 -213 -311q73 86 209 237zM915 807q-6 -2 -22 -6q-9 -3 -23 -10q-13 -9 -22 -11q-19 -10 -19 -32l2 -31v-2q56 60 84 92zM365 0
q-82 -94 -125 -141q8 0 12 2q34 10 72 30q23 10 26 37q6 38 15 72zM80 -141q-45 39 -66 84q-29 75 -37 143q-4 62 -4 92q0 269 116.5 583t285.5 564q68 99 158 199.5t204.5 199.5t233.5 175.5t252.5 124t253.5 47.5q288 0 405 -277l107 98q17 17 28 26.5t29.5 18.5t36.5 9
h18q27 0 37 -23l2 -6q0 -10 -6 -19q-10 -10 -14 -12l-11 -8q-125 -117 -190 -180q41 -174 41 -322q0 -217 -63.5 -455.5t-167.5 -453.5q-38 -80 -89 -175t-124 -212t-151.5 -227t-172 -216t-185.5 -185t-193 -127t-193 -48q-83 0 -143 39.5t-90.5 105.5t-44 136.5
t-13.5 148.5q0 37 4 115q2 2 2 8q0 4 -4 12l-12 -4t-15 -4q-39 -14 -94 -14h-6l-62 -62q-27 -24 -51 -51q-39 -39 -90 -39q-21 0 -29 2q-13 3 -22 15q-4 12 -4 16q0 7 6 16q3 6 10 13z" />
    <glyph glyph-name="Ugrave" unicode="&#xd9;" horiz-adv-x="1261" 
d="M1487 1313q-31 -41 -64 -105q-291 -567 -483 -1130q-82 -242 -96 -406q-3 -24 -25 -24h-8q-14 0 -18.5 5.5t-4.5 22.5q3 116 46 269q51 185 165 481q119 302 213 498q9 14 9 24v4q-13 -17 -35 -43q-285 -367 -527 -645q-179 -203 -311 -315q-153 -129 -248 -129h-8
q-52 1 -72 33t-20 86q0 108 73.5 334.5t135.5 359.5q4 12 4 16q0 7 -6 13q-2 4 -2 10q0 3 1 8.5t1 7.5q16 46 45 72q13 11 29 39q56 122 93.5 198.5t102 187.5t123.5 181q12 16 31 31q12 12 22 14q4 0 12.5 1t12.5 1q13 0 24 -8q11 -11 11 -19q0 -6 -3.5 -15t-4.5 -13
q-18 -50 -52 -113q-132 -258 -311 -506q-21 -31 -41 -49q-28 -28 -43 -69q-201 -507 -201 -676v-13q0 -28 10 -56t33 -28q33 0 99.5 45.5t112.5 86t87 79.5q162 162 375 418q317 378 565 715q22 32 41 68q81 146 168 262q14 14 35 14q15 0 21 -2q14 -4 14 -14q0 -3 -4 -11
q-1 -2 -19 -32q-15 -22 -51 -78t-57 -86zM635 1329q-130 -178 -264 -467q183 280 264 467zM1104 2066q43 -43 65 -104q0 -2 1 -5t1 -5q0 -7 -12 -10h-6q-20 0 -29 18q-24 44 -80 100q-10 10 -10 13q0 2 2 4q3 8 17 8h12q16 0 39 -19z" />
    <glyph glyph-name="Uacute" unicode="&#xda;" horiz-adv-x="1261" 
d="M1487 1313q-31 -41 -64 -105q-291 -567 -483 -1130q-82 -242 -96 -406q-3 -24 -25 -24h-8q-14 0 -18.5 5.5t-4.5 22.5q3 116 46 269q51 185 165 481q119 302 213 498q9 14 9 24v4q-13 -17 -35 -43q-285 -367 -527 -645q-179 -203 -311 -315q-153 -129 -248 -129h-8
q-52 1 -72 33t-20 86q0 108 73.5 334.5t135.5 359.5q4 12 4 16q0 7 -6 13q-2 4 -2 10q0 3 1 8.5t1 7.5q16 46 45 72q13 11 29 39q56 122 93.5 198.5t102 187.5t123.5 181q12 16 31 31q12 12 22 14q4 0 12.5 1t12.5 1q13 0 24 -8q11 -11 11 -19q0 -6 -3.5 -15t-4.5 -13
q-18 -50 -52 -113q-132 -258 -311 -506q-21 -31 -41 -49q-28 -28 -43 -69q-201 -507 -201 -676v-13q0 -28 10 -56t33 -28q33 0 99.5 45.5t112.5 86t87 79.5q162 162 375 418q317 378 565 715q22 32 41 68q81 146 168 262q14 14 35 14q15 0 21 -2q14 -4 14 -14q0 -3 -4 -11
q-1 -2 -19 -32q-15 -22 -51 -78t-57 -86zM635 1329q-130 -178 -264 -467q183 280 264 467zM1225 1997q37 0 37 -15q0 -6 -9 -10q-2 -2 -6 -2q-13 0 -26.5 -5t-20.5 -9.5t-22.5 -16t-20.5 -14.5q-44 -30 -96 -76q-12 -12 -27 -12h-6q-10 3 -10 10q0 4 2 8q3 6 10 13
q123 129 195 129z" />
    <glyph glyph-name="Ucircumflex" unicode="&#xdb;" horiz-adv-x="1261" 
d="M1487 1313q-31 -41 -64 -105q-291 -567 -483 -1130q-82 -242 -96 -406q-3 -24 -25 -24h-8q-14 0 -18.5 5.5t-4.5 22.5q3 116 46 269q51 185 165 481q119 302 213 498q9 14 9 24v4q-13 -17 -35 -43q-285 -367 -527 -645q-179 -203 -311 -315q-153 -129 -248 -129h-8
q-52 1 -72 33t-20 86q0 108 73.5 334.5t135.5 359.5q4 12 4 16q0 7 -6 13q-2 4 -2 10q0 3 1 8.5t1 7.5q16 46 45 72q13 11 29 39q56 122 93.5 198.5t102 187.5t123.5 181q12 16 31 31q12 12 22 14q4 0 12.5 1t12.5 1q13 0 24 -8q11 -11 11 -19q0 -6 -3.5 -15t-4.5 -13
q-18 -50 -52 -113q-132 -258 -311 -506q-21 -31 -41 -49q-28 -28 -43 -69q-201 -507 -201 -676v-13q0 -28 10 -56t33 -28q33 0 99.5 45.5t112.5 86t87 79.5q162 162 375 418q317 378 565 715q22 32 41 68q81 146 168 262q14 14 35 14q15 0 21 -2q14 -4 14 -14q0 -3 -4 -11
q-1 -2 -19 -32q-15 -22 -51 -78t-57 -86zM635 1329q-130 -178 -264 -467q183 280 264 467zM1253 1860h4q15 0 15 -9v-4q0 -8 -11.5 -13t-21.5 -5q-28 0 -43 18q-23 29 -33 115q-20 -18 -49 -47q-59 -59 -67 -66q-16 -16 -39 -16h-7q-18 0 -18 14v2q0 25 14 25h4q13 0 22.5 5
t22.5 18.5t15 15.5q13 12 36 33.5t36 33.5q17 17 47 17q34 0 39 -39q8 -47 14 -74q4 -24 20 -24z" />
    <glyph glyph-name="Udieresis" unicode="&#xdc;" horiz-adv-x="1261" 
d="M1487 1313q-31 -41 -64 -105q-291 -567 -483 -1130q-82 -242 -96 -406q-3 -24 -25 -24h-8q-14 0 -18.5 5.5t-4.5 22.5q3 116 46 269q51 185 165 481q119 302 213 498q9 14 9 24v4q-13 -17 -35 -43q-285 -367 -527 -645q-179 -203 -311 -315q-153 -129 -248 -129h-8
q-52 1 -72 33t-20 86q0 108 73.5 334.5t135.5 359.5q4 12 4 16q0 7 -6 13q-2 4 -2 10q0 3 1 8.5t1 7.5q16 46 45 72q13 11 29 39q56 122 93.5 198.5t102 187.5t123.5 181q12 16 31 31q12 12 22 14q4 0 12.5 1t12.5 1q13 0 24 -8q11 -11 11 -19q0 -6 -3.5 -15t-4.5 -13
q-18 -50 -52 -113q-132 -258 -311 -506q-21 -31 -41 -49q-28 -28 -43 -69q-201 -507 -201 -676v-13q0 -28 10 -56t33 -28q33 0 99.5 45.5t112.5 86t87 79.5q162 162 375 418q317 378 565 715q22 32 41 68q81 146 168 262q14 14 35 14q15 0 21 -2q14 -4 14 -14q0 -3 -4 -11
q-1 -2 -19 -32q-15 -22 -51 -78t-57 -86zM635 1329q-130 -178 -264 -467q183 280 264 467zM1087 1829q0 24 18 38.5t42 14.5q21 0 39 -14q8 -5 8 -15q0 -2 -4 -10q-11 -39 -60 -39h-10q-33 3 -33 25zM948 1829q0 24 18 38.5t42 14.5q22 0 39 -14q8 -5 8 -15q0 -2 -4 -10
q-11 -39 -60 -39h-10q-33 3 -33 25z" />
    <glyph glyph-name="Yacute" unicode="&#xdd;" horiz-adv-x="1075" 
d="M-362 2q-28 0 -47 12t-28.5 34.5t-13.5 43t-6 47.5q-2 16 -2 47q0 54 17 179q28 224 94 475q1 4 2 10.5t2 9.5q-4 2 -12 2h-13q-2 0 -7 1t-7 1.5t-5.5 2t-5.5 4t-3 6.5q0 1 -1 3.5t-1 4.5q0 12 16 24q3 6 10 6q26 0 39 16.5t23 45.5q8 24 21 66.5t24.5 78t23.5 66.5
q35 87 66 131q14 26 41 49q18 18 51 18q24 0 36.5 -7.5t12.5 -30.5q0 -6 -10 -41q-55 -130 -184 -316q-18 -25 -23 -45q-137 -485 -137 -807q13 -100 35 -100q5 0 22 10q23 16 58 51q61 62 225 262q23 29 208.5 261.5t286.5 351.5q116 136 195 213q102 112 176 112
q48 0 65 -27t17 -77q0 -21 -4 -57q-14 -85 -59 -207q-51 -133 -160 -361q-356 -730 -682 -1257q-151 -242 -250 -361q-37 -46 -63 -65q-28 -25 -66 -25h-8q-24 3 -35 14.5t-12 35.5q0 64 38 164.5t83 187.5q125 256 313.5 513t388.5 431l8 8t12 8q7 1 12.5 3.5t10 9t6.5 8.5
t6.5 12.5t5.5 11.5q208 420 275 576q102 235 102 352q0 21 -6 39q0 6 -4 14l-4 4q-26 -6 -96 -75t-115 -119q-113 -127 -422 -510q-259 -325 -338 -414q-59 -66 -104 -100q-44 -35 -88 -35h-6zM367 117q2 2 2 10q0 4 -2 6q-341 -341 -600 -844q-129 -258 -129 -352v-10
q26 33 34 43q57 70 99 131q306 456 596 1016zM592 1927q37 0 37 -14q0 -6 -8 -10q-2 -2 -7 -2q-13 0 -26.5 -5t-21 -10t-22 -16t-20.5 -15q-50 -35 -96 -75q-13 -13 -27 -13h-6q-10 3 -10 11q0 4 2 8t10 12q123 129 195 129z" />
    <glyph glyph-name="Thorn" unicode="&#xde;" horiz-adv-x="772" 
d="M492 819q37 0 79 -5.5t90 -18.5t79.5 -41t31.5 -66q0 -13 -8 -41q-12 -32 -47 -67q-148 -153 -461 -199q-25 -3 -33 -25l-110 -252l-25 -49q-9 -18 -29 -18t-20 10q0 8 4 14q20 47 60 141.5t59 141.5q8 16 8 25q-6 6 -12 6q-2 0 -6.5 -1t-6.5 -1q-50 4 -73 12
q-32 14 -45 35q-4 8 -4 10q0 5 12 8q2 0 7 1t7 1q15 0 25 -10q12 -15 29 -22t30 -8t37 -1q18 4 23 15q20 48 72.5 166.5t78.5 183.5q0 6 -8 6q-1 0 -4.5 -1t-5.5 -1q-156 -34 -263 -119q-12 -8 -12 -16q0 -6 4 -10q0 -9 -6 -11t-16 -2q-15 0 -21 4q-12 9 -12 17q0 2 4 14
q30 53 138.5 98.5t191.5 59.5q32 6 41 33q7 18 26.5 64.5t31.5 80.5t20 66q3 22 24 22q2 0 6 -1t6 -1q17 -6 17 -20v-9q-1 -10 -3.5 -20t-7 -22.5t-6.5 -18.5q-8 -26 -51 -139q-6 -12 -6 -17q0 -4 21 -4q6 0 19.5 1t19.5 1zM694 649q11 26 11 39q0 33 -31.5 55t-69.5 29
q-48 14 -123 14h-43q-21 0 -35 -24q-20 -47 -141 -320q-10 -20 -10 -30h10q348 76 432 237z" />
    <glyph glyph-name="germandbls" unicode="&#xdf;" horiz-adv-x="718" 
d="M653 1178h13q53 -6 53 -50q0 -50 -61.5 -140.5t-117.5 -152.5t-114 -120q-16 -12 -20 -23q11 2 29.5 7t25.5 6q38 10 67 10q5 0 15.5 -1t15.5 -1q54 -3 84.5 -33t30.5 -80q0 -17 -2 -25q-16 -109 -122 -298t-245.5 -342.5t-230.5 -153.5h-17q-51 3 -51 55q0 30 17 64
q72 189 319 415q16 13 33 13h8q10 -3 10 -9l-4 -8l-18 -18q-36 -35 -84 -88.5t-101.5 -121t-90 -135.5t-36.5 -112v-8q3 -21 17 -21q6 0 12 3q89 40 207.5 183t207 302t109.5 258q6 18 6 39q0 4 -1 11t-1 11q-3 34 -23.5 54t-55.5 20q-48 0 -116.5 -27t-117.5 -59
q-21 -14 -37 -14q-24 0 -26 10q0 1 -1 2t-1 2q0 6 8 10q21 21 45 39q103 90 205 206t147 214q14 37 14 51v11q0 14 -10 14q-49 0 -143 -70q-246 -182 -344 -540q-2 -8 -25.5 -87.5t-34.5 -121.5q-18 -61 -37 -80q-9 -12 -28 -12q-13 0 -17 2q-18 8 -18 32v13q0 15 3 20.5
t13 5.5q1 0 5 -1t6 -1q4 -2 10 -2q3 0 5 0.5t3.5 2.5t2 3.5t1.5 5t2 5.5q9 35 27.5 105t27.5 105q51 196 140 336q43 66 105 133t146.5 122t155.5 55z" />
    <glyph glyph-name="agrave" unicode="&#xe0;" horiz-adv-x="690" 
d="M119 287q-160 -152 -230 -197q-28 -14 -59 -14q-36 0 -39 24q0 52 27 114.5t68 117t80 96.5t71 68q21 18 57 18q21 0 35.5 -10t22.5 -29t11.5 -34t6.5 -38q4 3 13.5 11t13.5 11t11.5 7.5t15 6.5t16.5 3h6q39 0 39 -16q0 -2 -4 -14q-72 -141 -86 -222l-2 -8q0 -32 18 -32
q6 0 10 2q169 63 328 170q4 2 14 7.5t15 7.5t13.5 4.5t16.5 2.5h10q13 -3 13 -6q0 -7 -47 -35q-266 -163 -359 -176q-12 -2 -32 -2q-66 0 -66 53q0 16 5.5 37t14.5 44t11 32l4 8q0 4 -6 4q-2 2 -9 2q-14 0 -28 -18zM86 477q-62 -58 -108 -115t-68.5 -96.5t-35.5 -76.5
t-15 -52.5t-2 -27.5v-3q15 0 50.5 34.5t86.5 88.5t78 78q43 34 43 72q0 18 -10 51t-19 47zM123 887q43 -43 65 -105q0 -2 1 -5t1 -5q0 -7 -12 -10h-6q-20 0 -29 18q-25 46 -80 101q-1 1 -4 3t-4.5 4t-1.5 5q0 2 2 4q3 8 17 8h12q17 0 39 -18z" />
    <glyph glyph-name="aacute" unicode="&#xe1;" horiz-adv-x="690" 
d="M119 287q-160 -152 -230 -197q-28 -14 -59 -14q-36 0 -39 24q0 52 27 114.5t68 117t80 96.5t71 68q21 18 57 18q21 0 35.5 -10t22.5 -29t11.5 -34t6.5 -38q4 3 13.5 11t13.5 11t11.5 7.5t15 6.5t16.5 3h6q39 0 39 -16q0 -2 -4 -14q-72 -141 -86 -222l-2 -8q0 -32 18 -32
q6 0 10 2q169 63 328 170q4 2 14 7.5t15 7.5t13.5 4.5t16.5 2.5h10q13 -3 13 -6q0 -7 -47 -35q-266 -163 -359 -176q-12 -2 -32 -2q-66 0 -66 53q0 16 5.5 37t14.5 44t11 32l4 8q0 4 -6 4q-2 2 -9 2q-14 0 -28 -18zM86 477q-62 -58 -108 -115t-68.5 -96.5t-35.5 -76.5
t-15 -52.5t-2 -27.5v-3q15 0 50.5 34.5t86.5 88.5t78 78q43 34 43 72q0 18 -10 51t-19 47zM319 989q37 0 37 -14q0 -6 -8 -10q-2 -2 -6 -2q-13 0 -26.5 -5t-20.5 -9.5t-22.5 -16t-20.5 -14.5q-44 -30 -96 -76q-13 -13 -27 -13h-6q-10 3 -10 11q0 4 2 8t10 12
q123 129 194 129z" />
    <glyph glyph-name="acircumflex" unicode="&#xe2;" horiz-adv-x="690" 
d="M119 287q-160 -152 -230 -197q-28 -14 -59 -14q-36 0 -39 24q0 52 27 114.5t68 117t80 96.5t71 68q21 18 57 18q21 0 35.5 -10t22.5 -29t11.5 -34t6.5 -38q4 3 13.5 11t13.5 11t11.5 7.5t15 6.5t16.5 3h6q39 0 39 -16q0 -2 -4 -14q-72 -141 -86 -222l-2 -8q0 -32 18 -32
q6 0 10 2q169 63 328 170q4 2 14 7.5t15 7.5t13.5 4.5t16.5 2.5h10q13 -3 13 -6q0 -7 -47 -35q-266 -163 -359 -176q-12 -2 -32 -2q-66 0 -66 53q0 16 5.5 37t14.5 44t11 32l4 8q0 4 -6 4q-2 2 -9 2q-14 0 -28 -18zM86 477q-62 -58 -108 -115t-68.5 -96.5t-35.5 -76.5
t-15 -52.5t-2 -27.5v-3q15 0 50.5 34.5t86.5 88.5t78 78q43 34 43 72q0 18 -10 51t-19 47zM231 805h5q14 0 14 -8v-4q0 -8 -12 -13.5t-21 -5.5q-27 0 -43 19q-23 29 -33 114q-20 -18 -49 -47q-52 -52 -67 -65q-17 -17 -39 -17h-6q-19 0 -19 15v2q0 24 14 24h5q13 0 22.5 5
t21.5 18.5t15 15.5q13 12 36 34.5t36 33.5q16 16 47 16q34 0 39 -39q8 -47 14 -74q4 -24 20 -24z" />
    <glyph glyph-name="atilde" unicode="&#xe3;" horiz-adv-x="690" 
d="M119 287q-160 -152 -230 -197q-28 -14 -59 -14q-36 0 -39 24q0 52 27 114.5t68 117t80 96.5t71 68q21 18 57 18q21 0 35.5 -10t22.5 -29t11.5 -34t6.5 -38q4 3 13.5 11t13.5 11t11.5 7.5t15 6.5t16.5 3h6q39 0 39 -16q0 -2 -4 -14q-72 -141 -86 -222l-2 -8q0 -32 18 -32
q6 0 10 2q169 63 328 170q4 2 14 7.5t15 7.5t13.5 4.5t16.5 2.5h10q13 -3 13 -6q0 -7 -47 -35q-266 -163 -359 -176q-12 -2 -32 -2q-66 0 -66 53q0 16 5.5 37t14.5 44t11 32l4 8q0 4 -6 4q-2 2 -9 2q-14 0 -28 -18zM86 477q-62 -58 -108 -115t-68.5 -96.5t-35.5 -76.5
t-15 -52.5t-2 -27.5v-3q15 0 50.5 34.5t86.5 88.5t78 78q43 34 43 72q0 18 -10 51t-19 47zM258 932h10q11 0 15 -6q2 -2 2 -6q0 -7 -6 -13q-5 -12 -17 -24q-52 -46 -119 -49q-83 4 -118 53q-8 8 -17 8q-7 0 -16 -6q-4 -3 -16.5 -11t-19.5 -16.5t-9 -21.5q0 -7 -10 -12
t-21 -5q-8 0 -16 4q-4 4 -4 9q0 6 2 8q19 31 49.5 52.5t64.5 21.5q33 0 62 -23q1 -1 4 -3t4 -3q39 -25 72 -25q52 0 88 51q7 15 16 17z" />
    <glyph glyph-name="adieresis" unicode="&#xe4;" horiz-adv-x="690" 
d="M119 287q-160 -152 -230 -197q-28 -14 -59 -14q-36 0 -39 24q0 52 27 114.5t68 117t80 96.5t71 68q21 18 57 18q21 0 35.5 -10t22.5 -29t11.5 -34t6.5 -38q4 3 13.5 11t13.5 11t11.5 7.5t15 6.5t16.5 3h6q39 0 39 -16q0 -2 -4 -14q-72 -141 -86 -222l-2 -8q0 -32 18 -32
q6 0 10 2q169 63 328 170q4 2 14 7.5t15 7.5t13.5 4.5t16.5 2.5h10q13 -3 13 -6q0 -7 -47 -35q-266 -163 -359 -176q-12 -2 -32 -2q-66 0 -66 53q0 16 5.5 37t14.5 44t11 32l4 8q0 4 -6 4q-2 2 -9 2q-14 0 -28 -18zM86 477q-62 -58 -108 -115t-68.5 -96.5t-35.5 -76.5
t-15 -52.5t-2 -27.5v-3q15 0 50.5 34.5t86.5 88.5t78 78q43 34 43 72q0 18 -10 51t-19 47zM160 825q0 24 17.5 39t41.5 15q20 0 39 -15q8 -5 8 -14q0 -2 -4 -10q-11 -39 -59 -39h-10q-33 3 -33 24zM20 825q0 24 18 39t42 15q20 0 39 -15q8 -5 8 -14q0 -2 -4 -10
q-11 -39 -60 -39h-10q-33 3 -33 24z" />
    <glyph glyph-name="aring" unicode="&#xe5;" horiz-adv-x="690" 
d="M119 287q-160 -152 -230 -197q-28 -14 -59 -14q-36 0 -39 24q0 52 27 114.5t68 117t80 96.5t71 68q21 18 57 18q21 0 35.5 -10t22.5 -29t11.5 -34t6.5 -38q4 3 13.5 11t13.5 11t11.5 7.5t15 6.5t16.5 3h6q39 0 39 -16q0 -2 -4 -14q-72 -141 -86 -222l-2 -8q0 -32 18 -32
q6 0 10 2q169 63 328 170q4 2 14 7.5t15 7.5t13.5 4.5t16.5 2.5h10q13 -3 13 -6q0 -7 -47 -35q-266 -163 -359 -176q-12 -2 -32 -2q-66 0 -66 53q0 16 5.5 37t14.5 44t11 32l4 8q0 4 -6 4q-2 2 -9 2q-14 0 -28 -18zM86 477q-62 -58 -108 -115t-68.5 -96.5t-35.5 -76.5
t-15 -52.5t-2 -27.5v-3q15 0 50.5 34.5t86.5 88.5t78 78q43 34 43 72q0 18 -10 51t-19 47zM59 758q26 0 54 -13t28 -36q0 -33 -31.5 -56.5t-64.5 -23.5q-54 0 -76 43q-8 11 -8 26q0 29 33 44.5t65 15.5zM45 655q13 0 29 19.5t16 34.5v4q-4 14 -14 14q-7 0 -13 -6
q-12 -4 -14 -4q-4 0 -12 4q-4 2 -8 2q-8 0 -11 -6q-6 -9 -6 -17q0 -6 4 -18q11 -22 29 -27z" />
    <glyph glyph-name="ae" unicode="&#xe6;" horiz-adv-x="1218" 
d="M86 477q-194 -184 -217 -309q-12 -50 -12 -59v-3q16 0 49 33q47 47 74 76q49 52 92 92q43 34 43 72q0 8 -4 24q-1 3 -2.5 9.5t-2.5 9.5q-3 30 -20 55zM631 338q0 -4 -6 -10l-4 -4h10q46 0 85.5 34.5t39.5 79.5q0 15 -2 21q-72 -49 -123 -121zM500 254q-2 -2 -7.5 -5
t-7.5 -5q-205 -119 -292 -119q-66 0 -66 53q0 40 20 84q10 25 11 29l2 2q2 2 2 6q0 1 -6 4q-2 2 -9 2q-10 0 -14 -4q-6 -3 -12 -12q-7 -6 -113 -103q-83 -73 -119 -96q-25 -14 -59 -14q-16 0 -25 6q-11 3 -14 18q0 67 42.5 147t94.5 140t109 109q27 18 57 18q33 0 49 -22
q21 -40 27 -89q13 13 37 29q9 7 33 10h6q18 0 30 -4q9 -3 9 -12q0 -2 -4 -14q-2 -2 -2 -4q-56 -104 -84 -218l-2 -8q0 -32 18 -32q6 0 10 2q156 55 314 159l2 4q2 0 4 4v3q-2 2 -2 6v2q0 10 6 16q8 4 14 6q1 1 3 2t3 2q9 3 31 31q24 27 59 62q18 15 28.5 22.5t27 14
t34.5 6.5q54 0 72 -33q0 -2 2 -4q2 -6 2 -17v-10q-21 -106 -135 -133h-6q-20 -4 -25 -4q-16 0 -32 4h-15h-8q-2 0 -6 -4q-59 -74 -59 -113q0 -49 75 -49q110 0 279 62.5t244 134.5q3 3 12 6q4 2 12 2q17 0 27 -10v-2q-3 -6 -4 -7q-38 -56 -188 -121t-242 -85q-20 -7 -45 -11
q-31 -8 -78 -8q-88 0 -127 49v2l-2 2q-11 19 -11 47q0 17 11 54q0 1 1 4.5t1 5.5z" />
    <glyph glyph-name="ccedilla" unicode="&#xe7;" horiz-adv-x="425" 
d="M-197 45q-18 8 -28 31q-4 20 -4 33q8 50 32.5 112t60.5 120.5t85.5 98t99.5 39.5q18 0 38.5 -7.5t23.5 -20.5q2 -2 2 -15q-8 -35 -31 -67q-12 -15 -31 -15q-15 0 -28 13q0 6 2 8l4 4q20 20 26 57l4 13q-52 -5 -106 -73t-85.5 -147t-31.5 -127q0 -28 12 -34q4 -7 13 -7h6
q2 0 4 2q75 20 231 116.5t203 150.5q5 14 29 14q13 0 16 -8v-4q0 -2 -2 -4q-52 -70 -178.5 -151t-232.5 -126q-14 -7 -35 -10q-24 -6 -47 -6q-15 0 -23 2q3 -5 -2 -10q-1 -1 -4 -3.5t-4 -3.5h-4q34 -10 41 -20q9 -15 6 -25q-3 -19 -25 -32q-21 -15 -49 -15q-5 0 -9.5 4.5
t-4.5 8.5q0 14 14 14q23 4 33 10q14 6 14 12q0 5 -2 7q-4 4 -35 12q-1 1 -3 2t-3 2q-10 10 -10 16q-4 7 0 11q3 9 10 14z" />
    <glyph glyph-name="egrave" unicode="&#xe8;" horiz-adv-x="583" 
d="M-74 322q-2 4 -2 8q0 6 3 10.5t6.5 6.5t9.5 5l8 4q5 2 32 33t61.5 62.5t61.5 37.5q12 3 25 3q58 0 72 -33q4 -16 4 -21v-10q-25 -107 -135 -133q-24 -4 -31 -4q-13 0 -28.5 2t-18.5 2q-10 0 -14 -4q-60 -75 -60 -113q0 -49 86 -49q106 0 278 66.5t234 130.5q8 8 25 8
q20 0 24 -8q2 -2 2 -4q0 -3 -4 -7q-33 -50 -184.5 -117.5t-245.5 -88.5q-47 -19 -123 -19q-94 0 -127 49q-12 18 -12 51q0 56 45 119q1 2 4.5 5.5t3.5 4.5v3zM139 459q-65 -41 -133 -135h10q46 0 85.5 35.5t39.5 78.5q0 15 -2 21zM164 887q43 -43 65 -105q0 -2 1 -5t1 -5
q0 -7 -12 -10h-6q-20 0 -29 18q-25 46 -80 101q-1 1 -4 3t-4.5 4t-1.5 5q0 2 2 4q3 8 17 8h12q17 0 39 -18z" />
    <glyph glyph-name="eacute" unicode="&#xe9;" horiz-adv-x="583" 
d="M-74 322q-2 4 -2 8q0 6 3 10.5t6.5 6.5t9.5 5l8 4q5 2 32 33t61.5 62.5t61.5 37.5q12 3 25 3q58 0 72 -33q4 -16 4 -21v-10q-25 -107 -135 -133q-24 -4 -31 -4q-13 0 -28.5 2t-18.5 2q-10 0 -14 -4q-60 -75 -60 -113q0 -49 86 -49q106 0 278 66.5t234 130.5q8 8 25 8
q20 0 24 -8q2 -2 2 -4q0 -3 -4 -7q-33 -50 -184.5 -117.5t-245.5 -88.5q-47 -19 -123 -19q-94 0 -127 49q-12 18 -12 51q0 56 45 119q1 2 4.5 5.5t3.5 4.5v3zM139 459q-65 -41 -133 -135h10q46 0 85.5 35.5t39.5 78.5q0 15 -2 21zM285 975q37 0 37 -14q0 -7 -9 -11
q-2 -2 -6 -2q-13 0 -26.5 -5t-20.5 -9.5t-22.5 -16t-20.5 -14.5q-44 -30 -96 -76q-12 -12 -27 -12h-6q-10 3 -10 10q0 5 2 9t10 12q123 129 195 129z" />
    <glyph glyph-name="ecircumflex" unicode="&#xea;" horiz-adv-x="583" 
d="M-74 322q-2 4 -2 8q0 6 3 10.5t6.5 6.5t9.5 5l8 4q5 2 32 33t61.5 62.5t61.5 37.5q12 3 25 3q58 0 72 -33q4 -16 4 -21v-10q-25 -107 -135 -133q-24 -4 -31 -4q-13 0 -28.5 2t-18.5 2q-10 0 -14 -4q-60 -75 -60 -113q0 -49 86 -49q106 0 278 66.5t234 130.5q8 8 25 8
q20 0 24 -8q2 -2 2 -4q0 -3 -4 -7q-33 -50 -184.5 -117.5t-245.5 -88.5q-47 -19 -123 -19q-94 0 -127 49q-12 18 -12 51q0 56 45 119q1 2 4.5 5.5t3.5 4.5v3zM139 459q-65 -41 -133 -135h10q46 0 85.5 35.5t39.5 78.5q0 15 -2 21zM258 784h4q14 0 14 -8v-4q0 -8 -11 -13
t-21 -5q-28 0 -43 18q-23 29 -33 115q-20 -18 -49 -47q-53 -53 -68 -66q-16 -16 -39 -16h-6q-18 0 -18 14v2q0 25 14 25h4q13 0 22.5 5t22.5 18.5t15 15.5q12 11 35.5 33t35.5 34q17 17 47 17q34 0 39 -39q6 -34 15 -74q4 -25 20 -25z" />
    <glyph glyph-name="edieresis" unicode="&#xeb;" horiz-adv-x="583" 
d="M-74 322q-2 4 -2 8q0 6 3 10.5t6.5 6.5t9.5 5l8 4q5 2 32 33t61.5 62.5t61.5 37.5q12 3 25 3q58 0 72 -33q4 -16 4 -21v-10q-25 -107 -135 -133q-24 -4 -31 -4q-13 0 -28.5 2t-18.5 2q-10 0 -14 -4q-60 -75 -60 -113q0 -49 86 -49q106 0 278 66.5t234 130.5q8 8 25 8
q20 0 24 -8q2 -2 2 -4q0 -3 -4 -7q-33 -50 -184.5 -117.5t-245.5 -88.5q-47 -19 -123 -19q-94 0 -127 49q-12 18 -12 51q0 56 45 119q1 2 4.5 5.5t3.5 4.5v3zM139 459q-65 -41 -133 -135h10q46 0 85.5 35.5t39.5 78.5q0 15 -2 21zM201 825q0 24 17.5 39t41.5 15q20 0 39 -15
q8 -5 8 -14q0 -2 -4 -10q-11 -39 -59 -39h-11q-32 3 -32 24zM61 825q0 24 18 39t42 15q20 0 39 -15q8 -5 8 -14q0 -2 -4 -10q-11 -39 -60 -39h-10q-33 3 -33 24z" />
    <glyph glyph-name="igrave" unicode="&#xec;" 
d="M428 338q-33 -52 -130.5 -115.5t-174.5 -99.5q-71 -35 -137 -35q-45 0 -79 15.5t-34 52.5v6q8 93 66 184q11 14 36 14h5q38 -5 38 -24l-2 -6q-26 -12 -51.5 -65.5t-25.5 -96.5q0 -49 43 -49q2 0 7.5 1t8.5 1q79 13 204.5 86t180.5 135q12 12 27 12q11 0 14.5 -4t3.5 -12z
M84 680q44 -44 66 -105q0 -2 1 -5t1 -5q0 -7 -13 -10h-6q-20 0 -29 18q-26 48 -79 101q-1 1 -4.5 3t-5 4t-1.5 5q0 2 2 4q3 8 17 8h12q17 0 39 -18z" />
    <glyph glyph-name="iacute" unicode="&#xed;" 
d="M428 338q-33 -52 -130.5 -115.5t-174.5 -99.5q-71 -35 -137 -35q-45 0 -79 15.5t-34 52.5v6q8 93 66 184q11 14 36 14h5q38 -5 38 -24l-2 -6q-26 -12 -51.5 -65.5t-25.5 -96.5q0 -49 43 -49q2 0 7.5 1t8.5 1q79 13 204.5 86t180.5 135q12 12 27 12q11 0 14.5 -4t3.5 -12z
M184 752q37 0 37 -15q0 -6 -8 -10q-2 -2 -6 -2q-13 0 -26.5 -5t-20.5 -9.5t-22.5 -16t-20.5 -14.5q-49 -34 -97 -76q-12 -12 -26 -12h-6q-11 4 -11 10q0 2 3 8t10 13q123 129 194 129z" />
    <glyph glyph-name="icircumflex" unicode="&#xee;" 
d="M428 338q-33 -52 -130.5 -115.5t-174.5 -99.5q-71 -35 -137 -35q-45 0 -79 15.5t-34 52.5v6q8 93 66 184q11 14 36 14h5q38 -5 38 -24l-2 -6q-26 -12 -51.5 -65.5t-25.5 -96.5q0 -49 43 -49q2 0 7.5 1t8.5 1q79 13 204.5 86t180.5 135q12 12 27 12q11 0 14.5 -4t3.5 -12z
M207 678h4q14 0 14 -8v-4q0 -8 -11.5 -13.5t-20.5 -5.5q-27 0 -43 19q-23 29 -33 114q-20 -18 -49 -47q-45 -45 -68 -65q-17 -17 -39 -17h-6q-18 0 -18 15v2q0 24 14 24h4q13 0 22.5 5t21.5 18.5t15 15.5q13 11 36 34t36 34q16 16 47 16q34 0 39 -39q8 -47 14 -74
q4 -24 21 -24z" />
    <glyph glyph-name="idieresis" unicode="&#xef;" 
d="M428 338q-33 -52 -130.5 -115.5t-174.5 -99.5q-71 -35 -137 -35q-45 0 -79 15.5t-34 52.5v6q8 93 66 184q11 14 36 14h5q38 -5 38 -24l-2 -6q-26 -12 -51.5 -65.5t-25.5 -96.5q0 -49 43 -49q2 0 7.5 1t8.5 1q79 13 204.5 86t180.5 135q12 12 27 12q11 0 14.5 -4t3.5 -12z
M74 614q0 24 17.5 39t41.5 15q20 0 39 -15q8 -5 8 -14q0 -2 -4 -10q-11 -39 -59 -39h-11q-32 3 -32 24zM-66 614q0 24 18 39t42 15q20 0 39 -15q8 -5 8 -14q0 -2 -4 -10q-11 -39 -60 -39h-10q-33 3 -33 24z" />
    <glyph glyph-name="eth" unicode="&#xf0;" horiz-adv-x="686" 
d="M90 328q10 13 10 26q0 11 -6 23q-14 39 -37 39q-15 0 -39 -21q-117 -96 -155 -243q0 -25 8 -25q5 0 14 6q53 29 103 82q40 42 92 102zM532 844q-18 -48 -54.5 -144.5t-55.5 -144.5q-11 -21 -21 -51q-10 -23 -21.5 -52.5t-25.5 -68.5t-24 -64q-39 -101 -39 -153v-8
q0 -21 12 -21q10 0 33 10q89 53 231 181q17 10 27 10q16 0 16 -10q0 -7 -8 -15q-19 -15 -57 -49q-41 -36 -107 -88q-87 -67 -141 -67q-23 0 -41 12q-20 9 -20 43v8q6 58 43 158q53 147 114 291l74 190q0 4 2 6q2 4 2 12v2h-4q-8 -12 -10 -18q-2 -2 -2 -4
q-119 -234 -277 -449q-23 -33 -51 -61q-113 -135 -201 -186q-30 -15 -61 -15q-21 0 -39 11q-19 9 -19 38q0 47 41 119t101 128.5t106 56.5q45 0 92 -50q166 234 256 426h-28q-11 0 -17 -2q-36 0 -106 4h-6q-11 0 -13 2q-5 0 -8 9q0 7 6 10q2 1 6.5 2t6.5 2h8q36 8 80 8l61 6
q21 0 31 2q1 1 8 15q5 12 19 37q27 55 61 122q40 78 53 95q15 18 37 18q9 0 21 -4q8 -5 8 -16v-7q-7 -27 -15 -49l-73 -209q31 2 88 2h8q13 0 25 -6v-2h4v-4v-2q0 -8 -6 -8l-13 -4h-6q-6 2 -20 2q-13 0 -21 -2z" />
    <glyph glyph-name="ntilde" unicode="&#xf1;" horiz-adv-x="741" 
d="M197 211q9 41 27 101t22 75q8 28 8 49q-29 -9 -90.5 -80t-128 -159.5t-76.5 -100.5q-2 -3 -12.5 -14.5t-15.5 -16.5t-15.5 -14.5t-18 -14t-17.5 -9t-19 -4.5h-6q-39 0 -39 36q0 50 42 168.5t70 155.5q11 14 39 14q22 0 37 -6q6 -3 6 -12q0 -10 -4 -10q-33 -35 -87 -156
t-54 -152q0 -8 2 -10h2q12 0 82.5 91.5t151.5 193.5t112 119q24 14 51 14q45 0 45 -41v-6q-2 -25 -28 -114t-33 -130q-4 -16 -4 -24q0 -9 4 -13h6q30 0 150.5 60t168.5 94q46 35 62 44t37 9q10 0 10 -8q0 -11 -12 -23q-102 -72 -301 -172q-49 -22 -74 -28t-72 -6
q-41 8 -41 43q0 18 13 57zM270 932h11q10 0 14 -6q2 -2 2 -6q0 -7 -6 -13q-5 -12 -17 -24q-52 -46 -118 -49q-34 2 -68 15.5t-51 37.5q-8 8 -17 8q-7 0 -16 -6q-4 -3 -16.5 -11t-19.5 -16.5t-9 -21.5q0 -7 -10 -12t-21 -5q-8 0 -16 4q-4 4 -4 9q0 6 2 8q19 31 50 52.5
t65 21.5q32 0 61 -23q1 -1 4 -3t4 -3q39 -25 72 -25q52 0 88 51q7 15 16 17z" />
    <glyph glyph-name="ograve" unicode="&#xf2;" horiz-adv-x="573" 
d="M182 520h15q47 -3 76.5 -29.5t29.5 -66.5v-12q-4 -25 -14.5 -48.5t-20 -37.5t-32.5 -45q18 0 126.5 22.5t141.5 38.5q12 6 28 6q15 0 15 -8q0 -23 -135 -61t-193 -46q-25 -3 -37 -18q-96 -101 -155 -129q-29 -16 -60 -16q-48 0 -51 41v4q0 48 45 125q-2 2 -18 10.5
t-28.5 22.5t-12.5 34q0 13 4 21q3 18 14 32q41 69 113 114.5t149 45.5zM-16 113q19 0 66 41t71 69h-19q-26 0 -84 8h-2q-3 0 -5 -1.5t-4 -4.5t-3 -4q-29 -58 -29 -88v-8q3 -12 9 -12zM160 274q82 91 82 154v10q-4 27 -23.5 41.5t-46.5 14.5q-23 0 -49 -13q-45 -19 -99.5 -68
t-54.5 -89q0 -19 19 -35q4 -4 8 -4q3 0 7 4t12.5 11t19.5 13q18 9 37 9q22 0 22 -9q0 -6 -8 -6q-5 0 -9.5 -1.5t-9 -4t-7.5 -4t-7.5 -6l-6 -6t-7 -8t-6.5 -7.5q31 -8 65 -8q16 0 52 4q8 4 10 8zM178 887q44 -44 66 -105q0 -2 1 -5t1 -5q0 -7 -13 -10h-6q-19 0 -28 18
q-25 46 -80 101q-1 1 -4 3t-4.5 4t-1.5 5q0 2 2 4q3 8 16 8h12q17 0 39 -18z" />
    <glyph glyph-name="oacute" unicode="&#xf3;" horiz-adv-x="573" 
d="M182 520h15q47 -3 76.5 -29.5t29.5 -66.5v-12q-4 -25 -14.5 -48.5t-20 -37.5t-32.5 -45q18 0 126.5 22.5t141.5 38.5q12 6 28 6q15 0 15 -8q0 -23 -135 -61t-193 -46q-25 -3 -37 -18q-96 -101 -155 -129q-29 -16 -60 -16q-48 0 -51 41v4q0 48 45 125q-2 2 -18 10.5
t-28.5 22.5t-12.5 34q0 13 4 21q3 18 14 32q41 69 113 114.5t149 45.5zM-16 113q19 0 66 41t71 69h-19q-26 0 -84 8h-2q-3 0 -5 -1.5t-4 -4.5t-3 -4q-29 -58 -29 -88v-8q3 -12 9 -12zM160 274q82 91 82 154v10q-4 27 -23.5 41.5t-46.5 14.5q-23 0 -49 -13q-45 -19 -99.5 -68
t-54.5 -89q0 -19 19 -35q4 -4 8 -4q3 0 7 4t12.5 11t19.5 13q18 9 37 9q22 0 22 -9q0 -6 -8 -6q-5 0 -9.5 -1.5t-9 -4t-7.5 -4t-7.5 -6l-6 -6t-7 -8t-6.5 -7.5q31 -8 65 -8q16 0 52 4q8 4 10 8zM375 989q37 0 37 -14q0 -5 -9 -10q-2 -2 -6 -2q-13 0 -26.5 -5t-20.5 -9.5
t-22.5 -16t-20.5 -14.5q-44 -30 -96 -76q-13 -13 -27 -13h-6q-10 3 -10 11q0 4 2 8t10 12q123 129 195 129z" />
    <glyph glyph-name="ocircumflex" unicode="&#xf4;" horiz-adv-x="573" 
d="M182 520h15q47 -3 76.5 -29.5t29.5 -66.5v-12q-4 -25 -14.5 -48.5t-20 -37.5t-32.5 -45q18 0 126.5 22.5t141.5 38.5q12 6 28 6q15 0 15 -8q0 -23 -135 -61t-193 -46q-25 -3 -37 -18q-96 -101 -155 -129q-29 -16 -60 -16q-48 0 -51 41v4q0 48 45 125q-2 2 -18 10.5
t-28.5 22.5t-12.5 34q0 13 4 21q3 18 14 32q41 69 113 114.5t149 45.5zM-16 113q19 0 66 41t71 69h-19q-26 0 -84 8h-2q-3 0 -5 -1.5t-4 -4.5t-3 -4q-29 -58 -29 -88v-8q3 -12 9 -12zM160 274q82 91 82 154v10q-4 27 -23.5 41.5t-46.5 14.5q-23 0 -49 -13q-45 -19 -99.5 -68
t-54.5 -89q0 -19 19 -35q4 -4 8 -4q3 0 7 4t12.5 11t19.5 13q18 9 37 9q22 0 22 -9q0 -6 -8 -6q-5 0 -9.5 -1.5t-9 -4t-7.5 -4t-7.5 -6l-6 -6t-7 -8t-6.5 -7.5q31 -8 65 -8q16 0 52 4q8 4 10 8zM287 840h4q14 0 14 -9v-4q0 -8 -11.5 -13t-21.5 -5q-28 0 -43 18
q-22 28 -32 115q-30 -27 -50 -47q-59 -59 -67 -66q-16 -16 -39 -16h-6q-19 0 -19 14v2q0 25 15 25h4q13 0 22.5 5t21.5 18.5t15 15.5q12 11 35.5 33.5t36.5 34.5q16 16 47 16q34 0 39 -39q8 -47 14 -74q4 -24 21 -24z" />
    <glyph glyph-name="otilde" unicode="&#xf5;" horiz-adv-x="573" 
d="M182 520h15q47 -3 76.5 -29.5t29.5 -66.5v-12q-4 -25 -14.5 -48.5t-20 -37.5t-32.5 -45q18 0 126.5 22.5t141.5 38.5q12 6 28 6q15 0 15 -8q0 -23 -135 -61t-193 -46q-25 -3 -37 -18q-96 -101 -155 -129q-29 -16 -60 -16q-48 0 -51 41v4q0 48 45 125q-2 2 -18 10.5
t-28.5 22.5t-12.5 34q0 13 4 21q3 18 14 32q41 69 113 114.5t149 45.5zM-16 113q19 0 66 41t71 69h-19q-26 0 -84 8h-2q-3 0 -5 -1.5t-4 -4.5t-3 -4q-29 -58 -29 -88v-8q3 -12 9 -12zM160 274q82 91 82 154v10q-4 27 -23.5 41.5t-46.5 14.5q-23 0 -49 -13q-45 -19 -99.5 -68
t-54.5 -89q0 -19 19 -35q4 -4 8 -4q3 0 7 4t12.5 11t19.5 13q18 9 37 9q22 0 22 -9q0 -6 -8 -6q-5 0 -9.5 -1.5t-9 -4t-7.5 -4t-7.5 -6l-6 -6t-7 -8t-6.5 -7.5q31 -8 65 -8q16 0 52 4q8 4 10 8zM313 932h11q10 0 14 -6q2 -2 2 -6q0 -7 -6 -13q-5 -12 -17 -24
q-52 -46 -118 -49q-34 2 -68 15.5t-51 37.5q-8 8 -17 8q-7 0 -16 -6q-4 -3 -16.5 -11t-19.5 -16.5t-9 -21.5q0 -7 -10 -12t-21 -5q-8 0 -16 4q-4 4 -4 9q0 6 2 8q19 31 50 52.5t65 21.5q32 0 61 -23q1 -1 4 -3t4 -3q39 -25 72 -25q52 0 88 51q7 15 16 17z" />
    <glyph glyph-name="odieresis" unicode="&#xf6;" horiz-adv-x="573" 
d="M182 520h15q47 -3 76.5 -29.5t29.5 -66.5v-12q-4 -25 -14.5 -48.5t-20 -37.5t-32.5 -45q18 0 126.5 22.5t141.5 38.5q12 6 28 6q15 0 15 -8q0 -23 -135 -61t-193 -46q-25 -3 -37 -18q-96 -101 -155 -129q-29 -16 -60 -16q-48 0 -51 41v4q0 48 45 125q-2 2 -18 10.5
t-28.5 22.5t-12.5 34q0 13 4 21q3 18 14 32q41 69 113 114.5t149 45.5zM-16 113q19 0 66 41t71 69h-19q-26 0 -84 8h-2q-3 0 -5 -1.5t-4 -4.5t-3 -4q-29 -58 -29 -88v-8q3 -12 9 -12zM160 274q82 91 82 154v10q-4 27 -23.5 41.5t-46.5 14.5q-23 0 -49 -13q-45 -19 -99.5 -68
t-54.5 -89q0 -19 19 -35q4 -4 8 -4q3 0 7 4t12.5 11t19.5 13q18 9 37 9q22 0 22 -9q0 -6 -8 -6q-5 0 -9.5 -1.5t-9 -4t-7.5 -4t-7.5 -6l-6 -6t-7 -8t-6.5 -7.5q31 -8 65 -8q16 0 52 4q8 4 10 8zM215 825q0 24 17.5 39t41.5 15q20 0 39 -15q9 -6 9 -14l-5 -10
q-11 -39 -59 -39h-10q-33 3 -33 24zM76 825q0 24 17.5 39t41.5 15q20 0 39 -15q8 -5 8 -14q0 -2 -4 -10q-11 -39 -59 -39h-10q-33 3 -33 24z" />
    <glyph glyph-name="divide" unicode="&#xf7;" horiz-adv-x="503" 
d="M485 322l-16 2q-182 39 -350 59l-39 2l-49 -2q-31 0 -31 12q1 5 3 8.5t7 5.5t8 2.5t10.5 1.5t8.5 1l43 4q21 -1 42.5 -2.5t46.5 -4.5t41 -5t45.5 -7.5t40.5 -7.5t45 -9.5t39 -8.5t43 -10l38 -9q43 -5 43 -22q0 -10 -19 -10zM141 143q-39 3 -39 29q0 18 11.5 38t29.5 30
q8 8 25 8q45 0 45 -33q0 -25 -23 -48.5t-49 -23.5zM221 473q-31 0 -31 16q0 24 17.5 53t46.5 29l10 -2q8 0 8 -4l-4 -14q0 -2 1 -2.5t3.5 -0.5t3.5 -1l31 -6q6 -3 6 -9q0 -8 -6 -8q-18 -5 -44 -28t-42 -23z" />
    <glyph glyph-name="oslash" unicode="&#xf8;" horiz-adv-x="573" 
d="M6 262h4q15 0 51 4q9 5 11 8q82 92 82 152q-57 -60 -113 -125q-6 -6 -17.5 -19.5t-17.5 -19.5zM-27 225l-86 -98v-2q3 -12 9 -12q2 0 10 4q79 47 127 106h-19q-27 0 -41 2zM-172 111v4q0 24 14.5 62t30.5 63q-6 6 -12 8q-18 7 -31 20q-16 13 -16 39q0 9 4 21q2 12 14 32
q41 69 113 114.5t149 45.5h15q45 -6 69 -24q64 62 129 120q2 2 2 5q6 3 13 10q8 4 14 4h6h6q1 -1 2 -3t2 -3v-2q0 -9 -6 -9q-25 -24 -145 -143q14 -20 14 -51v-12q-6 -39 -22 -68q-19 -28 -46 -63q38 0 136 22.5t133 38.5q6 2 14 6h10h4q15 0 15 -8q0 -22 -128.5 -58
t-199.5 -49q-25 -3 -37 -18q-48 -54 -107.5 -99.5t-107.5 -45.5q-22 0 -35 8q-6 -8 -34 -41l-43 -43q-10 -10 -25 -10q-6 0 -8 2q-8 0 -8 6q0 4 2 6q0 2 2 4q15 15 98 109zM145 463q-8 12 -14 18q-23 13 -47 13q-48 0 -105 -44.5t-85 -91.5q-13 -16 -13 -34q0 -19 19 -35
q4 -4 8 -4q7 0 10 8q8 8 29 20q21 9 37 9q22 0 22 -9l37 41q58 65 102 109zM0 307h-2q-11 -2 -32 -15t-21 -22q3 -1 9 -2t9 -2zM-68 231h-4q-4 0 -6 -2q-1 -1 -3 -4t-3 -4q-1 -3 -4 -9t-4 -9z" />
    <glyph glyph-name="ugrave" unicode="&#xf9;" horiz-adv-x="622" 
d="M35 379q-30 -26 -53 -122t-27 -157q0 -21 6 -39q2 -2 4 -2q20 0 76 74q28 34 63.5 91t79.5 133t56 96q18 30 45 30q2 0 6.5 -1t7.5 -1q23 -6 23 -18q0 -2 -1.5 -6t-1.5 -6q-88 -215 -88 -316q0 -45 25 -45h4q38 7 143.5 98t163.5 156q8 12 19 12h14q10 0 12 -6q2 -2 2 -6
q0 -3 -2 -5t-5.5 -5t-4.5 -4q-12 -11 -70 -68t-101.5 -96.5t-99 -76t-89.5 -36.5h-4q-60 5 -60 74q0 16 4 53t4 45v8q-8 -5 -35.5 -43.5t-66 -84.5t-74.5 -70q-24 -15 -51 -15q-10 0 -22 3q-39 5 -39 71q0 29 2 39q35 264 120 264q21 0 21 -10q0 -2 -6 -8zM176 887
q44 -44 66 -105q0 -2 1 -5t1 -5q0 -7 -13 -10h-6q-19 0 -28 18q-25 46 -80 101q-1 1 -4.5 3t-5 4t-1.5 5q0 1 3 4q3 8 16 8h12q17 0 39 -18z" />
    <glyph glyph-name="uacute" unicode="&#xfa;" horiz-adv-x="622" 
d="M35 379q-30 -26 -53 -122t-27 -157q0 -21 6 -39q2 -2 4 -2q20 0 76 74q28 34 63.5 91t79.5 133t56 96q18 30 45 30q2 0 6.5 -1t7.5 -1q23 -6 23 -18q0 -2 -1.5 -6t-1.5 -6q-88 -215 -88 -316q0 -45 25 -45h4q38 7 143.5 98t163.5 156q8 12 19 12h14q10 0 12 -6q2 -2 2 -6
q0 -3 -2 -5t-5.5 -5t-4.5 -4q-12 -11 -70 -68t-101.5 -96.5t-99 -76t-89.5 -36.5h-4q-60 5 -60 74q0 16 4 53t4 45v8q-8 -5 -35.5 -43.5t-66 -84.5t-74.5 -70q-24 -15 -51 -15q-10 0 -22 3q-39 5 -39 71q0 29 2 39q35 264 120 264q21 0 21 -10q0 -2 -6 -8zM303 989
q37 0 37 -14q0 -6 -8 -10q-2 -2 -6 -2q-13 0 -26.5 -5t-20.5 -9.5t-22.5 -16t-20.5 -14.5q-49 -34 -97 -76q-13 -13 -26 -13h-7q-10 3 -10 11q0 4 2 8q1 2 11 12q123 129 194 129z" />
    <glyph glyph-name="ucircumflex" unicode="&#xfb;" horiz-adv-x="622" 
d="M35 379q-30 -26 -53 -122t-27 -157q0 -21 6 -39q2 -2 4 -2q20 0 76 74q28 34 63.5 91t79.5 133t56 96q18 30 45 30q2 0 6.5 -1t7.5 -1q23 -6 23 -18q0 -2 -1.5 -6t-1.5 -6q-88 -215 -88 -316q0 -45 25 -45h4q38 7 143.5 98t163.5 156q8 12 19 12h14q10 0 12 -6q2 -2 2 -6
q0 -3 -2 -5t-5.5 -5t-4.5 -4q-12 -11 -70 -68t-101.5 -96.5t-99 -76t-89.5 -36.5h-4q-60 5 -60 74q0 16 4 53t4 45v8q-8 -5 -35.5 -43.5t-66 -84.5t-74.5 -70q-24 -15 -51 -15q-10 0 -22 3q-39 5 -39 71q0 29 2 39q35 264 120 264q21 0 21 -10q0 -2 -6 -8zM285 840h4
q14 0 14 -9v-4q0 -8 -11.5 -13t-21.5 -5q-28 0 -43 18q-22 28 -32 115q-30 -27 -50 -47q-59 -59 -67 -66q-16 -16 -39 -16h-6q-19 0 -19 14v2q0 25 15 25h4q13 0 22.5 5t21.5 18.5t15 15.5q13 11 36.5 33.5t35.5 34.5q16 16 47 16q34 0 39 -39q8 -47 14 -74q4 -24 21 -24z
" />
    <glyph glyph-name="udieresis" unicode="&#xfc;" horiz-adv-x="622" 
d="M35 379q-30 -26 -53 -122t-27 -157q0 -21 6 -39q2 -2 4 -2q20 0 76 74q28 34 63.5 91t79.5 133t56 96q18 30 45 30q2 0 6.5 -1t7.5 -1q23 -6 23 -18q0 -2 -1.5 -6t-1.5 -6q-88 -215 -88 -316q0 -45 25 -45h4q38 7 143.5 98t163.5 156q8 12 19 12h14q10 0 12 -6q2 -2 2 -6
q0 -3 -2 -5t-5.5 -5t-4.5 -4q-12 -11 -70 -68t-101.5 -96.5t-99 -76t-89.5 -36.5h-4q-60 5 -60 74q0 16 4 53t4 45v8q-8 -5 -35.5 -43.5t-66 -84.5t-74.5 -70q-24 -15 -51 -15q-10 0 -22 3q-39 5 -39 71q0 29 2 39q35 264 120 264q21 0 21 -10q0 -2 -6 -8zM213 825
q0 24 17.5 39t41.5 15q20 0 39 -15q8 -5 8 -14q0 -2 -4 -10q-11 -39 -59 -39h-10q-33 3 -33 24zM74 825q0 24 17.5 39t41.5 15q20 0 39 -15q8 -5 8 -14q0 -2 -4 -10q-11 -39 -59 -39h-11q-32 3 -32 24z" />
    <glyph glyph-name="yacute" unicode="&#xfd;" horiz-adv-x="710" 
d="M-14 123h8q41 0 97 42.5t100.5 93.5t98 114.5t75.5 85.5q19 16 47 16h12q27 -5 27 -29q0 -6 -11 -45q-26 -80 -112 -282h4q4 0 12 8q61 53 171.5 133t143.5 80q19 0 19 -10q0 -5 -6 -8q-15 -12 -33 -21q-165 -97 -352 -289q-14 -12 -25 -37q-4 -7 -24 -50t-28.5 -60
t-29 -60t-33 -66.5t-32.5 -62.5t-35.5 -64.5t-34.5 -56.5t-36 -55t-34 -43q-24 -30 -43.5 -44.5t-44.5 -14.5h-12q-31 5 -31 39q0 11 11 49q39 116 136.5 253.5t201.5 242.5q19 19 36 53q86 198 129 319q7 14 7 27q0 6 -3 12q-146 -169 -206 -223q-85 -74 -164 -74h-12
q-93 5 -93 74q0 30 22.5 89.5t22.5 74.5q-1 4 -6.5 9t-5.5 11v4q5 17 55 17h9q24 -3 24 -21q0 -15 -18 -51q-37 -93 -37 -135t33 -45zM-96 -549v-6q48 43 123 171.5t110 227.5q-66 -82 -149.5 -211.5t-83.5 -181.5zM346 989q37 0 37 -14q0 -6 -8 -10q-2 -2 -6 -2
q-13 0 -26.5 -5t-20.5 -9.5t-22.5 -16t-20.5 -14.5q-49 -34 -97 -76q-13 -13 -26 -13h-6q-11 4 -11 11q0 4 2 8q1 2 11 12q123 129 194 129z" />
    <glyph glyph-name="thorn" unicode="&#xfe;" horiz-adv-x="673" 
d="M487 733q43 -4 94.5 -18.5t73.5 -36.5q19 -16 19 -35q0 -12 -6 -27q-14 -24 -41 -45q-111 -94 -351 -151q-28 -6 -43 -33q-73 -165 -137 -289q-22 -45 -47 -80q-10 -16 -29 -16q-1 0 -4.5 1t-5.5 1q-10 3 -10 8q0 4 2 8q30 47 57.5 103t59.5 129.5t49 109.5q4 6 16 35
h-57q-26 4 -37 23q0 14 10 18q2 0 6.5 1t6.5 1q12 0 20 -8q11 -8 29 -8q36 0 45 22q83 193 104 248v8q-102 -10 -178 -59q8 -8 23.5 -12.5t17.5 -5.5q12 -4 12 -11l-2 -2q-4 -8 -12 -8q-44 3 -78 27q-6 6 -6 12q0 21 47 41q70 37 166 47q28 2 39 31q71 188 94 268q4 5 8 23
q10 20 35 20q27 0 27 -18q0 -16 -45 -139.5t-62 -163.5q0 -7 -2 -13zM590 606q20 20 20 37q0 21 -32 35q-5 2 -16.5 6t-16.5 6q-82 21 -142 21q-23 0 -32 -23q-69 -156 -95 -211q-1 -2 -4.5 -10t-3.5 -14h6q256 74 316 153z" />
    <glyph glyph-name="ydieresis" unicode="&#xff;" horiz-adv-x="710" 
d="M-14 123h8q41 0 97 42.5t100.5 93.5t98 114.5t75.5 85.5q19 16 47 16h12q27 -5 27 -29q0 -6 -11 -45q-26 -80 -112 -282h4q4 0 12 8q61 53 171.5 133t143.5 80q19 0 19 -10q0 -5 -6 -8q-15 -12 -33 -21q-165 -97 -352 -289q-14 -12 -25 -37q-4 -7 -24 -50t-28.5 -60
t-29 -60t-33 -66.5t-32.5 -62.5t-35.5 -64.5t-34.5 -56.5t-36 -55t-34 -43q-24 -30 -43.5 -44.5t-44.5 -14.5h-12q-31 5 -31 39q0 11 11 49q39 116 136.5 253.5t201.5 242.5q19 19 36 53q86 198 129 319q7 14 7 27q0 6 -3 12q-146 -169 -206 -223q-85 -74 -164 -74h-12
q-93 5 -93 74q0 30 22.5 89.5t22.5 74.5q-1 4 -6.5 9t-5.5 11v4q5 17 55 17h9q24 -3 24 -21q0 -15 -18 -51q-37 -93 -37 -135t33 -45zM-96 -549v-6q48 43 123 171.5t110 227.5q-66 -82 -149.5 -211.5t-83.5 -181.5zM186 825q0 24 18 39t42 15q20 0 39 -15q8 -5 8 -14
q0 -2 -4 -10q-11 -39 -60 -39h-10q-33 3 -33 24zM47 825q0 24 17.5 39t41.5 15q20 0 39 -15q9 -6 9 -14q0 -2 -4 -10q-11 -39 -60 -39h-10q-33 3 -33 24z" />
    <glyph glyph-name="dotlessi" unicode="&#x131;" horiz-adv-x="350" 
d="M59 80q-22 0 -22 14l2 10l268 598q7 17 14 23t19 6q29 0 29 -20q0 -21 -35 -103q-34 -75 -100 -212.5l-78 -162.5q-37 -83 -66 -133q-10 -20 -31 -20z" />
    <glyph glyph-name="Ydieresis" unicode="&#x178;" horiz-adv-x="1075" 
d="M-362 2q-28 0 -47 12t-28.5 34.5t-13.5 43t-6 47.5q-2 16 -2 47q0 54 17 179q28 224 94 475q1 4 2 10.5t2 9.5q-4 2 -12 2h-13q-2 0 -7 1t-7 1.5t-5.5 2t-5.5 4t-3 6.5q0 1 -1 3.5t-1 4.5q0 12 16 24q3 6 10 6q26 0 39 16.5t23 45.5q8 24 21 66.5t24.5 78t23.5 66.5
q35 87 66 131q14 26 41 49q18 18 51 18q24 0 36.5 -7.5t12.5 -30.5q0 -6 -10 -41q-55 -130 -184 -316q-18 -25 -23 -45q-137 -485 -137 -807q13 -100 35 -100q5 0 22 10q23 16 58 51q61 62 225 262q23 29 208.5 261.5t286.5 351.5q116 136 195 213q102 112 176 112
q48 0 65 -27t17 -77q0 -21 -4 -57q-14 -85 -59 -207q-51 -133 -160 -361q-356 -730 -682 -1257q-151 -242 -250 -361q-37 -46 -63 -65q-28 -25 -66 -25h-8q-24 3 -35 14.5t-12 35.5q0 64 38 164.5t83 187.5q125 256 313.5 513t388.5 431l8 8t12 8q7 1 12.5 3.5t10 9t6.5 8.5
t6.5 12.5t5.5 11.5q208 420 275 576q102 235 102 352q0 21 -6 39q0 6 -4 14l-4 4q-26 -6 -96 -75t-115 -119q-113 -127 -422 -510q-259 -325 -338 -414q-59 -66 -104 -100q-44 -35 -88 -35h-6zM367 117q2 2 2 10q0 4 -2 6q-341 -341 -600 -844q-129 -258 -129 -352v-10
q26 33 34 43q57 70 99 131q306 456 596 1016zM446 1806q0 24 18 39t42 15q20 0 39 -15q8 -5 8 -14q0 -2 -4 -10q-11 -39 -60 -39h-10q-33 3 -33 24zM307 1806q0 24 18 39t42 15q20 0 39 -15q8 -5 8 -14q0 -2 -4 -10q-11 -39 -60 -39h-10q-33 3 -33 24z" />
    <glyph glyph-name="circumflex" unicode="&#x2c6;" horiz-adv-x="288" 
d="M270 950h4q15 0 15 -8v-4q0 -8 -11.5 -13t-21.5 -5q-28 0 -43 18q-23 29 -33 115q-20 -18 -49 -47q-53 -53 -68 -66q-16 -16 -38 -16h-7q-18 0 -18 14v2q0 25 14 25h4q13 0 22.5 5t22.5 18.5t15 15.5q13 12 36.5 34t35.5 33q16 16 47 16q34 0 39 -38q8 -47 14 -74
q4 -25 20 -25z" />
    <glyph glyph-name="caron" unicode="&#x2c7;" horiz-adv-x="288" 
d="M18 1059h-4q-14 0 -14 8v2q0 4 10 14q6 4 25 4q28 0 41 -16q23 -29 33 -115q10 9 49 48q52 52 67 65q16 16 39 16h6q19 0 19 -14v-2q0 -25 -15 -25h-4q-12 0 -22 -5.5t-21.5 -17.5t-15.5 -15q-12 -11 -35.5 -34t-36.5 -34q-18 -18 -45 -18q-18 0 -27 9.5t-14 31.5
q-7 44 -14 73q-4 25 -21 25z" />
    <glyph glyph-name="uni02C9" unicode="&#x2c9;" horiz-adv-x="456" 
d="M422 971q4 -4 4 -6v-2q0 -9 -6 -9q-4 -2 -12 -2h-7q-14 2 -41 2h-73q-13 0 -19 -2q-36 -8 -82 -8q-13 0 -35.5 1t-33.5 1q-70 4 -107 8q-2 0 -6 0.5t-7 1.5l-6 2t-4.5 3.5t-2.5 5.5q0 5 3 8t6 3.5l9 1.5t8 1q29 4 80 4h64q129 0 237 -6q26 -5 31 -8z" />
    <glyph glyph-name="breve" unicode="&#x2d8;" horiz-adv-x="288" 
d="M20 1059h-4q-16 0 -16 8v2q0 6 12 14q8 4 27 4q33 0 49 -16q16 -18 29 -61q6 -26 16 -33q21 3 49 27q40 37 78 65q19 16 43 16h8q21 0 21 -14v-2q0 -25 -17 -25h-4q-15 0 -26 -5t-25.5 -18.5t-15.5 -14.5q-15 -11 -42 -33.5t-42 -34.5q-6 -6 -23 -10q-8 -4 -26 -4
q-18 3 -26.5 10.5t-18.5 26.5q-7 13 -13 39.5t-8 33.5q-4 25 -25 25z" />
    <glyph glyph-name="dotaccent" unicode="&#x2d9;" horiz-adv-x="71" 
d="M4 971q14 18 37 18q15 0 25 -10q6 -3 6 -8q0 -4 -2 -6q-8 -25 -41 -25h-6q-23 3 -23 16q0 3 4 15z" />
    <glyph glyph-name="ring" unicode="&#x2da;" horiz-adv-x="180" 
d="M98 961q26 0 54 -13.5t28 -36.5q0 -33 -31.5 -56.5t-64.5 -23.5q-54 0 -76 43q-8 11 -8 27q0 29 33 44.5t65 15.5zM84 858q13 0 29 19t16 34v4q-4 15 -14 15q-7 0 -13 -6q-12 -4 -14 -4q-4 0 -12 4q-4 2 -8 2q-8 0 -11 -6q-6 -9 -6 -17q0 -6 4 -18q11 -22 29 -27z" />
    <glyph glyph-name="ogonek" unicode="&#x2db;" horiz-adv-x="131" 
d="M29 70q14 -6 20 -21q6 -11 2 -29q-19 -39 -24 -77q-6 -41 18 -62q8 -5 20.5 -14.5t16.5 -11.5q15 -7 18 -21q6 -14 -2 -29q-13 -22 -32 -22q-33 0 -69.5 31t-45.5 63q-19 63 16 152q14 27 33 41q8 4 14 4q7 0 15 -4z" />
    <glyph glyph-name="tilde" unicode="&#x2dc;" horiz-adv-x="389" 
d="M362 1049h11q9 0 14 -7q2 -2 2 -6q0 -6 -6 -12q-6 -15 -16 -25q-52 -46 -119 -49q-34 2 -67.5 15.5t-51.5 38.5q-8 8 -16 8t-17 -6q-4 -3 -17 -11.5t-19.5 -17t-8.5 -21.5q0 -7 -10 -11.5t-21 -4.5q-8 0 -16 4q-4 4 -4 8q0 7 2 9q19 31 50 52t65 21q33 0 61 -22
q1 -1 4 -3t4 -3q39 -25 72 -25q52 0 88 51q7 15 16 17z" />
    <glyph glyph-name="hungarumlaut" unicode="&#x2dd;" horiz-adv-x="178" 
d="M82 946q0 11 2 17q9 40 80 84q8 4 10 4h4q4 0 4 -4v-3q0 -12 -10 -20q-10 -6 -14.5 -9.5t-9.5 -8.5l-11 -11t-13.5 -18.5t-13.5 -21.5t-12 -9q-2 0 -2 -4q-4 -4 -8 -4q-3 1 -6 8zM0 946q0 11 2 17q9 40 80 84q8 4 10 4h4q4 0 4 -4v-3q0 -12 -10 -20q-10 -6 -14.5 -9.5
t-9.5 -8.5l-11 -11t-13.5 -18.5t-13.5 -21.5t-12 -9q-2 0 -2 -4q-4 -4 -8 -4q-3 1 -6 8z" />
    <glyph glyph-name="endash" unicode="&#x2013;" horiz-adv-x="675" 
d="M756 426q1 -1 2.5 -2t2.5 -2t1 -2v-2q0 -8 -8 -8q-6 -2 -17 -2h-6q-18 2 -55 2h-94q-15 0 -23 -2q-53 -9 -106 -9q-90 0 -226 11q-3 0 -8.5 0.5t-9 1t-7.5 1.5t-6 3.5t-3 5.5q0 4 2 6.5t6 4t7.5 2t9.5 1t9 0.5q35 4 103 4h82q167 0 305 -6q32 -5 39 -8z" />
    <glyph glyph-name="emdash" unicode="&#x2014;" horiz-adv-x="940" 
d="M1020 426q10 -5 10 -6l-2 -2q0 -8 -12 -8q-8 -2 -25 -2h-10q-25 2 -78 2h-137q-25 0 -35 -2q-79 -9 -156 -9q-127 0 -331 11q-4 0 -12 0.5t-13.5 1t-11.5 1.5t-9.5 3.5t-4.5 5.5q0 4 3 6.5t9.5 4t12 2t14 1t12.5 0.5q51 4 149 4h121q246 0 449 -6q49 -6 57 -8z" />
    <glyph glyph-name="quoteleft" unicode="&#x2018;" horiz-adv-x="100" 
d="M0 946q0 11 2 17q9 40 80 84q8 4 10 4h4q4 0 4 -4v-3q0 -12 -10 -20q-10 -6 -14.5 -9.5t-9.5 -8.5l-11 -11t-13.5 -18.5t-13.5 -21.5t-12 -9q-2 0 -2 -4q-4 -4 -8 -4q-3 1 -6 8z" />
    <glyph glyph-name="quoteright" unicode="&#x2019;" horiz-adv-x="100" 
d="M100 1042q0 -10 -2 -16q-9 -40 -80 -84q-8 -4 -10 -4h-4q-4 0 -4 4v2q0 13 10 21q11 7 35 28q6 6 13.5 18.5t13.5 21.5t12 9q2 0 2 5q4 4 8 4q2 -1 6 -9z" />
    <glyph glyph-name="quotesinglbase" unicode="&#x201a;" horiz-adv-x="100" 
d="M100 43q0 -10 -2 -16q-9 -40 -80 -84q-8 -4 -10 -4h-4q-4 0 -4 4v2q0 13 10 20q10 6 14.5 9.5t9.5 8.5l11 11t13.5 18.5t13.5 21.5t12 9q2 0 2 4q4 4 8 4q3 -1 6 -8z" />
    <glyph glyph-name="quotedblleft" unicode="&#x201c;" horiz-adv-x="178" 
d="M82 946q0 11 2 17q9 40 80 84q8 4 10 4h4q4 0 4 -4v-3q0 -12 -10 -20q-10 -6 -14.5 -9.5t-9.5 -8.5l-11 -11t-13.5 -18.5t-13.5 -21.5t-12 -9q-2 0 -2 -4q-4 -4 -8 -4q-3 1 -6 8zM0 946q0 11 2 17q9 40 80 84q8 4 10 4h4q4 0 4 -4v-3q0 -12 -10 -20q-10 -6 -14.5 -9.5
t-9.5 -8.5l-11 -11t-13.5 -18.5t-13.5 -21.5t-12 -9q-2 0 -2 -4q-4 -4 -8 -4q-3 1 -6 8z" />
    <glyph glyph-name="quotedblright" unicode="&#x201d;" horiz-adv-x="178" 
d="M100 1042q0 -10 -2 -16q-9 -40 -80 -84q-8 -4 -10 -4h-4q-4 0 -4 4v2q0 13 10 21q11 7 35 28q6 6 13.5 18.5t13.5 21.5t12 9q2 0 2 5q4 4 8 4q2 -1 6 -9zM182 1042q0 -10 -2 -16q-9 -40 -80 -84q-8 -4 -10 -4h-4q-4 0 -4 4v2q0 13 10 21q11 7 35 28q6 6 13.5 18.5
t13.5 21.5t12 9q2 0 2 5q4 4 8 4q2 -1 6 -9z" />
    <glyph glyph-name="quotedblbase" unicode="&#x201e;" horiz-adv-x="182" 
d="M100 43q0 -10 -2 -16q-9 -40 -80 -84q-8 -4 -10 -4h-4q-4 0 -4 4v2q0 13 10 20q10 6 14.5 9.5t9.5 8.5l11 11t13.5 18.5t13.5 21.5t12 9q2 0 2 4q4 4 8 4q3 -1 6 -8zM182 43q0 -10 -2 -16q-9 -40 -80 -84q-8 -4 -10 -4h-4q-4 0 -4 4v2q0 13 10 20q10 6 14.5 9.5t9.5 8.5
l11 11t13.5 18.5t13.5 21.5t12 9q2 0 2 4q4 4 8 4q3 -1 6 -8z" />
    <glyph glyph-name="dagger" unicode="&#x2020;" horiz-adv-x="870" 
d="M451 920q3 8 8 25.5t8 25.5l111 368l73 -36q-60 -229 -110 -383q61 -1 165 -4l105 -3q8 0 14 -2q22 0 43 -6q4 -2 9 -2q2 -2 2 -4l-2 -2q0 -8 -13 -8q-8 -2 -24 -2h-11q-27 2 -77 2h-138q-24 0 -34 -2l-50 -4l-73 -250q-124 -404 -244 -864l-72 32q128 540 297 1078h-14
q-67 0 -102 2h-29q-136 4 -201 8h-14q-4 1 -12 2t-11 2q-11 3 -14 8q0 7 12 10q3 1 12 2t13 2h14q133 5 150 5h209z" />
    <glyph glyph-name="daggerdbl" unicode="&#x2021;" horiz-adv-x="948" 
d="M504 920q3 8 8 25.5t8 25.5l111 368l74 -36q-56 -215 -111 -383q61 -1 166 -4l104 -3q9 0 15 -2q22 0 43 -6q4 -2 8 -2q2 -2 2 -4l-2 -2q0 -8 -12 -8q-8 -2 -25 -2h-10q-27 2 -78 2h-137q-25 0 -35 -2l-49 -4l-74 -250q-27 -89 -98 -328q203 0 350 -6q8 0 14 -2
q22 0 43 -6q4 -2 8 -2q2 -2 2 -4l-2 -2q0 -9 -12 -9q-8 -2 -24 -2h-11q-27 2 -78 2h-137q-25 0 -35 -2q-90 -8 -129 -8l-28 -98q-47 -168 -107 -397l-71 32q64 268 118 463q-14 2 -41 2h-28q-136 4 -201 8h-14q-3 1 -11.5 2.5t-11.5 2.5q-11 3 -14 8q0 7 12 10q3 1 12 2
t13 2h14q106 4 150 4h131q58 221 168 574h-15q-67 0 -102 2h-29q-136 4 -201 8h-14q-4 1 -11.5 2t-10.5 2q-13 3 -15 8q0 7 12 10q3 1 12 2t13 2h14q133 5 150 5h209z" />
    <glyph glyph-name="bullet" unicode="&#x2022;" horiz-adv-x="262" 
d="M18 459q20 30 56.5 47.5t77.5 17.5q54 0 92 -35q20 -14 20 -30q0 -7 -4 -23q-17 -50 -52.5 -70t-98.5 -20h-23q-86 6 -86 57q0 21 18 56z" />
    <glyph glyph-name="ellipsis" unicode="&#x2026;" horiz-adv-x="442" 
d="M4 16q15 19 37 19q15 0 25 -10q6 -3 6 -9q0 -4 -2 -6q-8 -24 -41 -24h-6q-23 3 -23 16q0 2 4 14zM188 16q15 19 37 19q15 0 25 -10q6 -3 6 -9q0 -4 -2 -6q-8 -24 -41 -24h-6q-23 3 -23 16q0 2 4 14zM373 16q15 19 37 19q14 0 24 -10q6 -3 6 -9q0 -4 -2 -6q-8 -24 -41 -24
h-6q-22 3 -22 16q0 2 4 14z" />
    <glyph glyph-name="guilsinglleft" unicode="&#x2039;" horiz-adv-x="845" 
d="M772 33q14 -6 21 -23q4 -14 -2 -28q-3 -9 -14 -17t-21 -8q-5 0 -17 4q-16 8 -46.5 23t-45.5 22q-107 49 -235 125q-98 58 -377 248q-2 2 -6 2q-22 3 -31 18q-12 25 2 45q13 17 41 17q302 87 551 205q101 46 217 96q8 2 20 2q18 -3 31 -25q3 -17 -2 -28q-6 -15 -20 -21
q-169 -72 -215 -94q-220 -106 -463 -180q167 -130 312 -223.5t300 -159.5z" />
    <glyph glyph-name="guilsinglright" unicode="&#x203a;" horiz-adv-x="845" 
d="M84 690q-13 5 -21 21q-5 11 3 30q6 15 20 21q4 2 10 2q7 0 19 -4q118 -49 250.5 -124t224 -135.5t231.5 -158.5q23 0 37 -18q12 -25 -2 -45q-12 -17 -37 -17h-4q-307 -90 -551 -205q-63 -31 -219 -96q-4 -2 -12 -2h-6q-17 2 -31 23q-5 16 0 30q6 15 22 21q192 84 213 94
q259 118 465 180q-104 80 -169.5 128t-163.5 109.5t-185 100.5q-17 8 -94 45z" />
    <glyph glyph-name="fraction" unicode="&#x2044;" horiz-adv-x="798" 
d="M778 958h6q11 0 15 -8v-2q0 -3 -11 -14q-142 -130 -387 -402q-253 -286 -295 -335q-8 -9 -53 -54q-14 -14 -33 -14q-14 0 -18 6q-2 2 -2 6q0 8 6 11q58 63 191.5 216t208.5 232q217 233 335 336q22 22 37 22z" />
    <glyph glyph-name="fraction" unicode="&#x2215;" horiz-adv-x="798" 
d="M778 958h6q11 0 15 -8v-2q0 -3 -11 -14q-142 -130 -387 -402q-253 -286 -295 -335q-8 -9 -53 -54q-14 -14 -33 -14q-14 0 -18 6q-2 2 -2 6q0 8 6 11q58 63 191.5 216t208.5 232q217 233 335 336q22 22 37 22z" />
    <glyph glyph-name="franc" unicode="&#x20a3;" horiz-adv-x="1150" 
d="M250 1239q143 34 428 180q19 8 22 27q89 303 95 446q0 32 -4 68q-3 22 -15 22q-7 0 -18 -8q-123 -79 -260.5 -246t-227.5 -321q-53 -81 -53 -141q0 -32 16 -29q11 0 17 2zM319 123q41 156 115 420q2 6 6 22q-37 0 -121 -29.5t-137 -54.5q-74 -33 -108 -57q0 -8 6 -8
q1 -1 4 -2t4 -2q2 -2 2 -11q-3 -12 -18 -12q-20 -4 -27 -4q-13 0 -29 9.5t-16 21.5q0 10 8 18q28 34 119.5 73.5t162.5 61.5t142 41q23 3 29 25q61 204 209 702q0 4 2 6q4 8 4 13q0 4 -2 6q-17 0 -25 -8q-2 -2 -4 -2q-138 -66 -299 -129q-58 -21 -117 -21h-20q-17 0 -29 6
q-41 15 -41 58v6q3 40 25 80q70 152 236 355.5t290 285.5q40 30 88 30h8q76 0 82 -75q2 -14 2 -43q0 -22 -4 -68q-23 -160 -71 -330l-7 -24v-2q3 -3 3 -4q14 0 24 10q2 1 5.5 2t4.5 2l58 29q350 175 807 385q10 4 47.5 19.5t58.5 23.5q16 8 39 8h12q2 0 4 -2q9 0 13 -2l6 -6
q2 -2 2 -7q0 -8 -10 -18l-13 -12q-122 -122 -147 -146l-148 -147q-37 -37 -69 -60q-17 -14 -41 -14h-6q-1 1 -4 2t-4 2t-3.5 2t-3.5 2v2q0 5 2 7q0 2 2 4q3 0 5 2q80 70 208 198q84 84 127 125v4l2 2q-16 0 -24 -8l-8 -4q-451 -205 -887 -430q-49 -24 -64 -31
q-19 -10 -22 -28q-47 -168 -111 -373q-31 -97 -84 -279l-16 -57q-2 -7 -6 -21.5t-6 -21.5q4 -2 10 -2q8 0 12 2h2q200 47 396 68l53 4q9 1 27.5 2t27.5 2h8q24 0 27 -10v-2q-4 -11 -10 -13q-3 -1 -8.5 -2t-8.5 -2h-6l-70 -8q-165 -15 -456 -82q-16 -3 -19 -12q-3 -5 -8 -19
q-6 -23 -14 -50t-17.5 -59.5t-15.5 -51.5q-45 -153 -59 -209l-15 -54q205 54 379 93q9 0 15 2q28 4 43 4q2 0 4 -2q2 0 6 -2v-2q3 -8 -10 -11q-10 -7 -23 -10l-10 -2q-14 -2 -76 -16l-135 -35q-16 -3 -33 -10q-98 -36 -147 -48l-25 -6l-127 -454q0 -2 -2 -4q-1 -4 -3 -12.5
t-3 -12.5q-9 -27 -37 -27q-10 0 -16 2q-15 6 -15 17q0 2 4 10q6 9 9 21l4 8q48 199 108 434l-24 -6q-75 -15 -199 -43q-8 0 -12 -2q-8 -2 -23 -2h-6q-6 0 -10 4q-3 8 10 14q1 0 9.5 3.5t13.5 4.5l12 4q101 32 145 41z" />
    <glyph glyph-name="lira" unicode="&#x20a4;" horiz-adv-x="886" 
d="M45 57q-19 0 -29 2q-13 0 -16 17q0 6 12 14q35 10 68.5 18t71.5 16t61 13l18 4q158 74 201 203l4 16l-2 7q-10 2 -35 2l-94 -2q-10 0 -30.5 -6.5t-30.5 -6.5q-12 0 -23.5 5.5t-11.5 13.5q0 15 49 24l94 4l64 -2q23 0 27.5 3.5t7.5 25.5q1 7 6 68q0 10 -11 10
q-21 -1 -163 -23q-5 0 -20 -7t-23 -7q-15 0 -30 6t-15 14q0 6 10 12.5t22 6.5q72 14 185 29l8 2q28 3 33.5 8.5t5.5 32.5q0 150 56.5 256.5t184.5 179.5q42 22 82 22q46 0 75.5 -23.5t29.5 -64.5q0 -9 -1 -18.5t-4 -21t-5 -19.5t-7 -21t-7.5 -19t-9 -20.5t-8.5 -18t-9.5 -19
t-8.5 -17.5q-10 -16 -28 -16q-19 0 -19 14l2 12q1 4 12 35t15 44t9 36.5t5 42.5q0 24 -10.5 40.5t-28.5 16.5q-25 0 -53 -20q-215 -146 -215 -414v-7.5t1 -5t3 -3t6 -0.5q31 2 104 8.5t120 7.5l86 -2q47 0 47 -20q0 -15 -19 -15h-10q-10 0 -14 2q-18 9 -49 9
q-37 -1 -77.5 -4.5t-93 -10t-77.5 -8.5q-31 0 -31 -16l-12 -101h35q154 0 249 25h21q20 0 20 -10q0 -8 -14 -13q-123 -25 -295 -32q-27 0 -35 -27q-28 -93 -114 -160q-17 -11 -21 -18h6l17 2l348 76q15 3 44.5 13.5t45.5 10.5q12 0 12 -8q0 -7 -8 -10q-26 -13 -59.5 -23.5
t-56.5 -16t-62.5 -13.5t-54.5 -11l-320 -71q-8 -1 -37 -11q-106 -47 -176 -47z" />
    <glyph glyph-name="peseta" unicode="&#x20a7;" horiz-adv-x="3028" 
d="M692 1718h-6q-10 0 -10 -10q-5 -15 -14.5 -43t-14.5 -43h4q7 0 19 4q309 133 598 133q76 0 153.5 -12.5t156 -42.5t139 -73.5t98.5 -112t38 -152.5q0 -75 -28.5 -158t-74 -156t-106.5 -145t-121 -128.5t-122 -104.5q-120 -93 -274.5 -180t-338.5 -152.5t-323 -65.5h-14
q-12 0 -62 5h-12q-8 0 -11 -3.5t-4 -15.5q-73 -329 -120 -719l-37 -282q-3 -22 -10.5 -29.5t-24.5 -7.5h-6q-28 0 -31 28l-2 29q0 22 4 72q4 40 11.5 118.5t11.5 118.5q25 308 96 721v6q0 17 -12 23l-31 25q-6 6 -6 10q0 7 14 10h10q18 0 33 -10q8 36 55 278q-5 0 -9 -1.5
t-6 -3t-5.5 -5t-5.5 -4.5q-182 -156 -326 -156h-10q-61 4 -90 45t-29 103q0 21 8 71q24 129 94.5 261t168 243t210 203t228.5 156q33 20 43 51q40 129 84 258q6 19 16 35q6 18 27 18h6q16 0 19 -4.5t3 -21.5l-30 -154q-5 -29 -21 -29zM348 786q69 302 195 693q6 24 6 26v4
h-6q-3 -2 -10.5 -6t-10.5 -6q-304 -188 -491 -506q-123 -213 -123 -358q0 -19 2.5 -36.5t9 -36t20.5 -29.5t33 -11q43 0 130.5 49.5t162 114t82.5 102.5zM412 745q-13 -14 -26 -66t-13 -83v-8q8 34 39 157zM1266 1724q-292 0 -621 -157q-18 -9 -24 -31q-126 -394 -187 -647
q-6 -24 -6 -25q0 -6 2 -8q12 7 21 37q10 35 29.5 105.5t29.5 105.5q65 218 104 307q25 55 39 76q19 31 60 31q2 0 7.5 -1t8.5 -1q35 -5 49.5 -42.5t14.5 -80.5q0 -211 -273 -527q-24 -28 -33 -63q-18 -78 -54.5 -233.5t-55.5 -233.5q-2 -6 -2 -14t4.5 -11t17.5 -4
q32 -4 52 -4h12q192 6 439 124t431 261q77 60 150.5 134.5t142 164.5t110.5 191.5t42 193.5q0 74 -32.5 135t-85 100.5t-120.5 66.5t-136 38.5t-136 11.5zM547 1004q3 0 5 1.5t4 4.5t3 4q68 98 108.5 178.5t51.5 167.5v33q0 38 -10 63q-29 -36 -93 -216t-69 -236zM1950 915
q-66 -145 -103 -253q38 51 78 169q22 59 25 84zM2490 -8q11 18 11 35q0 8 -4 20h-5h-6l-6 -6q-2 0 -4 -2q-4 -3 -12.5 -9.5t-12.5 -9.5l-57 -45q-8 -8 -14 -10q-56 -45 -88 -82l-2 -2q-6 -6 -6 -14v-4q98 26 178 90q20 20 28 39zM2327 281q-205 -181 -439 -330
q-56 -30 -119 -39h-12q-99 0 -117 98q-4 36 -4 60q0 78 21.5 178.5t44 169.5t59.5 170q2 2 2 6q6 9 6 20v7h-16q-28 0 -49 -3q-8 -2 -25 -2q-19 -1 -112 -6l-111 -4h-8q-41 0 -41 12q0 11 10 11q13 0 19 2q51 2 157 10q107 8 170 10q24 3 33 25q78 195 139 334q45 97 70 135
q22 22 47 22q9 0 21 -4q8 -5 8 -18v-4q-3 -17 -10 -35q-65 -208 -150 -414l-4 -8q-6 -9 -6 -25q10 0 22 3q36 1 102 4t95 4q55 0 90 2q114 6 234 6q142 0 235 -19q10 -3 10 -10t-20 -10q-11 0 -17 2q-85 10 -155 10q-47 0 -137 -4q-157 0 -349 -10q-93 -5 -112 -6
q-19 -8 -23 -19l-2 -4q-36 -79 -59 -141q-27 -70 -58 -135l-3 -6q-4 -5 -5 -9q-11 -27 -35 -51q-4 -4 -4 -6q-2 -2 -2 -6q-2 -2 -2 -6v-4q-2 -2 -2 -6q-1 -2 -2 -7t-2 -8q-18 -88 -18 -149q0 -19 2.5 -38.5t8.5 -42.5t20 -37.5t34 -14.5q30 0 105 39l16 8q223 150 434 336
l2 2q-2 6 -2 18q0 65 50 108t120 58q6 2 21 2q25 0 47 -16q6 -3 10 -7t4 -10v-2q0 -8 -8 -8q-4 0 -6 2h-15q-60 0 -107.5 -41.5t-47.5 -101.5q0 -29 16 -66q16 -27 57 -80t54 -53q6 0 8 2l4 4q2 0 4 2q191 116 395 201q2 2 9 2q6 0 14 -4q6 -6 6 -12q0 -8 -8 -11
q-181 -91 -285 -161q-35 -19 -104 -62q-8 -3 -8 -10q0 -4 4 -12q14 -25 14 -54q0 -38 -29 -67q-24 -31 -55 -47q-40 -26 -100 -50t-99 -24q-33 0 -47 12q-16 10 -16 25q0 6 2 10q6 21 20 35l5 4q80 83 165 145q3 3 6.5 5.5t8.5 6t8 5.5q16 8 22 14q15 9 15 14q0 4 -17 21
q-45 50 -53 59q-37 40 -59 80q-2 3 -5 9.5t-5 9.5z" />
    <glyph glyph-name="Euro" unicode="&#x20ac;" horiz-adv-x="790" 
d="M737 1036q19 -3 29.5 -8t15 -15.5t5.5 -19.5t1 -28q-5 -26 -32 -91q-5 -10 -16 -33.5t-18 -41.5t-11 -35q-6 -16 -25 -16q-2 0 -5 1t-5 1q-14 6 -14 18v6q2 16 10 43q32 78 35 86q15 35 18 68v10q0 20 -16 20q-7 0 -19 -4q-60 -25 -134 -92t-128 -133q-31 -34 -79 -94.5
t-48 -75.5q8 0 24.5 -2t24.5 -2q52 -4 168 -8q5 -1 15.5 -2t15.5 -2q16 -4 16 -11v-2q0 -8 -16 -8q-115 8 -258 8q-15 0 -19 -6q-7 -13 -29 -47.5t-32 -54.5q6 -6 18 -6h7q202 5 243 8q23 2 70 10q12 4 24 4q10 0 13 -8v-2q0 -4 -2 -7t-6 -4.5t-6.5 -2t-9 -1.5t-7.5 -1
q-115 -23 -326 -23h-24q-10 0 -19 -12q-57 -119 -71 -187q-4 -28 -4 -40q0 -19 2 -27q6 -63 67 -82q24 -6 47 -6q100 0 213 43.5t181 111.5q15 15 28 15h6q15 -5 17 -8v-4q0 -4 -11.5 -16.5t-17.5 -16.5q-73 -70 -191.5 -112t-226.5 -42h-26q-68 3 -113 33.5t-45 93.5v10
q0 41 20 111q2 6 48 106q8 12 8 19q0 1 -1 3t-1 3q-8 2 -25 2t-53 -4h-29q-8 4 -8 8t6 10q2 1 19 7q31 6 90 6h8q13 0 18 10q19 35 62 104h-25q-25 0 -37 -4q-6 -2 -20 -2q-15 0 -23 2q-2 0 -8 6v5q0 5 6 8q10 6 35 10q46 4 70 4q23 0 35 21q227 326 417 407q33 10 62 10
q14 0 22 -2z" />
    <glyph glyph-name="numero" unicode="&#x2116;" horiz-adv-x="2000" 
d="M1415 1604q27 0 27 -25q-7 -112 -17 -190q-34 -246 -153 -879q-73 -381 -131 -614q-30 -125 -66 -220q-14 -38 -27 -65t-34 -55.5t-51 -43t-68 -14.5q-45 0 -84 23q-113 59 -223 284q-195 407 -195 969l-2 53q0 111 10 248v23h-6q-67 -220 -76 -250q-91 -306 -159 -698
q-35 -207 -64 -316q-9 -34 -14 -47q-15 -27 -39 -27q-2 0 -6 1t-6 1q-24 6 -27 35q-4 36 -4 58q0 21 4 57q73 692 358 1401q82 203 123 325q8 25 31 25h8q23 -3 23 -23q0 -8 -2 -14q-15 -30 -28.5 -64.5t-29.5 -79t-24 -65.5v-8q6 0 10 -2q14 -3 18.5 -6.5t4.5 -11.5v-11
q-2 -26 -7.5 -76.5t-7.5 -74.5q-1 -21 -4 -60.5t-4 -60.5q-8 -204 -8 -309q0 -469 123 -817q107 -298 225 -402q47 -47 82 -47q20 0 37 14q26 18 49 62q23 49 55 151q61 213 117 498q25 134 82 425t86 445q50 258 65 447q0 13 8.5 22t20.5 9zM324 1028q0 4 3 12t3 15
q0 2 -1 6t-1 6q-195 -544 -256 -1102q5 25 15 76t15 76q66 347 84 426q57 227 138 485zM1638 520h15q47 -3 76.5 -29.5t29.5 -66.5v-12q-4 -25 -14.5 -48.5t-20 -37.5t-32.5 -45q18 0 126.5 22.5t141.5 38.5q12 6 29 6q14 0 14 -8q0 -23 -135 -61t-193 -46q-25 -3 -37 -18
q-96 -101 -155 -129q-29 -16 -60 -16q-48 0 -51 41v4q0 48 45 125q-2 2 -18 10.5t-28.5 22.5t-12.5 34q0 13 4 21q3 18 14 32q41 69 113 114.5t149 45.5zM1440 113q19 0 66 41t71 69h-18q-26 0 -84 8h-2q-3 0 -13 -10q-28 -56 -28 -88v-8q3 -12 8 -12zM1616 274
q82 91 82 154v10q-4 27 -23.5 41.5t-46.5 14.5q-23 0 -49 -13q-45 -19 -99.5 -68t-54.5 -89q0 -19 19 -35q4 -4 8 -4q3 0 7 4t12.5 11t19.5 13q18 9 37 9q22 0 22 -9q0 -6 -8 -6q-5 0 -9.5 -1.5t-9 -4t-7.5 -4t-7.5 -6l-6 -6t-7 -8t-6.5 -7.5q31 -8 65 -8q16 0 52 4
q8 4 10 8zM1862 -12q1 -1 2.5 -2t2.5 -2t1 -2l-2 -2q0 -9 -8 -9q-4 -2 -17 -2h-6q-18 2 -53 2h-94q-17 0 -25 -2q-47 -8 -104 -8q-103 0 -226 10q-3 0 -9 0.5t-9 1.5t-7.5 2t-6.5 3.5t-3 5.5q0 4 2 6.5t6.5 4t8 2t9.5 1t9 0.5q35 4 103 4h82q168 0 303 -6q34 -5 41 -8z" />
    <glyph glyph-name="trademark" unicode="&#x2122;" horiz-adv-x="1325" 
d="M721 1755q-30 -4 -78 -8q-36 0 -106 -12q-7 -2 -21.5 -4t-15.5 -2q-1 -1 -2 -1q-3 -2 -4 -4v-2q0 -2 -5 -2q-2 -2 -6 -2h-2q-16 4 -28 4q-7 0 -21.5 -1t-21.5 -1h-4q-9 0 -29 2t-29 2h-4q-14 -2 -15 -5q-1 -1 -3 -9q-10 -31 -30 -88.5t-28 -81.5q-96 -265 -168 -496
q-6 -18 -17 -53.5t-17 -54.5q-5 -12 -17 -12h-4q-8 0 -8 8v2l16 47q59 204 148 463q36 103 90 266q0 4 2 6v2q0 4 -6 4h-29h-27q-23 -2 -65 -2q-16 -2 -49 -2h-47q-41 0 -82 6q-13 6 -13 7v2q1 4 8 5l7 1q51 4 153 8l146 2q14 0 14 8v10q-7 20 -4 39l2 4q0 15 8.5 27
t22.5 12h2q16 -3 16 -14q2 -7 -2 -23l-2 -20q0 -6 -4 -18q-2 -9 2.5 -16t11.5 -7h2q20 1 59.5 2t59.5 2q77 0 156 12q31 5 67 9h15h18q2 -2 6 -2q9 -4 9 -9q0 -3 -1.5 -4.5t-4 -2t-3.5 -1.5q-6 -2 -18 -2zM119 1731h37h28q-8 2 -26 2q-27 0 -39 -2zM639 1067q-4 4 -4 10
q1 4 2 14t2 15q26 172 88 459q3 13 14.5 70.5t16.5 88.5q4 24 4 35v10q0 11 2 15q0 8 1 9t7 3h4q9 0 12 -10v-21v-20q-12 -78 -20 -115q-2 -8 -5 -24.5t-5 -24.5v-4v-4q2 2 6 14q29 78 67 142q10 15 11 18q7 10 20 10q21 0 21 -18q0 -19 -2 -27q-29 -135 -47 -323
q0 -3 -1.5 -8t-1.5 -7q0 -12 5 -22q3 -3 26 29t59.5 87t73.5 113t77.5 120t62.5 95q9 13 46 73t60 87l19 20q11 11 22 11q6 0 8 -2q11 0 15 -15q2 -8 2 -24q-5 -50 -19 -119q-9 -46 -21 -94t-31 -117t-26 -94q-46 -170 -84 -342q-20 -97 -26 -150q0 -8 -4 -20q0 -9 -6 -9h-7
q-12 0 -12 11q18 140 27 184q21 100 106 446q48 177 56 220q9 41 12 82v4v6q-3 -1 -5.5 -4t-4.5 -4q-15 -18 -30.5 -39.5t-34 -48.5t-28.5 -41q-109 -160 -256 -396q-32 -48 -39 -57q-6 -10 -16 -16q-10 -13 -27 -13h-6q-13 0 -20 15q-2 8 -2 22v8q0 12 1 25t2.5 28.5
t2.5 24.5q6 46 20 130t17 104l2 4q0 1 -1 3t-1 3q-5 -8 -8 -16q-111 -207 -166 -535q-2 -10 -4 -32.5t-4 -33.5v-6q-4 -14 -17 -14q-1 0 -3.5 1t-4.5 1z" />
    <glyph glyph-name="minus" unicode="&#x2212;" horiz-adv-x="675" 
d="M756 426q1 -1 2.5 -2t2.5 -2t1 -2v-2q0 -8 -8 -8q-6 -2 -17 -2h-6q-18 2 -55 2h-94q-15 0 -23 -2q-53 -9 -106 -9q-90 0 -226 11q-3 0 -8.5 0.5t-9 1t-7.5 1.5t-6 3.5t-3 5.5q0 4 2 6.5t6 4t7.5 2t9.5 1t9 0.5q35 4 103 4h82q167 0 305 -6q32 -5 39 -8z" />
    <glyph glyph-name="infinity" unicode="&#x221e;" horiz-adv-x="782" 
d="M459 516q5 -10 12 -12q1 8 2 23t2 22q0 16 10 33q12 6 15 6h2q6 -2 10 -13q2 -4 2 -10q0 -11 -8 -16q-10 -8 -10 -29q0 -72 45 -147q21 -44 49 -68q6 13 18 37.5t17 36.5q19 38 34 55q17 17 35 17q15 0 31 -13l10 -10q70 -82 70 -180q0 -23 -2 -35q0 -11 -8 -27
q-15 -43 -56 -43q-46 0 -118 62q-19 19 -27 24q-5 -4 -14 -26q-8 -17 -24 -53l-24 -54q-34 -69 -61 -69q-17 0 -37 20q-14 11 -35 45t-30 55q-77 146 -124 243.5t-100 241.5t-73 263q-2 18 -2 57q4 29 20 35q19 0 31 -12q69 -57 166 -195t172 -264zM666 383q-15 -22 -50 -94
q0 -26 47 -58t76 -32q41 0 41 59q-10 75 -59 129q-11 14 -27 14q-13 0 -28 -18zM504 369q-37 95 -162.5 273t-214.5 267q-1 1 -6 6.5t-7.5 7.5t-7.5 4.5t-10 2.5v-8v-7q30 -238 314 -768q23 -34 26 -38q21 -27 35 -27q12 0 31 31q10 18 20 39t21 47.5t18 40.5q6 9 6 16
t-10 20q-29 37 -53 93z" />
    <glyph glyph-name="approxequal" unicode="&#x2248;" horiz-adv-x="389" 
d="M362 590h11q10 0 14 -6q2 -2 2 -6q0 -7 -6 -13q-5 -13 -16 -24q-52 -46 -119 -49q-34 2 -68 15.5t-51 37.5q-8 8 -16 8t-17 -6q-4 -3 -16.5 -11t-19.5 -16.5t-9 -21.5q0 -7 -10 -12t-21 -5q-8 0 -16 4q-4 4 -4 9q0 6 2 8q19 31 50 52t65 21q33 0 61 -22q1 -1 4 -3t4 -3
q39 -25 72 -25q52 0 88 51q7 15 16 17zM362 467h11q10 0 14 -6q2 -2 2 -6q0 -7 -6 -13q-5 -13 -16 -24q-52 -46 -119 -49q-34 2 -68 15.5t-51 37.5q-8 8 -16 8t-17 -6q-4 -3 -16.5 -11t-19.5 -16.5t-9 -21.5q0 -7 -10 -12t-21 -5q-8 0 -16 4q-4 4 -4 9q0 6 2 8
q19 31 50 52.5t65 21.5q32 0 61 -23q1 -1 4 -3t4 -3q39 -25 72 -25q51 0 88 52q7 14 16 16z" />
    <glyph glyph-name="lessequal" unicode="&#x2264;" horiz-adv-x="845" 
d="M772 33q14 -6 21 -23q4 -14 -2 -28q-3 -9 -14 -17t-21 -8q-5 0 -17 4q-16 8 -46.5 23t-45.5 22q-107 49 -235 125q-98 58 -377 248q-2 2 -6 2q-22 3 -31 18q-12 25 2 45q13 17 41 17q302 87 551 205q101 46 217 96q8 2 20 2q18 -3 31 -25q3 -17 -2 -28q-6 -15 -20 -21
q-169 -72 -215 -94q-220 -106 -463 -180q167 -130 312 -223.5t300 -159.5zM836 -119q8 -4 8 -6v-2q0 -8 -13 -8q-8 -2 -24 -2h-10q-27 2 -80 2h-139q-25 0 -37 -2q-68 -8 -158 -8q-151 0 -336 10q-4 0 -12 0.5t-13.5 1t-11.5 1.5t-9.5 3.5t-4.5 5.5q0 4 3 6.5t9.5 4t12 2
t14 1t12.5 0.5q66 5 154 5h121q214 0 454 -7q51 -5 60 -8z" />
    <glyph glyph-name="greaterequal" unicode="&#x2265;" horiz-adv-x="845" 
d="M84 690q-13 5 -21 21q-5 11 3 30q6 15 20 21q4 2 10 2q7 0 19 -4q118 -49 250.5 -124t224 -135.5t231.5 -158.5q23 0 37 -18q12 -25 -2 -45q-12 -17 -37 -17h-4q-307 -90 -551 -205q-63 -31 -219 -96q-4 -2 -12 -2h-6q-17 2 -31 23q-5 16 0 30q6 15 22 21q192 84 213 94
q259 118 465 180q-104 80 -169.5 128t-163.5 109.5t-185 100.5q-17 8 -94 45zM838 -119q8 -4 8 -6v-2q0 -8 -12 -8q-8 -2 -25 -2h-10q-27 2 -80 2h-139q-25 0 -37 -2q-68 -8 -158 -8q-151 0 -336 10q-4 0 -12 0.5t-13.5 1t-11.5 1.5t-9.5 3.5t-4.5 5.5q0 4 3 6.5t9.5 4t12 2
t14 1t12.5 0.5q66 5 154 5h121q214 0 454 -7q51 -5 60 -8z" />
    <glyph glyph-name="uniE000" unicode="&#xe000;" horiz-adv-x="1802" 
d="M-768 -102q-10 -29 -29 -29h-12q-14 0 -14 12v4l63 238q-14 -10 -22 -35q-115 -215 -269 -516q-4 -7 -15.5 -28t-18.5 -31q-14 -21 -35 -21h-4q-19 0 -19 14v7q0 6 2 8q164 375 348 715q2 4 3.5 8t3 7l3 6t2 4.5l1 3t-0.5 2.5t-2.5 1.5t-4.5 1t-7 0.5
q-146 -12 -549.5 -82t-810 -161.5t-487.5 -145.5q-66 -37 -111 -37h-4q-8 0 -16 4q-8 5 -8 13q2 11 45 33q104 55 494 153t821 179t641 93q27 1 38.5 9t20.5 30q49 110 149 287.5t140 259.5q206 405 426 707q17 25 35.5 49.5t45.5 54.5t55.5 49.5t53.5 20.5q9 1 15 9.5t9 18
t12 17.5t24 8h2q14 -3 14 -10v-4q-1 -7 -14 -28t-15 -30v-10l2 -4q0 -2 -2 -4q-1 -5 -13 -9t-15 -9q-18 -29 -80 -119l2 -2q4 0 7.5 1.5t4.5 3t3 4t3 3.5q115 126 183 158q24 12 53 12q74 -4 74 -133q0 -22 -4 -68q-15 -171 -56.5 -378t-75.5 -338t-100 -369q-3 -14 -11 -43
t-11 -45l-5 -19q0 -2 -1 -4.5t-1 -3.5q0 -6 11 -6h20q117 0 242 -25q1 0 6.5 -3t7.5 -5.5t2 -7.5v-2q-4 -10 -33 -10q-12 0 -24 4q-101 16 -225 16q-12 -1 -16.5 -5t-6.5 -13l-424 -1532q-8 -27 -33 -27q-18 6 -18 17v4l2 6q20 71 51.5 203t46.5 186q14 53 80 278.5
t78 268.5l162 602q0 8 -8 8h-13q-24 -1 -138.5 -5t-155.5 -6.5t-129 -8.5t-156 -15t-138 -22q-26 -8 -36 -33q-88 -258 -111 -360zM133 1708q-163 -191 -344 -516q50 76 166.5 249t177.5 267zM100 1505q-125 -159 -214.5 -280.5t-190 -272.5t-181 -304t-141.5 -310
q8 -4 9 -4q114 16 253.5 26.5t214 13.5t254.5 9q19 2 22.5 5t8.5 20q2 7 21.5 80t30.5 115.5t33 127t38.5 151.5t36 149.5t36 161t29.5 148.5q39 222 39 324q0 52 -8 76q-9 20 -18 20q-25 0 -88.5 -58.5t-107 -107.5t-77.5 -90z" />
    <glyph glyph-name="uniE002" unicode="&#xe002;" horiz-adv-x="2193" 
d="M-2007 -1419q-62 0 -110.5 8t-95.5 28t-80.5 60t-51.5 98q-2 8 -2 13q0 13 18 16h11q10 0 16.5 -2t11 -8.5t7 -10.5t6.5 -15.5t6 -16.5q62 -135 248 -135q54 0 112 10q144 24 390 133.5t526.5 268.5t578 359.5t545.5 398.5t427.5 393.5t225.5 336.5q27 80 27 146
q0 72 -27 132t-73.5 102t-109.5 71t-134 43t-148 14q-23 0 -81 -4q-34 -3 -54 -23q-229 -194 -334 -194q-32 0 -51.5 12t-19.5 33q0 27 37 67q90 95 305 129q33 3 57 27q49 46 71.5 67.5t65.5 70t64 84t39 85t18 97.5q0 40 -19.5 71t-56.5 31q-24 0 -88 -31
q-54 -29 -105.5 -71t-93 -85t-85 -103t-73.5 -107t-68.5 -117.5t-61 -115t-57.5 -116.5q-12 -25 -45 -126q-154 -477 -273 -795q-28 -72 -47.5 -142.5t-45 -181t-34.5 -145.5q-10 -29 -24 -33q-12 -4 -21 -4q-32 0 -35 41v10q0 37 5.5 112.5t14 177t9.5 108.5
q16 175 40.5 336t64.5 336.5t68 286t87 327t86 317.5q16 66 39 146q8 30 35 30q14 0 25.5 -9t11.5 -21q0 -8 -9 -17q-11 -11 -14 -26q-44 -202 -132 -530t-148 -603t-89 -565q0 -8 3 -8q13 0 115.5 338t225 738.5t168.5 506.5q10 26 29.5 41.5t36.5 15.5q25 0 25 -29
q0 -13 -7 -34q-12 -50 -92 -332q10 7 25 32q30 49 52 84.5t60 89.5t71 92.5t78 82t87.5 70.5t94.5 45t104 18q60 0 100.5 -37t40.5 -100q0 -17 -2 -25q-6 -55 -26.5 -104.5t-58.5 -98.5t-66.5 -79.5t-82.5 -82.5q-15 -15 -18 -22q8 -4 14 -4q3 0 9.5 1t9.5 1
q109 0 210 -21.5t190.5 -66t143.5 -125t54 -186.5q0 -48 -12 -103q-24 -111 -136.5 -260.5t-282.5 -307t-388.5 -327t-451.5 -324.5t-475 -294.5t-456 -242t-397 -162.5t-297 -60zM-246 1141q4 12 4 20q0 9 -2 13q-82 -223 -143 -447q39 72 49 102q12 40 43.5 147.5
t48.5 164.5zM-139 844q103 47 219 147q-64 -13 -125.5 -42t-87.5 -72q-8 -12 -8 -21q0 -8 2 -12z" />
    <glyph glyph-name="uniE003" unicode="&#xe003;" horiz-adv-x="1847" 
d="M496 -213q-68 0 -134.5 11t-133 37t-116.5 65t-81 99.5t-31 135.5q0 122 83 278t217.5 308.5t305 307t345.5 281.5t339 223t285 140q177 66 311 76q6 0 18.5 1t18.5 1q25 0 49.5 -4t50 -13.5t41 -29t15.5 -47.5q0 -45 -41 -111q-92 -146 -310.5 -358t-443.5 -389.5
t-381 -270.5q-107 -60 -170 -63h-10q-29 0 -29 14q0 23 23 35q103 45 307 187t414.5 312t377 346.5t187.5 274.5q0 3 1 8t1 7q0 34 -25.5 49.5t-62.5 15.5h-39q-78 -8 -170 -35q-174 -52 -366.5 -158.5t-368 -240.5t-337 -292.5t-280 -312.5t-188.5 -303.5t-70 -262.5
q0 -133 101 -208t313 -75q184 0 441 74t491.5 186t384.5 227q22 19 41 19h4q20 0 20 -10q0 -8 -6 -11q-7 -9 -20 -18q-160 -124 -402.5 -240t-507.5 -191t-462 -75z" />
    </font>
</defs>
</svg>
