<?xml version="1.0" encoding="utf-8"?>
<!-- Generator: Adobe Illustrator 19.0.0, SVG Export Plug-In . SVG Version: 6.00 Build 0)  -->
<svg version="1.1" id="Layer_1" xmlns="http://www.w3.org/2000/svg" xmlns:xlink="http://www.w3.org/1999/xlink" x="0px" y="0px"
	 viewBox="0 0 160.4 160.9" style="enable-background:new 0 0 160.4 160.9;" xml:space="preserve">
<style type="text/css">
	.st0{fill:#FAC5CB;}
</style>
<g>
	<g>
		<g>
			<path class="st0" d="M139.9,30.3c-4.1-4.9-8.7-9.4-13.8-13.2l-1.9-1.4l-2-1.3c-1.3-0.9-2.7-1.7-4.1-2.5c-0.7-0.4-1.4-0.8-2.1-1.2
				L115,10l-0.5-0.3l-0.5-0.3c-1.5-0.7-2.9-1.4-4.4-2c-0.7-0.3-1.5-0.6-2.2-0.9L105,5.9l-1.1-0.4l-1.2-0.3l-2.3-0.7
				c-0.8-0.2-1.6-0.4-2.4-0.6c-0.8-0.2-1.6-0.4-2.4-0.5c-1.6-0.3-3.2-0.6-4.8-0.8C84.5,1.8,78,1.7,71.6,2.4C65,3.2,58.5,4.7,52.3,7
				L49.9,8l-2.3,1l-1.1,0.5L45.4,10l-2.2,1.1L41,12.4L39.9,13c-0.4,0.2-0.7,0.4-1.1,0.7L36.7,15c-0.7,0.5-1.4,1-2,1.4l-1,0.7
				c-0.3,0.2-0.7,0.5-1,0.8l-2,1.5c-0.6,0.5-1.3,1.1-1.9,1.6l-0.9,0.8c-0.3,0.3-0.6,0.6-0.9,0.9l-1.8,1.7c-0.6,0.6-1.2,1.2-1.7,1.8
				l-0.9,0.9c-0.3,0.3-0.6,0.6-0.8,0.9l-1.6,1.9c-0.5,0.6-1,1.3-1.6,2l-0.8,1c-0.3,0.3-0.5,0.7-0.7,1l-1.5,2.1
				c-0.5,0.7-0.9,1.4-1.4,2.1l-0.7,1.1c-0.2,0.4-0.4,0.7-0.6,1.1l-1.3,2.2c-0.4,0.7-0.8,1.5-1.2,2.2c-0.4,0.7-0.8,1.5-1.1,2.2
				l-1,2.3c-0.3,0.8-0.6,1.5-1,2.3c-0.7,1.5-1.2,3.1-1.7,4.7c-0.1,0.4-0.3,0.8-0.4,1.2l-0.4,1.2l-0.4,1.2c-0.1,0.4-0.2,0.8-0.3,1.2
				c-0.4,1.6-0.8,3.2-1.1,4.9c-0.2,0.8-0.3,1.6-0.5,2.5l-0.3,2.5l-0.2,1.2L2,73.4l-0.2,2.5c-0.1,0.8-0.1,1.7-0.1,2.5l0,1.3l0,0.6
				l0,0.6c0,1.7,0,3.3,0.2,5C1.9,86.7,2,87.6,2,88.4l0.3,2.5l0.2,1.2c0.1,0.4,0.1,0.8,0.2,1.2l0.4,2.5c0.7,3.3,1.5,6.6,2.6,9.7
				l0.4,1.2l0.2,0.6l0.2,0.6l0.9,2.3c0.3,0.8,0.7,1.5,1,2.3c0.4,0.8,0.7,1.5,1.1,2.3c0.8,1.5,1.5,3,2.4,4.5c0.4,0.7,0.8,1.5,1.3,2.2
				l1.4,2.1c0.4,0.7,0.9,1.4,1.4,2.1c0.5,0.7,1,1.4,1.5,2c1,1.3,2,2.7,3.2,3.9c2.2,2.6,4.6,4.9,7,7.2c1.3,1.1,2.5,2.2,3.9,3.2
				c0.7,0.5,1.3,1,2,1.5l2.1,1.5c0.7,0.5,1.4,1,2.1,1.4c0.7,0.5,1.4,0.9,2.1,1.4l2.2,1.3c0.4,0.2,0.7,0.4,1.1,0.6l1.1,0.6
				c0.7,0.4,1.5,0.8,2.2,1.2l2.3,1.1l1.1,0.5l1.2,0.5l2.3,0.9l2.4,0.8l1.2,0.4c0.4,0.1,0.8,0.2,1.2,0.4l2.4,0.7
				c0.8,0.2,1.6,0.4,2.5,0.6c1.6,0.4,3.3,0.7,4.9,1c0.4,0.1,0.8,0.1,1.2,0.2l1.3,0.2c0.8,0.1,1.7,0.2,2.5,0.3l2.5,0.2
				c0.4,0,0.8,0.1,1.3,0.1l1.3,0l2.5,0.1l2.5-0.1l1.4,0c0.5,0,0.9-0.1,1.4-0.1l2.8-0.2l2.8-0.4c0.5-0.1,0.9-0.1,1.4-0.2l1.4-0.3
				c3.7-0.6,7.3-1.6,10.9-2.7l2.6-0.9c0.9-0.3,1.7-0.7,2.6-1c0.4-0.2,0.9-0.3,1.3-0.5l1.3-0.6l1.3-0.6c0.4-0.2,0.9-0.4,1.3-0.6
				l2.5-1.3c0.8-0.4,1.6-0.9,2.4-1.4l1.2-0.7c0.4-0.2,0.8-0.5,1.2-0.8c0.8-0.5,1.6-1,2.3-1.5c5.3-3.6,10.2-7.9,14.5-12.7
				c4.3-4.8,7.9-10.1,10.7-15.7c0.5-1,0.1-0.6-0.4,0.4c-2.8,5.4-6.3,10.4-10.4,14.9c-0.5,0.6-1,1.1-1.6,1.7l-1.6,1.6l-1.7,1.6
				c-0.6,0.5-1.1,1-1.7,1.5c-1.2,1-2.3,2-3.5,2.9l-1.8,1.4l-1.9,1.3c-1.3,0.9-2.6,1.7-4,2.6c-0.7,0.4-1.4,0.8-2,1.2
				c-0.7,0.4-1.4,0.8-2.1,1.2c-1.4,0.7-2.8,1.5-4.3,2.1l-2.2,1l-2.2,0.9c-1.5,0.6-3,1.1-4.5,1.6c-0.4,0.1-0.8,0.2-1.1,0.4l-1.1,0.3
				c-0.8,0.2-1.5,0.5-2.3,0.6l-2.3,0.5l-1.2,0.3l-1.2,0.2l-2.3,0.4c-0.8,0.1-1.6,0.2-2.4,0.3c-3.3,0.5-6.6,0.6-9.9,0.6l-2.5-0.1
				c-0.8,0-1.6,0-2.5-0.1c-1.6-0.1-3.3-0.2-4.9-0.5c-0.8-0.1-1.6-0.2-2.4-0.3l-2.4-0.5l-1.2-0.2l-1.2-0.3l-2.4-0.6
				c-3.2-0.9-6.3-1.9-9.4-3.1c-1.5-0.6-3-1.3-4.5-2l-0.6-0.3l-0.6-0.3l-1.1-0.6l-1.1-0.6c-0.4-0.2-0.7-0.4-1.1-0.6
				c-1.4-0.8-2.9-1.6-4.3-2.5c-0.7-0.5-1.4-0.9-2.1-1.4l-2-1.4c-0.7-0.5-1.3-1-2-1.5c-0.6-0.5-1.3-1-1.9-1.5
				c-1.2-1.1-2.5-2.1-3.7-3.3c-0.6-0.6-1.2-1.1-1.8-1.7l-1.7-1.8c-0.3-0.3-0.6-0.6-0.8-0.9l-0.8-0.9c-0.5-0.6-1.1-1.2-1.6-1.9
				c-8.3-10.3-14.1-22.6-16.3-35.6c-0.1-0.8-0.3-1.6-0.4-2.4l-0.3-2.4l-0.1-1.2c0-0.4-0.1-0.8-0.1-1.2l-0.2-2.5
				c-0.1-0.8,0-1.6-0.1-2.5l0-1.2c0-0.4,0-0.8,0-1.2l0.1-2.5c0-0.4,0-0.8,0.1-1.2l0.1-1.2c0.5-6.5,1.8-13,3.9-19.2
				c0.3-0.8,0.5-1.5,0.8-2.3L8.4,51l0.5-1.1l0.5-1.1l1-2.2c1.5-2.9,3-5.8,4.8-8.5c3.5-5.5,7.8-10.4,12.6-14.8
				c0.6-0.6,1.2-1.1,1.8-1.6c0.6-0.5,1.2-1.1,1.9-1.6c1.3-1,2.5-2,3.9-3c2.6-1.9,5.4-3.6,8.3-5.2l2.2-1.1l1.1-0.6L48,9.7l2.2-1
				l2.3-0.9l1.1-0.5c0.4-0.1,0.8-0.3,1.2-0.4l2.3-0.8c0.8-0.3,1.6-0.5,2.3-0.7c0.8-0.2,1.6-0.5,2.4-0.6l2.6-0.6
				c0.9-0.2,1.8-0.3,2.7-0.5l1.3-0.2c0.4-0.1,0.9-0.1,1.3-0.2l2.7-0.4l2.7-0.2l1.4-0.1l1.4,0l2.7-0.1l2.7,0.1c0.5,0,0.9,0,1.4,0
				l1.4,0.1c0.9,0.1,1.8,0.1,2.7,0.2c1.8,0.2,3.6,0.4,5.4,0.7l1.3,0.2C96,3.8,96.4,3.9,96.9,4l2.7,0.6c0.4,0.1,0.9,0.2,1.3,0.3
				l1.3,0.4c0.9,0.2,1.7,0.5,2.6,0.8c0.9,0.3,1.7,0.6,2.6,0.9l2.5,1c0.4,0.2,0.8,0.3,1.3,0.5l1.2,0.6l1.2,0.6
				c0.4,0.2,0.8,0.4,1.2,0.6l2.4,1.3c0.4,0.2,0.8,0.4,1.2,0.7l1.2,0.7l1.2,0.7c0.4,0.2,0.8,0.5,1.1,0.7l2.2,1.5
				c2.9,2.1,5.7,4.4,8.4,6.8c0.7,0.6,1.3,1.2,1.9,1.9l1,0.9l0.9,1c0.6,0.7,1.3,1.3,1.9,2l1.8,2C140.6,31.2,140.5,31,139.9,30.3z"/>
		</g>
		<g>
			<path class="st0" d="M140.3,31c-7-8.7-16.1-15.7-26.2-20.6l-2.3-1l-1.1-0.5l-1.2-0.5l-2.3-0.9l-2.4-0.8l-1.2-0.4l-1.2-0.4
				l-2.4-0.7l-2.4-0.6l-1.2-0.3C96,4.2,95.6,4.1,95.2,4c-6.5-1.3-13.3-1.8-19.9-1.3l-2.5,0.2c-0.8,0.1-1.7,0.2-2.5,0.3L69,3.4
				c-0.4,0.1-0.8,0.1-1.2,0.2l-2.5,0.5c-3.3,0.7-6.5,1.6-9.7,2.7C54,7.3,52.5,8,50.9,8.6c-0.4,0.2-0.8,0.3-1.2,0.5l-1.1,0.5
				c-0.8,0.4-1.5,0.7-2.3,1.1l-2.2,1.2c-0.4,0.2-0.7,0.4-1.1,0.6L42,13.1c-1.5,0.8-2.9,1.7-4.3,2.6c-2.8,1.9-5.5,3.8-8,6
				c-1.3,1.1-2.5,2.2-3.7,3.3c-0.6,0.6-1.2,1.2-1.8,1.8c-0.6,0.6-1.2,1.2-1.7,1.8l-1.7,1.9c-0.6,0.6-1.1,1.3-1.6,1.9
				c-1.1,1.3-2,2.7-3,4c-1.9,2.8-3.7,5.6-5.2,8.6C8,51.1,5.8,57.7,4.4,64.3C3.8,67.7,3.2,71.1,3,74.5c-0.2,1.7-0.2,3.4-0.2,5.1
				l0,0.6l0,0.6l0,1.3l0,1.3c0,0.4,0,0.9,0.1,1.3c0.4,6.8,1.6,13.6,3.8,20.1c1,3.3,2.4,6.4,3.8,9.5c0.8,1.5,1.5,3.1,2.4,4.5l0.6,1.1
				c0.2,0.4,0.4,0.7,0.7,1.1l1.4,2.2c7.6,11.4,18.3,20.6,30.6,26.6c0.8,0.4,1.5,0.7,2.3,1.1l1.2,0.5c0.4,0.2,0.8,0.4,1.2,0.5
				c1.6,0.6,3.2,1.3,4.8,1.8l1.2,0.4l0.6,0.2l0.6,0.2l2.5,0.7l0.6,0.2l0.6,0.1L63,156l1.2,0.3l0.6,0.1l0.6,0.1
				c6.7,1.3,13.6,1.9,20.4,1.4c3.8-0.2,7.7-0.8,11.4-1.6c0.9-0.2,1.9-0.4,2.8-0.7l2.8-0.8c0.9-0.2,1.8-0.6,2.8-0.9l1.4-0.5
				c0.5-0.1,0.9-0.3,1.3-0.5c3.6-1.3,7.1-3,10.4-4.9c0.8-0.5,1.7-0.9,2.5-1.5l2.4-1.6c0.8-0.5,1.6-1.1,2.4-1.7
				c0.4-0.3,0.8-0.6,1.2-0.8l1.1-0.9c1.5-1.2,3-2.5,4.4-3.7c1.4-1.3,2.8-2.6,4.1-4.1c0.7-0.7,1.3-1.4,1.9-2.1
				c0.6-0.7,1.3-1.5,1.9-2.2l1.8-2.3c0.3-0.4,0.6-0.8,0.8-1.2l0.8-1.2c2.2-3.2,4.2-6.4,5.8-9.9c0.2-0.4,0.4-0.9,0.6-1.3l0.6-1.3
				l0.6-1.3c0.1-0.2,0.2-0.4,0.3-0.7l0.3-0.7l1-2.7c0.3-0.9,0.6-1.8,0.9-2.7c0.3-1,0.2-1-0.1,0l-0.8,2.4c-0.3,0.8-0.6,1.6-0.9,2.3
				l-0.5,1.2c-0.2,0.4-0.3,0.8-0.5,1.2l-1,2.3c-0.4,0.8-0.8,1.5-1.1,2.2l-0.6,1.1c-0.2,0.4-0.4,0.7-0.6,1.1l-1.3,2.2l-1.4,2.1
				l-0.7,1.1l-0.7,1l-1.5,2l-1.6,2c-0.3,0.3-0.5,0.7-0.8,1l-0.8,0.9c-0.6,0.6-1.1,1.3-1.7,1.9l-1.7,1.8c-0.3,0.3-0.6,0.6-0.9,0.9
				l-0.9,0.9c-0.6,0.6-1.2,1.2-1.8,1.7c-5,4.5-10.5,8.4-16.5,11.5l-1.1,0.6l-0.6,0.3l-0.6,0.3l-2.3,1l-0.6,0.3l-0.6,0.2l-1.2,0.5
				l-1.2,0.5l-0.6,0.2l-0.6,0.2l-2.4,0.8l-0.6,0.2l-0.6,0.2l-1.2,0.3l-1.2,0.3c-0.4,0.1-0.8,0.2-1.2,0.3l-2.5,0.6
				c-0.8,0.2-1.6,0.3-2.5,0.5c-0.8,0.1-1.7,0.3-2.5,0.4c-1.7,0.2-3.3,0.5-5,0.5l-2.5,0.2l-2.5,0.1l-1.3,0c-0.4,0-0.8,0-1.3,0
				l-2.5-0.1c-3.3-0.2-6.7-0.5-10-1.2c-3.3-0.6-6.6-1.4-9.8-2.4c-12.8-4.1-24.4-11.6-33.5-21.5c-2.2-2.5-4.4-5-6.3-7.8
				c-1-1.3-1.9-2.8-2.8-4.1c-0.4-0.7-0.8-1.4-1.3-2.1c-0.4-0.7-0.8-1.4-1.2-2.2L11,114c-0.4-0.7-0.7-1.5-1.1-2.3
				c-0.7-1.5-1.3-3.1-1.9-4.6c-1.1-3.1-2.2-6.3-2.9-9.6c-0.4-1.6-0.7-3.3-1-4.9C4,91.9,4,91,3.9,90.2c-0.1-0.8-0.2-1.6-0.3-2.5
				l-0.2-2.5c0-0.4-0.1-0.8-0.1-1.2l0-1.2l0-2.5l0.1-2.5c0.2-6.6,1.4-13.2,3.2-19.6c0.2-0.8,0.5-1.6,0.8-2.4
				c0.3-0.8,0.5-1.6,0.8-2.4c0.6-1.5,1.2-3.1,1.9-4.6c0.3-0.8,0.7-1.5,1-2.3l1.1-2.2c0.4-0.7,0.8-1.5,1.2-2.2
				c0.4-0.7,0.8-1.4,1.3-2.2c3.5-5.7,7.7-10.9,12.5-15.5c2.4-2.3,5-4.4,7.6-6.4c1.3-1,2.7-2,4.1-2.8l1-0.7c0.3-0.2,0.7-0.5,1.1-0.7
				l2.2-1.3c0.7-0.4,1.5-0.8,2.2-1.2l1.1-0.6c0.4-0.2,0.7-0.4,1.1-0.6c1.5-0.7,3-1.4,4.6-2c3.1-1.3,6.3-2.3,9.5-3.1l2.7-0.6L65,4.4
				l0.7-0.1L67,4.1c1.8-0.4,3.6-0.6,5.4-0.8c0.9-0.1,1.8-0.1,2.7-0.2l1.4-0.1l1.4,0l2.7-0.1l2.7,0.1c0.5,0,0.9,0,1.4,0l1.4,0.1
				c0.9,0.1,1.8,0.1,2.7,0.2l2.7,0.4l0.7,0.1L93,3.9l1.4,0.2c1.8,0.3,3.6,0.8,5.4,1.2c0.9,0.2,1.8,0.5,2.7,0.8
				c0.4,0.1,0.9,0.2,1.3,0.4l1.3,0.4c6.7,2.2,13.2,5.5,19.2,9.5c3,2,5.8,4.3,8.4,6.7c1.3,1.2,2.6,2.4,3.8,3.7l0.9,1
				c0.3,0.3,0.6,0.6,0.9,1c0.6,0.7,1.1,1.3,1.7,2c0.5,0.6,0.9,1,1,1.1C140.9,31.9,140.8,31.7,140.3,31z"/>
		</g>
		<g>
			<path class="st0" d="M155,73c-0.5-5.8-1.8-11.5-3.7-17c-0.9-2.8-2.1-5.4-3.3-8.1c-0.3-0.7-0.7-1.3-1-1.9c-0.3-0.6-0.6-1.3-1-1.9
				c-0.7-1.3-1.4-2.5-2.2-3.7l-1.2-1.8c-0.4-0.6-0.8-1.2-1.2-1.8c-0.8-1.2-1.7-2.3-2.6-3.5c-0.4-0.6-0.9-1.1-1.4-1.7L136,30
				l-1.5-1.6c-0.5-0.5-1-1.1-1.5-1.6c-4.2-4.1-8.8-7.7-13.7-10.7c-5-3-10.2-5.4-15.8-7.3c-0.7-0.3-1.4-0.4-2.1-0.6l-2.1-0.6
				l-2.1-0.5c-0.7-0.2-1.4-0.4-2.1-0.5L93,6.3c-0.4-0.1-0.7-0.1-1.1-0.2l-1.1-0.1l-2.2-0.3c-0.7-0.1-1.4-0.1-2.2-0.2
				C80.7,5,74.9,5.1,69.1,5.9c-5.7,0.8-11.4,2.3-16.8,4.5l-1,0.4l-1,0.4l-2,0.9c-0.7,0.3-1.3,0.6-2,1c-0.6,0.3-1.3,0.6-1.9,1
				c-2.5,1.4-5.1,2.9-7.4,4.6c-0.6,0.4-1.2,0.8-1.8,1.3l-1.7,1.3L32.6,22l-0.8,0.7l-1.7,1.4c-0.6,0.5-1.1,1-1.6,1.5
				c-0.5,0.5-1.1,1-1.6,1.5l-1.5,1.6c-0.3,0.3-0.5,0.5-0.8,0.8l-0.7,0.8L22.5,32c-0.5,0.6-0.9,1.1-1.4,1.7l-0.7,0.9
				c-0.2,0.3-0.5,0.6-0.7,0.9l-1.3,1.8c-0.2,0.3-0.4,0.6-0.6,0.9l-0.6,0.9L16.1,41c-0.4,0.6-0.7,1.3-1.1,1.9
				c-0.4,0.6-0.7,1.3-1.1,1.9C11.3,50,9.1,55.4,7.6,61.1c-1.5,5.6-2.2,11.4-2.3,17.2c-0.1,5.8,0.4,11.6,1.6,17.3
				c1.2,5.7,3,11.2,5.5,16.5c2.4,5.3,5.5,10.2,9.1,14.8c1.8,2.3,3.8,4.4,5.8,6.5l1.6,1.5c0.5,0.5,1,1,1.6,1.5
				c1.1,0.9,2.2,1.9,3.3,2.8l1.7,1.3l1.8,1.2c1.2,0.9,2.4,1.6,3.6,2.4c0.6,0.4,1.2,0.7,1.9,1.1l1.9,1.1l1.9,1c0.6,0.3,1.3,0.7,1.9,1
				c5.3,2.4,10.8,4.2,16.4,5.4c5.6,1.2,11.4,1.6,17.2,1.5c5.8-0.1,11.5-0.9,17.1-2.3c5.6-1.5,11-3.6,16.1-6.3
				c5.1-2.7,9.9-6,14.2-9.8c2.2-1.9,4.2-3.9,6.2-6c0.5-0.5,0.9-1.1,1.4-1.6c0.5-0.6,1-1.1,1.4-1.7c0.9-1.1,1.8-2.2,2.6-3.4
				c0.6-0.9,0.3-1-0.3-0.1l-0.6,0.9c-0.2,0.3-0.4,0.6-0.7,0.9l-1.3,1.7c-0.4,0.6-0.9,1.1-1.4,1.6c-0.5,0.5-0.9,1.1-1.4,1.6
				c-2,2.1-4,4.1-6.2,6c-4.3,3.8-9.1,7.1-14.2,9.7c-5.1,2.7-10.5,4.8-16,6.2c-5.6,1.4-11.3,2.2-17.1,2.3c-2.9,0.1-5.7-0.1-8.6-0.3
				l-0.5,0l-0.5-0.1l-1.1-0.1l-2.1-0.3l-2.1-0.4c-0.7-0.1-1.4-0.2-2.1-0.4c-5.6-1.2-11.1-3-16.3-5.5c-5.2-2.4-10.1-5.5-14.7-9.1
				l-0.9-0.7c-0.3-0.2-0.6-0.5-0.8-0.7l-1.6-1.4c-0.6-0.5-1.1-1-1.6-1.5c-0.5-0.5-1.1-1-1.6-1.5c-2-2.1-4-4.2-5.7-6.5
				c-7.2-9.1-12-19.9-14.4-31.1C6.2,89.7,5.8,83.9,6,78.2c0.2-5.7,1.1-11.5,2.6-17c1.5-5.6,3.6-11,6.3-16.1c2.7-5.1,6-9.9,9.8-14.2
				c3.8-4.3,8.1-8.2,12.9-11.6c2.3-1.7,4.8-3.2,7.3-4.6c0.6-0.3,1.3-0.7,1.9-1c0.6-0.3,1.3-0.7,1.9-1c1.3-0.6,2.6-1.2,4-1.7
				c5.4-2.1,11-3.7,16.7-4.5c5.7-0.8,11.5-1,17.3-0.5c11.5,0.9,22.7,4.7,32.6,10.6c4.9,3,9.5,6.6,13.6,10.6c0.5,0.5,1,1,1.5,1.5
				c0.5,0.5,1,1,1.5,1.6l1.4,1.6l0.7,0.8c0.2,0.3,0.4,0.6,0.7,0.8l1.3,1.7l0.3,0.4l0.3,0.4l0.6,0.9c0.4,0.6,0.8,1.2,1.2,1.8l1.2,1.8
				l0.6,0.9c0.2,0.3,0.4,0.6,0.5,0.9l1.1,1.9c0.2,0.3,0.4,0.6,0.5,0.9l0.5,1c0.3,0.6,0.7,1.3,1,1.9c1.2,2.6,2.4,5.3,3.3,8
				C153.1,61.6,154.4,67.2,155,73C155,74,155.1,74,155,73z"/>
		</g>
		<g>
			<path class="st0" d="M148.7,100.3c-1.6,4.8-3.5,9.8-6.1,14.4c-2.5,4.7-5.6,9.1-9,13l-0.4,0.4l-0.4,0.4l-0.8,0.8l-0.8,0.8
				c-0.3,0.3-0.5,0.5-0.8,0.8c-1.1,1-2.2,2.1-3.3,3.1c-2.2,2-4.7,3.8-7.2,5.5c-1.3,0.8-2.5,1.7-3.8,2.4c-0.7,0.4-1.3,0.8-2,1.1l-2,1
				c-0.3,0.2-0.7,0.4-1,0.5l-1,0.5c-0.7,0.3-1.4,0.6-2.1,0.9l-2.1,0.8l-1.1,0.4l-1.1,0.4c-0.8,0.3-1.5,0.5-2.3,0.8l-2.4,0.7
				c-0.8,0.2-1.6,0.4-2.4,0.6c-0.8,0.2-1.6,0.4-2.4,0.5c-1.6,0.3-3.2,0.6-4.8,0.8l-1.2,0.2l-0.6,0.1l-0.6,0l-2.4,0.2
				c-3.3,0.2-6.5,0.2-9.8-0.1c-1.6-0.1-3.3-0.3-4.9-0.5c-0.8-0.1-1.6-0.3-2.4-0.4c-0.8-0.1-1.6-0.3-2.4-0.5l-2.4-0.6
				c-0.8-0.2-1.6-0.4-2.4-0.7l-1.2-0.3l-1.2-0.4c-0.8-0.3-1.5-0.5-2.3-0.8c-1.5-0.6-3-1.2-4.5-1.9l-1.1-0.5l-0.6-0.3l-0.5-0.3
				l-2.2-1.1c-5.7-3.2-10.9-7-15.6-11.6l-0.9-0.9c-0.3-0.3-0.6-0.6-0.9-0.9l-1.7-1.8c-1.1-1.3-2.2-2.5-3.2-3.8l-0.8-1l-0.4-0.5
				l-0.4-0.5l-1.4-2c-0.5-0.7-0.9-1.4-1.3-2.1l-0.7-1l-0.6-1.1c-1.7-2.8-3.1-5.8-4.4-8.8l-0.9-2.3c-0.3-0.8-0.5-1.5-0.8-2.3
				l-0.4-1.2l-0.3-1.2c-0.2-0.8-0.4-1.6-0.7-2.4c-0.3-1.6-0.8-3.2-1-4.8l-0.2-1.2c-0.1-0.4-0.1-0.8-0.2-1.2l-0.3-2.4l-0.1-0.6l0-0.6
				L10,85.7l-0.1-1.2l0-0.6l0-0.6l-0.1-2.5c0-0.2,0-0.4,0-0.6l0-0.6l0-1.2C9.9,71.8,11.1,65.3,13,59c0.5-1.5,1-3.1,1.7-4.6l0.5-1.1
				l0.2-0.6l0.3-0.6l1-2.2c0.3-0.7,0.8-1.4,1.1-2.2l0.6-1.1c0.2-0.4,0.4-0.7,0.6-1.1l1.2-2.1l1.3-2c1.8-2.7,3.8-5.3,6-7.7l0.8-0.9
				l0.8-0.9c0.6-0.6,1.1-1.2,1.7-1.8c1.2-1.1,2.3-2.3,3.6-3.3c9.8-8.5,22.1-14.3,35-16.4c4.8-0.8,9.7-1.1,14.6-1
				c4.9,0.2,9.8,0.8,14.5,2c9.5,2.4,18.5,6.7,26.3,12.8c3.9,3.1,7.4,6.6,10.6,10.4c3.1,3.9,5.9,8.1,8.2,12.4
				c0.2,0.3,0.3,0.2,0.1-0.1c-6.1-11.6-15.4-21.4-26.6-28.1l-2.1-1.2c-0.4-0.2-0.7-0.4-1.1-0.6l-1.1-0.6c-1.4-0.8-3-1.4-4.4-2.1
				c-0.8-0.3-1.5-0.6-2.3-0.9l-1.1-0.4l-1.2-0.4c-0.8-0.2-1.5-0.5-2.3-0.7l-2.4-0.6c-0.8-0.2-1.6-0.4-2.4-0.6l-1.2-0.3
				c-0.4-0.1-0.8-0.2-1.2-0.2L92,10.1L91.4,10l-0.6-0.1l-1.2-0.1c-1.6-0.2-3.2-0.3-4.9-0.4c-0.4,0-0.8,0-1.2,0l-1.2,0
				c-0.8,0-1.6-0.1-2.4,0C67,9.4,54.2,13,43.2,19.8c-10.9,6.7-20.1,16.4-26,27.8c-3,5.7-5.2,11.9-6.5,18.3l-0.4,2.4
				c-0.1,0.4-0.2,0.8-0.2,1.2l-0.2,1.2c-0.1,0.8-0.2,1.6-0.3,2.4l-0.2,2.4c0,0.4-0.1,0.8-0.1,1.2l0,1.2c0,0.8-0.1,1.6-0.1,2.4
				l0.1,2.4c0,0.4,0,0.8,0,1.2l0.1,1.2c0.8,13,5.2,25.7,12.7,36.4c7.5,10.7,18.1,19.2,30,24.3c3,1.3,6,2.4,9.2,3.3l1.2,0.3
				c0.4,0.1,0.8,0.2,1.2,0.3l2.4,0.6l2.4,0.4l1.2,0.2l1.2,0.2l2.4,0.3l2.4,0.2l1.2,0.1l1.2,0l2.4,0.1l2.4-0.1l1.2,0l1.2-0.1l2.4-0.2
				l2.4-0.3c3.4-0.5,6.9-1.2,10.2-2.2l1.2-0.4l1.2-0.4c0.8-0.3,1.6-0.6,2.4-0.9l2.4-1l0.6-0.2l0.6-0.3l1.2-0.5l1.2-0.5
				c0.4-0.2,0.8-0.4,1.2-0.6c0.8-0.4,1.5-0.8,2.3-1.2l2.2-1.3l0.6-0.3l0.5-0.4l1.1-0.7l1.1-0.7c0.4-0.2,0.7-0.5,1.1-0.8
				c0.7-0.5,1.4-1,2.1-1.5l2-1.6c0.3-0.3,0.7-0.5,1-0.8l1-0.9l0.9-0.8c0.3-0.3,0.6-0.6,0.9-0.8c0.6-0.6,1.2-1.1,1.8-1.7
				c1.1-1.2,2.3-2.4,3.3-3.7l0.8-0.9l0.4-0.5l0.4-0.5l1.5-2c0.5-0.7,1-1.3,1.4-2l0.7-1l0.7-1c1.8-2.8,3.4-5.7,4.8-8.6
				c0.3-0.7,0.7-1.5,1-2.2c0.3-0.8,0.6-1.5,0.9-2.3l0.5-1.1l0.4-1.2c0.3-0.8,0.6-1.5,0.8-2.3C149.3,99.7,149.2,98.7,148.7,100.3z"/>
		</g>
		<g>
			<path class="st0" d="M155.7,75.2l-0.2-2.5c-0.1-0.8-0.2-1.6-0.3-2.5c-0.2-1.7-0.5-3.3-0.8-4.9c-0.7-3.2-1.4-6.5-2.5-9.6
				c-0.5-1.6-1.1-3.1-1.7-4.7c-0.3-0.8-0.7-1.5-1-2.3l-0.5-1.1c-0.2-0.4-0.4-0.7-0.5-1.1l-1.1-2.2c-0.4-0.7-0.8-1.4-1.2-2.2
				l-0.6-1.1l-0.7-1.1l-1.3-2.1c-3.7-5.5-8.1-10.6-13-14.9c-4.9-4.4-10.5-8.1-16.5-11.1C101.8,6,88.3,3.3,75,4.2
				c-0.8,0.1-1.6,0.1-2.5,0.2c-0.8,0.1-1.6,0.2-2.4,0.3c-0.4,0.1-0.8,0.1-1.2,0.2l-1.2,0.2l-2.4,0.4l-2.4,0.6l-1.2,0.3l-1.2,0.3
				L58,7.4l-2.3,0.8l-1.2,0.4c-0.4,0.1-0.8,0.3-1.2,0.5L51,10l-2.3,1l-1.1,0.5c-0.4,0.2-0.7,0.4-1.1,0.6l-2.2,1.1l-2.1,1.2L41.1,15
				l-1,0.7c-0.7,0.4-1.4,0.9-2.1,1.3l-2,1.4l-1,0.7l-1,0.7L32,21.4l-1.9,1.6l-0.9,0.8l-0.9,0.8l-1.8,1.7L24.8,28L24,28.8l-0.8,0.9
				l-1.6,1.8L20,33.5l-0.8,1l-0.7,1l-1.5,2l-1.4,2.1l-0.7,1l-0.6,1.1l-1.2,2.1L12,45.9L11.4,47l-0.5,1.1l-1,2.3l-0.9,2.3l-0.5,1.2
				L8.1,55l-0.8,2.3l-0.7,2.4l-0.3,1.2c-0.1,0.4-0.2,0.8-0.3,1.2l-0.6,2.4C4,71,3.5,77.7,3.7,84.3l0.2,2.5L4,88
				c0,0.4,0.1,0.8,0.2,1.2l0.3,2.4c0.1,0.8,0.3,1.6,0.4,2.4c0.3,1.6,0.7,3.2,1.1,4.8c0.1,0.4,0.2,0.8,0.3,1.2l0.3,1.2l0.3,1.2
				c0.1,0.4,0.2,0.8,0.4,1.2c2.1,6.2,4.9,12.2,8.5,17.7c7,11.1,16.9,20.4,28.4,26.6c11.6,6.2,24.7,9.2,37.8,8.8l2.4-0.1l2.4-0.2
				l1.2-0.1c0.4,0,0.8-0.1,1.2-0.1l2.4-0.3c0.8-0.1,1.6-0.3,2.4-0.4c0.8-0.2,1.6-0.3,2.4-0.5c1.6-0.4,3.2-0.7,4.7-1.2
				c3.1-0.9,6.2-2,9.2-3.3c1.5-0.7,3-1.3,4.4-2.1c0.7-0.4,1.5-0.7,2.2-1.1l2.1-1.2c0.4-0.2,0.7-0.4,1.1-0.6l1-0.7
				c0.7-0.4,1.4-0.9,2.1-1.3l2-1.4c0.3-0.2,0.7-0.5,1-0.7l1-0.7c0.6-0.5,1.3-1,1.9-1.5l1.9-1.6c0.3-0.3,0.6-0.5,0.9-0.8l0.9-0.8
				c0.6-0.6,1.2-1.1,1.8-1.7c4.6-4.6,8.8-9.8,12-15.5c0.4-0.7,0.8-1.4,1.2-2.1l1.1-2.2c0.2-0.4,0.4-0.7,0.5-1.1l0.5-1.1
				c0.3-0.7,0.7-1.5,1-2.2l0.9-2.3c0.1-0.4,0.3-0.8,0.4-1.1l0.4-1.2l0.8-2.3l0.6-2.4c1.7-6.3,2.4-12.8,2.5-19.3
				c0-1.4,0.1-1.5,0.1-0.1c-0.1,6.5-1,13-2.8,19.3l-0.7,2.3l-0.8,2.3l-0.4,1.2l-0.5,1.1l-0.9,2.3l-1,2.2l-0.5,1.1
				c-0.2,0.4-0.4,0.7-0.6,1.1l-1.1,2.2c-0.4,0.7-0.8,1.4-1.2,2.1l-0.6,1.1c-0.2,0.3-0.4,0.7-0.7,1l-1.3,2c-0.5,0.7-0.9,1.3-1.4,2
				l-0.7,1c-0.2,0.3-0.5,0.6-0.8,1l-1.5,1.9c-0.5,0.6-1.1,1.2-1.6,1.8l-0.8,0.9c-0.3,0.3-0.6,0.6-0.8,0.9l-1.7,1.8
				c-0.6,0.6-1.2,1.1-1.8,1.7l-0.9,0.8c-0.3,0.3-0.6,0.5-0.9,0.8l-1.8,1.6c-0.6,0.5-1.3,1-1.9,1.5l-1,0.7c-0.3,0.2-0.7,0.5-1,0.7
				l-2,1.4c-0.7,0.4-1.4,0.9-2,1.3l-1,0.7c-0.3,0.2-0.7,0.4-1.1,0.6l-2.1,1.2c-0.7,0.4-1.4,0.7-2.2,1.1l-1.1,0.5
				c-0.4,0.2-0.7,0.3-1.1,0.5l-2.2,1c-3,1.2-6,2.4-9.2,3.2c-1.5,0.5-3.1,0.8-4.7,1.2l-0.6,0.1l-0.6,0.1l-1.2,0.2l-1.2,0.2
				c-0.4,0.1-0.8,0.1-1.2,0.2c-1.6,0.2-3.2,0.4-4.8,0.5l-2.4,0.2L82,156c-12.9,0.3-25.9-2.8-37.4-8.9c-11.4-6.2-21.2-15.3-28.1-26.3
				c-3.5-5.4-6.2-11.4-8.2-17.5c-2-6.2-3.1-12.6-3.4-19.1C4.7,77.6,5.2,71,6.6,64.7c0.4-1.6,0.7-3.2,1.2-4.7
				c0.2-0.8,0.5-1.6,0.7-2.3l0.8-2.3c0.1-0.4,0.3-0.8,0.4-1.2l0.5-1.1c0.3-0.8,0.6-1.5,0.9-2.3c0.7-1.5,1.3-3,2.1-4.4
				c5.9-11.6,15-21.6,26-28.7C50.2,10.4,63.1,6.1,76.1,5.5l0.6,0l0.6,0l1.2,0c0.8,0,1.6-0.1,2.4,0l2.4,0.1c0.4,0,0.8,0,1.2,0
				l1.2,0.1l2.4,0.2l2.4,0.3l1.2,0.2l1.2,0.2l2.4,0.4c0.8,0.2,1.6,0.4,2.4,0.5l1.2,0.3c0.4,0.1,0.8,0.2,1.2,0.3l2.3,0.7
				c0.8,0.2,1.5,0.5,2.3,0.8l1.2,0.4c0.4,0.1,0.8,0.3,1.1,0.4l2.3,0.9c0.7,0.3,1.5,0.7,2.2,1l1.1,0.5c0.4,0.2,0.7,0.4,1.1,0.6
				l2.2,1.1c0.7,0.4,1.4,0.8,2.1,1.2l1.1,0.6c0.3,0.2,0.7,0.4,1,0.7l2,1.3l2,1.4l1,0.7l1,0.8l1.9,1.5l1.8,1.6
				c0.3,0.3,0.6,0.5,0.9,0.8l0.9,0.8c0.6,0.6,1.2,1.1,1.7,1.7c1.1,1.2,2.3,2.3,3.3,3.6c2.2,2.4,4.1,5,5.9,7.7
				c0.9,1.4,1.8,2.7,2.6,4.1l0.6,1.1l0.3,0.5l0.3,0.5l1.1,2.2c1.4,2.9,2.7,5.9,3.7,9c0.6,1.5,1,3.1,1.4,4.7c0.1,0.4,0.2,0.8,0.3,1.2
				l0.3,1.2l0.3,1.2l0.1,0.6l0.1,0.6c0.3,1.6,0.6,3.2,0.8,4.8c0.1,0.8,0.2,1.6,0.3,2.4l0.2,2.4c0,0.4,0.1,0.8,0.1,1.1
				c0,0.4,0,0.7,0.1,1c0,0.6,0.1,1.1,0.1,1.5c0.1,0.8,0.2,1.2,0.3,1.2c0.1,0,0.2-0.4,0.2-1.3c0-0.4,0-0.9,0-1.6c0-0.3,0-0.7,0-1
				C155.8,76,155.7,75.6,155.7,75.2z"/>
		</g>
		<g>
			<path class="st0" d="M105.4,10.6C93.3,6,79,4.9,65.7,7.6c-6.6,1.4-13.1,3.6-19.1,6.8l-1.1,0.6c-0.4,0.2-0.7,0.4-1.1,0.6
				c-0.7,0.4-1.5,0.8-2.2,1.3c-0.7,0.5-1.4,0.9-2.1,1.4c-0.4,0.2-0.7,0.4-1.1,0.7l-1,0.7c-2.8,1.9-5.3,4-7.7,6.2
				c-10,9.1-17.4,21-21.1,34c-1.9,6.5-2.8,13.3-2.9,20c0,3.4,0.2,6.8,0.6,10.1c0.2,1.7,0.5,3.3,0.8,5c0.2,0.8,0.4,1.7,0.6,2.5
				l0.3,1.2l0.3,1.2l0.7,2.4l0.8,2.4c0.1,0.4,0.3,0.8,0.4,1.2l0.5,1.2c0.3,0.8,0.6,1.6,0.9,2.3c0.7,1.5,1.3,3.1,2.1,4.5l0.6,1.1
				l0.3,0.6l0.3,0.5l1.3,2.2c0.2,0.4,0.4,0.7,0.7,1.1l0.7,1.1c0.5,0.7,0.9,1.4,1.4,2.1l1.5,2c0.5,0.7,1,1.3,1.5,2l0.8,1l0.8,0.9
				c0.5,0.6,1.1,1.3,1.6,1.9c1.2,1.2,2.3,2.4,3.5,3.6c4.8,4.7,10.2,8.6,16,11.9c1.5,0.8,2.9,1.6,4.4,2.3c0.8,0.3,1.5,0.7,2.3,1
				l2.3,0.9c0.8,0.3,1.6,0.6,2.4,0.9l1.2,0.4l0.6,0.2l0.6,0.2l2.4,0.7c0.4,0.1,0.8,0.2,1.2,0.3l1.2,0.3c13.9,3.3,28.8,2.3,42.2-2.6
				c0.8-0.3,1.7-0.6,2.5-1l1.2-0.5l1.2-0.6c0.8-0.4,1.6-0.7,2.4-1.1l2.4-1.2c0.4-0.2,0.8-0.4,1.2-0.7l1.2-0.7l1.2-0.7
				c0.4-0.2,0.8-0.5,1.1-0.7c0.7-0.5,1.5-1,2.2-1.5l2.2-1.6c0.4-0.3,0.7-0.5,1.1-0.8l1.1-0.8l1.1-0.8c0.3-0.3,0.7-0.6,1-0.9
				c0.7-0.6,1.4-1.2,2-1.8l1.9-1.8l0.5-0.5l0.5-0.5l0.9-1l0.9-1c0.3-0.3,0.6-0.7,0.9-1c0.6-0.7,1.2-1.3,1.7-2l1.7-2.1
				c0.4-0.5,0.7-1,1-1.4c0.2-0.4,0.4-0.6,0.4-0.8c0.1-0.3-0.3,0-1.1,1.2c-0.5,0.7-1.1,1.3-1.6,2l-0.8,1l-0.8,1
				c-0.6,0.6-1.1,1.3-1.7,1.9l-1.8,1.8c-2.4,2.4-4.9,4.7-7.6,6.7l-1,0.8l-1,0.7c-0.7,0.5-1.4,1-2.1,1.5c-1.4,0.9-2.9,1.9-4.4,2.7
				c-1.5,0.9-3,1.6-4.5,2.4c-0.8,0.4-1.5,0.7-2.3,1.1l-1.2,0.5l-1.2,0.5c-0.8,0.3-1.6,0.6-2.4,0.9l-2.4,0.8
				c-0.8,0.3-1.6,0.5-2.4,0.7c-0.8,0.2-1.6,0.5-2.4,0.7l-2.5,0.6l-0.6,0.1l-0.6,0.1l-1.2,0.2l-1.2,0.2l-0.6,0.1l-0.6,0.1l-2.5,0.3
				c-3.4,0.3-6.7,0.5-10.1,0.3c-1.7,0-3.4-0.2-5-0.3c-0.4,0-0.8-0.1-1.3-0.1l-1.3-0.2c-0.8-0.1-1.7-0.2-2.5-0.4
				c-12.9-2.2-25.3-8-35.3-16.5l-1.8-1.6c-0.6-0.5-1.2-1.1-1.8-1.7c-1.2-1.1-2.3-2.3-3.4-3.5c-0.5-0.6-1.1-1.2-1.6-1.9l-0.8-0.9
				c-0.3-0.3-0.5-0.6-0.7-1l-1.5-1.9l-1.4-2c-0.2-0.3-0.5-0.7-0.7-1l-0.6-1c-0.4-0.7-0.9-1.4-1.3-2.1c-0.8-1.4-1.6-2.8-2.3-4.3
				c-1.5-2.9-2.7-5.9-3.8-9l-0.8-2.4c-0.3-0.8-0.5-1.6-0.7-2.4c-0.5-1.6-0.8-3.2-1.2-4.9c-0.2-0.8-0.3-1.6-0.5-2.5l-0.2-1.2L8,90.2
				l-0.3-2.5l-0.2-2.5L7.4,84l0-1.3l-0.1-2.5l0.1-2.5l0-1.3l0.1-1.3l0.2-2.5L8,70.2C8,69.8,8.1,69.4,8.1,69l0.2-1.2
				c0.2-0.8,0.3-1.6,0.5-2.5c2.7-13.1,9.2-25.3,18.3-35c4.7-5.1,10.3-9.4,16.3-12.9l2.3-1.3l2.3-1.2c0.8-0.4,1.6-0.7,2.4-1.1
				l1.2-0.5l0.6-0.3l0.6-0.2l2.4-0.9c0.8-0.3,1.7-0.5,2.5-0.8c0.4-0.1,0.8-0.3,1.2-0.4l1.3-0.3c0.8-0.2,1.7-0.5,2.5-0.7
				c3.4-0.8,6.9-1.4,10.3-1.8l2.6-0.2c0.4,0,0.9-0.1,1.3-0.1l1.3,0c0.9,0,1.7-0.1,2.6-0.1l2.6,0c3.5,0.1,7,0.4,10.4,1.1l1.3,0.2
				L96.5,9c0.8,0.2,1.7,0.4,2.5,0.6c1.7,0.5,3.3,0.9,5,1.5c0.6,0.2,1.2,0.4,1.7,0.5c0.5,0.2,0.9,0.3,1.3,0.4
				c0.7,0.2,1.2,0.3,1.4,0.2c0.2,0,0-0.2-0.4-0.5c-0.2-0.1-0.6-0.3-1-0.5C106.5,11.1,106,10.8,105.4,10.6z"/>
		</g>
		<g>
			<path class="st0" d="M146.2,58.8c-1.4-4.7-3.5-9.4-6.1-13.9c-0.3-0.6-0.7-1.1-1-1.7c-0.3-0.6-0.7-1.1-1.1-1.7
				c-0.4-0.5-0.8-1.1-1.1-1.6c-0.4-0.5-0.7-1.1-1.2-1.6c-0.8-1-1.6-2.1-2.5-3.1l-1.3-1.5l-1.4-1.5c-7.1-7.5-15.9-13.6-25.8-17.3
				c-10-3.7-20.8-4.8-31-3.9c-5.6,0.5-11.1,1.7-16.4,3.4c-0.7,0.2-1.3,0.5-2,0.7l-2,0.7l-1.9,0.8c-0.6,0.3-1.3,0.5-1.9,0.9l-1.9,0.9
				c-0.3,0.1-0.6,0.3-0.9,0.5l-0.9,0.5c-0.6,0.4-1.2,0.7-1.8,1l-1.8,1.1c-0.3,0.2-0.6,0.4-0.9,0.6L40.5,23l-1.7,1.2l-1.7,1.3
				l-0.8,0.7c-0.3,0.2-0.5,0.5-0.8,0.7l-1.6,1.4c-0.5,0.5-1,1-1.5,1.5l-0.8,0.7l-0.4,0.4l-0.4,0.4l-1.5,1.6
				c-0.5,0.5-0.9,1.1-1.4,1.6c-0.5,0.5-0.9,1.1-1.4,1.6l-1.3,1.7l-0.7,0.8L24,39.4l-1.2,1.7l-1.1,1.8c-0.8,1.2-1.5,2.4-2.2,3.6
				c-0.2,0.3-0.3,0.6-0.5,0.9l-0.5,0.9c-0.3,0.6-0.7,1.2-1,1.9l-0.9,1.9c-0.1,0.3-0.3,0.6-0.4,1l-0.4,1l-0.8,2
				c-0.2,0.7-0.5,1.3-0.7,2c-0.5,1.3-0.8,2.7-1.2,4c-0.2,0.7-0.4,1.4-0.5,2l-0.5,2.1l-0.4,2.1c-0.1,0.7-0.3,1.4-0.3,2.1
				c-0.2,1.4-0.4,2.8-0.5,4.2l-0.2,2.1l-0.1,2.1c-0.1,2.8,0,5.6,0.3,8.4c0.1,0.7,0.2,1.4,0.2,2.1l0.1,1c0,0.3,0.1,0.7,0.2,1l0.4,2.1
				c0.1,0.3,0.1,0.7,0.2,1l0.2,1l0.5,2c0.2,0.7,0.4,1.4,0.6,2l0.3,1l0.1,0.5l0.2,0.5l0.7,2c0.2,0.7,0.5,1.3,0.7,2l0.8,2l0.9,1.9
				c0.3,0.6,0.6,1.3,0.9,1.9l0.9,1.9c0.2,0.3,0.3,0.6,0.5,0.9l0.5,0.9c0.4,0.6,0.7,1.2,1.1,1.8l1.1,1.8c0.2,0.3,0.4,0.6,0.6,0.9
				l0.6,0.9l1.2,1.7c0.4,0.6,0.9,1.1,1.3,1.7c0.4,0.6,0.9,1.1,1.3,1.6c0.9,1.1,1.8,2.1,2.8,3.1c0.5,0.5,1,1,1.5,1.5l1.5,1.5
				c0.3,0.2,0.5,0.5,0.8,0.7l0.8,0.7l1.6,1.4l1.7,1.3c0.6,0.4,1.1,0.9,1.7,1.3l1.7,1.2l0.4,0.3l0.4,0.3l0.9,0.6
				c0.6,0.4,1.2,0.8,1.8,1.1l1.8,1.1l0.9,0.5l0.9,0.5l1.9,1c0.6,0.3,1.3,0.6,1.9,0.9c0.6,0.3,1.3,0.6,1.9,0.9
				c5.2,2.2,10.6,3.9,16.2,4.7c11.2,1.7,22.9,0.7,33.6-3c1.4-0.4,2.7-1,4-1.5c0.7-0.2,1.3-0.6,1.9-0.8c0.6-0.3,1.3-0.6,1.9-0.9
				l1.9-1l0.9-0.5c0.3-0.2,0.6-0.4,0.9-0.5l1.8-1.1c0.6-0.4,1.2-0.8,1.8-1.1c2.4-1.5,4.7-3.2,6.9-5l1.6-1.4l0.8-0.7
				c0.3-0.2,0.5-0.5,0.8-0.7l1.5-1.5c0.5-0.5,1-1,1.5-1.5c2-2,3.7-4.3,5.5-6.5l1.2-1.7l0.6-0.9l0.6-0.9l1.1-1.8
				c0.4-0.6,0.7-1.2,1.1-1.8c1.4-2.4,2.6-5,3.7-7.6c1-2.6,2-5.3,2.7-8c0.2-0.8,0.3-1.4,0.4-1.7c0-0.4,0-0.6-0.1-0.6
				c-0.1,0-0.2,0.2-0.4,0.6c-0.2,0.4-0.4,1-0.6,1.8c-1.6,5.8-4.1,11.3-7.1,16.5c-1.6,2.6-3.2,5.1-5.1,7.4c-0.9,1.2-1.9,2.3-2.9,3.5
				c-0.5,0.6-1,1.1-1.5,1.6c-0.5,0.5-1,1.1-1.6,1.6l-1.6,1.6c-0.6,0.5-1.1,1-1.7,1.5l-0.9,0.7c-0.3,0.2-0.6,0.5-0.9,0.7l-1.8,1.4
				c-0.6,0.4-1.2,0.9-1.8,1.3l-0.9,0.7c-0.3,0.2-0.6,0.4-0.9,0.6L117,140l-2,1.1l-1,0.6c-0.3,0.2-0.7,0.3-1,0.5l-2,1l-2.1,0.9
				l-1,0.5c-0.3,0.1-0.7,0.3-1,0.4l-2.1,0.8c-0.7,0.3-1.4,0.5-2.1,0.7l-1.1,0.4c-0.4,0.1-0.7,0.2-1.1,0.3l-2.2,0.6
				c-5.8,1.5-11.8,2.2-17.9,2.2c-6-0.1-12-0.9-17.8-2.4c-5.8-1.6-11.4-3.8-16.7-6.8c-2.6-1.4-5.1-3.1-7.6-4.9
				c-1.2-0.9-2.4-1.8-3.5-2.8c-0.6-0.5-1.2-1-1.7-1.5l-1.6-1.6c-0.6-0.5-1-1.1-1.6-1.6l-0.8-0.8c-0.3-0.3-0.5-0.5-0.7-0.8
				c-1-1.1-1.9-2.3-2.8-3.5c-1.8-2.4-3.4-4.9-4.9-7.4c-2.9-5.2-5.2-10.7-6.8-16.4c-0.2-0.7-0.4-1.4-0.6-2.2l-0.5-2.2
				c-0.1-0.4-0.2-0.7-0.2-1.1L12.5,93l-0.4-2.2c-0.4-2.9-0.7-5.9-0.7-8.9c-0.1-3,0.1-5.9,0.4-8.9l0.3-2.2l0.1-1.1l0.2-1.1l0.4-2.2
				c0.2-0.7,0.3-1.4,0.5-2.2c1.4-5.8,3.5-11.4,6.3-16.6c1.4-2.6,3-5.2,4.7-7.6c0.8-1.2,1.8-2.4,2.7-3.5c0.5-0.6,1-1.1,1.5-1.7
				c0.5-0.6,1-1.1,1.5-1.6l1.5-1.6c0.5-0.5,1.1-1,1.6-1.5c1.1-1,2.2-2,3.3-2.9c0.6-0.5,1.2-0.9,1.8-1.4l0.9-0.7
				c0.3-0.2,0.6-0.4,0.9-0.6l1.8-1.3c0.6-0.4,1.2-0.8,1.9-1.2c5-3.1,10.4-5.5,16-7.3c2.8-0.8,5.7-1.6,8.6-2.1c2.9-0.6,5.9-0.8,8.8-1
				c5.9-0.2,11.8,0.2,17.6,1.5c1.4,0.4,2.9,0.6,4.3,1.1c0.7,0.2,1.4,0.4,2.1,0.6l2.1,0.7c0.3,0.1,0.7,0.2,1,0.4l1,0.4
				c0.7,0.3,1.4,0.5,2.1,0.8l2,0.9c0.3,0.2,0.7,0.3,1,0.5l1,0.5c0.7,0.3,1.3,0.7,2,1l1.9,1.1c0.3,0.2,0.6,0.4,1,0.6l0.9,0.6
				c0.6,0.4,1.3,0.8,1.9,1.2c1.2,0.9,2.4,1.7,3.6,2.6c0.6,0.5,1.2,0.9,1.7,1.4l1.7,1.5c0.6,0.5,1.1,1,1.6,1.5c0.5,0.5,1.1,1,1.6,1.5
				c1,1.1,2.1,2.1,3,3.3c2,2.2,3.7,4.6,5.3,7c3.2,4.9,5.9,10.2,7.7,15.8c0.2,0.7,0.5,1.3,0.6,1.9c0.2,0.5,0.3,1,0.4,1.3
				c0.2,0.7,0.4,1.1,0.5,1.1c0.1,0,0-0.3-0.1-0.9c-0.1-0.3-0.1-0.7-0.2-1.1C146.5,59.9,146.4,59.3,146.2,58.8z"/>
		</g>
		<g>
			<path class="st0" d="M157.8,59.4c-1.1-4.3-2.6-8.5-4.5-12.6c-1.9-4.1-4.1-8.1-6.6-11.9c-5.1-7.6-11.6-14.3-18.8-19.6
				c-7.4-5.5-15.8-9.6-24.7-12.1c-8.9-2.6-18.2-3.5-27.5-3c-1.7,0.1-3.4,0.2-5.1,0.5c-0.8,0.1-1.7,0.2-2.5,0.3l-2.5,0.4l-1.3,0.2
				l-1.3,0.3l-2.5,0.6l-2.5,0.7l-1.2,0.3c-0.4,0.1-0.8,0.3-1.2,0.4l-2.4,0.8c-0.8,0.3-1.6,0.6-2.4,0.9c-1.6,0.6-3.2,1.3-4.7,2
				c-3.1,1.5-6.1,3.1-9,5c-5.8,3.7-11,8.2-15.7,13.3c-2.3,2.6-4.5,5.2-6.4,8c-1,1.4-1.9,2.9-2.8,4.3c-0.5,0.7-0.9,1.5-1.3,2.2
				c-0.4,0.7-0.9,1.5-1.2,2.3l-1.2,2.3c-0.4,0.8-0.7,1.6-1.1,2.3c-0.7,1.6-1.4,3.2-2,4.8L5,52.6l-0.2,0.6l-0.4,1.2l-0.4,1.2
				c-0.1,0.4-0.3,0.8-0.4,1.2c-0.5,1.7-1,3.3-1.4,5C1.4,65.2,0.9,68.6,0.4,72C0.1,75.4-0.1,78.9,0,82.3c0,3.4,0.4,6.7,0.9,10.1
				c0.6,3.3,1.2,6.6,2.2,9.9c0.9,3.3,2.1,6.4,3.4,9.5l1,2.3c0.2,0.4,0.3,0.8,0.5,1.1l0.6,1.1l1.2,2.3l1.3,2.2l0.6,1.1l0.7,1.1
				l1.4,2.1c0.5,0.7,1,1.4,1.5,2.1c0.5,0.7,1,1.4,1.5,2l1.6,2c0.5,0.7,1.1,1.3,1.6,1.9c1.1,1.3,2.3,2.5,3.4,3.7
				c2.4,2.4,4.9,4.6,7.6,6.7c2.6,2.1,5.5,4,8.3,5.7c1.5,0.8,2.9,1.7,4.4,2.5c0.7,0.4,1.5,0.8,2.2,1.2l2.3,1.1
				c0.4,0.2,0.8,0.4,1.2,0.5l1.2,0.5l2.3,0.9l2.4,0.8l1.2,0.4c0.4,0.1,0.8,0.2,1.2,0.4c6.5,1.9,13.2,3.2,19.9,3.4l2.5,0.1
				c0.8,0,1.7,0,2.5,0c0.8,0,1.7,0,2.5-0.1l2.5-0.2c0.4,0,0.8-0.1,1.3-0.1l1.3-0.2l2.5-0.3l2.5-0.4c0.8-0.1,1.7-0.3,2.5-0.5
				c6.6-1.4,13.1-3.7,19.1-6.8l2.2-1.2l2.2-1.3l1.1-0.6l1.1-0.7l2.1-1.4c2.7-2,5.4-4,7.9-6.3c5-4.5,9.4-9.6,13.2-15.1
				c0.5-0.7,0.9-1.4,1.4-2.1c0.4-0.7,0.9-1.4,1.3-2.1c0.8-1.5,1.7-2.9,2.4-4.4c0.4-0.8,0.8-1.5,1.1-2.3l1-2.3l0.5-1.2l0.5-1.2
				l0.9-2.3c2.3-6.3,3.8-12.9,4.4-19.6c0.2-2.8-0.1-2.7-0.3,0.1c-0.4,3.4-0.9,6.8-1.7,10.1c-0.3,1.7-0.8,3.3-1.3,4.9l-0.2,0.6
				l-0.2,0.6l-0.4,1.2l-0.4,1.2c-0.1,0.4-0.3,0.8-0.4,1.2c-2.4,6.4-5.5,12.5-9.4,18c-1.9,2.8-4.1,5.4-6.4,8
				c-1.2,1.2-2.3,2.5-3.6,3.6c-0.6,0.6-1.2,1.2-1.9,1.7l-1.9,1.7c-0.3,0.3-0.6,0.6-1,0.8l-1,0.8c-0.7,0.5-1.3,1.1-2,1.6l-2.1,1.5
				c-0.3,0.2-0.7,0.5-1,0.7l-1.1,0.7c-0.7,0.5-1.4,0.9-2.2,1.4l-2.2,1.3c-0.4,0.2-0.7,0.4-1.1,0.6l-1.1,0.6l-2.3,1.2l-2.3,1.1
				l-1.2,0.5l-1.2,0.5l-2.4,0.9l-2.4,0.8l-1.2,0.4c-0.4,0.1-0.8,0.2-1.2,0.4l-2.5,0.7c-0.8,0.2-1.7,0.4-2.5,0.6
				c-0.8,0.2-1.7,0.4-2.5,0.6l-2.5,0.5c-0.4,0.1-0.8,0.1-1.3,0.2l-1.3,0.2l-1.3,0.2c-0.4,0.1-0.8,0.1-1.3,0.1l-2.5,0.2
				c-0.8,0.1-1.7,0.1-2.6,0.1l-2.6,0.1l-2.6-0.1c-0.9,0-1.7,0-2.6-0.1c-6.8-0.5-13.6-1.7-20-3.9l-2.4-0.8l-2.4-0.9l-1.2-0.5
				l-1.2-0.5l-2.3-1.1l-2.3-1.2l-1.1-0.6c-0.4-0.2-0.7-0.4-1.1-0.6l-2.2-1.3c-0.7-0.4-1.4-0.9-2.2-1.4l-1.1-0.7
				c-0.4-0.2-0.7-0.5-1-0.7l-2.1-1.5c-0.7-0.5-1.3-1.1-2-1.6l-1-0.8c-0.3-0.3-0.6-0.6-1-0.8l-1.9-1.7c-0.6-0.6-1.2-1.2-1.8-1.8
				c-1.2-1.2-2.4-2.4-3.5-3.7c-2.2-2.6-4.4-5.2-6.3-8c-1-1.4-1.9-2.8-2.8-4.3c-0.4-0.7-0.9-1.5-1.3-2.2c-0.4-0.7-0.9-1.5-1.2-2.2
				l-1.2-2.3c-0.4-0.8-0.7-1.5-1.1-2.3c-0.7-1.5-1.3-3.1-1.9-4.7c-0.2-0.4-0.3-0.8-0.4-1.2L5,105.8l-0.4-1.2L4.4,104l-0.2-0.6
				c-0.5-1.6-1-3.3-1.3-4.9c-0.8-3.3-1.3-6.7-1.7-10C1,85,0.8,81.6,0.9,78.2c0-0.8,0-1.7,0.1-2.5l0.2-2.5L1.3,72l0.2-1.2l0.3-2.5
				c0.1-0.8,0.3-1.6,0.4-2.5c0.2-0.8,0.3-1.6,0.5-2.4c0.4-1.6,0.7-3.2,1.2-4.8c0.9-3.2,2.1-6.3,3.3-9.4l1-2.3l0.5-1.1
				c0.2-0.4,0.4-0.7,0.6-1.1l1.1-2.2c0.4-0.7,0.8-1.4,1.2-2.2c3.3-5.8,7.4-11,12-15.8c0.6-0.6,1.2-1.2,1.8-1.7
				c0.6-0.6,1.2-1.1,1.8-1.7l1.9-1.6c0.3-0.3,0.6-0.5,0.9-0.8l1-0.8l2-1.5l2-1.4l1-0.7l1-0.7l2.1-1.3C42.1,10.6,45,9,48,7.7
				c1.5-0.7,3-1.3,4.6-1.9l0.6-0.2l0.6-0.2L55,4.9c0.8-0.3,1.6-0.6,2.4-0.8C63.7,2.2,70.2,1,76.9,0.7c9.7-0.4,19.3,1,28.2,4
				c9,3,17.3,7.6,24.7,13.5c3.2,2.6,6.3,5.4,9.1,8.5c2.8,3.1,5.5,6.5,7.9,10c2.4,3.5,4.5,7.3,6.3,11.2c1.8,3.9,3.3,7.9,4.4,12
				c1.3,4.8,1.6,6.9,1.8,6.7c0-0.1,0-0.8-0.2-2.1c-0.1-0.6-0.3-1.3-0.4-2.2c-0.1-0.4-0.2-0.9-0.3-1.4c-0.1-0.2-0.1-0.5-0.2-0.7
				C158,59.9,157.9,59.7,157.8,59.4z"/>
		</g>
		<g>
			<path class="st0" d="M143.2,44.5c-0.4-0.6-0.7-1.3-1.1-1.9l-1.2-1.8l-0.6-0.9l-0.6-0.9l-1.3-1.8c-0.4-0.6-0.9-1.1-1.3-1.7
				c-0.5-0.6-0.9-1.1-1.4-1.7c-0.9-1.1-1.9-2.2-2.9-3.2c-0.5-0.5-1-1-1.5-1.6l-1.6-1.5l-0.8-0.7c-0.3-0.2-0.5-0.5-0.8-0.7l-1.6-1.4
				c-0.5-0.5-1.1-0.9-1.7-1.3l-0.8-0.7c-0.3-0.2-0.6-0.4-0.9-0.6c-1.2-0.8-2.3-1.7-3.5-2.4c-4.8-3.1-10.1-5.7-15.5-7.5l-2.1-0.7
				c-0.7-0.2-1.4-0.4-2.1-0.6l-1-0.3l-0.5-0.1l-0.5-0.1L96,9.9c-0.4-0.1-0.7-0.2-1.1-0.2l-1.1-0.2l-2.1-0.4C91,9,90.3,8.9,89.6,8.8
				l-1.1-0.1c-0.4-0.1-0.7-0.1-1.1-0.1C81.8,8,76,8,70.4,8.7c-5.7,0.7-11.3,2.1-16.7,4.2c-1.4,0.5-2.7,1.2-4.1,1.8
				c-0.3,0.1-0.7,0.3-1,0.5l-1,0.5c-0.7,0.3-1.3,0.7-2,1c-1.3,0.8-2.6,1.5-3.8,2.3L40,20.2l-1.8,1.3c-4.8,3.5-9.1,7.6-12.9,12
				c-0.5,0.5-0.9,1.1-1.4,1.7L22.6,37l-1.3,1.8l-0.6,0.9c-0.2,0.3-0.4,0.6-0.6,0.9l-1.2,1.8c-0.4,0.6-0.7,1.3-1.1,1.9
				c-0.8,1.3-1.4,2.6-2.1,3.9c-0.4,0.6-0.6,1.3-1,2c-0.3,0.7-0.6,1.3-0.9,2l-0.8,2l-0.4,1c-0.1,0.3-0.2,0.7-0.4,1l-0.7,2.1
				c-0.2,0.7-0.4,1.4-0.6,2.1l-0.3,1.1c-0.1,0.4-0.2,0.7-0.3,1.1l-0.5,2.2c-0.2,0.7-0.3,1.4-0.4,2.2l-0.4,2.2l-0.3,2.2
				c-0.1,0.7-0.2,1.5-0.2,2.2C8.2,75,8,76.4,8,77.9L8,80.1c0,0.7,0,1.5,0.1,2.2c0.1,3,0.4,5.9,0.8,8.8c0.1,0.7,0.3,1.5,0.4,2.2
				c0.1,0.7,0.2,1.5,0.4,2.2c0.3,1.4,0.6,2.9,1.1,4.3l0.6,2l0.7,2c0.4,1.4,1,2.7,1.5,4c0.2,0.7,0.5,1.3,0.8,2l0.9,1.9l1,1.9
				c0.3,0.6,0.6,1.3,1,1.9c2.8,4.9,6.1,9.6,9.9,13.8c3.8,4.2,8.1,8,12.7,11.2c4.6,3.2,9.7,5.9,15,8c5.3,2.1,10.9,3.5,16.5,4.3
				c5.6,0.8,11.4,0.9,17.1,0.4c11.4-1.2,22.4-5.2,32-11.4c2.4-1.5,4.7-3.3,6.9-5l1.6-1.4c0.5-0.5,1.1-0.9,1.6-1.4c1-1,2.1-2,3-3
				c3.9-4.1,7.4-8.7,10.2-13.6c2.8-4.9,5.1-10.1,6.7-15.5c1.6-5.4,2.5-11,2.8-16.6c0-0.5,0.1-0.9,0.1-1.3c0-0.4,0-0.7,0-0.9
				c0-0.5-0.1-0.7-0.1-0.6c-0.1,0.1-0.2,1.2-0.3,3.3c-0.4,5.8-1.4,11.7-3.3,17.3c-1.8,5.6-4.3,11-7.5,16l-1.2,1.9l-1.3,1.8l-0.6,0.9
				c-0.2,0.3-0.5,0.6-0.7,0.9l-1.4,1.7c-0.5,0.6-1,1.1-1.4,1.7c-0.5,0.5-1,1.1-1.5,1.6c-1,1.1-2,2.1-3.1,3.1c-2.1,2-4.4,3.9-6.8,5.7
				c-2.4,1.7-4.8,3.4-7.4,4.8c-1.3,0.8-2.6,1.4-3.9,2.1c-0.6,0.4-1.3,0.6-2,0.9c-0.7,0.3-1.3,0.6-2,0.9l-2,0.8l-1,0.4l-1,0.4
				l-2.1,0.7c-0.7,0.2-1.4,0.4-2.1,0.6c-1.4,0.4-2.8,0.8-4.3,1.1c-0.7,0.2-1.4,0.3-2.2,0.4l-2.2,0.4c-2.9,0.4-5.9,0.7-8.8,0.8
				l-2.2,0l-2.2-0.1c-1.5,0-2.9-0.2-4.4-0.3c-0.7,0-1.5-0.2-2.2-0.3l-2.2-0.3l-2.2-0.4c-0.7-0.1-1.4-0.3-2.1-0.4
				c-1.4-0.3-2.8-0.7-4.2-1.1c-0.7-0.2-1.4-0.4-2.1-0.6l-2.1-0.7l-1-0.4l-1-0.4l-2-0.8c-0.7-0.3-1.3-0.6-2-0.9
				c-0.7-0.3-1.3-0.6-2-0.9c-10.5-5.2-19.7-13-26.5-22.5c-3.4-4.8-6.2-9.9-8.3-15.3c-2.1-5.4-3.6-11.1-4.3-16.8
				C9,84.5,8.8,78.8,9.3,73.2C9.8,67.6,11,62,12.9,56.6c1.8-5.4,4.4-10.4,7.5-15.1c0.7-1.2,1.6-2.3,2.4-3.5c0.4-0.6,0.9-1.1,1.3-1.7
				l1.3-1.6c1.9-2.1,3.7-4.2,5.8-6.1c2-2,4.2-3.8,6.5-5.5c0.6-0.4,1.1-0.8,1.7-1.2c0.6-0.4,1.1-0.8,1.7-1.2c1.2-0.8,2.4-1.6,3.6-2.2
				c4.9-2.9,10.1-5.2,15.5-6.7c5.1-1.5,10.5-2.3,15.8-2.6c5.3-0.3,10.7,0.1,16,1c5.3,0.9,10.5,2.3,15.4,4.3c5,2,9.7,4.6,14.1,7.7
				c0.5,0.4,1.1,0.8,1.6,1.2l1.6,1.3c1.1,0.8,2.1,1.7,3.1,2.6c0.5,0.4,1,0.9,1.5,1.4l1.5,1.4l1.4,1.5c0.5,0.5,0.9,1,1.4,1.5
				c3.6,4,6.7,8.4,9.3,13.1c0.3,0.6,0.6,1.1,0.8,1.5c0.2,0.4,0.4,0.7,0.6,0.9c0.3,0.5,0.5,0.6,0.6,0.4c0-0.2-0.1-0.6-0.3-1.3
				c-0.1-0.4-0.3-0.8-0.5-1.3C143.9,45.6,143.6,45.1,143.2,44.5z"/>
		</g>
	</g>
	<g>
		<path class="st0" d="M143.8,79.7l0-2.4c0-0.8-0.1-1.6-0.1-2.4l-0.1-1.2c0-0.4-0.1-0.8-0.1-1.2c-0.1-0.8-0.2-1.6-0.3-2.3
			c-0.5-3.1-1.3-6.2-2.2-9.2c-1-3-2.2-5.9-3.5-8.8c-1.3-2.8-2.9-5.6-4.6-8.2c-1.8-2.8-4-5.4-6.3-7.8c-2.3-2.4-4.8-4.7-7.4-6.8
			c-2.6-2.1-5.2-4.2-7.9-6.1c-2.8-1.9-5.7-3.6-8.8-5c-0.7-0.3-1.5-0.6-2.2-0.9l-2.3-0.8c-0.8-0.3-1.5-0.5-2.3-0.7
			c-0.8-0.2-1.6-0.5-2.4-0.6l-2.4-0.6c-0.8-0.2-1.6-0.3-2.4-0.5c-0.4-0.1-0.8-0.2-1.2-0.2L86,13.9c-0.8-0.1-1.6-0.3-2.4-0.3
			l-2.4-0.2l-0.6-0.1l-0.6,0l-1.2,0c-1.6-0.1-3.3,0-4.9,0c-3.3,0.2-6.6,0.6-9.9,1.2c-3.5,0.7-7,1.5-10.4,2.7
			c-3.4,1.1-6.7,2.6-9.9,4.5l-1.2,0.7c-0.4,0.2-0.8,0.5-1.2,0.7L39,24.6l-2.2,1.6c-0.4,0.3-0.7,0.6-1.1,0.8l-1.1,0.9
			c-2.8,2.4-5.4,4.9-7.8,7.7c-2.3,2.7-4.4,5.6-6.2,8.7c-1.8,3.1-3.3,6.3-4.8,9.6c-1.4,3.3-2.4,6.7-3.2,10.2l-0.3,1.3
			c-0.1,0.4-0.2,0.9-0.3,1.3l-0.4,2.6c-0.1,0.9-0.2,1.8-0.3,2.6c-0.1,0.4-0.1,0.9-0.2,1.3l-0.1,1.3L11,76l-0.1,0.7l0,0.7L10.8,80
			c0,0.9,0,1.8,0,2.7c0,0.4,0,0.9,0,1.3l0.1,1.3l0.1,1.3l0,0.7l0.1,0.7l0.3,2.7c0.1,0.9,0.3,1.8,0.4,2.6c0.1,0.9,0.3,1.8,0.5,2.6
			c0.4,1.8,0.9,3.5,1.4,5.2l0.9,2.5l0.2,0.6l0.2,0.6l0.5,1.2c1.3,3.3,2.9,6.6,4.7,9.6c1.8,3.1,3.9,6,6.2,8.7
			c2.3,2.7,4.9,5.2,7.5,7.6c2.6,2.4,5.4,4.7,8.3,6.8c2.9,2.1,6,4,9.3,5.5c1.6,0.8,3.3,1.4,5,2l2.6,0.8c0.4,0.1,0.9,0.2,1.3,0.3
			l1.3,0.3c3.5,0.8,7,1.4,10.6,1.8c3.5,0.4,7.1,0.8,10.7,0.9c3.6,0.1,7.2,0,10.8-0.7c0.4-0.1,0.8-0.1,1.2-0.2l1.2-0.3
			c0.8-0.2,1.6-0.4,2.4-0.6c1.6-0.5,3.1-0.9,4.6-1.5l1.1-0.4c0.4-0.1,0.8-0.3,1.1-0.4l2.2-0.9c0.7-0.3,1.5-0.7,2.2-1
			c0.7-0.3,1.5-0.7,2.2-1.1l2.1-1.1l2.1-1.2c0.3-0.2,0.7-0.4,1-0.6l1-0.6c0.7-0.4,1.4-0.8,2-1.3c2.7-1.8,5.2-3.8,7.6-6
			c0.6-0.6,1.1-1.1,1.7-1.7c0.3-0.3,0.6-0.6,0.8-0.9l0.8-0.9c0.5-0.6,1.1-1.2,1.6-1.8l1.5-1.9c1.9-2.6,3.7-5.2,5.3-7.9l0.6-1l0.6-1
			c0.4-0.7,0.8-1.4,1.2-2.1c0.7-1.4,1.5-2.8,2.1-4.3c0.7-1.4,1.2-2.9,1.8-4.4c0.3-0.7,0.5-1.5,0.8-2.3l0.4-1.1
			c0.1-0.4,0.2-0.8,0.3-1.2l0.6-2.3l0.5-2.3c0.1-0.4,0.2-0.8,0.2-1.2l0.2-1.2c0.1-0.8,0.2-1.6,0.3-2.3l0.2-2.4
			c0-0.4,0.1-0.8,0.1-1.2l0.1-1.2c0-0.8,0.1-1.6,0.1-2.4l0-2.4c0-1.2-1.5-1.2-1.6-0.1c-0.1,0.8-0.1,1.7-0.2,2.5
			c-0.1,0.8-0.2,1.7-0.3,2.5c-0.1,0.8-0.2,1.7-0.3,2.5c-0.1,0.8-0.2,1.7-0.4,2.5l-0.5,2.5l-0.6,2.5c-0.2,0.8-0.4,1.6-0.7,2.5
			c-0.2,0.8-0.5,1.6-0.8,2.4c-1.1,3.2-2.3,6.4-3.8,9.4l-0.5,1.1c-0.2,0.4-0.4,0.8-0.6,1.1l-1.2,2.2c-0.9,1.5-1.7,2.9-2.7,4.3
			c-2,2.8-4.2,5.4-6.7,7.7c-0.3,0.3-0.6,0.6-0.9,0.9l-0.9,0.8c-0.6,0.6-1.2,1.1-1.9,1.7l-2,1.6l-2,1.6c-2.7,2-5.5,3.9-8.5,5.6
			c-3,1.6-6.1,3-9.3,4.1c-3.3,1.1-6.6,2-10,2.6l-2.6,0.4l-2.6,0.3c-0.9,0.1-1.7,0.2-2.6,0.2c-0.9,0.1-1.7,0.1-2.6,0.1l-2.6,0
			l-2.6-0.2c-0.9,0-1.7-0.2-2.6-0.3c-0.9-0.1-1.7-0.2-2.5-0.4c-3.4-0.5-6.7-1.4-10-2.3l-1.2-0.4c-0.4-0.1-0.8-0.2-1.2-0.4l-2.4-0.8
			c-1.6-0.6-3.2-1.2-4.7-2c-3.1-1.4-6.1-3.1-8.9-5c-2.8-1.9-5.4-4.1-7.8-6.4c-2.4-2.4-4.6-4.9-6.7-7.6c-2-2.6-3.9-5.4-5.7-8.3
			l-0.6-1.1c-0.2-0.4-0.4-0.7-0.6-1.1l-1.2-2.2c-0.7-1.5-1.4-3-1.9-4.6l-0.4-1.2c-0.1-0.4-0.2-0.8-0.3-1.2c-0.2-0.8-0.4-1.6-0.6-2.4
			c-0.2-0.8-0.3-1.6-0.4-2.4c-0.1-0.8-0.2-1.6-0.3-2.4c-0.4-3.3-0.5-6.5-0.6-9.8c-0.1-3.2,0-6.5,0.3-9.7c0.3-3.2,0.9-6.4,1.8-9.5
			c0.9-3.1,2-6.1,3.3-9.1c1.3-2.9,2.9-5.7,4.6-8.4c1.7-2.7,3.6-5.2,5.6-7.6l1.6-1.8l1.6-1.7l0.4-0.4l0.4-0.4l0.9-0.8l0.9-0.8
			l0.9-0.8l0.9-0.8c0.3-0.3,0.6-0.5,0.9-0.8l1.8-1.5c1.3-0.9,2.5-1.9,3.8-2.8c2.6-1.8,5.4-3.4,8.3-4.7c0.4-0.2,0.7-0.3,1.1-0.5
			l1.1-0.4c0.7-0.3,1.5-0.6,2.2-0.8l2.3-0.7l2.3-0.6c0.8-0.2,1.5-0.3,2.3-0.5l1.2-0.2c0.4-0.1,0.8-0.1,1.2-0.2
			c0.8-0.1,1.6-0.3,2.3-0.4l2.4-0.3l0.6-0.1l0.6,0L76,18l1.2-0.1c0.4,0,0.8,0,1.2,0c0.8,0,1.6-0.1,2.4-0.1l2.4,0
			c0.8,0,1.6,0.1,2.4,0.1c0.8,0.1,1.6,0.1,2.4,0.2c0.8,0.1,1.6,0.2,2.3,0.3l2.3,0.5c6.7,1.6,13.2,4.2,19,7.9c2.9,1.8,5.7,3.8,8.3,6
			c2.6,2.2,5.1,4.6,7.4,7.1c2.4,2.7,4.7,5.5,6.8,8.5c0.5,0.8,1,1.5,1.5,2.3l1.4,2.3l1.3,2.4c0.4,0.8,0.8,1.7,1.1,2.5
			C142.2,64.9,143.8,72.3,143.8,79.7C143.9,80.4,143.8,80.4,143.8,79.7z"/>
	</g>
</g>
</svg>
