<?xml version="1.0" encoding="utf-8"?>
<!-- Generator: Adobe Illustrator 19.0.0, SVG Export Plug-In . SVG Version: 6.00 Build 0)  -->
<svg version="1.1" id="Layer_1" xmlns="http://www.w3.org/2000/svg" xmlns:xlink="http://www.w3.org/1999/xlink" x="0px" y="0px"
	 viewBox="0 0 536 271" style="enable-background:new 0 0 536 271;" xml:space="preserve">
<style type="text/css">
	.st0{fill:#FAC5CB;}
</style>
<g>
	<g>
		<g>
			<path class="st0" d="M144.1,248c-3.9,2-4.5,3.3-3.7,7.6c0.1,0.3-0.4,0.4-0.5,0.2c-2-3.9-3.3-4.5-7.6-3.7
				c-0.3,0.1-0.4-0.4-0.2-0.5c3.9-2,4.5-3.3,3.7-7.6c-0.1-0.3,0.4-0.4,0.5-0.2c2,3.9,3.3,4.5,7.6,3.7
				C144.2,247.5,144.4,247.9,144.1,248z"/>
		</g>
	</g>
	<g>
		<g>
			<path class="st0" d="M202,234.8c-7.5,3.9-8.6,6.3-7.2,14.6c0.1,0.6-0.7,0.9-1,0.3c-3.9-7.5-6.3-8.6-14.6-7.2
				c-0.6,0.1-0.9-0.7-0.3-1c7.5-3.9,8.6-6.3,7.2-14.6c-0.1-0.6,0.7-0.9,1-0.3c3.9,7.5,6.3,8.6,14.6,7.2
				C202.3,233.7,202.6,234.5,202,234.8z"/>
		</g>
	</g>
	<g>
		<g>
			<path class="st0" d="M61.2,235.4c-7.5,3.9-8.6,6.3-7.2,14.6c0.1,0.6-0.7,0.9-1,0.3c-3.9-7.5-6.3-8.6-14.6-7.2
				c-0.6,0.1-0.9-0.7-0.3-1c7.5-3.9,8.6-6.3,7.2-14.6c-0.1-0.6,0.7-0.9,1-0.3c3.9,7.5,6.3,8.6,14.6,7.2
				C61.4,234.3,61.7,235.1,61.2,235.4z"/>
		</g>
	</g>
	<g>
		<g>
			<path class="st0" d="M79.5,221.1c-3.9,2-4.5,3.3-3.7,7.6c0.1,0.3-0.4,0.4-0.5,0.2c-2-3.9-3.3-4.5-7.6-3.7
				c-0.3,0.1-0.4-0.4-0.2-0.5c3.9-2,4.5-3.3,3.7-7.6c-0.1-0.3,0.4-0.4,0.5-0.2c2,3.9,3.3,4.5,7.6,3.7
				C79.7,220.6,79.8,221,79.5,221.1z"/>
		</g>
	</g>
	<g>
		<g>
			<path class="st0" d="M128.6,223.4c-7.8,4-9,6.6-7.4,15.2c0.1,0.6-0.7,0.9-1,0.3c-4-7.8-6.6-9-15.2-7.4c-0.6,0.1-0.9-0.7-0.3-1
				c7.8-4,9-6.6,7.4-15.2c-0.1-0.6,0.7-0.9,1-0.3c4,7.8,6.6,9,15.2,7.4C128.9,222.3,129.2,223.2,128.6,223.4z"/>
		</g>
	</g>
	<g>
		<g>
			<path class="st0" d="M228.7,263.1c-3.9,2-4.5,3.3-3.7,7.6c0.1,0.3-0.4,0.4-0.5,0.2c-2-3.9-3.3-4.5-7.6-3.7
				c-0.3,0.1-0.4-0.4-0.2-0.5c3.9-2,4.5-3.3,3.7-7.6c-0.1-0.3,0.4-0.4,0.5-0.2c2,3.9,3.3,4.5,7.6,3.7
				C228.9,262.5,229,263,228.7,263.1z"/>
		</g>
	</g>
	<circle class="st0" cx="94.6" cy="210.3" r="2.5"/>
	<circle class="st0" cx="209.6" cy="264.2" r="1.6"/>
	<circle class="st0" cx="143.5" cy="265.5" r="1.6"/>
	<circle class="st0" cx="161.6" cy="226.6" r="1.2"/>
	<circle class="st0" cx="92.2" cy="243.8" r="1.2"/>
	<circle class="st0" cx="128.3" cy="210.6" r="1.2"/>
	<circle class="st0" cx="23.2" cy="240.1" r="1.2"/>
	<circle class="st0" cx="65.5" cy="246.6" r="1.2"/>
</g>
<g>
	<g>
		<g>
			<path class="st0" d="M122.2,40.2c-3.9,2-4.5,3.3-3.7,7.6c0.1,0.3-0.4,0.4-0.5,0.2c-2-3.9-3.3-4.5-7.6-3.7
				c-0.3,0.1-0.4-0.4-0.2-0.5c3.9-2,4.5-3.3,3.7-7.6c-0.1-0.3,0.4-0.4,0.5-0.2c2,3.9,3.3,4.5,7.6,3.7
				C122.3,39.7,122.5,40.1,122.2,40.2z"/>
		</g>
	</g>
	<g>
		<g>
			<path class="st0" d="M180.1,27c-7.5,3.9-8.6,6.3-7.2,14.6c0.1,0.6-0.7,0.9-1,0.3c-3.9-7.5-6.3-8.6-14.6-7.2
				c-0.6,0.1-0.9-0.7-0.3-1c7.5-3.9,8.6-6.3,7.2-14.6c-0.1-0.6,0.7-0.9,1-0.3c3.9,7.5,6.3,8.6,14.6,7.2
				C180.4,25.9,180.6,26.7,180.1,27z"/>
		</g>
	</g>
	<g>
		<g>
			<path class="st0" d="M39.3,27.6c-7.5,3.9-8.6,6.3-7.2,14.6c0.1,0.6-0.7,0.9-1,0.3c-3.9-7.5-6.3-8.6-14.6-7.2
				c-0.6,0.1-0.9-0.7-0.3-1c7.5-3.9,8.6-6.3,7.2-14.6c-0.1-0.6,0.7-0.9,1-0.3c3.9,7.5,6.3,8.6,14.6,7.2
				C39.5,26.5,39.8,27.3,39.3,27.6z"/>
		</g>
	</g>
	<g>
		<g>
			<path class="st0" d="M57.6,13.3c-3.9,2-4.5,3.3-3.7,7.6c0.1,0.3-0.4,0.4-0.5,0.2c-2-3.9-3.3-4.5-7.6-3.7
				c-0.3,0.1-0.4-0.4-0.2-0.5c3.9-2,4.5-3.3,3.7-7.6c-0.1-0.3,0.4-0.4,0.5-0.2c2,3.9,3.3,4.5,7.6,3.7C57.7,12.7,57.9,13.2,57.6,13.3
				z"/>
		</g>
	</g>
	<g>
		<g>
			<path class="st0" d="M106.7,15.6c-7.8,4-9,6.6-7.4,15.2c0.1,0.6-0.7,0.9-1,0.3c-4-7.8-6.6-9-15.2-7.4c-0.6,0.1-0.9-0.7-0.3-1
				c7.8-4,9-6.6,7.4-15.2c-0.1-0.6,0.7-0.9,1-0.3c4,7.8,6.6,9,15.2,7.4C107,14.5,107.3,15.3,106.7,15.6z"/>
		</g>
	</g>
	<g>
		<g>
			<path class="st0" d="M206.8,55.3c-3.9,2-4.5,3.3-3.7,7.6c0.1,0.3-0.4,0.4-0.5,0.2c-2-3.9-3.3-4.5-7.6-3.7
				c-0.3,0.1-0.4-0.4-0.2-0.5c3.9-2,4.5-3.3,3.7-7.6c-0.1-0.3,0.4-0.4,0.5-0.2c2,3.9,3.3,4.5,7.6,3.7
				C207,54.7,207.1,55.1,206.8,55.3z"/>
		</g>
	</g>
	<circle class="st0" cx="72.7" cy="2.5" r="2.5"/>
	<circle class="st0" cx="187.7" cy="56.4" r="1.6"/>
	<circle class="st0" cx="121.6" cy="57.7" r="1.6"/>
	<circle class="st0" cx="139.7" cy="18.8" r="1.2"/>
	<circle class="st0" cx="70.3" cy="36" r="1.2"/>
	<circle class="st0" cx="106.4" cy="2.8" r="1.2"/>
	<circle class="st0" cx="1.2" cy="32.3" r="1.2"/>
	<circle class="st0" cx="43.6" cy="38.8" r="1.2"/>
</g>
<g>
	<g>
		<g>
			<path class="st0" d="M436.5,197.1c-4,1.8-4.7,3-4.1,7.4c0,0.3-0.4,0.4-0.5,0.1c-1.8-4-3-4.7-7.4-4.1c-0.3,0-0.4-0.4-0.1-0.5
				c4-1.8,4.7-3,4.1-7.4c0-0.3,0.4-0.4,0.5-0.1c1.8,4,3,4.7,7.4,4.1C436.7,196.6,436.8,197,436.5,197.1z"/>
		</g>
	</g>
	<g>
		<g>
			<path class="st0" d="M495.1,186.8c-7.7,3.5-9,5.9-7.9,14.2c0.1,0.6-0.7,0.8-1,0.3c-3.5-7.7-5.9-9-14.2-7.9
				c-0.6,0.1-0.8-0.7-0.3-1c7.7-3.5,9-5.9,7.9-14.2c-0.1-0.6,0.7-0.8,1-0.3c3.5,7.7,5.9,9,14.2,7.9
				C495.4,185.8,495.6,186.6,495.1,186.8z"/>
		</g>
	</g>
	<g>
		<g>
			<path class="st0" d="M354.4,180.2c-7.7,3.5-9,5.9-7.9,14.2c0.1,0.6-0.7,0.8-1,0.3c-3.5-7.7-5.9-9-14.2-7.9
				c-0.6,0.1-0.8-0.7-0.3-1c7.7-3.5,9-5.9,7.9-14.2c-0.1-0.6,0.7-0.8,1-0.3c3.5,7.7,5.9,9,14.2,7.9
				C354.7,179.2,354.9,180,354.4,180.2z"/>
		</g>
	</g>
	<g>
		<g>
			<path class="st0" d="M473.1,212.1c-4,1.8-4.7,3-4.1,7.4c0,0.3-0.4,0.4-0.5,0.1c-1.8-4-3-4.7-7.4-4.1c-0.3,0-0.4-0.4-0.1-0.5
				c4-1.8,4.7-3,4.1-7.4c0-0.3,0.4-0.4,0.5-0.1c1.8,4,3,4.7,7.4,4.1C473.2,211.6,473.4,212,473.1,212.1z"/>
		</g>
	</g>
	<g>
		<g>
			<path class="st0" d="M373.4,166.9c-4,1.8-4.7,3-4.1,7.4c0,0.3-0.4,0.4-0.5,0.1c-1.8-4-3-4.7-7.4-4.1c-0.3,0-0.4-0.4-0.1-0.5
				c4-1.8,4.7-3,4.1-7.4c0-0.3,0.4-0.4,0.5-0.1c1.8,4,3,4.7,7.4,4.1C373.6,166.3,373.7,166.8,373.4,166.9z"/>
		</g>
	</g>
	<g>
		<g>
			<path class="st0" d="M422.3,171.7c-8,3.6-9.3,6.1-8.2,14.8c0.1,0.6-0.8,0.9-1,0.3c-3.6-8-6.1-9.3-14.8-8.2
				c-0.6,0.1-0.9-0.8-0.3-1c8-3.6,9.3-6.1,8.2-14.8c-0.1-0.6,0.8-0.9,1-0.3c3.6,8,6.1,9.3,14.8,8.2
				C422.6,170.6,422.9,171.5,422.3,171.7z"/>
		</g>
	</g>
	<g>
		<g>
			<path class="st0" d="M515.4,240.3c-4,1.8-4.7,3-4.1,7.4c0,0.3-0.4,0.4-0.5,0.1c-1.8-4-3-4.7-7.4-4.1c-0.3,0-0.4-0.4-0.1-0.5
				c4-1.8,4.7-3,4.1-7.4c0-0.3,0.4-0.4,0.5-0.1c1.8,4,3,4.7,7.4,4.1C515.5,239.8,515.6,240.2,515.4,240.3z"/>
		</g>
	</g>
	<g>
		<g>
			<path class="st0" d="M520.3,216.5c-4,1.8-4.7,3-4.1,7.4c0,0.3-0.4,0.4-0.5,0.1c-1.8-4-3-4.7-7.4-4.1c-0.3,0-0.4-0.4-0.1-0.5
				c4-1.8,4.7-3,4.1-7.4c0-0.3,0.4-0.4,0.5-0.1c1.8,4,3,4.7,7.4,4.1C520.4,215.9,520.6,216.3,520.3,216.5z"/>
		</g>
	</g>
	<circle class="st0" cx="485.1" cy="231.8" r="2.5"/>
	<circle class="st0" cx="389.1" cy="156.9" r="2.5"/>
	<circle class="st0" cx="501.1" cy="216.6" r="1.6"/>
	<circle class="st0" cx="435" cy="214.5" r="1.6"/>
	<circle class="st0" cx="531.7" cy="236.7" r="1.2"/>
	<circle class="st0" cx="455.1" cy="176.6" r="1.2"/>
	<circle class="st0" cx="534.8" cy="266.4" r="1.2"/>
	<circle class="st0" cx="384.9" cy="190.2" r="1.2"/>
	<circle class="st0" cx="422.7" cy="158.9" r="1.2"/>
	<circle class="st0" cx="316.1" cy="183" r="1.2"/>
	<circle class="st0" cx="358.1" cy="191.6" r="1.2"/>
</g>
</svg>
