<?xml version="1.0" encoding="utf-8"?>
<!-- Generator: Adobe Illustrator 19.0.0, SVG Export Plug-In . SVG Version: 6.00 Build 0)  -->
<svg version="1.1" id="Layer_1" xmlns="http://www.w3.org/2000/svg" xmlns:xlink="http://www.w3.org/1999/xlink" x="0px" y="0px"
	 viewBox="0 0 1472.2 113.3" style="enable-background:new 0 0 1472.2 113.3;" xml:space="preserve">
<style type="text/css">
	.st0{fill:#FAC5CB;}
</style>
<g>
	<g>
		<g>
			<path class="st0" d="M206.7,46.5c-3.9,2-4.5,3.3-3.7,7.6c0.1,0.3-0.4,0.4-0.5,0.2c-2-3.9-3.3-4.5-7.6-3.7
				c-0.3,0.1-0.4-0.4-0.2-0.5c3.9-2,4.5-3.3,3.7-7.6c-0.1-0.3,0.4-0.4,0.5-0.2c2,3.9,3.3,4.5,7.6,3.7C206.9,46,207,46.4,206.7,46.5z
				"/>
		</g>
	</g>
	<g>
		<g>
			<path class="st0" d="M264.6,33.3c-7.5,3.9-8.6,6.3-7.2,14.6c0.1,0.6-0.7,0.9-1,0.3c-3.9-7.5-6.3-8.6-14.6-7.2
				c-0.6,0.1-0.9-0.7-0.3-1c7.5-3.9,8.6-6.3,7.2-14.6c-0.1-0.6,0.7-0.9,1-0.3c3.9,7.5,6.3,8.6,14.6,7.2
				C264.9,32.2,265.2,33,264.6,33.3z"/>
		</g>
	</g>
	<g>
		<g>
			<path class="st0" d="M123.8,33.9c-7.5,3.9-8.6,6.3-7.2,14.6c0.1,0.6-0.7,0.9-1,0.3c-3.9-7.5-6.3-8.6-14.6-7.2
				c-0.6,0.1-0.9-0.7-0.3-1c7.5-3.9,8.6-6.3,7.2-14.6c-0.1-0.6,0.7-0.9,1-0.3c3.9,7.5,6.3,8.6,14.6,7.2
				C124.1,32.8,124.3,33.6,123.8,33.9z"/>
		</g>
	</g>
	<g>
		<g>
			<path class="st0" d="M142.1,19.6c-3.9,2-4.5,3.3-3.7,7.6c0.1,0.3-0.4,0.4-0.5,0.2c-2-3.9-3.3-4.5-7.6-3.7
				c-0.3,0.1-0.4-0.4-0.2-0.5c3.9-2,4.5-3.3,3.7-7.6c-0.1-0.3,0.4-0.4,0.5-0.2c2,3.9,3.3,4.5,7.6,3.7
				C142.3,19,142.4,19.4,142.1,19.6z"/>
		</g>
	</g>
	<g>
		<g>
			<path class="st0" d="M191.2,21.9c-7.8,4-9,6.6-7.4,15.2c0.1,0.6-0.7,0.9-1,0.3c-4-7.8-6.6-9-15.2-7.4c-0.6,0.1-0.9-0.7-0.3-1
				c7.8-4,9-6.6,7.4-15.2c-0.1-0.6,0.7-0.9,1-0.3c4,7.8,6.6,9,15.2,7.4C191.5,20.8,191.8,21.6,191.2,21.9z"/>
		</g>
	</g>
	<g>
		<g>
			<path class="st0" d="M291.3,61.6c-3.9,2-4.5,3.3-3.7,7.6c0.1,0.3-0.4,0.4-0.5,0.2c-2-3.9-3.3-4.5-7.6-3.7
				c-0.3,0.1-0.4-0.4-0.2-0.5c3.9-2,4.5-3.3,3.7-7.6c-0.1-0.3,0.4-0.4,0.5-0.2c2,3.9,3.3,4.5,7.6,3.7
				C291.5,61,291.6,61.4,291.3,61.6z"/>
		</g>
	</g>
	<circle class="st0" cx="157.3" cy="8.8" r="2.5"/>
	<circle class="st0" cx="272.2" cy="62.7" r="1.6"/>
	<circle class="st0" cx="206.1" cy="64" r="1.6"/>
	<circle class="st0" cx="224.3" cy="25" r="1.2"/>
	<circle class="st0" cx="154.8" cy="42.3" r="1.2"/>
	<circle class="st0" cx="190.9" cy="9.1" r="1.2"/>
	<circle class="st0" cx="85.8" cy="38.6" r="1.2"/>
	<circle class="st0" cx="128.1" cy="45" r="1.2"/>
</g>
<g>
	<g>
		<g>
			<path class="st0" d="M445.8,45.1c-3.9,2-4.5,3.3-3.7,7.6c0.1,0.3-0.4,0.4-0.5,0.2c-2-3.9-3.3-4.5-7.6-3.7
				c-0.3,0.1-0.4-0.4-0.2-0.5c3.9-2,4.5-3.3,3.7-7.6c-0.1-0.3,0.4-0.4,0.5-0.2c2,3.9,3.3,4.5,7.6,3.7C445.9,44.5,446,45,445.8,45.1z
				"/>
		</g>
	</g>
	<g>
		<g>
			<path class="st0" d="M503.7,31.9c-7.5,3.9-8.6,6.3-7.2,14.6c0.1,0.6-0.7,0.9-1,0.3c-3.9-7.5-6.3-8.6-14.6-7.2
				c-0.6,0.1-0.9-0.7-0.3-1c7.5-3.9,8.6-6.3,7.2-14.6c-0.1-0.6,0.7-0.9,1-0.3c3.9,7.5,6.3,8.6,14.6,7.2
				C503.9,30.8,504.2,31.6,503.7,31.9z"/>
		</g>
	</g>
	<g>
		<g>
			<path class="st0" d="M362.8,32.5c-7.5,3.9-8.6,6.3-7.2,14.6c0.1,0.6-0.7,0.9-1,0.3c-3.9-7.5-6.3-8.6-14.6-7.2
				c-0.6,0.1-0.9-0.7-0.3-1c7.5-3.9,8.6-6.3,7.2-14.6c-0.1-0.6,0.7-0.9,1-0.3c3.9,7.5,6.3,8.6,14.6,7.2
				C363.1,31.4,363.4,32.2,362.8,32.5z"/>
		</g>
	</g>
	<g>
		<g>
			<path class="st0" d="M381.2,18.2c-3.9,2-4.5,3.3-3.7,7.6c0.1,0.3-0.4,0.4-0.5,0.2c-2-3.9-3.3-4.5-7.6-3.7
				c-0.3,0.1-0.4-0.4-0.2-0.5c3.9-2,4.5-3.3,3.7-7.6c-0.1-0.3,0.4-0.4,0.5-0.2c2,3.9,3.3,4.5,7.6,3.7
				C381.3,17.6,381.4,18,381.2,18.2z"/>
		</g>
	</g>
	<g>
		<g>
			<path class="st0" d="M430.3,20.5c-7.8,4-9,6.6-7.4,15.2c0.1,0.6-0.7,0.9-1,0.3c-4-7.8-6.6-9-15.2-7.4c-0.6,0.1-0.9-0.7-0.3-1
				c7.8-4,9-6.6,7.4-15.2c-0.1-0.6,0.7-0.9,1-0.3c4,7.8,6.6,9,15.2,7.4C430.5,19.4,430.8,20.2,430.3,20.5z"/>
		</g>
	</g>
	<g>
		<g>
			<path class="st0" d="M530.4,60.1c-3.9,2-4.5,3.3-3.7,7.6c0.1,0.3-0.4,0.4-0.5,0.2c-2-3.9-3.3-4.5-7.6-3.7
				c-0.3,0.1-0.4-0.4-0.2-0.5c3.9-2,4.5-3.3,3.7-7.6c-0.1-0.3,0.4-0.4,0.5-0.2c2,3.9,3.3,4.5,7.6,3.7
				C530.5,59.6,530.7,60,530.4,60.1z"/>
		</g>
	</g>
	<circle class="st0" cx="396.3" cy="7.4" r="2.5"/>
	<circle class="st0" cx="511.3" cy="61.2" r="1.6"/>
	<circle class="st0" cx="445.1" cy="62.5" r="1.6"/>
	<circle class="st0" cx="463.3" cy="23.6" r="1.2"/>
	<circle class="st0" cx="393.9" cy="40.9" r="1.2"/>
	<circle class="st0" cx="430" cy="7.7" r="1.2"/>
	<circle class="st0" cx="324.8" cy="37.1" r="1.2"/>
	<circle class="st0" cx="367.1" cy="43.6" r="1.2"/>
</g>
<g>
	<g>
		<g>
			<path class="st0" d="M1173.2,42.7c-4,1.8-4.7,3-4.1,7.4c0,0.3-0.4,0.4-0.5,0.1c-1.8-4-3-4.7-7.4-4.1c-0.3,0-0.4-0.4-0.1-0.5
				c4-1.8,4.7-3,4.1-7.4c0-0.3,0.4-0.4,0.5-0.1c1.8,4,3,4.7,7.4,4.1C1173.3,42.2,1173.5,42.6,1173.2,42.7z"/>
		</g>
	</g>
	<g>
		<g>
			<path class="st0" d="M1231.7,32.5c-7.7,3.5-9,5.9-7.9,14.2c0.1,0.6-0.7,0.8-1,0.3c-3.5-7.7-5.9-9-14.2-7.9
				c-0.6,0.1-0.8-0.7-0.3-1c7.7-3.5,9-5.9,7.9-14.2c-0.1-0.6,0.7-0.8,1-0.3c3.5,7.7,5.9,9,14.2,7.9
				C1232,31.4,1232.2,32.2,1231.7,32.5z"/>
		</g>
	</g>
	<g>
		<g>
			<path class="st0" d="M1091,25.9c-7.7,3.5-9,5.9-7.9,14.2c0.1,0.6-0.7,0.8-1,0.3c-3.5-7.7-5.9-9-14.2-7.9c-0.6,0.1-0.8-0.7-0.3-1
				c7.7-3.5,9-5.9,7.9-14.2c-0.1-0.6,0.7-0.8,1-0.3c3.5,7.7,5.9,9,14.2,7.9C1091.3,24.8,1091.6,25.6,1091,25.9z"/>
		</g>
	</g>
	<g>
		<g>
			<path class="st0" d="M1209.7,57.7c-4,1.8-4.7,3-4.1,7.4c0,0.3-0.4,0.4-0.5,0.1c-1.8-4-3-4.7-7.4-4.1c-0.3,0-0.4-0.4-0.1-0.5
				c4-1.8,4.7-3,4.1-7.4c0-0.3,0.4-0.4,0.5-0.1c1.8,4,3,4.7,7.4,4.1C1209.9,57.2,1210,57.6,1209.7,57.7z"/>
		</g>
	</g>
	<g>
		<g>
			<path class="st0" d="M1110.1,12.5c-4,1.8-4.7,3-4.1,7.4c0,0.3-0.4,0.4-0.5,0.1c-1.8-4-3-4.7-7.4-4.1c-0.3,0-0.4-0.4-0.1-0.5
				c4-1.8,4.7-3,4.1-7.4c0-0.3,0.4-0.4,0.5-0.1c1.8,4,3,4.7,7.4,4.1C1110.2,12,1110.3,12.4,1110.1,12.5z"/>
		</g>
	</g>
	<g>
		<g>
			<path class="st0" d="M1159,17.3c-8,3.6-9.3,6.1-8.2,14.8c0.1,0.6-0.8,0.9-1,0.3c-3.6-8-6.1-9.3-14.8-8.2c-0.6,0.1-0.9-0.8-0.3-1
				c8-3.6,9.3-6.1,8.2-14.8c-0.1-0.6,0.8-0.9,1-0.3c3.6,8,6.1,9.3,14.8,8.2C1159.3,16.2,1159.5,17.1,1159,17.3z"/>
		</g>
	</g>
	<g>
		<g>
			<path class="st0" d="M1252,86c-4,1.8-4.7,3-4.1,7.4c0,0.3-0.4,0.4-0.5,0.1c-1.8-4-3-4.7-7.4-4.1c-0.3,0-0.4-0.4-0.1-0.5
				c4-1.8,4.7-3,4.1-7.4c0-0.3,0.4-0.4,0.5-0.1c1.8,4,3,4.7,7.4,4.1C1252.2,85.4,1252.3,85.8,1252,86z"/>
		</g>
	</g>
	<g>
		<g>
			<path class="st0" d="M1256.9,62.1c-4,1.8-4.7,3-4.1,7.4c0,0.3-0.4,0.4-0.5,0.1c-1.8-4-3-4.7-7.4-4.1c-0.3,0-0.4-0.4-0.1-0.5
				c4-1.8,4.7-3,4.1-7.4c0-0.3,0.4-0.4,0.5-0.1c1.8,4,3,4.7,7.4,4.1C1257.1,61.5,1257.2,61.9,1256.9,62.1z"/>
		</g>
	</g>
	<circle class="st0" cx="1221.7" cy="77.4" r="2.5"/>
	<circle class="st0" cx="1125.7" cy="2.5" r="2.5"/>
	<circle class="st0" cx="1237.8" cy="62.2" r="1.6"/>
	<circle class="st0" cx="1171.7" cy="60.1" r="1.6"/>
	<circle class="st0" cx="1268.3" cy="82.3" r="1.2"/>
	<circle class="st0" cx="1191.8" cy="22.2" r="1.2"/>
	<circle class="st0" cx="1271.4" cy="112.1" r="1.2"/>
	<circle class="st0" cx="1121.6" cy="35.8" r="1.2"/>
	<circle class="st0" cx="1159.3" cy="4.5" r="1.2"/>
	<circle class="st0" cx="1052.8" cy="28.6" r="1.2"/>
	<circle class="st0" cx="1094.7" cy="37.2" r="1.2"/>
</g>
<g>
	<g id="XMLID_68_">
		<g id="XMLID_72_">
			<g id="XMLID_73_">
				<g id="XMLID_74_">
					<path id="XMLID_129_" class="st0" d="M1471.8,68c0.8,0.1,0.4-0.2-1.7-0.5l-1.6,0.1L1471.8,68z"/>
					<path id="XMLID_128_" class="st0" d="M1457.7,64.9c-2.5-0.3-5.4-0.5-3.9,0.1c2.5,0.1,3.1,0.3,5.8,0.4c2.1,0.3,3.7,0.7,3.3,0.8
						c0.8,0,3.3,0.6,4.4,0.6c-2.7-0.7-6.2-1.3-9.9-1.8C1456.8,64.9,1457.5,65,1457.7,64.9z"/>
					<path id="XMLID_127_" class="st0" d="M1250.3,34.9l1.3,0.2C1251.3,35.1,1250.9,35,1250.3,34.9z"/>
					<path id="XMLID_126_" class="st0" d="M1121,23.2c1,0.1,1.4,0.1,1.5,0C1121.5,23.2,1120.8,23.2,1121,23.2z"/>
					<path id="XMLID_125_" class="st0" d="M1098.9,21.3c0.5,0,0.9,0.1,1.3,0.1C1099.7,21.4,1099.2,21.3,1098.9,21.3z"/>
					<path id="XMLID_124_" class="st0" d="M1250.3,34.9l-3.4-0.5C1246.6,34.5,1248.7,34.7,1250.3,34.9z"/>
					<path id="XMLID_123_" class="st0" d="M1429.1,60.8c0.7,0.1,1.3,0.2,1.9,0.2c-0.6-0.1-1.2-0.2-1.7-0.3
						C1429.2,60.8,1429.2,60.8,1429.1,60.8z"/>
					<path id="XMLID_122_" class="st0" d="M1307.2,41.4l1,0.1c0.3,0,0.6,0,0.9,0L1307.2,41.4z"/>
					<path id="XMLID_121_" class="st0" d="M1350.8,47.1c-1-0.2-1.4,0.1-1.8,0.1c0.6,0,1.3,0,2.2,0.1
						C1351.2,47.4,1351.1,47.3,1350.8,47.1z"/>
					<path id="XMLID_120_" class="st0" d="M1419.6,58.1l1.2,0.2C1420.5,58.2,1420,58.1,1419.6,58.1z"/>
					<path id="XMLID_119_" class="st0" d="M1276,37.5c-0.1,0-0.2-0.1-0.4-0.1C1275.6,37.4,1275.8,37.5,1276,37.5z"/>
					<path id="XMLID_118_" class="st0" d="M50.8,71.7C50.9,71.7,50.8,71.7,50.8,71.7C50.6,71.7,50.5,71.8,50.8,71.7z"/>
					<path id="XMLID_117_" class="st0" d="M0.1,76.8l0.7-0.1C0.9,76.6,1,76.5,1,76.5L0.1,76.8z"/>
					<path id="XMLID_116_" class="st0" d="M1058.4,18.5c0.1,0,0.1,0,0.2,0C1059.7,18.6,1059.1,18.5,1058.4,18.5z"/>
					<path id="XMLID_115_" class="st0" d="M686,15.6c4.2,0.1-6.9,0.6-0.5,0.6C684.9,16.1,691.2,15.6,686,15.6z"/>
					<path id="XMLID_114_" class="st0" d="M1428,60.5c-0.6-0.1-1.2-0.2-1.8-0.3C1427,60.4,1427.6,60.5,1428,60.5z"/>
					<path id="XMLID_113_" class="st0" d="M685.5,16.2L685.5,16.2l0.7,0C685.9,16.2,685.7,16.2,685.5,16.2z"/>
					<path id="XMLID_112_" class="st0" d="M965,14.8c0.2,0.1,0.6,0.1,0.9,0.1C965.9,14.9,965.7,14.9,965,14.8z"/>
					<path id="XMLID_111_" class="st0" d="M1034.6,17.9l-1.7-0.1C1033.5,17.9,1034.1,17.9,1034.6,17.9z"/>
					<path id="XMLID_110_" class="st0" d="M928.8,14.3c-0.9,0-1.3-0.1-2.5-0.1c0.1,0,0.2,0,0.4,0C927.1,14.2,927.7,14.2,928.8,14.3z
						"/>
					<path id="XMLID_109_" class="st0" d="M891.2,13.7c0.2,0,0.5,0,0.7,0.1c0.4,0,0.8,0,1.2,0L891.2,13.7z"/>
					<path id="XMLID_108_" class="st0" d="M164.4,58c-0.8,0-1.3,0-1.8-0.1C163.2,58.1,157.7,58.8,164.4,58z"/>
					<path id="XMLID_107_" class="st0" d="M1429.1,60.6c-0.2,0-0.6,0-1.1-0.1c0.4,0.1,0.8,0.1,1.2,0.2
						C1429.4,60.7,1429.4,60.7,1429.1,60.6z"/>
					<path id="XMLID_106_" class="st0" d="M927.2,16.5l-6-0.2C922.9,16.4,925.1,16.4,927.2,16.5z"/>
					<path id="XMLID_105_" class="st0" d="M433.1,32.1l-1.4,0.1C432.2,32.2,432.7,32.2,433.1,32.1z"/>
					<path id="XMLID_104_" class="st0" d="M903.5,16.1c-1.1-0.1-2.2-0.2-3.4-0.2c-0.2,0-0.5,0-0.7,0.1L903.5,16.1z"/>
					<path id="XMLID_103_" class="st0" d="M162.6,58C162.6,58,162.6,58,162.6,58C162.6,58,162.6,58,162.6,58z"/>
					<path id="XMLID_98_" class="st0" d="M123.6,63.2c5.7-0.7,2.6-0.7,3.8-1c6.7-0.9,3.2-0.1,5.5-0.2c4.2-0.6,7.4-1.3,10.5-1.7
						c0.2,0,0.9,0,0.1,0.1c4.4-0.8,13.2-1.5,18.4-2.5c0.4,0,0.6,0,0.7,0c-0.9-0.1-1-0.3-0.9-0.4c2.5-0.3,4.7-0.8,5.7-0.6
						c-1.6,0.2-1.7,0.3-2.4,0.4l2.6-0.4c2.4,0.1-3.6,0.5-3.6,0.8c5.2-0.7,11.2-1.7,15.2-2c0.9,0.2-9.3,1.2-3.9,0.9l-6.2,0.6
						c4.8,0-3.7,0.4,0.6,0.5c8.1-0.8,9-1.2,17.1-2c1.8-0.4-0.6-0.2,1.2-0.6c11.4-1.6,9.1-0.1,17.5-1.5c2.2-0.5,3-1,9-1.4l-2,0.6
						c7.8-0.8,4.4-1,12.7-1.7c-1.4,0.3-6.1,0.8-5,0.7c5.3-0.3,3.7-0.6,7.8-1.1L229,51c8.3-1,17.5-2,26.8-3.1
						c-0.5,0.2-2.1,0.4,0.1,0.3c5.8-0.7,12-1.3,18.2-1.9c6.2-0.6,12.3-1,18-1.5l4.3-0.7c1-0.1,1.9,0,0.8,0.1
						c4.4-0.3,0.2-0.2,2.3-0.5c2.5-0.3,3.3-0.2,1.7,0.1c7.7-1,22-2.7,30.2-3.1l-1.6,0.2c6.4-0.5,7.1-1.2,13-1.5l-1.1,0.2
						c13.8-1.1,29-2.8,39.6-3.2c2-0.6,13.7-1,14.5-1.6c7.9-0.4,5.7-0.1,16.8-0.8c3-0.2,4.4-0.7,8.1-1.1l0.1,0.3l5-0.7l2.7,0.2
						l3.4-0.3c-1.4,0.1-2.9,0.1-2.7,0c2.7-0.3,6-0.5,8.6-0.6c2.6-0.1,4.6-0.1,4.7-0.1l12.7-1.2c-0.3,0.1-2.4,0.4-4.1,0.6
						c6.8-0.8,1.3,0.2,7.5-0.5c-0.8,0,0.4-0.2,0.6-0.3c3.1-0.1,10.2-0.5,15.4-1l-1,0.3c9.4-0.6,19.9-1.5,30.5-2.2
						c-3.8,0.2-3-0.3,0.1-0.5l1.3,0.2c2-0.3-3.3,0.1,0.8-0.4c4-0.2,2.7,0.2,0.4,0.4l4.8-0.4c0.3,0.1-0.8,0.2-1.1,0.3
						c2-0.3,8.3-0.2,11.1-0.7l0.3,0.1c10.6-0.7,15.4-1,24-1.6c0.2-0.3,3.5-0.4,6.1-0.8c6.3-0.3,13.4-0.4,21-0.8
						c5.4-0.4,1.6-0.3,4-0.6c0.4,0.2,8-0.2,4.1,0.2c9.2-0.5,11.7-0.7,23.3-1.5c-1.3,0-2.7,0-2-0.2c2.1-0.1,4.8-0.1,4.5,0L606,21
						c13-1,30.1-0.6,40.4-1.6l-0.6,0l10.7-0.7c4.9-0.1-3,0.3,0.7,0.3c11.6-0.8,18.3-0.6,27.9-1.2c7.4,0.4,26.2-0.8,36.2-0.6
						l-0.6-0.2c2.6-0.2,3.1,0,5,0c-0.3-0.1-2.8-0.1-1.2-0.2c10.9-0.4,22.2-0.6,33.6-0.6c5.7,0,11.4-0.1,17-0.1c2.8,0,5.7,0,8.5-0.1
						c2.8,0,5.6,0,8.4,0c8.2,0,4.6-1,15-0.6l-2.9,0.4c8.3-0.3,16.7-0.3,25.1-0.4c8.4,0,16.8,0.1,24.9-0.1c-1,0.1-1,0.2-2.6,0.2
						c1.7,0.1,4.9,0.1,7.6,0.1c2.7,0,5.1-0.1,5.1-0.2c2.5,0,0.6,0.2,2.1,0.3c3.4,0.2,8.6-0.3,10.4,0c0.3,0-1,0.1-1.6,0.1
						c2.2-0.1,10.4,0.2,8.3-0.1c6.1,0.2,11.6,0,16.5,0.3c3.2-0.3,10.4,0.3,11.4-0.1c-0.4,0.5,10.7,0.5,14.5,0.4
						c-1.3,0.1,3.3,0.2,1.8,0.4c4.4,0.1,8.4,0.1,7.6-0.1c8.1,0.7,16.3,0,20.8,0.8c13,0,25.1,0.4,36.8,0.7c-0.4,0.4-13-0.4-12.5,0.1
						c11.1,0.2,17.5,0.1,28.6,0.6c2.9,0.2-1.6,0.1-2.6,0.2c2.8,0.1,5.5,0.1,8.2,0.2c2.7,0.1,5.3,0.3,7.9,0.4
						c5.2,0.3,10.3,0.5,15.2,0.6c0,0-1.1,0-2.1,0c1.9,0.1,4.5,0.3,4.3,0.1l-1.9,0c-3.1-0.4,7.8-0.2,8.1-0.4
						c-3.3,0.4,9.7,0.6,4.5,1.1c1.3,0,2.9,0,2.6-0.1c1.9,0.1,2.5,0.2,0.6,0.3c7,0.2,4.5-0.1,10.8,0.3c0,0.1-1.3,0.1-2,0.1
						c3.2,0,6.4,0,11.8,0.4c-0.3,0,0.3,0.2-1.3,0.1c9.2,0.5,15.6,0.4,25.7,1.2c-3,0.3,3.4,0.3,3.9,0.8c0,0,1.4,0.1,2.7,0.1
						c1.4,0.1,2.7,0.1,2.7,0.1l-2.2-0.3c4.7,0.4,8.9,0.4,13,0.8l-3.5-0.1l8.9,0.6l-5-0.5c4.8,0.2-0.5-0.5,5.8,0.1
						c-1.3-0.1,4.7,0.4,7.2,0.8l0,0c2.3,0.1,4.8,0.1,8.3,0.5c0.9,0.2-0.8,0.4-0.2,0.5c2.3-0.1,11.1,0.7,14,0.6c-1,0-1,0.2-0.7,0.3
						l2-0.1c2.2,0.3,2.5,0.3,2.1,0.5c6.6,0.6-2.1-0.7,5.7,0.2c-0.6,0-0.3,0-1.6,0c7.8,0.8,15.2,1.1,22.4,1.9
						c2.1,0.6-6.3-0.5-3.9,0.1c5.2,0.4,10.6,0.8,15.9,1.1c5.3,0.4,10.6,0.9,15.7,1.4l-1.9-0.2c1.4-0.4,7.5,1,12.6,1.3
						c-1.2-0.1-1.7,0.1-1.3,0.1c6.9,0.8,14.1,1.2,24.5,2.2l-1.3,0c4,0.6,10.7,1.3,15,1.8c1.3,0,3.8,0.3,2.3-0.1
						c6.7,1.2,13.1,1.8,19.4,2.4c3.1,0.3,6.2,0.6,9.3,0.9c3,0.4,6,0.8,9,1.4c-1.4-0.2-3.4-0.3-2.3-0.2l10.2,1.2
						c-0.8-0.3-1.3-0.3-3.4-0.8c1.3,0,4.2,0.3,6.7,0.6c-4.6-0.4,0,0.4,2,0.8c-0.3-0.1,0.4-0.1,0.2-0.2c5.3,1.1,1-0.3,8.2,0.9
						l-0.4,0.1c2.7,0.3,5.2,0.4,8.2,0.9c1.2,0.4-2.9-0.2-3.1-0.1c4.1,0.5,8.2,0.5,11.9,1.3c-1.8-0.2-4.3-0.5-6-0.7
						c4,0.8,4.5,0.8,7.5,1.3l-0.3,0l6.9,1.1l-1.8-0.3c5.2,0,10.5,1.4,17.5,1.9c-6.8-0.5-1.1,0.1-1.7,0.3c1.8,0.3,4.4,0.8,3.7,0.8
						c3.3,0.2,5.4,1,10.1,1.3c0.2,0.1,3.5,0.5,2.7,0.6c4.3,0.5-1-0.3-0.6-0.4c1.7,0.2,3.4,0.4,5.3,0.7c1.9,0.3,3.9,0.7,6,1.1
						c4.2,0.7,8.7,1.5,13.5,2.1c8.1,1.1,9.7,1,17.3,2c2.5,0.6-2.1,0-2.1,0c4.1,0.8,7.2,1.2,11,1.8c-0.8-0.1,0,0.2,1.2,0.5
						c3.1,0.5,2.1,0,6.2,0.9c-0.7,0-1.6,0-3.2-0.2c3.7,0.5,7.3,1,11.1,1.6c1,0.3-2.3-0.1-3.7-0.3c4.3,0.7,11,1.8,12.4,1.7l-2.7-0.6
						c1.5,0.3,0.8,0.4-0.4,0.2c-3.7-0.4-5.2-1-5.4-1.1l2.7,0.4c-2.7-1-10.8-1.8-16.2-2.8l2.3,0c0,0-1.4-0.2-2.8-0.3
						c-1.4-0.2-2.8-0.3-2.8-0.3c-1.2-0.3-1.9-0.7,0.8-0.3c-3.9-0.8-3.5-0.4-6.8-1.2c-0.4-0.1-0.2-0.1,0.2,0l-3.8-0.5
						c0.8,0-0.6-0.4,1.7,0c-6.8-1.3-11-1.4-13.6-2.1l0.6,0.1c-9.5-1.4-1,0.2-8.1-0.6l-4.7-1.5l-1,0.2c-1-0.2-2.9-0.5-2.5-0.6
						c-3.7-0.4,0.6,0.2-1.5,0.1c-4.7-1.1-13-1.8-14-2.4c-1.7,0,4.5,0.8-0.6,0.3c-1.4-0.7-5.8-0.7-10.1-1.6c1.4-0.1,5.4,0.6,1.1-0.2
						c-2.7,0.1-8.4-1.3-12-1.7c-0.2,0.3-7.9-1-14-1.7c0.4-0.1-11.5-1.7-17.1-2.6l0.2,0c-1.1,0.2-7-0.6-11.3-1.1c0.2-0.2,1-0.2,3.3,0
						l-4-0.5c-1,0-2.2-0.1-4.8-0.4l1-0.1c-5.3-0.7-10.8-1.1-17.6-2.1c-0.4,0.2,5.4,1.3-1.9,0.7c-0.3-0.2-0.5-0.4,1.4-0.3
						c-0.6-0.1-2.2-0.1-3.5-0.3l2.9,0.1c-3.1-0.5-1.7,0-4.2-0.3c0.1-0.2-1.8-0.4-1.5-0.5c0.6,0.1,2.2,0.3,3.1,0.4
						c-2.8-0.4-6.2-0.9-7.3-1.1c0.2,0.1,0,0.3-2.1,0.1c-5.3-0.6-1.8-0.4-4.9-0.9c-1.3,0-4.7-0.5-4.8-0.3c-1.6-0.2-1.8-0.3-2.4-0.5
						c-2.8-0.2-12.9-1.4-9.8-0.8l0.7,0.1c-0.1,0-0.3,0-0.5,0c0,0,0,0,0,0l0,0c-9.1-0.8-18.8-2.1-27.8-2.9l0-0.1
						c-5.4-0.4-12-1.1-15.8-1.3c-1.6-0.2-3.7-0.6-3-0.6c-4.1-0.3-4.6-0.3-10.5-1c4.2,0.2-1.4-0.3,4.3,0.3c-5.3-0.6-6.5-0.8-12.3-1.1
						c2-0.1-4-0.7-6.5-0.8l3.7,0.5c-2.9-0.2-5.4-0.4-7.9-0.7l1.4-0.2c-10.9-1.3-19.8-1.1-28.1-2.4c-2.9,0,5.9,0.6,3.3,0.7
						c-5-0.4-10.2-1.3-11.8-1.4c-6.9-0.7-6.5,0-13.7-0.6c0.9,0.2,1.8,0.6-3.6,0.3c-5-0.4-6.2-1-3-0.8c1.2,0.1,1.8,0.2,1.7,0.2
						c1.6,0.1,3.8,0.2,1.8-0.1l-0.7,0.1c-2.5-0.3-9.4-0.8-7.8-0.9c-3.8-0.2-1.6,0.1,1.2,0.3c-6.5-0.6-10.1-0.8-16.8-1.3
						c1.1,0.1,2,0.3,1,0.3c-9.8-0.7-4.3,0-10.9-0.4c-3.8-0.4,1.4-0.3-5.3-0.6c-4.1-0.4-0.8-0.4,0.8-0.4c-6.1-0.1-11.3-0.8-14.8-1.1
						l3.2,0.1c-1.9-0.1-3.5-0.2-5.1-0.3l1.8,0.3c-1.9-0.2-3.5-0.3-3.4-0.3c-1.9,0,1.5,0.5-2.4,0.5c-1.2-0.1-3.2-0.2-4.9-0.3
						c-1.7-0.1-3.2-0.2-3.6-0.3c7.9,0.5-0.9-0.4,5.8-0.1c-1.3,0-2.9-0.1-4.7-0.3c-0.3,0,0.3-0.1,0.8,0c-7.5-0.6-3.5,0.2-11.3-0.2
						c1-0.1-1.8-0.4-3.1-0.4c3.1,0.2,1.5,0.4-1.4,0.4c-5-0.4-5.5-0.2-8.1-0.3l3,0.2c-1,0.1-3.5,0-7-0.1c-0.3-0.2,3.2,0.1,1.9-0.1
						c-3.9,0.1-8.7-0.7-14.2-0.8c-2.5-0.2-0.2-0.3-2.4-0.5c-6.1,0-6.6-0.5-12.9-0.5c1.8,0.3,2.2,0.3-2.3,0.3l10.5,0.2l-6.7,0.1
						c3.2,0.1,6.7,0.1,8.6,0.2c-3.2,0.1-2.9,0-1.4,0.3c-4.3-0.5-8.6-0.1-13.6-0.5l0.2-0.6c-7.5-0.5-13.4-0.2-23.1-0.7l3.1,0.2
						c-1.3,0.2-6-0.2-9.2-0.2c0.3-0.2-1.7-0.3-3-0.5c0.2,0.2-7.1-0.2-8,0.2l-4.4-0.4c-7.9-0.3-9,0.3-16.6,0.1
						c2.3-0.2-1.2-0.4,3.9-0.4c-2.5-0.1-4.8-0.2-4.8,0c-1.5-0.2-7,0.1-9.3-0.2c-1.1,0.1-1.4,0.3-4.3,0.2c-0.3,0,0-0.1,0-0.1
						c0,0.1-4.5,0.1-2,0.3c-7.8-0.7-21.8-0.3-28.6-0.9c-5.5,0-12.2-0.1-17.2-0.1c0.3-0.1,0-0.1,1-0.1c-6.9-0.2-4.3,0.6-12.1,0.3
						c-4-0.3,4.2-0.2,1.7-0.3c-1.1-0.7-9.5,0.1-14.8-0.3l1.3,0c-4-0.2-9.9,0.2-16.5,0.2c0,0,0.3-0.1,0-0.1
						c-4.5,0.3-13.1,0.5-19.5,0.6c2-0.3,2.9-0.2,1.7-0.4c-2.9,0.1,0.8,0.4-4.9,0.5c-1.9-0.1-6-0.2-6.5-0.5l5.4-0.1
						c-2.8-0.3-7,0.1-9.8,0l0.4-0.2c-8.2,0.1-8.3,0.5-17.2,0.5l0.9,0.1c-4.8,0.4-4.1-0.2-8.9,0.2l-1.5-0.4
						c-3.2,0.2-11.2,0.6-16.9,0.7c3.2-0.3,9.9-0.6,14.1-0.9c-3.2,0.1-10.7,0.2-12.4,0.4c1.3-0.1,2.9-0.2,4.1-0.1
						c-3.9,0.4-9,0.6-15.3,0.7c0.6-0.4-3.6-0.4-8.4-0.3c-4.8,0-10.3,0.2-12.6,0c-11.1,0.6-22.1,0.5-35.1,0.9c4.6,0.5-3.8,0.1-3,0.7
						c-3,0.1-4.2,0.2-4.4,0.2l-9.2,0c-2.2-0.1,2.9-0.2,2.6-0.4c-6.6,0.2-2.8-0.2-7.2-0.2c0.9,0.2-2.3,0.4-6.1,0.4l5.3,0.1
						c-9.2,0.7-8-0.2-17.3,0.4l2.9-0.3c-2.4,0.1-6.8,0.3-11.2,0.5c-4.4,0.2-8.8,0.5-11.1,0.9c-0.8,0-2-0.1,0.1-0.3
						c-11.4,0.4-25.4,1.7-34.3,1.8l0.9-0.2c-2.1,0.1-3.7,0.5-6.4,0.5c0.1-0.1,0.9-0.2-0.1-0.2c-1.1,0.1-5.7,0.6-8.5,0.6l2.4-0.3
						c-11.2,0.4-17.1,1.3-26.4,1.9c0-0.4-8.8-0.1-13.2,0.1l0.1-0.1c-13,0.7-22,1.7-34,2.6c-7.5-0.1-25.3,1.5-37.3,2.1
						c1.8,0-0.3,0.4-2.4,0.6c-2.8,0.1-7.8,0.8-7.3,0.4l1-0.1c-2.1-0.2-7.9,0.2-12.4,0.6l-0.7,0.6c-11.9,0.1-30.9,2.7-37.4,2.5
						c-2.8,0.3-6.4,0.6-9.2,1l0.1-0.3c-7.9,0.6-11.8,0.9-21.6,1.8l2-0.4c-5.5,0.4-6.9,1.4-11.9,1.8l-1.6-0.3
						c-9.6,0.8-19.3,1.3-28.7,2.6c0.1-0.1,0.4-0.2,2-0.4c-4.5,0.4-17.5,1.3-15.8,1.7c-0.1-0.4-9.9,0.8-15,1.5l0.8-0.4
						c-4.3,0.8-4.5,0.9-10.5,1.6c-1.4,0.1-1.3-0.1,0.6-0.2c-4.8,0.3-3.7,0.6-9.6,1l2.2-0.4c-5,0.5-4.6,0.5-7.3,1
						c-3.1,0.4-9.4,0.8-10.2,0.7c-0.7,0.2-3.3,0.7-6.3,0.9c-0.4-0.1,0.7-0.2,1.2-0.3c-8.3,0.6-12.3,1.6-18,1.9
						c-0.1-0.1-0.5-0.1-1-0.1c6.6-0.7,11.9-1.2,11.4-1.1c0-0.3-5.3,0.2-1.2-0.5c-4.2,0.6-11.5,1.8-16.7,2.2c-0.3,0-0.5,0-0.7,0
						l0.5-0.1c-1.2,0.1-2.3,0.2-3.3,0.4c-1.7,0.1-2.7,0.2-4.3,0.4c-0.6-0.1-6.1,0.5-8.8,0.8c0.2,0.3-3.2,0.6,0,0.5
						c-0.4,0,0.5-0.1,2.3-0.3c0.4,0,0.9-0.1,1.1-0.1c-0.1,0-0.1,0-0.2,0c1.7-0.2,4-0.4,6.6-0.7c-2.1,0.4-4.3,0.7-7.2,0.8
						c-1.3,0.3-2.8,0.7-3.6,0.8c-3.7,0-10.7,0.5-11.7,0.4c-8.1,1-19,2.2-24,3.2c-2.3,0.3-2.7,0.1-3.5,0.1c1.3-0.2,2.9-0.4,3.6-0.5
						c-4.6,0.6-13.6,1.5-14.7,2c-5.8,0.5,3.2-0.7-4.7,0.2l1.1-0.2C167,55.1,157.4,57.8,140,59c1.2-0.1,1.8-0.1,2.1-0.1
						c-9.9,1-20.1,2.3-30.2,3.5c-10.1,1.3-20.3,2.5-30,3.4c-5.6,0.6-6.1,0.9-9.5,1.5l-1.2-0.2l-5.7,1.1c-8.2,1.3-14.3,1-24.6,2.8
						l1.4,0c-3.7,0.4-11.8,1.6-11.2,1.3c-0.4,0.1-1.2,0.4-2.7,0.4l-0.1-0.1L19,74.1c-7.1,0.8,1-0.8-9.3,0.5
						c-3.8,0.6-10.9,1.9-9.4,1.8c1.6-0.2,4-0.4,4.1-0.3l-3.5,0.5c-0.6,0.5-3.2,1.4,5.5,0.6l6-1.1l2,0l-5.1,0.7
						c2.9-0.2,4.7-0.6,6.7-1c0.5,0.1,1.4,0,2.6-0.1l5.9-1.2c0.7,0.1-2.6,0.7,1.4,0.3c2.7-0.6-2.7-0.1,1.9-0.8
						c2.9-0.2,2.1,0.1,5.4-0.5c0.5,0.1-0.2,0.2-1.5,0.4c3-0.5,8-1.1,9.5-1.5c3-0.1,10.1-1.3,9.9-0.9c0.9-0.2,5.3-1,8-1.4
						c-5,1.1,10.4-1.2,9.1-0.5c3.7-0.9,13.5-1.9,20.1-3c-0.4,0.1-1.1,0.2-1.7,0.3c3.7-0.4,4.8-0.4,7.2-0.6c0.4-0.4,6.2-1.2,9.3-1.8
						c4.6-0.2-2.7,0.8-1.2,1c-0.3-0.3,7.9-1.3,6.3-1.3c3.5-0.2,3-0.2,4.9-0.1c0.6-0.6,3.2-0.5,6.1-1.1c5.1-0.4,1.4,0.3,6.9-0.5
						C128.5,62.4,123.6,63.2,123.6,63.2z M255.7,47.7L255.7,47.7c-1.1,0.1-2.1,0.2-2.7,0.3C253.6,48,254.3,47.9,255.7,47.7z
						 M266.8,46.6c-1.4,0.1-3,0.3-4.8,0.5c-0.4-0.1,0-0.2,1.1-0.3C262.6,46.9,265.2,46.7,266.8,46.6z M243.1,47.1
						c1.8-0.2,2.4-0.2,2.6-0.2c-0.8,0.1-1.8,0.2-3.1,0.4c-0.1,0-0.2,0-0.2,0.1C242.6,47.2,242.8,47.1,243.1,47.1z"/>
					<path id="XMLID_97_" class="st0" d="M240,47.8c-0.3,0-0.4,0.1-0.7,0.1c0.4,0,0.7,0,1.1,0c0.2-0.1,0.4-0.1,0.6-0.2
						C240.6,47.7,240.3,47.7,240,47.8z"/>
					<path id="XMLID_96_" class="st0" d="M1251.9,35.2l-0.2,0c0.2,0,0.4,0.1,0.5,0.1C1252,35.2,1252,35.2,1251.9,35.2z"/>
					<polygon id="XMLID_95_" class="st0" points="420.7,33.2 420.6,33.1 419.7,33.3 					"/>
					<path id="XMLID_94_" class="st0" d="M1313,43.4c0.1,0,0.3,0.1,0.8,0.2C1313.7,43.6,1313.4,43.5,1313,43.4z"/>
					<path id="XMLID_93_" class="st0" d="M1339.3,46.9l3.7,0.6C1341.4,47.3,1340.3,47.1,1339.3,46.9z"/>
					<path id="XMLID_92_" class="st0" d="M1359.6,49.9c0.3,0,0.3,0,0.4-0.1c0,0,0,0,0,0L1359.6,49.9z"/>
					<path id="XMLID_91_" class="st0" d="M1035.9,19.9c-0.3,0-0.5,0-0.8,0C1033.2,19.8,1034.5,19.9,1035.9,19.9z"/>
					<path id="XMLID_90_" class="st0" d="M1132.5,25.1c-1,0-2-0.1-3.1-0.1C1131.1,25.2,1132.5,25.3,1132.5,25.1z"/>
					<path id="XMLID_89_" class="st0" d="M927.9,16.5C927.9,16.5,927.9,16.5,927.9,16.5c-0.2,0-0.4,0-0.7,0L927.9,16.5z"/>
					<path id="XMLID_88_" class="st0" d="M1124.9,24.7c1.7,0.2,3.2,0.3,4.5,0.3C1128,24.9,1126.3,24.8,1124.9,24.7z"/>
					<path id="XMLID_87_" class="st0" d="M1447.1,63.9l1,0.2c0,0,0,0,0.1,0L1447.1,63.9z"/>
					<path id="XMLID_86_" class="st0" d="M1448.2,64.1l1.1,0.2C1448.8,64.1,1448.3,64.1,1448.2,64.1z"/>
					<path id="XMLID_85_" class="st0" d="M1451.5,64.6l-2.3-0.3C1450,64.4,1451,64.5,1451.5,64.6z"/>
					<path id="XMLID_84_" class="st0" d="M1420.4,59.2l-0.3,0.1C1420.3,59.3,1420.4,59.3,1420.4,59.2z"/>
					<path id="XMLID_83_" class="st0" d="M1412.3,58c1.9,0.3,4.8,1,7.5,1.3l0.3,0C1418.8,59.2,1414.2,58.1,1412.3,58z"/>
					<path id="XMLID_82_" class="st0" d="M1378.5,51.4c0,0,1.7,0.2,3.4,0.5c1.7,0.3,3.4,0.6,3.4,0.6c-1.2-0.3-2.7-0.7,0.4-0.2
						C1377.2,50.7,1387.5,52.8,1378.5,51.4z"/>
					<path id="XMLID_81_" class="st0" d="M1357.4,48.2c3.7,0.5,0-0.2,0.2-0.2C1355.2,47.8,1354.7,47.8,1357.4,48.2z"/>
					<path id="XMLID_80_" class="st0" d="M1203.9,30l0.4-0.2C1201.5,29.6,1204.3,29.9,1203.9,30z"/>
					<polygon id="XMLID_79_" class="st0" points="1174.4,28.7 1177.1,29.1 1178.5,29 					"/>
					<polygon id="XMLID_78_" class="st0" points="1157.2,25.4 1158.4,25.5 1153.6,25.2 					"/>
					<path id="XMLID_77_" class="st0" d="M897.9,13.6l0.9,0.3C900.7,13.9,901.1,13.5,897.9,13.6z"/>
					<path id="XMLID_76_" class="st0" d="M785.8,13.8c-1.2-0.2-4.4-0.2-6.3,0C782,13.7,784.5,13.8,785.8,13.8z"/>
					<polygon id="XMLID_75_" class="st0" points="450.1,28.4 452.3,28.1 448.1,28.5 					"/>
				</g>
			</g>
		</g>
	</g>
</g>
</svg>
