<?xml version="1.0" encoding="utf-8"?>
<!-- Generator: Adobe Illustrator 19.0.0, SVG Export Plug-In . SVG Version: 6.00 Build 0)  -->
<svg version="1.1" id="Layer_1" xmlns="http://www.w3.org/2000/svg" xmlns:xlink="http://www.w3.org/1999/xlink" x="0px" y="0px"
	 viewBox="0 0 1472.2 64.3" style="enable-background:new 0 0 1472.2 64.3;" xml:space="preserve">
<style type="text/css">
	.st0{fill:#FAC5CB;}
</style>
<g>
	<g id="XMLID_68_">
		<g id="XMLID_72_">
			<g id="XMLID_73_">
				<g id="XMLID_74_">
					<path id="XMLID_129_" class="st0" d="M1471.8,54.8c0.8,0.1,0.4-0.2-1.7-0.5l-1.6,0.1L1471.8,54.8z"/>
					<path id="XMLID_128_" class="st0" d="M1457.7,51.7c-2.5-0.3-5.4-0.5-3.9,0.1c2.5,0.1,3.1,0.3,5.8,0.4c2.1,0.3,3.7,0.7,3.3,0.8
						c0.8,0,3.3,0.6,4.4,0.6c-2.7-0.7-6.2-1.3-9.9-1.8C1456.8,51.7,1457.5,51.7,1457.7,51.7z"/>
					<path id="XMLID_127_" class="st0" d="M1250.3,21.7l1.3,0.2C1251.3,21.8,1250.9,21.8,1250.3,21.7z"/>
					<path id="XMLID_126_" class="st0" d="M1121,10c1,0.1,1.4,0.1,1.5,0C1121.5,10,1120.8,9.9,1121,10z"/>
					<path id="XMLID_125_" class="st0" d="M1098.9,8.1c0.5,0,0.9,0.1,1.3,0.1C1099.7,8.1,1099.2,8.1,1098.9,8.1z"/>
					<path id="XMLID_124_" class="st0" d="M1250.3,21.7l-3.4-0.5C1246.6,21.3,1248.7,21.5,1250.3,21.7z"/>
					<path id="XMLID_123_" class="st0" d="M1429.1,47.5c0.7,0.1,1.3,0.2,1.9,0.2c-0.6-0.1-1.2-0.2-1.7-0.3
						C1429.2,47.5,1429.2,47.5,1429.1,47.5z"/>
					<path id="XMLID_122_" class="st0" d="M1307.2,28.1l1,0.1c0.3,0,0.6,0,0.9,0L1307.2,28.1z"/>
					<path id="XMLID_121_" class="st0" d="M1350.8,33.9c-1-0.2-1.4,0.1-1.8,0.1c0.6,0,1.3,0,2.2,0.1
						C1351.2,34.1,1351.1,34,1350.8,33.9z"/>
					<path id="XMLID_120_" class="st0" d="M1419.6,44.8l1.2,0.2C1420.5,44.9,1420,44.9,1419.6,44.8z"/>
					<path id="XMLID_119_" class="st0" d="M1276,24.3c-0.1,0-0.2-0.1-0.4-0.1C1275.6,24.2,1275.8,24.2,1276,24.3z"/>
					<path id="XMLID_118_" class="st0" d="M50.8,58.5C50.9,58.5,50.8,58.5,50.8,58.5C50.6,58.5,50.5,58.5,50.8,58.5z"/>
					<path id="XMLID_117_" class="st0" d="M0.1,63.5l0.7-0.1C0.9,63.4,1,63.3,1,63.2L0.1,63.5z"/>
					<path id="XMLID_116_" class="st0" d="M1058.4,5.3c0.1,0,0.1,0,0.2,0C1059.7,5.3,1059.1,5.3,1058.4,5.3z"/>
					<path id="XMLID_115_" class="st0" d="M686,2.4c4.2,0.1-6.9,0.6-0.5,0.6C684.9,2.9,691.2,2.3,686,2.4z"/>
					<path id="XMLID_114_" class="st0" d="M1428,47.3c-0.6-0.1-1.2-0.2-1.8-0.3C1427,47.1,1427.6,47.2,1428,47.3z"/>
					<path id="XMLID_113_" class="st0" d="M685.5,3L685.5,3l0.7,0C685.9,3,685.7,3,685.5,3z"/>
					<path id="XMLID_112_" class="st0" d="M965,1.6c0.2,0.1,0.6,0.1,0.9,0.1C965.9,1.7,965.7,1.7,965,1.6z"/>
					<path id="XMLID_111_" class="st0" d="M1034.6,4.7l-1.7-0.1C1033.5,4.6,1034.1,4.7,1034.6,4.7z"/>
					<path id="XMLID_110_" class="st0" d="M928.8,1.1c-0.9,0-1.3-0.1-2.5-0.1c0.1,0,0.2,0,0.4,0C927.1,1,927.7,1,928.8,1.1z"/>
					<path id="XMLID_109_" class="st0" d="M891.2,0.5c0.2,0,0.5,0,0.7,0.1c0.4,0,0.8,0,1.2,0L891.2,0.5z"/>
					<path id="XMLID_108_" class="st0" d="M164.4,44.8c-0.8,0-1.3,0-1.8-0.1C163.2,44.9,157.7,45.6,164.4,44.8z"/>
					<path id="XMLID_107_" class="st0" d="M1429.1,47.4c-0.2,0-0.6,0-1.1-0.1c0.4,0.1,0.8,0.1,1.2,0.2
						C1429.4,47.5,1429.4,47.4,1429.1,47.4z"/>
					<path id="XMLID_106_" class="st0" d="M927.2,3.3l-6-0.2C922.9,3.1,925.1,3.2,927.2,3.3z"/>
					<path id="XMLID_105_" class="st0" d="M433.1,18.9l-1.4,0.1C432.2,19,432.7,18.9,433.1,18.9z"/>
					<path id="XMLID_104_" class="st0" d="M903.5,2.9c-1.1-0.1-2.2-0.2-3.4-0.2c-0.2,0-0.5,0-0.7,0.1L903.5,2.9z"/>
					<path id="XMLID_103_" class="st0" d="M162.6,44.7C162.6,44.7,162.6,44.8,162.6,44.7C162.6,44.8,162.6,44.7,162.6,44.7z"/>
					<path id="XMLID_98_" class="st0" d="M123.6,49.9c5.7-0.7,2.6-0.7,3.8-1c6.7-0.9,3.2-0.1,5.5-0.2c4.2-0.6,7.4-1.3,10.5-1.7
						c0.2,0,0.9,0,0.1,0.1c4.4-0.8,13.2-1.5,18.4-2.5c0.4,0,0.6,0,0.7,0c-0.9-0.1-1-0.3-0.9-0.4c2.5-0.3,4.7-0.8,5.7-0.6
						c-1.6,0.2-1.7,0.3-2.4,0.4l2.6-0.4c2.4,0.1-3.6,0.5-3.6,0.8c5.2-0.7,11.2-1.7,15.2-2c0.9,0.2-9.3,1.2-3.9,0.9l-6.2,0.6
						c4.8,0-3.7,0.4,0.6,0.5c8.1-0.8,9-1.2,17.1-2c1.8-0.4-0.6-0.2,1.2-0.6c11.4-1.6,9.1-0.1,17.5-1.5c2.2-0.5,3-1,9-1.4l-2,0.6
						c7.8-0.8,4.4-1,12.7-1.7c-1.4,0.3-6.1,0.8-5,0.7c5.3-0.3,3.7-0.6,7.8-1.1l0.9,0.2c8.3-1,17.5-2,26.8-3.1
						c-0.5,0.2-2.1,0.4,0.1,0.3c5.8-0.7,12-1.3,18.2-1.9c6.2-0.6,12.3-1,18-1.5l4.3-0.7c1-0.1,1.9,0,0.8,0.1
						c4.4-0.3,0.2-0.2,2.3-0.5c2.5-0.3,3.3-0.2,1.7,0.1c7.7-1,22-2.7,30.2-3.1l-1.6,0.2c6.4-0.5,7.1-1.2,13-1.5l-1.1,0.2
						c13.8-1.1,29-2.8,39.6-3.2c2-0.6,13.7-1,14.5-1.6c7.9-0.4,5.7-0.1,16.8-0.8c3-0.2,4.4-0.7,8.1-1.1l0.1,0.3l5-0.7l2.7,0.2
						l3.4-0.3c-1.4,0.1-2.9,0.1-2.7,0c2.7-0.3,6-0.5,8.6-0.6c2.6-0.1,4.6-0.1,4.7-0.1l12.7-1.2c-0.3,0.1-2.4,0.4-4.1,0.6
						c6.8-0.8,1.3,0.2,7.5-0.5c-0.8,0,0.4-0.2,0.6-0.3c3.1-0.1,10.2-0.5,15.4-1l-1,0.3c9.4-0.6,19.9-1.5,30.5-2.2
						c-3.8,0.2-3-0.3,0.1-0.5l1.3,0.2c2-0.3-3.3,0.1,0.8-0.4c4-0.2,2.7,0.2,0.4,0.4l4.8-0.4c0.3,0.1-0.8,0.2-1.1,0.3
						c2-0.3,8.3-0.2,11.1-0.7l0.3,0.1c10.6-0.7,15.4-1,24-1.6c0.2-0.3,3.5-0.4,6.1-0.8c6.3-0.3,13.4-0.4,21-0.8
						c5.4-0.4,1.6-0.3,4-0.6c0.4,0.2,8-0.2,4.1,0.2c9.2-0.5,11.7-0.7,23.3-1.5c-1.3,0-2.7,0-2-0.2c2.1-0.1,4.8-0.1,4.5,0L606,7.7
						c13-1,30.1-0.6,40.4-1.6l-0.6,0l10.7-0.7c4.9-0.1-3,0.3,0.7,0.3c11.6-0.8,18.3-0.6,27.9-1.2c7.4,0.4,26.2-0.8,36.2-0.6
						l-0.6-0.2c2.6-0.2,3.1,0,5,0c-0.3-0.1-2.8-0.1-1.2-0.2c10.9-0.4,22.2-0.6,33.6-0.6c5.7,0,11.4-0.1,17-0.1c2.8,0,5.7,0,8.5-0.1
						c2.8,0,5.6,0,8.4,0c8.2,0,4.6-1,15-0.6l-2.9,0.4c8.3-0.3,16.7-0.3,25.1-0.4c8.4,0,16.8,0.1,24.9-0.1c-1,0.1-1,0.2-2.6,0.2
						c1.7,0.1,4.9,0.1,7.6,0.1c2.7,0,5.1-0.1,5.1-0.2c2.5,0,0.6,0.2,2.1,0.3c3.4,0.2,8.6-0.3,10.4,0c0.3,0-1,0.1-1.6,0.1
						c2.2-0.1,10.4,0.2,8.3-0.1c6.1,0.2,11.6,0,16.5,0.3c3.2-0.3,10.4,0.3,11.4-0.1C911.1,3,922.2,3,926.1,2.9
						c-1.3,0.1,3.3,0.2,1.8,0.4c4.4,0.1,8.4,0.1,7.6-0.1c8.1,0.7,16.3,0,20.8,0.8c13,0,25.1,0.4,36.8,0.7c-0.4,0.4-13-0.4-12.5,0.1
						c11.1,0.2,17.5,0.1,28.6,0.6c2.9,0.2-1.6,0.1-2.6,0.2c2.8,0.1,5.5,0.1,8.2,0.2c2.7,0.1,5.3,0.3,7.9,0.4
						c5.2,0.3,10.3,0.5,15.2,0.6c0,0-1.1,0-2.1,0c1.9,0.1,4.5,0.3,4.3,0.1l-1.9,0c-3.1-0.4,7.8-0.2,8.1-0.4
						c-3.3,0.4,9.7,0.6,4.5,1.1c1.3,0,2.9,0,2.6-0.1c1.9,0.1,2.5,0.2,0.6,0.3c7,0.2,4.5-0.1,10.8,0.3c0,0.1-1.3,0.1-2,0.1
						c3.2,0,6.4,0,11.8,0.4c-0.3,0,0.3,0.2-1.3,0.1c9.2,0.5,15.6,0.4,25.7,1.2c-3,0.3,3.4,0.3,3.9,0.8c0,0,1.4,0.1,2.7,0.1
						c1.4,0.1,2.7,0.1,2.7,0.1l-2.2-0.3c4.7,0.4,8.9,0.4,13,0.8l-3.5-0.1l8.9,0.6l-5-0.5c4.8,0.2-0.5-0.5,5.8,0.1
						c-1.3-0.1,4.7,0.4,7.2,0.8l0,0c2.3,0.1,4.8,0.1,8.3,0.5c0.9,0.2-0.8,0.4-0.2,0.5c2.3-0.1,11.1,0.7,14,0.6c-1,0-1,0.2-0.7,0.3
						l2-0.1c2.2,0.3,2.5,0.3,2.1,0.5c6.6,0.6-2.1-0.7,5.7,0.2c-0.6,0-0.3,0-1.6,0c7.8,0.8,15.2,1.1,22.4,1.9
						c2.1,0.6-6.3-0.5-3.9,0.1c5.2,0.4,10.6,0.8,15.9,1.1c5.3,0.4,10.6,0.9,15.7,1.4l-1.9-0.2c1.4-0.4,7.5,1,12.6,1.3
						c-1.2-0.1-1.7,0.1-1.3,0.1c6.9,0.8,14.1,1.2,24.5,2.2l-1.3,0c4,0.6,10.7,1.3,15,1.8c1.3,0,3.8,0.3,2.3-0.1
						c6.7,1.2,13.1,1.8,19.4,2.4c3.1,0.3,6.2,0.6,9.3,0.9c3,0.4,6,0.8,9,1.4c-1.4-0.2-3.4-0.3-2.3-0.2l10.2,1.2
						c-0.8-0.3-1.3-0.3-3.4-0.8c1.3,0,4.2,0.3,6.7,0.6c-4.6-0.4,0,0.4,2,0.8c-0.3-0.1,0.4-0.1,0.2-0.2c5.3,1.1,1-0.3,8.2,0.9
						l-0.4,0.1c2.7,0.3,5.2,0.4,8.2,0.9c1.2,0.4-2.9-0.2-3.1-0.1c4.1,0.5,8.2,0.5,11.9,1.3c-1.8-0.2-4.3-0.5-6-0.7
						c4,0.8,4.5,0.8,7.5,1.3l-0.3,0l6.9,1.1l-1.8-0.3c5.2,0,10.5,1.4,17.5,1.9c-6.8-0.5-1.1,0.1-1.7,0.3c1.8,0.3,4.4,0.8,3.7,0.8
						c3.3,0.2,5.4,1,10.1,1.3c0.2,0.1,3.5,0.5,2.7,0.6c4.3,0.5-1-0.3-0.6-0.4c1.7,0.2,3.4,0.4,5.3,0.7c1.9,0.3,3.9,0.7,6,1.1
						c4.2,0.7,8.7,1.5,13.5,2.1c8.1,1.1,9.7,1,17.3,2c2.5,0.6-2.1,0-2.1,0c4.1,0.8,7.2,1.2,11,1.8c-0.8-0.1,0,0.2,1.2,0.5
						c3.1,0.5,2.1,0,6.2,0.9c-0.7,0-1.6,0-3.2-0.2c3.7,0.5,7.3,1,11.1,1.6c1,0.3-2.3-0.1-3.7-0.3c4.3,0.7,11,1.8,12.4,1.7l-2.7-0.6
						c1.5,0.3,0.8,0.4-0.4,0.2c-3.7-0.4-5.2-1-5.4-1.1l2.7,0.4c-2.7-1-10.8-1.8-16.2-2.8l2.3,0c0,0-1.4-0.2-2.8-0.3
						c-1.4-0.2-2.8-0.3-2.8-0.3c-1.2-0.3-1.9-0.7,0.8-0.3c-3.9-0.8-3.5-0.4-6.8-1.2c-0.4-0.1-0.2-0.1,0.2,0l-3.8-0.5
						c0.8,0-0.6-0.4,1.7,0c-6.8-1.3-11-1.4-13.6-2.1l0.6,0.1c-9.5-1.4-1,0.2-8.1-0.6l-4.7-1.5l-1,0.2c-1-0.2-2.9-0.5-2.5-0.6
						c-3.7-0.4,0.6,0.2-1.5,0.1c-4.7-1.1-13-1.8-14-2.4c-1.7,0,4.5,0.8-0.6,0.3c-1.4-0.7-5.8-0.7-10.1-1.6c1.4-0.1,5.4,0.6,1.1-0.2
						c-2.7,0.1-8.4-1.3-12-1.7c-0.2,0.3-7.9-1-14-1.7c0.4-0.1-11.5-1.7-17.1-2.6l0.2,0c-1.1,0.2-7-0.6-11.3-1.1c0.2-0.2,1-0.2,3.3,0
						l-4-0.5c-1,0-2.2-0.1-4.8-0.4l1-0.1c-5.3-0.7-10.8-1.1-17.6-2.1c-0.4,0.2,5.4,1.3-1.9,0.7c-0.3-0.2-0.5-0.4,1.4-0.3
						c-0.6-0.1-2.2-0.1-3.5-0.3l2.9,0.1c-3.1-0.5-1.7,0-4.2-0.3c0.1-0.2-1.8-0.4-1.5-0.5c0.6,0.1,2.2,0.3,3.1,0.4
						c-2.8-0.4-6.2-0.9-7.3-1.1c0.2,0.1,0,0.3-2.1,0.1c-5.3-0.6-1.8-0.4-4.9-0.9c-1.3,0-4.7-0.5-4.8-0.3c-1.6-0.2-1.8-0.3-2.4-0.5
						c-2.8-0.2-12.9-1.4-9.8-0.8l0.7,0.1c-0.1,0-0.3,0-0.5,0c0,0,0,0,0,0l0,0c-9.1-0.8-18.8-2.1-27.8-2.9l0-0.1
						c-5.4-0.4-12-1.1-15.8-1.3c-1.6-0.2-3.7-0.6-3-0.6c-4.1-0.3-4.6-0.3-10.5-1c4.2,0.2-1.4-0.3,4.3,0.3c-5.3-0.6-6.5-0.8-12.3-1.1
						c2-0.1-4-0.7-6.5-0.8l3.7,0.5c-2.9-0.2-5.4-0.4-7.9-0.7l1.4-0.2c-10.9-1.3-19.8-1.1-28.1-2.4c-2.9,0,5.9,0.6,3.3,0.7
						c-5-0.4-10.2-1.3-11.8-1.4c-6.9-0.7-6.5,0-13.7-0.6c0.9,0.2,1.8,0.6-3.6,0.3c-5-0.4-6.2-1-3-0.8c1.2,0.1,1.8,0.2,1.7,0.2
						c1.6,0.1,3.8,0.2,1.8-0.1l-0.7,0.1c-2.5-0.3-9.4-0.8-7.8-0.9c-3.8-0.2-1.6,0.1,1.2,0.3c-6.5-0.6-10.1-0.8-16.8-1.3
						c1.1,0.1,2,0.3,1,0.3c-9.8-0.7-4.3,0-10.9-0.4c-3.8-0.4,1.4-0.3-5.3-0.6c-4.1-0.4-0.8-0.4,0.8-0.4c-6.1-0.1-11.3-0.8-14.8-1.1
						l3.2,0.1c-1.9-0.1-3.5-0.2-5.1-0.3l1.8,0.3c-1.9-0.2-3.5-0.3-3.4-0.3c-1.9,0,1.5,0.5-2.4,0.5c-1.2-0.1-3.2-0.2-4.9-0.3
						c-1.7-0.1-3.2-0.2-3.6-0.3c7.9,0.5-0.9-0.4,5.8-0.1c-1.3,0-2.9-0.1-4.7-0.3c-0.3,0,0.3-0.1,0.8,0c-7.5-0.6-3.5,0.2-11.3-0.2
						c1-0.1-1.8-0.4-3.1-0.4c3.1,0.2,1.5,0.4-1.4,0.4c-5-0.4-5.5-0.2-8.1-0.3l3,0.2c-1,0.1-3.5,0-7-0.1c-0.3-0.2,3.2,0.1,1.9-0.1
						c-3.9,0.1-8.7-0.7-14.2-0.8c-2.5-0.2-0.2-0.3-2.4-0.5c-6.1,0-6.6-0.5-12.9-0.5c1.8,0.3,2.2,0.3-2.3,0.3l10.5,0.2l-6.7,0.1
						c3.2,0.1,6.7,0.1,8.6,0.2c-3.2,0.1-2.9,0-1.4,0.3c-4.3-0.5-8.6-0.1-13.6-0.5l0.2-0.6c-7.5-0.5-13.4-0.2-23.1-0.7l3.1,0.2
						c-1.3,0.2-6-0.2-9.2-0.2c0.3-0.2-1.7-0.3-3-0.5c0.2,0.2-7.1-0.2-8,0.2l-4.4-0.4c-7.9-0.3-9,0.3-16.6,0.1
						c2.3-0.2-1.2-0.4,3.9-0.4c-2.5-0.1-4.8-0.2-4.8,0c-1.5-0.2-7,0.1-9.3-0.2c-1.1,0.1-1.4,0.3-4.3,0.2c-0.3,0,0-0.1,0-0.1
						c0,0.1-4.5,0.1-2,0.3c-7.8-0.7-21.8-0.3-28.6-0.9c-5.5,0-12.2-0.1-17.2-0.1c0.3-0.1,0-0.1,1-0.1c-6.9-0.2-4.3,0.6-12.1,0.3
						c-4-0.3,4.2-0.2,1.7-0.3c-1.1-0.7-9.5,0.1-14.8-0.3l1.3,0c-4-0.2-9.9,0.2-16.5,0.2c0,0,0.3-0.1,0-0.1
						c-4.5,0.3-13.1,0.5-19.5,0.6c2-0.3,2.9-0.2,1.7-0.4c-2.9,0.1,0.8,0.4-4.9,0.5c-1.9-0.1-6-0.2-6.5-0.5l5.4-0.1
						c-2.8-0.3-7,0.1-9.8,0l0.4-0.2c-8.2,0.1-8.3,0.5-17.2,0.5l0.9,0.1c-4.8,0.4-4.1-0.2-8.9,0.2l-1.5-0.4
						c-3.2,0.2-11.2,0.6-16.9,0.7c3.2-0.3,9.9-0.6,14.1-0.9c-3.2,0.1-10.7,0.2-12.4,0.4c1.3-0.1,2.9-0.2,4.1-0.1
						c-3.9,0.4-9,0.6-15.3,0.7c0.6-0.4-3.6-0.4-8.4-0.3c-4.8,0-10.3,0.2-12.6,0c-11.1,0.6-22.1,0.5-35.1,0.9c4.6,0.5-3.8,0.1-3,0.7
						c-3,0.1-4.2,0.2-4.4,0.2l-9.2,0c-2.2-0.1,2.9-0.2,2.6-0.4c-6.6,0.2-2.8-0.2-7.2-0.2c0.9,0.2-2.3,0.4-6.1,0.4L671,3
						c-9.2,0.7-8-0.2-17.3,0.4l2.9-0.3c-2.4,0.1-6.8,0.3-11.2,0.5c-4.4,0.2-8.8,0.5-11.1,0.9c-0.8,0-2-0.1,0.1-0.3
						C623,4.6,609,5.9,600.1,6l0.9-0.2c-2.1,0.1-3.7,0.5-6.4,0.5c0.1-0.1,0.9-0.2-0.1-0.2c-1.1,0.1-5.7,0.6-8.5,0.6l2.4-0.3
						c-11.2,0.4-17.1,1.3-26.4,1.9c0-0.4-8.8-0.1-13.2,0.1l0.1-0.1c-13,0.7-22,1.7-34,2.6c-7.5-0.1-25.3,1.5-37.3,2.1
						c1.8,0-0.3,0.4-2.4,0.6c-2.8,0.1-7.8,0.8-7.3,0.4l1-0.1c-2.1-0.2-7.9,0.2-12.4,0.6l-0.7,0.6c-11.9,0.1-30.9,2.7-37.4,2.5
						c-2.8,0.3-6.4,0.6-9.2,1l0.1-0.3c-7.9,0.6-11.8,0.9-21.6,1.8l2-0.4c-5.5,0.4-6.9,1.4-11.9,1.8l-1.6-0.3
						c-9.6,0.8-19.3,1.3-28.7,2.6c0.1-0.1,0.4-0.2,2-0.4c-4.5,0.4-17.5,1.3-15.8,1.7c-0.1-0.4-9.9,0.8-15,1.5l0.8-0.4
						c-4.3,0.8-4.5,0.9-10.5,1.6c-1.4,0.1-1.3-0.1,0.6-0.2c-4.8,0.3-3.7,0.6-9.6,1l2.2-0.4c-5,0.5-4.6,0.5-7.3,1
						c-3.1,0.4-9.4,0.8-10.2,0.7c-0.7,0.2-3.3,0.7-6.3,0.9c-0.4-0.1,0.7-0.2,1.2-0.3c-8.3,0.6-12.3,1.6-18,1.9
						c-0.1-0.1-0.5-0.1-1-0.1c6.6-0.7,11.9-1.2,11.4-1.1c0-0.3-5.3,0.2-1.2-0.5c-4.2,0.6-11.5,1.8-16.7,2.2c-0.3,0-0.5,0-0.7,0
						l0.5-0.1c-1.2,0.1-2.3,0.2-3.3,0.4c-1.7,0.1-2.7,0.2-4.3,0.4c-0.6-0.1-6.1,0.5-8.8,0.8c0.2,0.3-3.2,0.6,0,0.5
						c-0.4,0,0.5-0.1,2.3-0.3c0.4,0,0.9-0.1,1.1-0.1c-0.1,0-0.1,0-0.2,0c1.7-0.2,4-0.4,6.6-0.7c-2.1,0.4-4.3,0.7-7.2,0.8
						c-1.3,0.3-2.8,0.7-3.6,0.8c-3.7,0-10.7,0.5-11.7,0.4c-8.1,1-19,2.2-24,3.2c-2.3,0.3-2.7,0.1-3.5,0.1c1.3-0.2,2.9-0.4,3.6-0.5
						c-4.6,0.6-13.6,1.5-14.7,2c-5.8,0.5,3.2-0.7-4.7,0.2l1.1-0.2c-15.7,1.2-25.3,3.8-42.7,5.1c1.2-0.1,1.8-0.1,2.1-0.1
						c-9.9,1-20.1,2.3-30.2,3.5c-10.1,1.3-20.3,2.5-30,3.4c-5.6,0.6-6.1,0.9-9.5,1.5l-1.2-0.2L65.3,55c-8.2,1.3-14.3,1-24.6,2.8
						l1.4,0c-3.7,0.4-11.8,1.6-11.2,1.3c-0.4,0.1-1.2,0.4-2.7,0.4l-0.1-0.1L19,60.9c-7.1,0.8,1-0.8-9.3,0.5
						c-3.8,0.6-10.9,1.9-9.4,1.8c1.6-0.2,4-0.4,4.1-0.3l-3.5,0.5C0.3,64-2.4,64.8,6.3,64l6-1l2,0l-5.1,0.7c2.9-0.2,4.7-0.6,6.7-1
						c0.5,0.1,1.4,0,2.6-0.1l5.9-1.2c0.7,0.1-2.6,0.7,1.4,0.3c2.7-0.6-2.7-0.1,1.9-0.8c2.9-0.2,2.1,0.1,5.4-0.5
						c0.5,0.1-0.2,0.2-1.5,0.4c3-0.5,8-1.1,9.5-1.5c3-0.1,10.1-1.3,9.9-0.9c0.9-0.2,5.3-1,8-1.4c-5,1.1,10.4-1.2,9.1-0.5
						c3.7-0.9,13.5-1.9,20.1-3c-0.4,0.1-1.1,0.2-1.7,0.3c3.7-0.4,4.8-0.4,7.2-0.6c0.4-0.4,6.2-1.2,9.3-1.8c4.6-0.2-2.7,0.8-1.2,1
						c-0.3-0.3,7.9-1.3,6.3-1.3c3.5-0.2,3-0.2,4.9-0.1c0.6-0.6,3.2-0.5,6.1-1.1c5.1-0.4,1.4,0.3,6.9-0.5
						C128.5,49.2,123.6,49.9,123.6,49.9z M255.7,34.5L255.7,34.5c-1.1,0.1-2.1,0.2-2.7,0.3C253.6,34.7,254.3,34.6,255.7,34.5z
						 M266.8,33.3c-1.4,0.1-3,0.3-4.8,0.5c-0.4-0.1,0-0.2,1.1-0.3C262.6,33.6,265.2,33.4,266.8,33.3z M243.1,33.8
						c1.8-0.2,2.4-0.2,2.6-0.2c-0.8,0.1-1.8,0.2-3.1,0.4c-0.1,0-0.2,0-0.2,0.1C242.6,34,242.8,33.9,243.1,33.8z"/>
					<path id="XMLID_97_" class="st0" d="M240,34.5c-0.3,0-0.4,0.1-0.7,0.1c0.4,0,0.7,0,1.1,0c0.2-0.1,0.4-0.1,0.6-0.2
						C240.6,34.5,240.3,34.5,240,34.5z"/>
					<path id="XMLID_96_" class="st0" d="M1251.9,21.9l-0.2,0c0.2,0,0.4,0.1,0.5,0.1C1252,22,1252,21.9,1251.9,21.9z"/>
					<polygon id="XMLID_95_" class="st0" points="420.7,19.9 420.6,19.9 419.7,20 					"/>
					<path id="XMLID_94_" class="st0" d="M1313,30.2c0.1,0,0.3,0.1,0.8,0.2C1313.7,30.3,1313.4,30.3,1313,30.2z"/>
					<path id="XMLID_93_" class="st0" d="M1339.3,33.7l3.7,0.6C1341.4,34,1340.3,33.8,1339.3,33.7z"/>
					<path id="XMLID_92_" class="st0" d="M1359.6,36.7c0.3,0,0.3,0,0.4-0.1c0,0,0,0,0,0L1359.6,36.7z"/>
					<path id="XMLID_91_" class="st0" d="M1035.9,6.7c-0.3,0-0.5,0-0.8,0C1033.2,6.6,1034.5,6.6,1035.9,6.7z"/>
					<path id="XMLID_90_" class="st0" d="M1132.5,11.9c-1,0-2-0.1-3.1-0.1C1131.1,11.9,1132.5,12,1132.5,11.9z"/>
					<path id="XMLID_89_" class="st0" d="M927.9,3.3C927.9,3.3,927.9,3.3,927.9,3.3c-0.2,0-0.4,0-0.7,0L927.9,3.3z"/>
					<path id="XMLID_88_" class="st0" d="M1124.9,11.4c1.7,0.2,3.2,0.3,4.5,0.3C1128,11.7,1126.3,11.5,1124.9,11.4z"/>
					<path id="XMLID_87_" class="st0" d="M1447.1,50.7l1,0.2c0,0,0,0,0.1,0L1447.1,50.7z"/>
					<path id="XMLID_86_" class="st0" d="M1448.2,50.8l1.1,0.2C1448.8,50.9,1448.3,50.8,1448.2,50.8z"/>
					<path id="XMLID_85_" class="st0" d="M1451.5,51.3l-2.3-0.3C1450,51.1,1451,51.3,1451.5,51.3z"/>
					<path id="XMLID_84_" class="st0" d="M1420.4,46l-0.3,0.1C1420.3,46.1,1420.4,46,1420.4,46z"/>
					<path id="XMLID_83_" class="st0" d="M1412.3,44.7c1.9,0.3,4.8,1,7.5,1.3l0.3,0C1418.8,46,1414.2,44.9,1412.3,44.7z"/>
					<path id="XMLID_82_" class="st0" d="M1378.5,38.2c0,0,1.7,0.2,3.4,0.5c1.7,0.3,3.4,0.6,3.4,0.6c-1.2-0.3-2.7-0.7,0.4-0.2
						C1377.2,37.4,1387.5,39.6,1378.5,38.2z"/>
					<path id="XMLID_81_" class="st0" d="M1357.4,35c3.7,0.5,0-0.2,0.2-0.2C1355.2,34.6,1354.7,34.5,1357.4,35z"/>
					<path id="XMLID_80_" class="st0" d="M1203.9,16.8l0.4-0.2C1201.5,16.3,1204.3,16.7,1203.9,16.8z"/>
					<polygon id="XMLID_79_" class="st0" points="1174.4,15.5 1177.1,15.9 1178.5,15.8 					"/>
					<polygon id="XMLID_78_" class="st0" points="1157.2,12.2 1158.4,12.2 1153.6,11.9 					"/>
					<path id="XMLID_77_" class="st0" d="M897.9,0.3l0.9,0.3C900.7,0.6,901.1,0.3,897.9,0.3z"/>
					<path id="XMLID_76_" class="st0" d="M785.8,0.5c-1.2-0.2-4.4-0.2-6.3,0C782,0.5,784.5,0.6,785.8,0.5z"/>
					<polygon id="XMLID_75_" class="st0" points="450.1,15.2 452.3,14.9 448.1,15.3 					"/>
				</g>
			</g>
		</g>
	</g>
</g>
</svg>
