<?xml version="1.0" encoding="utf-8"?>
<!-- Generator: Adobe Illustrator 19.0.0, SVG Export Plug-In . SVG Version: 6.00 Build 0)  -->
<svg version="1.1" id="Layer_1" xmlns="http://www.w3.org/2000/svg" xmlns:xlink="http://www.w3.org/1999/xlink" x="0px" y="0px"
	 viewBox="0 0 1345 278.1" style="enable-background:new 0 0 1345 278.1;" xml:space="preserve">
<style type="text/css">
	.st0{fill:#FAC5CB;}
</style>
<g>
	<g>
		<g>
			<path class="st0" d="M676,40.2c-3.9,2-4.5,3.3-3.7,7.6c0.1,0.3-0.4,0.4-0.5,0.2c-2-3.9-3.3-4.5-7.6-3.7c-0.3,0.1-0.4-0.4-0.2-0.5
				c3.9-2,4.5-3.3,3.7-7.6c-0.1-0.3,0.4-0.4,0.5-0.2c2,3.9,3.3,4.5,7.6,3.7C676.1,39.7,676.3,40.1,676,40.2z"/>
		</g>
	</g>
	<g>
		<g>
			<path class="st0" d="M733.9,27c-7.5,3.9-8.6,6.3-7.2,14.6c0.1,0.6-0.7,0.9-1,0.3c-3.9-7.5-6.3-8.6-14.6-7.2
				c-0.6,0.1-0.9-0.7-0.3-1c7.5-3.9,8.6-6.3,7.2-14.6c-0.1-0.6,0.7-0.9,1-0.3c3.9,7.5,6.3,8.6,14.6,7.2
				C734.2,25.9,734.5,26.7,733.9,27z"/>
		</g>
	</g>
	<g>
		<g>
			<path class="st0" d="M593.1,27.6c-7.5,3.9-8.6,6.3-7.2,14.6c0.1,0.6-0.7,0.9-1,0.3c-3.9-7.5-6.3-8.6-14.6-7.2
				c-0.6,0.1-0.9-0.7-0.3-1c7.5-3.9,8.6-6.3,7.2-14.6c-0.1-0.6,0.7-0.9,1-0.3c3.9,7.5,6.3,8.6,14.6,7.2
				C593.3,26.5,593.6,27.3,593.1,27.6z"/>
		</g>
	</g>
	<g>
		<g>
			<path class="st0" d="M611.4,13.3c-3.9,2-4.5,3.3-3.7,7.6c0.1,0.3-0.4,0.4-0.5,0.2c-2-3.9-3.3-4.5-7.6-3.7
				c-0.3,0.1-0.4-0.4-0.2-0.5c3.9-2,4.5-3.3,3.7-7.6c-0.1-0.3,0.4-0.4,0.5-0.2c2,3.9,3.3,4.5,7.6,3.7
				C611.6,12.7,611.7,13.2,611.4,13.3z"/>
		</g>
	</g>
	<g>
		<g>
			<path class="st0" d="M660.5,15.6c-7.8,4-9,6.6-7.4,15.2c0.1,0.6-0.7,0.9-1,0.3c-4-7.8-6.6-9-15.2-7.4c-0.6,0.1-0.9-0.7-0.3-1
				c7.8-4,9-6.6,7.4-15.2c-0.1-0.6,0.7-0.9,1-0.3c4,7.8,6.6,9,15.2,7.4C660.8,14.5,661.1,15.3,660.5,15.6z"/>
		</g>
	</g>
	<g>
		<g>
			<path class="st0" d="M760.6,55.3c-3.9,2-4.5,3.3-3.7,7.6c0.1,0.3-0.4,0.4-0.5,0.2c-2-3.9-3.3-4.5-7.6-3.7
				c-0.3,0.1-0.4-0.4-0.2-0.5c3.9-2,4.5-3.3,3.7-7.6c-0.1-0.3,0.4-0.4,0.5-0.2c2,3.9,3.3,4.5,7.6,3.7
				C760.8,54.7,760.9,55.1,760.6,55.3z"/>
		</g>
	</g>
	<circle class="st0" cx="626.5" cy="2.5" r="2.5"/>
	<circle class="st0" cx="741.5" cy="56.4" r="1.6"/>
	<circle class="st0" cx="675.4" cy="57.7" r="1.6"/>
	<circle class="st0" cx="693.5" cy="18.8" r="1.2"/>
	<circle class="st0" cx="624.1" cy="36" r="1.2"/>
	<circle class="st0" cx="660.2" cy="2.8" r="1.2"/>
	<circle class="st0" cx="555.1" cy="32.3" r="1.2"/>
	<circle class="st0" cx="597.4" cy="38.8" r="1.2"/>
</g>
<g>
	<g>
		<g>
			<path class="st0" d="M122.2,49.2c-3.9,2-4.5,3.3-3.7,7.6c0.1,0.3-0.4,0.4-0.5,0.2c-2-3.9-3.3-4.5-7.6-3.7
				c-0.3,0.1-0.4-0.4-0.2-0.5c3.9-2,4.5-3.3,3.7-7.6c-0.1-0.3,0.4-0.4,0.5-0.2c2,3.9,3.3,4.5,7.6,3.7
				C122.3,48.6,122.5,49,122.2,49.2z"/>
		</g>
	</g>
	<g>
		<g>
			<path class="st0" d="M180.1,35.9c-7.5,3.9-8.6,6.3-7.2,14.6c0.1,0.6-0.7,0.9-1,0.3c-3.9-7.5-6.3-8.6-14.6-7.2
				c-0.6,0.1-0.9-0.7-0.3-1c7.5-3.9,8.6-6.3,7.2-14.6c-0.1-0.6,0.7-0.9,1-0.3c3.9,7.5,6.3,8.6,14.6,7.2
				C180.4,34.9,180.6,35.7,180.1,35.9z"/>
		</g>
	</g>
	<g>
		<g>
			<path class="st0" d="M39.3,36.5c-7.5,3.9-8.6,6.3-7.2,14.6c0.1,0.6-0.7,0.9-1,0.3c-3.9-7.5-6.3-8.6-14.6-7.2
				c-0.6,0.1-0.9-0.7-0.3-1c7.5-3.9,8.6-6.3,7.2-14.6c-0.1-0.6,0.7-0.9,1-0.3c3.9,7.5,6.3,8.6,14.6,7.2
				C39.5,35.5,39.8,36.3,39.3,36.5z"/>
		</g>
	</g>
	<g>
		<g>
			<path class="st0" d="M57.6,22.2c-3.9,2-4.5,3.3-3.7,7.6c0.1,0.3-0.4,0.4-0.5,0.2c-2-3.9-3.3-4.5-7.6-3.7
				c-0.3,0.1-0.4-0.4-0.2-0.5c3.9-2,4.5-3.3,3.7-7.6c-0.1-0.3,0.4-0.4,0.5-0.2c2,3.9,3.3,4.5,7.6,3.7C57.7,21.7,57.9,22.1,57.6,22.2
				z"/>
		</g>
	</g>
	<g>
		<g>
			<path class="st0" d="M106.7,24.6c-7.8,4-9,6.6-7.4,15.2c0.1,0.6-0.7,0.9-1,0.3c-4-7.8-6.6-9-15.2-7.4c-0.6,0.1-0.9-0.7-0.3-1
				c7.8-4,9-6.6,7.4-15.2c-0.1-0.6,0.7-0.9,1-0.3c4,7.8,6.6,9,15.2,7.4C107,23.4,107.3,24.3,106.7,24.6z"/>
		</g>
	</g>
	<g>
		<g>
			<path class="st0" d="M206.8,64.2c-3.9,2-4.5,3.3-3.7,7.6c0.1,0.3-0.4,0.4-0.5,0.2c-2-3.9-3.3-4.5-7.6-3.7
				c-0.3,0.1-0.4-0.4-0.2-0.5c3.9-2,4.5-3.3,3.7-7.6c-0.1-0.3,0.4-0.4,0.5-0.2c2,3.9,3.3,4.5,7.6,3.7
				C207,63.7,207.1,64.1,206.8,64.2z"/>
		</g>
	</g>
	<circle class="st0" cx="72.7" cy="11.4" r="2.5"/>
	<circle class="st0" cx="187.7" cy="65.3" r="1.6"/>
	<circle class="st0" cx="121.6" cy="66.6" r="1.6"/>
	<circle class="st0" cx="139.7" cy="27.7" r="1.2"/>
	<circle class="st0" cx="70.3" cy="44.9" r="1.2"/>
	<circle class="st0" cx="106.4" cy="11.7" r="1.2"/>
	<circle class="st0" cx="1.2" cy="41.2" r="1.2"/>
	<circle class="st0" cx="43.6" cy="47.7" r="1.2"/>
</g>
<g>
	<g>
		<g>
			<path class="st0" d="M1245.5,207.5c-4,1.8-4.7,3-4.1,7.4c0,0.3-0.4,0.4-0.5,0.1c-1.8-4-3-4.7-7.4-4.1c-0.3,0-0.4-0.4-0.1-0.5
				c4-1.8,4.7-3,4.1-7.4c0-0.3,0.4-0.4,0.5-0.1c1.8,4,3,4.7,7.4,4.1C1245.7,206.9,1245.8,207.4,1245.5,207.5z"/>
		</g>
	</g>
	<g>
		<g>
			<path class="st0" d="M1304,197.2c-7.7,3.5-9,5.9-7.9,14.2c0.1,0.6-0.7,0.8-1,0.3c-3.5-7.7-5.9-9-14.2-7.9c-0.6,0.1-0.8-0.7-0.3-1
				c7.7-3.5,9-5.9,7.9-14.2c-0.1-0.6,0.7-0.8,1-0.3c3.5,7.7,5.9,9,14.2,7.9C1304.3,196.2,1304.6,197,1304,197.2z"/>
		</g>
	</g>
	<g>
		<g>
			<path class="st0" d="M1163.3,190.6c-7.7,3.5-9,5.9-7.9,14.2c0.1,0.6-0.7,0.8-1,0.3c-3.5-7.7-5.9-9-14.2-7.9
				c-0.6,0.1-0.8-0.7-0.3-1c7.7-3.5,9-5.9,7.9-14.2c-0.1-0.6,0.7-0.8,1-0.3c3.5,7.7,5.9,9,14.2,7.9
				C1163.6,189.6,1163.9,190.4,1163.3,190.6z"/>
		</g>
	</g>
	<g>
		<g>
			<path class="st0" d="M1282.1,222.5c-4,1.8-4.7,3-4.1,7.4c0,0.3-0.4,0.4-0.5,0.1c-1.8-4-3-4.7-7.4-4.1c-0.3,0-0.4-0.4-0.1-0.5
				c4-1.8,4.7-3,4.1-7.4c0-0.3,0.4-0.4,0.5-0.1c1.8,4,3,4.7,7.4,4.1C1282.2,222,1282.3,222.4,1282.1,222.5z"/>
		</g>
	</g>
	<g>
		<g>
			<path class="st0" d="M1182.4,177.3c-4,1.8-4.7,3-4.1,7.4c0,0.3-0.4,0.4-0.5,0.1c-1.8-4-3-4.7-7.4-4.1c-0.3,0-0.4-0.4-0.1-0.5
				c4-1.8,4.7-3,4.1-7.4c0-0.3,0.4-0.4,0.5-0.1c1.8,4,3,4.7,7.4,4.1C1182.5,176.7,1182.7,177.2,1182.4,177.3z"/>
		</g>
	</g>
	<g>
		<g>
			<path class="st0" d="M1231.3,182.1c-8,3.6-9.3,6.1-8.2,14.8c0.1,0.6-0.8,0.9-1,0.3c-3.6-8-6.1-9.3-14.8-8.2
				c-0.6,0.1-0.9-0.8-0.3-1c8-3.6,9.3-6.1,8.2-14.8c-0.1-0.6,0.8-0.9,1-0.3c3.6,8,6.1,9.3,14.8,8.2
				C1231.6,181,1231.8,181.9,1231.3,182.1z"/>
		</g>
	</g>
	<g>
		<g>
			<path class="st0" d="M1324.3,250.7c-4,1.8-4.7,3-4.1,7.4c0,0.3-0.4,0.4-0.5,0.1c-1.8-4-3-4.7-7.4-4.1c-0.3,0-0.4-0.4-0.1-0.5
				c4-1.8,4.7-3,4.1-7.4c0-0.3,0.4-0.4,0.5-0.1c1.8,4,3,4.7,7.4,4.1C1324.5,250.2,1324.6,250.6,1324.3,250.7z"/>
		</g>
	</g>
	<g>
		<g>
			<path class="st0" d="M1329.2,226.8c-4,1.8-4.7,3-4.1,7.4c0,0.3-0.4,0.4-0.5,0.1c-1.8-4-3-4.7-7.4-4.1c-0.3,0-0.4-0.4-0.1-0.5
				c4-1.8,4.7-3,4.1-7.4c0-0.3,0.4-0.4,0.5-0.1c1.8,4,3,4.7,7.4,4.1C1329.4,226.3,1329.5,226.7,1329.2,226.8z"/>
		</g>
	</g>
	<circle class="st0" cx="1294" cy="242.2" r="2.5"/>
	<circle class="st0" cx="1198" cy="167.3" r="2.5"/>
	<circle class="st0" cx="1310.1" cy="227" r="1.6"/>
	<circle class="st0" cx="1244" cy="224.9" r="1.6"/>
	<circle class="st0" cx="1340.6" cy="247.1" r="1.2"/>
	<circle class="st0" cx="1264.1" cy="186.9" r="1.2"/>
	<circle class="st0" cx="1343.8" cy="276.8" r="1.2"/>
	<circle class="st0" cx="1193.9" cy="200.6" r="1.2"/>
	<circle class="st0" cx="1231.6" cy="169.3" r="1.2"/>
	<circle class="st0" cx="1125.1" cy="193.4" r="1.2"/>
	<circle class="st0" cx="1167" cy="202" r="1.2"/>
</g>
</svg>
