<?xml version="1.0" encoding="utf-8"?>
<!-- Generator: Adobe Illustrator 19.0.0, SVG Export Plug-In . SVG Version: 6.00 Build 0)  -->
<svg version="1.1" id="Layer_1" xmlns="http://www.w3.org/2000/svg" xmlns:xlink="http://www.w3.org/1999/xlink" x="0px" y="0px"
	 viewBox="0 0 206.1 136" style="enable-background:new 0 0 206.1 136;" xml:space="preserve">
<style type="text/css">
	.st0{fill:#FAC5CB;}
</style>
<g>
	<g>
		<g>
			<path class="st0" d="M117.6,50c-4.2,1.1-5.1,2.2-5.3,6.6c0,0.3-0.4,0.4-0.5,0.1c-1.1-4.2-2.2-5.1-6.6-5.3c-0.3,0-0.4-0.4-0.1-0.5
				c4.2-1.1,5.1-2.2,5.3-6.6c0-0.3,0.4-0.4,0.5-0.1c1.1,4.2,2.2,5.1,6.6,5.3C117.9,49.5,117.9,50,117.6,50z"/>
		</g>
	</g>
	<g>
		<g>
			<path class="st0" d="M177,49.6c-8.1,2.2-9.8,4.3-10.1,12.7c0,0.6-0.9,0.7-1,0.1c-2.2-8.1-4.3-9.8-12.7-10.1c-0.6,0-0.7-0.9-0.1-1
				c8.1-2.2,9.8-4.3,10.1-12.7c0-0.6,0.9-0.7,1-0.1c2.2,8.1,4.3,9.8,12.7,10.1C177.5,48.6,177.6,49.5,177,49.6z"/>
		</g>
	</g>
	<g>
		<g>
			<path class="st0" d="M39.4,19.8c-8.1,2.2-9.8,4.3-10.1,12.7c0,0.6-0.9,0.7-1,0.1c-2.2-8.1-4.3-9.8-12.7-10.1
				c-0.6,0-0.7-0.9-0.1-1c8.1-2.2,9.8-4.3,10.1-12.7c0-0.6,0.9-0.7,1-0.1c2.2,8.1,4.3,9.8,12.7,10.1C39.9,18.8,40,19.6,39.4,19.8z"
				/>
		</g>
	</g>
	<g>
		<g>
			<path class="st0" d="M151.2,70.9c-4.2,1.1-5.1,2.2-5.3,6.6c0,0.3-0.4,0.4-0.5,0.1c-1.1-4.2-2.2-5.1-6.6-5.3
				c-0.3,0-0.4-0.4-0.1-0.5c4.2-1.1,5.1-2.2,5.3-6.6c0-0.3,0.4-0.4,0.5-0.1c1.1,4.2,2.2,5.1,6.6,5.3
				C151.4,70.4,151.5,70.8,151.2,70.9z"/>
		</g>
	</g>
	<g>
		<g>
			<path class="st0" d="M60.4,9.8c-4.2,1.1-5.1,2.2-5.3,6.6c0,0.3-0.4,0.4-0.5,0.1c-1.1-4.2-2.2-5.1-6.6-5.3c-0.3,0-0.4-0.4-0.1-0.5
				C52.1,9.5,53,8.4,53.2,4c0-0.3,0.4-0.4,0.5-0.1c1.1,4.2,2.2,5.1,6.6,5.3C60.6,9.3,60.7,9.7,60.4,9.8z"/>
		</g>
	</g>
	<g>
		<g>
			<path class="st0" d="M107.8,22.7c-8.5,2.3-10.2,4.5-10.5,13.2c0,0.6-0.9,0.7-1.1,0.1c-2.3-8.5-4.5-10.2-13.2-10.5
				c-0.6,0-0.7-0.9-0.1-1.1c8.5-2.3,10.2-4.5,10.5-13.2c0-0.6,0.9-0.7,1.1-0.1c2.3,8.5,4.5,10.2,13.2,10.5
				C108.3,21.6,108.4,22.5,107.8,22.7z"/>
		</g>
	</g>
	<g>
		<g>
			<path class="st0" d="M188.2,105.8c-4.2,1.1-5.1,2.2-5.3,6.6c0,0.3-0.4,0.4-0.5,0.1c-1.1-4.2-2.2-5.1-6.6-5.3
				c-0.3,0-0.4-0.4-0.1-0.5c4.2-1.1,5.1-2.2,5.3-6.6c0-0.3,0.4-0.4,0.5-0.1c1.1,4.2,2.2,5.1,6.6,5.3
				C188.4,105.2,188.5,105.7,188.2,105.8z"/>
		</g>
	</g>
	<g>
		<g>
			<path class="st0" d="M197,83c-4.2,1.1-5.1,2.2-5.3,6.6c0,0.3-0.4,0.4-0.5,0.1c-1.1-4.2-2.2-5.1-6.6-5.3c-0.3,0-0.4-0.4-0.1-0.5
				c4.2-1.1,5.1-2.2,5.3-6.6c0-0.3,0.4-0.4,0.5-0.1c1.1,4.2,2.2,5.1,6.6,5.3C197.2,82.5,197.3,82.9,197,83z"/>
		</g>
	</g>
	<circle class="st0" cx="159.7" cy="92.3" r="2.5"/>
	<circle class="st0" cx="77.5" cy="2.5" r="2.5"/>
	<circle class="st0" cx="178.1" cy="79.9" r="1.6"/>
	<circle class="st0" cx="113.2" cy="66.9" r="1.6"/>
	<circle class="st0" cx="204.9" cy="104.9" r="1.2"/>
	<circle class="st0" cx="139.4" cy="32.9" r="1.2"/>
	<circle class="st0" cx="203" cy="134.7" r="1.2"/>
	<circle class="st0" cx="67.9" cy="34.7" r="1.2"/>
	<circle class="st0" cx="110.3" cy="10.1" r="1.2"/>
	<circle class="st0" cx="1.2" cy="16.1" r="1.2"/>
	<circle class="st0" cx="41.2" cy="31.6" r="1.2"/>
</g>
</svg>
