<?xml version="1.0" encoding="utf-8"?>
<!-- Generator: Adobe Illustrator 19.0.0, SVG Export Plug-In . SVG Version: 6.00 Build 0)  -->
<svg version="1.1" id="Layer_1" xmlns="http://www.w3.org/2000/svg" xmlns:xlink="http://www.w3.org/1999/xlink" x="0px" y="0px"
	 viewBox="0 0 1963 222.2" style="enable-background:new 0 0 1963 222.2;" xml:space="preserve">
<style type="text/css">
	.st0{fill:#FAC5CB;}
</style>
<g>
	<g>
		<g>
			<path class="st0" d="M107.2,43.3c-2.2,3.8-2,5.2,1,8.4c0.2,0.2-0.1,0.6-0.3,0.4c-3.8-2.2-5.2-2-8.4,1c-0.2,0.2-0.6-0.1-0.4-0.3
				c2.2-3.8,2-5.2-1-8.4c-0.2-0.2,0.1-0.6,0.3-0.4c3.8,2.2,5.2,2,8.4-1C107,42.7,107.4,43,107.2,43.3z"/>
		</g>
	</g>
	<g>
		<g>
			<path class="st0" d="M148.7,0.8c-4.2,7.3-3.9,10,1.9,16.1c0.4,0.4-0.1,1.1-0.6,0.8c-7.3-4.2-10-3.9-16.1,1.9
				c-0.4,0.4-1.1-0.1-0.8-0.6c4.2-7.3,3.9-10-1.9-16.1c-0.4-0.4,0.1-1.1,0.6-0.8c7.3,4.2,10,3.9,16.1-1.9
				C148.4-0.3,149,0.3,148.7,0.8z"/>
		</g>
	</g>
	<g>
		<g>
			<path class="st0" d="M30.7,77.6c-4.2,7.3-3.9,10,1.9,16.1c0.4,0.4-0.1,1.1-0.6,0.8c-7.3-4.2-10-3.9-16.1,1.9
				c-0.4,0.4-1.1-0.1-0.8-0.6c4.2-7.3,3.9-10-1.9-16.1c-0.4-0.4,0.1-1.1,0.6-0.8c7.3,4.2,10,3.9,16.1-1.9
				C30.3,76.5,31,77.1,30.7,77.6z"/>
		</g>
	</g>
	<g>
		<g>
			<path class="st0" d="M145.7,34.1c-2.2,3.8-2,5.2,1,8.4c0.2,0.2-0.1,0.6-0.3,0.4c-3.8-2.2-5.2-2-8.4,1c-0.2,0.2-0.6-0.1-0.4-0.3
				c2.2-3.8,2-5.2-1-8.4c-0.2-0.2,0.1-0.6,0.3-0.4c3.8,2.2,5.2,2,8.4-1C145.5,33.6,145.8,33.9,145.7,34.1z"/>
		</g>
	</g>
	<g>
		<g>
			<path class="st0" d="M38.3,55.6c-2.2,3.8-2,5.2,1,8.4c0.2,0.2-0.1,0.6-0.3,0.4c-3.8-2.2-5.2-2-8.4,1c-0.2,0.2-0.6-0.1-0.4-0.3
				c2.2-3.8,2-5.2-1-8.4c-0.2-0.2,0.1-0.6,0.3-0.4c3.8,2.2,5.2,2,8.4-1C38.2,55.1,38.5,55.4,38.3,55.6z"/>
		</g>
	</g>
	<g>
		<g>
			<path class="st0" d="M80.9,31c-4.3,7.6-4,10.4,2,16.8c0.4,0.4-0.1,1.1-0.7,0.8c-7.6-4.3-10.4-4-16.8,2c-0.4,0.4-1.1-0.1-0.8-0.7
				c4.3-7.6,4-10.4-2-16.8c-0.4-0.4,0.1-1.1,0.7-0.8c7.6,4.3,10.4,4,16.8-2C80.5,29.9,81.2,30.5,80.9,31z"/>
		</g>
	</g>
	<g>
		<g>
			<path class="st0" d="M196.5,32.4c-2.2,3.8-2,5.2,1,8.4c0.2,0.2-0.1,0.6-0.3,0.4c-3.8-2.2-5.2-2-8.4,1c-0.2,0.2-0.6-0.1-0.4-0.3
				c2.2-3.8,2-5.2-1-8.4c-0.2-0.2,0.1-0.6,0.3-0.4c3.8,2.2,5.2,2,8.4-1C196.3,31.8,196.6,32.1,196.5,32.4z"/>
		</g>
	</g>
	<g>
		<g>
			<path class="st0" d="M186.5,10.1c-2.2,3.8-2,5.2,1,8.4c0.2,0.2-0.1,0.6-0.3,0.4c-3.8-2.2-5.2-2-8.4,1c-0.2,0.2-0.6-0.1-0.4-0.3
				c2.2-3.8,2-5.2-1-8.4c-0.2-0.2,0.1-0.6,0.3-0.4c3.8,2.2,5.2,2,8.4-1C186.3,9.6,186.7,9.8,186.5,10.1z"/>
		</g>
	</g>
	<circle class="st0" cx="166.9" cy="43.1" r="2.5"/>
	<circle class="st0" cx="45.2" cy="38.4" r="2.5"/>
	<circle class="st0" cx="171" cy="21.4" r="1.6"/>
	<circle class="st0" cx="116.1" cy="58.3" r="1.6"/>
	<circle class="st0" cx="207.6" cy="19.9" r="1.2"/>
	<circle class="st0" cx="110.3" cy="15.7" r="1.2"/>
	<circle class="st0" cx="227.5" cy="42.2" r="1.2"/>
	<circle class="st0" cx="61.3" cy="67.8" r="1.2"/>
	<circle class="st0" cx="73.7" cy="20.4" r="1.2"/>
	<circle class="st0" cx="1.2" cy="102.1" r="1.2"/>
	<circle class="st0" cx="40.3" cy="84.6" r="1.2"/>
</g>
<g>
	<g>
		<g>
			<path class="st0" d="M428.3,42.8c-2.6,3.5-2.7,4.9-0.1,8.5c0.2,0.3-0.1,0.6-0.4,0.4c-3.5-2.6-4.9-2.7-8.5-0.1
				c-0.3,0.2-0.6-0.1-0.4-0.4c2.6-3.5,2.7-4.9,0.1-8.5c-0.2-0.3,0.1-0.6,0.4-0.4c3.5,2.6,4.9,2.7,8.5,0.1
				C428.2,42.2,428.5,42.5,428.3,42.8z"/>
		</g>
	</g>
	<g>
		<g>
			<path class="st0" d="M474.9,6c-5.1,6.7-5.1,9.4-0.2,16.2c0.3,0.5-0.3,1.1-0.7,0.7c-6.7-5.1-9.4-5.1-16.2-0.2
				c-0.5,0.3-1.1-0.3-0.7-0.7c5.1-6.7,5.1-9.4,0.2-16.2c-0.3-0.5,0.3-1.1,0.7-0.7c6.7,5.1,9.4,5.1,16.2,0.2
				C474.7,4.9,475.3,5.5,474.9,6z"/>
		</g>
	</g>
	<g>
		<g>
			<path class="st0" d="M347.9,66.9c-5.1,6.7-5.1,9.4-0.2,16.2c0.3,0.5-0.3,1.1-0.7,0.7c-6.7-5.1-9.4-5.1-16.2-0.2
				c-0.5,0.3-1.1-0.3-0.7-0.7c5.1-6.7,5.1-9.4,0.2-16.2c-0.3-0.5,0.3-1.1,0.7-0.7c6.7,5.1,9.4,5.1,16.2,0.2
				C347.7,65.8,348.3,66.4,347.9,66.9z"/>
		</g>
	</g>
	<g>
		<g>
			<path class="st0" d="M467.6,38.7c-2.6,3.5-2.7,4.9-0.1,8.5c0.2,0.3-0.1,0.6-0.4,0.4c-3.5-2.6-4.9-2.7-8.5-0.1
				c-0.3,0.2-0.6-0.1-0.4-0.4c2.6-3.5,2.7-4.9,0.1-8.5c-0.2-0.3,0.1-0.6,0.4-0.4c3.5,2.6,4.9,2.7,8.5,0.1
				C467.4,38.1,467.8,38.4,467.6,38.7z"/>
		</g>
	</g>
	<g>
		<g>
			<path class="st0" d="M358.4,46.1c-2.6,3.5-2.7,4.9-0.1,8.5c0.2,0.3-0.1,0.6-0.4,0.4c-3.5-2.6-4.9-2.7-8.5-0.1
				c-0.3,0.2-0.6-0.1-0.4-0.4c2.6-3.5,2.7-4.9,0.1-8.5c-0.2-0.3,0.1-0.6,0.4-0.4c3.5,2.6,4.9,2.7,8.5,0.1
				C358.2,45.5,358.6,45.8,358.4,46.1z"/>
		</g>
	</g>
	<g>
		<g>
			<path class="st0" d="M403.7,27.2c-5.3,7-5.3,9.8-0.2,16.9c0.4,0.5-0.3,1.1-0.8,0.7c-7-5.3-9.8-5.3-16.9-0.2
				c-0.5,0.4-1.1-0.3-0.7-0.8c5.3-7,5.3-9.8,0.2-16.9c-0.4-0.5,0.3-1.1,0.8-0.7c7,5.3,9.8,5.3,16.9,0.2
				C403.5,26,404.1,26.7,403.7,27.2z"/>
		</g>
	</g>
	<g>
		<g>
			<path class="st0" d="M518.2,43.5c-2.6,3.5-2.7,4.9-0.1,8.5c0.2,0.3-0.1,0.6-0.4,0.4c-3.5-2.6-4.9-2.7-8.5-0.1
				c-0.3,0.2-0.6-0.1-0.4-0.4c2.6-3.5,2.7-4.9,0.1-8.5c-0.2-0.3,0.1-0.6,0.4-0.4c3.5,2.6,4.9,2.7,8.5,0.1
				C518,42.9,518.4,43.2,518.2,43.5z"/>
		</g>
	</g>
	<g>
		<g>
			<path class="st0" d="M511.2,20.1c-2.6,3.5-2.7,4.9-0.1,8.5c0.2,0.3-0.1,0.6-0.4,0.4c-3.5-2.6-4.9-2.7-8.5-0.1
				c-0.3,0.2-0.6-0.1-0.4-0.4c2.6-3.5,2.7-4.9,0.1-8.5c-0.2-0.3,0.1-0.6,0.4-0.4c3.5,2.6,4.9,2.7,8.5,0.1
				C511.1,19.5,511.4,19.9,511.2,20.1z"/>
		</g>
	</g>
	<circle class="st0" cx="487.5" cy="50.3" r="2.5"/>
	<circle class="st0" cx="367.4" cy="29.8" r="2.5"/>
	<circle class="st0" cx="494.4" cy="29.3" r="1.6"/>
	<circle class="st0" cx="435.2" cy="58.8" r="1.6"/>
	<circle class="st0" cx="530.8" cy="32.5" r="1.2"/>
	<circle class="st0" cx="434.9" cy="15.8" r="1.2"/>
	<circle class="st0" cx="547.7" cy="57.2" r="1.2"/>
	<circle class="st0" cx="379.6" cy="61.2" r="1.2"/>
	<circle class="st0" cx="398" cy="15.7" r="1.2"/>
	<circle class="st0" cx="315.6" cy="87.4" r="1.2"/>
	<circle class="st0" cx="356.6" cy="75.1" r="1.2"/>
</g>
<g>
	<g>
		<g>
			<path class="st0" d="M1026.1,138c-2.6,3.5-2.7,4.9-0.1,8.5c0.2,0.3-0.1,0.6-0.4,0.4c-3.5-2.6-4.9-2.7-8.5-0.1
				c-0.3,0.2-0.6-0.1-0.4-0.4c2.6-3.5,2.7-4.9,0.1-8.5c-0.2-0.3,0.1-0.6,0.4-0.4c3.5,2.6,4.9,2.7,8.5,0.1
				C1026,137.4,1026.3,137.7,1026.1,138z"/>
		</g>
	</g>
	<g>
		<g>
			<path class="st0" d="M1072.8,101.2c-5.1,6.7-5.1,9.4-0.2,16.2c0.3,0.5-0.3,1.1-0.7,0.7c-6.7-5.1-9.4-5.1-16.2-0.2
				c-0.5,0.3-1.1-0.3-0.7-0.7c5.1-6.7,5.1-9.4,0.2-16.2c-0.3-0.5,0.3-1.1,0.7-0.7c6.7,5.1,9.4,5.1,16.2,0.2
				C1072.6,100.1,1073.1,100.7,1072.8,101.2z"/>
		</g>
	</g>
	<g>
		<g>
			<path class="st0" d="M945.8,162.1c-5.1,6.7-5.1,9.4-0.2,16.2c0.3,0.5-0.3,1.1-0.7,0.7c-6.7-5.1-9.4-5.1-16.2-0.2
				c-0.5,0.3-1.1-0.3-0.7-0.7c5.1-6.7,5.1-9.4,0.2-16.2c-0.3-0.5,0.3-1.1,0.7-0.7c6.7,5.1,9.4,5.1,16.2,0.2
				C945.5,161,946.1,161.6,945.8,162.1z"/>
		</g>
	</g>
	<g>
		<g>
			<path class="st0" d="M1065.4,133.9c-2.6,3.5-2.7,4.9-0.1,8.5c0.2,0.3-0.1,0.6-0.4,0.4c-3.5-2.6-4.9-2.7-8.5-0.1
				c-0.3,0.2-0.6-0.1-0.4-0.4c2.6-3.5,2.7-4.9,0.1-8.5c-0.2-0.3,0.1-0.6,0.4-0.4c3.5,2.6,4.9,2.7,8.5,0.1
				C1065.3,133.3,1065.6,133.6,1065.4,133.9z"/>
		</g>
	</g>
	<g>
		<g>
			<path class="st0" d="M956.2,141.3c-2.6,3.5-2.7,4.9-0.1,8.5c0.2,0.3-0.1,0.6-0.4,0.4c-3.5-2.6-4.9-2.7-8.5-0.1
				c-0.3,0.2-0.6-0.1-0.4-0.4c2.6-3.5,2.7-4.9,0.1-8.5c-0.2-0.3,0.1-0.6,0.4-0.4c3.5,2.6,4.9,2.7,8.5,0.1
				C956.1,140.8,956.4,141.1,956.2,141.3z"/>
		</g>
	</g>
	<g>
		<g>
			<path class="st0" d="M1001.6,122.4c-5.3,7-5.3,9.8-0.2,16.9c0.4,0.5-0.3,1.1-0.8,0.7c-7-5.3-9.8-5.3-16.9-0.2
				c-0.5,0.4-1.1-0.3-0.7-0.8c5.3-7,5.3-9.8,0.2-16.9c-0.4-0.5,0.3-1.1,0.8-0.7c7,5.3,9.8,5.3,16.9,0.2
				C1001.3,121.3,1001.9,121.9,1001.6,122.4z"/>
		</g>
	</g>
	<g>
		<g>
			<path class="st0" d="M1116,138.7c-2.6,3.5-2.7,4.9-0.1,8.5c0.2,0.3-0.1,0.6-0.4,0.4c-3.5-2.6-4.9-2.7-8.5-0.1
				c-0.3,0.2-0.6-0.1-0.4-0.4c2.6-3.5,2.7-4.9,0.1-8.5c-0.2-0.3,0.1-0.6,0.4-0.4c3.5,2.6,4.9,2.7,8.5,0.1
				C1115.9,138.1,1116.2,138.5,1116,138.7z"/>
		</g>
	</g>
	<g>
		<g>
			<path class="st0" d="M1109,115.3c-2.6,3.5-2.7,4.9-0.1,8.5c0.2,0.3-0.1,0.6-0.4,0.4c-3.5-2.6-4.9-2.7-8.5-0.1
				c-0.3,0.2-0.6-0.1-0.4-0.4c2.6-3.5,2.7-4.9,0.1-8.5c-0.2-0.3,0.1-0.6,0.4-0.4c3.5,2.6,4.9,2.7,8.5,0.1
				C1108.9,114.8,1109.2,115.1,1109,115.3z"/>
		</g>
	</g>
	<circle class="st0" cx="1085.3" cy="145.5" r="2.5"/>
	<circle class="st0" cx="965.2" cy="125.1" r="2.5"/>
	<circle class="st0" cx="1092.2" cy="124.5" r="1.6"/>
	<circle class="st0" cx="1033" cy="154" r="1.6"/>
	<circle class="st0" cx="1128.7" cy="127.8" r="1.2"/>
	<circle class="st0" cx="1032.8" cy="111.1" r="1.2"/>
	<circle class="st0" cx="1145.5" cy="152.5" r="1.2"/>
	<circle class="st0" cx="977.4" cy="156.4" r="1.2"/>
	<circle class="st0" cx="995.8" cy="110.9" r="1.2"/>
	<circle class="st0" cx="913.4" cy="182.6" r="1.2"/>
	<circle class="st0" cx="954.4" cy="170.3" r="1.2"/>
</g>
<g>
	<g>
		<g>
			<path class="st0" d="M1273.9,126.1c2.9-3.3,3-4.7,0.7-8.4c-0.2-0.3,0.2-0.5,0.4-0.3c3.3,2.9,4.7,3,8.4,0.7
				c0.3-0.2,0.5,0.2,0.3,0.4c-2.9,3.3-3,4.7-0.7,8.4c0.2,0.3-0.2,0.5-0.4,0.3c-3.3-2.9-4.7-3-8.4-0.7
				C1274,126.7,1273.7,126.4,1273.9,126.1z"/>
		</g>
	</g>
	<g>
		<g>
			<path class="st0" d="M1224.9,159.7c5.5-6.4,5.7-9,1.3-16.2c-0.3-0.5,0.3-1,0.8-0.7c6.4,5.5,9,5.7,16.2,1.3c0.5-0.3,1,0.3,0.7,0.8
				c-5.5,6.4-5.7,9-1.3,16.2c0.3,0.5-0.3,1-0.8,0.7c-6.4-5.5-9-5.7-16.2-1.3C1225,160.7,1224.5,160.1,1224.9,159.7z"/>
		</g>
	</g>
	<g>
		<g>
			<path class="st0" d="M1355.7,107.5c5.5-6.4,5.7-9,1.3-16.2c-0.3-0.5,0.3-1,0.8-0.7c6.4,5.5,9,5.7,16.2,1.3c0.5-0.3,1,0.3,0.7,0.8
				c-5.5,6.4-5.7,9-1.3,16.2c0.3,0.5-0.3,1-0.8,0.7c-6.4-5.5-9-5.7-16.2-1.3C1355.9,108.6,1355.3,107.9,1355.7,107.5z"/>
		</g>
	</g>
	<g>
		<g>
			<path class="st0" d="M1234.4,127.6c2.9-3.3,3-4.7,0.7-8.4c-0.2-0.3,0.2-0.5,0.4-0.3c3.3,2.9,4.7,3,8.4,0.7
				c0.3-0.2,0.5,0.2,0.3,0.4c-2.9,3.3-3,4.7-0.7,8.4c0.2,0.3-0.2,0.5-0.4,0.3c-3.3-2.9-4.7-3-8.4-0.7
				C1234.5,128.1,1234.2,127.8,1234.4,127.6z"/>
		</g>
	</g>
	<g>
		<g>
			<path class="st0" d="M1343.9,127.5c2.9-3.3,3-4.7,0.7-8.4c-0.2-0.3,0.2-0.5,0.4-0.3c3.3,2.9,4.7,3,8.4,0.7
				c0.3-0.2,0.5,0.2,0.3,0.4c-2.9,3.3-3,4.7-0.7,8.4c0.2,0.3-0.2,0.5-0.4,0.3c-3.3-2.9-4.7-3-8.4-0.7
				C1344,128.1,1343.7,127.8,1343.9,127.5z"/>
		</g>
	</g>
	<g>
		<g>
			<path class="st0" d="M1297.3,143.4c5.7-6.6,6-9.4,1.4-16.8c-0.3-0.5,0.3-1.1,0.8-0.7c6.6,5.7,9.4,6,16.8,1.4
				c0.5-0.3,1.1,0.3,0.7,0.8c-5.7,6.6-6,9.4-1.4,16.8c0.3,0.5-0.3,1.1-0.8,0.7c-6.6-5.7-9.4-6-16.8-1.4
				C1297.5,144.5,1296.9,143.8,1297.3,143.4z"/>
		</g>
	</g>
	<g>
		<g>
			<path class="st0" d="M1184.3,119.3c2.9-3.3,3-4.7,0.7-8.4c-0.2-0.3,0.2-0.5,0.4-0.3c3.3,2.9,4.7,3,8.4,0.7
				c0.3-0.2,0.5,0.2,0.3,0.4c-2.9,3.3-3,4.7-0.7,8.4c0.2,0.3-0.2,0.5-0.4,0.3c-3.3-2.9-4.7-3-8.4-0.7
				C1184.4,119.9,1184.1,119.6,1184.3,119.3z"/>
		</g>
	</g>
	<g>
		<g>
			<path class="st0" d="M1189.7,143.1c2.9-3.3,3-4.7,0.7-8.4c-0.2-0.3,0.2-0.5,0.4-0.3c3.3,2.9,4.7,3,8.4,0.7
				c0.3-0.2,0.5,0.2,0.3,0.4c-2.9,3.3-3,4.7-0.7,8.4c0.2,0.3-0.2,0.5-0.4,0.3c-3.3-2.9-4.7-3-8.4-0.7
				C1189.7,143.7,1189.5,143.4,1189.7,143.1z"/>
		</g>
	</g>
	<circle class="st0" cx="1215.4" cy="114.6" r="2.5"/>
	<circle class="st0" cx="1333.8" cy="143.1" r="2.5"/>
	<circle class="st0" cx="1207.1" cy="135.1" r="1.6"/>
	<circle class="st0" cx="1268.1" cy="109.7" r="1.6"/>
	<circle class="st0" cx="1170.9" cy="129.4" r="1.2"/>
	<circle class="st0" cx="1265.5" cy="152.5" r="1.2"/>
	<circle class="st0" cx="1155.8" cy="103.6" r="1.2"/>
	<circle class="st0" cx="1323.8" cy="111.1" r="1.2"/>
	<circle class="st0" cx="1302.3" cy="155.2" r="1.2"/>
	<circle class="st0" cx="1389.4" cy="89.2" r="1.2"/>
	<circle class="st0" cx="1347.6" cy="98.7" r="1.2"/>
</g>
<g>
	<g>
		<g>
			<path class="st0" d="M673.4,46.3c-2.6,3.5-2.7,4.9-0.1,8.5c0.2,0.3-0.1,0.6-0.4,0.4c-3.5-2.6-4.9-2.7-8.5-0.1
				c-0.3,0.2-0.6-0.1-0.4-0.4c2.6-3.5,2.7-4.9,0.1-8.5c-0.2-0.3,0.1-0.6,0.4-0.4c3.5,2.6,4.9,2.7,8.5,0.1
				C673.3,45.7,673.6,46,673.4,46.3z"/>
		</g>
	</g>
	<g>
		<g>
			<path class="st0" d="M720.1,9.5c-5.1,6.7-5.1,9.4-0.2,16.2c0.3,0.5-0.3,1.1-0.7,0.7c-6.7-5.1-9.4-5.1-16.2-0.2
				c-0.5,0.3-1.1-0.3-0.7-0.7c5.1-6.7,5.1-9.4,0.2-16.2c-0.3-0.5,0.3-1.1,0.7-0.7c6.7,5.1,9.4,5.1,16.2,0.2
				C719.8,8.4,720.4,9,720.1,9.5z"/>
		</g>
	</g>
	<g>
		<g>
			<path class="st0" d="M593.1,70.4c-5.1,6.7-5.1,9.4-0.2,16.2c0.3,0.5-0.3,1.1-0.7,0.7c-6.7-5.1-9.4-5.1-16.2-0.2
				c-0.5,0.3-1.1-0.3-0.7-0.7c5.1-6.7,5.1-9.4,0.2-16.2c-0.3-0.5,0.3-1.1,0.7-0.7c6.7,5.1,9.4,5.1,16.2,0.2
				C592.8,69.3,593.4,69.9,593.1,70.4z"/>
		</g>
	</g>
	<g>
		<g>
			<path class="st0" d="M712.7,42.2c-2.6,3.5-2.7,4.9-0.1,8.5c0.2,0.3-0.1,0.6-0.4,0.4c-3.5-2.6-4.9-2.7-8.5-0.1
				c-0.3,0.2-0.6-0.1-0.4-0.4c2.6-3.5,2.7-4.9,0.1-8.5c-0.2-0.3,0.1-0.6,0.4-0.4c3.5,2.6,4.9,2.7,8.5,0.1
				C712.6,41.6,712.9,41.9,712.7,42.2z"/>
		</g>
	</g>
	<g>
		<g>
			<path class="st0" d="M603.5,49.6c-2.6,3.5-2.7,4.9-0.1,8.5c0.2,0.3-0.1,0.6-0.4,0.4c-3.5-2.6-4.9-2.7-8.5-0.1
				c-0.3,0.2-0.6-0.1-0.4-0.4c2.6-3.5,2.7-4.9,0.1-8.5c-0.2-0.3,0.1-0.6,0.4-0.4c3.5,2.6,4.9,2.7,8.5,0.1
				C603.4,49.1,603.7,49.4,603.5,49.6z"/>
		</g>
	</g>
	<g>
		<g>
			<path class="st0" d="M648.9,30.7c-5.3,7-5.3,9.8-0.2,16.9c0.4,0.5-0.3,1.1-0.8,0.7c-7-5.3-9.8-5.3-16.9-0.2
				c-0.5,0.4-1.1-0.3-0.7-0.8c5.3-7,5.3-9.8,0.2-16.9c-0.4-0.5,0.3-1.1,0.8-0.7c7,5.3,9.8,5.3,16.9,0.2
				C648.6,29.6,649.2,30.2,648.9,30.7z"/>
		</g>
	</g>
	<g>
		<g>
			<path class="st0" d="M763.3,47c-2.6,3.5-2.7,4.9-0.1,8.5c0.2,0.3-0.1,0.6-0.4,0.4c-3.5-2.6-4.9-2.7-8.5-0.1
				c-0.3,0.2-0.6-0.1-0.4-0.4c2.6-3.5,2.7-4.9,0.1-8.5c-0.2-0.3,0.1-0.6,0.4-0.4c3.5,2.6,4.9,2.7,8.5,0.1
				C763.2,46.4,763.5,46.8,763.3,47z"/>
		</g>
	</g>
	<g>
		<g>
			<path class="st0" d="M756.3,23.6c-2.6,3.5-2.7,4.9-0.1,8.5c0.2,0.3-0.1,0.6-0.4,0.4c-3.5-2.6-4.9-2.7-8.5-0.1
				c-0.3,0.2-0.6-0.1-0.4-0.4c2.6-3.5,2.7-4.9,0.1-8.5c-0.2-0.3,0.1-0.6,0.4-0.4c3.5,2.6,4.9,2.7,8.5,0.1
				C756.2,23.1,756.5,23.4,756.3,23.6z"/>
		</g>
	</g>
	<circle class="st0" cx="732.6" cy="53.8" r="2.5"/>
	<circle class="st0" cx="612.5" cy="33.4" r="2.5"/>
	<circle class="st0" cx="739.5" cy="32.8" r="1.6"/>
	<circle class="st0" cx="680.3" cy="62.3" r="1.6"/>
	<circle class="st0" cx="775.9" cy="36.1" r="1.2"/>
	<circle class="st0" cx="680" cy="19.4" r="1.2"/>
	<circle class="st0" cx="792.8" cy="60.8" r="1.2"/>
	<circle class="st0" cx="624.7" cy="64.7" r="1.2"/>
	<circle class="st0" cx="643.1" cy="19.2" r="1.2"/>
	<circle class="st0" cx="560.7" cy="90.9" r="1.2"/>
	<circle class="st0" cx="601.7" cy="78.6" r="1.2"/>
</g>
<g>
	<g>
		<g>
			<path class="st0" d="M895.6,71c-2.6,3.5-2.7,4.9-0.1,8.5c0.2,0.3-0.1,0.6-0.4,0.4c-3.5-2.6-4.9-2.7-8.5-0.1
				c-0.3,0.2-0.6-0.1-0.4-0.4c2.6-3.5,2.7-4.9,0.1-8.5c-0.2-0.3,0.1-0.6,0.4-0.4c3.5,2.6,4.9,2.7,8.5,0.1
				C895.5,70.4,895.8,70.7,895.6,71z"/>
		</g>
	</g>
	<g>
		<g>
			<path class="st0" d="M942.3,34.2c-5.1,6.7-5.1,9.4-0.2,16.2c0.3,0.5-0.3,1.1-0.7,0.7c-6.7-5.1-9.4-5.1-16.2-0.2
				c-0.5,0.3-1.1-0.3-0.7-0.7c5.1-6.7,5.1-9.4,0.2-16.2c-0.3-0.5,0.3-1.1,0.7-0.7c6.7,5.1,9.4,5.1,16.2,0.2
				C942.1,33.1,942.6,33.7,942.3,34.2z"/>
		</g>
	</g>
	<g>
		<g>
			<path class="st0" d="M815.3,95.1c-5.1,6.7-5.1,9.4-0.2,16.2c0.3,0.5-0.3,1.1-0.7,0.7c-6.7-5.1-9.4-5.1-16.2-0.2
				c-0.5,0.3-1.1-0.3-0.7-0.7c5.1-6.7,5.1-9.4,0.2-16.2c-0.3-0.5,0.3-1.1,0.7-0.7c6.7,5.1,9.4,5.1,16.2,0.2
				C815,94,815.6,94.6,815.3,95.1z"/>
		</g>
	</g>
	<g>
		<g>
			<path class="st0" d="M934.9,66.9c-2.6,3.5-2.7,4.9-0.1,8.5c0.2,0.3-0.1,0.6-0.4,0.4c-3.5-2.6-4.9-2.7-8.5-0.1
				c-0.3,0.2-0.6-0.1-0.4-0.4c2.6-3.5,2.7-4.9,0.1-8.5c-0.2-0.3,0.1-0.6,0.4-0.4c3.5,2.6,4.9,2.7,8.5,0.1
				C934.8,66.3,935.1,66.6,934.9,66.9z"/>
		</g>
	</g>
	<g>
		<g>
			<path class="st0" d="M825.7,74.3c-2.6,3.5-2.7,4.9-0.1,8.5c0.2,0.3-0.1,0.6-0.4,0.4c-3.5-2.6-4.9-2.7-8.5-0.1
				c-0.3,0.2-0.6-0.1-0.4-0.4c2.6-3.5,2.7-4.9,0.1-8.5c-0.2-0.3,0.1-0.6,0.4-0.4c3.5,2.6,4.9,2.7,8.5,0.1
				C825.6,73.7,825.9,74.1,825.7,74.3z"/>
		</g>
	</g>
	<g>
		<g>
			<path class="st0" d="M871.1,55.4c-5.3,7-5.3,9.8-0.2,16.9c0.4,0.5-0.3,1.1-0.8,0.7c-7-5.3-9.8-5.3-16.9-0.2
				c-0.5,0.4-1.1-0.3-0.7-0.8c5.3-7,5.3-9.8,0.2-16.9c-0.4-0.5,0.3-1.1,0.8-0.7c7,5.3,9.8,5.3,16.9,0.2
				C870.8,54.3,871.4,54.9,871.1,55.4z"/>
		</g>
	</g>
	<g>
		<g>
			<path class="st0" d="M985.5,71.7c-2.6,3.5-2.7,4.9-0.1,8.5c0.2,0.3-0.1,0.6-0.4,0.4c-3.5-2.6-4.9-2.7-8.5-0.1
				c-0.3,0.2-0.6-0.1-0.4-0.4c2.6-3.5,2.7-4.9,0.1-8.5c-0.2-0.3,0.1-0.6,0.4-0.4c3.5,2.6,4.9,2.7,8.5,0.1
				C985.4,71.1,985.7,71.4,985.5,71.7z"/>
		</g>
	</g>
	<g>
		<g>
			<path class="st0" d="M978.5,48.3c-2.6,3.5-2.7,4.9-0.1,8.5c0.2,0.3-0.1,0.6-0.4,0.4c-3.5-2.6-4.9-2.7-8.5-0.1
				c-0.3,0.2-0.6-0.1-0.4-0.4c2.6-3.5,2.7-4.9,0.1-8.5c-0.2-0.3,0.1-0.6,0.4-0.4c3.5,2.6,4.9,2.7,8.5,0.1
				C978.4,47.8,978.7,48.1,978.5,48.3z"/>
		</g>
	</g>
	<circle class="st0" cx="954.8" cy="78.5" r="2.5"/>
	<circle class="st0" cx="834.7" cy="58.1" r="2.5"/>
	<circle class="st0" cx="961.7" cy="57.5" r="1.6"/>
	<circle class="st0" cx="902.5" cy="87" r="1.6"/>
	<circle class="st0" cx="998.1" cy="60.8" r="1.2"/>
	<circle class="st0" cx="902.3" cy="44.1" r="1.2"/>
	<circle class="st0" cx="1015" cy="85.5" r="1.2"/>
	<circle class="st0" cx="846.9" cy="89.4" r="1.2"/>
	<circle class="st0" cx="865.3" cy="43.9" r="1.2"/>
	<circle class="st0" cx="782.9" cy="115.6" r="1.2"/>
	<circle class="st0" cx="823.9" cy="103.3" r="1.2"/>
</g>
<g>
	<g>
		<g>
			<path class="st0" d="M1152.6,47.6c-3.7,2.4-4.2,3.7-3,7.9c0.1,0.3-0.3,0.5-0.5,0.2c-2.4-3.7-3.7-4.2-7.9-3
				c-0.3,0.1-0.5-0.3-0.2-0.5c3.7-2.4,4.2-3.7,3-7.9c-0.1-0.3,0.3-0.5,0.5-0.2c2.4,3.7,3.7,4.2,7.9,3
				C1152.7,47,1152.9,47.4,1152.6,47.6z"/>
		</g>
	</g>
	<g>
		<g>
			<path class="st0" d="M1209,28.9c-7.1,4.6-8,7.1-5.7,15.2c0.2,0.6-0.6,0.9-0.9,0.4c-4.6-7.1-7.1-8-15.2-5.7
				c-0.6,0.2-0.9-0.6-0.4-0.9c7.1-4.6,8-7.1,5.7-15.2c-0.2-0.6,0.6-0.9,0.9-0.4c4.6,7.1,7.1,8,15.2,5.7
				C1209.2,27.8,1209.5,28.6,1209,28.9z"/>
		</g>
	</g>
	<g>
		<g>
			<path class="st0" d="M1068.9,42.9c-7.1,4.6-8,7.1-5.7,15.2c0.2,0.6-0.6,0.9-0.9,0.4c-4.6-7.1-7.1-8-15.2-5.7
				c-0.6,0.2-0.9-0.6-0.4-0.9c7.1-4.6,8-7.1,5.7-15.2c-0.2-0.6,0.6-0.9,0.9-0.4c4.6,7.1,7.1,8,15.2,5.7
				C1069,41.8,1069.4,42.6,1068.9,42.9z"/>
		</g>
	</g>
	<g>
		<g>
			<path class="st0" d="M1190.9,57.1c-3.7,2.4-4.2,3.7-3,7.9c0.1,0.3-0.3,0.5-0.5,0.2c-2.4-3.7-3.7-4.2-7.9-3
				c-0.3,0.1-0.5-0.3-0.2-0.5c3.7-2.4,4.2-3.7,3-7.9c-0.1-0.3,0.3-0.5,0.5-0.2c2.4,3.7,3.7,4.2,7.9,3
				C1191,56.5,1191.2,56.9,1190.9,57.1z"/>
		</g>
	</g>
	<g>
		<g>
			<path class="st0" d="M1085.7,26.9c-3.7,2.4-4.2,3.7-3,7.9c0.1,0.3-0.3,0.5-0.5,0.2c-2.4-3.7-3.7-4.2-7.9-3
				c-0.3,0.1-0.5-0.3-0.2-0.5c3.7-2.4,4.2-3.7,3-7.9c-0.1-0.3,0.3-0.5,0.5-0.2c2.4,3.7,3.7,4.2,7.9,3
				C1085.8,26.3,1086,26.7,1085.7,26.9z"/>
		</g>
	</g>
	<g>
		<g>
			<path class="st0" d="M1134.8,24.6c-7.3,4.8-8.3,7.4-6,15.8c0.2,0.6-0.6,1-1,0.4c-4.8-7.3-7.4-8.3-15.8-6c-0.6,0.2-1-0.6-0.4-1
				c7.3-4.8,8.3-7.4,6-15.8c-0.2-0.6,0.6-1,1-0.4c4.8,7.3,7.4,8.3,15.8,6C1135,23.4,1135.4,24.2,1134.8,24.6z"/>
		</g>
	</g>
	<g>
		<g>
			<path class="st0" d="M1236.9,78.9c-3.7,2.4-4.2,3.7-3,7.9c0.1,0.3-0.3,0.5-0.5,0.2c-2.4-3.7-3.7-4.2-7.9-3
				c-0.3,0.1-0.5-0.3-0.2-0.5c3.7-2.4,4.2-3.7,3-7.9c-0.1-0.3,0.3-0.5,0.5-0.2c2.4,3.7,3.7,4.2,7.9,3
				C1237,78.3,1237.1,78.7,1236.9,78.9z"/>
		</g>
	</g>
	<g>
		<g>
			<path class="st0" d="M1238.3,54.5c-3.7,2.4-4.2,3.7-3,7.9c0.1,0.3-0.3,0.5-0.5,0.2c-2.4-3.7-3.7-4.2-7.9-3
				c-0.3,0.1-0.5-0.3-0.2-0.5c3.7-2.4,4.2-3.7,3-7.9c-0.1-0.3,0.3-0.5,0.5-0.2c2.4,3.7,3.7,4.2,7.9,3
				C1238.3,54,1238.5,54.4,1238.3,54.5z"/>
		</g>
	</g>
	<circle class="st0" cx="1205.7" cy="74.8" r="2.5"/>
	<circle class="st0" cx="1099.8" cy="14.7" r="2.5"/>
	<circle class="st0" cx="1219.3" cy="57.4" r="1.6"/>
	<circle class="st0" cx="1153.6" cy="65" r="1.6"/>
	<circle class="st0" cx="1252.5" cy="72.9" r="1.2"/>
	<circle class="st0" cx="1168" cy="24.5" r="1.2"/>
	<circle class="st0" cx="1259.9" cy="101.9" r="1.2"/>
	<circle class="st0" cx="1100.5" cy="48.3" r="1.2"/>
	<circle class="st0" cx="1133.3" cy="11.8" r="1.2"/>
	<circle class="st0" cx="1031.4" cy="51.1" r="1.2"/>
	<circle class="st0" cx="1074.2" cy="53.6" r="1.2"/>
</g>
<g>
	<g>
		<g>
			<path class="st0" d="M1411.8,49.4c-3.7,2.4-4.2,3.7-3,7.9c0.1,0.3-0.3,0.5-0.5,0.2c-2.4-3.7-3.7-4.2-7.9-3
				c-0.3,0.1-0.5-0.3-0.2-0.5c3.7-2.4,4.2-3.7,3-7.9c-0.1-0.3,0.3-0.5,0.5-0.2c2.4,3.7,3.7,4.2,7.9,3
				C1411.9,48.8,1412.1,49.2,1411.8,49.4z"/>
		</g>
	</g>
	<g>
		<g>
			<path class="st0" d="M1468.2,30.7c-7.1,4.6-8,7.1-5.7,15.2c0.2,0.6-0.6,0.9-0.9,0.4c-4.6-7.1-7.1-8-15.2-5.7
				c-0.6,0.2-0.9-0.6-0.4-0.9c7.1-4.6,8-7.1,5.7-15.2c-0.2-0.6,0.6-0.9,0.9-0.4c4.6,7.1,7.1,8,15.2,5.7
				C1468.4,29.6,1468.7,30.4,1468.2,30.7z"/>
		</g>
	</g>
	<g>
		<g>
			<path class="st0" d="M1328.1,44.6c-7.1,4.6-8,7.1-5.7,15.2c0.2,0.6-0.6,0.9-0.9,0.4c-4.6-7.1-7.1-8-15.2-5.7
				c-0.6,0.2-0.9-0.6-0.4-0.9c7.1-4.6,8-7.1,5.7-15.2c-0.2-0.6,0.6-0.9,0.9-0.4c4.6,7.1,7.1,8,15.2,5.7
				C1328.2,43.6,1328.6,44.3,1328.1,44.6z"/>
		</g>
	</g>
	<g>
		<g>
			<path class="st0" d="M1450.2,58.9c-3.7,2.4-4.2,3.7-3,7.9c0.1,0.3-0.3,0.5-0.5,0.2c-2.4-3.7-3.7-4.2-7.9-3
				c-0.3,0.1-0.5-0.3-0.2-0.5c3.7-2.4,4.2-3.7,3-7.9c-0.1-0.3,0.3-0.5,0.5-0.2c2.4,3.7,3.7,4.2,7.9,3
				C1450.3,58.3,1450.4,58.7,1450.2,58.9z"/>
		</g>
	</g>
	<g>
		<g>
			<path class="st0" d="M1345,28.7c-3.7,2.4-4.2,3.7-3,7.9c0.1,0.3-0.3,0.5-0.5,0.2c-2.4-3.7-3.7-4.2-7.9-3
				c-0.3,0.1-0.5-0.3-0.2-0.5c3.7-2.4,4.2-3.7,3-7.9c-0.1-0.3,0.3-0.5,0.5-0.2c2.4,3.7,3.7,4.2,7.9,3
				C1345.1,28.1,1345.2,28.5,1345,28.7z"/>
		</g>
	</g>
	<g>
		<g>
			<path class="st0" d="M1394.1,26.3c-7.3,4.8-8.3,7.4-6,15.8c0.2,0.6-0.6,1-1,0.4c-4.8-7.3-7.4-8.3-15.8-6c-0.6,0.2-1-0.6-0.4-1
				c7.3-4.8,8.3-7.4,6-15.8c-0.2-0.6,0.6-1,1-0.4c4.8,7.3,7.4,8.3,15.8,6C1394.2,25.2,1394.6,26,1394.1,26.3z"/>
		</g>
	</g>
	<g>
		<g>
			<path class="st0" d="M1496.1,80.6c-3.7,2.4-4.2,3.7-3,7.9c0.1,0.3-0.3,0.5-0.5,0.2c-2.4-3.7-3.7-4.2-7.9-3
				c-0.3,0.1-0.5-0.3-0.2-0.5c3.7-2.4,4.2-3.7,3-7.9c-0.1-0.3,0.3-0.5,0.5-0.2c2.4,3.7,3.7,4.2,7.9,3
				C1496.2,80.1,1496.4,80.5,1496.1,80.6z"/>
		</g>
	</g>
	<g>
		<g>
			<path class="st0" d="M1497.5,56.3c-3.7,2.4-4.2,3.7-3,7.9c0.1,0.3-0.3,0.5-0.5,0.2c-2.4-3.7-3.7-4.2-7.9-3
				c-0.3,0.1-0.5-0.3-0.2-0.5c3.7-2.4,4.2-3.7,3-7.9c-0.1-0.3,0.3-0.5,0.5-0.2c2.4,3.7,3.7,4.2,7.9,3
				C1497.6,55.7,1497.8,56.1,1497.5,56.3z"/>
		</g>
	</g>
	<circle class="st0" cx="1464.9" cy="76.6" r="2.5"/>
	<circle class="st0" cx="1359" cy="16.5" r="2.5"/>
	<circle class="st0" cx="1478.6" cy="59.2" r="1.6"/>
	<circle class="st0" cx="1412.9" cy="66.8" r="1.6"/>
	<circle class="st0" cx="1511.7" cy="74.7" r="1.2"/>
	<circle class="st0" cx="1427.3" cy="26.3" r="1.2"/>
	<circle class="st0" cx="1519.2" cy="103.6" r="1.2"/>
	<circle class="st0" cx="1359.8" cy="50.1" r="1.2"/>
	<circle class="st0" cx="1392.6" cy="13.6" r="1.2"/>
	<circle class="st0" cx="1290.7" cy="52.9" r="1.2"/>
	<circle class="st0" cx="1333.4" cy="55.3" r="1.2"/>
</g>
<g>
	<g>
		<g>
			<path class="st0" d="M1653.4,54.6c-3.7,2.4-4.2,3.7-3,7.9c0.1,0.3-0.3,0.5-0.5,0.2c-2.4-3.7-3.7-4.2-7.9-3
				c-0.3,0.1-0.5-0.3-0.2-0.5c3.7-2.4,4.2-3.7,3-7.9c-0.1-0.3,0.3-0.5,0.5-0.2c2.4,3.7,3.7,4.2,7.9,3
				C1653.5,54.1,1653.7,54.5,1653.4,54.6z"/>
		</g>
	</g>
	<g>
		<g>
			<path class="st0" d="M1709.9,36c-7.1,4.6-8,7.1-5.7,15.2c0.2,0.6-0.6,0.9-0.9,0.4c-4.6-7.1-7.1-8-15.2-5.7
				c-0.6,0.2-0.9-0.6-0.4-0.9c7.1-4.6,8-7.1,5.7-15.2c-0.2-0.6,0.6-0.9,0.9-0.4c4.6,7.1,7.1,8,15.2,5.7
				C1710,34.9,1710.4,35.6,1709.9,36z"/>
		</g>
	</g>
	<g>
		<g>
			<path class="st0" d="M1569.7,49.9c-7.1,4.6-8,7.1-5.7,15.2c0.2,0.6-0.6,0.9-0.9,0.4c-4.6-7.1-7.1-8-15.2-5.7
				c-0.6,0.2-0.9-0.6-0.4-0.9c7.1-4.6,8-7.1,5.7-15.2c-0.2-0.6,0.6-0.9,0.9-0.4c4.6,7.1,7.1,8,15.2,5.7
				C1569.9,48.9,1570.2,49.6,1569.7,49.9z"/>
		</g>
	</g>
	<g>
		<g>
			<path class="st0" d="M1691.8,64.2c-3.7,2.4-4.2,3.7-3,7.9c0.1,0.3-0.3,0.5-0.5,0.2c-2.4-3.7-3.7-4.2-7.9-3
				c-0.3,0.1-0.5-0.3-0.2-0.5c3.7-2.4,4.2-3.7,3-7.9c-0.1-0.3,0.3-0.5,0.5-0.2c2.4,3.7,3.7,4.2,7.9,3
				C1691.9,63.6,1692.1,64,1691.8,64.2z"/>
		</g>
	</g>
	<g>
		<g>
			<path class="st0" d="M1586.6,34c-3.7,2.4-4.2,3.7-3,7.9c0.1,0.3-0.3,0.5-0.5,0.2c-2.4-3.7-3.7-4.2-7.9-3
				c-0.3,0.1-0.5-0.3-0.2-0.5c3.7-2.4,4.2-3.7,3-7.9c-0.1-0.3,0.3-0.5,0.5-0.2c2.4,3.7,3.7,4.2,7.9,3
				C1586.7,33.4,1586.9,33.8,1586.6,34z"/>
		</g>
	</g>
	<g>
		<g>
			<path class="st0" d="M1635.7,31.6c-7.3,4.8-8.3,7.4-6,15.8c0.2,0.6-0.6,1-1,0.4c-4.8-7.3-7.4-8.3-15.8-6c-0.6,0.2-1-0.6-0.4-1
				c7.3-4.8,8.3-7.4,6-15.8c-0.2-0.6,0.6-1,1-0.4c4.8,7.3,7.4,8.3,15.8,6C1635.8,30.5,1636.2,31.3,1635.7,31.6z"/>
		</g>
	</g>
	<g>
		<g>
			<path class="st0" d="M1737.7,85.9c-3.7,2.4-4.2,3.7-3,7.9c0.1,0.3-0.3,0.5-0.5,0.2c-2.4-3.7-3.7-4.2-7.9-3
				c-0.3,0.1-0.5-0.3-0.2-0.5c3.7-2.4,4.2-3.7,3-7.9c-0.1-0.3,0.3-0.5,0.5-0.2c2.4,3.7,3.7,4.2,7.9,3
				C1737.8,85.4,1738,85.8,1737.7,85.9z"/>
		</g>
	</g>
	<g>
		<g>
			<path class="st0" d="M1739.1,61.6c-3.7,2.4-4.2,3.7-3,7.9c0.1,0.3-0.3,0.5-0.5,0.2c-2.4-3.7-3.7-4.2-7.9-3
				c-0.3,0.1-0.5-0.3-0.2-0.5c3.7-2.4,4.2-3.7,3-7.9c-0.1-0.3,0.3-0.5,0.5-0.2c2.4,3.7,3.7,4.2,7.9,3
				C1739.2,61,1739.4,61.4,1739.1,61.6z"/>
		</g>
	</g>
	<circle class="st0" cx="1706.5" cy="81.9" r="2.5"/>
	<circle class="st0" cx="1600.6" cy="21.8" r="2.5"/>
	<circle class="st0" cx="1720.2" cy="64.5" r="1.6"/>
	<circle class="st0" cx="1654.5" cy="72.1" r="1.6"/>
	<circle class="st0" cx="1753.3" cy="80" r="1.2"/>
	<circle class="st0" cx="1668.9" cy="31.6" r="1.2"/>
	<circle class="st0" cx="1760.8" cy="108.9" r="1.2"/>
	<circle class="st0" cx="1601.4" cy="55.4" r="1.2"/>
	<circle class="st0" cx="1634.2" cy="18.9" r="1.2"/>
	<circle class="st0" cx="1532.3" cy="58.2" r="1.2"/>
	<circle class="st0" cx="1575" cy="60.6" r="1.2"/>
</g>
<g>
	<g>
		<g>
			<path class="st0" d="M1854.5,37c-3.7,2.4-4.2,3.7-3,7.9c0.1,0.3-0.3,0.5-0.5,0.2c-2.4-3.7-3.7-4.2-7.9-3
				c-0.3,0.1-0.5-0.3-0.2-0.5c3.7-2.4,4.2-3.7,3-7.9c-0.1-0.3,0.3-0.5,0.5-0.2c2.4,3.7,3.7,4.2,7.9,3
				C1854.6,36.4,1854.8,36.8,1854.5,37z"/>
		</g>
	</g>
	<g>
		<g>
			<path class="st0" d="M1910.9,18.3c-7.1,4.6-8,7.1-5.7,15.2c0.2,0.6-0.6,0.9-0.9,0.4c-4.6-7.1-7.1-8-15.2-5.7
				c-0.6,0.2-0.9-0.6-0.4-0.9c7.1-4.6,8-7.1,5.7-15.2c-0.2-0.6,0.6-0.9,0.9-0.4c4.6,7.1,7.1,8,15.2,5.7
				C1911,17.2,1911.4,18,1910.9,18.3z"/>
		</g>
	</g>
	<g>
		<g>
			<path class="st0" d="M1770.7,32.3c-7.1,4.6-8,7.1-5.7,15.2c0.2,0.6-0.6,0.9-0.9,0.4c-4.6-7.1-7.1-8-15.2-5.7
				c-0.6,0.2-0.9-0.6-0.4-0.9c7.1-4.6,8-7.1,5.7-15.2c-0.2-0.6,0.6-0.9,0.9-0.4c4.6,7.1,7.1,8,15.2,5.7
				C1770.9,31.2,1771.2,32,1770.7,32.3z"/>
		</g>
	</g>
	<g>
		<g>
			<path class="st0" d="M1892.8,46.5c-3.7,2.4-4.2,3.7-3,7.9c0.1,0.3-0.3,0.5-0.5,0.2c-2.4-3.7-3.7-4.2-7.9-3
				c-0.3,0.1-0.5-0.3-0.2-0.5c3.7-2.4,4.2-3.7,3-7.9c-0.1-0.3,0.3-0.5,0.5-0.2c2.4,3.7,3.7,4.2,7.9,3
				C1892.9,46,1893.1,46.4,1892.8,46.5z"/>
		</g>
	</g>
	<g>
		<g>
			<path class="st0" d="M1787.6,16.3c-3.7,2.4-4.2,3.7-3,7.9c0.1,0.3-0.3,0.5-0.5,0.2c-2.4-3.7-3.7-4.2-7.9-3
				c-0.3,0.1-0.5-0.3-0.2-0.5c3.7-2.4,4.2-3.7,3-7.9c-0.1-0.3,0.3-0.5,0.5-0.2c2.4,3.7,3.7,4.2,7.9,3
				C1787.7,15.8,1787.9,16.2,1787.6,16.3z"/>
		</g>
	</g>
	<g>
		<g>
			<path class="st0" d="M1836.7,14c-7.3,4.8-8.3,7.4-6,15.8c0.2,0.6-0.6,1-1,0.4c-4.8-7.3-7.4-8.3-15.8-6c-0.6,0.2-1-0.6-0.4-1
				c7.3-4.8,8.3-7.4,6-15.8c-0.2-0.6,0.6-1,1-0.4c4.8,7.3,7.4,8.3,15.8,6C1836.9,12.8,1837.2,13.6,1836.7,14z"/>
		</g>
	</g>
	<g>
		<g>
			<path class="st0" d="M1938.8,68.3c-3.7,2.4-4.2,3.7-3,7.9c0.1,0.3-0.3,0.5-0.5,0.2c-2.4-3.7-3.7-4.2-7.9-3
				c-0.3,0.1-0.5-0.3-0.2-0.5c3.7-2.4,4.2-3.7,3-7.9c-0.1-0.3,0.3-0.5,0.5-0.2c2.4,3.7,3.7,4.2,7.9,3
				C1938.9,67.7,1939,68.1,1938.8,68.3z"/>
		</g>
	</g>
	<g>
		<g>
			<path class="st0" d="M1940.2,44c-3.7,2.4-4.2,3.7-3,7.9c0.1,0.3-0.3,0.5-0.5,0.2c-2.4-3.7-3.7-4.2-7.9-3
				c-0.3,0.1-0.5-0.3-0.2-0.5c3.7-2.4,4.2-3.7,3-7.9c-0.1-0.3,0.3-0.5,0.5-0.2c2.4,3.7,3.7,4.2,7.9,3
				C1940.2,43.4,1940.4,43.8,1940.2,44z"/>
		</g>
	</g>
	<circle class="st0" cx="1907.6" cy="64.3" r="2.5"/>
	<circle class="st0" cx="1801.7" cy="4.1" r="2.5"/>
	<circle class="st0" cx="1921.2" cy="46.9" r="1.6"/>
	<circle class="st0" cx="1855.5" cy="54.4" r="1.6"/>
	<circle class="st0" cx="1954.4" cy="62.3" r="1.2"/>
	<circle class="st0" cx="1869.9" cy="14" r="1.2"/>
	<circle class="st0" cx="1961.8" cy="91.3" r="1.2"/>
	<circle class="st0" cx="1802.4" cy="37.7" r="1.2"/>
	<circle class="st0" cx="1835.2" cy="1.2" r="1.2"/>
	<circle class="st0" cx="1733.3" cy="40.6" r="1.2"/>
	<circle class="st0" cx="1776.1" cy="43" r="1.2"/>
</g>
<g>
	<g>
		<g>
			<path class="st0" d="M1887,146.2c-4.4,0.2-5.5,1.1-6.6,5.3c-0.1,0.3-0.5,0.3-0.5-0.1c-0.2-4.4-1.1-5.5-5.3-6.6
				c-0.3-0.1-0.3-0.5,0.1-0.5c4.4-0.2,5.5-1.1,6.6-5.3c0.1-0.3,0.5-0.3,0.5,0.1c0.2,4.4,1.1,5.5,5.3,6.6
				C1887.4,145.7,1887.4,146.1,1887,146.2z"/>
		</g>
	</g>
	<g>
		<g>
			<path class="st0" d="M1945.1,158.6c-8.4,0.4-10.5,2.1-12.6,10.2c-0.2,0.6-1,0.5-1-0.1c-0.4-8.4-2.1-10.5-10.2-12.6
				c-0.6-0.2-0.5-1,0.1-1c8.4-0.4,10.5-2.1,12.6-10.2c0.2-0.6,1-0.5,1,0.1c0.4,8.4,2.1,10.5,10.2,12.6
				C1945.8,157.8,1945.7,158.6,1945.1,158.6z"/>
		</g>
	</g>
	<g>
		<g>
			<path class="st0" d="M1817.2,99.7c-8.4,0.4-10.5,2.1-12.6,10.2c-0.2,0.6-1,0.5-1-0.1c-0.4-8.4-2.1-10.5-10.2-12.6
				c-0.6-0.2-0.5-1,0.1-1c8.4-0.4,10.5-2.1,12.6-10.2c0.2-0.6,1-0.5,1,0.1c0.4,8.4,2.1,10.5,10.2,12.6
				C1817.9,98.8,1817.8,99.7,1817.2,99.7z"/>
		</g>
	</g>
	<g>
		<g>
			<path class="st0" d="M1915.3,173.8c-4.4,0.2-5.5,1.1-6.6,5.3c-0.1,0.3-0.5,0.3-0.5-0.1c-0.2-4.4-1.1-5.5-5.3-6.6
				c-0.3-0.1-0.3-0.5,0.1-0.5c4.4-0.2,5.5-1.1,6.6-5.3c0.1-0.3,0.5-0.3,0.5,0.1c0.2,4.4,1.1,5.5,5.3,6.6
				C1915.6,173.3,1915.6,173.8,1915.3,173.8z"/>
		</g>
	</g>
	<g>
		<g>
			<path class="st0" d="M1839.9,94.5c-4.4,0.2-5.5,1.1-6.6,5.3c-0.1,0.3-0.5,0.3-0.5-0.1c-0.2-4.4-1.1-5.5-5.3-6.6
				c-0.3-0.1-0.3-0.5,0.1-0.5c4.4-0.2,5.5-1.1,6.6-5.3c0.1-0.3,0.5-0.3,0.5,0.1c0.2,4.4,1.1,5.5,5.3,6.6
				C1840.2,94,1840.2,94.4,1839.9,94.5z"/>
		</g>
	</g>
	<g>
		<g>
			<path class="st0" d="M1883.4,117.3c-8.7,0.4-10.9,2.1-13.2,10.6c-0.2,0.6-1,0.5-1.1-0.1c-0.4-8.7-2.1-10.9-10.6-13.2
				c-0.6-0.2-0.5-1,0.1-1.1c8.7-0.4,10.9-2.1,13.2-10.6c0.2-0.6,1-0.5,1.1,0.1c0.4,8.7,2.1,10.9,10.6,13.2
				C1884.1,116.4,1884,117.3,1883.4,117.3z"/>
		</g>
	</g>
	<g>
		<g>
			<path class="st0" d="M1943.9,215.8c-4.4,0.2-5.5,1.1-6.6,5.3c-0.1,0.3-0.5,0.3-0.5-0.1c-0.2-4.4-1.1-5.5-5.3-6.6
				c-0.3-0.1-0.3-0.5,0.1-0.5c4.4-0.2,5.5-1.1,6.6-5.3c0.1-0.3,0.5-0.3,0.5,0.1c0.2,4.4,1.1,5.5,5.3,6.6
				C1944.2,215.4,1944.2,215.8,1943.9,215.8z"/>
		</g>
	</g>
	<g>
		<g>
			<path class="st0" d="M1957.4,195.5c-4.4,0.2-5.5,1.1-6.6,5.3c-0.1,0.3-0.5,0.3-0.5-0.1c-0.2-4.4-1.1-5.5-5.3-6.6
				c-0.3-0.1-0.3-0.5,0.1-0.5c4.4-0.2,5.5-1.1,6.6-5.3c0.1-0.3,0.5-0.3,0.5,0.1c0.2,4.4,1.1,5.5,5.3,6.6
				C1957.7,195.1,1957.7,195.5,1957.4,195.5z"/>
		</g>
	</g>
	<circle class="st0" cx="1919" cy="196.5" r="2.5"/>
	<circle class="st0" cx="1858.1" cy="91" r="2.5"/>
	<circle class="st0" cx="1939.6" cy="188.4" r="1.6"/>
	<circle class="st0" cx="1879.1" cy="161.7" r="1.6"/>
	<circle class="st0" cx="1960.3" cy="218.6" r="1.2"/>
	<circle class="st0" cx="1912" cy="134.1" r="1.2"/>
	<circle class="st0" cx="1952.1" cy="247.3" r="1.2"/>
	<circle class="st0" cx="1841.8" cy="120.4" r="1.2"/>
	<circle class="st0" cx="1888.5" cy="105.6" r="1.2"/>
	<circle class="st0" cx="1780.8" cy="87.9" r="1.2"/>
	<circle class="st0" cx="1816.4" cy="111.6" r="1.2"/>
</g>
<g>
	<g>
		<g>
			<path class="st0" d="M1715,140.7c-4.1,1.6-4.8,2.8-4.5,7.2c0,0.3-0.4,0.4-0.5,0.1c-1.6-4.1-2.8-4.8-7.2-4.5
				c-0.3,0-0.4-0.4-0.1-0.5c4.1-1.6,4.8-2.8,4.5-7.2c0-0.3,0.4-0.4,0.5-0.1c1.6,4.1,2.8,4.8,7.2,4.5
				C1715.2,140.1,1715.3,140.5,1715,140.7z"/>
		</g>
	</g>
	<g>
		<g>
			<path class="st0" d="M1774,133.5c-7.8,3.1-9.3,5.4-8.6,13.8c0,0.6-0.8,0.8-1,0.2c-3.1-7.8-5.4-9.2-13.8-8.6c-0.6,0-0.8-0.8-0.2-1
				c7.8-3.1,9.2-5.4,8.6-13.8c0-0.6,0.8-0.8,1-0.2c3.1,7.8,5.4,9.2,13.8,8.6C1774.4,132.5,1774.6,133.3,1774,133.5z"/>
		</g>
	</g>
	<g>
		<g>
			<path class="st0" d="M1633.9,119.5c-7.8,3.1-9.2,5.4-8.6,13.8c0,0.6-0.8,0.8-1,0.2c-3.1-7.8-5.4-9.2-13.8-8.6
				c-0.6,0-0.8-0.8-0.2-1c7.8-3.1,9.3-5.4,8.6-13.8c0-0.6,0.8-0.8,1-0.2c3.1,7.8,5.4,9.2,13.8,8.6
				C1634.2,118.5,1634.4,119.3,1633.9,119.5z"/>
		</g>
	</g>
	<g>
		<g>
			<path class="st0" d="M1750.7,157.6c-4.1,1.6-4.8,2.8-4.5,7.2c0,0.3-0.4,0.4-0.5,0.1c-1.6-4.1-2.8-4.8-7.2-4.5
				c-0.3,0-0.4-0.4-0.1-0.5c4.1-1.6,4.8-2.8,4.5-7.2c0-0.3,0.4-0.4,0.5-0.1c1.6,4.1,2.8,4.8,7.2,4.5
				C1750.9,157,1751,157.5,1750.7,157.6z"/>
		</g>
	</g>
	<g>
		<g>
			<path class="st0" d="M1653.6,107.2c-4.1,1.6-4.8,2.8-4.5,7.2c0,0.3-0.4,0.4-0.5,0.1c-1.6-4.1-2.8-4.8-7.2-4.5
				c-0.3,0-0.4-0.4-0.1-0.5c4.1-1.6,4.8-2.8,4.5-7.2c0-0.3,0.4-0.4,0.5-0.1c1.6,4.1,2.8,4.8,7.2,4.5
				C1653.8,106.6,1653.9,107.1,1653.6,107.2z"/>
		</g>
	</g>
	<g>
		<g>
			<path class="st0" d="M1702.2,114.6c-8.1,3.2-9.6,5.6-9,14.3c0,0.6-0.8,0.8-1,0.2c-3.2-8.1-5.6-9.6-14.3-9c-0.6,0-0.8-0.8-0.2-1
				c8.1-3.2,9.6-5.6,9-14.3c0-0.6,0.8-0.8,1-0.2c3.2,8.1,5.6,9.6,14.3,9C1702.5,113.5,1702.7,114.3,1702.2,114.6z"/>
		</g>
	</g>
	<g>
		<g>
			<path class="st0" d="M1791.5,188c-4.1,1.6-4.8,2.8-4.5,7.2c0,0.3-0.4,0.4-0.5,0.1c-1.6-4.1-2.8-4.8-7.2-4.5
				c-0.3,0-0.4-0.4-0.1-0.5c4.1-1.6,4.8-2.8,4.5-7.2c0-0.3,0.4-0.4,0.5-0.1c1.6,4.1,2.8,4.8,7.2,4.5
				C1791.7,187.4,1791.8,187.9,1791.5,188z"/>
		</g>
	</g>
	<g>
		<g>
			<path class="st0" d="M1797.6,164.4c-4.1,1.6-4.8,2.8-4.5,7.2c0,0.3-0.4,0.4-0.5,0.1c-1.6-4.1-2.8-4.8-7.2-4.5
				c-0.3,0-0.4-0.4-0.1-0.5c4.1-1.6,4.8-2.8,4.5-7.2c0-0.3,0.4-0.4,0.5-0.1c1.6,4.1,2.8,4.8,7.2,4.5
				C1797.8,163.8,1797.9,164.3,1797.6,164.4z"/>
		</g>
	</g>
	<circle class="st0" cx="1761.7" cy="177.8" r="2.5"/>
	<circle class="st0" cx="1669.7" cy="98" r="2.5"/>
	<circle class="st0" cx="1778.5" cy="163.5" r="1.6"/>
	<circle class="st0" cx="1712.6" cy="157.9" r="1.6"/>
	<circle class="st0" cx="1807.9" cy="185.2" r="1.2"/>
	<circle class="st0" cx="1734.7" cy="121.1" r="1.2"/>
	<circle class="st0" cx="1809.5" cy="215.1" r="1.2"/>
	<circle class="st0" cx="1663.8" cy="131.1" r="1.2"/>
	<circle class="st0" cx="1703.2" cy="101.8" r="1.2"/>
	<circle class="st0" cx="1595.5" cy="120.2" r="1.2"/>
	<circle class="st0" cx="1637" cy="131" r="1.2"/>
</g>
<g>
	<g>
		<g>
			<path class="st0" d="M1503.5,148.1c-3.7,2.4-4.2,3.7-3,7.9c0.1,0.3-0.3,0.5-0.5,0.2c-2.4-3.7-3.7-4.2-7.9-3
				c-0.3,0.1-0.5-0.3-0.2-0.5c3.7-2.4,4.2-3.7,3-7.9c-0.1-0.3,0.3-0.5,0.5-0.2c2.4,3.7,3.7,4.2,7.9,3
				C1503.6,147.5,1503.8,147.9,1503.5,148.1z"/>
		</g>
	</g>
	<g>
		<g>
			<path class="st0" d="M1560,129.4c-7.1,4.6-8,7.1-5.7,15.2c0.2,0.6-0.6,0.9-0.9,0.4c-4.6-7.1-7.1-8-15.2-5.7
				c-0.6,0.2-0.9-0.6-0.4-0.9c7.1-4.6,8-7.1,5.7-15.2c-0.2-0.6,0.6-0.9,0.9-0.4c4.6,7.1,7.1,8,15.2,5.7
				C1560.1,128.3,1560.4,129.1,1560,129.4z"/>
		</g>
	</g>
	<g>
		<g>
			<path class="st0" d="M1419.8,143.4c-7.1,4.6-8,7.1-5.7,15.2c0.2,0.6-0.6,0.9-0.9,0.4c-4.6-7.1-7.1-8-15.2-5.7
				c-0.6,0.2-0.9-0.6-0.4-0.9c7.1-4.6,8-7.1,5.7-15.2c-0.2-0.6,0.6-0.9,0.9-0.4c4.6,7.1,7.1,8,15.2,5.7
				C1420,142.3,1420.3,143.1,1419.8,143.4z"/>
		</g>
	</g>
	<g>
		<g>
			<path class="st0" d="M1541.9,157.6c-3.7,2.4-4.2,3.7-3,7.9c0.1,0.3-0.3,0.5-0.5,0.2c-2.4-3.7-3.7-4.2-7.9-3
				c-0.3,0.1-0.5-0.3-0.2-0.5c3.7-2.4,4.2-3.7,3-7.9c-0.1-0.3,0.3-0.5,0.5-0.2c2.4,3.7,3.7,4.2,7.9,3
				C1542,157.1,1542.2,157.5,1541.9,157.6z"/>
		</g>
	</g>
	<g>
		<g>
			<path class="st0" d="M1436.7,127.4c-3.7,2.4-4.2,3.7-3,7.9c0.1,0.3-0.3,0.5-0.5,0.2c-2.4-3.7-3.7-4.2-7.9-3
				c-0.3,0.1-0.5-0.3-0.2-0.5c3.7-2.4,4.2-3.7,3-7.9c-0.1-0.3,0.3-0.5,0.5-0.2c2.4,3.7,3.7,4.2,7.9,3
				C1436.8,126.9,1436.9,127.3,1436.7,127.4z"/>
		</g>
	</g>
	<g>
		<g>
			<path class="st0" d="M1485.8,125.1c-7.3,4.8-8.3,7.4-6,15.8c0.2,0.6-0.6,1-1,0.4c-4.8-7.3-7.4-8.3-15.8-6c-0.6,0.2-1-0.6-0.4-1
				c7.3-4.8,8.3-7.4,6-15.8c-0.2-0.6,0.6-1,1-0.4c4.8,7.3,7.4,8.3,15.8,6C1485.9,123.9,1486.3,124.7,1485.8,125.1z"/>
		</g>
	</g>
	<g>
		<g>
			<path class="st0" d="M1587.8,179.4c-3.7,2.4-4.2,3.7-3,7.9c0.1,0.3-0.3,0.5-0.5,0.2c-2.4-3.7-3.7-4.2-7.9-3
				c-0.3,0.1-0.5-0.3-0.2-0.5c3.7-2.4,4.2-3.7,3-7.9c-0.1-0.3,0.3-0.5,0.5-0.2c2.4,3.7,3.7,4.2,7.9,3
				C1587.9,178.8,1588.1,179.2,1587.8,179.4z"/>
		</g>
	</g>
	<g>
		<g>
			<path class="st0" d="M1589.2,155.1c-3.7,2.4-4.2,3.7-3,7.9c0.1,0.3-0.3,0.5-0.5,0.2c-2.4-3.7-3.7-4.2-7.9-3
				c-0.3,0.1-0.5-0.3-0.2-0.5c3.7-2.4,4.2-3.7,3-7.9c-0.1-0.3,0.3-0.5,0.5-0.2c2.4,3.7,3.7,4.2,7.9,3
				C1589.3,154.5,1589.5,154.9,1589.2,155.1z"/>
		</g>
	</g>
	<circle class="st0" cx="1556.6" cy="175.4" r="2.5"/>
	<circle class="st0" cx="1450.7" cy="115.2" r="2.5"/>
	<circle class="st0" cx="1570.3" cy="158" r="1.6"/>
	<circle class="st0" cx="1504.6" cy="165.5" r="1.6"/>
	<circle class="st0" cx="1603.4" cy="173.4" r="1.2"/>
	<circle class="st0" cx="1519" cy="125.1" r="1.2"/>
	<circle class="st0" cx="1610.9" cy="202.4" r="1.2"/>
	<circle class="st0" cx="1451.5" cy="148.8" r="1.2"/>
	<circle class="st0" cx="1484.3" cy="112.4" r="1.2"/>
	<circle class="st0" cx="1382.4" cy="151.7" r="1.2"/>
	<circle class="st0" cx="1425.1" cy="154.1" r="1.2"/>
</g>
<g>
	<g>
		<g>
			<path class="st0" d="M308.4,156.8c2.6-3.5,2.7-4.9,0.1-8.5c-0.2-0.3,0.1-0.6,0.4-0.4c3.5,2.6,4.9,2.7,8.5,0.1
				c0.3-0.2,0.6,0.1,0.4,0.4c-2.6,3.5-2.7,4.9-0.1,8.5c0.2,0.3-0.1,0.6-0.4,0.4c-3.5-2.6-4.9-2.7-8.5-0.1
				C308.6,157.3,308.3,157,308.4,156.8z"/>
		</g>
	</g>
	<g>
		<g>
			<path class="st0" d="M261.7,193.5c5.1-6.7,5.1-9.4,0.2-16.2c-0.3-0.5,0.3-1.1,0.7-0.7c6.7,5.1,9.4,5.1,16.2,0.2
				c0.5-0.3,1.1,0.3,0.7,0.7c-5.1,6.7-5.1,9.4-0.2,16.2c0.3,0.5-0.3,1.1-0.7,0.7c-6.7-5.1-9.4-5.1-16.2-0.2
				C261.9,194.5,261.4,193.9,261.7,193.5z"/>
		</g>
	</g>
	<g>
		<g>
			<path class="st0" d="M388.8,132.8c5.1-6.7,5.1-9.4,0.2-16.2c-0.3-0.5,0.3-1.1,0.7-0.7c6.7,5.1,9.4,5.1,16.2,0.2
				c0.5-0.3,1.1,0.3,0.7,0.7c-5.1,6.7-5.1,9.4-0.2,16.2c0.3,0.5-0.3,1.1-0.7,0.7c-6.7-5.1-9.4-5.1-16.2-0.2
				C389,133.9,388.5,133.3,388.8,132.8z"/>
		</g>
	</g>
	<g>
		<g>
			<path class="st0" d="M269.1,160.8c2.6-3.5,2.7-4.9,0.1-8.5c-0.2-0.3,0.1-0.6,0.4-0.4c3.5,2.6,4.9,2.7,8.5,0.1
				c0.3-0.2,0.6,0.1,0.4,0.4c-2.6,3.5-2.7,4.9-0.1,8.5c0.2,0.3-0.1,0.6-0.4,0.4c-3.5-2.6-4.9-2.7-8.5-0.1
				C269.3,161.4,269,161.1,269.1,160.8z"/>
		</g>
	</g>
	<g>
		<g>
			<path class="st0" d="M378.4,153.6c2.6-3.5,2.7-4.9,0.1-8.5c-0.2-0.3,0.1-0.6,0.4-0.4c3.5,2.6,4.9,2.7,8.5,0.1
				c0.3-0.2,0.6,0.1,0.4,0.4c-2.6,3.5-2.7,4.9-0.1,8.5c0.2,0.3-0.1,0.6-0.4,0.4c-3.5-2.6-4.9-2.7-8.5-0.1
				C378.5,154.1,378.2,153.8,378.4,153.6z"/>
		</g>
	</g>
	<g>
		<g>
			<path class="st0" d="M333,172.4c5.3-7,5.3-9.8,0.3-16.9c-0.4-0.5,0.3-1.1,0.8-0.7c7,5.3,9.8,5.3,16.9,0.3
				c0.5-0.4,1.1,0.3,0.7,0.8c-5.3,7-5.3,9.8-0.3,16.9c0.4,0.5-0.3,1.1-0.8,0.7c-7-5.3-9.8-5.3-16.9-0.3
				C333.2,173.6,332.6,172.9,333,172.4z"/>
		</g>
	</g>
	<g>
		<g>
			<path class="st0" d="M218.5,155.9c2.6-3.5,2.7-4.9,0.1-8.5c-0.2-0.3,0.1-0.6,0.4-0.4c3.5,2.6,4.9,2.7,8.5,0.1
				c0.3-0.2,0.6,0.1,0.4,0.4c-2.6,3.5-2.7,4.9-0.1,8.5c0.2,0.3-0.1,0.6-0.4,0.4c-3.5-2.6-4.9-2.7-8.5-0.1
				C218.7,156.5,218.4,156.2,218.5,155.9z"/>
		</g>
	</g>
	<g>
		<g>
			<path class="st0" d="M225.5,179.3c2.6-3.5,2.7-4.9,0.1-8.5c-0.2-0.3,0.1-0.6,0.4-0.4c3.5,2.6,4.9,2.7,8.5,0.1
				c0.3-0.2,0.6,0.1,0.4,0.4c-2.6,3.5-2.7,4.9-0.1,8.5c0.2,0.3-0.1,0.6-0.4,0.4c-3.5-2.6-4.9-2.7-8.5-0.1
				C225.6,179.9,225.3,179.5,225.5,179.3z"/>
		</g>
	</g>
	<circle class="st0" cx="249.3" cy="149.1" r="2.5"/>
	<circle class="st0" cx="369.3" cy="169.8" r="2.5"/>
	<circle class="st0" cx="242.3" cy="170.1" r="1.6"/>
	<circle class="st0" cx="301.6" cy="140.7" r="1.6"/>
	<circle class="st0" cx="205.9" cy="166.8" r="1.2"/>
	<circle class="st0" cx="301.8" cy="183.7" r="1.2"/>
	<circle class="st0" cx="189.1" cy="142.1" r="1.2"/>
	<circle class="st0" cx="357.2" cy="138.5" r="1.2"/>
	<circle class="st0" cx="338.7" cy="183.9" r="1.2"/>
	<circle class="st0" cx="421.2" cy="112.4" r="1.2"/>
	<circle class="st0" cx="380.2" cy="124.6" r="1.2"/>
</g>
<g>
	<g>
		<g>
			<path class="st0" d="M200.3,87.6c1.9-3.9,1.6-5.3-1.5-8.3c-0.2-0.2,0-0.6,0.3-0.4c3.9,1.9,5.3,1.6,8.3-1.5c0.2-0.2,0.6,0,0.4,0.3
				c-1.9,3.9-1.6,5.3,1.5,8.3c0.2,0.2,0,0.6-0.3,0.4c-3.9-1.9-5.3-1.6-8.3,1.5C200.6,88.1,200.2,87.8,200.3,87.6z"/>
		</g>
	</g>
	<g>
		<g>
			<path class="st0" d="M161.8,132.8c3.7-7.6,3.2-10.2-3-16c-0.4-0.4,0-1.1,0.6-0.8c7.6,3.7,10.2,3.2,16-3c0.4-0.4,1.1,0,0.8,0.6
				c-3.7,7.6-3.2,10.2,3,16c0.4,0.4,0,1.1-0.6,0.8c-7.6-3.7-10.2-3.2-16,3C162.2,133.8,161.5,133.3,161.8,132.8z"/>
		</g>
	</g>
	<g>
		<g>
			<path class="st0" d="M274.4,48.2c3.7-7.6,3.2-10.2-3-16c-0.4-0.4,0-1.1,0.6-0.8c7.6,3.7,10.2,3.2,16-3c0.4-0.4,1.1,0,0.8,0.6
				c-3.7,7.6-3.2,10.2,3,16c0.4,0.4,0,1.1-0.6,0.8c-7.6-3.7-10.2-3.2-16,3C274.8,49.2,274.1,48.7,274.4,48.2z"/>
		</g>
	</g>
	<g>
		<g>
			<path class="st0" d="M162.6,99.3c1.9-3.9,1.6-5.3-1.5-8.3c-0.2-0.2,0-0.6,0.3-0.4c3.9,1.9,5.3,1.6,8.3-1.5c0.2-0.2,0.6,0,0.4,0.3
				c-1.9,3.9-1.6,5.3,1.5,8.3c0.2,0.2,0,0.6-0.3,0.4c-3.9-1.9-5.3-1.6-8.3,1.5C162.8,99.8,162.5,99.6,162.6,99.3z"/>
		</g>
	</g>
	<g>
		<g>
			<path class="st0" d="M268.2,70.6c1.9-3.9,1.6-5.3-1.5-8.3c-0.2-0.2,0-0.6,0.3-0.4c3.9,1.9,5.3,1.6,8.3-1.5c0.2-0.2,0.6,0,0.4,0.3
				c-1.9,3.9-1.6,5.3,1.5,8.3c0.2,0.2,0,0.6-0.3,0.4c-3.9-1.9-5.3-1.6-8.3,1.5C268.5,71.1,268.1,70.9,268.2,70.6z"/>
		</g>
	</g>
	<g>
		<g>
			<path class="st0" d="M227.5,98.1c3.8-7.9,3.3-10.6-3.1-16.6c-0.4-0.4,0-1.1,0.6-0.9c7.9,3.8,10.6,3.3,16.6-3.1
				c0.4-0.4,1.1,0,0.9,0.6c-3.8,7.9-3.3,10.6,3.1,16.6c0.4,0.4,0,1.1-0.6,0.9c-7.9-3.8-10.6-3.3-16.6,3.1
				C227.9,99.1,227.2,98.6,227.5,98.1z"/>
		</g>
	</g>
	<g>
		<g>
			<path class="st0" d="M112,104.5c1.9-3.9,1.6-5.3-1.5-8.3c-0.2-0.2,0-0.6,0.3-0.4c3.9,1.9,5.3,1.6,8.3-1.5c0.2-0.2,0.6,0,0.4,0.3
				c-1.9,3.9-1.6,5.3,1.5,8.3c0.2,0.2,0,0.6-0.3,0.4c-3.9-1.9-5.3-1.6-8.3,1.5C112.3,105,111.9,104.7,112,104.5z"/>
		</g>
	</g>
	<g>
		<g>
			<path class="st0" d="M123.5,126c1.9-3.9,1.6-5.3-1.5-8.3c-0.2-0.2,0-0.6,0.3-0.4c3.9,1.9,5.3,1.6,8.3-1.5c0.2-0.2,0.6,0,0.4,0.3
				c-1.9,3.9-1.6,5.3,1.5,8.3c0.2,0.2,0,0.6-0.3,0.4c-3.9-1.9-5.3-1.6-8.3,1.5C123.7,126.5,123.3,126.3,123.5,126z"/>
		</g>
	</g>
	<circle class="st0" cx="140.8" cy="91.8" r="2.5"/>
	<circle class="st0" cx="262.6" cy="88.3" r="2.5"/>
	<circle class="st0" cx="138.2" cy="113.7" r="1.6"/>
	<circle class="st0" cx="190.4" cy="73.2" r="1.6"/>
	<circle class="st0" cx="101.8" cy="117.7" r="1.2"/>
	<circle class="st0" cx="199.1" cy="115.2" r="1.2"/>
	<circle class="st0" cx="80.4" cy="96.7" r="1.2"/>
	<circle class="st0" cx="244.5" cy="60" r="1.2"/>
	<circle class="st0" cx="235.3" cy="108.2" r="1.2"/>
	<circle class="st0" cx="302.1" cy="21.7" r="1.2"/>
	<circle class="st0" cx="264.3" cy="41.8" r="1.2"/>
</g>
<g>
	<g>
		<g>
			<path class="st0" d="M557.4,130.1c2.6-3.5,2.7-4.9,0.1-8.5c-0.2-0.3,0.1-0.6,0.4-0.4c3.5,2.6,4.9,2.7,8.5,0.1
				c0.3-0.2,0.6,0.1,0.4,0.4c-2.6,3.5-2.7,4.9-0.1,8.5c0.2,0.3-0.1,0.6-0.4,0.4c-3.5-2.6-4.9-2.7-8.5-0.1
				C557.5,130.7,557.2,130.3,557.4,130.1z"/>
		</g>
	</g>
	<g>
		<g>
			<path class="st0" d="M510.6,166.8c5.1-6.7,5.1-9.4,0.2-16.2c-0.3-0.5,0.3-1.1,0.7-0.7c6.7,5.1,9.4,5.1,16.2,0.2
				c0.5-0.3,1.1,0.3,0.7,0.7c-5.1,6.7-5.1,9.4-0.2,16.2c0.3,0.5-0.3,1.1-0.7,0.7c-6.7-5.1-9.4-5.1-16.2-0.2
				C510.8,167.9,510.3,167.3,510.6,166.8z"/>
		</g>
	</g>
	<g>
		<g>
			<path class="st0" d="M637.7,106.1c5.1-6.7,5.1-9.4,0.2-16.2c-0.3-0.5,0.3-1.1,0.7-0.7c6.7,5.1,9.4,5.1,16.2,0.2
				c0.5-0.3,1.1,0.3,0.7,0.7c-5.1,6.7-5.1,9.4-0.2,16.2c0.3,0.5-0.3,1.1-0.7,0.7c-6.7-5.1-9.4-5.1-16.2-0.2
				C638,107.2,637.4,106.6,637.7,106.1z"/>
		</g>
	</g>
	<g>
		<g>
			<path class="st0" d="M518.1,134.1c2.6-3.5,2.7-4.9,0.1-8.5c-0.2-0.3,0.1-0.6,0.4-0.4c3.5,2.6,4.9,2.7,8.5,0.1
				c0.3-0.2,0.6,0.1,0.4,0.4c-2.6,3.5-2.7,4.9-0.1,8.5c0.2,0.3-0.1,0.6-0.4,0.4c-3.5-2.6-4.9-2.7-8.5-0.1
				C518.2,134.7,517.9,134.4,518.1,134.1z"/>
		</g>
	</g>
	<g>
		<g>
			<path class="st0" d="M627.3,126.9c2.6-3.5,2.7-4.9,0.1-8.5c-0.2-0.3,0.1-0.6,0.4-0.4c3.5,2.6,4.9,2.7,8.5,0.1
				c0.3-0.2,0.6,0.1,0.4,0.4c-2.6,3.5-2.7,4.9-0.1,8.5c0.2,0.3-0.1,0.6-0.4,0.4c-3.5-2.6-4.9-2.7-8.5-0.1
				C627.4,127.5,627.1,127.1,627.3,126.9z"/>
		</g>
	</g>
	<g>
		<g>
			<path class="st0" d="M581.9,145.8c5.3-7,5.3-9.8,0.3-16.9c-0.4-0.5,0.3-1.1,0.8-0.7c7,5.3,9.8,5.3,16.9,0.3
				c0.5-0.4,1.1,0.3,0.7,0.8c-5.3,7-5.3,9.8-0.3,16.9c0.4,0.5-0.3,1.1-0.8,0.7c-7-5.3-9.8-5.3-16.9-0.3
				C582.1,146.9,581.5,146.2,581.9,145.8z"/>
		</g>
	</g>
	<g>
		<g>
			<path class="st0" d="M467.5,129.2c2.6-3.5,2.7-4.9,0.1-8.5c-0.2-0.3,0.1-0.6,0.4-0.4c3.5,2.6,4.9,2.7,8.5,0.1
				c0.3-0.2,0.6,0.1,0.4,0.4c-2.6,3.5-2.7,4.9-0.1,8.5c0.2,0.3-0.1,0.6-0.4,0.4c-3.5-2.6-4.9-2.7-8.5-0.1
				C467.6,129.8,467.3,129.5,467.5,129.2z"/>
		</g>
	</g>
	<g>
		<g>
			<path class="st0" d="M474.4,152.6c2.6-3.5,2.7-4.9,0.1-8.5c-0.2-0.3,0.1-0.6,0.4-0.4c3.5,2.6,4.9,2.7,8.5,0.1
				c0.3-0.2,0.6,0.1,0.4,0.4c-2.6,3.5-2.7,4.9-0.1,8.5c0.2,0.3-0.1,0.6-0.4,0.4c-3.5-2.6-4.9-2.7-8.5-0.1
				C474.5,153.2,474.2,152.9,474.4,152.6z"/>
		</g>
	</g>
	<circle class="st0" cx="498.2" cy="122.5" r="2.5"/>
	<circle class="st0" cx="618.2" cy="143.1" r="2.5"/>
	<circle class="st0" cx="491.2" cy="143.5" r="1.6"/>
	<circle class="st0" cx="550.5" cy="114.1" r="1.6"/>
	<circle class="st0" cx="454.8" cy="140.1" r="1.2"/>
	<circle class="st0" cx="550.7" cy="157" r="1.2"/>
	<circle class="st0" cx="438" cy="115.4" r="1.2"/>
	<circle class="st0" cx="606.1" cy="111.8" r="1.2"/>
	<circle class="st0" cx="587.6" cy="157.2" r="1.2"/>
	<circle class="st0" cx="670.1" cy="85.7" r="1.2"/>
	<circle class="st0" cx="629.1" cy="97.9" r="1.2"/>
</g>
<g>
	<g>
		<g>
			<path class="st0" d="M759.5,174c2.6-3.5,2.7-4.9,0.1-8.5c-0.2-0.3,0.1-0.6,0.4-0.4c3.5,2.6,4.9,2.7,8.5,0.1
				c0.3-0.2,0.6,0.1,0.4,0.4c-2.6,3.5-2.7,4.9-0.1,8.5c0.2,0.3-0.1,0.6-0.4,0.4c-3.5-2.6-4.9-2.7-8.5-0.1
				C759.6,174.6,759.3,174.2,759.5,174z"/>
		</g>
	</g>
	<g>
		<g>
			<path class="st0" d="M712.7,210.7c5.1-6.7,5.1-9.4,0.2-16.2c-0.3-0.5,0.3-1.1,0.7-0.7c6.7,5.1,9.4,5.1,16.2,0.2
				c0.5-0.3,1.1,0.3,0.7,0.7c-5.1,6.7-5.1,9.4-0.2,16.2c0.3,0.5-0.3,1.1-0.7,0.7c-6.7-5.1-9.4-5.1-16.2-0.2
				C713,211.8,712.4,211.2,712.7,210.7z"/>
		</g>
	</g>
	<g>
		<g>
			<path class="st0" d="M839.8,150c5.1-6.7,5.1-9.4,0.2-16.2c-0.3-0.5,0.3-1.1,0.7-0.7c6.7,5.1,9.4,5.1,16.2,0.2
				c0.5-0.3,1.1,0.3,0.7,0.7c-5.1,6.7-5.1,9.4-0.2,16.2c0.3,0.5-0.3,1.1-0.7,0.7c-6.7-5.1-9.4-5.1-16.2-0.2
				C840.1,151.1,839.5,150.5,839.8,150z"/>
		</g>
	</g>
	<g>
		<g>
			<path class="st0" d="M720.2,178c2.6-3.5,2.7-4.9,0.1-8.5c-0.2-0.3,0.1-0.6,0.4-0.4c3.5,2.6,4.9,2.7,8.5,0.1
				c0.3-0.2,0.6,0.1,0.4,0.4c-2.6,3.5-2.7,4.9-0.1,8.5c0.2,0.3-0.1,0.6-0.4,0.4c-3.5-2.6-4.9-2.7-8.5-0.1
				C720.3,178.6,720,178.3,720.2,178z"/>
		</g>
	</g>
	<g>
		<g>
			<path class="st0" d="M829.4,170.8c2.6-3.5,2.7-4.9,0.1-8.5c-0.2-0.3,0.1-0.6,0.4-0.4c3.5,2.6,4.9,2.7,8.5,0.1
				c0.3-0.2,0.6,0.1,0.4,0.4c-2.6,3.5-2.7,4.9-0.1,8.5c0.2,0.3-0.1,0.6-0.4,0.4c-3.5-2.6-4.9-2.7-8.5-0.1
				C829.5,171.3,829.2,171,829.4,170.8z"/>
		</g>
	</g>
	<g>
		<g>
			<path class="st0" d="M784,189.6c5.3-7,5.3-9.8,0.3-16.9c-0.4-0.5,0.3-1.1,0.8-0.7c7,5.3,9.8,5.3,16.9,0.3
				c0.5-0.4,1.1,0.3,0.7,0.8c-5.3,7-5.3,9.8-0.3,16.9c0.4,0.5-0.3,1.1-0.8,0.7c-7-5.3-9.8-5.3-16.9-0.3
				C784.2,190.8,783.6,190.1,784,189.6z"/>
		</g>
	</g>
	<g>
		<g>
			<path class="st0" d="M669.6,173.1c2.6-3.5,2.7-4.9,0.1-8.5c-0.2-0.3,0.1-0.6,0.4-0.4c3.5,2.6,4.9,2.7,8.5,0.1
				c0.3-0.2,0.6,0.1,0.4,0.4c-2.6,3.5-2.7,4.9-0.1,8.5c0.2,0.3-0.1,0.6-0.4,0.4c-3.5-2.6-4.9-2.7-8.5-0.1
				C669.7,173.7,669.4,173.4,669.6,173.1z"/>
		</g>
	</g>
	<g>
		<g>
			<path class="st0" d="M676.5,196.5c2.6-3.5,2.7-4.9,0.1-8.5c-0.2-0.3,0.1-0.6,0.4-0.4c3.5,2.6,4.9,2.7,8.5,0.1
				c0.3-0.2,0.6,0.1,0.4,0.4c-2.6,3.5-2.7,4.9-0.1,8.5c0.2,0.3-0.1,0.6-0.4,0.4c-3.5-2.6-4.9-2.7-8.5-0.1
				C676.6,197.1,676.3,196.7,676.5,196.5z"/>
		</g>
	</g>
	<circle class="st0" cx="700.3" cy="166.3" r="2.5"/>
	<circle class="st0" cx="820.3" cy="187" r="2.5"/>
	<circle class="st0" cx="693.3" cy="187.4" r="1.6"/>
	<circle class="st0" cx="752.6" cy="157.9" r="1.6"/>
	<circle class="st0" cx="656.9" cy="184" r="1.2"/>
	<circle class="st0" cx="752.8" cy="200.9" r="1.2"/>
	<circle class="st0" cx="640.1" cy="159.3" r="1.2"/>
	<circle class="st0" cx="808.2" cy="155.7" r="1.2"/>
	<circle class="st0" cx="789.7" cy="201.1" r="1.2"/>
	<circle class="st0" cx="872.2" cy="129.6" r="1.2"/>
	<circle class="st0" cx="831.2" cy="141.8" r="1.2"/>
</g>
</svg>
