<?xml version="1.0" encoding="utf-8"?>
<!-- Generator: Adobe Illustrator 19.0.0, SVG Export Plug-In . SVG Version: 6.00 Build 0)  -->
<svg version="1.1" id="Layer_1" xmlns="http://www.w3.org/2000/svg" xmlns:xlink="http://www.w3.org/1999/xlink" x="0px" y="0px"
	 viewBox="0 0 202.4 142.4" style="enable-background:new 0 0 202.4 142.4;" xml:space="preserve">
<style type="text/css">
	.st0{fill:#FAC5CB;}
</style>
<g>
	<g>
		<g>
			<path class="st0" d="M86.2,54.6c-1,4.3-0.4,5.6,3.3,7.8c0.3,0.2,0.1,0.6-0.2,0.5c-4.3-1-5.6-0.4-7.8,3.3C81.4,66.5,81,66.3,81,66
				c1-4.3,0.4-5.6-3.3-7.8c-0.3-0.2-0.1-0.6,0.2-0.5c4.3,1,5.6,0.4,7.8-3.3C85.9,54.2,86.3,54.3,86.2,54.6z"/>
		</g>
	</g>
	<g>
		<g>
			<path class="st0" d="M113.9,2.1c-1.9,8.2-0.9,10.7,6.4,14.9c0.5,0.3,0.2,1.1-0.4,0.9c-8.2-1.9-10.7-0.9-14.9,6.4
				c-0.3,0.5-1.1,0.2-0.9-0.4c1.9-8.2,0.9-10.7-6.4-14.9c-0.5-0.3-0.2-1.1,0.4-0.9C106.3,10,108.7,9,113,1.7
				C113.3,1.2,114.1,1.5,113.9,2.1z"/>
		</g>
	</g>
	<g>
		<g>
			<path class="st0" d="M22.5,109.3c-1.9,8.2-0.9,10.7,6.4,14.9c0.5,0.3,0.2,1.1-0.4,0.9c-8.2-1.9-10.7-0.9-14.9,6.4
				c-0.3,0.5-1.1,0.2-0.9-0.4c1.9-8.2,0.9-10.7-6.4-14.9c-0.5-0.3-0.2-1.1,0.4-0.9c8.2,1.9,10.7,0.9,14.9-6.4
				C21.9,108.4,22.7,108.7,22.5,109.3z"/>
		</g>
	</g>
	<g>
		<g>
			<path class="st0" d="M120.5,35c-1,4.3-0.4,5.6,3.3,7.8c0.3,0.2,0.1,0.6-0.2,0.5c-4.3-1-5.6-0.4-7.8,3.3c-0.2,0.3-0.6,0.1-0.5-0.2
				c1-4.3,0.4-5.6-3.3-7.8c-0.3-0.2-0.1-0.6,0.2-0.5c4.3,1,5.6,0.4,7.8-3.3C120.1,34.5,120.5,34.7,120.5,35z"/>
		</g>
	</g>
	<g>
		<g>
			<path class="st0" d="M23.6,86c-1,4.3-0.4,5.6,3.3,7.8c0.3,0.2,0.1,0.6-0.2,0.5c-4.3-1-5.6-0.4-7.8,3.3c-0.2,0.3-0.6,0.1-0.5-0.2
				c1-4.3,0.4-5.6-3.3-7.8c-0.3-0.2-0.1-0.6,0.2-0.5c4.3,1,5.6,0.4,7.8-3.3C23.3,85.6,23.7,85.7,23.6,86z"/>
		</g>
	</g>
	<g>
		<g>
			<path class="st0" d="M57.4,50.3c-2,8.5-0.9,11.1,6.6,15.5c0.5,0.3,0.2,1.1-0.4,1c-8.5-2-11.1-0.9-15.5,6.6
				c-0.3,0.5-1.1,0.2-1-0.4c2-8.5,0.9-11.1-6.6-15.5c-0.5-0.3-0.2-1.1,0.4-1c8.5,2,11.1,0.9,15.5-6.6C56.8,49.4,57.6,49.7,57.4,50.3
				z"/>
		</g>
	</g>
	<g>
		<g>
			<path class="st0" d="M168.7,18.9c-1,4.3-0.4,5.6,3.3,7.8c0.3,0.2,0.1,0.6-0.2,0.5c-4.3-1-5.6-0.4-7.8,3.3
				c-0.2,0.3-0.6,0.1-0.5-0.2c1-4.3,0.4-5.6-3.3-7.8c-0.3-0.2-0.1-0.6,0.2-0.5c4.3,1,5.6,0.4,7.8-3.3
				C168.3,18.4,168.7,18.6,168.7,18.9z"/>
		</g>
	</g>
	<g>
		<g>
			<path class="st0" d="M152.8,0.3c-1,4.3-0.4,5.6,3.3,7.8c0.3,0.2,0.1,0.6-0.2,0.5c-4.3-1-5.6-0.4-7.8,3.3
				c-0.2,0.3-0.6,0.1-0.5-0.2c1-4.3,0.4-5.6-3.3-7.8c-0.3-0.2-0.1-0.6,0.2-0.5c4.3,1,5.6,0.4,7.8-3.3C152.5-0.1,152.9,0,152.8,0.3z"
				/>
		</g>
	</g>
	<circle class="st0" cx="143.3" cy="37.6" r="2.5"/>
	<circle class="st0" cx="25.3" cy="67.5" r="2.5"/>
	<circle class="st0" cx="141.1" cy="15.5" r="1.6"/>
	<circle class="st0" cx="99" cy="66.5" r="1.6"/>
	<circle class="st0" cx="175.8" cy="3.7" r="1.2"/>
	<circle class="st0" cx="81.4" cy="27.4" r="1.2"/>
	<circle class="st0" cx="201.2" cy="19.5" r="1.2"/>
	<circle class="st0" cx="49.1" cy="91.2" r="1.2"/>
	<circle class="st0" cx="47.5" cy="42.2" r="1.2"/>
	<circle class="st0" cx="1.2" cy="141.1" r="1.2"/>
	<circle class="st0" cx="33.8" cy="113.3" r="1.2"/>
</g>
</svg>
