<?xml version="1.0" encoding="utf-8"?>
<!-- Generator: Adobe Illustrator 19.0.0, SVG Export Plug-In . SVG Version: 6.00 Build 0)  -->
<svg version="1.1" id="Layer_1" xmlns="http://www.w3.org/2000/svg" xmlns:xlink="http://www.w3.org/1999/xlink" x="0px" y="0px"
	 viewBox="0 0 1918.6 219.5" style="enable-background:new 0 0 1918.6 219.5;" xml:space="preserve">
<style type="text/css">
	.st0{fill:#FFFFFF;}
</style>
<g>
	<g>
		<g>
			<path class="st0" d="M859.2,81.3c-2.6,3.5-2.7,4.9-0.1,8.5c0.2,0.3-0.1,0.6-0.4,0.4c-3.5-2.6-4.9-2.7-8.5-0.1
				c-0.3,0.2-0.6-0.1-0.4-0.4c2.6-3.5,2.7-4.9,0.1-8.5c-0.2-0.3,0.1-0.6,0.4-0.4c3.5,2.6,4.9,2.7,8.5,0.1
				C859.1,80.7,859.4,81,859.2,81.3z"/>
		</g>
	</g>
	<g>
		<g>
			<path class="st0" d="M905.9,44.6c-5.1,6.7-5.1,9.4-0.2,16.2c0.3,0.5-0.3,1.1-0.7,0.7c-6.7-5.1-9.4-5.1-16.2-0.2
				c-0.5,0.3-1.1-0.3-0.7-0.7c5.1-6.7,5.1-9.4,0.2-16.2c-0.3-0.5,0.3-1.1,0.7-0.7c6.7,5.1,9.4,5.1,16.2,0.2
				C905.7,43.5,906.3,44.1,905.9,44.6z"/>
		</g>
	</g>
	<g>
		<g>
			<path class="st0" d="M778.8,105.3c-5.1,6.7-5.1,9.4-0.2,16.2c0.3,0.5-0.3,1.1-0.7,0.7c-6.7-5.1-9.4-5.1-16.2-0.2
				c-0.5,0.3-1.1-0.3-0.7-0.7c5.1-6.7,5.1-9.4,0.2-16.2c-0.3-0.5,0.3-1.1,0.7-0.7c6.7,5.1,9.4,5.1,16.2,0.2
				C778.6,104.2,779.2,104.8,778.8,105.3z"/>
		</g>
	</g>
	<g>
		<g>
			<path class="st0" d="M898.5,77.2c-2.6,3.5-2.7,4.9-0.1,8.5c0.2,0.3-0.1,0.6-0.4,0.4c-3.5-2.6-4.9-2.7-8.5-0.1
				c-0.3,0.2-0.6-0.1-0.4-0.4c2.6-3.5,2.7-4.9,0.1-8.5c-0.2-0.3,0.1-0.6,0.4-0.4c3.5,2.6,4.9,2.7,8.5,0.1
				C898.4,76.7,898.7,77,898.5,77.2z"/>
		</g>
	</g>
	<g>
		<g>
			<path class="st0" d="M789.3,84.5c-2.6,3.5-2.7,4.9-0.1,8.5c0.2,0.3-0.1,0.6-0.4,0.4c-3.5-2.6-4.9-2.7-8.5-0.1
				c-0.3,0.2-0.6-0.1-0.4-0.4c2.6-3.5,2.7-4.9,0.1-8.5c-0.2-0.3,0.1-0.6,0.4-0.4c3.5,2.6,4.9,2.7,8.5,0.1
				C789.2,83.9,789.5,84.2,789.3,84.5z"/>
		</g>
	</g>
	<g>
		<g>
			<path class="st0" d="M834.7,65.6c-5.3,7-5.3,9.8-0.3,16.9c0.4,0.5-0.3,1.1-0.8,0.7c-7-5.3-9.8-5.3-16.9-0.3
				c-0.5,0.4-1.1-0.3-0.7-0.8c5.3-7,5.3-9.8,0.3-16.9c-0.4-0.5,0.3-1.1,0.8-0.7c7,5.3,9.8,5.3,16.9,0.3
				C834.4,64.5,835,65.1,834.7,65.6z"/>
		</g>
	</g>
	<g>
		<g>
			<path class="st0" d="M949.1,82.2c-2.6,3.5-2.7,4.9-0.1,8.5c0.2,0.3-0.1,0.6-0.4,0.4c-3.5-2.6-4.9-2.7-8.5-0.1
				c-0.3,0.2-0.6-0.1-0.4-0.4c2.6-3.5,2.7-4.9,0.1-8.5c-0.2-0.3,0.1-0.6,0.4-0.4c3.5,2.6,4.9,2.7,8.5,0.1
				C949,81.6,949.3,81.9,949.1,82.2z"/>
		</g>
	</g>
	<g>
		<g>
			<path class="st0" d="M942.1,58.8c-2.6,3.5-2.7,4.9-0.1,8.5c0.2,0.3-0.1,0.6-0.4,0.4c-3.5-2.6-4.9-2.7-8.5-0.1
				c-0.3,0.2-0.6-0.1-0.4-0.4c2.6-3.5,2.7-4.9,0.1-8.5c-0.2-0.3,0.1-0.6,0.4-0.4c3.5,2.6,4.9,2.7,8.5,0.1
				C942,58.2,942.3,58.5,942.1,58.8z"/>
		</g>
	</g>
	<circle class="st0" cx="918.3" cy="88.9" r="2.5"/>
	<circle class="st0" cx="798.3" cy="68.3" r="2.5"/>
	<circle class="st0" cx="925.3" cy="67.9" r="1.6"/>
	<circle class="st0" cx="866" cy="97.3" r="1.6"/>
	<circle class="st0" cx="961.7" cy="71.2" r="1.2"/>
	<circle class="st0" cx="865.9" cy="54.4" r="1.2"/>
	<circle class="st0" cx="978.5" cy="96" r="1.2"/>
	<circle class="st0" cx="810.4" cy="99.6" r="1.2"/>
	<circle class="st0" cx="828.9" cy="54.2" r="1.2"/>
	<circle class="st0" cx="746.4" cy="125.7" r="1.2"/>
	<circle class="st0" cx="787.4" cy="113.5" r="1.2"/>
</g>
<g>
	<g>
		<g>
			<path class="st0" d="M1809.7,86.9c-3.7,2.4-4.1,3.7-2.9,7.9c0.1,0.3-0.3,0.5-0.5,0.2c-2.4-3.7-3.7-4.1-7.9-2.9
				c-0.3,0.1-0.5-0.3-0.2-0.5c3.7-2.4,4.1-3.7,2.9-7.9c-0.1-0.3,0.3-0.5,0.5-0.2c2.4,3.7,3.7,4.1,7.9,2.9
				C1809.8,86.3,1810,86.7,1809.7,86.9z"/>
		</g>
	</g>
	<g>
		<g>
			<path class="st0" d="M1866,67.9c-7,4.6-8,7.2-5.6,15.2c0.2,0.6-0.6,0.9-0.9,0.4c-4.6-7-7.2-8-15.2-5.6c-0.6,0.2-0.9-0.6-0.4-0.9
				c7-4.6,8-7.2,5.6-15.2c-0.2-0.6,0.6-0.9,0.9-0.4c4.6,7,7.2,8,15.2,5.6C1866.1,66.8,1866.5,67.5,1866,67.9z"/>
		</g>
	</g>
	<g>
		<g>
			<path class="st0" d="M1725.9,82.8c-7,4.6-8,7.2-5.6,15.2c0.2,0.6-0.6,0.9-0.9,0.4c-4.6-7-7.2-8-15.2-5.6
				c-0.6,0.2-0.9-0.6-0.4-0.9c7-4.6,8-7.2,5.6-15.2c-0.2-0.6,0.6-0.9,0.9-0.4c4.6,7,7.2,8,15.2,5.6
				C1726.1,81.7,1726.4,82.5,1725.9,82.8z"/>
		</g>
	</g>
	<g>
		<g>
			<path class="st0" d="M1848.1,96.2c-3.7,2.4-4.1,3.7-2.9,7.9c0.1,0.3-0.3,0.5-0.5,0.2c-2.4-3.7-3.7-4.1-7.9-2.9
				c-0.3,0.1-0.5-0.3-0.2-0.5c3.7-2.4,4.1-3.7,2.9-7.9c-0.1-0.3,0.3-0.5,0.5-0.2c2.4,3.7,3.7,4.1,7.9,2.9
				C1848.2,95.6,1848.4,96,1848.1,96.2z"/>
		</g>
	</g>
	<g>
		<g>
			<path class="st0" d="M1742.7,66.7c-3.7,2.4-4.1,3.7-2.9,7.9c0.1,0.3-0.3,0.5-0.5,0.2c-2.4-3.7-3.7-4.1-7.9-2.9
				c-0.3,0.1-0.5-0.3-0.2-0.5c3.7-2.4,4.1-3.7,2.9-7.9c-0.1-0.3,0.3-0.5,0.5-0.2c2.4,3.7,3.7,4.1,7.9,2.9
				C1742.8,66.1,1743,66.5,1742.7,66.7z"/>
		</g>
	</g>
	<g>
		<g>
			<path class="st0" d="M1791.8,64c-7.3,4.8-8.3,7.4-5.9,15.9c0.2,0.6-0.6,1-1,0.4c-4.8-7.3-7.4-8.3-15.9-5.9c-0.6,0.2-1-0.6-0.4-1
				c7.3-4.8,8.3-7.4,5.9-15.9c-0.2-0.6,0.6-1,1-0.4c4.8,7.3,7.4,8.3,15.9,5.9C1791.9,62.9,1792.3,63.7,1791.8,64z"/>
		</g>
	</g>
	<g>
		<g>
			<path class="st0" d="M1894.2,117.6c-3.7,2.4-4.1,3.7-2.9,7.9c0.1,0.3-0.3,0.5-0.5,0.2c-2.4-3.7-3.7-4.1-7.9-2.9
				c-0.3,0.1-0.5-0.3-0.2-0.5c3.7-2.4,4.1-3.7,2.9-7.9c-0.1-0.3,0.3-0.5,0.5-0.2c2.4,3.7,3.7,4.1,7.9,2.9
				C1894.3,117.1,1894.5,117.5,1894.2,117.6z"/>
		</g>
	</g>
	<g>
		<g>
			<path class="st0" d="M1895.4,93.3c-3.7,2.4-4.1,3.7-2.9,7.9c0.1,0.3-0.3,0.5-0.5,0.2c-2.4-3.7-3.7-4.1-7.9-2.9
				c-0.3,0.1-0.5-0.3-0.2-0.5c3.7-2.4,4.1-3.7,2.9-7.9c-0.1-0.3,0.3-0.5,0.5-0.2c2.4,3.7,3.7,4.1,7.9,2.9
				C1895.5,92.7,1895.7,93.1,1895.4,93.3z"/>
		</g>
	</g>
	<circle class="st0" cx="1863" cy="113.8" r="2.5"/>
	<circle class="st0" cx="1756.7" cy="54.4" r="2.5"/>
	<circle class="st0" cx="1876.5" cy="96.3" r="1.6"/>
	<circle class="st0" cx="1810.9" cy="104.3" r="1.6"/>
	<circle class="st0" cx="1909.8" cy="111.5" r="1.2"/>
	<circle class="st0" cx="1825" cy="63.8" r="1.2"/>
	<circle class="st0" cx="1917.4" cy="140.5" r="1.2"/>
	<circle class="st0" cx="1757.7" cy="88" r="1.2"/>
	<circle class="st0" cx="1790.2" cy="51.3" r="1.2"/>
	<circle class="st0" cx="1688.6" cy="91.3" r="1.2"/>
	<circle class="st0" cx="1731.3" cy="93.4" r="1.2"/>
</g>
<g>
	<g>
		<g>
			<path class="st0" d="M1801.8,164.7c-3.7,2.4-4.1,3.7-2.9,7.9c0.1,0.3-0.3,0.5-0.5,0.2c-2.4-3.7-3.7-4.1-7.9-2.9
				c-0.3,0.1-0.5-0.3-0.2-0.5c3.7-2.4,4.1-3.7,2.9-7.9c-0.1-0.3,0.3-0.5,0.5-0.2c2.4,3.7,3.7,4.1,7.9,2.9
				C1801.9,164.1,1802.1,164.5,1801.8,164.7z"/>
		</g>
	</g>
	<g>
		<g>
			<path class="st0" d="M1858.1,145.6c-7,4.6-8,7.2-5.6,15.2c0.2,0.6-0.6,0.9-0.9,0.4c-4.6-7-7.2-8-15.2-5.6
				c-0.6,0.2-0.9-0.6-0.4-0.9c7-4.6,8-7.2,5.6-15.2c-0.2-0.6,0.6-0.9,0.9-0.4c4.6,7,7.2,8,15.2,5.6
				C1858.2,144.5,1858.6,145.3,1858.1,145.6z"/>
		</g>
	</g>
	<g>
		<g>
			<path class="st0" d="M1718,160.6c-7,4.6-8,7.2-5.6,15.2c0.2,0.6-0.6,0.9-0.9,0.4c-4.6-7-7.2-8-15.2-5.6c-0.6,0.2-0.9-0.6-0.4-0.9
				c7-4.6,8-7.2,5.6-15.2c-0.2-0.6,0.6-0.9,0.9-0.4c4.6,7,7.2,8,15.2,5.6C1718.2,159.5,1718.5,160.2,1718,160.6z"/>
		</g>
	</g>
	<g>
		<g>
			<path class="st0" d="M1840.2,173.9c-3.7,2.4-4.1,3.7-2.9,7.9c0.1,0.3-0.3,0.5-0.5,0.2c-2.4-3.7-3.7-4.1-7.9-2.9
				c-0.3,0.1-0.5-0.3-0.2-0.5c3.7-2.4,4.1-3.7,2.9-7.9c-0.1-0.3,0.3-0.5,0.5-0.2c2.4,3.7,3.7,4.1,7.9,2.9
				C1840.3,173.4,1840.5,173.8,1840.2,173.9z"/>
		</g>
	</g>
	<g>
		<g>
			<path class="st0" d="M1734.8,144.5c-3.7,2.4-4.1,3.7-2.9,7.9c0.1,0.3-0.3,0.5-0.5,0.2c-2.4-3.7-3.7-4.1-7.9-2.9
				c-0.3,0.1-0.5-0.3-0.2-0.5c3.7-2.4,4.1-3.7,2.9-7.9c-0.1-0.3,0.3-0.5,0.5-0.2c2.4,3.7,3.7,4.1,7.9,2.9
				C1734.9,143.9,1735.1,144.3,1734.8,144.5z"/>
		</g>
	</g>
	<g>
		<g>
			<path class="st0" d="M1783.9,141.8c-7.3,4.8-8.3,7.4-5.9,15.9c0.2,0.6-0.6,1-1,0.4c-4.8-7.3-7.4-8.3-15.9-5.9
				c-0.6,0.2-1-0.6-0.4-1c7.3-4.8,8.3-7.4,5.9-15.9c-0.2-0.6,0.6-1,1-0.4c4.8,7.3,7.4,8.3,15.9,5.9
				C1784,140.6,1784.4,141.4,1783.9,141.8z"/>
		</g>
	</g>
	<g>
		<g>
			<path class="st0" d="M1886.3,195.4c-3.7,2.4-4.1,3.7-2.9,7.9c0.1,0.3-0.3,0.5-0.5,0.2c-2.4-3.7-3.7-4.1-7.9-2.9
				c-0.3,0.1-0.5-0.3-0.2-0.5c3.7-2.4,4.1-3.7,2.9-7.9c-0.1-0.3,0.3-0.5,0.5-0.2c2.4,3.7,3.7,4.1,7.9,2.9
				C1886.4,194.8,1886.5,195.2,1886.3,195.4z"/>
		</g>
	</g>
	<g>
		<g>
			<path class="st0" d="M1887.5,171c-3.7,2.4-4.1,3.7-2.9,7.9c0.1,0.3-0.3,0.5-0.5,0.2c-2.4-3.7-3.7-4.1-7.9-2.9
				c-0.3,0.1-0.5-0.3-0.2-0.5c3.7-2.4,4.1-3.7,2.9-7.9c-0.1-0.3,0.3-0.5,0.5-0.2c2.4,3.7,3.7,4.1,7.9,2.9
				C1887.6,170.5,1887.8,170.9,1887.5,171z"/>
		</g>
	</g>
	<circle class="st0" cx="1855.1" cy="191.6" r="2.5"/>
	<circle class="st0" cx="1748.7" cy="132.2" r="2.5"/>
	<circle class="st0" cx="1868.6" cy="174.1" r="1.6"/>
	<circle class="st0" cx="1802.9" cy="182.1" r="1.6"/>
	<circle class="st0" cx="1901.9" cy="189.3" r="1.2"/>
	<circle class="st0" cx="1817" cy="141.5" r="1.2"/>
	<circle class="st0" cx="1909.5" cy="218.2" r="1.2"/>
	<circle class="st0" cx="1749.7" cy="165.7" r="1.2"/>
	<circle class="st0" cx="1782.3" cy="129.1" r="1.2"/>
	<circle class="st0" cx="1680.7" cy="169.1" r="1.2"/>
	<circle class="st0" cx="1723.4" cy="171.2" r="1.2"/>
</g>
<g>
	<g>
		<g>
			<path class="st0" d="M1637.2,119.8c-3.7,2.4-4.1,3.7-2.9,7.9c0.1,0.3-0.3,0.5-0.5,0.2c-2.4-3.7-3.7-4.1-7.9-2.9
				c-0.3,0.1-0.5-0.3-0.2-0.5c3.7-2.4,4.1-3.7,2.9-7.9c-0.1-0.3,0.3-0.5,0.5-0.2c2.4,3.7,3.7,4.1,7.9,2.9
				C1637.3,119.2,1637.5,119.6,1637.2,119.8z"/>
		</g>
	</g>
	<g>
		<g>
			<path class="st0" d="M1693.5,100.8c-7,4.6-8,7.2-5.6,15.2c0.2,0.6-0.6,0.9-0.9,0.4c-4.6-7-7.2-8-15.2-5.6
				c-0.6,0.2-0.9-0.6-0.4-0.9c7-4.6,8-7.2,5.6-15.2c-0.2-0.6,0.6-0.9,0.9-0.4c4.6,7,7.2,8,15.2,5.6
				C1693.7,99.7,1694,100.4,1693.5,100.8z"/>
		</g>
	</g>
	<g>
		<g>
			<path class="st0" d="M1553.5,115.7c-7,4.6-8,7.2-5.6,15.2c0.2,0.6-0.6,0.9-0.9,0.4c-4.6-7-7.2-8-15.2-5.6
				c-0.6,0.2-0.9-0.6-0.4-0.9c7-4.6,8-7.2,5.6-15.2c-0.2-0.6,0.6-0.9,0.9-0.4c4.6,7,7.2,8,15.2,5.6
				C1553.6,114.6,1554,115.4,1553.5,115.7z"/>
		</g>
	</g>
	<g>
		<g>
			<path class="st0" d="M1675.7,129.1c-3.7,2.4-4.1,3.7-2.9,7.9c0.1,0.3-0.3,0.5-0.5,0.2c-2.4-3.7-3.7-4.1-7.9-2.9
				c-0.3,0.1-0.5-0.3-0.2-0.5c3.7-2.4,4.1-3.7,2.9-7.9c-0.1-0.3,0.3-0.5,0.5-0.2c2.4,3.7,3.7,4.1,7.9,2.9
				C1675.7,128.5,1675.9,128.9,1675.7,129.1z"/>
		</g>
	</g>
	<g>
		<g>
			<path class="st0" d="M1570.3,99.6c-3.7,2.4-4.1,3.7-2.9,7.9c0.1,0.3-0.3,0.5-0.5,0.2c-2.4-3.7-3.7-4.1-7.9-2.9
				c-0.3,0.1-0.5-0.3-0.2-0.5c3.7-2.4,4.1-3.7,2.9-7.9c-0.1-0.3,0.3-0.5,0.5-0.2c2.4,3.7,3.7,4.1,7.9,2.9
				C1570.3,99,1570.5,99.4,1570.3,99.6z"/>
		</g>
	</g>
	<g>
		<g>
			<path class="st0" d="M1619.3,96.9c-7.3,4.8-8.3,7.4-5.9,15.9c0.2,0.6-0.6,1-1,0.4c-4.8-7.3-7.4-8.3-15.9-5.9
				c-0.6,0.2-1-0.6-0.4-1c7.3-4.8,8.3-7.4,5.9-15.9c-0.2-0.6,0.6-1,1-0.4c4.8,7.3,7.4,8.3,15.9,5.9
				C1619.5,95.8,1619.8,96.6,1619.3,96.9z"/>
		</g>
	</g>
	<g>
		<g>
			<path class="st0" d="M1721.7,150.5c-3.7,2.4-4.1,3.7-2.9,7.9c0.1,0.3-0.3,0.5-0.5,0.2c-2.4-3.7-3.7-4.1-7.9-2.9
				c-0.3,0.1-0.5-0.3-0.2-0.5c3.7-2.4,4.1-3.7,2.9-7.9c-0.1-0.3,0.3-0.5,0.5-0.2c2.4,3.7,3.7,4.1,7.9,2.9
				C1721.8,150,1722,150.4,1721.7,150.5z"/>
		</g>
	</g>
	<g>
		<g>
			<path class="st0" d="M1723,126.2c-3.7,2.4-4.1,3.7-2.9,7.9c0.1,0.3-0.3,0.5-0.5,0.2c-2.4-3.7-3.7-4.1-7.9-2.9
				c-0.3,0.1-0.5-0.3-0.2-0.5c3.7-2.4,4.1-3.7,2.9-7.9c-0.1-0.3,0.3-0.5,0.5-0.2c2.4,3.7,3.7,4.1,7.9,2.9
				C1723,125.6,1723.2,126,1723,126.2z"/>
		</g>
	</g>
	<circle class="st0" cx="1690.5" cy="146.7" r="2.5"/>
	<circle class="st0" cx="1584.2" cy="87.3" r="2.5"/>
	<circle class="st0" cx="1704" cy="129.2" r="1.6"/>
	<circle class="st0" cx="1638.4" cy="137.2" r="1.6"/>
	<circle class="st0" cx="1737.3" cy="144.4" r="1.2"/>
	<circle class="st0" cx="1652.5" cy="96.7" r="1.2"/>
	<circle class="st0" cx="1744.9" cy="173.4" r="1.2"/>
	<circle class="st0" cx="1585.2" cy="120.9" r="1.2"/>
	<circle class="st0" cx="1617.7" cy="84.2" r="1.2"/>
	<circle class="st0" cx="1516.1" cy="124.2" r="1.2"/>
	<circle class="st0" cx="1558.9" cy="126.3" r="1.2"/>
</g>
<g>
	<g>
		<g>
			<path class="st0" d="M1463.9,126.7c-3.7,2.4-4.1,3.7-2.9,7.9c0.1,0.3-0.3,0.5-0.5,0.2c-2.4-3.7-3.7-4.1-7.9-2.9
				c-0.3,0.1-0.5-0.3-0.2-0.5c3.7-2.4,4.1-3.7,2.9-7.9c-0.1-0.3,0.3-0.5,0.5-0.2c2.4,3.7,3.7,4.1,7.9,2.9
				C1464,126.2,1464.2,126.6,1463.9,126.7z"/>
		</g>
	</g>
	<g>
		<g>
			<path class="st0" d="M1520.2,107.7c-7,4.6-8,7.2-5.6,15.2c0.2,0.6-0.6,0.9-0.9,0.4c-4.6-7-7.2-8-15.2-5.6
				c-0.6,0.2-0.9-0.6-0.4-0.9c7-4.6,8-7.2,5.6-15.2c-0.2-0.6,0.6-0.9,0.9-0.4c4.6,7,7.2,8,15.2,5.6
				C1520.3,106.6,1520.7,107.4,1520.2,107.7z"/>
		</g>
	</g>
	<g>
		<g>
			<path class="st0" d="M1380.1,122.6c-7,4.6-8,7.2-5.6,15.2c0.2,0.6-0.6,0.9-0.9,0.4c-4.6-7-7.2-8-15.2-5.6
				c-0.6,0.2-0.9-0.6-0.4-0.9c7-4.6,8-7.2,5.6-15.2c-0.2-0.6,0.6-0.9,0.9-0.4c4.6,7,7.2,8,15.2,5.6
				C1380.3,121.5,1380.6,122.3,1380.1,122.6z"/>
		</g>
	</g>
	<g>
		<g>
			<path class="st0" d="M1502.3,136c-3.7,2.4-4.1,3.7-2.9,7.9c0.1,0.3-0.3,0.5-0.5,0.2c-2.4-3.7-3.7-4.1-7.9-2.9
				c-0.3,0.1-0.5-0.3-0.2-0.5c3.7-2.4,4.1-3.7,2.9-7.9c-0.1-0.3,0.3-0.5,0.5-0.2c2.4,3.7,3.7,4.1,7.9,2.9
				C1502.4,135.4,1502.6,135.8,1502.3,136z"/>
		</g>
	</g>
	<g>
		<g>
			<path class="st0" d="M1396.9,106.5c-3.7,2.4-4.1,3.7-2.9,7.9c0.1,0.3-0.3,0.5-0.5,0.2c-2.4-3.7-3.7-4.1-7.9-2.9
				c-0.3,0.1-0.5-0.3-0.2-0.5c3.7-2.4,4.1-3.7,2.9-7.9c-0.1-0.3,0.3-0.5,0.5-0.2c2.4,3.7,3.7,4.1,7.9,2.9
				C1397,106,1397.2,106.4,1396.9,106.5z"/>
		</g>
	</g>
	<g>
		<g>
			<path class="st0" d="M1446,103.8c-7.3,4.8-8.3,7.4-5.9,15.9c0.2,0.6-0.6,1-1,0.4c-4.8-7.3-7.4-8.3-15.9-5.9c-0.6,0.2-1-0.6-0.4-1
				c7.3-4.8,8.3-7.4,5.9-15.9c-0.2-0.6,0.6-1,1-0.4c4.8,7.3,7.4,8.3,15.9,5.9C1446.2,102.7,1446.5,103.5,1446,103.8z"/>
		</g>
	</g>
	<g>
		<g>
			<path class="st0" d="M1548.4,157.5c-3.7,2.4-4.1,3.7-2.9,7.9c0.1,0.3-0.3,0.5-0.5,0.2c-2.4-3.7-3.7-4.1-7.9-2.9
				c-0.3,0.1-0.5-0.3-0.2-0.5c3.7-2.4,4.1-3.7,2.9-7.9c-0.1-0.3,0.3-0.5,0.5-0.2c2.4,3.7,3.7,4.1,7.9,2.9
				C1548.5,156.9,1548.7,157.3,1548.4,157.5z"/>
		</g>
	</g>
	<g>
		<g>
			<path class="st0" d="M1549.6,133.1c-3.7,2.4-4.1,3.7-2.9,7.9c0.1,0.3-0.3,0.5-0.5,0.2c-2.4-3.7-3.7-4.1-7.9-2.9
				c-0.3,0.1-0.5-0.3-0.2-0.5c3.7-2.4,4.1-3.7,2.9-7.9c-0.1-0.3,0.3-0.5,0.5-0.2c2.4,3.7,3.7,4.1,7.9,2.9
				C1549.7,132.5,1549.9,132.9,1549.6,133.1z"/>
		</g>
	</g>
	<circle class="st0" cx="1517.2" cy="153.6" r="2.5"/>
	<circle class="st0" cx="1410.9" cy="94.2" r="2.5"/>
	<circle class="st0" cx="1530.7" cy="136.1" r="1.6"/>
	<circle class="st0" cx="1465.1" cy="144.2" r="1.6"/>
	<circle class="st0" cx="1564" cy="151.4" r="1.2"/>
	<circle class="st0" cx="1479.2" cy="103.6" r="1.2"/>
	<circle class="st0" cx="1571.6" cy="180.3" r="1.2"/>
	<circle class="st0" cx="1411.9" cy="127.8" r="1.2"/>
	<circle class="st0" cx="1444.4" cy="91.1" r="1.2"/>
	<circle class="st0" cx="1342.8" cy="131.1" r="1.2"/>
	<circle class="st0" cx="1385.5" cy="133.3" r="1.2"/>
</g>
<g>
	<g>
		<g>
			<path class="st0" d="M1266.3,142.3c-3.7,2.4-4.1,3.7-2.9,7.9c0.1,0.3-0.3,0.5-0.5,0.2c-2.4-3.7-3.7-4.1-7.9-2.9
				c-0.3,0.1-0.5-0.3-0.2-0.5c3.7-2.4,4.1-3.7,2.9-7.9c-0.1-0.3,0.3-0.5,0.5-0.2c2.4,3.7,3.7,4.1,7.9,2.9
				C1266.4,141.8,1266.6,142.2,1266.3,142.3z"/>
		</g>
	</g>
	<g>
		<g>
			<path class="st0" d="M1322.6,123.3c-7,4.6-8,7.2-5.6,15.2c0.2,0.6-0.6,0.9-0.9,0.4c-4.6-7-7.2-8-15.2-5.6
				c-0.6,0.2-0.9-0.6-0.4-0.9c7-4.6,8-7.2,5.6-15.2c-0.2-0.6,0.6-0.9,0.9-0.4c4.6,7,7.2,8,15.2,5.6
				C1322.7,122.2,1323.1,123,1322.6,123.3z"/>
		</g>
	</g>
	<g>
		<g>
			<path class="st0" d="M1182.6,138.2c-7,4.6-8,7.2-5.6,15.2c0.2,0.6-0.6,0.9-0.9,0.4c-4.6-7-7.2-8-15.2-5.6
				c-0.6,0.2-0.9-0.6-0.4-0.9c7-4.6,8-7.2,5.6-15.2c-0.2-0.6,0.6-0.9,0.9-0.4c4.6,7,7.2,8,15.2,5.6
				C1182.7,137.1,1183,137.9,1182.6,138.2z"/>
		</g>
	</g>
	<g>
		<g>
			<path class="st0" d="M1304.7,151.6c-3.7,2.4-4.1,3.7-2.9,7.9c0.1,0.3-0.3,0.5-0.5,0.2c-2.4-3.7-3.7-4.1-7.9-2.9
				c-0.3,0.1-0.5-0.3-0.2-0.5c3.7-2.4,4.1-3.7,2.9-7.9c-0.1-0.3,0.3-0.5,0.5-0.2c2.4,3.7,3.7,4.1,7.9,2.9
				C1304.8,151,1305,151.4,1304.7,151.6z"/>
		</g>
	</g>
	<g>
		<g>
			<path class="st0" d="M1199.3,122.1c-3.7,2.4-4.1,3.7-2.9,7.9c0.1,0.3-0.3,0.5-0.5,0.2c-2.4-3.7-3.7-4.1-7.9-2.9
				c-0.3,0.1-0.5-0.3-0.2-0.5c3.7-2.4,4.1-3.7,2.9-7.9c-0.1-0.3,0.3-0.5,0.5-0.2c2.4,3.7,3.7,4.1,7.9,2.9
				C1199.4,121.6,1199.6,122,1199.3,122.1z"/>
		</g>
	</g>
	<g>
		<g>
			<path class="st0" d="M1248.4,119.4c-7.3,4.8-8.3,7.4-5.9,15.9c0.2,0.6-0.6,1-1,0.4c-4.8-7.3-7.4-8.3-15.9-5.9
				c-0.6,0.2-1-0.6-0.4-1c7.3-4.8,8.3-7.4,5.9-15.9c-0.2-0.6,0.6-1,1-0.4c4.8,7.3,7.4,8.3,15.9,5.9
				C1248.6,118.3,1248.9,119.1,1248.4,119.4z"/>
		</g>
	</g>
	<g>
		<g>
			<path class="st0" d="M1350.8,173.1c-3.7,2.4-4.1,3.7-2.9,7.9c0.1,0.3-0.3,0.5-0.5,0.2c-2.4-3.7-3.7-4.1-7.9-2.9
				c-0.3,0.1-0.5-0.3-0.2-0.5c3.7-2.4,4.1-3.7,2.9-7.9c-0.1-0.3,0.3-0.5,0.5-0.2c2.4,3.7,3.7,4.1,7.9,2.9
				C1350.9,172.5,1351.1,172.9,1350.8,173.1z"/>
		</g>
	</g>
	<g>
		<g>
			<path class="st0" d="M1352,148.7c-3.7,2.4-4.1,3.7-2.9,7.9c0.1,0.3-0.3,0.5-0.5,0.2c-2.4-3.7-3.7-4.1-7.9-2.9
				c-0.3,0.1-0.5-0.3-0.2-0.5c3.7-2.4,4.1-3.7,2.9-7.9c-0.1-0.3,0.3-0.5,0.5-0.2c2.4,3.7,3.7,4.1,7.9,2.9
				C1352.1,148.1,1352.3,148.5,1352,148.7z"/>
		</g>
	</g>
	<circle class="st0" cx="1319.6" cy="169.2" r="2.5"/>
	<circle class="st0" cx="1213.3" cy="109.8" r="2.5"/>
	<circle class="st0" cx="1333.1" cy="151.7" r="1.6"/>
	<circle class="st0" cx="1267.5" cy="159.8" r="1.6"/>
	<circle class="st0" cx="1366.4" cy="167" r="1.2"/>
	<circle class="st0" cx="1281.6" cy="119.2" r="1.2"/>
	<circle class="st0" cx="1374" cy="195.9" r="1.2"/>
	<circle class="st0" cx="1214.3" cy="143.4" r="1.2"/>
	<circle class="st0" cx="1246.8" cy="106.7" r="1.2"/>
	<circle class="st0" cx="1145.2" cy="146.7" r="1.2"/>
	<circle class="st0" cx="1187.9" cy="148.9" r="1.2"/>
</g>
<g>
	<g>
		<g>
			<path class="st0" d="M1096.5,112.9c-3.7,2.4-4.1,3.7-2.9,7.9c0.1,0.3-0.3,0.5-0.5,0.2c-2.4-3.7-3.7-4.1-7.9-2.9
				c-0.3,0.1-0.5-0.3-0.2-0.5c3.7-2.4,4.1-3.7,2.9-7.9c-0.1-0.3,0.3-0.5,0.5-0.2c2.4,3.7,3.7,4.1,7.9,2.9
				C1096.5,112.3,1096.7,112.7,1096.5,112.9z"/>
		</g>
	</g>
	<g>
		<g>
			<path class="st0" d="M1152.7,93.8c-7,4.6-8,7.2-5.6,15.2c0.2,0.6-0.6,0.9-0.9,0.4c-4.6-7-7.2-8-15.2-5.6
				c-0.6,0.2-0.9-0.6-0.4-0.9c7-4.6,8-7.2,5.6-15.2c-0.2-0.6,0.6-0.9,0.9-0.4c4.6,7,7.2,8,15.2,5.6
				C1152.9,92.7,1153.2,93.5,1152.7,93.8z"/>
		</g>
	</g>
	<g>
		<g>
			<path class="st0" d="M1012.7,108.8c-7,4.6-8,7.2-5.6,15.2c0.2,0.6-0.6,0.9-0.9,0.4c-4.6-7-7.2-8-15.2-5.6
				c-0.6,0.2-0.9-0.6-0.4-0.9c7-4.6,8-7.2,5.6-15.2c-0.2-0.6,0.6-0.9,0.9-0.4c4.6,7,7.2,8,15.2,5.6
				C1012.8,107.7,1013.2,108.4,1012.7,108.8z"/>
		</g>
	</g>
	<g>
		<g>
			<path class="st0" d="M1134.9,122.1c-3.7,2.4-4.1,3.7-2.9,7.9c0.1,0.3-0.3,0.5-0.5,0.2c-2.4-3.7-3.7-4.1-7.9-2.9
				c-0.3,0.1-0.5-0.3-0.2-0.5c3.7-2.4,4.1-3.7,2.9-7.9c-0.1-0.3,0.3-0.5,0.5-0.2c2.4,3.7,3.7,4.1,7.9,2.9
				C1135,121.6,1135.1,122,1134.9,122.1z"/>
		</g>
	</g>
	<g>
		<g>
			<path class="st0" d="M1029.5,92.7c-3.7,2.4-4.1,3.7-2.9,7.9c0.1,0.3-0.3,0.5-0.5,0.2c-2.4-3.7-3.7-4.1-7.9-2.9
				c-0.3,0.1-0.5-0.3-0.2-0.5c3.7-2.4,4.1-3.7,2.9-7.9c-0.1-0.3,0.3-0.5,0.5-0.2c2.4,3.7,3.7,4.1,7.9,2.9
				C1029.5,92.1,1029.7,92.5,1029.5,92.7z"/>
		</g>
	</g>
	<g>
		<g>
			<path class="st0" d="M1078.6,90c-7.3,4.8-8.3,7.4-5.9,15.9c0.2,0.6-0.6,1-1,0.4c-4.8-7.3-7.4-8.3-15.9-5.9c-0.6,0.2-1-0.6-0.4-1
				c7.3-4.8,8.3-7.4,5.9-15.9c-0.2-0.6,0.6-1,1-0.4c4.8,7.3,7.4,8.3,15.9,5.9C1078.7,88.8,1079.1,89.6,1078.6,90z"/>
		</g>
	</g>
	<g>
		<g>
			<path class="st0" d="M1181,143.6c-3.7,2.4-4.1,3.7-2.9,7.9c0.1,0.3-0.3,0.5-0.5,0.2c-2.4-3.7-3.7-4.1-7.9-2.9
				c-0.3,0.1-0.5-0.3-0.2-0.5c3.7-2.4,4.1-3.7,2.9-7.9c-0.1-0.3,0.3-0.5,0.5-0.2c2.4,3.7,3.7,4.1,7.9,2.9
				C1181,143,1181.2,143.4,1181,143.6z"/>
		</g>
	</g>
	<g>
		<g>
			<path class="st0" d="M1182.2,119.2c-3.7,2.4-4.1,3.7-2.9,7.9c0.1,0.3-0.3,0.5-0.5,0.2c-2.4-3.7-3.7-4.1-7.9-2.9
				c-0.3,0.1-0.5-0.3-0.2-0.5c3.7-2.4,4.1-3.7,2.9-7.9c-0.1-0.3,0.3-0.5,0.5-0.2c2.4,3.7,3.7,4.1,7.9,2.9
				C1182.3,118.7,1182.4,119.1,1182.2,119.2z"/>
		</g>
	</g>
	<circle class="st0" cx="1149.7" cy="139.8" r="2.5"/>
	<circle class="st0" cx="1043.4" cy="80.4" r="2.5"/>
	<circle class="st0" cx="1163.3" cy="122.3" r="1.6"/>
	<circle class="st0" cx="1097.6" cy="130.3" r="1.6"/>
	<circle class="st0" cx="1196.5" cy="137.5" r="1.2"/>
	<circle class="st0" cx="1111.7" cy="89.7" r="1.2"/>
	<circle class="st0" cx="1204.2" cy="166.4" r="1.2"/>
	<circle class="st0" cx="1044.4" cy="113.9" r="1.2"/>
	<circle class="st0" cx="1077" cy="77.3" r="1.2"/>
	<circle class="st0" cx="975.3" cy="117.3" r="1.2"/>
	<circle class="st0" cx="1018.1" cy="119.4" r="1.2"/>
</g>
<g>
	<g>
		<g>
			<path class="st0" d="M902.3,152.7c-3.7,2.4-4.1,3.7-2.9,7.9c0.1,0.3-0.3,0.5-0.5,0.2c-2.4-3.7-3.7-4.1-7.9-2.9
				c-0.3,0.1-0.5-0.3-0.2-0.5c3.7-2.4,4.1-3.7,2.9-7.9c-0.1-0.3,0.3-0.5,0.5-0.2c2.4,3.7,3.7,4.1,7.9,2.9
				C902.4,152.2,902.6,152.6,902.3,152.7z"/>
		</g>
	</g>
	<g>
		<g>
			<path class="st0" d="M958.6,133.7c-7,4.6-8,7.2-5.6,15.2c0.2,0.6-0.6,0.9-0.9,0.4c-4.6-7-7.2-8-15.2-5.6
				c-0.6,0.2-0.9-0.6-0.4-0.9c7-4.6,8-7.2,5.6-15.2c-0.2-0.6,0.6-0.9,0.9-0.4c4.6,7,7.2,8,15.2,5.6
				C958.8,132.6,959.1,133.4,958.6,133.7z"/>
		</g>
	</g>
	<g>
		<g>
			<path class="st0" d="M818.6,148.6c-7,4.6-8,7.2-5.6,15.2c0.2,0.6-0.6,0.9-0.9,0.4c-4.6-7-7.2-8-15.2-5.6
				c-0.6,0.2-0.9-0.6-0.4-0.9c7-4.6,8-7.2,5.6-15.2c-0.2-0.6,0.6-0.9,0.9-0.4c4.6,7,7.2,8,15.2,5.6
				C818.7,147.5,819.1,148.3,818.6,148.6z"/>
		</g>
	</g>
	<g>
		<g>
			<path class="st0" d="M940.8,162c-3.7,2.4-4.1,3.7-2.9,7.9c0.1,0.3-0.3,0.5-0.5,0.2c-2.4-3.7-3.7-4.1-7.9-2.9
				c-0.3,0.1-0.5-0.3-0.2-0.5c3.7-2.4,4.1-3.7,2.9-7.9c-0.1-0.3,0.3-0.5,0.5-0.2c2.4,3.7,3.7,4.1,7.9,2.9
				C940.8,161.4,941,161.8,940.8,162z"/>
		</g>
	</g>
	<g>
		<g>
			<path class="st0" d="M835.4,132.5c-3.7,2.4-4.1,3.7-2.9,7.9c0.1,0.3-0.3,0.5-0.5,0.2c-2.4-3.7-3.7-4.1-7.9-2.9
				c-0.3,0.1-0.5-0.3-0.2-0.5c3.7-2.4,4.1-3.7,2.9-7.9c-0.1-0.3,0.3-0.5,0.5-0.2c2.4,3.7,3.7,4.1,7.9,2.9
				C835.4,132,835.6,132.3,835.4,132.5z"/>
		</g>
	</g>
	<g>
		<g>
			<path class="st0" d="M884.4,129.8c-7.3,4.8-8.3,7.4-5.9,15.9c0.2,0.6-0.6,1-1,0.4c-4.8-7.3-7.4-8.3-15.9-5.9
				c-0.6,0.2-1-0.6-0.4-1c7.3-4.8,8.3-7.4,5.9-15.9c-0.2-0.6,0.6-1,1-0.4c4.8,7.3,7.4,8.3,15.9,5.9
				C884.6,128.7,884.9,129.5,884.4,129.8z"/>
		</g>
	</g>
	<g>
		<g>
			<path class="st0" d="M986.8,183.5c-3.7,2.4-4.1,3.7-2.9,7.9c0.1,0.3-0.3,0.5-0.5,0.2c-2.4-3.7-3.7-4.1-7.9-2.9
				c-0.3,0.1-0.5-0.3-0.2-0.5c3.7-2.4,4.1-3.7,2.9-7.9c-0.1-0.3,0.3-0.5,0.5-0.2c2.4,3.7,3.7,4.1,7.9,2.9
				C986.9,182.9,987.1,183.3,986.8,183.5z"/>
		</g>
	</g>
	<g>
		<g>
			<path class="st0" d="M988.1,159.1c-3.7,2.4-4.1,3.7-2.9,7.9c0.1,0.3-0.3,0.5-0.5,0.2c-2.4-3.7-3.7-4.1-7.9-2.9
				c-0.3,0.1-0.5-0.3-0.2-0.5c3.7-2.4,4.1-3.7,2.9-7.9c-0.1-0.3,0.3-0.5,0.5-0.2c2.4,3.7,3.7,4.1,7.9,2.9
				C988.1,158.5,988.3,158.9,988.1,159.1z"/>
		</g>
	</g>
	<circle class="st0" cx="955.6" cy="179.6" r="2.5"/>
	<circle class="st0" cx="849.3" cy="120.2" r="2.5"/>
	<circle class="st0" cx="969.1" cy="162.1" r="1.6"/>
	<circle class="st0" cx="903.5" cy="170.2" r="1.6"/>
	<circle class="st0" cx="1002.4" cy="177.4" r="1.2"/>
	<circle class="st0" cx="917.6" cy="129.6" r="1.2"/>
	<circle class="st0" cx="1010" cy="206.3" r="1.2"/>
	<circle class="st0" cx="850.3" cy="153.8" r="1.2"/>
	<circle class="st0" cx="882.8" cy="117.1" r="1.2"/>
	<circle class="st0" cx="781.2" cy="157.1" r="1.2"/>
	<circle class="st0" cx="824" cy="159.3" r="1.2"/>
</g>
<g>
	<g>
		<g>
			<path class="st0" d="M710,156.2c-3.7,2.4-4.1,3.7-2.9,7.9c0.1,0.3-0.3,0.5-0.5,0.2c-2.4-3.7-3.7-4.1-7.9-2.9
				c-0.3,0.1-0.5-0.3-0.2-0.5c3.7-2.4,4.1-3.7,2.9-7.9c-0.1-0.3,0.3-0.5,0.5-0.2c2.4,3.7,3.7,4.1,7.9,2.9
				C710,155.6,710.2,156,710,156.2z"/>
		</g>
	</g>
	<g>
		<g>
			<path class="st0" d="M766.2,137.2c-7,4.6-8,7.2-5.6,15.2c0.2,0.6-0.6,0.9-0.9,0.4c-4.6-7-7.2-8-15.2-5.6
				c-0.6,0.2-0.9-0.6-0.4-0.9c7-4.6,8-7.2,5.6-15.2c-0.2-0.6,0.6-0.9,0.9-0.4c4.6,7,7.2,8,15.2,5.6
				C766.4,136.1,766.7,136.8,766.2,137.2z"/>
		</g>
	</g>
	<g>
		<g>
			<path class="st0" d="M626.2,152.1c-7,4.6-8,7.2-5.6,15.2c0.2,0.6-0.6,0.9-0.9,0.4c-4.6-7-7.2-8-15.2-5.6
				c-0.6,0.2-0.9-0.6-0.4-0.9c7-4.6,8-7.2,5.6-15.2c-0.2-0.6,0.6-0.9,0.9-0.4c4.6,7,7.2,8,15.2,5.6
				C626.3,151,626.7,151.8,626.2,152.1z"/>
		</g>
	</g>
	<g>
		<g>
			<path class="st0" d="M748.4,165.5c-3.7,2.4-4.1,3.7-2.9,7.9c0.1,0.3-0.3,0.5-0.5,0.2c-2.4-3.7-3.7-4.1-7.9-2.9
				c-0.3,0.1-0.5-0.3-0.2-0.5c3.7-2.4,4.1-3.7,2.9-7.9c-0.1-0.3,0.3-0.5,0.5-0.2c2.4,3.7,3.7,4.1,7.9,2.9
				C748.4,164.9,748.6,165.3,748.4,165.5z"/>
		</g>
	</g>
	<g>
		<g>
			<path class="st0" d="M643,136c-3.7,2.4-4.1,3.7-2.9,7.9c0.1,0.3-0.3,0.5-0.5,0.2c-2.4-3.7-3.7-4.1-7.9-2.9
				c-0.3,0.1-0.5-0.3-0.2-0.5c3.7-2.4,4.1-3.7,2.9-7.9c-0.1-0.3,0.3-0.5,0.5-0.2c2.4,3.7,3.7,4.1,7.9,2.9
				C643,135.4,643.2,135.8,643,136z"/>
		</g>
	</g>
	<g>
		<g>
			<path class="st0" d="M692,133.3c-7.3,4.8-8.3,7.4-5.9,15.9c0.2,0.6-0.6,1-1,0.4c-4.8-7.3-7.4-8.3-15.9-5.9c-0.6,0.2-1-0.6-0.4-1
				c7.3-4.8,8.3-7.4,5.9-15.9c-0.2-0.6,0.6-1,1-0.4c4.8,7.3,7.4,8.3,15.9,5.9C692.2,132.2,692.6,133,692,133.3z"/>
		</g>
	</g>
	<g>
		<g>
			<path class="st0" d="M794.4,186.9c-3.7,2.4-4.1,3.7-2.9,7.9c0.1,0.3-0.3,0.5-0.5,0.2c-2.4-3.7-3.7-4.1-7.9-2.9
				c-0.3,0.1-0.5-0.3-0.2-0.5c3.7-2.4,4.1-3.7,2.9-7.9c-0.1-0.3,0.3-0.5,0.5-0.2c2.4,3.7,3.7,4.1,7.9,2.9
				C794.5,186.4,794.7,186.8,794.4,186.9z"/>
		</g>
	</g>
	<g>
		<g>
			<path class="st0" d="M795.7,162.6c-3.7,2.4-4.1,3.7-2.9,7.9c0.1,0.3-0.3,0.5-0.5,0.2c-2.4-3.7-3.7-4.1-7.9-2.9
				c-0.3,0.1-0.5-0.3-0.2-0.5c3.7-2.4,4.1-3.7,2.9-7.9c-0.1-0.3,0.3-0.5,0.5-0.2c2.4,3.7,3.7,4.1,7.9,2.9
				C795.7,162,795.9,162.4,795.7,162.6z"/>
		</g>
	</g>
	<circle class="st0" cx="763.2" cy="183.1" r="2.5"/>
	<circle class="st0" cx="656.9" cy="123.7" r="2.5"/>
	<circle class="st0" cx="776.8" cy="165.6" r="1.6"/>
	<circle class="st0" cx="711.1" cy="173.6" r="1.6"/>
	<circle class="st0" cx="810" cy="180.8" r="1.2"/>
	<circle class="st0" cx="725.2" cy="133.1" r="1.2"/>
	<circle class="st0" cx="817.6" cy="209.8" r="1.2"/>
	<circle class="st0" cx="657.9" cy="157.3" r="1.2"/>
	<circle class="st0" cx="690.4" cy="120.6" r="1.2"/>
	<circle class="st0" cx="588.8" cy="160.6" r="1.2"/>
	<circle class="st0" cx="631.6" cy="162.7" r="1.2"/>
</g>
<g>
	<g>
		<g>
			<path class="st0" d="M521.3,164.3c-3.7,2.4-4.1,3.7-2.9,7.9c0.1,0.3-0.3,0.5-0.5,0.2c-2.4-3.7-3.7-4.1-7.9-2.9
				c-0.3,0.1-0.5-0.3-0.2-0.5c3.7-2.4,4.1-3.7,2.9-7.9c-0.1-0.3,0.3-0.5,0.5-0.2c2.4,3.7,3.7,4.1,7.9,2.9
				C521.4,163.7,521.6,164.1,521.3,164.3z"/>
		</g>
	</g>
	<g>
		<g>
			<path class="st0" d="M577.6,145.2c-7,4.6-8,7.2-5.6,15.2c0.2,0.6-0.6,0.9-0.9,0.4c-4.6-7-7.2-8-15.2-5.6
				c-0.6,0.2-0.9-0.6-0.4-0.9c7-4.6,8-7.2,5.6-15.2c-0.2-0.6,0.6-0.9,0.9-0.4c4.6,7,7.2,8,15.2,5.6
				C577.7,144.1,578.1,144.9,577.6,145.2z"/>
		</g>
	</g>
	<g>
		<g>
			<path class="st0" d="M437.5,160.1c-7,4.6-8,7.2-5.6,15.2c0.2,0.6-0.6,0.9-0.9,0.4c-4.6-7-7.2-8-15.2-5.6
				c-0.6,0.2-0.9-0.6-0.4-0.9c7-4.6,8-7.2,5.6-15.2c-0.2-0.6,0.6-0.9,0.9-0.4c4.6,7,7.2,8,15.2,5.6C437.7,159,438,159.8,437.5,160.1
				z"/>
		</g>
	</g>
	<g>
		<g>
			<path class="st0" d="M559.7,173.5c-3.7,2.4-4.1,3.7-2.9,7.9c0.1,0.3-0.3,0.5-0.5,0.2c-2.4-3.7-3.7-4.1-7.9-2.9
				c-0.3,0.1-0.5-0.3-0.2-0.5c3.7-2.4,4.1-3.7,2.9-7.9c-0.1-0.3,0.3-0.5,0.5-0.2c2.4,3.7,3.7,4.1,7.9,2.9
				C559.8,173,560,173.3,559.7,173.5z"/>
		</g>
	</g>
	<g>
		<g>
			<path class="st0" d="M454.3,144c-3.7,2.4-4.1,3.7-2.9,7.9c0.1,0.3-0.3,0.5-0.5,0.2c-2.4-3.7-3.7-4.1-7.9-2.9
				c-0.3,0.1-0.5-0.3-0.2-0.5c3.7-2.4,4.1-3.7,2.9-7.9c-0.1-0.3,0.3-0.5,0.5-0.2c2.4,3.7,3.7,4.1,7.9,2.9
				C454.4,143.5,454.6,143.9,454.3,144z"/>
		</g>
	</g>
	<g>
		<g>
			<path class="st0" d="M503.4,141.3c-7.3,4.8-8.3,7.4-5.9,15.9c0.2,0.6-0.6,1-1,0.4c-4.8-7.3-7.4-8.3-15.9-5.9
				c-0.6,0.2-1-0.6-0.4-1c7.3-4.8,8.3-7.4,5.9-15.9c-0.2-0.6,0.6-1,1-0.4c4.8,7.3,7.4,8.3,15.9,5.9
				C503.5,140.2,503.9,141,503.4,141.3z"/>
		</g>
	</g>
	<g>
		<g>
			<path class="st0" d="M605.8,195c-3.7,2.4-4.1,3.7-2.9,7.9c0.1,0.3-0.3,0.5-0.5,0.2c-2.4-3.7-3.7-4.1-7.9-2.9
				c-0.3,0.1-0.5-0.3-0.2-0.5c3.7-2.4,4.1-3.7,2.9-7.9c-0.1-0.3,0.3-0.5,0.5-0.2c2.4,3.7,3.7,4.1,7.9,2.9
				C605.9,194.4,606,194.8,605.8,195z"/>
		</g>
	</g>
	<g>
		<g>
			<path class="st0" d="M607,170.6c-3.7,2.4-4.1,3.7-2.9,7.9c0.1,0.3-0.3,0.5-0.5,0.2c-2.4-3.7-3.7-4.1-7.9-2.9
				c-0.3,0.1-0.5-0.3-0.2-0.5c3.7-2.4,4.1-3.7,2.9-7.9c-0.1-0.3,0.3-0.5,0.5-0.2c2.4,3.7,3.7,4.1,7.9,2.9
				C607.1,170,607.3,170.4,607,170.6z"/>
		</g>
	</g>
	<circle class="st0" cx="574.6" cy="191.1" r="2.5"/>
	<circle class="st0" cx="468.2" cy="131.7" r="2.5"/>
	<circle class="st0" cx="588.1" cy="173.6" r="1.6"/>
	<circle class="st0" cx="522.4" cy="181.7" r="1.6"/>
	<circle class="st0" cx="621.4" cy="188.9" r="1.2"/>
	<circle class="st0" cx="536.5" cy="141.1" r="1.2"/>
	<circle class="st0" cx="629" cy="217.8" r="1.2"/>
	<circle class="st0" cx="469.2" cy="165.3" r="1.2"/>
	<circle class="st0" cx="501.8" cy="128.6" r="1.2"/>
	<circle class="st0" cx="400.2" cy="168.6" r="1.2"/>
	<circle class="st0" cx="442.9" cy="170.8" r="1.2"/>
</g>
<g>
	<g>
		<g>
			<path class="st0" d="M285.3,133.7c-3.7,2.4-4.1,3.7-2.9,7.9c0.1,0.3-0.3,0.5-0.5,0.2c-2.4-3.7-3.7-4.1-7.9-2.9
				c-0.3,0.1-0.5-0.3-0.2-0.5c3.7-2.4,4.1-3.7,2.9-7.9c-0.1-0.3,0.3-0.5,0.5-0.2c2.4,3.7,3.7,4.1,7.9,2.9
				C285.4,133.1,285.6,133.5,285.3,133.7z"/>
		</g>
	</g>
	<g>
		<g>
			<path class="st0" d="M341.6,114.6c-7,4.6-8,7.2-5.6,15.2c0.2,0.6-0.6,0.9-0.9,0.4c-4.6-7-7.2-8-15.2-5.6
				c-0.6,0.2-0.9-0.6-0.4-0.9c7-4.6,8-7.2,5.6-15.2c-0.2-0.6,0.6-0.9,0.9-0.4c4.6,7,7.2,8,15.2,5.6
				C341.7,113.5,342.1,114.3,341.6,114.6z"/>
		</g>
	</g>
	<g>
		<g>
			<path class="st0" d="M201.5,129.6c-7,4.6-8,7.2-5.6,15.2c0.2,0.6-0.6,0.9-0.9,0.4c-4.6-7-7.2-8-15.2-5.6
				c-0.6,0.2-0.9-0.6-0.4-0.9c7-4.6,8-7.2,5.6-15.2c-0.2-0.6,0.6-0.9,0.9-0.4c4.6,7,7.2,8,15.2,5.6
				C201.7,128.5,202,129.2,201.5,129.6z"/>
		</g>
	</g>
	<g>
		<g>
			<path class="st0" d="M323.7,142.9c-3.7,2.4-4.1,3.7-2.9,7.9c0.1,0.3-0.3,0.5-0.5,0.2c-2.4-3.7-3.7-4.1-7.9-2.9
				c-0.3,0.1-0.5-0.3-0.2-0.5c3.7-2.4,4.1-3.7,2.9-7.9c-0.1-0.3,0.3-0.5,0.5-0.2c2.4,3.7,3.7,4.1,7.9,2.9
				C323.8,142.4,324,142.8,323.7,142.9z"/>
		</g>
	</g>
	<g>
		<g>
			<path class="st0" d="M218.3,113.5c-3.7,2.4-4.1,3.7-2.9,7.9c0.1,0.3-0.3,0.5-0.5,0.2c-2.4-3.7-3.7-4.1-7.9-2.9
				c-0.3,0.1-0.5-0.3-0.2-0.5c3.7-2.4,4.1-3.7,2.9-7.9c-0.1-0.3,0.3-0.5,0.5-0.2c2.4,3.7,3.7,4.1,7.9,2.9
				C218.4,112.9,218.6,113.3,218.3,113.5z"/>
		</g>
	</g>
	<g>
		<g>
			<path class="st0" d="M267.4,110.8c-7.3,4.8-8.3,7.4-5.9,15.9c0.2,0.6-0.6,1-1,0.4c-4.8-7.3-7.4-8.3-15.9-5.9
				c-0.6,0.2-1-0.6-0.4-1c7.3-4.8,8.3-7.4,5.9-15.9c-0.2-0.6,0.6-1,1-0.4c4.8,7.3,7.4,8.3,15.9,5.9
				C267.5,109.6,267.9,110.4,267.4,110.8z"/>
		</g>
	</g>
	<g>
		<g>
			<path class="st0" d="M369.8,164.4c-3.7,2.4-4.1,3.7-2.9,7.9c0.1,0.3-0.3,0.5-0.5,0.2c-2.4-3.7-3.7-4.1-7.9-2.9
				c-0.3,0.1-0.5-0.3-0.2-0.5c3.7-2.4,4.1-3.7,2.9-7.9c-0.1-0.3,0.3-0.5,0.5-0.2c2.4,3.7,3.7,4.1,7.9,2.9
				C369.9,163.8,370.1,164.2,369.8,164.4z"/>
		</g>
	</g>
	<g>
		<g>
			<path class="st0" d="M371,140c-3.7,2.4-4.1,3.7-2.9,7.9c0.1,0.3-0.3,0.5-0.5,0.2c-2.4-3.7-3.7-4.1-7.9-2.9
				c-0.3,0.1-0.5-0.3-0.2-0.5c3.7-2.4,4.1-3.7,2.9-7.9c-0.1-0.3,0.3-0.5,0.5-0.2c2.4,3.7,3.7,4.1,7.9,2.9
				C371.1,139.5,371.3,139.9,371,140z"/>
		</g>
	</g>
	<circle class="st0" cx="338.6" cy="160.6" r="2.5"/>
	<circle class="st0" cx="232.3" cy="101.2" r="2.5"/>
	<circle class="st0" cx="352.1" cy="143.1" r="1.6"/>
	<circle class="st0" cx="286.4" cy="151.1" r="1.6"/>
	<circle class="st0" cx="385.4" cy="158.3" r="1.2"/>
	<circle class="st0" cx="300.6" cy="110.5" r="1.2"/>
	<circle class="st0" cx="393" cy="187.2" r="1.2"/>
	<circle class="st0" cx="233.2" cy="134.7" r="1.2"/>
	<circle class="st0" cx="265.8" cy="98.1" r="1.2"/>
	<circle class="st0" cx="164.2" cy="138.1" r="1.2"/>
	<circle class="st0" cx="206.9" cy="140.2" r="1.2"/>
</g>
<g>
	<g>
		<g>
			<path class="st0" d="M122.4,130.2c-3.7,2.4-4.1,3.7-2.9,7.9c0.1,0.3-0.3,0.5-0.5,0.2c-2.4-3.7-3.7-4.1-7.9-2.9
				c-0.3,0.1-0.5-0.3-0.2-0.5c3.7-2.4,4.1-3.7,2.9-7.9c-0.1-0.3,0.3-0.5,0.5-0.2c2.4,3.7,3.7,4.1,7.9,2.9
				C122.5,129.6,122.6,130,122.4,130.2z"/>
		</g>
	</g>
	<g>
		<g>
			<path class="st0" d="M178.7,111.2c-7,4.6-8,7.2-5.6,15.2c0.2,0.6-0.6,0.9-0.9,0.4c-4.6-7-7.2-8-15.2-5.6
				c-0.6,0.2-0.9-0.6-0.4-0.9c7-4.6,8-7.2,5.6-15.2c-0.2-0.6,0.6-0.9,0.9-0.4c4.6,7,7.2,8,15.2,5.6
				C178.8,110.1,179.2,110.8,178.7,111.2z"/>
		</g>
	</g>
	<g>
		<g>
			<path class="st0" d="M38.6,126.1c-7,4.6-8,7.2-5.6,15.2c0.2,0.6-0.6,0.9-0.9,0.4c-4.6-7-7.2-8-15.2-5.6c-0.6,0.2-0.9-0.6-0.4-0.9
				c7-4.6,8-7.2,5.6-15.2c-0.2-0.6,0.6-0.9,0.9-0.4c4.6,7,7.2,8,15.2,5.6C38.7,125,39.1,125.8,38.6,126.1z"/>
		</g>
	</g>
	<g>
		<g>
			<path class="st0" d="M160.8,139.5c-3.7,2.4-4.1,3.7-2.9,7.9c0.1,0.3-0.3,0.5-0.5,0.2c-2.4-3.7-3.7-4.1-7.9-2.9
				c-0.3,0.1-0.5-0.3-0.2-0.5c3.7-2.4,4.1-3.7,2.9-7.9c-0.1-0.3,0.3-0.5,0.5-0.2c2.4,3.7,3.7,4.1,7.9,2.9
				C160.9,138.9,161,139.3,160.8,139.5z"/>
		</g>
	</g>
	<g>
		<g>
			<path class="st0" d="M55.4,110c-3.7,2.4-4.1,3.7-2.9,7.9c0.1,0.3-0.3,0.5-0.5,0.2c-2.4-3.7-3.7-4.1-7.9-2.9
				c-0.3,0.1-0.5-0.3-0.2-0.5c3.7-2.4,4.1-3.7,2.9-7.9c-0.1-0.3,0.3-0.5,0.5-0.2c2.4,3.7,3.7,4.1,7.9,2.9
				C55.5,109.4,55.6,109.8,55.4,110z"/>
		</g>
	</g>
	<g>
		<g>
			<path class="st0" d="M104.5,107.3c-7.3,4.8-8.3,7.4-5.9,15.9c0.2,0.6-0.6,1-1,0.4c-4.8-7.3-7.4-8.3-15.9-5.9
				c-0.6,0.2-1-0.6-0.4-1c7.3-4.8,8.3-7.4,5.9-15.9c-0.2-0.6,0.6-1,1-0.4c4.8,7.3,7.4,8.3,15.9,5.9C104.6,106.2,105,107,104.5,107.3
				z"/>
		</g>
	</g>
	<g>
		<g>
			<path class="st0" d="M206.9,160.9c-3.7,2.4-4.1,3.7-2.9,7.9c0.1,0.3-0.3,0.5-0.5,0.2c-2.4-3.7-3.7-4.1-7.9-2.9
				c-0.3,0.1-0.5-0.3-0.2-0.5c3.7-2.4,4.1-3.7,2.9-7.9c-0.1-0.3,0.3-0.5,0.5-0.2c2.4,3.7,3.7,4.1,7.9,2.9
				C206.9,160.4,207.1,160.8,206.9,160.9z"/>
		</g>
	</g>
	<g>
		<g>
			<path class="st0" d="M208.1,136.6c-3.7,2.4-4.1,3.7-2.9,7.9c0.1,0.3-0.3,0.5-0.5,0.2c-2.4-3.7-3.7-4.1-7.9-2.9
				c-0.3,0.1-0.5-0.3-0.2-0.5c3.7-2.4,4.1-3.7,2.9-7.9c-0.1-0.3,0.3-0.5,0.5-0.2c2.4,3.7,3.7,4.1,7.9,2.9
				C208.2,136,208.4,136.4,208.1,136.6z"/>
		</g>
	</g>
	<circle class="st0" cx="175.6" cy="157.1" r="2.5"/>
	<circle class="st0" cx="69.3" cy="97.7" r="2.5"/>
	<circle class="st0" cx="189.2" cy="139.6" r="1.6"/>
	<circle class="st0" cx="123.5" cy="147.6" r="1.6"/>
	<circle class="st0" cx="222.4" cy="154.8" r="1.2"/>
	<circle class="st0" cx="137.6" cy="107.1" r="1.2"/>
	<circle class="st0" cx="230.1" cy="183.8" r="1.2"/>
	<circle class="st0" cx="70.3" cy="131.3" r="1.2"/>
	<circle class="st0" cx="102.9" cy="94.6" r="1.2"/>
	<circle class="st0" cx="1.2" cy="134.6" r="1.2"/>
	<circle class="st0" cx="44" cy="136.7" r="1.2"/>
</g>
<g>
	<g>
		<g>
			<path class="st0" d="M1645.8,43.3c-3.7,2.4-4.1,3.7-2.9,7.9c0.1,0.3-0.3,0.5-0.5,0.2c-2.4-3.7-3.7-4.1-7.9-2.9
				c-0.3,0.1-0.5-0.3-0.2-0.5c3.7-2.4,4.1-3.7,2.9-7.9c-0.1-0.3,0.3-0.5,0.5-0.2c2.4,3.7,3.7,4.1,7.9,2.9
				C1645.9,42.8,1646.1,43.2,1645.8,43.3z"/>
		</g>
	</g>
	<g>
		<g>
			<path class="st0" d="M1702.1,24.3c-7,4.6-8,7.2-5.6,15.2c0.2,0.6-0.6,0.9-0.9,0.4c-4.6-7-7.2-8-15.2-5.6
				c-0.6,0.2-0.9-0.6-0.4-0.9c7-4.6,8-7.2,5.6-15.2c-0.2-0.6,0.6-0.9,0.9-0.4c4.6,7,7.2,8,15.2,5.6
				C1702.2,23.2,1702.6,24,1702.1,24.3z"/>
		</g>
	</g>
	<g>
		<g>
			<path class="st0" d="M1562,39.2c-7,4.6-8,7.2-5.6,15.2c0.2,0.6-0.6,0.9-0.9,0.4c-4.6-7-7.2-8-15.2-5.6c-0.6,0.2-0.9-0.6-0.4-0.9
				c7-4.6,8-7.2,5.6-15.2c-0.2-0.6,0.6-0.9,0.9-0.4c4.6,7,7.2,8,15.2,5.6C1562.2,38.1,1562.5,38.9,1562,39.2z"/>
		</g>
	</g>
	<g>
		<g>
			<path class="st0" d="M1684.2,52.6c-3.7,2.4-4.1,3.7-2.9,7.9c0.1,0.3-0.3,0.5-0.5,0.2c-2.4-3.7-3.7-4.1-7.9-2.9
				c-0.3,0.1-0.5-0.3-0.2-0.5c3.7-2.4,4.1-3.7,2.9-7.9c-0.1-0.3,0.3-0.5,0.5-0.2c2.4,3.7,3.7,4.1,7.9,2.9
				C1684.3,52,1684.5,52.4,1684.2,52.6z"/>
		</g>
	</g>
	<g>
		<g>
			<path class="st0" d="M1578.8,23.1c-3.7,2.4-4.1,3.7-2.9,7.9c0.1,0.3-0.3,0.5-0.5,0.2c-2.4-3.7-3.7-4.1-7.9-2.9
				c-0.3,0.1-0.5-0.3-0.2-0.5c3.7-2.4,4.1-3.7,2.9-7.9c-0.1-0.3,0.3-0.5,0.5-0.2c2.4,3.7,3.7,4.1,7.9,2.9
				C1578.9,22.6,1579.1,23,1578.8,23.1z"/>
		</g>
	</g>
	<g>
		<g>
			<path class="st0" d="M1627.9,20.4c-7.3,4.8-8.3,7.4-5.9,15.9c0.2,0.6-0.6,1-1,0.4c-4.8-7.3-7.4-8.3-15.9-5.9
				c-0.6,0.2-1-0.6-0.4-1c7.3-4.8,8.3-7.4,5.9-15.9c-0.2-0.6,0.6-1,1-0.4c4.8,7.3,7.4,8.3,15.9,5.9
				C1628,19.3,1628.4,20.1,1627.9,20.4z"/>
		</g>
	</g>
	<g>
		<g>
			<path class="st0" d="M1730.3,74.1c-3.7,2.4-4.1,3.7-2.9,7.9c0.1,0.3-0.3,0.5-0.5,0.2c-2.4-3.7-3.7-4.1-7.9-2.9
				c-0.3,0.1-0.5-0.3-0.2-0.5c3.7-2.4,4.1-3.7,2.9-7.9c-0.1-0.3,0.3-0.5,0.5-0.2c2.4,3.7,3.7,4.1,7.9,2.9
				C1730.4,73.5,1730.6,73.9,1730.3,74.1z"/>
		</g>
	</g>
	<g>
		<g>
			<path class="st0" d="M1731.5,49.7c-3.7,2.4-4.1,3.7-2.9,7.9c0.1,0.3-0.3,0.5-0.5,0.2c-2.4-3.7-3.7-4.1-7.9-2.9
				c-0.3,0.1-0.5-0.3-0.2-0.5c3.7-2.4,4.1-3.7,2.9-7.9c-0.1-0.3,0.3-0.5,0.5-0.2c2.4,3.7,3.7,4.1,7.9,2.9
				C1731.6,49.1,1731.8,49.5,1731.5,49.7z"/>
		</g>
	</g>
	<circle class="st0" cx="1699.1" cy="70.2" r="2.5"/>
	<circle class="st0" cx="1592.7" cy="10.8" r="2.5"/>
	<circle class="st0" cx="1712.6" cy="52.7" r="1.6"/>
	<circle class="st0" cx="1646.9" cy="60.8" r="1.6"/>
	<circle class="st0" cx="1745.9" cy="68" r="1.2"/>
	<circle class="st0" cx="1661.1" cy="20.2" r="1.2"/>
	<circle class="st0" cx="1753.5" cy="96.9" r="1.2"/>
	<circle class="st0" cx="1593.7" cy="44.4" r="1.2"/>
	<circle class="st0" cx="1626.3" cy="7.7" r="1.2"/>
	<circle class="st0" cx="1524.7" cy="47.7" r="1.2"/>
	<circle class="st0" cx="1567.4" cy="49.9" r="1.2"/>
</g>
<g>
	<g>
		<g>
			<path class="st0" d="M1459.3,36.9c-3.7,2.4-4.1,3.7-2.9,7.9c0.1,0.3-0.3,0.5-0.5,0.2c-2.4-3.7-3.7-4.1-7.9-2.9
				c-0.3,0.1-0.5-0.3-0.2-0.5c3.7-2.4,4.1-3.7,2.9-7.9c-0.1-0.3,0.3-0.5,0.5-0.2c2.4,3.7,3.7,4.1,7.9,2.9
				C1459.4,36.3,1459.6,36.7,1459.3,36.9z"/>
		</g>
	</g>
	<g>
		<g>
			<path class="st0" d="M1515.6,17.8c-7,4.6-8,7.2-5.6,15.2c0.2,0.6-0.6,0.9-0.9,0.4c-4.6-7-7.2-8-15.2-5.6
				c-0.6,0.2-0.9-0.6-0.4-0.9c7-4.6,8-7.2,5.6-15.2c-0.2-0.6,0.6-0.9,0.9-0.4c4.6,7,7.2,8,15.2,5.6
				C1515.7,16.7,1516.1,17.5,1515.6,17.8z"/>
		</g>
	</g>
	<g>
		<g>
			<path class="st0" d="M1375.5,32.7c-7,4.6-8,7.2-5.6,15.2c0.2,0.6-0.6,0.9-0.9,0.4c-4.6-7-7.2-8-15.2-5.6
				c-0.6,0.2-0.9-0.6-0.4-0.9c7-4.6,8-7.2,5.6-15.2c-0.2-0.6,0.6-0.9,0.9-0.4c4.6,7,7.2,8,15.2,5.6
				C1375.7,31.7,1376,32.4,1375.5,32.7z"/>
		</g>
	</g>
	<g>
		<g>
			<path class="st0" d="M1497.7,46.1c-3.7,2.4-4.1,3.7-2.9,7.9c0.1,0.3-0.3,0.5-0.5,0.2c-2.4-3.7-3.7-4.1-7.9-2.9
				c-0.3,0.1-0.5-0.3-0.2-0.5c3.7-2.4,4.1-3.7,2.9-7.9c-0.1-0.3,0.3-0.5,0.5-0.2c2.4,3.7,3.7,4.1,7.9,2.9
				C1497.8,45.6,1498,46,1497.7,46.1z"/>
		</g>
	</g>
	<g>
		<g>
			<path class="st0" d="M1392.3,16.6c-3.7,2.4-4.1,3.7-2.9,7.9c0.1,0.3-0.3,0.5-0.5,0.2c-2.4-3.7-3.7-4.1-7.9-2.9
				c-0.3,0.1-0.5-0.3-0.2-0.5c3.7-2.4,4.1-3.7,2.9-7.9c-0.1-0.3,0.3-0.5,0.5-0.2c2.4,3.7,3.7,4.1,7.9,2.9
				C1392.4,16.1,1392.6,16.5,1392.3,16.6z"/>
		</g>
	</g>
	<g>
		<g>
			<path class="st0" d="M1441.4,14c-7.3,4.8-8.3,7.4-5.9,15.9c0.2,0.6-0.6,1-1,0.4c-4.8-7.3-7.4-8.3-15.9-5.9c-0.6,0.2-1-0.6-0.4-1
				c7.3-4.8,8.3-7.4,5.9-15.9c-0.2-0.6,0.6-1,1-0.4c4.8,7.3,7.4,8.3,15.9,5.9C1441.5,12.8,1441.9,13.6,1441.4,14z"/>
		</g>
	</g>
	<g>
		<g>
			<path class="st0" d="M1543.8,67.6c-3.7,2.4-4.1,3.7-2.9,7.9c0.1,0.3-0.3,0.5-0.5,0.2c-2.4-3.7-3.7-4.1-7.9-2.9
				c-0.3,0.1-0.5-0.3-0.2-0.5c3.7-2.4,4.1-3.7,2.9-7.9c-0.1-0.3,0.3-0.5,0.5-0.2c2.4,3.7,3.7,4.1,7.9,2.9
				C1543.9,67,1544,67.4,1543.8,67.6z"/>
		</g>
	</g>
	<g>
		<g>
			<path class="st0" d="M1545,43.2c-3.7,2.4-4.1,3.7-2.9,7.9c0.1,0.3-0.3,0.5-0.5,0.2c-2.4-3.7-3.7-4.1-7.9-2.9
				c-0.3,0.1-0.5-0.3-0.2-0.5c3.7-2.4,4.1-3.7,2.9-7.9c-0.1-0.3,0.3-0.5,0.5-0.2c2.4,3.7,3.7,4.1,7.9,2.9
				C1545.1,42.7,1545.3,43.1,1545,43.2z"/>
		</g>
	</g>
	<circle class="st0" cx="1512.6" cy="63.8" r="2.5"/>
	<circle class="st0" cx="1406.2" cy="4.4" r="2.5"/>
	<circle class="st0" cx="1526.1" cy="46.3" r="1.6"/>
	<circle class="st0" cx="1460.4" cy="54.3" r="1.6"/>
	<circle class="st0" cx="1559.4" cy="61.5" r="1.2"/>
	<circle class="st0" cx="1474.5" cy="13.7" r="1.2"/>
	<circle class="st0" cx="1567" cy="90.4" r="1.2"/>
	<circle class="st0" cx="1407.2" cy="37.9" r="1.2"/>
	<circle class="st0" cx="1439.8" cy="1.2" r="1.2"/>
	<circle class="st0" cx="1338.2" cy="41.3" r="1.2"/>
	<circle class="st0" cx="1380.9" cy="43.4" r="1.2"/>
</g>
<g>
	<g>
		<g>
			<path class="st0" d="M1269.3,36.9c-3.7,2.4-4.1,3.7-2.9,7.9c0.1,0.3-0.3,0.5-0.5,0.2c-2.4-3.7-3.7-4.1-7.9-2.9
				c-0.3,0.1-0.5-0.3-0.2-0.5c3.7-2.4,4.1-3.7,2.9-7.9c-0.1-0.3,0.3-0.5,0.5-0.2c2.4,3.7,3.7,4.1,7.9,2.9
				C1269.4,36.3,1269.6,36.7,1269.3,36.9z"/>
		</g>
	</g>
	<g>
		<g>
			<path class="st0" d="M1325.6,17.8c-7,4.6-8,7.2-5.6,15.2c0.2,0.6-0.6,0.9-0.9,0.4c-4.6-7-7.2-8-15.2-5.6
				c-0.6,0.2-0.9-0.6-0.4-0.9c7-4.6,8-7.2,5.6-15.2c-0.2-0.6,0.6-0.9,0.9-0.4c4.6,7,7.2,8,15.2,5.6
				C1325.8,16.7,1326.1,17.5,1325.6,17.8z"/>
		</g>
	</g>
	<g>
		<g>
			<path class="st0" d="M1185.6,32.7c-7,4.6-8,7.2-5.6,15.2c0.2,0.6-0.6,0.9-0.9,0.4c-4.6-7-7.2-8-15.2-5.6
				c-0.6,0.2-0.9-0.6-0.4-0.9c7-4.6,8-7.2,5.6-15.2c-0.2-0.6,0.6-0.9,0.9-0.4c4.6,7,7.2,8,15.2,5.6
				C1185.7,31.7,1186.1,32.4,1185.6,32.7z"/>
		</g>
	</g>
	<g>
		<g>
			<path class="st0" d="M1307.8,46.1c-3.7,2.4-4.1,3.7-2.9,7.9c0.1,0.3-0.3,0.5-0.5,0.2c-2.4-3.7-3.7-4.1-7.9-2.9
				c-0.3,0.1-0.5-0.3-0.2-0.5c3.7-2.4,4.1-3.7,2.9-7.9c-0.1-0.3,0.3-0.5,0.5-0.2c2.4,3.7,3.7,4.1,7.9,2.9
				C1307.8,45.6,1308,46,1307.8,46.1z"/>
		</g>
	</g>
	<g>
		<g>
			<path class="st0" d="M1202.3,16.6c-3.7,2.4-4.1,3.7-2.9,7.9c0.1,0.3-0.3,0.5-0.5,0.2c-2.4-3.7-3.7-4.1-7.9-2.9
				c-0.3,0.1-0.5-0.3-0.2-0.5c3.7-2.4,4.1-3.7,2.9-7.9c-0.1-0.3,0.3-0.5,0.5-0.2c2.4,3.7,3.7,4.1,7.9,2.9
				C1202.4,16.1,1202.6,16.5,1202.3,16.6z"/>
		</g>
	</g>
	<g>
		<g>
			<path class="st0" d="M1251.4,14c-7.3,4.8-8.3,7.4-5.9,15.9c0.2,0.6-0.6,1-1,0.4c-4.8-7.3-7.4-8.3-15.9-5.9c-0.6,0.2-1-0.6-0.4-1
				c7.3-4.8,8.3-7.4,5.9-15.9c-0.2-0.6,0.6-1,1-0.4c4.8,7.3,7.4,8.3,15.9,5.9C1251.6,12.8,1251.9,13.6,1251.4,14z"/>
		</g>
	</g>
	<g>
		<g>
			<path class="st0" d="M1353.8,67.6c-3.7,2.4-4.1,3.7-2.9,7.9c0.1,0.3-0.3,0.5-0.5,0.2c-2.4-3.7-3.7-4.1-7.9-2.9
				c-0.3,0.1-0.5-0.3-0.2-0.5c3.7-2.4,4.1-3.7,2.9-7.9c-0.1-0.3,0.3-0.5,0.5-0.2c2.4,3.7,3.7,4.1,7.9,2.9
				C1353.9,67,1354.1,67.4,1353.8,67.6z"/>
		</g>
	</g>
	<g>
		<g>
			<path class="st0" d="M1355.1,43.2c-3.7,2.4-4.1,3.7-2.9,7.9c0.1,0.3-0.3,0.5-0.5,0.2c-2.4-3.7-3.7-4.1-7.9-2.9
				c-0.3,0.1-0.5-0.3-0.2-0.5c3.7-2.4,4.1-3.7,2.9-7.9c-0.1-0.3,0.3-0.5,0.5-0.2c2.4,3.7,3.7,4.1,7.9,2.9
				C1355.1,42.7,1355.3,43.1,1355.1,43.2z"/>
		</g>
	</g>
	<circle class="st0" cx="1322.6" cy="63.8" r="2.5"/>
	<circle class="st0" cx="1216.3" cy="4.4" r="2.5"/>
	<circle class="st0" cx="1336.1" cy="46.3" r="1.6"/>
	<circle class="st0" cx="1270.5" cy="54.3" r="1.6"/>
	<circle class="st0" cx="1369.4" cy="61.5" r="1.2"/>
	<circle class="st0" cx="1284.6" cy="13.7" r="1.2"/>
	<circle class="st0" cx="1377" cy="90.4" r="1.2"/>
	<circle class="st0" cx="1217.3" cy="37.9" r="1.2"/>
	<circle class="st0" cx="1249.8" cy="1.2" r="1.2"/>
	<circle class="st0" cx="1148.2" cy="41.3" r="1.2"/>
	<circle class="st0" cx="1191" cy="43.4" r="1.2"/>
</g>
<g>
	<g>
		<g>
			<path class="st0" d="M1096.5,36.9c-3.7,2.4-4.1,3.7-2.9,7.9c0.1,0.3-0.3,0.5-0.5,0.2c-2.4-3.7-3.7-4.1-7.9-2.9
				c-0.3,0.1-0.5-0.3-0.2-0.5c3.7-2.4,4.1-3.7,2.9-7.9c-0.1-0.3,0.3-0.5,0.5-0.2c2.4,3.7,3.7,4.1,7.9,2.9
				C1096.5,36.3,1096.7,36.7,1096.5,36.9z"/>
		</g>
	</g>
	<g>
		<g>
			<path class="st0" d="M1152.7,17.8c-7,4.6-8,7.2-5.6,15.2c0.2,0.6-0.6,0.9-0.9,0.4c-4.6-7-7.2-8-15.2-5.6
				c-0.6,0.2-0.9-0.6-0.4-0.9c7-4.6,8-7.2,5.6-15.2c-0.2-0.6,0.6-0.9,0.9-0.4c4.6,7,7.2,8,15.2,5.6
				C1152.9,16.7,1153.2,17.5,1152.7,17.8z"/>
		</g>
	</g>
	<g>
		<g>
			<path class="st0" d="M1012.7,32.7c-7,4.6-8,7.2-5.6,15.2c0.2,0.6-0.6,0.9-0.9,0.4c-4.6-7-7.2-8-15.2-5.6
				c-0.6,0.2-0.9-0.6-0.4-0.9c7-4.6,8-7.2,5.6-15.2c-0.2-0.6,0.6-0.9,0.9-0.4c4.6,7,7.2,8,15.2,5.6
				C1012.8,31.7,1013.2,32.4,1012.7,32.7z"/>
		</g>
	</g>
	<g>
		<g>
			<path class="st0" d="M1134.9,46.1c-3.7,2.4-4.1,3.7-2.9,7.9c0.1,0.3-0.3,0.5-0.5,0.2c-2.4-3.7-3.7-4.1-7.9-2.9
				c-0.3,0.1-0.5-0.3-0.2-0.5c3.7-2.4,4.1-3.7,2.9-7.9c-0.1-0.3,0.3-0.5,0.5-0.2c2.4,3.7,3.7,4.1,7.9,2.9
				C1135,45.6,1135.1,46,1134.9,46.1z"/>
		</g>
	</g>
	<g>
		<g>
			<path class="st0" d="M1029.5,16.6c-3.7,2.4-4.1,3.7-2.9,7.9c0.1,0.3-0.3,0.5-0.5,0.2c-2.4-3.7-3.7-4.1-7.9-2.9
				c-0.3,0.1-0.5-0.3-0.2-0.5c3.7-2.4,4.1-3.7,2.9-7.9c-0.1-0.3,0.3-0.5,0.5-0.2c2.4,3.7,3.7,4.1,7.9,2.9
				C1029.5,16.1,1029.7,16.5,1029.5,16.6z"/>
		</g>
	</g>
	<g>
		<g>
			<path class="st0" d="M1078.6,14c-7.3,4.8-8.3,7.4-5.9,15.9c0.2,0.6-0.6,1-1,0.4c-4.8-7.3-7.4-8.3-15.9-5.9c-0.6,0.2-1-0.6-0.4-1
				c7.3-4.8,8.3-7.4,5.9-15.9c-0.2-0.6,0.6-1,1-0.4c4.8,7.3,7.4,8.3,15.9,5.9C1078.7,12.8,1079.1,13.6,1078.6,14z"/>
		</g>
	</g>
	<g>
		<g>
			<path class="st0" d="M1181,67.6c-3.7,2.4-4.1,3.7-2.9,7.9c0.1,0.3-0.3,0.5-0.5,0.2c-2.4-3.7-3.7-4.1-7.9-2.9
				c-0.3,0.1-0.5-0.3-0.2-0.5c3.7-2.4,4.1-3.7,2.9-7.9c-0.1-0.3,0.3-0.5,0.5-0.2c2.4,3.7,3.7,4.1,7.9,2.9
				C1181,67,1181.2,67.4,1181,67.6z"/>
		</g>
	</g>
	<g>
		<g>
			<path class="st0" d="M1182.2,43.2c-3.7,2.4-4.1,3.7-2.9,7.9c0.1,0.3-0.3,0.5-0.5,0.2c-2.4-3.7-3.7-4.1-7.9-2.9
				c-0.3,0.1-0.5-0.3-0.2-0.5c3.7-2.4,4.1-3.7,2.9-7.9c-0.1-0.3,0.3-0.5,0.5-0.2c2.4,3.7,3.7,4.1,7.9,2.9
				C1182.3,42.7,1182.4,43.1,1182.2,43.2z"/>
		</g>
	</g>
	<circle class="st0" cx="1149.7" cy="63.8" r="2.5"/>
	<circle class="st0" cx="1043.4" cy="4.4" r="2.5"/>
	<circle class="st0" cx="1163.3" cy="46.3" r="1.6"/>
	<circle class="st0" cx="1097.6" cy="54.3" r="1.6"/>
	<circle class="st0" cx="1196.5" cy="61.5" r="1.2"/>
	<circle class="st0" cx="1111.7" cy="13.7" r="1.2"/>
	<circle class="st0" cx="1204.2" cy="90.4" r="1.2"/>
	<circle class="st0" cx="1044.4" cy="37.9" r="1.2"/>
	<circle class="st0" cx="1077" cy="1.2" r="1.2"/>
	<circle class="st0" cx="975.3" cy="41.3" r="1.2"/>
	<circle class="st0" cx="1018.1" cy="43.4" r="1.2"/>
</g>
<g>
	<g>
		<g>
			<path class="st0" d="M924.9,78.2c-3.7,2.4-4.1,3.7-2.9,7.9c0.1,0.3-0.3,0.5-0.5,0.2c-2.4-3.7-3.7-4.1-7.9-2.9
				c-0.3,0.1-0.5-0.3-0.2-0.5c3.7-2.4,4.1-3.7,2.9-7.9c-0.1-0.3,0.3-0.5,0.5-0.2c2.4,3.7,3.7,4.1,7.9,2.9
				C925,77.6,925.1,78,924.9,78.2z"/>
		</g>
	</g>
	<g>
		<g>
			<path class="st0" d="M981.2,59.2c-7,4.6-8,7.2-5.6,15.2c0.2,0.6-0.6,0.9-0.9,0.4c-4.6-7-7.2-8-15.2-5.6c-0.6,0.2-0.9-0.6-0.4-0.9
				c7-4.6,8-7.2,5.6-15.2c-0.2-0.6,0.6-0.9,0.9-0.4c4.6,7,7.2,8,15.2,5.6C981.3,58.1,981.6,58.8,981.2,59.2z"/>
		</g>
	</g>
	<g>
		<g>
			<path class="st0" d="M841.1,74.1c-7,4.6-8,7.2-5.6,15.2c0.2,0.6-0.6,0.9-0.9,0.4c-4.6-7-7.2-8-15.2-5.6c-0.6,0.2-0.9-0.6-0.4-0.9
				c7-4.6,8-7.2,5.6-15.2c-0.2-0.6,0.6-0.9,0.9-0.4c4.6,7,7.2,8,15.2,5.6C841.2,73,841.6,73.8,841.1,74.1z"/>
		</g>
	</g>
	<g>
		<g>
			<path class="st0" d="M963.3,87.5c-3.7,2.4-4.1,3.7-2.9,7.9c0.1,0.3-0.3,0.5-0.5,0.2c-2.4-3.7-3.7-4.1-7.9-2.9
				c-0.3,0.1-0.5-0.3-0.2-0.5c3.7-2.4,4.1-3.7,2.9-7.9c-0.1-0.3,0.3-0.5,0.5-0.2c2.4,3.7,3.7,4.1,7.9,2.9
				C963.4,86.9,963.5,87.3,963.3,87.5z"/>
		</g>
	</g>
	<g>
		<g>
			<path class="st0" d="M857.9,58c-3.7,2.4-4.1,3.7-2.9,7.9c0.1,0.3-0.3,0.5-0.5,0.2c-2.4-3.7-3.7-4.1-7.9-2.9
				c-0.3,0.1-0.5-0.3-0.2-0.5c3.7-2.4,4.1-3.7,2.9-7.9c-0.1-0.3,0.3-0.5,0.5-0.2c2.4,3.7,3.7,4.1,7.9,2.9
				C858,57.4,858.1,57.8,857.9,58z"/>
		</g>
	</g>
	<g>
		<g>
			<path class="st0" d="M907,55.3c-7.3,4.8-8.3,7.4-5.9,15.9c0.2,0.6-0.6,1-1,0.4c-4.8-7.3-7.4-8.3-15.9-5.9c-0.6,0.2-1-0.6-0.4-1
				c7.3-4.8,8.3-7.4,5.9-15.9c-0.2-0.6,0.6-1,1-0.4c4.8,7.3,7.4,8.3,15.9,5.9C907.1,54.2,907.5,55,907,55.3z"/>
		</g>
	</g>
	<g>
		<g>
			<path class="st0" d="M1009.4,108.9c-3.7,2.4-4.1,3.7-2.9,7.9c0.1,0.3-0.3,0.5-0.5,0.2c-2.4-3.7-3.7-4.1-7.9-2.9
				c-0.3,0.1-0.5-0.3-0.2-0.5c3.7-2.4,4.1-3.7,2.9-7.9c-0.1-0.3,0.3-0.5,0.5-0.2c2.4,3.7,3.7,4.1,7.9,2.9
				C1009.4,108.4,1009.6,108.8,1009.4,108.9z"/>
		</g>
	</g>
	<g>
		<g>
			<path class="st0" d="M1010.6,84.6c-3.7,2.4-4.1,3.7-2.9,7.9c0.1,0.3-0.3,0.5-0.5,0.2c-2.4-3.7-3.7-4.1-7.9-2.9
				c-0.3,0.1-0.5-0.3-0.2-0.5c3.7-2.4,4.1-3.7,2.9-7.9c-0.1-0.3,0.3-0.5,0.5-0.2c2.4,3.7,3.7,4.1,7.9,2.9
				C1010.7,84,1010.9,84.4,1010.6,84.6z"/>
		</g>
	</g>
	<circle class="st0" cx="978.1" cy="105.1" r="2.5"/>
	<circle class="st0" cx="871.8" cy="45.7" r="2.5"/>
	<circle class="st0" cx="991.7" cy="87.6" r="1.6"/>
	<circle class="st0" cx="926" cy="95.6" r="1.6"/>
	<circle class="st0" cx="1024.9" cy="102.8" r="1.2"/>
	<circle class="st0" cx="940.1" cy="55.1" r="1.2"/>
	<circle class="st0" cx="1032.6" cy="131.8" r="1.2"/>
	<circle class="st0" cx="872.8" cy="79.3" r="1.2"/>
	<circle class="st0" cx="905.4" cy="42.6" r="1.2"/>
	<circle class="st0" cx="803.7" cy="82.6" r="1.2"/>
	<circle class="st0" cx="846.5" cy="84.7" r="1.2"/>
</g>
<g>
	<g>
		<g>
			<path class="st0" d="M729,76.5c-3.7,2.4-4.1,3.7-2.9,7.9c0.1,0.3-0.3,0.5-0.5,0.2c-2.4-3.7-3.7-4.1-7.9-2.9
				c-0.3,0.1-0.5-0.3-0.2-0.5c3.7-2.4,4.1-3.7,2.9-7.9c-0.1-0.3,0.3-0.5,0.5-0.2c2.4,3.7,3.7,4.1,7.9,2.9
				C729.1,75.9,729.3,76.3,729,76.5z"/>
		</g>
	</g>
	<g>
		<g>
			<path class="st0" d="M785.3,57.4c-7,4.6-8,7.2-5.6,15.2c0.2,0.6-0.6,0.9-0.9,0.4c-4.6-7-7.2-8-15.2-5.6c-0.6,0.2-0.9-0.6-0.4-0.9
				c7-4.6,8-7.2,5.6-15.2c-0.2-0.6,0.6-0.9,0.9-0.4c4.6,7,7.2,8,15.2,5.6C785.4,56.3,785.8,57.1,785.3,57.4z"/>
		</g>
	</g>
	<g>
		<g>
			<path class="st0" d="M645.2,72.4c-7,4.6-8,7.2-5.6,15.2c0.2,0.6-0.6,0.9-0.9,0.4c-4.6-7-7.2-8-15.2-5.6c-0.6,0.2-0.9-0.6-0.4-0.9
				c7-4.6,8-7.2,5.6-15.2c-0.2-0.6,0.6-0.9,0.9-0.4c4.6,7,7.2,8,15.2,5.6C645.4,71.3,645.7,72,645.2,72.4z"/>
		</g>
	</g>
	<g>
		<g>
			<path class="st0" d="M767.4,85.7c-3.7,2.4-4.1,3.7-2.9,7.9c0.1,0.3-0.3,0.5-0.5,0.2c-2.4-3.7-3.7-4.1-7.9-2.9
				c-0.3,0.1-0.5-0.3-0.2-0.5c3.7-2.4,4.1-3.7,2.9-7.9c-0.1-0.3,0.3-0.5,0.5-0.2c2.4,3.7,3.7,4.1,7.9,2.9
				C767.5,85.2,767.7,85.6,767.4,85.7z"/>
		</g>
	</g>
	<g>
		<g>
			<path class="st0" d="M662,56.3c-3.7,2.4-4.1,3.7-2.9,7.9c0.1,0.3-0.3,0.5-0.5,0.2c-2.4-3.7-3.7-4.1-7.9-2.9
				c-0.3,0.1-0.5-0.3-0.2-0.5c3.7-2.4,4.1-3.7,2.9-7.9c-0.1-0.3,0.3-0.5,0.5-0.2c2.4,3.7,3.7,4.1,7.9,2.9
				C662.1,55.7,662.3,56.1,662,56.3z"/>
		</g>
	</g>
	<g>
		<g>
			<path class="st0" d="M711.1,53.6c-7.3,4.8-8.3,7.4-5.9,15.9c0.2,0.6-0.6,1-1,0.4c-4.8-7.3-7.4-8.3-15.9-5.9c-0.6,0.2-1-0.6-0.4-1
				c7.3-4.8,8.3-7.4,5.9-15.9c-0.2-0.6,0.6-1,1-0.4c4.8,7.3,7.4,8.3,15.9,5.9C711.3,52.4,711.6,53.2,711.1,53.6z"/>
		</g>
	</g>
	<g>
		<g>
			<path class="st0" d="M813.5,107.2c-3.7,2.4-4.1,3.7-2.9,7.9c0.1,0.3-0.3,0.5-0.5,0.2c-2.4-3.7-3.7-4.1-7.9-2.9
				c-0.3,0.1-0.5-0.3-0.2-0.5c3.7-2.4,4.1-3.7,2.9-7.9c-0.1-0.3,0.3-0.5,0.5-0.2c2.4,3.7,3.7,4.1,7.9,2.9
				C813.6,106.6,813.8,107,813.5,107.2z"/>
		</g>
	</g>
	<g>
		<g>
			<path class="st0" d="M814.7,82.8c-3.7,2.4-4.1,3.7-2.9,7.9c0.1,0.3-0.3,0.5-0.5,0.2c-2.4-3.7-3.7-4.1-7.9-2.9
				c-0.3,0.1-0.5-0.3-0.2-0.5c3.7-2.4,4.1-3.7,2.9-7.9c-0.1-0.3,0.3-0.5,0.5-0.2c2.4,3.7,3.7,4.1,7.9,2.9
				C814.8,82.3,815,82.7,814.7,82.8z"/>
		</g>
	</g>
	<circle class="st0" cx="782.3" cy="103.4" r="2.5"/>
	<circle class="st0" cx="676" cy="44" r="2.5"/>
	<circle class="st0" cx="795.8" cy="85.9" r="1.6"/>
	<circle class="st0" cx="730.2" cy="93.9" r="1.6"/>
	<circle class="st0" cx="829.1" cy="101.1" r="1.2"/>
	<circle class="st0" cx="744.3" cy="53.3" r="1.2"/>
	<circle class="st0" cx="836.7" cy="130" r="1.2"/>
	<circle class="st0" cx="677" cy="77.5" r="1.2"/>
	<circle class="st0" cx="709.5" cy="40.9" r="1.2"/>
	<circle class="st0" cx="607.9" cy="80.9" r="1.2"/>
	<circle class="st0" cx="650.6" cy="83" r="1.2"/>
</g>
<g>
	<g>
		<g>
			<path class="st0" d="M517.6,85.1c-3.7,2.4-4.1,3.7-2.9,7.9c0.1,0.3-0.3,0.5-0.5,0.2c-2.4-3.7-3.7-4.1-7.9-2.9
				c-0.3,0.1-0.5-0.3-0.2-0.5c3.7-2.4,4.1-3.7,2.9-7.9c-0.1-0.3,0.3-0.5,0.5-0.2c2.4,3.7,3.7,4.1,7.9,2.9
				C517.6,84.6,517.8,85,517.6,85.1z"/>
		</g>
	</g>
	<g>
		<g>
			<path class="st0" d="M573.8,66.1c-7,4.6-8,7.2-5.6,15.2c0.2,0.6-0.6,0.9-0.9,0.4c-4.6-7-7.2-8-15.2-5.6c-0.6,0.2-0.9-0.6-0.4-0.9
				c7-4.6,8-7.2,5.6-15.2c-0.2-0.6,0.6-0.9,0.9-0.4c4.6,7,7.2,8,15.2,5.6C574,65,574.3,65.8,573.8,66.1z"/>
		</g>
	</g>
	<g>
		<g>
			<path class="st0" d="M433.8,81c-7,4.6-8,7.2-5.6,15.2c0.2,0.6-0.6,0.9-0.9,0.4c-4.6-7-7.2-8-15.2-5.6c-0.6,0.2-0.9-0.6-0.4-0.9
				c7-4.6,8-7.2,5.6-15.2c-0.2-0.6,0.6-0.9,0.9-0.4c4.6,7,7.2,8,15.2,5.6C433.9,79.9,434.3,80.7,433.8,81z"/>
		</g>
	</g>
	<g>
		<g>
			<path class="st0" d="M556,94.4c-3.7,2.4-4.1,3.7-2.9,7.9c0.1,0.3-0.3,0.5-0.5,0.2c-2.4-3.7-3.7-4.1-7.9-2.9
				c-0.3,0.1-0.5-0.3-0.2-0.5c3.7-2.4,4.1-3.7,2.9-7.9c-0.1-0.3,0.3-0.5,0.5-0.2c2.4,3.7,3.7,4.1,7.9,2.9
				C556,93.8,556.2,94.2,556,94.4z"/>
		</g>
	</g>
	<g>
		<g>
			<path class="st0" d="M450.6,64.9c-3.7,2.4-4.1,3.7-2.9,7.9c0.1,0.3-0.3,0.5-0.5,0.2c-2.4-3.7-3.7-4.1-7.9-2.9
				c-0.3,0.1-0.5-0.3-0.2-0.5c3.7-2.4,4.1-3.7,2.9-7.9c-0.1-0.3,0.3-0.5,0.5-0.2c2.4,3.7,3.7,4.1,7.9,2.9
				C450.6,64.4,450.8,64.8,450.6,64.9z"/>
		</g>
	</g>
	<g>
		<g>
			<path class="st0" d="M499.6,62.2c-7.3,4.8-8.3,7.4-5.9,15.9c0.2,0.6-0.6,1-1,0.4c-4.8-7.3-7.4-8.3-15.9-5.9c-0.6,0.2-1-0.6-0.4-1
				c7.3-4.8,8.3-7.4,5.9-15.9c-0.2-0.6,0.6-1,1-0.4c4.8,7.3,7.4,8.3,15.9,5.9C499.8,61.1,500.2,61.9,499.6,62.2z"/>
		</g>
	</g>
	<g>
		<g>
			<path class="st0" d="M602.1,115.9c-3.7,2.4-4.1,3.7-2.9,7.9c0.1,0.3-0.3,0.5-0.5,0.2c-2.4-3.7-3.7-4.1-7.9-2.9
				c-0.3,0.1-0.5-0.3-0.2-0.5c3.7-2.4,4.1-3.7,2.9-7.9c-0.1-0.3,0.3-0.5,0.5-0.2c2.4,3.7,3.7,4.1,7.9,2.9
				C602.1,115.3,602.3,115.7,602.1,115.9z"/>
		</g>
	</g>
	<g>
		<g>
			<path class="st0" d="M603.3,91.5c-3.7,2.4-4.1,3.7-2.9,7.9c0.1,0.3-0.3,0.5-0.5,0.2c-2.4-3.7-3.7-4.1-7.9-2.9
				c-0.3,0.1-0.5-0.3-0.2-0.5c3.7-2.4,4.1-3.7,2.9-7.9c-0.1-0.3,0.3-0.5,0.5-0.2c2.4,3.7,3.7,4.1,7.9,2.9
				C603.4,90.9,603.5,91.3,603.3,91.5z"/>
		</g>
	</g>
	<circle class="st0" cx="570.8" cy="112" r="2.5"/>
	<circle class="st0" cx="464.5" cy="52.6" r="2.5"/>
	<circle class="st0" cx="584.4" cy="94.5" r="1.6"/>
	<circle class="st0" cx="518.7" cy="102.6" r="1.6"/>
	<circle class="st0" cx="617.6" cy="109.8" r="1.2"/>
	<circle class="st0" cx="532.8" cy="62" r="1.2"/>
	<circle class="st0" cx="625.2" cy="138.7" r="1.2"/>
	<circle class="st0" cx="465.5" cy="86.2" r="1.2"/>
	<circle class="st0" cx="498" cy="49.5" r="1.2"/>
	<circle class="st0" cx="396.4" cy="89.5" r="1.2"/>
	<circle class="st0" cx="439.2" cy="91.7" r="1.2"/>
</g>
<g>
	<g>
		<g>
			<path class="st0" d="M340.8,73c-3.7,2.4-4.1,3.7-2.9,7.9c0.1,0.3-0.3,0.5-0.5,0.2c-2.4-3.7-3.7-4.1-7.9-2.9
				c-0.3,0.1-0.5-0.3-0.2-0.5c3.7-2.4,4.1-3.7,2.9-7.9c-0.1-0.3,0.3-0.5,0.5-0.2c2.4,3.7,3.7,4.1,7.9,2.9
				C340.8,72.4,341,72.8,340.8,73z"/>
		</g>
	</g>
	<g>
		<g>
			<path class="st0" d="M397,54c-7,4.6-8,7.2-5.6,15.2c0.2,0.6-0.6,0.9-0.9,0.4c-4.6-7-7.2-8-15.2-5.6c-0.6,0.2-0.9-0.6-0.4-0.9
				c7-4.6,8-7.2,5.6-15.2c-0.2-0.6,0.6-0.9,0.9-0.4c4.6,7,7.2,8,15.2,5.6C397.2,52.9,397.5,53.6,397,54z"/>
		</g>
	</g>
	<g>
		<g>
			<path class="st0" d="M257,68.9c-7,4.6-8,7.2-5.6,15.2c0.2,0.6-0.6,0.9-0.9,0.4c-4.6-7-7.2-8-15.2-5.6c-0.6,0.2-0.9-0.6-0.4-0.9
				c7-4.6,8-7.2,5.6-15.2c-0.2-0.6,0.6-0.9,0.9-0.4c4.6,7,7.2,8,15.2,5.6C257.1,67.8,257.5,68.6,257,68.9z"/>
		</g>
	</g>
	<g>
		<g>
			<path class="st0" d="M379.2,82.3c-3.7,2.4-4.1,3.7-2.9,7.9c0.1,0.3-0.3,0.5-0.5,0.2c-2.4-3.7-3.7-4.1-7.9-2.9
				c-0.3,0.1-0.5-0.3-0.2-0.5c3.7-2.4,4.1-3.7,2.9-7.9c-0.1-0.3,0.3-0.5,0.5-0.2c2.4,3.7,3.7,4.1,7.9,2.9
				C379.3,81.7,379.4,82.1,379.2,82.3z"/>
		</g>
	</g>
	<g>
		<g>
			<path class="st0" d="M273.8,52.8c-3.7,2.4-4.1,3.7-2.9,7.9c0.1,0.3-0.3,0.5-0.5,0.2c-2.4-3.7-3.7-4.1-7.9-2.9
				c-0.3,0.1-0.5-0.3-0.2-0.5c3.7-2.4,4.1-3.7,2.9-7.9c-0.1-0.3,0.3-0.5,0.5-0.2c2.4,3.7,3.7,4.1,7.9,2.9
				C273.8,52.2,274,52.6,273.8,52.8z"/>
		</g>
	</g>
	<g>
		<g>
			<path class="st0" d="M322.9,50.1c-7.3,4.8-8.3,7.4-5.9,15.9c0.2,0.6-0.6,1-1,0.4c-4.8-7.3-7.4-8.3-15.9-5.9c-0.6,0.2-1-0.6-0.4-1
				c7.3-4.8,8.3-7.4,5.9-15.9c-0.2-0.6,0.6-1,1-0.4c4.8,7.3,7.4,8.3,15.9,5.9C323,49,323.4,49.8,322.9,50.1z"/>
		</g>
	</g>
	<g>
		<g>
			<path class="st0" d="M425.3,103.7c-3.7,2.4-4.1,3.7-2.9,7.9c0.1,0.3-0.3,0.5-0.5,0.2c-2.4-3.7-3.7-4.1-7.9-2.9
				c-0.3,0.1-0.5-0.3-0.2-0.5c3.7-2.4,4.1-3.7,2.9-7.9c-0.1-0.3,0.3-0.5,0.5-0.2c2.4,3.7,3.7,4.1,7.9,2.9
				C425.3,103.2,425.5,103.6,425.3,103.7z"/>
		</g>
	</g>
	<g>
		<g>
			<path class="st0" d="M426.5,79.4c-3.7,2.4-4.1,3.7-2.9,7.9c0.1,0.3-0.3,0.5-0.5,0.2c-2.4-3.7-3.7-4.1-7.9-2.9
				c-0.3,0.1-0.5-0.3-0.2-0.5c3.7-2.4,4.1-3.7,2.9-7.9c-0.1-0.3,0.3-0.5,0.5-0.2c2.4,3.7,3.7,4.1,7.9,2.9
				C426.6,78.8,426.7,79.2,426.5,79.4z"/>
		</g>
	</g>
	<circle class="st0" cx="394" cy="99.9" r="2.5"/>
	<circle class="st0" cx="287.7" cy="40.5" r="2.5"/>
	<circle class="st0" cx="407.6" cy="82.4" r="1.6"/>
	<circle class="st0" cx="341.9" cy="90.4" r="1.6"/>
	<circle class="st0" cx="440.8" cy="97.6" r="1.2"/>
	<circle class="st0" cx="356" cy="49.9" r="1.2"/>
	<circle class="st0" cx="448.5" cy="126.6" r="1.2"/>
	<circle class="st0" cx="288.7" cy="74.1" r="1.2"/>
	<circle class="st0" cx="321.3" cy="37.4" r="1.2"/>
	<circle class="st0" cx="219.6" cy="77.4" r="1.2"/>
	<circle class="st0" cx="262.4" cy="79.5" r="1.2"/>
</g>
<g>
	<g>
		<g>
			<path class="st0" d="M167.4,64.3c-3.7,2.4-4.1,3.7-2.9,7.9c0.1,0.3-0.3,0.5-0.5,0.2c-2.4-3.7-3.7-4.1-7.9-2.9
				c-0.3,0.1-0.5-0.3-0.2-0.5c3.7-2.4,4.1-3.7,2.9-7.9c-0.1-0.3,0.3-0.5,0.5-0.2c2.4,3.7,3.7,4.1,7.9,2.9
				C167.5,63.8,167.7,64.2,167.4,64.3z"/>
		</g>
	</g>
	<g>
		<g>
			<path class="st0" d="M223.7,45.3c-7,4.6-8,7.2-5.6,15.2c0.2,0.6-0.6,0.9-0.9,0.4c-4.6-7-7.2-8-15.2-5.6c-0.6,0.2-0.9-0.6-0.4-0.9
				c7-4.6,8-7.2,5.6-15.2c-0.2-0.6,0.6-0.9,0.9-0.4c4.6,7,7.2,8,15.2,5.6C223.9,44.2,224.2,45,223.7,45.3z"/>
		</g>
	</g>
	<g>
		<g>
			<path class="st0" d="M83.7,60.2c-7,4.6-8,7.2-5.6,15.2c0.2,0.6-0.6,0.9-0.9,0.4c-4.6-7-7.2-8-15.2-5.6c-0.6,0.2-0.9-0.6-0.4-0.9
				c7-4.6,8-7.2,5.6-15.2c-0.2-0.6,0.6-0.9,0.9-0.4c4.6,7,7.2,8,15.2,5.6C83.8,59.1,84.2,59.9,83.7,60.2z"/>
		</g>
	</g>
	<g>
		<g>
			<path class="st0" d="M205.9,73.6c-3.7,2.4-4.1,3.7-2.9,7.9c0.1,0.3-0.3,0.5-0.5,0.2c-2.4-3.7-3.7-4.1-7.9-2.9
				c-0.3,0.1-0.5-0.3-0.2-0.5c3.7-2.4,4.1-3.7,2.9-7.9c-0.1-0.3,0.3-0.5,0.5-0.2c2.4,3.7,3.7,4.1,7.9,2.9
				C205.9,73,206.1,73.4,205.9,73.6z"/>
		</g>
	</g>
	<g>
		<g>
			<path class="st0" d="M100.5,44.1c-3.7,2.4-4.1,3.7-2.9,7.9c0.1,0.3-0.3,0.5-0.5,0.2c-2.4-3.7-3.7-4.1-7.9-2.9
				c-0.3,0.1-0.5-0.3-0.2-0.5c3.7-2.4,4.1-3.7,2.9-7.9c-0.1-0.3,0.3-0.5,0.5-0.2c2.4,3.7,3.7,4.1,7.9,2.9
				C100.5,43.6,100.7,44,100.5,44.1z"/>
		</g>
	</g>
	<g>
		<g>
			<path class="st0" d="M149.5,41.4c-7.3,4.8-8.3,7.4-5.9,15.9c0.2,0.6-0.6,1-1,0.4c-4.8-7.3-7.4-8.3-15.9-5.9c-0.6,0.2-1-0.6-0.4-1
				c7.3-4.8,8.3-7.4,5.9-15.9c-0.2-0.6,0.6-1,1-0.4c4.8,7.3,7.4,8.3,15.9,5.9C149.7,40.3,150,41.1,149.5,41.4z"/>
		</g>
	</g>
	<g>
		<g>
			<path class="st0" d="M251.9,95.1c-3.7,2.4-4.1,3.7-2.9,7.9c0.1,0.3-0.3,0.5-0.5,0.2c-2.4-3.7-3.7-4.1-7.9-2.9
				c-0.3,0.1-0.5-0.3-0.2-0.5c3.7-2.4,4.1-3.7,2.9-7.9c-0.1-0.3,0.3-0.5,0.5-0.2c2.4,3.7,3.7,4.1,7.9,2.9
				C252,94.5,252.2,94.9,251.9,95.1z"/>
		</g>
	</g>
	<g>
		<g>
			<path class="st0" d="M253.2,70.7c-3.7,2.4-4.1,3.7-2.9,7.9c0.1,0.3-0.3,0.5-0.5,0.2c-2.4-3.7-3.7-4.1-7.9-2.9
				c-0.3,0.1-0.5-0.3-0.2-0.5c3.7-2.4,4.1-3.7,2.9-7.9c-0.1-0.3,0.3-0.5,0.5-0.2c2.4,3.7,3.7,4.1,7.9,2.9
				C253.2,70.1,253.4,70.5,253.2,70.7z"/>
		</g>
	</g>
	<circle class="st0" cx="220.7" cy="91.2" r="2.5"/>
	<circle class="st0" cx="114.4" cy="31.8" r="2.5"/>
	<circle class="st0" cx="234.2" cy="73.7" r="1.6"/>
	<circle class="st0" cx="168.6" cy="81.8" r="1.6"/>
	<circle class="st0" cx="267.5" cy="89" r="1.2"/>
	<circle class="st0" cx="182.7" cy="41.2" r="1.2"/>
	<circle class="st0" cx="275.1" cy="117.9" r="1.2"/>
	<circle class="st0" cx="115.4" cy="65.4" r="1.2"/>
	<circle class="st0" cx="147.9" cy="28.7" r="1.2"/>
	<circle class="st0" cx="46.3" cy="68.7" r="1.2"/>
	<circle class="st0" cx="89.1" cy="70.9" r="1.2"/>
</g>
</svg>
