<?xml version="1.0" encoding="utf-8"?>
<!-- Generator: Adobe Illustrator 19.0.0, SVG Export Plug-In . SVG Version: 6.00 Build 0)  -->
<svg version="1.1" id="Layer_1" xmlns="http://www.w3.org/2000/svg" xmlns:xlink="http://www.w3.org/1999/xlink" x="0px" y="0px"
	 viewBox="0 0 502.8 97.5" style="enable-background:new 0 0 502.8 97.5;" xml:space="preserve">
<style type="text/css">
	.st0{fill-rule:evenodd;clip-rule:evenodd;fill:#FAC5CB;}
	.st1{fill:#AA878B;}
	.st2{fill:#FAC5CB;}
	.st3{fill:#674F51;}
</style>
<g>
	<circle class="st0" cx="43.1" cy="50.5" r="42"/>
	<g id="XMLID_124_">
		<path id="XMLID_125_" class="st1" d="M11,63.8V37.8h4.9v25.9H11z M28.5,63.8V48.1c0-1.9-0.6-3.4-1.8-4.6c-1.2-1.1-2.7-1.7-4.5-1.7
			c-1.2,0-2.3,0.3-3.2,0.8c-0.9,0.5-1.7,1.2-2.3,2.1c-0.6,0.9-0.9,2-0.9,3.3l-2-1c0-2,0.4-3.7,1.3-5.1c0.9-1.5,2-2.6,3.5-3.4
			c1.5-0.8,3.2-1.2,5-1.2c1.8,0,3.5,0.4,4.9,1.2c1.5,0.8,2.6,1.9,3.5,3.4c0.9,1.5,1.3,3.2,1.3,5.2v16.7H28.5z M46.1,63.8V48.1
			c0-1.9-0.6-3.4-1.8-4.6c-1.2-1.1-2.6-1.7-4.4-1.7c-1.2,0-2.3,0.3-3.3,0.8c-1,0.5-1.7,1.2-2.3,2.1c-0.6,0.9-0.9,2-0.9,3.3l-2.8-1
			c0.1-2,0.6-3.7,1.6-5.2c1-1.4,2.2-2.6,3.7-3.4c1.5-0.8,3.2-1.2,5-1.2c1.9,0,3.6,0.4,5.1,1.2c1.5,0.8,2.7,1.9,3.6,3.4
			c0.9,1.5,1.3,3.2,1.3,5.2v16.7H46.1z"/>
		<path id="XMLID_129_" class="st1" d="M65.9,64.3c-1.5,0-2.8-0.2-4.1-0.6c-1.3-0.4-2.5-0.9-3.6-1.6s-2-1.6-2.8-2.5l3.2-3.2
			c0.9,1.2,2,2,3.3,2.6c1.2,0.6,2.6,0.8,4.2,0.8c1.5,0,2.7-0.3,3.6-0.8c0.8-0.5,1.3-1.3,1.3-2.2c0-0.9-0.3-1.7-1-2.2
			c-0.7-0.5-1.5-1-2.6-1.3c-1.1-0.3-2.2-0.7-3.4-1c-1.2-0.3-2.3-0.8-3.4-1.3c-1.1-0.5-1.9-1.3-2.6-2.2c-0.7-0.9-1-2.2-1-3.8
			c0-1.6,0.4-2.9,1.1-4.1c0.8-1.1,1.8-2,3.2-2.6c1.4-0.6,3-0.9,4.9-0.9c2,0,3.9,0.4,5.4,1.1c1.6,0.7,2.9,1.8,3.9,3.2l-3.2,3.2
			c-0.7-0.9-1.6-1.7-2.7-2.2c-1.1-0.5-2.3-0.8-3.6-0.8c-1.4,0-2.5,0.2-3.3,0.7c-0.7,0.5-1.1,1.2-1.1,2s0.3,1.5,1,2
			c0.7,0.5,1.5,0.9,2.6,1.2c1.1,0.3,2.2,0.7,3.4,1c1.2,0.3,2.3,0.8,3.3,1.4c1.1,0.6,1.9,1.4,2.6,2.3c0.7,1,1,2.3,1,3.9
			c0,2.4-0.9,4.4-2.6,5.8C71.2,63.6,68.9,64.3,65.9,64.3z"/>
	</g>
	<g id="XMLID_28_">
		<path id="XMLID_29_" class="st2" d="M115.4,59.9V13.2h2.6l20.5,33.7h-2l20.5-33.7h2.6v46.7h-3.6V19.4l0.9,0.2l-18.1,29.6h-2.6
			l-18.1-29.6l0.8-0.2v40.5H115.4z"/>
		<path id="XMLID_31_" class="st2" d="M173,20.6c-0.8,0-1.4-0.3-2-0.9c-0.5-0.6-0.8-1.2-0.8-2c0-0.8,0.3-1.4,0.8-2
			c0.5-0.5,1.2-0.8,2-0.8c0.8,0,1.4,0.3,2,0.8c0.5,0.5,0.8,1.2,0.8,2c0,0.8-0.3,1.4-0.8,2C174.4,20.3,173.8,20.6,173,20.6z
			 M171.3,59.9V28h3.4v31.8H171.3z"/>
		<path id="XMLID_34_" class="st2" d="M194.6,60.5c-1.7,0-3.4-0.2-4.9-0.7c-1.5-0.5-2.9-1.2-4.2-2c-1.3-0.9-2.4-1.9-3.3-3l2.3-2.3
			c1.3,1.7,2.8,2.9,4.5,3.7c1.7,0.8,3.6,1.2,5.6,1.2c2.4,0,4.2-0.5,5.6-1.4c1.4-1,2.1-2.3,2.1-4c0-1.6-0.4-2.8-1.3-3.7
			c-0.9-0.9-2-1.6-3.4-2.1c-1.4-0.5-2.9-1-4.4-1.4c-1.5-0.5-3-1-4.4-1.6c-1.4-0.6-2.5-1.5-3.4-2.7c-0.9-1.1-1.3-2.7-1.3-4.6
			c0-1.7,0.4-3.2,1.3-4.4c0.9-1.3,2.1-2.3,3.7-3c1.6-0.7,3.4-1.1,5.6-1.1c2.4,0,4.5,0.4,6.4,1.2c1.9,0.8,3.4,2,4.6,3.6l-2.3,2.3
			c-0.9-1.3-2.1-2.3-3.7-3c-1.6-0.7-3.3-1.1-5.2-1.1c-2.3,0-4,0.5-5.2,1.4c-1.2,1-1.8,2.2-1.8,3.7c0,1.4,0.4,2.5,1.3,3.4
			c0.9,0.8,2,1.5,3.4,1.9c1.4,0.5,2.9,0.9,4.4,1.3c1.5,0.4,3,1,4.4,1.7c1.4,0.7,2.5,1.6,3.4,2.8c0.9,1.2,1.3,2.8,1.3,4.9
			c0,2.7-1,4.9-3,6.5C200.7,59.7,198,60.5,194.6,60.5z"/>
		<path id="XMLID_36_" class="st2" d="M210.5,31.1V28H239v3.1H210.5z M218.8,59.9V21.7c0-2.1,0.4-3.9,1.3-5.4
			c0.9-1.6,2.1-2.8,3.7-3.7s3.4-1.3,5.4-1.3c1.5,0,2.9,0.3,4.1,0.8c1.3,0.5,2.4,1.3,3.3,2.3l-2.3,2.3c-0.8-0.8-1.6-1.3-2.5-1.7
			c-0.9-0.3-1.8-0.5-2.8-0.5c-2.1,0-3.8,0.7-5,2.1c-1.2,1.4-1.8,3.2-1.8,5.5v38H218.8z M238.8,23.6c-0.8,0-1.4-0.3-2-0.9
			c-0.5-0.6-0.8-1.2-0.8-2c0-0.8,0.3-1.4,0.8-2c0.5-0.5,1.2-0.8,2-0.8c0.8,0,1.5,0.3,2,0.8c0.5,0.5,0.8,1.2,0.8,2
			c0,0.8-0.3,1.4-0.8,2C240.3,23.3,239.7,23.6,238.8,23.6z M237.1,59.9V28h3.5v31.8H237.1z"/>
		<path id="XMLID_41_" class="st2" d="M247.7,31.1V28h19.9v3.1H247.7z M255.9,59.9V14.5h3.5v45.3H255.9z"/>
		<path id="XMLID_44_" class="st2" d="M283.5,60.5c-1.7,0-3.4-0.2-4.9-0.7c-1.5-0.5-2.9-1.2-4.2-2c-1.3-0.9-2.4-1.9-3.3-3l2.3-2.3
			c1.3,1.7,2.8,2.9,4.5,3.7c1.7,0.8,3.6,1.2,5.6,1.2c2.4,0,4.2-0.5,5.6-1.4c1.4-1,2.1-2.3,2.1-4c0-1.6-0.4-2.8-1.3-3.7
			c-0.9-0.9-2-1.6-3.4-2.1c-1.4-0.5-2.9-1-4.4-1.4c-1.5-0.5-3-1-4.4-1.6c-1.4-0.6-2.5-1.5-3.4-2.7c-0.9-1.1-1.3-2.7-1.3-4.6
			c0-1.7,0.4-3.2,1.3-4.4c0.9-1.3,2.1-2.3,3.7-3c1.6-0.7,3.4-1.1,5.6-1.1c2.4,0,4.5,0.4,6.4,1.2c1.9,0.8,3.4,2,4.6,3.6l-2.3,2.3
			c-0.9-1.3-2.1-2.3-3.7-3c-1.6-0.7-3.3-1.1-5.2-1.1c-2.3,0-4,0.5-5.2,1.4c-1.2,1-1.8,2.2-1.8,3.7c0,1.4,0.4,2.5,1.3,3.4
			c0.9,0.8,2,1.5,3.4,1.9c1.4,0.5,2.9,0.9,4.4,1.3c1.5,0.4,3,1,4.4,1.7c1.4,0.7,2.5,1.6,3.4,2.8c0.9,1.2,1.3,2.8,1.3,4.9
			c0,2.7-1,4.9-3,6.5C289.6,59.7,286.9,60.5,283.5,60.5z"/>
		<path id="XMLID_46_" class="st3" d="M332.2,60.5c-3.7,0-6.8-0.7-9.4-2.1c-2.6-1.4-4.9-3.3-6.8-5.8l2.5-2.5
			c1.8,2.4,3.8,4.2,6.1,5.3s4.9,1.7,7.8,1.7c3.2,0,5.8-0.8,7.8-2.3s3-3.6,3-6.3c0-2.1-0.4-3.7-1.3-5c-0.9-1.3-2-2.3-3.5-3.1
			s-3-1.6-4.7-2.2c-1.7-0.6-3.4-1.3-5.1-2c-1.7-0.7-3.3-1.5-4.7-2.5c-1.4-1-2.6-2.2-3.5-3.8c-0.9-1.6-1.3-3.5-1.3-5.9
			c0-2.4,0.6-4.4,1.7-6.2c1.2-1.8,2.8-3.1,4.8-4.1c2-1,4.4-1.4,7-1.4c3,0,5.7,0.6,8.1,1.7c2.4,1.2,4.4,2.8,6,4.9l-2.5,2.5
			c-1.5-1.9-3.2-3.3-5-4.3c-1.8-1-4-1.5-6.5-1.5c-2.9,0-5.3,0.7-7.1,2.2c-1.8,1.4-2.7,3.4-2.7,6c0,1.9,0.4,3.5,1.3,4.7
			c0.9,1.2,2,2.2,3.5,3c1.4,0.8,3,1.5,4.7,2.1c1.7,0.6,3.4,1.2,5.1,1.9c1.7,0.7,3.3,1.5,4.7,2.6c1.4,1,2.6,2.3,3.5,3.9
			c0.9,1.6,1.3,3.6,1.3,6.1c0,4-1.3,7-3.9,9.1C340.2,59.5,336.7,60.5,332.2,60.5z"/>
		<path id="XMLID_48_" class="st3" d="M352.7,31.1V28h19.9v3.1H352.7z M360.9,59.9V14.5h3.5v45.3H360.9z"/>
		<path id="XMLID_51_" class="st3" d="M392.1,60.5c-2.6,0-4.8-0.6-6.8-1.8c-2-1.2-3.6-2.8-4.7-4.9c-1.1-2.1-1.7-4.5-1.7-7.3V28h3.5
			v18.4c0,2.1,0.4,4,1.2,5.6c0.8,1.6,1.9,2.9,3.4,3.8c1.5,0.9,3.2,1.4,5.1,1.4c2.9,0,5.3-1,7-3c1.8-2,2.6-4.6,2.6-7.8V28h3.5v18.5
			c0,2.7-0.6,5.2-1.7,7.3c-1.1,2.1-2.7,3.7-4.7,4.9C396.9,59.9,394.6,60.5,392.1,60.5z"/>
		<path id="XMLID_53_" class="st3" d="M428.5,60.5c-3,0-5.7-0.7-8.1-2.2c-2.4-1.5-4.2-3.4-5.6-5.9c-1.4-2.5-2.1-5.3-2.1-8.5
			s0.7-6,2.1-8.5c1.4-2.5,3.2-4.5,5.6-6c2.4-1.5,5.1-2.2,8.1-2.2c2.3,0,4.5,0.5,6.5,1.4c2,0.9,3.7,2.2,5,3.9
			c1.4,1.7,2.2,3.7,2.6,6.1v10.4c-0.4,2.3-1.3,4.3-2.6,6c-1.3,1.7-3,3-5,4C433,60.1,430.9,60.5,428.5,60.5z M429.1,57.3
			c2.4,0,4.5-0.6,6.4-1.7s3.3-2.7,4.3-4.7c1-2,1.5-4.3,1.5-6.9c0-2.6-0.5-5-1.6-6.9c-1.1-2-2.5-3.5-4.3-4.7c-1.8-1.1-4-1.7-6.5-1.7
			c-2.4,0-4.6,0.6-6.5,1.7c-1.9,1.1-3.4,2.7-4.5,4.7c-1.1,2-1.6,4.3-1.6,6.9s0.5,4.9,1.6,6.9c1.1,2,2.6,3.6,4.5,4.7
			C424.4,56.7,426.6,57.3,429.1,57.3z M444.6,59.9h-3.5v-8.6l0.8-7.8l-0.8-7.7v-24h3.5V59.9z"/>
		<path id="XMLID_57_" class="st3" d="M456.7,20.6c-0.8,0-1.4-0.3-2-0.9c-0.5-0.6-0.8-1.2-0.8-2c0-0.8,0.3-1.4,0.8-2
			c0.5-0.5,1.2-0.8,2-0.8c0.8,0,1.4,0.3,2,0.8c0.5,0.5,0.8,1.2,0.8,2c0,0.8-0.3,1.4-0.8,2C458.1,20.3,457.5,20.6,456.7,20.6z
			 M455,59.9V28h3.4v31.8H455z"/>
		<path id="XMLID_60_" class="st3" d="M483.2,60.5c-3.1,0-5.9-0.7-8.4-2.2c-2.5-1.5-4.5-3.5-5.9-6c-1.5-2.5-2.2-5.3-2.2-8.5
			c0-3.1,0.7-5.9,2.2-8.4c1.5-2.5,3.4-4.5,5.9-5.9c2.5-1.5,5.3-2.2,8.4-2.2c3.1,0,5.8,0.7,8.3,2.2c2.5,1.5,4.5,3.4,5.9,5.9
			c1.5,2.5,2.2,5.3,2.2,8.4c0,3.1-0.7,6-2.2,8.5c-1.5,2.5-3.4,4.5-5.9,6C489.1,59.8,486.3,60.5,483.2,60.5z M483.2,57.3
			c2.4,0,4.6-0.6,6.5-1.8c1.9-1.2,3.5-2.8,4.6-4.8c1.1-2,1.7-4.3,1.7-6.9c0-2.5-0.6-4.7-1.7-6.7c-1.1-2-2.6-3.5-4.6-4.7
			c-1.9-1.2-4.1-1.7-6.5-1.7c-2.5,0-4.7,0.6-6.6,1.7c-1.9,1.2-3.5,2.7-4.6,4.7c-1.1,2-1.7,4.2-1.7,6.8c0,2.6,0.6,4.8,1.7,6.8
			c1.1,2,2.7,3.6,4.6,4.8C478.6,56.7,480.8,57.3,483.2,57.3z"/>
	</g>
	<g id="XMLID_63_">
		<path id="XMLID_64_" class="st1" d="M112.3,72.4h1.6l3.2,11.4l4.5-11.4h0.3l4.5,11.4l3.3-11.4h1.6l-4.5,15.8h-0.3l-4.7-12l-4.8,12
			h-0.3L112.3,72.4z"/>
		<path id="XMLID_66_" class="st1" d="M134.1,72h1.5v6.6c0.6-0.8,1.3-1.4,2-1.8s1.5-0.6,2.4-0.6c0.9,0,1.6,0.2,2.3,0.7
			c0.7,0.4,1.2,1,1.5,1.8c0.3,0.7,0.5,1.9,0.5,3.5v6h-1.5v-5.6c0-1.3-0.1-2.2-0.2-2.7c-0.2-0.8-0.5-1.4-1-1.7
			c-0.5-0.4-1.1-0.6-1.9-0.6c-0.9,0-1.7,0.3-2.4,0.9s-1.2,1.3-1.4,2.2c-0.1,0.6-0.2,1.6-0.2,3.2v4.3h-1.5V72z"/>
		<path id="XMLID_68_" class="st1" d="M157.3,84.3l1.3,0.7c-0.4,0.8-0.9,1.5-1.4,2c-0.5,0.5-1.2,0.9-1.8,1.1
			c-0.7,0.3-1.5,0.4-2.3,0.4c-1.9,0-3.4-0.6-4.5-1.9s-1.6-2.7-1.6-4.2c0-1.5,0.5-2.8,1.4-4c1.2-1.5,2.7-2.2,4.6-2.2
			c2,0,3.6,0.8,4.8,2.3c0.8,1.1,1.3,2.4,1.3,4h-10.5c0,1.4,0.5,2.5,1.3,3.3s1.9,1.3,3.1,1.3c0.6,0,1.2-0.1,1.7-0.3
			c0.6-0.2,1-0.5,1.4-0.8C156.4,85.6,156.9,85.1,157.3,84.3z M157.3,81.2c-0.2-0.8-0.5-1.4-0.9-1.9c-0.4-0.5-0.9-0.9-1.5-1.2
			c-0.6-0.3-1.3-0.4-2-0.4c-1.1,0-2.1,0.4-3,1.1c-0.6,0.5-1.1,1.3-1.4,2.4H157.3z"/>
		<path id="XMLID_71_" class="st1" d="M161.8,76.5h1.5v2.1c0.6-0.8,1.3-1.4,2-1.8s1.5-0.6,2.4-0.6c0.9,0,1.6,0.2,2.3,0.7
			c0.7,0.4,1.2,1,1.5,1.8s0.5,1.9,0.5,3.5v6h-1.5v-5.6c0-1.3-0.1-2.2-0.2-2.7c-0.2-0.8-0.5-1.4-1-1.7s-1.1-0.6-1.9-0.6
			c-0.9,0-1.7,0.3-2.4,0.9s-1.2,1.3-1.4,2.2c-0.1,0.6-0.2,1.6-0.2,3.2v4.3h-1.5V76.5z"/>
		<path id="XMLID_73_" class="st1" d="M180.3,72.4h1.8l4,6.5l4-6.5h1.8l-5,8.3v7.6h-1.6v-7.6L180.3,72.4z"/>
		<path id="XMLID_75_" class="st1" d="M199.8,76.2c1.8,0,3.3,0.7,4.5,2c1.1,1.2,1.6,2.6,1.6,4.2c0,1.6-0.6,3.1-1.7,4.3
			c-1.1,1.2-2.6,1.8-4.4,1.8c-1.8,0-3.3-0.6-4.4-1.8s-1.7-2.6-1.7-4.3c0-1.6,0.5-3,1.6-4.2C196.5,76.8,198,76.2,199.8,76.2z
			 M199.8,77.7c-1.3,0-2.3,0.5-3.2,1.4c-0.9,0.9-1.3,2-1.3,3.4c0,0.8,0.2,1.6,0.6,2.4s1,1.3,1.7,1.7c0.7,0.4,1.5,0.6,2.3,0.6
			s1.6-0.2,2.3-0.6c0.7-0.4,1.3-1,1.7-1.7c0.4-0.7,0.6-1.5,0.6-2.4c0-1.3-0.5-2.4-1.4-3.4S201.1,77.7,199.8,77.7z"/>
		<path id="XMLID_78_" class="st1" d="M208.5,76.5h1.5v5.5c0,1.3,0.1,2.2,0.2,2.8c0.2,0.7,0.6,1.3,1.2,1.7c0.6,0.4,1.3,0.6,2.2,0.6
			c0.8,0,1.6-0.2,2.1-0.6c0.6-0.4,1-0.9,1.2-1.6c0.2-0.5,0.2-1.4,0.2-2.9v-5.5h1.5v5.7c0,1.6-0.2,2.8-0.6,3.6s-0.9,1.5-1.7,1.9
			c-0.8,0.5-1.7,0.7-2.8,0.7s-2.1-0.2-2.9-0.7s-1.3-1.1-1.7-1.9s-0.6-2.1-0.6-3.7V76.5z"/>
		<path id="XMLID_80_" class="st1" d="M233.6,72.4h1.6V83c0,1.6-0.1,2.8-0.4,3.4c-0.3,0.6-0.7,1.2-1.3,1.5c-0.6,0.4-1.3,0.6-2.2,0.6
			c-0.6,0-1.3-0.1-1.9-0.4c-0.6-0.2-1.3-0.7-2.1-1.3l0.8-1.3c0.8,0.6,1.5,1,2.1,1.2c0.4,0.2,0.7,0.2,1.1,0.2c0.5,0,0.9-0.1,1.2-0.4
			c0.4-0.3,0.6-0.6,0.8-1.1s0.2-1.3,0.2-2.6V72.4z"/>
		<path id="XMLID_82_" class="st1" d="M238.6,76.5h1.5v5.5c0,1.3,0.1,2.2,0.2,2.8c0.2,0.7,0.6,1.3,1.2,1.7c0.6,0.4,1.3,0.6,2.2,0.6
			c0.8,0,1.6-0.2,2.1-0.6c0.6-0.4,1-0.9,1.2-1.6c0.2-0.5,0.2-1.4,0.2-2.9v-5.5h1.5v5.7c0,1.6-0.2,2.8-0.6,3.6s-0.9,1.5-1.7,1.9
			c-0.8,0.5-1.7,0.7-2.8,0.7s-2.1-0.2-2.9-0.7s-1.3-1.1-1.7-1.9s-0.6-2.1-0.6-3.7V76.5z"/>
		<path id="XMLID_84_" class="st1" d="M258,77.8l-1,1c-0.8-0.8-1.6-1.2-2.4-1.2c-0.5,0-0.9,0.2-1.3,0.5c-0.3,0.3-0.5,0.7-0.5,1.1
			c0,0.4,0.1,0.7,0.4,1.1c0.3,0.4,0.9,0.8,1.8,1.2c1.1,0.6,1.9,1.1,2.3,1.7c0.4,0.5,0.6,1.2,0.6,1.8c0,1-0.3,1.8-1,2.4
			c-0.7,0.7-1.5,1-2.5,1c-0.7,0-1.3-0.1-1.9-0.4c-0.6-0.3-1.1-0.7-1.5-1.2l0.9-1.1c0.8,0.9,1.6,1.3,2.4,1.3c0.6,0,1.1-0.2,1.5-0.6
			c0.4-0.4,0.6-0.8,0.6-1.4c0-0.4-0.1-0.8-0.4-1.2c-0.3-0.3-0.9-0.7-1.9-1.2c-1.1-0.5-1.8-1.1-2.2-1.6c-0.4-0.5-0.6-1.1-0.6-1.8
			c0-0.9,0.3-1.6,0.9-2.2c0.6-0.6,1.4-0.9,2.3-0.9C255.9,76.2,256.9,76.7,258,77.8z"/>
		<path id="XMLID_86_" class="st1" d="M262,72.1h1.5v4.3h2.4v1.3h-2.4v10.4H262V77.8H260v-1.3h2.1V72.1z"/>
		<path id="XMLID_88_" class="st1" d="M274.5,88.2V72.4h0.3l10.5,12.1V72.4h1.6v15.8h-0.4l-10.4-12v12H274.5z"/>
		<path id="XMLID_90_" class="st1" d="M300.4,84.3l1.3,0.7c-0.4,0.8-0.9,1.5-1.4,2c-0.5,0.5-1.2,0.9-1.8,1.1
			c-0.7,0.3-1.5,0.4-2.3,0.4c-1.9,0-3.4-0.6-4.5-1.9s-1.6-2.7-1.6-4.2c0-1.5,0.5-2.8,1.4-4c1.2-1.5,2.7-2.2,4.6-2.2
			c2,0,3.6,0.8,4.8,2.3c0.8,1.1,1.3,2.4,1.3,4h-10.5c0,1.4,0.5,2.5,1.3,3.3s1.9,1.3,3.1,1.3c0.6,0,1.2-0.1,1.7-0.3
			c0.6-0.2,1-0.5,1.4-0.8S299.9,85.1,300.4,84.3z M300.4,81.2c-0.2-0.8-0.5-1.4-0.9-1.9c-0.4-0.5-0.9-0.9-1.5-1.2
			c-0.6-0.3-1.3-0.4-2-0.4c-1.1,0-2.1,0.4-3,1.1c-0.6,0.5-1.1,1.3-1.4,2.4H300.4z"/>
		<path id="XMLID_93_" class="st1" d="M314.7,84.3l1.3,0.7c-0.4,0.8-0.9,1.5-1.4,2c-0.5,0.5-1.2,0.9-1.8,1.1
			c-0.7,0.3-1.5,0.4-2.3,0.4c-1.9,0-3.4-0.6-4.5-1.9s-1.6-2.7-1.6-4.2c0-1.5,0.5-2.8,1.4-4c1.2-1.5,2.7-2.2,4.6-2.2
			c2,0,3.6,0.8,4.8,2.3c0.8,1.1,1.3,2.4,1.3,4h-10.5c0,1.4,0.5,2.5,1.3,3.3s1.9,1.3,3.1,1.3c0.6,0,1.2-0.1,1.7-0.3
			c0.6-0.2,1-0.5,1.4-0.8S314.2,85.1,314.7,84.3z M314.7,81.2c-0.2-0.8-0.5-1.4-0.9-1.9c-0.4-0.5-0.9-0.9-1.5-1.2
			c-0.6-0.3-1.3-0.4-2-0.4c-1.1,0-2.1,0.4-3,1.1c-0.6,0.5-1.1,1.3-1.4,2.4H314.7z"/>
		<path id="XMLID_96_" class="st1" d="M330.8,72v16.2h-1.5v-2c-0.6,0.8-1.3,1.3-2.1,1.7c-0.8,0.4-1.6,0.6-2.6,0.6
			c-1.7,0-3.1-0.6-4.2-1.8c-1.2-1.2-1.8-2.7-1.8-4.4c0-1.7,0.6-3.1,1.8-4.3c1.2-1.2,2.6-1.8,4.3-1.8c1,0,1.8,0.2,2.6,0.6
			c0.8,0.4,1.5,1,2,1.8V72H330.8z M324.8,77.6c-0.8,0-1.6,0.2-2.3,0.6c-0.7,0.4-1.3,1-1.7,1.7c-0.4,0.7-0.6,1.5-0.6,2.4
			c0,0.8,0.2,1.6,0.6,2.4c0.4,0.8,1,1.3,1.7,1.8c0.7,0.4,1.5,0.6,2.3,0.6c0.8,0,1.6-0.2,2.3-0.6c0.7-0.4,1.3-1,1.7-1.7
			c0.4-0.7,0.6-1.5,0.6-2.4c0-1.4-0.4-2.5-1.3-3.4S326.1,77.6,324.8,77.6z"/>
		<path id="XMLID_99_" class="st1" d="M338.9,85.2l1.3-0.8c0.9,1.7,2,2.6,3.3,2.6c0.5,0,1-0.1,1.5-0.4s0.8-0.6,1.1-1
			c0.2-0.4,0.4-0.9,0.4-1.3c0-0.5-0.2-1-0.5-1.6c-0.5-0.7-1.4-1.5-2.7-2.5c-1.3-1-2.1-1.7-2.5-2.2c-0.6-0.7-0.8-1.6-0.8-2.4
			c0-0.7,0.2-1.3,0.5-1.9c0.3-0.6,0.8-1,1.4-1.3c0.6-0.3,1.2-0.5,2-0.5c0.7,0,1.4,0.2,2.1,0.6c0.6,0.4,1.3,1,2.1,2l-1.3,1
			c-0.6-0.8-1.1-1.3-1.5-1.6c-0.4-0.3-0.9-0.4-1.4-0.4c-0.6,0-1.2,0.2-1.6,0.6c-0.4,0.4-0.6,0.9-0.6,1.4c0,0.3,0.1,0.7,0.2,1
			s0.4,0.7,0.8,1.1c0.2,0.2,0.9,0.7,2,1.6c1.4,1,2.3,1.9,2.8,2.7c0.5,0.8,0.8,1.6,0.8,2.4c0,1.1-0.4,2.1-1.3,3
			c-0.9,0.8-1.9,1.3-3.2,1.3c-1,0-1.8-0.3-2.6-0.8S339.6,86.4,338.9,85.2z"/>
		<path id="XMLID_101_" class="st1" d="M356.8,76.2c1.8,0,3.3,0.7,4.5,2c1.1,1.2,1.6,2.6,1.6,4.2c0,1.6-0.6,3.1-1.7,4.3
			c-1.1,1.2-2.6,1.8-4.4,1.8c-1.8,0-3.3-0.6-4.4-1.8c-1.1-1.2-1.7-2.6-1.7-4.3c0-1.6,0.5-3,1.6-4.2C353.5,76.8,355,76.2,356.8,76.2z
			 M356.8,77.7c-1.3,0-2.3,0.5-3.2,1.4s-1.3,2-1.3,3.4c0,0.8,0.2,1.6,0.6,2.4c0.4,0.7,1,1.3,1.7,1.7s1.5,0.6,2.3,0.6
			c0.8,0,1.6-0.2,2.3-0.6s1.3-1,1.7-1.7c0.4-0.7,0.6-1.5,0.6-2.4c0-1.3-0.5-2.4-1.4-3.4C359.1,78.1,358,77.7,356.8,77.7z"/>
		<path id="XMLID_104_" class="st1" d="M365.6,76.5h1.5v2c0.5-0.7,1.1-1.3,1.6-1.6c0.8-0.5,1.6-0.7,2.4-0.7c0.6,0,1.1,0.1,1.6,0.3
			c0.5,0.2,0.9,0.5,1.2,0.9s0.6,0.9,0.8,1.6c0.5-0.9,1.1-1.6,1.9-2.1c0.8-0.5,1.6-0.7,2.4-0.7c0.8,0,1.5,0.2,2.1,0.6s1.1,1,1.4,1.7
			s0.5,1.8,0.5,3.3v6.4h-1.5v-6.4c0-1.3-0.1-2.1-0.3-2.6s-0.5-0.8-0.9-1.1c-0.4-0.3-0.9-0.4-1.5-0.4c-0.7,0-1.4,0.2-2,0.6
			c-0.6,0.4-1,1-1.3,1.7c-0.3,0.7-0.4,1.9-0.4,3.6v4.6h-1.5v-6c0-1.4-0.1-2.4-0.3-2.9c-0.2-0.5-0.5-0.9-0.9-1.2
			c-0.4-0.3-1-0.5-1.6-0.5c-0.7,0-1.3,0.2-1.9,0.6c-0.6,0.4-1.1,1-1.3,1.7c-0.3,0.7-0.4,1.8-0.4,3.3v5h-1.5V76.5z"/>
		<path id="XMLID_106_" class="st1" d="M396.1,84.3l1.3,0.7c-0.4,0.8-0.9,1.5-1.4,2c-0.5,0.5-1.2,0.9-1.8,1.1
			c-0.7,0.3-1.5,0.4-2.3,0.4c-1.9,0-3.4-0.6-4.5-1.9s-1.6-2.7-1.6-4.2c0-1.5,0.5-2.8,1.4-4c1.2-1.5,2.7-2.2,4.6-2.2
			c2,0,3.6,0.8,4.8,2.3c0.8,1.1,1.3,2.4,1.3,4h-10.5c0,1.4,0.5,2.5,1.3,3.3s1.9,1.3,3.1,1.3c0.6,0,1.2-0.1,1.7-0.3
			c0.6-0.2,1-0.5,1.4-0.8S395.7,85.1,396.1,84.3z M396.1,81.2c-0.2-0.8-0.5-1.4-0.9-1.9c-0.4-0.5-0.9-0.9-1.5-1.2
			c-0.6-0.3-1.3-0.4-2-0.4c-1.1,0-2.1,0.4-3,1.1c-0.6,0.5-1.1,1.3-1.4,2.4H396.1z"/>
		<path id="XMLID_109_" class="st1" d="M406.2,88.2l2.3-15.8h0.3l6.4,13l6.4-13h0.3l2.3,15.8h-1.5l-1.6-11.3l-5.6,11.3h-0.4
			l-5.7-11.4l-1.6,11.4H406.2z"/>
		<path id="XMLID_111_" class="st1" d="M436.7,84.3L438,85c-0.4,0.8-0.9,1.5-1.4,2c-0.5,0.5-1.2,0.9-1.8,1.1
			c-0.7,0.3-1.5,0.4-2.3,0.4c-1.9,0-3.4-0.6-4.5-1.9s-1.6-2.7-1.6-4.2c0-1.5,0.5-2.8,1.4-4c1.2-1.5,2.7-2.2,4.6-2.2
			c2,0,3.6,0.8,4.8,2.3c0.8,1.1,1.3,2.4,1.3,4h-10.5c0,1.4,0.5,2.5,1.3,3.3s1.9,1.3,3.1,1.3c0.6,0,1.2-0.1,1.7-0.3
			c0.6-0.2,1-0.5,1.4-0.8S436.3,85.1,436.7,84.3z M436.7,81.2c-0.2-0.8-0.5-1.4-0.9-1.9c-0.4-0.5-0.9-0.9-1.5-1.2
			c-0.6-0.3-1.3-0.4-2-0.4c-1.1,0-2.1,0.4-3,1.1c-0.6,0.5-1.1,1.3-1.4,2.4H436.7z"/>
		<path id="XMLID_114_" class="st1" d="M445.9,73.9v-1.5h8.7v1.5h-3.5v14.3h-1.6V73.9H445.9z"/>
		<path id="XMLID_116_" class="st1" d="M457.2,71.7c0.3,0,0.6,0.1,0.9,0.4c0.2,0.2,0.4,0.5,0.4,0.9c0,0.3-0.1,0.6-0.4,0.9
			c-0.2,0.2-0.5,0.4-0.9,0.4c-0.3,0-0.6-0.1-0.9-0.4c-0.2-0.2-0.4-0.5-0.4-0.9c0-0.3,0.1-0.6,0.4-0.9
			C456.5,71.8,456.8,71.7,457.2,71.7z M456.4,76.5h1.5v11.7h-1.5V76.5z"/>
		<path id="XMLID_119_" class="st1" d="M461,76.5h1.5v2c0.5-0.7,1.1-1.3,1.6-1.6c0.8-0.5,1.6-0.7,2.4-0.7c0.6,0,1.1,0.1,1.6,0.3
			c0.5,0.2,0.9,0.5,1.2,0.9s0.6,0.9,0.8,1.6c0.5-0.9,1.1-1.6,1.9-2.1c0.8-0.5,1.6-0.7,2.4-0.7c0.8,0,1.5,0.2,2.1,0.6s1.1,1,1.4,1.7
			s0.5,1.8,0.5,3.3v6.4H477v-6.4c0-1.3-0.1-2.1-0.3-2.6s-0.5-0.8-0.9-1.1c-0.4-0.3-0.9-0.4-1.5-0.4c-0.7,0-1.4,0.2-2,0.6
			c-0.6,0.4-1,1-1.3,1.7c-0.3,0.7-0.4,1.9-0.4,3.6v4.6H469v-6c0-1.4-0.1-2.4-0.3-2.9c-0.2-0.5-0.5-0.9-0.9-1.2
			c-0.4-0.3-1-0.5-1.6-0.5c-0.7,0-1.3,0.2-1.9,0.6c-0.6,0.4-1.1,1-1.3,1.7c-0.3,0.7-0.4,1.8-0.4,3.3v5H461V76.5z"/>
		<path id="XMLID_121_" class="st1" d="M491.5,84.3l1.3,0.7c-0.4,0.8-0.9,1.5-1.4,2c-0.5,0.5-1.2,0.9-1.8,1.1
			c-0.7,0.3-1.5,0.4-2.3,0.4c-1.9,0-3.4-0.6-4.5-1.9s-1.6-2.7-1.6-4.2c0-1.5,0.5-2.8,1.4-4c1.2-1.5,2.7-2.2,4.6-2.2
			c2,0,3.6,0.8,4.8,2.3c0.8,1.1,1.3,2.4,1.3,4h-10.5c0,1.4,0.5,2.5,1.3,3.3s1.9,1.3,3.1,1.3c0.6,0,1.2-0.1,1.7-0.3
			c0.6-0.2,1-0.5,1.4-0.8S491.1,85.1,491.5,84.3z M491.5,81.2c-0.2-0.8-0.5-1.4-0.9-1.9c-0.4-0.5-0.9-0.9-1.5-1.2
			c-0.6-0.3-1.3-0.4-2-0.4c-1.1,0-2.1,0.4-3,1.1c-0.6,0.5-1.1,1.3-1.4,2.4H491.5z"/>
	</g>
	<g>
		<g>
			<g>
				<path class="st2" d="M92,50.5c-0.8-0.8-1.1-0.9-2.2-0.4c-0.1,0-0.1-0.1-0.1-0.1c0.8-0.8,0.9-1.1,0.4-2.2c0-0.1,0.1-0.1,0.1-0.1
					c0.8,0.8,1.1,0.9,2.2,0.4c0.1,0,0.1,0.1,0.1,0.1c-0.8,0.8-0.9,1.1-0.4,2.2C92.2,50.5,92.1,50.5,92,50.5z"/>
			</g>
		</g>
		<g>
			<g>
				<path class="st2" d="M99.5,64.2c-1.5-1.6-2.2-1.7-4.2-0.8c-0.1,0.1-0.3-0.1-0.2-0.2c1.6-1.5,1.7-2.2,0.8-4.2
					c-0.1-0.1,0.1-0.3,0.2-0.2c1.5,1.6,2.2,1.7,4.2,0.8c0.1-0.1,0.3,0.1,0.2,0.2c-1.6,1.5-1.7,2.2-0.8,4.2
					C99.8,64.2,99.6,64.3,99.5,64.2z"/>
			</g>
		</g>
		<g>
			<g>
				<path class="st2" d="M89.3,28.6c-1.5-1.6-2.2-1.7-4.2-0.8c-0.1,0.1-0.3-0.1-0.2-0.2c1.6-1.5,1.7-2.2,0.8-4.2
					c-0.1-0.1,0.1-0.3,0.2-0.2c1.5,1.6,2.2,1.7,4.2,0.8c0.1-0.1,0.3,0.1,0.2,0.2c-1.6,1.5-1.7,2.2-0.8,4.2
					C89.6,28.6,89.4,28.7,89.3,28.6z"/>
			</g>
		</g>
		<g>
			<g>
				<path class="st2" d="M91.4,60.8c-0.8-0.8-1.1-0.9-2.2-0.4c-0.1,0-0.1-0.1-0.1-0.1c0.8-0.8,0.9-1.1,0.4-2.2
					c0-0.1,0.1-0.1,0.1-0.1c0.8,0.8,1.1,0.9,2.2,0.4c0.1,0,0.1,0.1,0.1,0.1c-0.8,0.8-0.9,1.1-0.4,2.2C91.5,60.8,91.4,60.9,91.4,60.8
					z"/>
			</g>
		</g>
		<g>
			<g>
				<path class="st2" d="M94.2,32.2c-0.8-0.8-1.1-0.9-2.2-0.4c-0.1,0-0.1-0.1-0.1-0.1c0.8-0.8,0.9-1.1,0.4-2.2
					c0-0.1,0.1-0.1,0.1-0.1c0.8,0.8,1.1,0.9,2.2,0.4c0.1,0,0.1,0.1,0.1,0.1c-0.8,0.8-0.9,1.1-0.4,2.2C94.4,32.2,94.3,32.3,94.2,32.2
					z"/>
			</g>
		</g>
		<g>
			<g>
				<path class="st2" d="M97.1,44.8c-1.6-1.7-2.3-1.8-4.4-0.8c-0.1,0.1-0.3-0.1-0.2-0.2c1.7-1.6,1.8-2.3,0.8-4.4
					c-0.1-0.1,0.1-0.3,0.2-0.2c1.6,1.7,2.3,1.8,4.4,0.8c0.1-0.1,0.3,0.1,0.2,0.2c-1.7,1.6-1.8,2.3-0.8,4.4
					C97.4,44.8,97.3,44.9,97.1,44.8z"/>
			</g>
		</g>
		<g>
			<g>
				<path class="st2" d="M87.9,73.7c-0.8-0.8-1.1-0.9-2.2-0.4c-0.1,0-0.1-0.1-0.1-0.1c0.8-0.8,0.9-1.1,0.4-2.2
					c0-0.1,0.1-0.1,0.1-0.1c0.8,0.8,1.1,0.9,2.2,0.4c0.1,0,0.1,0.1,0.1,0.1c-0.8,0.8-0.9,1.1-0.4,2.2C88,73.7,87.9,73.8,87.9,73.7z"
					/>
			</g>
		</g>
		<g>
			<g>
				<path class="st2" d="M94.2,72.9c-0.8-0.8-1.1-0.9-2.2-0.4c-0.1,0-0.1-0.1-0.1-0.1c0.8-0.8,0.9-1.1,0.4-2.2
					c0-0.1,0.1-0.1,0.1-0.1c0.8,0.8,1.1,0.9,2.2,0.4c0.1,0,0.1,0.1,0.1,0.1c-0.8,0.8-0.9,1.1-0.4,2.2C94.4,72.9,94.3,73,94.2,72.9z"
					/>
			</g>
		</g>
		<path id="XMLID_1_" class="st2" d="M90.8,73.2c-0.7,1.1-1.3,2.2-2.1,3.3c-0.7,1.1-1.5,2.1-2.3,3.1l-0.6,0.7l-0.2,0.2
			c-0.1,0.1-0.1,0.1-0.2,0.2l-0.3,0.4l-0.3,0.4l-0.2,0.2l-0.2,0.2l-0.7,0.7c-0.2,0.2-0.5,0.5-0.7,0.7l-0.3,0.3l-0.4,0.3L82,84.3
			c-0.1,0.1-0.2,0.2-0.4,0.3l-0.7,0.7l-0.2,0.2l-0.2,0.2l-0.4,0.3l-0.4,0.3c-0.1,0.1-0.1,0.1-0.2,0.2l-0.2,0.2l-0.8,0.6l-0.8,0.6
			c-0.1,0.1-0.3,0.2-0.4,0.3l-0.4,0.3l-0.4,0.3c-0.1,0.1-0.3,0.2-0.4,0.3l-0.8,0.5c-0.3,0.2-0.5,0.4-0.8,0.5
			c-0.1,0.1-0.3,0.2-0.4,0.3l-0.4,0.3c-0.3,0.2-0.6,0.3-0.8,0.5c-0.3,0.2-0.6,0.3-0.9,0.5l-0.9,0.5c-1.2,0.6-2.3,1.2-3.5,1.7
			c-1.2,0.5-2.4,1-3.7,1.4l-0.5,0.2c-0.2,0.1-0.3,0.1-0.5,0.1l-0.9,0.3l-0.9,0.3L61,95.9l-0.2,0.1l-0.5,0.1
			c-1.3,0.3-2.6,0.6-3.8,0.8c-1.3,0.2-2.6,0.4-3.9,0.5c-1.3,0.1-2.6,0.2-3.9,0.1c-1.3,0-2.6-0.1-3.9-0.2c-1.3-0.1-2.6-0.3-3.9-0.5
			l-0.5-0.1c-0.2,0-0.3-0.1-0.5-0.1l-1-0.2l-1-0.2l-0.2-0.1l-0.2-0.1L37,96c-5.1-1.2-10-3.3-14.4-6.1c-4.4-2.8-8.4-6.3-11.7-10.4
			C7.6,75.4,5,70.8,3.1,65.9C1.3,61,0.2,55.8,0,50.6c-0.1-2.6,0-5.2,0.3-7.8c0.2-1.3,0.4-2.6,0.6-3.9c0.3-1.3,0.6-2.6,1-3.8
			c0.1-0.3,0.2-0.6,0.3-0.9l0.3-0.9c0.2-0.6,0.4-1.2,0.7-1.8c0.5-1.2,1-2.4,1.5-3.6c0.6-1.2,1.2-2.3,1.8-3.5l0.2-0.4
			c0.1-0.1,0.2-0.3,0.3-0.4l0.5-0.8C8,22,8.3,21.4,8.7,20.9L9,20.5l0.3-0.4l0.3-0.4l0.1-0.2l0.1-0.2c0.2-0.3,0.4-0.5,0.6-0.8
			l0.6-0.8c0.8-1,1.7-2,2.6-2.9l0.7-0.7c0.2-0.2,0.5-0.5,0.7-0.7c0.2-0.2,0.5-0.4,0.7-0.7l0.4-0.3c0.1-0.1,0.2-0.2,0.4-0.3l0.4-0.3
			c0.1-0.1,0.2-0.2,0.4-0.3l0.8-0.6c0.3-0.2,0.5-0.4,0.8-0.6c0.1-0.1,0.3-0.2,0.4-0.3l0.4-0.3c4.2-3.1,8.9-5.6,13.9-7.2
			C38.4,0.8,43.7,0,48.9,0l0.5,0c0.2,0,0.3,0,0.5,0l0.5,0c0.2,0,0.3,0,0.5,0l1,0.1l1,0.1c1.3,0.1,2.6,0.3,3.9,0.5
			c1.3,0.2,2.6,0.5,3.8,0.8L61,1.6c0.2,0,0.3,0.1,0.5,0.1L62,1.8l0.2,0.1L62.4,2c0.3,0.1,0.6,0.2,0.9,0.3l0.9,0.3
			c2.5,0.8,4.9,1.9,7.2,3.1l0.4,0.2l0.4,0.2l0.4,0.2c0.1,0,0.1,0.1,0.2,0.1l0.2,0.1C73.5,6.8,73.8,7,74,7.1l0.8,0.5
			C76,8.3,77,9.1,78.1,9.9l0.8,0.6l0.8,0.6l0.2,0.2l0.2,0.2l0.4,0.3c0.1,0.1,0.2,0.2,0.4,0.3l0.4,0.3c0.5,0.4,1,0.9,1.4,1.3l0.7,0.7
			c0.1,0.1,0.2,0.2,0.3,0.4l0.3,0.4c0.1,0.1,0.2,0.2,0.3,0.4l0.3,0.4c0.2,0.2,0.4,0.5,0.7,0.7c0.2,0.2,0.4,0.5,0.6,0.7l0.6,0.8
			c0.8,1,1.6,2.1,2.3,3.1c-0.7-1.1-1.5-2.1-2.4-3.1l-0.6-0.7c-0.2-0.2-0.4-0.5-0.6-0.7c-0.2-0.2-0.4-0.5-0.7-0.7l-0.3-0.4
			c-0.1-0.1-0.2-0.2-0.3-0.4l-0.3-0.3c-0.1-0.1-0.2-0.2-0.3-0.3l-0.7-0.7c-0.5-0.4-0.9-0.9-1.4-1.3l-0.4-0.3
			c-0.1-0.1-0.2-0.2-0.4-0.3l-0.4-0.3l-0.2-0.2l-0.2-0.2l-0.8-0.6L78,10c-1-0.8-2.1-1.5-3.2-2.2l-0.8-0.5c-0.3-0.2-0.6-0.3-0.8-0.5
			l-0.2-0.1c-0.1,0-0.1-0.1-0.2-0.1l-0.4-0.2l-0.4-0.2l-0.4-0.2c-2.3-1.2-4.7-2.2-7.2-3c-1.2-0.4-2.5-0.8-3.7-1.1
			c-1.3-0.3-2.5-0.6-3.8-0.8c-1.3-0.2-2.6-0.4-3.9-0.5l-1-0.1l-1,0c-0.2,0-0.3,0-0.5,0l-0.5-0.1c-0.2,0-0.3-0.1-0.5-0.1h-0.5h-0.5
			c-0.2,0-0.3,0.1-0.5,0.1l-0.5,0.1l-0.2,0l-0.2,0l-1,0.1l-1,0.1c-1.3,0.1-2.6,0.3-3.9,0.5l-1,0.2l-1,0.2c-0.2,0-0.3,0.1-0.5,0.1
			l-0.5,0.1c-0.2,0-0.3,0.1-0.5,0.1l-0.5,0.1c-1.3,0.3-2.5,0.7-3.7,1.1c-1.2,0.4-2.4,0.9-3.6,1.4c-1.2,0.5-2.4,1.1-3.5,1.7l-0.9,0.5
			l-0.8,0.5L24.6,7l-0.2,0.1l-0.4,0.3l-0.4,0.3l-0.4,0.3l-0.4,0.3l-0.2,0.1l-0.2,0.1l-0.8,0.5c-0.5,0.4-1.1,0.7-1.6,1.1l-0.4,0.3
			c-0.1,0.1-0.3,0.2-0.4,0.3c-0.3,0.2-0.5,0.4-0.8,0.6l-0.7,0.6c-0.1,0.1-0.2,0.2-0.4,0.3l-0.4,0.3c-0.1,0.1-0.2,0.2-0.4,0.3
			l-0.4,0.3c-0.2,0.2-0.5,0.4-0.7,0.7c-0.2,0.2-0.5,0.4-0.7,0.7l-0.7,0.7c-0.9,0.9-1.8,1.9-2.6,2.9l-0.6,0.8
			c-0.2,0.3-0.4,0.5-0.6,0.8l-0.1,0.2L10,20l-0.3,0.4l-0.3,0.4l-0.3,0.4c-0.4,0.5-0.7,1.1-1.1,1.6l-0.5,0.8
			c-0.1,0.1-0.2,0.3-0.2,0.4l-0.2,0.4c-0.6,1.1-1.3,2.3-1.8,3.4c-0.6,1.2-1.1,2.4-1.5,3.6c-0.2,0.6-0.4,1.2-0.7,1.8l-0.3,0.9
			c-0.1,0.3-0.2,0.6-0.3,0.9c-0.4,1.2-0.7,2.5-0.9,3.8c-0.3,1.3-0.5,2.5-0.6,3.8c-0.3,2.6-0.4,5.2-0.3,7.8c0.2,5.2,1.2,10.3,3,15.2
			l0.2,0.5C3.9,66.3,4,66.5,4,66.6l0.4,0.9l0.4,0.9l0.1,0.2L5,68.8l0.2,0.4l0.2,0.4l0.2,0.4l0.2,0.4l0.1,0.2L6,71l0.5,0.9L7,72.7
			C7.6,73.8,8.3,74.9,9,76c0.7,1.1,1.5,2.1,2.3,3.1c3.3,4,7.2,7.5,11.5,10.3c1.1,0.7,2.2,1.3,3.4,2l0.4,0.2c0.1,0.1,0.3,0.2,0.4,0.2
			l0.9,0.4l0.9,0.4c0.1,0.1,0.3,0.1,0.4,0.2l0.4,0.2c1.2,0.5,2.4,1,3.6,1.4c1.2,0.4,2.5,0.8,3.7,1.1l0.5,0.1l0.2,0.1l0.2,0.1L39,96
			l1,0.2c0.2,0,0.3,0.1,0.5,0.1l0.5,0.1c1.3,0.2,2.6,0.4,3.9,0.5c1.3,0.1,2.6,0.2,3.9,0.2c1.3,0,2.6,0,3.9-0.1
			c1.3-0.1,2.6-0.2,3.9-0.4c1.3-0.2,2.6-0.5,3.8-0.8l0.5-0.1l0.2-0.1l0.2-0.1l0.9-0.3L63,95c0.2,0,0.3-0.1,0.5-0.1l0.5-0.1
			c1.2-0.4,2.5-0.9,3.7-1.4c4.8-2,9.3-4.8,13.2-8.2l0.7-0.6c0.1-0.1,0.2-0.2,0.4-0.3l0.4-0.3l0.4-0.3l0.3-0.3
			c0.2-0.2,0.5-0.5,0.7-0.7c0.9-0.9,1.8-1.9,2.6-2.9c0.8-1,1.6-2,2.4-3.1C89.4,75.4,90.1,74.3,90.8,73.2z"/>
		<circle class="st2" cx="87.5" cy="65.5" r="0.7"/>
		<circle class="st2" cx="98.1" cy="35.3" r="0.7"/>
		<circle class="st2" cx="92.6" cy="68.2" r="0.4"/>
		<circle class="st2" cx="87.6" cy="51.6" r="0.4"/>
		<circle class="st2" cx="90.2" cy="77.5" r="0.3"/>
		<circle class="st2" cx="98.7" cy="53.4" r="0.3"/>
		<circle class="st2" cx="83" cy="80.8" r="0.3"/>
		<circle class="st2" cx="89.4" cy="37.1" r="0.3"/>
		<circle class="st2" cx="100.4" cy="43.8" r="0.3"/>
		<circle class="st2" cx="85.4" cy="19.3" r="0.3"/>
		<circle class="st2" cx="86.8" cy="30.5" r="0.3"/>
	</g>
</g>
</svg>
