<?xml version="1.0" encoding="utf-8"?>
<!-- Generator: Adobe Illustrator 19.0.0, SVG Export Plug-In . SVG Version: 6.00 Build 0)  -->
<svg version="1.1" id="Layer_1" xmlns="http://www.w3.org/2000/svg" xmlns:xlink="http://www.w3.org/1999/xlink" x="0px" y="0px"
	 viewBox="0 0 276.8 277.4" style="enable-background:new 0 0 276.8 277.4;" xml:space="preserve">
<style type="text/css">
	.st0{fill:#FAC5CB;}
</style>
<g>
	<g>
		<g>
			<g>
				<path class="st0" d="M212.4,40.5c-3.2,0.5-4,1.2-4.5,4.5c0,0.2-0.4,0.2-0.4,0c-0.5-3.2-1.2-4-4.5-4.5c-0.2,0-0.2-0.4,0-0.4
					c3.2-0.5,4-1.2,4.5-4.5c0-0.2,0.4-0.2,0.4,0c0.5,3.2,1.2,4,4.5,4.5C212.6,40.1,212.6,40.4,212.4,40.5z"/>
			</g>
		</g>
		<g>
			<g>
				<path class="st0" d="M256.5,45.1c-6.2,0.9-7.6,2.4-8.6,8.6c-0.1,0.4-0.7,0.4-0.8,0c-0.9-6.2-2.4-7.6-8.6-8.6
					c-0.4-0.1-0.4-0.7,0-0.8c6.2-0.9,7.6-2.4,8.6-8.6c0.1-0.4,0.7-0.4,0.8,0c0.9,6.2,2.4,7.6,8.6,8.6
					C256.9,44.4,256.9,45,256.5,45.1z"/>
			</g>
		</g>
		<g>
			<g>
				<path class="st0" d="M156.8,11.5c-6.2,0.9-7.6,2.4-8.6,8.6c-0.1,0.4-0.7,0.4-0.8,0c-0.9-6.2-2.4-7.6-8.6-8.6
					c-0.4-0.1-0.4-0.7,0-0.8c6.2-0.9,7.6-2.4,8.6-8.6c0.1-0.4,0.7-0.4,0.8,0c0.9,6.2,2.4,7.6,8.6,8.6
					C157.3,10.8,157.3,11.5,156.8,11.5z"/>
			</g>
		</g>
		<g>
			<g>
				<path class="st0" d="M235.5,58.7c-3.2,0.5-4,1.2-4.5,4.5c0,0.2-0.4,0.2-0.4,0c-0.5-3.2-1.2-4-4.5-4.5c-0.2,0-0.2-0.4,0-0.4
					c3.2-0.5,4-1.2,4.5-4.5c0-0.2,0.4-0.2,0.4,0c0.5,3.2,1.2,4,4.5,4.5C235.7,58.4,235.7,58.7,235.5,58.7z"/>
			</g>
		</g>
		<g>
			<g>
				<path class="st0" d="M173.2,5.8c-3.2,0.5-4,1.2-4.5,4.5c0,0.2-0.4,0.2-0.4,0c-0.5-3.2-1.2-4-4.5-4.5c-0.2,0-0.2-0.4,0-0.4
					c3.2-0.5,4-1.2,4.5-4.5c0-0.2,0.4-0.2,0.4,0c0.5,3.2,1.2,4,4.5,4.5C173.5,5.5,173.5,5.8,173.2,5.8z"/>
			</g>
		</g>
		<g>
			<g>
				<path class="st0" d="M207.4,19.3c-6.5,1-7.9,2.5-8.9,8.9c-0.1,0.5-0.7,0.5-0.8,0c-1-6.5-2.5-7.9-8.9-8.9c-0.5-0.1-0.5-0.7,0-0.8
					c6.5-1,7.9-2.5,8.9-8.9c0.1-0.5,0.7-0.5,0.8,0c1,6.5,2.5,7.9,8.9,8.9C207.8,18.6,207.8,19.3,207.4,19.3z"/>
			</g>
		</g>
		<g>
			<g>
				<path class="st0" d="M260.1,87.6c-3.2,0.5-4,1.2-4.5,4.5c0,0.2-0.4,0.2-0.4,0c-0.5-3.2-1.2-4-4.5-4.5c-0.2,0-0.2-0.4,0-0.4
					c3.2-0.5,4-1.2,4.5-4.5c0-0.2,0.4-0.2,0.4,0c0.5,3.2,1.2,4,4.5,4.5C260.3,87.3,260.3,87.6,260.1,87.6z"/>
			</g>
		</g>
		<g>
			<g>
				<path class="st0" d="M268.5,71.5c-3.2,0.5-4,1.2-4.5,4.5c0,0.2-0.4,0.2-0.4,0c-0.5-3.2-1.2-4-4.5-4.5c-0.2,0-0.2-0.4,0-0.4
					c3.2-0.5,4-1.2,4.5-4.5c0-0.2,0.4-0.2,0.4,0c0.5,3.2,1.2,4,4.5,4.5C268.7,71.1,268.7,71.5,268.5,71.5z"/>
			</g>
		</g>
		<path class="st0" d="M263.4,80c1.6,3.3,3,6.7,4.4,10.2c1.3,3.5,2.5,7,3.5,10.5l0.7,2.7l0.2,0.7c0.1,0.2,0.1,0.4,0.2,0.7l0.3,1.3
			l0.3,1.3l0.2,0.7l0.1,0.7l0.6,2.7c0.2,0.9,0.3,1.8,0.5,2.7l0.3,1.4l0.2,1.4l0.2,1.4c0.1,0.5,0.2,0.9,0.2,1.4l0.4,2.8l0.1,0.7
			l0.1,0.7l0.1,1.4l0.1,1.4c0,0.2,0,0.5,0.1,0.7l0.1,0.7l0.2,2.8l0.1,2.8c0,0.5,0,0.9,0.1,1.4l0,1.4l0,1.4c0,0.5,0,0.9,0,1.4l0,2.8
			c0,0.9-0.1,1.9-0.1,2.8c0,0.5,0,0.9-0.1,1.4l-0.1,1.4c-0.1,0.9-0.1,1.9-0.2,2.8c-0.1,0.9-0.2,1.8-0.2,2.8l-0.3,2.8
			c-0.4,3.7-1,7.3-1.8,11c-0.7,3.6-1.6,7.2-2.7,10.8L271,179c-0.1,0.4-0.3,0.9-0.4,1.3l-0.9,2.7l-0.9,2.6l-0.2,0.7l-0.2,0.7
			l-0.5,1.3c-1.3,3.5-2.8,6.9-4.4,10.2c-1.6,3.4-3.3,6.6-5.2,9.9c-1.9,3.2-3.9,6.4-6,9.4c-2.1,3.1-4.3,6-6.7,8.9
			c-2.4,2.9-4.8,5.7-7.4,8.3l-1,1c-0.3,0.3-0.6,0.7-1,1l-2,2l-2,1.9l-0.5,0.5l-0.5,0.5l-1,0.9c-11.1,9.9-23.9,17.9-37.6,23.8
			c-13.7,5.8-28.3,9.4-43.2,10.6c-14.8,1.2-29.9-0.1-44.3-3.6c-14.5-3.6-28.3-9.5-40.9-17.5c-6.3-4-12.2-8.5-17.8-13.5
			c-2.8-2.5-5.5-5.1-8-7.7c-2.6-2.7-5-5.5-7.4-8.4c-0.6-0.7-1.2-1.4-1.7-2.2l-1.7-2.2c-1.1-1.5-2.2-3-3.3-4.5
			c-2.1-3.1-4.1-6.2-6-9.4c-1.9-3.2-3.6-6.5-5.2-9.9l-0.6-1.3c-0.2-0.4-0.4-0.8-0.6-1.3l-1.1-2.6c-0.7-1.7-1.4-3.4-2.1-5.2l-0.5-1.3
			l-0.5-1.3l-0.5-1.3l-0.2-0.7L7,182.4c-0.3-0.9-0.6-1.8-0.9-2.7l-0.8-2.7c-1-3.6-1.9-7.2-2.6-10.8l-0.5-2.7
			c-0.2-0.9-0.3-1.8-0.5-2.8c-0.2-0.9-0.3-1.8-0.4-2.8l-0.2-1.4c-0.1-0.5-0.1-0.9-0.2-1.4l-0.2-1.4c0-0.5-0.1-0.9-0.1-1.4l-0.2-2.8
			c-0.1-0.9-0.1-1.9-0.2-2.8c0-0.5-0.1-0.9-0.1-1.4l-0.1-1.4c-0.6-14.9,1.2-29.8,5.4-44.1c4.2-14.3,10.7-27.9,19.2-40l0.8-1.1
			c0.3-0.4,0.5-0.8,0.8-1.1l0.8-1.1c0.3-0.4,0.5-0.8,0.8-1.1l1.7-2.2l1.8-2.2c2.4-2.9,4.8-5.6,7.4-8.3c2.6-2.7,5.3-5.2,8.1-7.7
			l1-0.9c0.4-0.3,0.7-0.6,1.1-0.9l1.1-0.9l0.5-0.4l0.5-0.4c0.7-0.6,1.4-1.2,2.2-1.7l2.2-1.7c6-4.4,12.2-8.4,18.8-11.8l1.2-0.6
			l1.2-0.6l1.2-0.6c0.2-0.1,0.4-0.2,0.6-0.3l0.6-0.3c0.8-0.4,1.7-0.8,2.5-1.2l2.6-1.1c3.4-1.4,6.9-2.7,10.4-3.9l2.6-0.8l2.7-0.8
			l0.7-0.2l0.7-0.2l1.3-0.4c0.4-0.1,0.9-0.2,1.3-0.4l1.4-0.3c1.8-0.4,3.6-0.8,5.4-1.2l2.7-0.5c0.5-0.1,0.9-0.2,1.4-0.2l1.4-0.2
			c0.5-0.1,0.9-0.2,1.4-0.2l1.4-0.2c0.9-0.1,1.8-0.3,2.8-0.3c0.9-0.1,1.8-0.2,2.8-0.3l2.8-0.2c3.7-0.3,7.4-0.4,11.1-0.4
			c-3.7,0-7.4,0.2-11.1,0.5l-2.8,0.3c-0.9,0.1-1.8,0.2-2.8,0.3c-0.9,0.1-1.8,0.2-2.7,0.4l-1.4,0.2c-0.5,0.1-0.9,0.2-1.4,0.2
			l-1.4,0.2c-0.5,0.1-0.9,0.1-1.4,0.2l-2.7,0.5c-1.8,0.4-3.6,0.8-5.4,1.2l-1.3,0.3c-0.4,0.1-0.9,0.2-1.3,0.4L101.7,6L101,6.2
			l-0.7,0.2l-2.7,0.8L95,8.1c-3.5,1.2-6.9,2.5-10.3,4l-2.5,1.1c-0.8,0.4-1.7,0.8-2.5,1.2L79,14.7c-0.2,0.1-0.4,0.2-0.6,0.3l-1.2,0.6
			l-1.2,0.6l-1.2,0.7c-6.5,3.4-12.8,7.5-18.6,11.9c-2.9,2.2-5.8,4.6-8.5,7c-2.8,2.5-5.4,5-8,7.7c-2.5,2.7-5,5.4-7.3,8.3l-1.7,2.2
			l-1.7,2.2c-0.3,0.4-0.6,0.7-0.8,1.1l-0.8,1.1c-0.3,0.4-0.5,0.7-0.8,1.1l-0.8,1.1l-0.8,1.1c-0.3,0.4-0.5,0.8-0.8,1.2l-0.8,1.2
			L23,64.6l-0.4,0.6l-1.5,2.3L19.7,70c-1.8,3.2-3.5,6.5-5.1,9.8l-1.2,2.5l-1.1,2.5c-0.2,0.4-0.4,0.8-0.5,1.3l-0.5,1.3
			c-0.2,0.4-0.4,0.9-0.5,1.3l-0.5,1.3c-1.3,3.4-2.5,6.9-3.5,10.5c-1,3.5-1.9,7.1-2.6,10.7c-0.7,3.6-1.3,7.2-1.7,10.9l-0.3,2.7
			l-0.2,2.8l-0.1,0.7l0,0.7l-0.1,1.4l-0.1,1.4L1.6,133l-0.1,1.4l0,0.7l0,0.7l0,2.8c0,1.8,0,3.7,0.1,5.5l0.1,1.4
			c0,0.5,0.1,0.9,0.1,1.4c0.1,0.9,0.1,1.8,0.2,2.8l0.2,2.7c0,0.5,0.1,0.9,0.1,1.4l0.2,1.4c0.1,0.5,0.1,0.9,0.2,1.4l0.2,1.4
			c0.1,0.9,0.2,1.8,0.4,2.7c0.2,0.9,0.3,1.8,0.5,2.7l0.5,2.7c0.7,3.6,1.6,7.2,2.6,10.7l0.8,2.6c0.3,0.9,0.6,1.7,0.9,2.6l0.2,0.7
			l0.2,0.7l0.5,1.3l0.5,1.3l0.5,1.3c0.6,1.7,1.3,3.4,2.1,5.1l1.1,2.5c0.2,0.4,0.4,0.8,0.6,1.3l0.6,1.2c1.6,3.3,3.3,6.6,5.1,9.8
			c1.8,3.2,3.8,6.3,5.9,9.3c1,1.5,2.1,3,3.2,4.5l1.7,2.2c0.6,0.7,1.2,1.4,1.7,2.2c2.3,2.8,4.8,5.6,7.3,8.3c2.5,2.7,5.2,5.2,7.9,7.6
			c5.5,4.9,11.4,9.3,17.6,13.3c12.4,7.9,26.1,13.8,40.4,17.3l1.3,0.3c0.4,0.1,0.9,0.2,1.3,0.3l2.7,0.6l2.7,0.5l0.7,0.1l0.7,0.1
			l1.4,0.2l1.4,0.2l1.4,0.2l1.4,0.2l0.7,0.1l0.7,0.1l2.7,0.3l2.7,0.2c3.7,0.3,7.3,0.5,11,0.5c3.7,0,7.4-0.1,11-0.4
			c14.7-1.1,29.2-4.6,42.7-10.3c3.4-1.4,6.7-3,10-4.7l1.2-0.6c0.4-0.2,0.8-0.4,1.2-0.7l2.4-1.3l2.4-1.4c0.4-0.2,0.8-0.5,1.2-0.7
			l1.2-0.7c3.1-2,6.2-4,9.1-6.2c2.9-2.2,5.8-4.5,8.6-7l1-0.9l0.5-0.5l0.5-0.5l2-1.9l2-1.9c0.3-0.3,0.6-0.7,1-1l1-1
			c2.6-2.6,5-5.4,7.4-8.2c2.3-2.8,4.6-5.8,6.7-8.8c2.1-3,4.1-6.1,6-9.3c1.9-3.2,3.6-6.4,5.2-9.8c1.6-3.3,3.1-6.7,4.4-10.1l0.5-1.3
			l0.2-0.6l0.2-0.7l0.9-2.6l0.9-2.6c0.1-0.4,0.3-0.9,0.4-1.3l0.4-1.3c1-3.5,2-7.1,2.7-10.7c3-14.4,3.7-29.4,2.1-44.1l-0.3-2.8
			c0-0.5-0.1-0.9-0.2-1.4l-0.2-1.4l-0.2-1.4l-0.2-1.4c-0.2-0.9-0.3-1.8-0.5-2.7c-0.7-3.6-1.6-7.2-2.6-10.8c-1-3.6-2.1-7.1-3.4-10.6
			C266.4,86.8,265,83.4,263.4,80z"/>
		<circle class="st0" cx="240.1" cy="75.3" r="1.9"/>
		<circle class="st0" cx="186.5" cy="1.9" r="1.9"/>
		<circle class="st0" cx="254.7" cy="67.7" r="1.2"/>
		<circle class="st0" cx="207.7" cy="52.6" r="1.2"/>
		<circle class="st0" cx="272.5" cy="88.4" r="0.9"/>
		<circle class="st0" cx="229.9" cy="29.5" r="0.9"/>
		<circle class="st0" cx="268.7" cy="110.3" r="0.9"/>
		<circle class="st0" cx="176.7" cy="24.9" r="0.9"/>
		<circle class="st0" cx="210.2" cy="10.2" r="0.9"/>
		<circle class="st0" cx="128.9" cy="5.6" r="0.9"/>
		<circle class="st0" cx="157.2" cy="20.4" r="0.9"/>
	</g>
</g>
</svg>
