<?xml version="1.0" encoding="utf-8"?>
<!-- Generator: Adobe Illustrator 19.0.0, SVG Export Plug-In . SVG Version: 6.00 Build 0)  -->
<svg version="1.1" id="Layer_1" xmlns="http://www.w3.org/2000/svg" xmlns:xlink="http://www.w3.org/1999/xlink" x="0px" y="0px"
	 viewBox="0 0 370.9 371.7" style="enable-background:new 0 0 370.9 371.7;" xml:space="preserve">
<style type="text/css">
	.st0{fill:#FFFFFF;}
</style>
<g>
	<g>
		<g>
			<path class="st0" d="M284.6,54.2c-4.3,0.7-5.3,1.6-6,6c0,0.3-0.5,0.3-0.5,0c-0.7-4.3-1.6-5.3-6-6c-0.3,0-0.3-0.5,0-0.5
				c4.3-0.7,5.3-1.6,6-6c0-0.3,0.5-0.3,0.5,0c0.7,4.3,1.6,5.3,6,6C284.9,53.7,284.9,54.2,284.6,54.2z"/>
		</g>
	</g>
	<g>
		<g>
			<path class="st0" d="M343.6,60.4c-8.3,1.3-10.2,3.2-11.5,11.5c-0.1,0.6-0.9,0.6-1,0c-1.3-8.3-3.2-10.2-11.5-11.5
				c-0.6-0.1-0.6-0.9,0-1c8.3-1.3,10.2-3.2,11.5-11.5c0.1-0.6,0.9-0.6,1,0c1.3,8.3,3.2,10.2,11.5,11.5
				C344.2,59.5,344.2,60.3,343.6,60.4z"/>
		</g>
	</g>
	<g>
		<g>
			<path class="st0" d="M210.2,15.4c-8.3,1.3-10.2,3.2-11.5,11.5c-0.1,0.6-0.9,0.6-1,0c-1.3-8.3-3.2-10.2-11.5-11.5
				c-0.6-0.1-0.6-0.9,0-1c8.3-1.3,10.2-3.2,11.5-11.5c0.1-0.6,0.9-0.6,1,0c1.3,8.3,3.2,10.2,11.5,11.5
				C210.8,14.5,210.8,15.4,210.2,15.4z"/>
		</g>
	</g>
	<g>
		<g>
			<path class="st0" d="M315.6,78.7c-4.3,0.7-5.3,1.6-6,6c0,0.3-0.5,0.3-0.5,0c-0.7-4.3-1.6-5.3-6-6c-0.3,0-0.3-0.5,0-0.5
				c4.3-0.7,5.3-1.6,6-6c0-0.3,0.5-0.3,0.5,0c0.7,4.3,1.6,5.3,6,6C315.9,78.2,315.9,78.6,315.6,78.7z"/>
		</g>
	</g>
	<g>
		<g>
			<path class="st0" d="M232.1,7.8c-4.3,0.7-5.3,1.6-6,6c0,0.3-0.5,0.3-0.5,0c-0.7-4.3-1.6-5.3-6-6c-0.3,0-0.3-0.5,0-0.5
				c4.3-0.7,5.3-1.6,6-6c0-0.3,0.5-0.3,0.5,0c0.7,4.3,1.6,5.3,6,6C232.5,7.3,232.5,7.8,232.1,7.8z"/>
		</g>
	</g>
	<g>
		<g>
			<path class="st0" d="M277.9,25.9c-8.7,1.3-10.6,3.3-11.9,11.9c-0.1,0.6-1,0.6-1.1,0c-1.3-8.7-3.3-10.6-11.9-11.9
				c-0.6-0.1-0.6-1,0-1.1c8.7-1.3,10.6-3.3,11.9-11.9c0.1-0.6,1-0.6,1.1,0c1.3,8.7,3.3,10.6,11.9,11.9
				C278.5,24.9,278.5,25.8,277.9,25.9z"/>
		</g>
	</g>
	<g>
		<g>
			<path class="st0" d="M348.5,117.4c-4.3,0.7-5.3,1.6-6,6c0,0.3-0.5,0.3-0.5,0c-0.7-4.3-1.6-5.3-6-6c-0.3,0-0.3-0.5,0-0.5
				c4.3-0.7,5.3-1.6,6-6c0-0.3,0.5-0.3,0.5,0c0.7,4.3,1.6,5.3,6,6C348.8,116.9,348.8,117.4,348.5,117.4z"/>
		</g>
	</g>
	<g>
		<g>
			<path class="st0" d="M359.8,95.8c-4.3,0.7-5.3,1.6-6,6c0,0.3-0.5,0.3-0.5,0c-0.7-4.3-1.6-5.3-6-6c-0.3,0-0.3-0.5,0-0.5
				c4.3-0.7,5.3-1.6,6-6c0-0.3,0.5-0.3,0.5,0c0.7,4.3,1.6,5.3,6,6C360.1,95.3,360.1,95.8,359.8,95.8z"/>
		</g>
	</g>
	<path class="st0" d="M353,107.3c2.1,4.5,4.1,9,5.9,13.7c1.7,4.6,3.3,9.3,4.7,14.1l1,3.6l0.2,0.9c0.1,0.3,0.2,0.6,0.2,0.9l0.4,1.8
		l0.4,1.8l0.2,0.9l0.2,0.9l0.8,3.6c0.3,1.2,0.5,2.4,0.7,3.7l0.3,1.8l0.3,1.8l0.3,1.8c0.1,0.6,0.2,1.2,0.3,1.8l0.5,3.7l0.1,0.9
		l0.1,0.9l0.2,1.9l0.2,1.9c0,0.3,0.1,0.6,0.1,0.9l0.1,0.9l0.3,3.7l0.2,3.7c0,0.6,0.1,1.2,0.1,1.9l0,1.9l0,1.9c0,0.6,0,1.2,0,1.9
		l0,3.7c0,1.2-0.1,2.5-0.1,3.7c0,0.6,0,1.2-0.1,1.9l-0.1,1.9c-0.1,1.2-0.1,2.5-0.3,3.7c-0.1,1.2-0.2,2.5-0.3,3.7l-0.4,3.7
		c-0.6,4.9-1.4,9.8-2.4,14.7c-1,4.9-2.2,9.7-3.6,14.5l-0.5,1.8c-0.2,0.6-0.3,1.2-0.5,1.8l-1.1,3.6l-1.2,3.5l-0.3,0.9l-0.3,0.9
		l-0.7,1.7c-1.8,4.6-3.7,9.2-5.8,13.7c-2.1,4.5-4.5,8.9-7,13.2c-2.5,4.3-5.2,8.5-8,12.6c-2.8,4.1-5.8,8.1-9,11.9
		c-3.2,3.8-6.5,7.6-9.9,11.2l-1.3,1.3c-0.4,0.4-0.9,0.9-1.3,1.3l-2.7,2.6l-2.7,2.6l-0.7,0.6l-0.7,0.6l-1.4,1.2
		c-14.9,13.2-32,24-50.3,31.8c-18.4,7.8-38,12.6-57.9,14.2c-19.9,1.6-40-0.1-59.4-4.9c-19.4-4.8-37.9-12.8-54.8-23.5
		c-8.4-5.4-16.4-11.4-23.8-18c-3.7-3.3-7.3-6.8-10.8-10.4c-3.4-3.6-6.7-7.4-9.9-11.2c-0.8-1-1.6-1.9-2.3-2.9l-2.3-3
		c-1.5-2-3-4-4.4-6.1c-2.8-4.1-5.5-8.3-8-12.6c-2.5-4.3-4.8-8.8-6.9-13.3l-0.8-1.7c-0.3-0.6-0.5-1.1-0.8-1.7l-1.5-3.4
		c-1-2.3-1.9-4.6-2.8-7l-0.7-1.7l-0.6-1.8l-0.6-1.8l-0.3-0.9l-0.3-0.9c-0.4-1.2-0.8-2.4-1.1-3.6l-1.1-3.6c-1.4-4.8-2.5-9.6-3.5-14.5
		l-0.7-3.7c-0.2-1.2-0.4-2.5-0.6-3.7c-0.2-1.2-0.4-2.5-0.5-3.7l-0.3-1.9c-0.1-0.6-0.1-1.2-0.2-1.9l-0.2-1.9
		c-0.1-0.6-0.1-1.2-0.2-1.9l-0.3-3.7c-0.1-1.2-0.2-2.5-0.2-3.7c0-0.6-0.1-1.2-0.1-1.9l-0.1-1.9c-0.7-19.9,1.7-40,7.3-59.1
		c5.6-19.1,14.3-37.3,25.7-53.7l1.1-1.5c0.4-0.5,0.7-1,1.1-1.5l1.1-1.5c0.4-0.5,0.7-1,1.1-1.5l2.3-3l2.3-2.9
		c3.2-3.8,6.5-7.6,9.9-11.1c3.4-3.6,7.1-7,10.8-10.3l1.4-1.2c0.5-0.4,1-0.8,1.4-1.2l1.4-1.2l0.7-0.6l0.7-0.6c1-0.8,1.9-1.6,2.9-2.3
		l3-2.3c8-5.9,16.4-11.3,25.2-15.8l1.7-0.9l1.7-0.8l1.7-0.8c0.3-0.1,0.6-0.3,0.8-0.4l0.8-0.4c1.1-0.5,2.3-1,3.4-1.6l3.4-1.5
		c4.6-1.9,9.2-3.7,14-5.2l3.5-1.1l3.6-1l0.9-0.3l0.9-0.2l1.8-0.5c0.6-0.2,1.2-0.3,1.8-0.5l1.8-0.4c2.4-0.6,4.8-1.1,7.3-1.6l3.7-0.7
		c0.6-0.1,1.2-0.2,1.8-0.3l1.8-0.3c0.6-0.1,1.2-0.2,1.8-0.3l1.8-0.2c1.2-0.2,2.5-0.3,3.7-0.5c1.2-0.1,2.5-0.3,3.7-0.4l3.7-0.3
		c4.9-0.4,9.9-0.5,14.9-0.5c-5,0-9.9,0.3-14.9,0.7l-3.7,0.4c-1.2,0.1-2.5,0.3-3.7,0.4c-1.2,0.1-2.5,0.3-3.7,0.5L158,3.3
		c-0.6,0.1-1.2,0.2-1.8,0.3l-1.8,0.3c-0.6,0.1-1.2,0.2-1.8,0.3L148.8,5c-2.4,0.5-4.8,1-7.2,1.7l-1.8,0.4c-0.6,0.2-1.2,0.3-1.8,0.5
		l-1.8,0.5l-0.9,0.2l-0.9,0.3l-3.6,1.1l-3.5,1.2c-4.7,1.6-9.3,3.4-13.9,5.3l-3.4,1.5c-1.1,0.5-2.2,1.1-3.4,1.6l-0.8,0.4
		c-0.3,0.1-0.6,0.3-0.8,0.4l-1.7,0.8l-1.7,0.8l-1.6,0.9c-8.8,4.6-17.1,10-25,15.9c-3.9,3-7.8,6.1-11.4,9.4
		C60,51.2,56.4,54.7,53,58.2c-3.4,3.6-6.7,7.3-9.8,11.1l-2.3,2.9l-2.2,2.9c-0.4,0.5-0.7,1-1.1,1.5l-1.1,1.5c-0.4,0.5-0.7,1-1.1,1.5
		l-1.1,1.5l-1.1,1.5c-0.3,0.5-0.7,1-1,1.5l-1,1.5l-0.5,0.8l-0.5,0.8l-1.9,3.1l-1.9,3.2c-2.5,4.3-4.8,8.7-6.9,13.1l-1.6,3.4l-1.5,3.4
		c-0.3,0.6-0.5,1.1-0.7,1.7l-0.7,1.7c-0.2,0.6-0.5,1.1-0.7,1.7l-0.7,1.7c-1.7,4.6-3.3,9.3-4.7,14c-1.4,4.7-2.5,9.5-3.5,14.4
		c-1,4.8-1.7,9.7-2.3,14.6l-0.4,3.7l-0.3,3.7l-0.1,0.9l-0.1,0.9l-0.1,1.8l-0.1,1.8l-0.1,1.8L2,180.1l0,0.9l0,0.9l0,3.7
		c0,2.5,0,4.9,0.2,7.4l0.1,1.8c0,0.6,0.1,1.2,0.1,1.8c0.1,1.2,0.1,2.5,0.2,3.7l0.3,3.7c0,0.6,0.1,1.2,0.2,1.8l0.2,1.8
		c0.1,0.6,0.1,1.2,0.2,1.8l0.3,1.8c0.2,1.2,0.3,2.4,0.5,3.7c0.2,1.2,0.4,2.4,0.6,3.6l0.7,3.6c1,4.8,2.2,9.6,3.5,14.4l1.1,3.5
		c0.4,1.2,0.8,2.3,1.1,3.5l0.3,0.9l0.3,0.9l0.6,1.7l0.6,1.7l0.7,1.7c0.9,2.3,1.8,4.6,2.8,6.9l1.5,3.4c0.2,0.6,0.5,1.1,0.8,1.7
		l0.8,1.7c2.1,4.5,4.4,8.8,6.9,13.1c2.5,4.3,5.1,8.4,7.9,12.5c1.4,2,2.8,4,4.3,6l2.3,2.9c0.8,1,1.5,1.9,2.3,2.9
		c3.1,3.8,6.4,7.5,9.8,11.1c3.4,3.6,7,7,10.7,10.2c7.4,6.6,15.3,12.5,23.6,17.8c16.6,10.6,35,18.5,54.1,23.2l1.8,0.4
		c0.6,0.1,1.2,0.3,1.8,0.4l3.6,0.8l3.6,0.7l0.9,0.2l0.9,0.2l1.8,0.3l1.8,0.3l1.8,0.3l1.8,0.3l0.9,0.1l0.9,0.1l3.7,0.4l3.7,0.3
		c4.9,0.4,9.8,0.6,14.8,0.6c4.9,0,9.9-0.2,14.8-0.5c19.7-1.5,39.1-6.2,57.3-13.8c4.5-1.9,9-4,13.4-6.3l1.6-0.9
		c0.5-0.3,1.1-0.6,1.6-0.9l3.2-1.8l3.2-1.9c0.5-0.3,1.1-0.6,1.6-1l1.6-1c4.2-2.6,8.3-5.4,12.2-8.3c4-3,7.8-6.1,11.5-9.3l1.4-1.2
		l0.7-0.6l0.7-0.6l2.7-2.5l2.7-2.6c0.4-0.4,0.9-0.9,1.3-1.3l1.3-1.3c3.4-3.5,6.7-7.2,9.9-11c3.1-3.8,6.1-7.7,9-11.8
		c2.8-4,5.5-8.2,8-12.5c2.5-4.3,4.8-8.6,7-13.1c2.2-4.4,4.1-9,5.9-13.6l0.7-1.7l0.3-0.9l0.3-0.9l1.2-3.5l1.2-3.5
		c0.2-0.6,0.4-1.2,0.5-1.8l0.5-1.8c1.4-4.7,2.6-9.5,3.6-14.4c4.1-19.4,5-39.4,2.8-59l-0.4-3.7c-0.1-0.6-0.2-1.2-0.3-1.8l-0.3-1.8
		l-0.3-1.8l-0.3-1.8c-0.2-1.2-0.4-2.4-0.7-3.7c-1-4.9-2.1-9.7-3.4-14.5c-1.3-4.8-2.9-9.5-4.6-14.1C357,116.3,355.1,111.8,353,107.3z
		"/>
	<circle class="st0" cx="321.7" cy="100.9" r="2.5"/>
	<circle class="st0" cx="249.9" cy="2.5" r="2.5"/>
	<circle class="st0" cx="341.3" cy="90.7" r="1.6"/>
	<circle class="st0" cx="278.3" cy="70.5" r="1.6"/>
	<circle class="st0" cx="365.2" cy="118.4" r="1.2"/>
	<circle class="st0" cx="308.1" cy="39.6" r="1.2"/>
	<circle class="st0" cx="360" cy="147.9" r="1.2"/>
	<circle class="st0" cx="236.8" cy="33.4" r="1.2"/>
	<circle class="st0" cx="281.7" cy="13.7" r="1.2"/>
	<circle class="st0" cx="172.7" cy="7.6" r="1.2"/>
	<circle class="st0" cx="210.6" cy="27.4" r="1.2"/>
</g>
</svg>
