<?xml version="1.0" encoding="utf-8"?>
<!-- Generator: Adobe Illustrator 19.0.0, SVG Export Plug-In . SVG Version: 6.00 Build 0)  -->
<svg version="1.1" id="Layer_1" xmlns="http://www.w3.org/2000/svg" xmlns:xlink="http://www.w3.org/1999/xlink" x="0px" y="0px"
	 viewBox="0 0 193.3 193.7" style="enable-background:new 0 0 193.3 193.7;" xml:space="preserve">
<style type="text/css">
	.st0{fill:#674F51;}
</style>
<g>
	<g>
		<g>
			<path class="st0" d="M148.3,28.2c-2.3,0.3-2.8,0.9-3.1,3.1c0,0.2-0.3,0.2-0.3,0c-0.3-2.3-0.9-2.8-3.1-3.1c-0.2,0-0.2-0.3,0-0.3
				c2.3-0.3,2.8-0.9,3.1-3.1c0-0.2,0.3-0.2,0.3,0c0.3,2.3,0.9,2.8,3.1,3.1C148.4,28,148.4,28.2,148.3,28.2z"/>
		</g>
	</g>
	<g>
		<g>
			<path class="st0" d="M179.1,31.5c-4.3,0.7-5.3,1.7-6,6c0,0.3-0.5,0.3-0.5,0c-0.7-4.3-1.7-5.3-6-6c-0.3,0-0.3-0.5,0-0.5
				c4.3-0.7,5.3-1.7,6-6c0-0.3,0.5-0.3,0.5,0c0.7,4.3,1.7,5.3,6,6C179.4,31,179.4,31.4,179.1,31.5z"/>
		</g>
	</g>
	<g>
		<g>
			<path class="st0" d="M109.5,8c-4.3,0.7-5.3,1.7-6,6c0,0.3-0.5,0.3-0.5,0c-0.7-4.3-1.7-5.3-6-6c-0.3,0-0.3-0.5,0-0.5
				c4.3-0.7,5.3-1.7,6-6c0-0.3,0.5-0.3,0.5,0c0.7,4.3,1.7,5.3,6,6C109.8,7.6,109.8,8,109.5,8z"/>
		</g>
	</g>
	<g>
		<g>
			<path class="st0" d="M164.4,41c-2.3,0.3-2.8,0.9-3.1,3.1c0,0.2-0.3,0.2-0.3,0c-0.3-2.3-0.9-2.8-3.1-3.1c-0.2,0-0.2-0.3,0-0.3
				c2.3-0.3,2.8-0.9,3.1-3.1c0-0.2,0.3-0.2,0.3,0c0.3,2.3,0.9,2.8,3.1,3.1C164.6,40.7,164.6,41,164.4,41z"/>
		</g>
	</g>
	<g>
		<g>
			<path class="st0" d="M121,4.1c-2.3,0.3-2.8,0.9-3.1,3.1c0,0.2-0.3,0.2-0.3,0c-0.3-2.3-0.9-2.8-3.1-3.1c-0.2,0-0.2-0.3,0-0.3
				c2.3-0.3,2.8-0.9,3.1-3.1c0-0.2,0.3-0.2,0.3,0c0.3,2.3,0.9,2.8,3.1,3.1C121.1,3.8,121.1,4.1,121,4.1z"/>
		</g>
	</g>
	<g>
		<g>
			<path class="st0" d="M144.8,13.5c-4.5,0.7-5.5,1.7-6.2,6.2c0,0.3-0.5,0.3-0.6,0c-0.7-4.5-1.7-5.5-6.2-6.2c-0.3,0-0.3-0.5,0-0.6
				c4.5-0.7,5.5-1.7,6.2-6.2c0-0.3,0.5-0.3,0.6,0c0.7,4.5,1.7,5.5,6.2,6.2C145.1,13,145.1,13.5,144.8,13.5z"/>
		</g>
	</g>
	<g>
		<g>
			<path class="st0" d="M181.6,61.2c-2.3,0.3-2.8,0.9-3.1,3.1c0,0.2-0.3,0.2-0.3,0c-0.3-2.3-0.9-2.8-3.1-3.1c-0.2,0-0.2-0.3,0-0.3
				c2.3-0.3,2.8-0.9,3.1-3.1c0-0.2,0.3-0.2,0.3,0c0.3,2.3,0.9,2.8,3.1,3.1C181.8,60.9,181.8,61.2,181.6,61.2z"/>
		</g>
	</g>
	<g>
		<g>
			<path class="st0" d="M187.5,49.9c-2.3,0.3-2.8,0.9-3.1,3.1c0,0.2-0.3,0.2-0.3,0c-0.3-2.3-0.9-2.8-3.1-3.1c-0.2,0-0.2-0.3,0-0.3
				c2.3-0.3,2.8-0.9,3.1-3.1c0-0.2,0.3-0.2,0.3,0c0.3,2.3,0.9,2.8,3.1,3.1C187.6,49.7,187.6,49.9,187.5,49.9z"/>
		</g>
	</g>
	<path class="st0" d="M184,55.9c1.1,2.3,2.1,4.7,3.1,7.1c0.9,2.4,1.7,4.9,2.5,7.4l0.5,1.9l0.1,0.5c0,0.2,0.1,0.3,0.1,0.5l0.2,0.9
		l0.2,0.9l0.1,0.5l0.1,0.5l0.4,1.9c0.1,0.6,0.2,1.3,0.4,1.9l0.2,1l0.2,1l0.2,1c0,0.3,0.1,0.6,0.1,1l0.3,1.9l0.1,0.5l0,0.5l0.1,1
		l0.1,1c0,0.2,0,0.3,0,0.5l0,0.5l0.1,1.9l0.1,1.9c0,0.3,0,0.6,0,1l0,1l0,1c0,0.3,0,0.6,0,1l0,1.9c0,0.6,0,1.3-0.1,1.9
		c0,0.3,0,0.6,0,1l-0.1,1c0,0.6-0.1,1.3-0.1,1.9c-0.1,0.6-0.1,1.3-0.2,1.9l-0.2,1.9c-0.3,2.6-0.7,5.1-1.2,7.7
		c-0.5,2.5-1.1,5.1-1.9,7.5l-0.3,0.9c-0.1,0.3-0.2,0.6-0.3,0.9l-0.6,1.9l-0.6,1.8l-0.2,0.5l-0.2,0.5l-0.3,0.9
		c-0.9,2.4-1.9,4.8-3,7.2c-1.1,2.3-2.3,4.6-3.6,6.9c-1.3,2.2-2.7,4.4-4.2,6.6c-1.5,2.1-3,4.2-4.7,6.2c-1.6,2-3.4,3.9-5.2,5.8
		l-0.7,0.7c-0.2,0.2-0.4,0.5-0.7,0.7l-1.4,1.4l-1.4,1.3l-0.4,0.3l-0.4,0.3l-0.7,0.6c-7.8,6.9-16.7,12.5-26.2,16.6
		c-9.6,4.1-19.8,6.6-30.2,7.4c-10.4,0.8-20.9,0-31-2.5c-10.1-2.5-19.8-6.7-28.6-12.2c-4.4-2.8-8.6-5.9-12.4-9.4
		c-1.9-1.7-3.8-3.5-5.6-5.4c-1.8-1.9-3.5-3.8-5.2-5.8c-0.4-0.5-0.8-1-1.2-1.5l-1.2-1.5c-0.8-1-1.5-2.1-2.3-3.2
		c-1.5-2.1-2.9-4.3-4.2-6.6c-1.3-2.3-2.5-4.6-3.6-6.9l-0.4-0.9c-0.1-0.3-0.3-0.6-0.4-0.9l-0.8-1.8c-0.5-1.2-1-2.4-1.4-3.6l-0.3-0.9
		l-0.3-0.9l-0.3-0.9L5,127.9l-0.1-0.5c-0.2-0.6-0.4-1.2-0.6-1.9l-0.6-1.9c-0.7-2.5-1.3-5-1.8-7.6l-0.4-1.9c-0.1-0.6-0.2-1.3-0.3-1.9
		c-0.1-0.6-0.2-1.3-0.3-1.9l-0.1-1c0-0.3-0.1-0.6-0.1-1l-0.1-1c0-0.3-0.1-0.6-0.1-1l-0.2-1.9c-0.1-0.6-0.1-1.3-0.1-1.9
		c0-0.3,0-0.6-0.1-1l0-1c-0.4-10.4,0.9-20.8,3.8-30.8c2.9-10,7.4-19.5,13.4-28l0.6-0.8c0.2-0.3,0.4-0.5,0.6-0.8l0.6-0.8
		c0.2-0.3,0.4-0.5,0.6-0.8l1.2-1.5l1.2-1.5c1.7-2,3.4-3.9,5.2-5.8c1.8-1.9,3.7-3.7,5.6-5.4l0.7-0.6c0.2-0.2,0.5-0.4,0.7-0.6l0.7-0.6
		l0.4-0.3l0.4-0.3c0.5-0.4,1-0.8,1.5-1.2l1.5-1.2c4.2-3.1,8.6-5.9,13.2-8.3l0.9-0.4l0.9-0.4l0.9-0.4c0.1-0.1,0.3-0.1,0.4-0.2
		l0.4-0.2c0.6-0.3,1.2-0.5,1.8-0.8L59,8.1c2.4-1,4.8-1.9,7.3-2.7l1.8-0.6L70,4.2l0.5-0.1l0.5-0.1l0.9-0.2c0.3-0.1,0.6-0.2,0.9-0.2
		l0.9-0.2c1.3-0.3,2.5-0.6,3.8-0.8L79.4,2c0.3-0.1,0.6-0.1,1-0.2l1-0.2c0.3,0,0.6-0.1,1-0.1l1-0.1c0.6-0.1,1.3-0.2,1.9-0.2
		c0.6-0.1,1.3-0.1,1.9-0.2L89,0.8c2.6-0.2,5.2-0.3,7.7-0.3c-2.6,0-5.2,0.1-7.7,0.4l-1.9,0.2c-0.6,0.1-1.3,0.2-1.9,0.2
		c-0.6,0.1-1.3,0.2-1.9,0.3l-1,0.1c-0.3,0-0.6,0.1-1,0.2l-1,0.2c-0.3,0.1-0.6,0.1-1,0.2l-1.9,0.4c-1.3,0.3-2.5,0.5-3.8,0.9l-0.9,0.2
		c-0.3,0.1-0.6,0.2-0.9,0.3L71,4.2l-0.5,0.1l-0.5,0.1L68.2,5l-1.8,0.6c-2.4,0.8-4.9,1.8-7.2,2.8l-1.8,0.8c-0.6,0.3-1.2,0.5-1.8,0.8
		l-0.4,0.2c-0.1,0.1-0.3,0.1-0.4,0.2l-0.9,0.4L53,11.3l-0.9,0.5c-4.6,2.4-8.9,5.2-13,8.3c-2.1,1.6-4,3.2-6,4.9
		c-1.9,1.7-3.8,3.5-5.6,5.4c-1.8,1.9-3.5,3.8-5.1,5.8l-1.2,1.5l-1.2,1.5c-0.2,0.3-0.4,0.5-0.6,0.8L19,40.7c-0.2,0.3-0.4,0.5-0.6,0.8
		l-0.5,0.8l-0.5,0.8c-0.2,0.3-0.4,0.5-0.5,0.8l-0.5,0.8L16,45.1l-0.3,0.4l-1,1.6l-1,1.7c-1.3,2.2-2.5,4.5-3.6,6.8l-0.8,1.8l-0.8,1.8
		c-0.1,0.3-0.3,0.6-0.4,0.9L7.9,61c-0.1,0.3-0.2,0.6-0.4,0.9l-0.3,0.9c-0.9,2.4-1.7,4.8-2.4,7.3c-0.7,2.5-1.3,5-1.8,7.5
		c-0.5,2.5-0.9,5.1-1.2,7.6l-0.2,1.9L1.3,89l0,0.5l0,0.5l-0.1,1l-0.1,1l0,1l0,1l0,0.5l0,0.5l0,1.9c0,1.3,0,2.6,0.1,3.9l0,1
		c0,0.3,0,0.6,0.1,1c0,0.6,0.1,1.3,0.1,1.9l0.2,1.9c0,0.3,0.1,0.6,0.1,1l0.1,1c0,0.3,0.1,0.6,0.1,1l0.1,1c0.1,0.6,0.2,1.3,0.3,1.9
		c0.1,0.6,0.2,1.3,0.3,1.9l0.4,1.9c0.5,2.5,1.1,5,1.8,7.5l0.6,1.8c0.2,0.6,0.4,1.2,0.6,1.8l0.1,0.5l0.2,0.5l0.3,0.9l0.3,0.9l0.3,0.9
		c0.4,1.2,0.9,2.4,1.4,3.6l0.8,1.8c0.1,0.3,0.3,0.6,0.4,0.9l0.4,0.9c1.1,2.3,2.3,4.6,3.6,6.8c1.3,2.2,2.7,4.4,4.1,6.5
		c0.7,1.1,1.5,2.1,2.2,3.1l1.2,1.5c0.4,0.5,0.8,1,1.2,1.5c1.6,2,3.3,3.9,5.1,5.8c1.8,1.9,3.6,3.6,5.6,5.3c3.8,3.4,8,6.5,12.3,9.3
		c8.7,5.5,18.2,9.6,28.2,12.1l0.9,0.2c0.3,0.1,0.6,0.2,0.9,0.2l1.9,0.4l1.9,0.4l0.5,0.1l0.5,0.1l1,0.2l1,0.2l1,0.1l1,0.1l0.5,0.1
		l0.5,0.1l1.9,0.2l1.9,0.2c2.6,0.2,5.1,0.3,7.7,0.3c2.6,0,5.1-0.1,7.7-0.3c10.2-0.8,20.4-3.2,29.8-7.2c2.4-1,4.7-2.1,7-3.3l0.9-0.4
		c0.3-0.1,0.6-0.3,0.8-0.5l1.7-0.9l1.7-1c0.3-0.2,0.6-0.3,0.8-0.5l0.8-0.5c2.2-1.4,4.3-2.8,6.4-4.3c2.1-1.5,4.1-3.2,6-4.9l0.7-0.6
		l0.4-0.3l0.4-0.3l1.4-1.3l1.4-1.3c0.2-0.2,0.5-0.5,0.7-0.7l0.7-0.7c1.8-1.8,3.5-3.8,5.1-5.7c1.6-2,3.2-4,4.7-6.1
		c1.5-2.1,2.9-4.3,4.2-6.5c1.3-2.2,2.5-4.5,3.6-6.8c1.1-2.3,2.1-4.7,3.1-7.1l0.3-0.9l0.2-0.5l0.2-0.5l0.6-1.8l0.6-1.8
		c0.1-0.3,0.2-0.6,0.3-0.9l0.3-0.9c0.7-2.5,1.4-5,1.9-7.5c2.1-10.1,2.6-20.5,1.5-30.8l-0.2-1.9c0-0.3-0.1-0.6-0.1-1l-0.1-1l-0.1-1
		l-0.2-1c-0.1-0.6-0.2-1.3-0.3-1.9c-0.5-2.5-1.1-5-1.8-7.5c-0.7-2.5-1.5-4.9-2.4-7.4C186,60.6,185,58.2,184,55.9z"/>
	<circle class="st0" cx="167.6" cy="52.6" r="1.3"/>
	<circle class="st0" cx="130.2" cy="1.3" r="1.3"/>
	<circle class="st0" cx="177.9" cy="47.2" r="0.8"/>
	<circle class="st0" cx="145" cy="36.7" r="0.8"/>
	<circle class="st0" cx="190.3" cy="61.7" r="0.6"/>
	<circle class="st0" cx="160.5" cy="20.6" r="0.6"/>
	<circle class="st0" cx="187.6" cy="77.1" r="0.6"/>
	<circle class="st0" cx="123.4" cy="17.4" r="0.6"/>
	<circle class="st0" cx="146.8" cy="7.1" r="0.6"/>
	<circle class="st0" cx="90" cy="3.9" r="0.6"/>
	<circle class="st0" cx="109.8" cy="14.3" r="0.6"/>
</g>
</svg>
