<?xml version="1.0" encoding="utf-8"?>
<!-- Generator: Adobe Illustrator 19.0.0, SVG Export Plug-In . SVG Version: 6.00 Build 0)  -->
<svg version="1.1" id="Layer_1" xmlns="http://www.w3.org/2000/svg" xmlns:xlink="http://www.w3.org/1999/xlink" x="0px" y="0px"
	 viewBox="0 0 1847.8 1853" style="enable-background:new 0 0 1847.8 1853;" xml:space="preserve">
<style type="text/css">
	.st0{opacity:0.16;}
	.st1{fill:#FAC5CB;}
</style>
<g class="st0">
	<g>
		<g>
			<path class="st1" d="M1611.3,349.1c-47.8-56.6-100-108.4-158.6-152.5l-22-16.5l-22.8-15.5c-15-10.6-31.1-19.6-46.8-29.3
				c-7.9-4.8-16.2-8.9-24.3-13.3l-12.2-6.5l-6.1-3.3l-6.3-3c-16.8-7.8-33.5-16.1-50.9-22.7c-8.6-3.4-17.1-7-25.8-10.2l-26.3-9
				l-13.2-4.5l-13.4-3.9l-26.7-7.7c-9-2.4-18.1-4.3-27.1-6.4c-9.1-2-18-4.4-27.2-5.9c-18.3-3.2-36.5-6.9-55-8.9
				c-73.7-9.5-148.4-10.8-222-2.3C748.7,36.5,673.5,53.6,602,81.2l-26.8,10.4l-26.3,11.6l-13.1,5.8l-12.8,6.4l-25.7,12.9l-25.1,14.1
				l-12.5,7.1c-4.1,2.5-8.1,5.1-12.2,7.6l-24.3,15.4c-7.9,5.4-15.7,11-23.6,16.5l-11.8,8.3c-3.9,2.8-7.6,5.9-11.4,8.8l-22.7,17.8
				c-7.4,6.1-14.6,12.5-21.9,18.8l-10.9,9.5c-3.6,3.2-7,6.6-10.5,9.9l-20.9,20c-6.8,6.9-13.3,13.9-20,20.9l-10,10.5
				c-3.3,3.5-6.3,7.3-9.5,10.9l-18.9,22c-6.1,7.5-11.9,15.2-17.9,22.8l-8.9,11.4c-3,3.8-5.6,7.8-8.4,11.8L179,416.2
				c-5.4,8-10.4,16.2-15.7,24.3l-7.8,12.2c-2.6,4.1-4.9,8.3-7.3,12.5l-14.4,25c-4.6,8.4-8.9,17.1-13.3,25.6
				c-4.4,8.5-8.9,17-12.8,25.8l-12,26.2c-4,8.7-7.3,17.8-11,26.6c-7.5,17.7-13.5,35.9-19.8,54c-1.7,4.5-3.1,9.1-4.4,13.7l-4.1,13.8
				l-4.1,13.8c-1.4,4.6-2.7,9.2-3.8,13.9c-4.4,18.7-9.5,37.2-12.7,56.1c-1.8,9.4-3.7,18.8-5.3,28.3l-4,28.5l-2,14.3l-1.3,14.4
				l-2.5,28.7c-0.7,9.6-0.8,19.2-1.2,28.8l-0.5,14.4l-0.2,7.2l0.1,7.2c0.5,19.3,0.2,38.6,2,57.8c0.7,9.6,1.3,19.3,2.1,28.9l3.5,28.8
				l1.8,14.4c0.7,4.8,1.6,9.5,2.4,14.3l5,28.6c8,37.8,17.3,75.5,30.2,112.1l4.6,13.8l2.3,6.9l2.6,6.8l10.6,27
				c3.4,9.1,7.7,17.8,11.6,26.7c4.1,8.8,7.7,17.8,12.2,26.4c8.9,17.2,17.3,34.7,27.2,51.3c4.9,8.4,9.4,16.9,14.6,25.1l15.6,24.5
				c5,8.3,10.8,16.1,16.3,24c5.6,7.9,11,15.9,16.9,23.6c12,15.2,23.5,30.8,36.4,45.2c24.8,29.7,52.5,56.9,80.9,83.3
				c14.7,12.6,28.9,25.8,44.4,37.4c7.6,5.9,15.1,12.1,22.9,17.8l23.6,16.9c7.8,5.8,16,11,24.1,16.2c8.2,5.2,16.2,10.6,24.5,15.6
				l25.2,14.5c4.2,2.4,8.3,4.9,12.6,7.2l12.9,6.7c8.6,4.4,17.2,8.9,25.9,13.3l26.4,12.1l13.2,6l13.5,5.4l27,10.9l27.5,9.6l13.7,4.8
				c4.6,1.5,9.3,2.8,13.9,4.2l27.9,8.2c9.4,2.5,18.8,4.6,28.2,6.9c18.8,4.9,38,8,57,11.7c4.8,1,9.6,1.7,14.4,2.3l14.4,2
				c9.6,1.2,19.2,2.9,28.9,3.6l29,2.4c4.8,0.3,9.7,0.9,14.5,1l14.5,0.4l29.1,0.8l29.1-0.7l16.1-0.4c5.4-0.2,10.7-0.7,16.1-1.1
				l32.2-2.5l32-4.1c5.3-0.7,10.7-1.3,16-2.2l15.9-2.9c42.5-7.1,84.2-18.3,125.2-31.6l30.5-10.5c10-3.9,20-7.9,30-11.9
				c5-2,10-3.9,14.9-6.1l14.7-6.7l14.7-6.7c4.9-2.2,9.8-4.4,14.5-7l28.6-14.8c9.6-4.9,18.7-10.6,28-15.9l13.9-8.1
				c4.6-2.8,9.1-5.8,13.6-8.7c9-5.9,18.1-11.5,27-17.6c60.6-41.8,117.6-90.6,166.9-146c49-55.5,91.3-116.6,122.9-180.9
				c5.3-11.2,0.6-6.8-4.8,4.4c-31.8,61.7-72.7,119.3-119.8,171.1c-5.7,6.7-11.9,12.8-18,19.1l-18.4,18.8l-19.3,17.9
				c-6.4,5.9-12.7,12-19.5,17.5c-13.4,11.2-26.6,22.8-40.6,33.2l-20.8,16l-21.5,15.1c-14.7,10.8-30.4,20.1-45.7,30
				c-7.6,5-15.7,9.2-23.6,13.9c-8,4.5-15.7,9.3-23.9,13.5c-16.3,8.2-32.3,17.2-49.2,24.5l-25,11.4l-25.5,10.2
				c-16.9,7.2-34.4,12.6-51.7,18.7c-4.3,1.6-8.7,2.9-13.1,4.1l-13.2,3.8c-8.8,2.5-17.6,5.3-26.5,7.4l-26.7,6.3l-13.4,3.1l-13.5,2.5
				l-27,4.9c-9,1.5-18.1,2.4-27.1,3.7c-37.8,5.2-76,6.6-114,7.1l-28.5-0.8c-9.5-0.3-19-0.4-28.5-1.4c-18.9-1.6-37.9-2.8-56.7-5.7
				c-9.4-1.3-18.8-2.4-28.2-4l-28-5.2l-14-2.7l-13.9-3.3l-27.7-6.6c-36.6-10.2-73-21.4-108.2-36c-17.8-6.7-35-14.9-52.3-22.8l-6.5-3
				l-6.4-3.3l-12.7-6.5l-12.7-6.5c-4.2-2.1-8.5-4.3-12.6-6.8c-16.5-9.6-33.2-18.7-49-29.3c-8-5.2-16.2-10.1-23.9-15.6l-23.3-16.6
				c-7.9-5.4-15.3-11.4-22.8-17.3c-7.4-5.9-15.1-11.6-22.4-17.8c-14.3-12.6-29.1-24.6-42.6-38c-6.8-6.6-13.8-13.1-20.6-19.8
				l-19.7-20.7c-3.2-3.5-6.6-6.8-9.7-10.4l-9.3-10.8c-6.2-7.2-12.5-14.4-18.5-21.6c-96.1-118.1-162.1-260.2-188.2-409.9
				c-1.6-9.4-3.3-18.7-4.8-28l-3.4-28.2l-1.7-14.1c-0.4-4.7-0.7-9.4-1-14.2l-1.9-28.3c-0.6-9.4-0.5-18.9-0.7-28.3l-0.2-14.2
				c-0.1-4.7-0.2-9.4,0.1-14.2l0.9-28.3c0.2-4.7,0.2-9.4,0.6-14.1l1.2-14.1c5.9-75.3,20.7-149.9,45.4-221.3c3.1-8.8,6-17.8,9.3-26.6
				l10.5-26.1l5.3-13l5.9-12.8l11.8-25.6c17-33.4,34.8-66.5,55.8-97.6c40.8-63,90.3-120.1,145.3-170.9c6.7-6.6,14-12.4,21.1-18.6
				c7.2-6,14.1-12.4,21.5-18.2c14.8-11.5,29.3-23.5,44.8-34.1c30.2-22.3,62.6-41.7,95.3-60.3l25.1-13l12.5-6.5l12.8-5.9l25.7-11.7
				l26.2-10.5l13.1-5.2c4.4-1.7,8.9-3.1,13.3-4.7l26.7-9.1c8.9-2.9,18-5.3,27-8c9-2.5,18-5.4,27.2-7.3l30.5-7.1
				c10.2-2.3,20.5-3.9,30.7-5.8l15.4-2.8c5.1-0.9,10.3-1.4,15.5-2.2l31-4.1l31.2-2.6l15.6-1.2l15.6-0.5l31.3-0.9l31.3,0.6
				c5.2,0.1,10.4,0.1,15.6,0.4l15.6,1.1c10.4,0.8,20.8,1.3,31.2,2.4c20.7,2.6,41.5,4.6,62,8.6l15.4,2.7c5.2,0.9,10.3,1.8,15.4,3
				l30.6,6.9c5.1,1.1,10.1,2.5,15.2,3.9l15.1,4.2c10.1,2.8,20.1,5.6,30,9.1c9.9,3.4,19.8,6.8,29.7,10.1l29.1,11.7
				c4.8,2,9.7,3.8,14.5,6l14.2,6.6l14.2,6.6c4.7,2.2,9.5,4.4,14,6.9l27.6,14.7c4.6,2.4,9.1,5.1,13.5,7.8l13.4,8l13.4,8
				c4.5,2.7,8.7,5.7,13,8.5l25.9,17.3c33.7,24.2,66,50.2,96.6,78.3c7.7,7,14.9,14.4,22.4,21.6l11.2,10.8l10.7,11.3
				c7.1,7.6,14.5,14.9,21.4,22.7l20.6,23.5C1619.2,359.3,1618.6,357.6,1611.3,349.1z"/>
		</g>
		<g>
			<path class="st1" d="M1616.1,357.2c-80.5-100.5-185-181-301.7-237.7l-26.3-12l-13.1-6l-13.4-5.4l-26.8-10.7l-27.2-9.4l-13.6-4.7
				l-13.8-4.1l-27.7-8.1l-28-6.8l-14-3.3c-4.7-1.1-9.4-1.8-14.1-2.8C1021,31.7,943.7,25.8,866.7,31.4l-28.8,2.2
				c-9.6,1.1-19.1,2.4-28.7,3.7l-14.3,1.9c-4.8,0.6-9.5,1.7-14.3,2.5L752.1,47c-37.7,8.3-75.1,18-111.4,31.1
				c-18.3,6-36.1,13.5-54,20.7c-4.5,1.7-8.9,3.7-13.3,5.8l-13.1,6.1c-8.7,4.1-17.6,7.8-26.1,12.4l-25.6,13.3
				c-4.3,2.1-8.5,4.5-12.6,7l-12.5,7.2c-16.8,9.3-32.9,19.9-49.1,30.2c-31.8,21.5-63,44-91.9,69.1c-14.9,12.1-28.7,25.5-42.8,38.5
				c-7.1,6.5-13.5,13.6-20.3,20.4c-6.7,6.9-13.6,13.6-19.8,20.9l-19.1,21.5c-6.4,7.2-12.2,14.8-18.3,22.3
				c-12.4,14.7-23.3,30.5-34.7,46c-21.6,31.8-42.2,64.5-59.4,99.1c-36.3,70-61.4,145.6-77.6,222.7c-7.2,38.7-13.3,77.7-15.5,117.1
				c-1.8,19.6-1.8,39.3-2.3,59l-0.1,7.4l0.2,7.4l0.4,14.7l0.4,14.7c0.1,4.9,0.2,9.8,0.7,14.7c4.9,78.4,18.4,156.7,43.3,231.5
				c11.7,37.6,27.2,74,43.9,109.7c9,17.6,17.5,35.4,27.6,52.3l7.3,12.8c2.4,4.3,4.9,8.6,7.6,12.7l15.9,24.9
				c87.6,131.3,211,237.3,352.1,306.4c8.7,4.7,17.8,8.4,26.7,12.6l13.4,6.1c4.5,2.1,8.9,4.1,13.5,5.8c18.3,7.2,36.4,14.8,55.2,20.8
				l14,4.8l7,2.4l7.1,2.1l28.3,8.2l7.1,2.1l7.2,1.7l14.4,3.4l14.4,3.4l7.2,1.7l7.3,1.4c77.2,15.2,156.4,21.4,234.9,15.6
				c44.3-2.5,88.3-9.6,131.6-18.8c10.8-2.5,21.6-4.9,32.4-7.6l32-9.1c10.7-2.8,21.1-6.8,31.7-10.2l15.8-5.4c5.3-1.7,10.4-4,15.5-6
				c41.6-15.5,81.6-35.1,120.2-56.8c9.5-5.6,19.3-10.9,28.7-16.9l28-18c9.3-6.1,18.1-12.8,27.2-19.1c4.5-3.3,9.1-6.4,13.5-9.8
				l13-10.3c17.7-13.4,34.1-28.2,50.8-42.8c16-15.3,32.2-30.4,47.1-46.8c7.6-8,15.3-16,22.3-24.6c7.1-8.4,14.5-16.7,21.5-25.3
				l20.3-26.2c3.5-4.3,6.6-8.8,9.8-13.4l9.5-13.6c25.1-36.4,48-74.3,67.2-114.1c2.4-5,5.1-9.8,7.3-14.8l6.7-15.1l6.7-15.1
				c1.1-2.5,2.3-5,3.3-7.6l3-7.7l12-30.9c3.6-10.4,7-20.9,10.5-31.4c3.8-11.5,2.2-11.1-1.7,0.3l-9.2,27.5c-3.4,9.1-7,18-10.5,27.1
				l-5.3,13.5c-1.8,4.5-3.9,8.8-5.9,13.3l-12,26.5c-4.3,8.7-8.8,17.2-13.2,25.9l-6.7,12.9c-2.3,4.2-4.8,8.4-7.2,12.6l-14.6,25.1
				l-15.7,24.4l-7.9,12.2l-8.5,11.8l-17,23.6l-18,22.7c-3,3.8-6,7.6-9.1,11.3l-9.5,10.9c-6.4,7.3-12.6,14.6-19.1,21.8l-20,20.9
				c-3.4,3.4-6.6,7.1-10.1,10.4l-10.5,10c-7,6.6-13.9,13.4-21.1,19.9c-57.6,51.5-121.1,96.6-190,131.9l-12.9,6.7l-6.4,3.3l-6.6,3
				l-26.4,12.1l-6.6,3l-6.7,2.7l-13.5,5.4l-13.5,5.4l-6.7,2.7l-6.9,2.4l-27.5,9.4l-6.9,2.3l-7,2l-14,4l-14,4
				c-4.6,1.4-9.3,2.7-14,3.7l-28.3,6.5c-9.4,2.4-19,3.7-28.5,5.5c-9.5,1.6-19,3.6-28.6,4.8c-19.2,2.2-38.3,5.3-57.7,6.3l-28.9,2.1
				l-29,0.7l-14.5,0.3c-4.8,0-9.7-0.2-14.5-0.3l-29-0.8c-38.6-2.4-77.2-6.1-115.2-13.4c-38.2-6.5-75.6-16.5-112.6-27.9
				c-147.4-47.1-281.2-134-385.4-247.9c-25.5-28.5-50.2-57.8-72.1-89.3c-11.5-15.3-21.4-31.7-32-47.7c-5.1-8.1-9.7-16.5-14.6-24.7
				c-4.8-8.3-9.8-16.5-14-25.1l-13.3-25.5c-4.3-8.6-8.1-17.4-12.2-26.1c-8.4-17.3-15-35.3-22.2-53.1c-13.1-36-24.9-72.6-33-110.2
				c-4.7-18.6-7.7-37.6-11-56.4c-1.9-9.4-2.6-19-3.9-28.5c-1.1-9.5-2.6-19-3.3-28.5l-2-28.7c-0.3-4.8-0.8-9.5-0.9-14.3L38,953.3
				l-0.6-28.7l0.9-28.7c2.4-76.5,15.6-152.5,37.3-225.9c2.5-9.3,5.7-18.4,8.8-27.4c3.2-9.1,6-18.2,9.4-27.2
				c7.2-17.8,13.6-35.9,22-53.2c4-8.7,7.8-17.5,12-26.2l13.1-25.6c4.2-8.6,9.1-16.9,13.9-25.2c4.8-8.3,9.4-16.7,14.5-24.8
				c40.5-65.1,88.4-125.7,144.2-178.3c27.4-26.8,57.1-51,87.6-74c15.5-11.1,30.9-22.5,47.1-32.6l12-7.8c4-2.6,8-5.2,12.2-7.5
				l24.8-14.4c8.2-5,16.8-9,25.3-13.6l12.7-6.6c4.2-2.2,8.5-4.4,12.9-6.3c17.4-7.9,34.6-16.3,52.6-23c35.4-14.7,72.1-26,109.3-36
				l30.9-7.3l7.7-1.8l7.8-1.4l15.6-2.8c20.7-4.2,41.7-6.4,62.7-9.1c10.5-1.1,21-1.7,31.5-2.6l15.8-1.2l15.8-0.4l31.6-0.7l31.6,0.8
				c5.3,0.2,10.5,0.2,15.8,0.6l15.8,1.2c10.5,0.9,21.1,1.4,31.5,2.7l31.4,4.1l7.9,1l7.8,1.4l15.6,2.8c20.9,3.3,41.4,8.7,62,13.4
				c10.2,2.7,20.4,5.8,30.5,8.6c5.1,1.5,10.2,2.9,15.2,4.5l15,5.1c77.2,25.6,152.2,62.9,220.6,109.5c34.1,23.4,66.3,49.5,96.7,76.9
				c14.6,14.3,29.7,28.1,43.2,43.2l10.3,11.1c3.4,3.7,6.9,7.4,10.1,11.3c6.5,7.7,12.9,15.4,19.4,23c6.1,7,10.1,11.8,11.7,12.6
				C1622.9,367.5,1621.7,364.6,1616.1,357.2z"/>
		</g>
		<g>
			<path class="st1" d="M1785.5,840.7c-5.9-66.5-20.7-132.3-42.4-195.5c-10.6-31.8-23.9-62.5-37.9-92.8c-3.7-7.5-7.6-14.9-11.3-22.3
				c-3.9-7.4-7.3-15-11.7-22.1c-8.4-14.4-16.2-29.2-25.4-43.1l-13.4-21.1c-4.7-6.9-9.6-13.7-14.4-20.5c-9.3-13.8-19.9-26.8-30.2-40
				c-5-6.7-10.6-12.9-16-19.3l-16.4-19l-17.3-18.2c-5.8-6-11.4-12.2-17.6-17.9c-47.8-46.7-100.8-88.2-157.7-123.1
				c-57-34.6-118-62.8-181.4-83.6c-7.8-2.9-15.9-5-23.9-7.3l-24.1-6.9l-24.4-5.8c-8.2-1.8-16.2-4.1-24.5-5.4l-24.7-4.5
				c-4.1-0.7-8.2-1.6-12.3-2.2l-12.4-1.6l-24.9-3.3c-8.3-1.1-16.7-1.5-25-2.2c-66.6-5.4-133.7-3.8-199.9,5.3
				c-66.1,9.6-131.3,26.8-193.7,51.8l-11.7,4.6l-11.5,5.1l-23,10.3c-7.7,3.4-15,7.5-22.6,11.2c-7.5,3.9-15.1,7.4-22.4,11.5
				c-29.3,16.4-58.3,33.5-85.6,53.2c-6.8,4.9-13.9,9.5-20.5,14.7l-19.9,15.5l-10,7.7L366,262l-19.1,16.4
				c-6.4,5.5-12.3,11.5-18.5,17.2c-6,5.9-12.4,11.4-18.2,17.5l-17.5,18.2c-2.9,3.1-5.9,6-8.7,9.2l-8.3,9.5l-16.5,19.1
				c-5.4,6.4-10.5,13.2-15.7,19.8l-7.8,9.9c-2.6,3.3-5.2,6.6-7.6,10.1l-14.6,20.6c-2.4,3.5-4.9,6.8-7.2,10.4l-6.8,10.6L186,471.9
				c-4.3,7.2-8.4,14.6-12.6,21.9c-4.1,7.4-8.6,14.5-12.2,22.1c-31.4,59.6-55.9,122.8-73.2,187.8c-17.1,64.7-25.7,131.6-27,198.4
				c-1.2,66.9,4.8,133.9,18.5,199.4c13.8,65.4,34.9,129.3,63,190.1c27.8,60.9,63.7,118,105.1,170.4c20.5,26.4,43.4,50.9,66.7,74.8
				l18.2,17.2c6.1,5.7,12,11.6,18.5,16.9c12.8,10.8,25.1,22,38.5,31.9l19.8,15.3l20.5,14.4c13.5,9.9,27.7,18.5,41.8,27.4
				c7,4.6,14.3,8.6,21.5,12.7l21.7,12.3l22.3,11.3c7.5,3.7,14.7,7.8,22.4,11c60.5,28.1,124.1,48.9,189.1,62.2
				c65,13.5,131.6,18.5,197.9,16.9c66.4-1.7,132.8-10.6,197.4-26.9c64.5-16.7,127.1-40.9,185.7-72.1
				c58.8-30.9,113.6-69.2,163.8-112.8c25.3-21.5,48.7-45.3,71.4-69.5c5.6-6.2,10.9-12.5,16.4-18.8c5.3-6.4,11.1-12.4,16-19.1
				c10.1-13.2,20.8-25.9,30.1-39.7c7.4-10.5,3.9-11.7-3.6-1.2l-7.2,10.1c-2.4,3.3-5.1,6.5-7.6,9.8l-15.3,19.5
				c-5,6.6-10.7,12.6-16,18.9c-5.5,6.2-10.7,12.6-16.3,18.7c-22.6,24.1-45.9,47.7-71.1,69.1c-49.9,43.4-104.7,81.4-163.4,112
				c-58.6,30.7-120.6,54.9-184.7,71.5c-64.2,16.3-130.2,25.2-196.4,26.6c-33.1,1-66.2-0.6-99.2-3.3l-6.2-0.4l-6.2-0.8l-12.3-1.5
				l-24.7-3l-24.5-4.3c-8.1-1.5-16.4-2.6-24.4-4.6c-64.8-13.6-128.1-34.7-188.2-62.9c-60-28.2-116.7-63.6-169-104.5l-9.9-7.6
				c-3.2-2.6-6.3-5.4-9.5-8l-19-16.2c-6.4-5.3-12.2-11.3-18.3-16.9c-6-5.7-12.2-11.3-18-17.2c-23.2-23.7-45.9-48.2-66.1-74.5
				c-82.8-104.3-138.7-228.8-165.8-358.7c-13.2-65.1-18-131.8-15.5-198c2.7-66.2,12.3-132.1,29.5-195.9
				c17.2-64.2,41.3-126.5,72.2-185.4C201.7,459.9,240,404.9,284,355c43.9-50.1,93.9-94.8,148-133.7c26.9-19.7,55.5-37,84.5-53.5
				c7.3-4,14.8-7.7,22.2-11.5c7.5-3.7,14.7-7.9,22.4-11.2c15.2-6.7,30.2-14.2,45.9-19.9c61.9-24.7,126.6-42.2,192.5-51.7
				c65.9-9.3,132.8-11.1,199.1-5.7c132.6,10.3,261.7,53.8,375.2,122.4c56.5,34.7,109.1,75.9,156.4,122.4
				c6.1,5.6,11.6,11.9,17.4,17.8c5.7,6,11.5,12,17.1,18.1l16.2,18.8l8.1,9.4c2.7,3.1,5.2,6.5,7.7,9.7l15.3,19.6l3.8,4.9l3.6,5.1
				l7.2,10.1c4.8,6.8,9.7,13.5,14.3,20.3l13.4,20.9l6.7,10.5c2.2,3.5,4.2,7.2,6.3,10.7l12.5,21.5c2.1,3.6,4.1,7.2,6,10.9l5.7,11
				c3.8,7.4,7.8,14.7,11.4,22.1c14.1,30,27.6,60.5,38.3,92c22,62.7,37.2,128.1,43.3,194.3C1785.2,852.6,1786.3,852.3,1785.5,840.7z"
				/>
		</g>
		<g>
			<path class="st1" d="M1712.8,1154.9c-17.9,55.7-40.5,112.4-69.8,166.2c-29,53.8-64,104.9-103.5,149.4l-4.3,4.9l-4.5,4.7l-9,9.4
				l-9,9.4c-2.9,3.2-6,6.3-9.2,9.2c-12.6,12-24.9,24.2-38.2,35.3c-25.9,23.1-53.8,43.6-82.4,63.2c-14.6,9.2-28.9,19.1-44.1,27.4
				c-7.5,4.3-14.9,8.8-22.6,12.8l-23.1,11.8c-3.9,1.9-7.6,4.1-11.6,5.8l-11.8,5.3c-7.9,3.5-15.8,7.2-23.7,10.6l-24.2,9.5l-12.1,4.8
				l-12.3,4.1c-8.9,3-17.8,6.1-26.8,9l-27.2,7.7c-9,2.8-18.2,4.8-27.4,6.9c-9.2,2-18.3,4.5-27.6,6.1c-18.5,3.3-37,7-55.7,9l-14,1.8
				l-7,0.9l-7,0.5l-28.2,2.2c-37.6,1.8-75.4,2.2-112.9-1.1c-18.8-1-37.5-3.8-56.1-6.1c-9.3-1.2-18.5-3.2-27.8-4.7
				c-9.3-1.6-18.6-3.2-27.7-5.5l-27.5-6.4c-9.1-2.4-18.1-5.2-27.1-7.7l-13.5-3.9l-13.3-4.6c-8.8-3.1-17.8-6-26.5-9.3
				c-17.3-7.2-34.9-13.7-51.7-22l-12.7-5.9l-6.4-3l-6.2-3.3l-24.8-13.1c-65.3-36.4-125.9-81.1-179.4-133.6l-10.2-9.8
				c-3.4-3.3-6.5-6.8-9.8-10.2l-19.4-20.6c-12.2-14.4-25-28.3-36.4-43.5l-8.8-11.1l-4.4-5.6l-4.1-5.8l-16.5-23.1
				c-5.4-7.8-10.3-15.9-15.5-23.8l-7.7-11.9l-7.1-12.3c-19.6-32.4-35.8-66.7-50.5-101.4l-10.4-26.3c-3.3-8.8-6.1-17.8-9.2-26.8
				l-4.5-13.4l-3.8-13.6c-2.5-9.1-5.2-18.1-7.5-27.2c-4-18.4-8.8-36.7-11.6-55.3l-2.5-13.9c-0.8-4.6-1.7-9.3-2.2-14l-3.5-28l-0.9-7
				l-0.6-7l-1.1-14.1l-1.1-14.1l-0.5-7l-0.2-7.1l-0.7-28.3c0-2.4-0.2-4.7-0.2-7.1l0.2-7.1l0.4-14.1c1.4-75.5,14.5-150.4,36.6-222.3
				c6.2-17.8,11.8-35.8,19.2-53.1l5.3-13.1l2.6-6.5l2.9-6.4l11.9-25.6c3.9-8.5,8.7-16.7,12.9-25.1l6.6-12.5
				c2.2-4.1,4.7-8.1,7.1-12.2l14.4-24.2l15.5-23.5c21.2-31,43.9-61,69.2-88.7l9.3-10.6l9.8-10.1c6.6-6.7,12.9-13.6,19.6-20.2
				c13.7-12.8,27-26.1,41.5-38.1c113.1-98.3,254.4-164.9,403-188.7c55.7-9.1,112.1-12.9,168.4-11.1c56.3,1.8,112.4,9.4,167.3,23.5
				c109.6,28.1,213.3,77.5,302.9,147.8c44.8,35.1,85.8,75.8,122.1,120.2c36.2,44.5,67.5,92.8,94,143.2c1.9,3.7,3.3,2.1,1.4-1.7
				C1586,410.3,1479,296.7,1349.6,219.3l-24.5-14c-4-2.4-8.2-4.6-12.4-6.7l-12.6-6.4c-16.6-8.9-34.1-15.9-51.2-23.7
				c-8.7-3.5-17.5-6.8-26.3-10.2l-13.2-5L1196,149c-8.9-2.9-17.8-6-26.8-8.6L1142,133c-9-2.7-18.2-4.4-27.4-6.5l-13.7-3
				c-4.6-1.1-9.2-2-13.8-2.7l-27.7-4.7l-6.9-1.2l-7-0.8l-14-1.6c-18.6-2.6-37.3-3.5-56-4.9c-4.7-0.4-9.4-0.4-14.1-0.5l-14.1-0.3
				c-9.4-0.1-18.8-0.7-28.1-0.2c-147.9,1.2-295.4,43.2-421.4,121c-126.1,77.4-231.1,189-299.6,320.6
				c-34.9,66.1-59.5,137.4-75.3,210.4l-5,27.6c-0.8,4.6-1.7,9.2-2.5,13.8l-1.8,13.9c-1.2,9.3-2.5,18.5-3.5,27.8l-2.2,28
				c-0.3,4.7-0.8,9.3-1,14l-0.4,14c-0.2,9.3-0.6,18.7-0.7,28l0.6,28c0.1,4.7,0.1,9.4,0.4,14l1,14c9,149.4,59.9,295.9,146.5,418.7
				c86.4,122.9,208.1,221.1,346,280.4c34.5,14.6,69.6,28,105.9,37.7l13.5,3.9c4.5,1.3,9.1,2.2,13.7,3.3l27.4,6.4l27.7,5.1l13.9,2.5
				l14,1.8l27.9,3.6l28.1,2.2l14.1,1.1l14.1,0.4l28.2,0.8l28.2-0.7l14.1-0.3l14.1-1.1l28.1-2.2l28-3.6c39.7-5.6,79-13.6,117.2-25.3
				l14.4-4.2l14.1-4.9c9.4-3.3,18.9-6.3,28.2-9.9l27.7-11.2l6.9-2.8l6.8-3.1l13.6-6.3l13.6-6.2c4.5-2.1,8.8-4.6,13.3-6.8
				c8.8-4.7,17.7-9.1,26.4-13.9l25.8-15.1l6.4-3.8l6.3-4.1l12.5-8.2l12.5-8.1c4.2-2.7,8.1-5.8,12.2-8.7c8-5.9,16.2-11.5,24.2-17.6
				l23.4-18.6c4-3,7.7-6.3,11.5-9.6l11.3-9.9l10.6-9.3c3.5-3.1,6.8-6.5,10.3-9.8c6.8-6.6,13.6-13.1,20.4-19.7
				c12.9-13.9,26.3-27.3,38.4-42.1l9.3-10.8l4.6-5.4l4.4-5.6l17.5-22.6c5.7-7.6,11-15.5,16.5-23.3l8.2-11.7l7.6-12.1
				c21-31.8,38.9-65.5,55.3-99.5c3.9-8.6,7.9-17.2,11.8-25.8c3.7-8.7,7.1-17.5,10.7-26.2l5.3-13.1l4.7-13.3
				c3.1-8.9,6.3-17.7,9.3-26.5C1719.7,1148.6,1718.4,1136.9,1712.8,1154.9z"/>
		</g>
		<g>
			<path class="st1" d="M1793.5,866.2l-2.1-28.6c-0.9-9.5-2.3-18.9-3.4-28.4c-1.9-19-5.8-37.7-8.9-56.5
				c-7.8-37.3-16.6-74.5-29.1-110.5c-5.6-18.3-13-35.8-19.7-53.7c-3.6-8.8-7.6-17.5-11.4-26.2l-5.8-13.1c-1.9-4.4-4.2-8.5-6.3-12.8
				l-12.9-25.6c-4.6-8.4-9.4-16.6-14-24.9l-7.1-12.5l-7.6-12.1l-15.4-24.2c-43.1-63.2-92.8-121.7-150.1-172.1
				c-56.8-51-120.8-93.8-189.5-128.2c-137.8-67.6-293.1-98.7-446.8-88c-9.4,0.7-18.8,1.1-28.2,2.1c-9.4,1.2-18.8,2.3-28.2,3.5
				c-4.7,0.6-9.4,1.1-14.1,1.8l-14,2.5l-28,5L723,70.2l-13.9,3.2l-13.7,3.9l-27.5,7.9l-27.1,9.2l-13.5,4.6
				c-4.5,1.7-8.9,3.5-13.3,5.2l-26.5,10.6l-26,11.8l-13,5.9c-4.3,2.1-8.5,4.3-12.7,6.5l-25.4,13l-24.7,14.1l-12.3,7l-12,7.6
				c-8,5.1-16,10.1-24,15.2l-23.2,16.2l-11.6,8.1l-11.2,8.6L369.1,246l-21.6,18.2l-10.8,9.1l-10.3,9.6L305.7,302l-19.8,20.1
				l-9.9,10.1l-9.4,10.5l-18.8,21.1L230,385.7l-8.9,11l-8.4,11.4l-16.7,22.9l-15.6,23.7l-7.8,11.9l-7.2,12.2l-14.4,24.6l-13.2,25.3
				l-6.6,12.7l-6,13l-11.9,25.9l-10.6,26.5l-5.3,13.3l-4.7,13.5l-9.3,27l-8,27.4l-4,13.7c-1.2,4.6-2.2,9.3-3.4,13.9l-6.6,27.8
				C45.8,818,39.8,894.8,43.2,971l2.1,28.3l1.1,14.1c0.5,4.7,1.2,9.4,1.7,14.1l3.7,28.1c1.4,9.4,3.3,18.6,5,28
				c3.1,18.7,7.9,37,12.3,55.4c1,4.6,2.3,9.2,3.7,13.7l4,13.6l4,13.6c1.3,4.6,2.7,9.1,4.3,13.5c24.2,71.8,56.7,140.7,97.6,204.1
				c80.5,127.4,194.3,235,327.5,306.2c133.5,70.9,284.9,105.5,434.8,101.3l28.2-0.9l28.1-2.3l14.1-1.2c4.7-0.4,9.3-1.2,14-1.7
				l28-3.7c9.3-1.2,18.5-3.3,27.8-4.9c9.2-1.8,18.6-3.1,27.7-5.5c18.3-4.4,36.7-8.4,54.6-14c36.3-10,71.5-23.5,106.1-38
				c17-8,34.4-15.2,50.9-24.2c8.3-4.4,16.8-8.5,25-13l24.4-14.1c4-2.4,8.2-4.6,12.1-7.1l11.9-7.6c7.9-5.1,15.9-10,23.7-15.3
				l23.1-16.2c3.8-2.7,7.8-5.3,11.5-8.2l11.2-8.6c7.4-5.8,15-11.4,22.2-17.4l21.5-18.3c3.5-3.1,7.3-6,10.7-9.2l10.3-9.6
				c6.8-6.5,13.8-12.8,20.5-19.4c53.2-53.3,100.8-112.6,138.2-178.1c4.6-8.2,9.5-16.3,13.9-24.6l12.7-25.2c2.1-4.2,4.3-8.3,6.2-12.6
				l5.7-12.9c3.8-8.6,7.7-17.1,11.3-25.8l10-26.3c1.6-4.4,3.4-8.7,4.9-13.2l4.3-13.4l8.7-26.7l7.3-27.1
				c19.4-72.4,28.1-147.1,29-221.9c0.3-16.4,1-17.4,0.6-0.7c-1.3,75.1-11.5,150.3-32.4,222.4l-7.9,27l-9.2,26.6l-4.6,13.3l-5.2,13.1
				l-10.5,26.1l-11.7,25.6l-5.9,12.8c-2.1,4.2-4.3,8.3-6.4,12.5l-12.9,24.9c-4.6,8.2-9.4,16.2-14,24.3l-7.1,12.1
				c-2.4,4-5,7.9-7.6,11.8l-15.3,23.6c-5.3,7.7-10.9,15.2-16.3,22.8l-8.2,11.4c-2.8,3.8-5.8,7.4-8.6,11l-17.4,22
				c-6,7.1-12.3,14.1-18.4,21.2l-9.2,10.6c-3.1,3.5-6.4,6.8-9.7,10.2l-19.4,20.2c-6.7,6.5-13.6,12.9-20.3,19.3l-10.2,9.6
				c-3.4,3.2-7.1,6.1-10.6,9.2l-21.3,18.3c-7.3,5.9-14.7,11.5-22.1,17.3l-11.1,8.6c-3.7,2.8-7.6,5.4-11.4,8.1l-22.9,16.1
				c-7.8,5.1-15.7,10-23.6,15.1l-11.8,7.5c-4,2.4-8.1,4.7-12.1,7l-24.3,13.8c-8.2,4.4-16.6,8.5-24.9,12.7l-12.5,6.3
				c-4.2,2.1-8.5,3.9-12.7,5.8l-25.5,11.4c-34.5,14-69.5,27.1-105.6,36.7c-17.9,5.4-36.1,9.2-54.3,13.4l-6.8,1.5l-6.9,1.2l-13.8,2.4
				l-13.8,2.4c-4.6,0.8-9.2,1.7-13.8,2.2c-18.5,2.2-37,5.1-55.6,6.1l-27.9,2l-28,0.7c-149,3.1-298.6-32.1-430.2-102.6
				c-131.3-71.1-243.8-176.6-323.1-302.8c-40.4-62.7-71.4-131.1-94.3-202C73.8,1118.1,61,1044,57,969.7
				c-3.2-75.6,3.2-151.3,19.4-224.9c4.6-18.3,8.4-36.7,14.2-54.7c2.7-9,5.2-18.1,8.2-27l9.4-26.7c1.6-4.4,3-8.9,4.8-13.3l5.3-13.1
				c3.6-8.7,7-17.5,10.8-26.2c8.1-17,15.4-34.5,24.5-51.1C221.9,398.5,326.8,284,452.7,202.1C578.2,120,726.8,70.7,876.5,63l7-0.5
				l7-0.1l14.1-0.3c9.4-0.1,18.7-0.6,28.1-0.3l28.1,0.9c4.7,0.2,9.4,0.2,14.1,0.5l14,1.1l28,2.3l27.9,3.6l13.9,1.8l13.8,2.5l27.7,5
				c9.2,2,18.3,4.2,27.4,6.3l13.7,3.2c4.6,1.1,9,2.5,13.5,3.8l27,7.8c8.9,2.8,17.8,6,26.6,9l13.3,4.5c4.4,1.5,8.7,3.4,13.1,5.1
				l26.1,10.4c8.6,3.7,17.1,7.7,25.6,11.5l12.8,5.8c4.2,2,8.3,4.2,12.5,6.4l25,12.9c8.2,4.6,16.2,9.4,24.3,14.1l12.1,7.1
				c4,2.5,7.9,5.1,11.8,7.6l23.5,15.3l22.8,16.4l11.4,8.2l11,8.7l21.9,17.5l21,18.5c3.5,3.1,7.1,6.1,10.5,9.3l10.1,9.7
				c6.7,6.5,13.5,12.9,20.1,19.5c12.7,13.7,26,26.8,37.8,41.3c24.8,27.9,46.8,58.1,67.9,88.9c10.1,15.8,20.5,31.3,29.5,47.8l7,12.2
				l3.5,6.1l3.2,6.2l12.8,25c16.2,33.8,31.1,68.3,42.7,103.9c6.4,17.6,11.2,35.8,16.3,53.7c1.4,4.5,2.5,9,3.5,13.6l3.2,13.7
				l3.2,13.7l1.6,6.8l1.3,6.9c3.3,18.4,7,36.8,9.1,55.3c1.1,9.3,2.7,18.5,3.4,27.8l2.3,27.9c0.3,4.6,0.9,8.9,1.1,13
				c0.2,4,0.4,7.8,0.6,11.3c0.4,6.9,0.9,12.7,1.4,17.3c1,9.2,2.1,13.7,3.1,13.5c1-0.2,1.8-5.1,2.3-14.8c0.2-4.8,0.4-10.8,0.4-18
				c0-3.6,0-7.5,0-11.7C1794.1,875.5,1793.8,871,1793.5,866.2z"/>
		</g>
		<g>
			<path class="st1" d="M1213.8,122.5C1074.9,69,910.5,56,756.8,87.1c-76.6,16-151.4,41.8-220.3,78l-13,6.7
				c-4.3,2.2-8.4,4.8-12.7,7.2c-8.4,4.8-16.8,9.7-25.2,14.5c-8.1,5.2-16.3,10.4-24.4,15.7c-4,2.6-8.2,5.1-12.1,7.9l-11.8,8.4
				c-31.7,21.8-61,46.5-89.1,71.9C233.6,402.5,147.5,539.2,104.8,689.4c-21.9,75-32,153-32.9,230.9c0.4,39,1.9,78,7.4,116.6
				c2,19.4,6.1,38.5,9.3,57.7c2,9.5,4.3,19,6.4,28.5l3.3,14.3l3.9,14.1l7.8,27.8l9.2,27.4c1.6,4.5,3,9.1,4.7,13.6l5.3,13.4
				c3.6,8.9,6.9,18,10.8,26.8c8,17.5,15.5,35.3,24.7,52.2l6.6,12.8l3.3,6.4l3.6,6.3l14.5,25c2.3,4.2,5,8.2,7.6,12.3l7.8,12.1
				c5.2,8.1,10.3,16.3,16.1,24l16.8,23.5c5.8,7.7,11.9,15.2,17.8,22.7l8.9,11.3l9.4,10.9c6.3,7.2,12.5,14.6,18.9,21.7
				c13.3,13.9,26.2,28.2,40.3,41.2c55,53.7,117.1,99.4,183.7,137.3c17,8.8,33.7,18.4,51.2,26.2c8.7,4,17.3,8.4,26.2,12l26.7,10.9
				c8.8,3.8,18,6.7,27.1,10l13.6,4.8l6.8,2.4l6.9,2.1l27.8,8.1c4.6,1.4,9.3,2.6,14,3.7l14.1,3.3c160,37.5,332,26,486.2-30.4
				c9.7-3.4,19.1-7.4,28.7-11.1l14.3-5.7l14-6.4c9.3-4.3,18.8-8.3,28-13l27.4-14.1c4.6-2.3,9-4.9,13.5-7.5l13.4-7.7l13.4-7.7
				c4.4-2.7,8.7-5.6,13-8.3c8.6-5.7,17.4-11,25.8-16.9l25.1-18c4.2-2.9,8.3-6.1,12.3-9.3l12.1-9.6l12.1-9.6c4-3.2,7.8-6.7,11.7-10.1
				c7.7-6.8,15.6-13.4,23.2-20.3l22.3-21.2l5.6-5.3l5.3-5.6l10.6-11.1l10.6-11.1c3.5-3.7,6.8-7.7,10.2-11.5
				c6.7-7.7,13.6-15.3,20.1-23.2l19.1-24c5-6,8.6-11.6,11.2-15.9c2.6-4.3,4.2-7.4,4.6-8.9c0.8-3-3,0.4-12.4,13.4
				c-5.9,7.7-12.1,15.2-18.2,22.8l-9.1,11.4l-9.7,11c-6.5,7.3-12.8,14.7-19.4,21.9l-20.4,21.1c-27.8,27.5-56.7,54.1-88.1,77.7
				l-11.6,9.1l-12,8.5c-8,5.6-15.9,11.5-24.1,16.9c-16.6,10.5-32.9,21.4-50.1,30.8c-16.8,10.1-34.5,18.6-51.9,27.5
				c-8.8,4.3-17.8,8.1-26.7,12.1l-13.4,6l-13.6,5.3c-9.1,3.5-18.1,7.2-27.3,10.5l-27.7,9.3c-9.2,3.3-18.6,5.8-28,8.4
				c-9.4,2.5-18.7,5.5-28.2,7.6l-28.5,6.4l-7.1,1.6l-7.2,1.3l-14.4,2.5l-14.4,2.5l-7.2,1.2l-7.2,0.9l-29,3.5
				c-38.7,3.6-77.6,5.7-116.4,3.9c-19.4-0.2-38.8-2.2-58.1-3.8c-4.8-0.3-9.6-1-14.5-1.6l-14.4-1.9c-9.6-1.4-19.3-2.4-28.7-4.4
				c-149.1-25.1-291.5-91.8-406.2-189.6l-21.2-18.7c-7.1-6.2-13.6-13-20.4-19.5c-13.7-12.8-26.1-27-39-40.6
				c-6.2-7-12.1-14.3-18.2-21.4l-9.1-10.7c-2.9-3.7-5.7-7.4-8.6-11.1l-17-22.3l-16-23.1c-2.6-3.9-5.4-7.6-7.9-11.6l-7.4-11.9
				c-4.9-8-10-15.8-14.7-23.9c-9-16.4-18.6-32.4-26.6-49.4c-17.1-33.3-31.2-68.1-43.8-103.3l-9.1-27.3c-3.1-9.1-5.3-18.5-8-27.7
				c-5.7-18.4-9.3-37.3-13.8-56c-1.9-9.4-3.5-18.9-5.2-28.4l-2.6-14.2l-1.9-14.3l-3.8-28.7l-2.3-28.8l-1.1-14.4l-0.4-14.5l-0.9-28.9
				l0.6-28.9l0.3-14.5l1.1-14.4l2.1-28.8l3.6-28.7c0.6-4.8,1.1-9.6,1.9-14.3l2.5-14.2c1.8-9.5,3.3-19,5.2-28.4
				C133.1,601,207.4,460.4,312.6,348.3c54.6-58.3,118.4-108.2,188-148.2l26.3-14.7l27-13.4c8.9-4.6,18.2-8.5,27.4-12.6l13.8-6l6.9-3
				l7-2.7l28.2-10.7c9.5-3.4,19.1-6.3,28.6-9.5c4.8-1.5,9.5-3.2,14.3-4.7l14.5-4c9.7-2.6,19.3-5.6,29.1-7.8
				c39.2-9.7,79-16.2,118.9-20.9l30.1-2.4c5-0.3,10-1,15-1.1l15.1-0.5c10-0.2,20.1-0.9,30.1-0.7l30.1,0.5
				c40.1,1.7,80.1,5,119.5,12.4l14.8,2.5l14.6,3.2c9.7,2.2,19.5,4.2,29.2,6.6c19.2,5.3,38.5,10.3,57.3,16.9c7,2.3,13.4,4.3,19.1,6
				c5.6,1.9,10.5,3.5,14.7,4.7c8.3,2.4,13.7,3.3,15.7,2.9c1.9-0.5,0.4-2.3-5.1-5.5c-2.8-1.6-6.5-3.5-11.3-5.8
				C1226.8,127.7,1221,124.9,1213.8,122.5z"/>
		</g>
		<g>
			<path class="st1" d="M1683.6,676.7c-16.5-54.5-40.2-108.6-70.5-160.2c-3.5-6.6-7.8-12.8-11.8-19.1c-4-6.3-8.1-12.7-12.1-19.1
				c-4.4-6.2-8.7-12.3-13.1-18.5c-4.4-6.1-8.6-12.5-13.4-18.4c-9.5-11.9-18.4-24.3-28.7-35.6l-14.9-17.4l-15.8-16.8
				C1422,285,1320,215.1,1206.6,172.6C1091.5,129.8,967,117.1,850,128c-64.4,6-127.7,19.4-188.9,39.6c-7.7,2.3-15.2,5.2-22.8,8.1
				l-22.6,8.5l-22.2,9.6c-7.4,3.2-14.9,6.3-22,10.1l-21.7,10.8c-3.7,1.7-7.2,3.7-10.7,5.7l-10.6,5.9c-7,4-14.2,7.7-21.1,12.1
				l-20.6,13c-3.4,2.2-6.9,4.3-10.2,6.6l-10,7L446.8,279l-19.2,15.1l-9.6,7.6c-3.2,2.5-6.2,5.3-9.3,8l-18.5,16.1
				c-6.2,5.4-11.8,11.3-17.8,16.9l-8.8,8.5l-4.4,4.3L355,360l-16.8,17.9c-5.7,5.8-10.8,12.2-16.2,18.4c-5.3,6.3-10.7,12.3-15.8,18.7
				l-15,19.4l-7.5,9.7l-7,10l-14.1,20l-13.2,20.5c-9.1,13.5-16.8,27.8-25,41.7c-2.1,3.5-4,7-5.8,10.6l-5.6,10.8
				c-3.7,7.2-7.7,14.3-11,21.6l-10.1,22.1c-1.7,3.7-3.5,7.3-5,11.1l-4.5,11.3l-9.1,22.5c-2.8,7.6-5.3,15.3-8,22.9
				c-5.7,15.2-9.8,30.9-14.4,46.4c-2.5,7.7-4,15.7-6,23.6l-5.6,23.7l-4.4,23.9c-1.5,8-3.1,15.9-4,24c-2.1,16.1-4.6,32.2-5.5,48.4
				l-2,24.3l-0.7,24.4c-1.1,32.1,0.5,64.3,3.1,96.4c0.7,8,1.9,16,2.8,24l1.5,12c0.4,4,1,8,1.7,12l4.1,23.8c0.7,4,1.3,8,2.1,11.9
				l2.7,11.8l5.3,23.6c1.9,7.8,4.3,15.6,6.4,23.4l3.2,11.7l1.6,5.8l1.9,5.7l7.7,23c2.4,7.7,5.4,15.2,8.4,22.8l8.8,22.6l9.9,22.2
				c3.3,7.4,6.5,14.8,10.3,22l10.9,21.6c1.8,3.6,3.7,7.2,5.7,10.6l6,10.5c4.1,7,7.8,14.1,12.1,20.9l13,20.4
				c2.2,3.4,4.3,6.8,6.5,10.2l7,9.9l14,19.8c4.9,6.4,9.9,12.8,14.9,19.1c5,6.3,9.8,12.9,15.2,18.9c10.6,12.2,20.9,24.7,32.4,36.2
				c5.6,5.8,11,11.9,16.8,17.5l17.6,16.8c2.9,2.8,5.8,5.7,8.8,8.4l9.2,8l18.3,16l19.1,15.1c6.4,5,12.6,10.2,19.3,14.8l19.7,14.2
				l4.9,3.6l5.1,3.3l10.2,6.6c6.8,4.4,13.4,9,20.4,13.2l20.9,12.4l10.4,6.2l10.7,5.7l21.4,11.4c7.2,3.7,14.6,7,21.9,10.5
				c7.4,3.4,14.5,7.2,22.1,10.1c59.5,25.6,122.1,44.3,186.6,54.4c129,19.1,263.4,8.3,386.5-34.6c15.6-4.9,30.6-11.3,45.8-17.2
				c7.7-2.8,15-6.5,22.5-9.8c7.4-3.4,14.9-6.7,22.3-10.2l21.8-11.2l10.9-5.6c3.6-2,7.1-4.1,10.6-6.1l21.2-12.2
				c7-4.1,13.8-8.8,20.7-13.1c27.7-17.4,53.6-37.4,79-57.8l18.4-16.1l9.2-8c3-2.8,5.9-5.6,8.8-8.4l17.6-16.9
				c5.8-5.7,11.2-11.8,16.9-17.6c22.7-23.5,43.1-49,62.8-75l14.1-20l7-10l6.6-10.3l13.1-20.6c4.3-6.9,8.1-14.1,12.2-21.2
				c16.4-28.2,30-57.8,42.9-87.6c11.9-30.2,23.1-60.6,31.4-91.9c2.5-9,3.9-15.6,4.4-20c0.4-4.4,0-6.6-0.9-6.4
				c-1,0.1-2.2,2.6-4.1,7.2c-1.9,4.6-4.3,11.4-6.8,20.4c-18.6,66.6-46.8,130.4-81.5,190.2c-18,29.5-36.8,58.7-58.5,85.7
				c-10.3,13.9-22.1,26.7-33.2,39.9c-5.8,6.5-11.9,12.6-17.8,18.9c-5.9,6.3-11.9,12.6-18.3,18.5l-18.8,18
				c-6.4,5.8-13.1,11.4-19.6,17.1l-9.8,8.5c-3.3,2.8-6.8,5.4-10.2,8.1l-20.5,16.1c-7,5.1-14.1,10.1-21.2,15.1l-10.6,7.5
				c-3.6,2.4-7.3,4.7-10.9,7l-21.9,14l-22.6,12.9l-11.3,6.5c-3.8,2.1-7.7,3.9-11.6,5.9l-23.2,11.8L1255,1661l-11.8,5.3
				c-4,1.7-8.1,3.2-12.1,4.8l-24.2,9.5c-8.1,2.9-16.4,5.5-24.6,8.3l-12.3,4.1c-4.1,1.4-8.3,2.4-12.5,3.6l-25,7.1
				c-67.1,17.3-136.4,25.4-205.6,25.2c-69.2-1-138.1-10-204.8-27.9c-66.6-18.2-131.6-43.6-191.9-78c-30.5-16.6-59.2-36.2-87.1-56.7
				c-13.6-10.7-27.5-21.1-40.4-32.7c-6.5-5.8-13.3-11.1-19.5-17.2l-18.7-18c-6.4-5.8-12.1-12.4-18-18.6l-8.9-9.4
				c-3-3.1-5.9-6.3-8.6-9.6c-11.1-13.2-22.5-26.1-32.6-40c-21.1-27.1-39.5-56.1-56.8-85.6c-33.6-59.6-60.4-122.8-78.7-188.8
				c-2.2-8.3-4.7-16.5-6.8-24.8l-5.6-25.1c-0.9-4.2-2-8.3-2.8-12.5l-2.2-12.7l-4.4-25.3c-4.3-34-8.1-68.1-8.2-102.4
				c-1.1-34.3,1.2-68.5,4.4-102.6l3.4-25.4l1.7-12.7l2.3-12.6l4.6-25.2c1.8-8.3,3.9-16.6,5.8-25c15.6-66.6,40.8-130.9,72.7-191.6
				c16.6-30,34.1-59.6,54.4-87.2c9.6-14.2,20.7-27.3,31.2-40.8c5.4-6.7,11.2-12.9,16.8-19.4c5.6-6.4,11.2-13,17.2-19l17.8-18.4
				c6-6,12.4-11.7,18.6-17.6c12.2-12,25.6-22.5,38.5-33.7c6.6-5.4,13.5-10.4,20.2-15.6l10.1-7.8c3.3-2.6,7-4.9,10.4-7.4l20.9-14.5
				c7.1-4.7,14.4-9,21.6-13.6c57.6-36.1,120.1-63.5,184.8-84.1c32.5-9.7,65.4-18.3,99-23.8c33.4-6.3,67.4-9.2,101.3-11.4
				c68.1-2.7,136.4,2.5,202.7,16.8c16.4,4.1,33.1,7.3,49.4,12.4c8.1,2.4,16.4,4.5,24.5,7.1l24.2,8.1c4,1.4,8.1,2.6,12.1,4.1
				l11.9,4.7c7.9,3.1,15.9,6.1,23.8,9.3l23.4,10.4c3.9,1.8,7.8,3.4,11.7,5.3l11.4,5.8c7.6,3.9,15.3,7.6,22.8,11.6l22.3,12.7
				c3.7,2.1,7.5,4.1,11.1,6.4l10.8,6.9c7.2,4.6,14.5,9.1,21.5,13.8c13.8,10,28.1,19.3,41.3,30.2c6.7,5.3,13.5,10.4,20,15.9
				l19.2,16.8c6.5,5.5,12.5,11.4,18.7,17.3c6.1,5.9,12.4,11.7,18.2,17.8c11.5,12.5,23.6,24.4,34.4,37.6c22.5,25.4,42.5,53,61.6,81
				c37,56.8,67.8,117.8,89.1,182.2c2.7,8.3,5.2,15.4,7.4,21.6c1.9,6.2,3.5,11.4,4.9,15.5c2.8,8.3,4.6,12.5,5.4,12.8
				c0.8,0.4,0.5-3.1-0.8-10.1c-0.7-3.5-1.6-7.9-2.8-13.2C1687.6,689.5,1685.8,683.5,1683.6,676.7z"/>
		</g>
		<g>
			<path class="st1" d="M1818.1,684.1c-12.5-49-29.9-97.6-51.3-144.9c-21.4-47.4-46.9-93.4-76.3-137.1
				c-58.7-87.5-133.6-164.5-216.8-226c-85.3-63.4-182.3-110.1-284.2-139.7C1087.5,6.3,980.1-4.3,873,1.5
				c-19.7,1.6-39.4,2.5-58.9,5.3c-9.8,1.2-19.6,2.3-29.4,3.7l-29.2,5L741,18.1l-14.5,3.2l-28.9,6.4L669,35.4l-14.3,3.9
				c-4.8,1.4-9.4,3-14.1,4.5l-28.2,9.2c-9.3,3.3-18.5,7-27.8,10.5c-18.6,6.7-36.5,15.3-54.7,23.2c-35.6,17.2-70.8,35.7-103.9,57.5
				c-66.9,42.6-127.2,94.9-180.7,153.1c-26.3,29.5-51.6,60-74,92.7c-11.7,15.9-22,32.9-32.7,49.5c-5.3,8.3-10,17.1-15,25.6
				c-4.9,8.6-10,17.1-14.4,25.9l-13.6,26.4c-4.6,8.8-8.3,17.9-12.5,26.9c-8.6,17.9-15.6,36.4-22.9,54.7l-2.7,6.9l-2.4,7l-4.8,14
				l-4.8,14c-1.7,4.7-3.2,9.4-4.5,14.1c-5.5,19-11.4,37.9-15.6,57.3C15.6,750.9,9.9,790.1,5,829.4c-3.5,39.4-6,79-4.6,118.5
				c0.5,38.8,4.8,77.5,10.1,116c6.5,38.3,14.1,76.5,25.3,113.8c10.3,37.5,24.2,73.9,39.1,109.9l12.1,26.6c2,4.4,4,8.9,6.1,13.2
				l6.7,13l13.3,25.9l14.5,25.3l7.3,12.6l7.8,12.3l15.7,24.5c5.5,8,11.2,15.8,16.8,23.8c5.6,7.9,11.2,15.8,17.4,23.4l18.1,22.8
				c6.1,7.5,12.7,14.7,19,22.1c12.5,14.9,26.3,28.6,39.7,42.6c27.7,27.2,56.4,53.5,87.2,77.1c30.4,24.2,62.8,45.7,95.9,66
				c16.8,9.6,33.4,19.8,50.8,28.4c8.6,4.4,17.2,9,25.9,13.3l26.4,12.2c4.4,2,8.8,4.1,13.3,6l13.5,5.5l27,10.9l27.5,9.6l13.8,4.8
				c4.6,1.6,9.3,2.8,13.9,4.2c74.4,22.4,151.7,36.4,229.5,38.8l29.1,0.7c9.7,0.3,19.4-0.3,29.1-0.4c9.7-0.3,19.4-0.2,29.1-1
				l29.1-2.2c4.8-0.4,9.7-0.6,14.6-1.2l14.5-1.8l29-3.6l28.8-5c9.6-1.7,19.2-3.3,28.7-5.6c76.2-16.7,150.7-42.1,220-77.8l25.9-13.4
				l25.2-14.7l12.6-7.4l12.2-7.9l24.3-16c31.6-22.5,62.6-45.8,91.1-72.1c57.9-51.4,108.4-110.5,152.4-174.2
				c5.7-7.8,10.7-16.1,15.9-24.2c5.1-8.2,10.6-16.2,15.4-24.6c9.5-16.9,19.6-33.4,28.1-50.8c4.4-8.6,8.9-17.2,13.1-25.9l11.9-26.5
				l5.9-13.3l5.3-13.5l10.6-27.1c26.3-72.9,43.6-149,51-225.9c2.3-32.1-1.2-31-3.6,1.4c-4.5,39-9.9,78-19.1,116.1
				c-3.9,19.2-9.6,38-14.8,56.9l-2,7.1l-2.3,7l-4.6,13.9l-4.6,13.9c-1.5,4.7-3.1,9.3-4.9,13.8c-27.5,73.3-63.3,143.6-108.8,207.3
				c-22.2,32.5-47.6,62.6-73.8,91.9c-13.7,14.1-26.8,28.7-41.3,41.9c-7.2,6.7-14.2,13.6-21.5,20.1l-22.3,19.2
				c-3.8,3.1-7.4,6.5-11.2,9.5l-11.6,9c-7.8,6-15.4,12.1-23.3,17.9l-24,16.9c-4,2.8-7.9,5.7-12.1,8.4l-12.4,7.9
				c-8.3,5.2-16.5,10.6-24.8,15.7l-25.5,14.6c-4.3,2.4-8.5,4.9-12.8,7.2l-13.1,6.7l-26.2,13.3l-26.8,12.2l-13.4,6.1l-13.7,5.5
				l-27.4,10.9l-27.9,9.6l-13.9,4.8c-4.7,1.5-9.4,2.8-14.1,4.2l-28.3,8.2c-9.5,2.5-19.1,4.7-28.6,7c-9.6,2.3-19.1,4.7-28.8,6.3
				l-29,5.4c-4.8,1-9.7,1.6-14.6,2.3l-14.6,2l-14.6,2c-4.9,0.7-9.7,1.3-14.6,1.6l-29.4,2.4c-9.8,1-19.6,1.2-29.4,1.5l-29.4,0.8
				l-29.4-0.7c-9.8-0.2-19.6-0.4-29.4-1.4c-78.3-5.4-156.3-19.7-230.8-45l-27.9-9.5l-27.4-10.8l-13.7-5.4l-13.4-6.1l-26.8-12.2
				l-26.2-13.4l-13.1-6.8c-4.3-2.3-8.5-4.9-12.8-7.3l-25.5-14.7c-8.3-5.1-16.5-10.6-24.8-15.8l-12.4-8c-4.1-2.7-8-5.6-12-8.5
				l-23.9-17.1c-7.8-5.9-15.4-12.1-23.1-18.2l-11.5-9.2c-3.8-3-7.4-6.4-11.1-9.6l-22.1-19.4c-7.2-6.6-14.1-13.5-21.2-20.3
				c-14.3-13.3-27.3-28-40.8-42.2c-25.8-29.4-50.8-59.6-72.7-92c-11.6-15.8-21.6-32.6-32.1-49.1c-5.2-8.3-9.8-16.9-14.7-25.4
				c-4.8-8.5-9.8-16.9-14.1-25.7l-13.3-26.1c-4.4-8.7-8.2-17.8-12.3-26.6c-8.4-17.7-15.1-36-22.3-54.2c-1.9-4.5-3.5-9.1-5-13.8
				l-4.7-13.9l-4.7-13.9l-2.3-7l-2-7.1c-5.3-18.8-11-37.6-14.9-56.7c-9.3-38-14.8-76.9-19.3-115.7c-3.2-39-5.5-78.1-4-117.2
				c0.3-9.5,0.3-19.1,1-28.6l2.2-28.6l1.2-14.3l1.8-14.2l3.7-28.4c1.4-9.4,3.3-18.8,5-28.2c1.8-9.4,3.2-18.8,5.6-28.1
				c4.4-18.6,8.5-37.3,14.1-55.5c10-36.9,23.7-72.7,38.1-108L95,541.1l6-13c2-4.3,4.3-8.5,6.5-12.8l13.1-25.5
				c4.5-8.4,9.5-16.6,14.2-24.9c38-66.2,85.2-127,138.4-181.6c6.5-7,13.5-13.5,20.4-20.1c7-6.5,13.7-13.2,20.8-19.6L336,225
				c3.6-3.1,7.2-6.3,10.9-9.3l11.3-8.8l22.6-17.6l23.3-16.6l11.7-8.3l12-7.7l24.1-15.4c32.9-19.3,66.3-38,101.3-53.3
				c17.2-8.3,35.1-15,52.9-22.1l6.7-2.6l6.8-2.3l13.6-4.7c9.1-3,18-6.4,27.2-9.1c73.1-22.2,148.9-36,225.1-39.3
				c111.9-5,222.1,11.3,325.4,45.6c103.4,34.2,199.3,87.5,284.2,155.8c36.6,29.6,72.1,62,104.9,97.9c32.8,35.8,63.2,74.5,90.7,115.5
				c27.6,40.9,51.6,84.4,72,129.3c20.3,44.9,37.6,91,50.3,137.9c14.8,55.7,19,79.7,20.2,76.6c0.5-1.5-0.3-9.7-2.2-23.8
				c-0.9-7.1-2.9-15.5-4.9-25.3c-1.1-4.9-2.2-10.1-3.4-15.7c-0.6-2.8-1.2-5.7-1.9-8.6C1819.8,690.1,1819,687.1,1818.1,684.1z"/>
		</g>
		<g>
			<path class="st1" d="M1650,512.6c-4.2-7.1-8.3-14.4-12.7-21.4l-13.5-20.9l-6.7-10.4l-7.2-10.1l-14.4-20.2
				c-4.9-6.7-10.2-13-15.2-19.6c-5.2-6.4-10-13.2-15.6-19.3c-10.9-12.4-21.3-25.3-32.9-37c-5.7-6-11.3-12-17.1-17.9l-17.9-17.2
				l-8.9-8.6c-3-2.8-6.2-5.4-9.3-8.2l-18.6-16.3c-6.2-5.4-12.9-10.3-19.3-15.5l-9.7-7.7c-3.2-2.6-6.5-5.1-9.9-7.5
				c-13.5-9.5-26.6-19.6-40.7-28.2c-55.6-36.1-115.8-65.5-178.9-86.4l-23.7-7.8c-7.9-2.5-16-4.5-24-6.7l-12-3.3l-6-1.7l-6.1-1.4
				l-24.3-5.4c-4.1-0.9-8.1-1.9-12.1-2.6l-12.2-2.1l-24.5-4.3c-8.2-1.2-16.4-2.1-24.6-3.2l-12.3-1.6c-4.1-0.6-8.2-1.1-12.3-1.3
				c-65.6-6.3-131.6-6.1-197,1.8c-65.4,7.6-130,24.1-192,48.5c-16,5.8-31.2,13.3-46.7,20.2c-3.9,1.7-7.7,3.6-11.5,5.6l-11.3,5.8
				c-7.5,4-15.2,7.6-22.6,11.9c-14.6,8.7-29.7,16.7-43.7,26.4l-21.4,14l-20.7,15c-55.2,40-104.5,87.4-148.6,138.7
				c-5.7,6.3-10.9,12.9-16.1,19.6L260,425.8l-14.8,20.6l-7.4,10.3c-2.4,3.5-4.6,7.1-7,10.6l-13.9,21.2c-4.6,7.1-8.6,14.5-13,21.8
				c-8.9,14.4-16.5,29.5-24.3,44.5c-4.1,7.4-7.4,15.2-11,22.8c-3.5,7.7-7.2,15.3-10.6,23.1l-9.5,23.5l-4.8,11.8c-1.5,4-2.8,8-4.2,12
				l-8.3,24c-2.7,8-4.8,16.2-7.3,24.4l-3.6,12.2c-1.2,4.1-2.4,8.1-3.3,12.3l-5.8,24.8c-2.1,8.2-3.6,16.6-5.1,25l-4.5,25.1L98.2,821
				c-1,8.4-2.4,16.8-2.8,25.4c-1.2,17-3,33.9-3,51l-0.6,25.5c0.1,8.5,0.4,17,0.6,25.5c0.6,34.1,4.3,68,8.8,101.7
				c1.3,8.4,2.9,16.8,4.4,25.1c1.6,8.4,2.7,16.8,4.8,25c3.9,16.6,7.2,33.2,12.1,49.5l6.6,23.5l7.7,23.2c4.8,15.6,11.2,30.6,17,45.8
				c2.8,7.7,6.3,15,9.6,22.5l10,22.3l11.1,21.8c3.7,7.3,7.3,14.6,11.5,21.6c31.8,57,69.9,110.5,113.7,159
				c44,48.2,92.9,91.6,146.3,129.1c53.4,37.3,111.5,68.2,172.6,91.9c61.1,23.9,125,40.3,190,49.3c65,9,131.2,10.6,196.7,4.2
				c131-13.7,258.3-59.8,368.1-131.6c27.7-17.5,53.8-37.5,79.5-58l18.6-16.1c6.2-5.4,12.5-10.6,18.3-16.4c11.8-11.4,24-22.5,35-34.6
				c45.3-47.5,85.5-100,117.9-156.8c32.5-56.5,58.4-116.5,76.6-178.6c18-62.2,28.7-126.3,32.2-190.8c0.3-5.8,0.7-10.8,0.7-15.1
				c-0.1-4.2-0.2-7.7-0.4-10.4c-0.4-5.4-1-7.7-1.6-7c-1.4,1.3-2,14.2-4,37.6c-4.3,67.2-16.7,134.5-38.1,199
				c-21.1,64.5-49.9,126.7-86.2,183.7l-13.7,21.4l-14.7,20.7l-7.4,10.3c-2.5,3.4-5.2,6.7-7.8,10l-15.8,19.9
				c-5.3,6.6-11.1,12.8-16.6,19.2c-5.6,6.3-11,12.9-17,18.9c-11.8,12.2-23.4,24.6-36,35.9c-24.4,23.6-51,44.6-77.9,65.2
				c-27.6,19.6-55.5,38.7-85.2,55.1c-14.5,8.7-29.7,16.1-44.7,23.9c-7.4,4.1-15.3,7.3-22.9,10.9c-7.7,3.5-15.3,7.2-23.1,10.5
				l-23.6,9.5l-11.8,4.7l-12,4.2l-24,8.4c-8.1,2.6-16.3,4.8-24.4,7.3c-16.2,5.1-32.8,8.7-49.3,12.7c-8.2,2.2-16.6,3.5-25,5.1
				l-25,4.6c-33.6,4.7-67.4,8.5-101.3,8.9l-25.4,0.5l-25.3-0.8c-16.9-0.1-33.7-2.1-50.5-3.4c-8.4-0.5-16.8-1.9-25.1-3l-25-3.4
				l-24.8-4.7c-8.3-1.6-16.6-3-24.7-5.2c-16.4-4-32.8-7.7-48.8-12.8c-8-2.4-16.2-4.6-24.2-7.3l-23.8-8.3l-11.9-4.2l-11.7-4.7
				l-23.4-9.4c-7.7-3.3-15.3-7-23-10.5c-7.6-3.6-15.4-6.8-22.8-10.9c-120.4-60.1-227.3-149.5-305.4-259.2
				c-39.1-54.8-71.4-114.1-95.2-176.7c-24-62.4-41.1-127.4-49.7-193.8c-8.6-64.4-10.4-130.1-4.8-195.1c5.8-65,19.8-129.3,41.2-191
				c21.2-61.7,51.1-120.1,86.8-174.4c8.6-13.8,18.5-26.7,28-39.9c4.6-6.7,9.9-12.9,14.9-19.3l15.3-19c21.3-24.5,43.1-48.7,67-70.8
				c23.3-22.7,48.6-43.3,74.3-63.3c6.5-4.9,13.2-9.5,19.8-14.3c6.7-4.7,13.1-9.7,20.1-13.9c13.7-8.8,27.2-18,41.5-25.9
				c56.3-32.9,116.4-59.5,178.9-77.2c59.3-17.1,120.5-26.9,182-29.8c61.5-3,123.3,0.8,184.1,11.4c60.8,10.4,120.6,26.9,177.9,49.8
				c57.4,22.7,112,52.6,162.4,88.2c6.3,4.5,12.6,8.9,18.9,13.5l18.2,14.4c12.4,9.3,23.7,19.9,35.5,30.1c6,5,11.4,10.5,17,15.9
				l16.7,16.2l16,16.9c5.2,5.7,10.8,11.1,15.7,17.1c41,46.6,76.8,97.3,107.3,150.4c4,6.4,6.8,12.2,9.7,16.7
				c2.8,4.6,5.2,8.2,7.1,10.9c3.9,5.3,6.3,6.8,6.8,5c0.5-1.9-0.8-7.1-4-15.4c-1.6-4.1-3.7-9-6.3-14.6
				C1657.4,525.4,1653.9,519.4,1650,512.6z"/>
		</g>
	</g>
	<g>
		<path class="st1" d="M1656.6,918.6l-0.1-27.2c0-9.1-1-18.1-1.4-27.2l-0.9-13.6c-0.4-4.5-1.1-9-1.6-13.5c-1.2-9-2.1-18-3.5-27
			c-5.7-35.9-14.4-71.2-25.3-105.8c-11.1-34.5-24.9-68.1-40.3-100.9c-15.5-32.8-33.8-64.2-53.5-94.8c-20.8-32.4-45.9-62.1-72.7-89.8
			c-26.9-27.7-55.3-53.8-84.9-78.1c-29.5-24.5-59.3-48.5-91-70.7c-31.9-21.9-65.7-41.7-101.9-57.6c-8.6-3.5-17.2-7.1-25.7-10.6
			l-26.4-9.2c-8.8-3.2-17.8-5.6-26.8-8.2c-9-2.5-17.9-5.4-27.1-7.3l-27.4-6.4c-9.2-1.9-18.4-3.4-27.7-5.2c-4.6-0.8-9.2-1.8-13.9-2.5
			l-13.9-2c-9.3-1.2-18.6-3-27.9-3.9l-28.1-2.8l-7-0.6l-7.1-0.3l-14.2-0.6c-18.9-1.2-37.8-0.2-56.9,0c-38,2.1-76,6.6-113.7,14.2
			c-40.1,8.3-80.2,17.7-119.6,30.6c-39.4,12.9-77.7,29.8-113.8,51.4l-13.4,8.2c-4.5,2.7-9,5.5-13.3,8.5L449.8,283l-25.2,18.9
			c-4.3,3.1-8.3,6.4-12.4,9.8L400,321.7c-32.2,27.1-62.6,56.5-90.3,88.4c-26.8,31.1-50.4,65-71.4,100.5
			c-20.9,35.5-38.5,72.7-54.8,110.4c-16.5,37.7-28.1,77.3-37.3,117.4l-3.3,15.1c-1.1,5-2.2,10-3,15.1l-5.2,30.4
			c-1.5,10.1-2.6,20.4-3.9,30.5c-0.6,5.1-1.4,10.2-1.8,15.3l-1.3,15.3l-1.3,15.3l-0.7,7.7l-0.3,7.7l-1.3,30.7
			c-0.2,10.2,0,20.5,0,30.8c0.1,5.1,0,10.3,0.2,15.4l0.8,15.4l0.9,15.4l0.4,7.7l0.8,7.7l3.4,30.7c1.4,10.2,3.2,20.3,4.9,30.5
			c1.5,10.2,3.8,20.3,6.1,30.3c4.1,20.2,10.1,40,15.7,59.8l9.9,29.3l2.5,7.3l2.8,7.2l5.7,14.4c15.5,38.2,33.4,75.5,54.5,110.9
			c21,35.5,45.1,69.1,71.8,100.4c26.9,31.2,55.9,60.3,86.3,88c30.4,27.6,62.1,53.8,95.5,78.1c33.3,24.4,69.1,45.7,106.8,62.9
			c18.7,8.9,38.4,15.8,57.9,22.6l29.8,8.8c4.9,1.5,10,2.8,15,3.9l15.1,3.6c40.3,9.1,81,15.7,121.8,20.2c40.7,4.7,81.7,9.5,123,10.2
			c41.3,1,83.1-0.5,124-8.5c4.6-0.8,9.2-1.6,13.8-2.5l13.6-3.2c9.1-2.2,18.2-4.2,27.2-6.7c17.9-5.4,35.8-10.3,53.2-16.9l13.1-4.7
			c4.4-1.5,8.7-3.2,13-5l25.7-10.7c8.6-3.5,16.8-7.8,25.3-11.6c8.4-3.9,16.8-7.8,24.9-12.3l24.7-12.9l24.2-13.8
			c4-2.3,8.1-4.5,12.1-7l11.8-7.4c7.8-5,15.8-9.7,23.5-15c30.8-20.7,60.1-43.8,87.2-69c6.6-6.5,13.1-13.1,19.6-19.7
			c3.2-3.3,6.5-6.6,9.6-10l9.2-10.4c6-7,12.3-13.8,18-21l17-21.7c21.9-29.6,42.6-59.8,61-91.6l7.1-11.7l6.7-12
			c4.4-8,9.1-15.9,13.3-24c8.2-16.4,16.9-32.5,24.1-49.4c7.9-16.6,14.3-33.8,21-50.8c3.2-8.6,5.9-17.4,8.8-26l4.2-13.1
			c1.4-4.4,2.4-8.8,3.6-13.3l6.8-26.5l5.4-26.8c0.9-4.5,1.8-8.9,2.6-13.4l2-13.5c1.3-9,2.8-18,3.9-27l2.7-27.1c0.4-4.5,1-9,1.2-13.6
			l0.7-13.6c0.4-9.1,1.1-18.1,1.3-27.2l0.2-27.2c0.1-14.3-17.4-14.1-18.4-0.7c-0.6,9.7-1.3,19.5-1.9,29.2c-1,9.7-2,19.4-3,29.2
			c-0.8,9.7-2.3,19.4-3.7,29.1c-1.5,9.7-2.4,19.4-4.4,29l-5.3,28.9l-6.7,28.6c-2,9.6-5,18.9-7.7,28.3c-2.7,9.4-5.3,18.8-8.7,28
			c-12.1,37-26.7,73.2-43.2,108.7l-6.3,13.2c-2.1,4.4-4.2,8.8-6.6,13.1l-14,25.8c-10.1,16.8-20.1,33.7-31.7,49.5
			c-22.6,32-48.5,61.7-76.8,88.7c-3.5,3.4-6.9,6.9-10.5,10.2l-10.9,9.8c-7.3,6.5-14.4,13.2-22,19.3l-22.5,18.6l-23.1,17.9
			c-31.1,23.5-63.6,45.1-97.7,64c-34.3,18.5-69.9,34.4-106.7,47c-37.8,12.6-76.3,22.5-115.4,29.9l-29.4,4.9l-29.6,3.5
			c-9.8,1.4-19.8,1.8-29.7,2.4c-9.9,0.6-19.8,1.4-29.7,1.3l-29.7,0l-29.6-1.7c-9.9-0.4-19.7-1.9-29.5-3c-9.8-1.2-19.6-2.2-29.3-4.1
			c-39-5.8-77.1-15.7-114.7-26.6l-14.1-4.2c-4.7-1.4-9.4-2.7-14-4.5l-27.7-9.7c-18.2-7.3-36.5-14.2-54.2-22.8
			c-35.5-16.5-69.9-35.4-102-57.8c-32.1-22.2-62.3-47-90.2-74.1c-27.7-27.2-53.2-56.4-76.7-87.1c-23.5-30.5-45.5-62.2-65.5-95.3
			l-7.4-12.5c-2.5-4.2-4.9-8.3-7.1-12.6l-13.3-25.7c-8-17.6-16-35.1-22-53.4l-4.6-13.6c-1.5-4.5-2.6-9.2-3.9-13.8
			c-2.4-9.3-5-18.4-6.9-27.8c-1.7-9.3-3.5-18.7-5.2-28c-1.7-9.3-2.5-18.8-3.8-28.1c-4.2-37.5-6.2-74.9-6.8-112.3
			c-0.8-37.4-0.5-75,3.6-112.2c4-37.2,9.8-74.2,20.3-109.9c10.3-35.7,22.7-70.7,38.2-104.4c15.5-33.6,33.3-66,53.1-97.2
			c19.8-30.6,41.5-59.8,65-87.6l17.9-20.6l18.8-19.7l4.7-4.9l4.9-4.7l9.9-9.4l9.8-9.4l10.3-8.9l10.2-9c3.4-3,6.8-6,10.4-8.8
			l21.1-17.2c14.6-10.8,28.9-22.1,44.2-32c30.2-20.3,61.8-38.9,95.2-53.6c4.2-1.9,8.2-3.9,12.5-5.6l12.7-5
			c8.5-3.2,16.9-6.9,25.7-9.5l26-8.4l26.4-7c8.7-2.6,17.8-4,26.6-6l13.4-2.8c4.4-1,9-1.5,13.5-2.3c9-1.4,17.9-3,26.9-4.3l27.1-3.2
			l6.8-0.8l6.8-0.5l13.6-1l13.6-1.1c4.5-0.4,9.1-0.3,13.6-0.5c9.1-0.2,18.2-0.7,27.3-0.8l27.3,0.5c9.1,0,18.2,1,27.2,1.6
			c9.1,0.7,18.2,1.3,27.1,2.7c9,1.3,18,2.5,27,3.9l26.7,5.6c77.5,18.2,152.1,48.8,219.3,90.8c33.6,20.9,65.7,44.1,96,69.3
			c30.3,25.3,58.6,52.9,85.1,82.1c28,30.8,54.5,63,78.3,97.3c5.7,8.7,11.8,17.3,17.3,26.2l16.1,27.1l14.6,28
			c4.6,9.5,8.7,19.2,13,28.9c32.4,77.9,51.4,163.3,51.8,249.2C1657,926.1,1656.6,926,1656.6,918.6z"/>
	</g>
</g>
</svg>
