<?xml version="1.0" encoding="utf-8"?>
<!-- Generator: Adobe Illustrator 19.0.0, SVG Export Plug-In . SVG Version: 6.00 Build 0)  -->
<svg version="1.1" id="Layer_1" xmlns="http://www.w3.org/2000/svg" xmlns:xlink="http://www.w3.org/1999/xlink" x="0px" y="0px"
	 viewBox="0 0 234.6 83.5" style="enable-background:new 0 0 234.6 83.5;" xml:space="preserve">
<style type="text/css">
	.st0{fill:#FFFFFF;}
</style>
<g>
	<g>
		<g>
			<path class="st0" d="M120.6,45.7c2.6-3.5,2.7-4.9,0.1-8.5c-0.2-0.3,0.1-0.6,0.4-0.4c3.5,2.6,4.9,2.7,8.5,0.1
				c0.3-0.2,0.6,0.1,0.4,0.4c-2.6,3.5-2.7,4.9-0.1,8.5c0.2,0.3-0.1,0.6-0.4,0.4c-3.5-2.6-4.9-2.7-8.5-0.1
				C120.7,46.2,120.4,45.9,120.6,45.7z"/>
		</g>
	</g>
	<g>
		<g>
			<path class="st0" d="M73.9,82.4C79,75.7,79,73,74.1,66.1c-0.3-0.5,0.3-1.1,0.7-0.7c6.7,5.1,9.4,5.1,16.2,0.2
				c0.5-0.3,1.1,0.3,0.7,0.7c-5.1,6.7-5.1,9.4-0.2,16.2c0.3,0.5-0.3,1.1-0.7,0.7c-6.7-5.1-9.4-5.1-16.2-0.2
				C74.1,83.4,73.5,82.8,73.9,82.4z"/>
		</g>
	</g>
	<g>
		<g>
			<path class="st0" d="M201,21.7c5.1-6.7,5.1-9.4,0.2-16.2c-0.3-0.5,0.3-1.1,0.7-0.7c6.7,5.1,9.4,5.1,16.2,0.2
				c0.5-0.3,1.1,0.3,0.7,0.7c-5.1,6.7-5.1,9.4-0.2,16.2c0.3,0.5-0.3,1.1-0.7,0.7c-6.7-5.1-9.4-5.1-16.2-0.2
				C201.2,22.8,200.6,22.2,201,21.7z"/>
		</g>
	</g>
	<g>
		<g>
			<path class="st0" d="M81.3,49.7c2.6-3.5,2.7-4.9,0.1-8.5c-0.2-0.3,0.1-0.6,0.4-0.4c3.5,2.6,4.9,2.7,8.5,0.1
				c0.3-0.2,0.6,0.1,0.4,0.4c-2.6,3.5-2.7,4.9-0.1,8.5c0.2,0.3-0.1,0.6-0.4,0.4c-3.5-2.6-4.9-2.7-8.5-0.1
				C81.4,50.3,81.1,50,81.3,49.7z"/>
		</g>
	</g>
	<g>
		<g>
			<path class="st0" d="M190.5,42.5c2.6-3.5,2.7-4.9,0.1-8.5c-0.2-0.3,0.1-0.6,0.4-0.4c3.5,2.6,4.9,2.7,8.5,0.1
				c0.3-0.2,0.6,0.1,0.4,0.4c-2.6,3.5-2.7,4.9-0.1,8.5c0.2,0.3-0.1,0.6-0.4,0.4c-3.5-2.6-4.9-2.7-8.5-0.1
				C190.6,43,190.3,42.7,190.5,42.5z"/>
		</g>
	</g>
	<g>
		<g>
			<path class="st0" d="M145.1,61.3c5.3-7,5.3-9.8,0.3-16.9c-0.4-0.5,0.3-1.1,0.8-0.7c7,5.3,9.8,5.3,16.9,0.3
				c0.5-0.4,1.1,0.3,0.7,0.8c-5.3,7-5.3,9.8-0.3,16.9c0.4,0.5-0.3,1.1-0.8,0.7c-7-5.3-9.8-5.3-16.9-0.3
				C145.4,62.4,144.8,61.8,145.1,61.3z"/>
		</g>
	</g>
	<g>
		<g>
			<path class="st0" d="M30.7,44.8c2.6-3.5,2.7-4.9,0.1-8.5c-0.2-0.3,0.1-0.6,0.4-0.4c3.5,2.6,4.9,2.7,8.5,0.1
				c0.3-0.2,0.6,0.1,0.4,0.4c-2.6,3.5-2.7,4.9-0.1,8.5c0.2,0.3-0.1,0.6-0.4,0.4c-3.5-2.6-4.9-2.7-8.5-0.1
				C30.8,45.4,30.5,45,30.7,44.8z"/>
		</g>
	</g>
	<g>
		<g>
			<path class="st0" d="M37.7,68.2c2.6-3.5,2.7-4.9,0.1-8.5c-0.2-0.3,0.1-0.6,0.4-0.4c3.5,2.6,4.9,2.7,8.5,0.1
				c0.3-0.2,0.6,0.1,0.4,0.4c-2.6,3.5-2.7,4.9-0.1,8.5c0.2,0.3-0.1,0.6-0.4,0.4C43,66,41.6,66,38,68.6
				C37.8,68.7,37.5,68.4,37.7,68.2z"/>
		</g>
	</g>
	<circle class="st0" cx="61.4" cy="38" r="2.5"/>
	<circle class="st0" cx="181.5" cy="58.7" r="2.5"/>
	<circle class="st0" cx="54.5" cy="59" r="1.6"/>
	<circle class="st0" cx="113.7" cy="29.6" r="1.6"/>
	<circle class="st0" cx="18.1" cy="55.7" r="1.2"/>
	<circle class="st0" cx="113.9" cy="72.6" r="1.2"/>
	<circle class="st0" cx="1.2" cy="31" r="1.2"/>
	<circle class="st0" cx="169.4" cy="27.4" r="1.2"/>
	<circle class="st0" cx="150.9" cy="72.8" r="1.2"/>
	<circle class="st0" cx="233.4" cy="1.2" r="1.2"/>
	<circle class="st0" cx="192.4" cy="13.4" r="1.2"/>
</g>
</svg>
