<?xml version="1.0" encoding="utf-8"?>
<!-- Generator: Adobe Illustrator 19.0.0, SVG Export Plug-In . SVG Version: 6.00 Build 0)  -->
<svg version="1.1" id="Layer_1" xmlns="http://www.w3.org/2000/svg" xmlns:xlink="http://www.w3.org/1999/xlink" x="0px" y="0px"
	 viewBox="0 0 686.8 89.4" style="enable-background:new 0 0 686.8 89.4;" xml:space="preserve">
<style type="text/css">
	.st0{fill:#FFFFFF;}
</style>
<g>
	<g>
		<g>
			<path class="st0" d="M572.8,45.7c2.6-3.5,2.7-4.9,0.1-8.5c-0.2-0.3,0.1-0.6,0.4-0.4c3.5,2.6,4.9,2.7,8.5,0.1
				c0.3-0.2,0.6,0.1,0.4,0.4c-2.6,3.5-2.7,4.9-0.1,8.5c0.2,0.3-0.1,0.6-0.4,0.4c-3.5-2.6-4.9-2.7-8.5-0.1
				C572.9,46.2,572.6,45.9,572.8,45.7z"/>
		</g>
	</g>
	<g>
		<g>
			<path class="st0" d="M526,82.4c5.1-6.7,5.1-9.4,0.2-16.2c-0.3-0.5,0.3-1.1,0.7-0.7c6.7,5.1,9.4,5.1,16.2,0.2
				c0.5-0.3,1.1,0.3,0.7,0.7c-5.1,6.7-5.1,9.4-0.2,16.2c0.3,0.5-0.3,1.1-0.7,0.7c-6.7-5.1-9.4-5.1-16.2-0.2
				C526.3,83.4,525.7,82.8,526,82.4z"/>
		</g>
	</g>
	<g>
		<g>
			<path class="st0" d="M653.2,21.7c5.1-6.7,5.1-9.4,0.2-16.2c-0.3-0.5,0.3-1.1,0.7-0.7c6.7,5.1,9.4,5.1,16.2,0.2
				c0.5-0.3,1.1,0.3,0.7,0.7c-5.1,6.7-5.1,9.4-0.2,16.2c0.3,0.5-0.3,1.1-0.7,0.7c-6.7-5.1-9.4-5.1-16.2-0.2
				C653.4,22.8,652.8,22.2,653.2,21.7z"/>
		</g>
	</g>
	<g>
		<g>
			<path class="st0" d="M533.5,49.7c2.6-3.5,2.7-4.9,0.1-8.5c-0.2-0.3,0.1-0.6,0.4-0.4c3.5,2.6,4.9,2.7,8.5,0.1
				c0.3-0.2,0.6,0.1,0.4,0.4c-2.6,3.5-2.7,4.9-0.1,8.5c0.2,0.3-0.1,0.6-0.4,0.4c-3.5-2.6-4.9-2.7-8.5-0.1
				C533.6,50.3,533.3,50,533.5,49.7z"/>
		</g>
	</g>
	<g>
		<g>
			<path class="st0" d="M642.7,42.5c2.6-3.5,2.7-4.9,0.1-8.5c-0.2-0.3,0.1-0.6,0.4-0.4c3.5,2.6,4.9,2.7,8.5,0.1
				c0.3-0.2,0.6,0.1,0.4,0.4c-2.6,3.5-2.7,4.9-0.1,8.5c0.2,0.3-0.1,0.6-0.4,0.4c-3.5-2.6-4.9-2.7-8.5-0.1
				C642.8,43,642.5,42.7,642.7,42.5z"/>
		</g>
	</g>
	<g>
		<g>
			<path class="st0" d="M597.3,61.3c5.3-7,5.3-9.8,0.3-16.9c-0.4-0.5,0.3-1.1,0.8-0.7c7,5.3,9.8,5.3,16.9,0.3
				c0.5-0.4,1.1,0.3,0.7,0.8c-5.3,7-5.3,9.8-0.3,16.9c0.4,0.5-0.3,1.1-0.8,0.7c-7-5.3-9.8-5.3-16.9-0.3
				C597.5,62.4,596.9,61.8,597.3,61.3z"/>
		</g>
	</g>
	<g>
		<g>
			<path class="st0" d="M482.9,44.8c2.6-3.5,2.7-4.9,0.1-8.5c-0.2-0.3,0.1-0.6,0.4-0.4c3.5,2.6,4.9,2.7,8.5,0.1
				c0.3-0.2,0.6,0.1,0.4,0.4c-2.6,3.5-2.7,4.9-0.1,8.5c0.2,0.3-0.1,0.6-0.4,0.4c-3.5-2.6-4.9-2.7-8.5-0.1
				C483,45.4,482.7,45,482.9,44.8z"/>
		</g>
	</g>
	<g>
		<g>
			<path class="st0" d="M489.8,68.2c2.6-3.5,2.7-4.9,0.1-8.5c-0.2-0.3,0.1-0.6,0.4-0.4c3.5,2.6,4.9,2.7,8.5,0.1
				c0.3-0.2,0.6,0.1,0.4,0.4c-2.6,3.5-2.7,4.9-0.1,8.5c0.2,0.3-0.1,0.6-0.4,0.4c-3.5-2.6-4.9-2.7-8.5-0.1
				C489.9,68.7,489.6,68.4,489.8,68.2z"/>
		</g>
	</g>
	<circle class="st0" cx="513.6" cy="38" r="2.5"/>
	<circle class="st0" cx="633.6" cy="58.7" r="2.5"/>
	<circle class="st0" cx="506.6" cy="59" r="1.6"/>
	<circle class="st0" cx="565.9" cy="29.6" r="1.6"/>
	<circle class="st0" cx="470.2" cy="55.7" r="1.2"/>
	<circle class="st0" cx="566.1" cy="72.6" r="1.2"/>
	<circle class="st0" cx="453.4" cy="31" r="1.2"/>
	<circle class="st0" cx="621.5" cy="27.4" r="1.2"/>
	<circle class="st0" cx="603" cy="72.8" r="1.2"/>
	<circle class="st0" cx="685.6" cy="1.2" r="1.2"/>
	<circle class="st0" cx="644.5" cy="13.4" r="1.2"/>
</g>
<g>
	<g>
		<g>
			<path class="st0" d="M120.6,51.6c2.6-3.5,2.7-4.9,0.1-8.5c-0.2-0.3,0.1-0.6,0.4-0.4c3.5,2.6,4.9,2.7,8.5,0.1
				c0.3-0.2,0.6,0.1,0.4,0.4c-2.6,3.5-2.7,4.9-0.1,8.5c0.2,0.3-0.1,0.6-0.4,0.4c-3.5-2.6-4.9-2.7-8.5-0.1
				C120.7,52.2,120.4,51.9,120.6,51.6z"/>
		</g>
	</g>
	<g>
		<g>
			<path class="st0" d="M73.9,88.3c5.1-6.7,5.1-9.4,0.2-16.2c-0.3-0.5,0.3-1.1,0.7-0.7c6.7,5.1,9.4,5.1,16.2,0.2
				c0.5-0.3,1.1,0.3,0.7,0.7c-5.1,6.7-5.1,9.4-0.2,16.2c0.3,0.5-0.3,1.1-0.7,0.7c-6.7-5.1-9.4-5.1-16.2-0.2
				C74.1,89.4,73.5,88.8,73.9,88.3z"/>
		</g>
	</g>
	<g>
		<g>
			<path class="st0" d="M201,27.7c5.1-6.7,5.1-9.4,0.2-16.2c-0.3-0.5,0.3-1.1,0.7-0.7c6.7,5.1,9.4,5.1,16.2,0.2
				c0.5-0.3,1.1,0.3,0.7,0.7c-5.1,6.7-5.1,9.4-0.2,16.2c0.3,0.5-0.3,1.1-0.7,0.7c-6.7-5.1-9.4-5.1-16.2-0.2
				C201.2,28.8,200.6,28.1,201,27.7z"/>
		</g>
	</g>
	<g>
		<g>
			<path class="st0" d="M81.3,55.7c2.6-3.5,2.7-4.9,0.1-8.5c-0.2-0.3,0.1-0.6,0.4-0.4c3.5,2.6,4.9,2.7,8.5,0.1
				c0.3-0.2,0.6,0.1,0.4,0.4c-2.6,3.5-2.7,4.9-0.1,8.5c0.2,0.3-0.1,0.6-0.4,0.4c-3.5-2.6-4.9-2.7-8.5-0.1
				C81.4,56.2,81.1,55.9,81.3,55.7z"/>
		</g>
	</g>
	<g>
		<g>
			<path class="st0" d="M190.5,48.4c2.6-3.5,2.7-4.9,0.1-8.5c-0.2-0.3,0.1-0.6,0.4-0.4c3.5,2.6,4.9,2.7,8.5,0.1
				c0.3-0.2,0.6,0.1,0.4,0.4c-2.6,3.5-2.7,4.9-0.1,8.5c0.2,0.3-0.1,0.6-0.4,0.4c-3.5-2.6-4.9-2.7-8.5-0.1
				C190.6,49,190.3,48.7,190.5,48.4z"/>
		</g>
	</g>
	<g>
		<g>
			<path class="st0" d="M145.1,67.3c5.3-7,5.3-9.8,0.3-16.9c-0.4-0.5,0.3-1.1,0.8-0.7c7,5.3,9.8,5.3,16.9,0.3
				c0.5-0.4,1.1,0.3,0.7,0.8c-5.3,7-5.3,9.8-0.3,16.9c0.4,0.5-0.3,1.1-0.8,0.7c-7-5.3-9.8-5.3-16.9-0.3
				C145.4,68.4,144.8,67.8,145.1,67.3z"/>
		</g>
	</g>
	<g>
		<g>
			<path class="st0" d="M30.7,50.8c2.6-3.5,2.7-4.9,0.1-8.5c-0.2-0.3,0.1-0.6,0.4-0.4c3.5,2.6,4.9,2.7,8.5,0.1
				c0.3-0.2,0.6,0.1,0.4,0.4c-2.6,3.5-2.7,4.9-0.1,8.5c0.2,0.3-0.1,0.6-0.4,0.4c-3.5-2.6-4.9-2.7-8.5-0.1
				C30.8,51.3,30.5,51,30.7,50.8z"/>
		</g>
	</g>
	<g>
		<g>
			<path class="st0" d="M37.7,74.2c2.6-3.5,2.7-4.9,0.1-8.5c-0.2-0.3,0.1-0.6,0.4-0.4c3.5,2.6,4.9,2.7,8.5,0.1
				c0.3-0.2,0.6,0.1,0.4,0.4c-2.6,3.5-2.7,4.9-0.1,8.5c0.2,0.3-0.1,0.6-0.4,0.4C43,72,41.6,72,38,74.5
				C37.8,74.7,37.5,74.4,37.7,74.2z"/>
		</g>
	</g>
	<circle class="st0" cx="61.4" cy="44" r="2.5"/>
	<circle class="st0" cx="181.5" cy="64.7" r="2.5"/>
	<circle class="st0" cx="54.5" cy="65" r="1.6"/>
	<circle class="st0" cx="113.7" cy="35.6" r="1.6"/>
	<circle class="st0" cx="18.1" cy="61.7" r="1.2"/>
	<circle class="st0" cx="113.9" cy="78.5" r="1.2"/>
	<circle class="st0" cx="1.2" cy="37" r="1.2"/>
	<circle class="st0" cx="169.4" cy="33.3" r="1.2"/>
	<circle class="st0" cx="150.9" cy="78.8" r="1.2"/>
	<circle class="st0" cx="233.4" cy="7.2" r="1.2"/>
	<circle class="st0" cx="192.4" cy="19.4" r="1.2"/>
</g>
</svg>
