<?xml version="1.0" encoding="utf-8"?>
<!-- Generator: Adobe Illustrator 19.0.0, SVG Export Plug-In . SVG Version: 6.00 Build 0)  -->
<svg version="1.1" id="Layer_1" xmlns="http://www.w3.org/2000/svg" xmlns:xlink="http://www.w3.org/1999/xlink" x="0px" y="0px"
	 viewBox="0 0 2017.1 295" style="enable-background:new 0 0 2017.1 295;" xml:space="preserve">
<style type="text/css">
	.st0{fill:#FAC5CB;}
</style>
<g>
	<path id="XMLID_44_" class="st0" d="M2017.1,74.8c-160.6-29.5-321.6-57-483.3-68.8c-91.1-6.7-182.5-8.3-273.7-2.5
		c-90.1,5.7-179.8,20.2-269.4,35.1c-88.6,14.7-177.2,29.1-266.3,35.2c-90.9,6.2-182,5.4-273,1C300.9,67.5,150.3,52.4,0,36.1
		c0.1,0.7,0.1,1.3,0.1,2v51.3c0.1,2.2,0.1,4.4,0,6.6v8.1c0.2,0,0.5,0,0.7,0.1V295h2015.5V143c0.2,0,0.5,0.1,0.7,0.1V74.8z"/>
</g>
</svg>
